<?xml version="1.0" encoding="UTF-8" standalone="no"?>
<!DOCTYPE svg PUBLIC "-//W3C//DTD SVG 1.1//EN"
 "http://www.w3.org/Graphics/SVG/1.1/DTD/svg11.dtd">
<!-- Generated by graphviz version 2.38.0 (20140413.2041)
 -->
<!-- Title: %3 Pages: 1 -->
<svg width="179pt" height="579pt"
 viewBox="0.00 0.00 178.55 579.19" xmlns="http://www.w3.org/2000/svg" xmlns:xlink="http://www.w3.org/1999/xlink">
<g id="graph0" class="graph" transform="scale(1 1) rotate(0) translate(4 575.193)">
<title>%3</title>
<polygon fill="white" stroke="none" points="-4,4 -4,-575.193 174.547,-575.193 174.547,4 -4,4"/>
<!-- fake0 -->
<g id="node1" class="node"><title>fake0</title>
</g>
<!-- T0 -->
<g id="node6" class="node"><title>T0</title>
<ellipse fill="none" stroke="black" cx="140" cy="-480.193" rx="27" ry="18"/>
<text text-anchor="middle" x="140" y="-476.493" font-family="Times New Roman,serif" font-size="14.00">T0</text>
</g>
<!-- fake0&#45;&gt;T0 -->
<g id="edge1" class="edge"><title>fake0&#45;&gt;T0</title>
<path fill="none" stroke="black" stroke-width="2" d="M140,-535.005C140,-526.982 140,-517.24 140,-508.262"/>
<polygon fill="black" stroke="black" stroke-width="2" points="143.5,-508.221 140,-498.221 136.5,-508.221 143.5,-508.221"/>
</g>
<!-- T4 -->
<g id="node2" class="node"><title>T4</title>
<ellipse fill="none" stroke="black" cx="27" cy="-306.193" rx="27" ry="18"/>
<text text-anchor="middle" x="27" y="-302.493" font-family="Times New Roman,serif" font-size="14.00">T4</text>
</g>
<!-- T4&#45;&gt;T4 -->
<g id="edge11" class="edge"><title>T4&#45;&gt;T4</title>
<path fill="none" stroke="black" d="M51.5325,-313.945C62.5078,-314.683 72,-312.099 72,-306.193 72,-302.224 67.7151,-299.756 61.5743,-298.787"/>
<polygon fill="black" stroke="black" points="61.6472,-295.288 51.5325,-298.441 61.4059,-302.283 61.6472,-295.288"/>
<text text-anchor="middle" x="76" y="-302.493" font-family="Times New Roman,serif" font-size="14.00">b</text>
</g>
<!-- T3 -->
<g id="node7" class="node"><title>T3</title>
<ellipse fill="none" stroke="black" cx="38" cy="-212.394" rx="20.6302" ry="20.6302"/>
<ellipse fill="none" stroke="black" cx="38" cy="-212.394" rx="24.5979" ry="24.5979"/>
<text text-anchor="middle" x="38" y="-208.694" font-family="Times New Roman,serif" font-size="14.00">T3</text>
</g>
<!-- T4&#45;&gt;T3 -->
<g id="edge10" class="edge"><title>T4&#45;&gt;T3</title>
<path fill="none" stroke="black" d="M29.069,-287.926C30.4378,-276.503 32.2786,-261.141 33.9334,-247.332"/>
<polygon fill="black" stroke="black" points="37.4369,-247.511 35.1516,-237.165 30.4866,-246.678 37.4369,-247.511"/>
<text text-anchor="middle" x="36.5" y="-258.993" font-family="Times New Roman,serif" font-size="14.00">a</text>
</g>
<!-- T1 -->
<g id="node3" class="node"><title>T1</title>
<ellipse fill="none" stroke="black" cx="104" cy="-393.193" rx="27" ry="18"/>
<text text-anchor="middle" x="104" y="-389.493" font-family="Times New Roman,serif" font-size="14.00">T1</text>
</g>
<!-- T1&#45;&gt;T4 -->
<g id="edge5" class="edge"><title>T1&#45;&gt;T4</title>
<path fill="none" stroke="black" d="M90.5876,-377.387C78.626,-364.182 60.9418,-344.661 47.2571,-329.554"/>
<polygon fill="black" stroke="black" points="49.8247,-327.175 40.517,-322.114 44.6368,-331.875 49.8247,-327.175"/>
<text text-anchor="middle" x="75" y="-345.993" font-family="Times New Roman,serif" font-size="14.00">b</text>
</g>
<!-- T1&#45;&gt;T3 -->
<g id="edge4" class="edge"><title>T1&#45;&gt;T3</title>
<path fill="none" stroke="black" d="M103.876,-375.026C103.2,-353.903 100.305,-317.267 89,-288.193 82.2078,-270.724 70.677,-253.3 60.2962,-239.669"/>
<polygon fill="black" stroke="black" points="62.9666,-237.402 54.0339,-231.705 57.4642,-241.729 62.9666,-237.402"/>
<text text-anchor="middle" x="102.5" y="-302.493" font-family="Times New Roman,serif" font-size="14.00">a</text>
</g>
<!-- T2 -->
<g id="node4" class="node"><title>T2</title>
<ellipse fill="none" stroke="black" cx="80" cy="-18" rx="27" ry="18"/>
<text text-anchor="middle" x="80" y="-14.3" font-family="Times New Roman,serif" font-size="14.00">T2</text>
</g>
<!-- T2&#45;&gt;T2 -->
<g id="edge6" class="edge"><title>T2&#45;&gt;T2</title>
<path fill="none" stroke="black" d="M106.795,-21.9288C116.78,-22.0577 125,-20.748 125,-18 125,-16.2825 121.789,-15.1268 116.943,-14.5331"/>
<polygon fill="black" stroke="black" points="116.944,-11.0296 106.795,-14.0712 116.625,-18.0223 116.944,-11.0296"/>
<text text-anchor="middle" x="128.5" y="-14.3" font-family="Times New Roman,serif" font-size="14.00">a</text>
</g>
<!-- T2&#45;&gt;T2 -->
<g id="edge7" class="edge"><title>T2&#45;&gt;T2</title>
<path fill="none" stroke="black" d="M105.229,-24.9445C124.041,-27.3695 143,-25.0547 143,-18 143,-12.213 130.242,-9.61542 115.273,-10.2074"/>
<polygon fill="black" stroke="black" points="114.899,-6.72644 105.229,-11.0555 115.488,-13.7016 114.899,-6.72644"/>
<text text-anchor="middle" x="147" y="-14.3" font-family="Times New Roman,serif" font-size="14.00">b</text>
</g>
<!-- T5 -->
<g id="node5" class="node"><title>T5</title>
<ellipse fill="none" stroke="black" cx="80" cy="-111.798" rx="20.6302" ry="20.6302"/>
<ellipse fill="none" stroke="black" cx="80" cy="-111.798" rx="24.5979" ry="24.5979"/>
<text text-anchor="middle" x="80" y="-108.098" font-family="Times New Roman,serif" font-size="14.00">T5</text>
</g>
<!-- T5&#45;&gt;T2 -->
<g id="edge12" class="edge"><title>T5&#45;&gt;T2</title>
<path fill="none" stroke="black" d="M80,-86.6793C80,-74.2289 80,-58.9952 80,-46.1353"/>
<polygon fill="black" stroke="black" points="83.5001,-46.0044 80,-36.0045 76.5001,-46.0045 83.5001,-46.0044"/>
<text text-anchor="middle" x="83.5" y="-57.8" font-family="Times New Roman,serif" font-size="14.00">a</text>
</g>
<!-- T5&#45;&gt;T5 -->
<g id="edge13" class="edge"><title>T5&#45;&gt;T5</title>
<path fill="none" stroke="black" d="M103.332,-121.027C113.77,-121.906 122.798,-118.829 122.798,-111.798 122.798,-107.294 119.093,-104.413 113.686,-103.154"/>
<polygon fill="black" stroke="black" points="113.514,-99.6392 103.332,-102.57 113.119,-106.628 113.514,-99.6392"/>
<text text-anchor="middle" x="126.798" y="-108.098" font-family="Times New Roman,serif" font-size="14.00">b</text>
</g>
<!-- T0&#45;&gt;T1 -->
<g id="edge2" class="edge"><title>T0&#45;&gt;T1</title>
<path fill="none" stroke="black" d="M132.888,-462.399C127.776,-450.33 120.788,-433.831 114.965,-420.083"/>
<polygon fill="black" stroke="black" points="118.098,-418.505 110.975,-410.662 111.652,-421.235 118.098,-418.505"/>
<text text-anchor="middle" x="128.5" y="-432.993" font-family="Times New Roman,serif" font-size="14.00">a</text>
</g>
<!-- T0&#45;&gt;T2 -->
<g id="edge3" class="edge"><title>T0&#45;&gt;T2</title>
<path fill="none" stroke="black" d="M146.012,-462.505C151.578,-445.541 159,-418.386 159,-394.193 159,-394.193 159,-394.193 159,-110.798 159,-78.7299 130.96,-52.2895 108.291,-36.1533"/>
<polygon fill="black" stroke="black" points="110.175,-33.2023 99.935,-30.4833 106.244,-38.9946 110.175,-33.2023"/>
<text text-anchor="middle" x="163" y="-258.993" font-family="Times New Roman,serif" font-size="14.00">b</text>
</g>
<!-- T3&#45;&gt;T2 -->
<g id="edge8" class="edge"><title>T3&#45;&gt;T2</title>
<path fill="none" stroke="black" d="M34.5112,-187.485C31.6416,-162.045 29.4303,-120.877 39,-87 43.5233,-70.9872 52.8959,-54.9573 61.5393,-42.4863"/>
<polygon fill="black" stroke="black" points="64.5926,-44.2374 67.6244,-34.0856 58.9236,-40.131 64.5926,-44.2374"/>
<text text-anchor="middle" x="42.5" y="-108.098" font-family="Times New Roman,serif" font-size="14.00">a</text>
</g>
<!-- T3&#45;&gt;T5 -->
<g id="edge9" class="edge"><title>T3&#45;&gt;T5</title>
<path fill="none" stroke="black" d="M47.5305,-189.021C53.1152,-175.911 60.2611,-159.136 66.4267,-144.662"/>
<polygon fill="black" stroke="black" points="69.8082,-145.654 70.5073,-135.083 63.3681,-142.911 69.8082,-145.654"/>
<text text-anchor="middle" x="66" y="-158.396" font-family="Times New Roman,serif" font-size="14.00">b</text>
</g>
</g>
</svg>
