<?xml version="1.0" encoding="UTF-8" standalone="no"?>
<!DOCTYPE svg PUBLIC "-//W3C//DTD SVG 1.1//EN"
 "http://www.w3.org/Graphics/SVG/1.1/DTD/svg11.dtd">
<!-- Generated by graphviz version 2.38.0 (20140413.2041)
 -->
<!-- Title: %3 Pages: 1 -->
<svg width="104pt" height="827pt"
 viewBox="0.00 0.00 103.55 826.60" xmlns="http://www.w3.org/2000/svg" xmlns:xlink="http://www.w3.org/1999/xlink">
<g id="graph0" class="graph" transform="scale(1 1) rotate(0) translate(4 822.596)">
<title>%3</title>
<polygon fill="white" stroke="none" points="-4,4 -4,-822.596 99.5473,-822.596 99.5473,4 -4,4"/>
<!-- fake0 -->
<g id="node1" class="node"><title>fake0</title>
</g>
<!-- T0 -->
<g id="node6" class="node"><title>T0</title>
<ellipse fill="none" stroke="black" cx="65" cy="-727.596" rx="27" ry="18"/>
<text text-anchor="middle" x="65" y="-723.896" font-family="Times New Roman,serif" font-size="14.00">T0</text>
</g>
<!-- fake0&#45;&gt;T0 -->
<g id="edge1" class="edge"><title>fake0&#45;&gt;T0</title>
<path fill="none" stroke="black" stroke-width="2" d="M65,-782.409C65,-774.386 65,-764.644 65,-755.665"/>
<polygon fill="black" stroke="black" stroke-width="2" points="68.5001,-755.625 65,-745.625 61.5001,-755.625 68.5001,-755.625"/>
</g>
<!-- T4 -->
<g id="node2" class="node"><title>T4</title>
<ellipse fill="none" stroke="black" cx="65" cy="-640.596" rx="27" ry="18"/>
<text text-anchor="middle" x="65" y="-636.896" font-family="Times New Roman,serif" font-size="14.00">T4</text>
</g>
<!-- T1 -->
<g id="node3" class="node"><title>T1</title>
<ellipse fill="none" stroke="black" cx="32" cy="-553.596" rx="27" ry="18"/>
<text text-anchor="middle" x="32" y="-549.896" font-family="Times New Roman,serif" font-size="14.00">T1</text>
</g>
<!-- T4&#45;&gt;T1 -->
<g id="edge8" class="edge"><title>T4&#45;&gt;T1</title>
<path fill="none" stroke="black" d="M58.4803,-622.803C53.8249,-610.812 47.4716,-594.447 42.1551,-580.753"/>
<polygon fill="black" stroke="black" points="45.3882,-579.41 38.5062,-571.355 38.8627,-581.944 45.3882,-579.41"/>
<text text-anchor="middle" x="58.5" y="-593.396" font-family="Times New Roman,serif" font-size="14.00">EP</text>
</g>
<!-- T3 -->
<g id="node7" class="node"><title>T3</title>
<ellipse fill="none" stroke="black" cx="65" cy="-379.596" rx="27" ry="18"/>
<text text-anchor="middle" x="65" y="-375.896" font-family="Times New Roman,serif" font-size="14.00">T3</text>
</g>
<!-- T4&#45;&gt;T3 -->
<g id="edge7" class="edge"><title>T4&#45;&gt;T3</title>
<path fill="none" stroke="black" d="M68.4937,-622.579C69.5078,-616.888 70.4812,-610.492 71,-604.596 77.7784,-527.559 71.7778,-507.931 72,-430.596 72.0192,-423.93 72.6569,-422.231 72,-415.596 71.7435,-413.006 71.3828,-410.324 70.9589,-407.65"/>
<polygon fill="black" stroke="black" points="74.3579,-406.782 69.0982,-397.585 67.4745,-408.054 74.3579,-406.782"/>
<text text-anchor="middle" x="81.5" y="-506.396" font-family="Times New Roman,serif" font-size="14.00">EP</text>
</g>
<!-- T2 -->
<g id="node4" class="node"><title>T2</title>
<ellipse fill="none" stroke="black" cx="32" cy="-466.596" rx="27" ry="18"/>
<text text-anchor="middle" x="32" y="-462.896" font-family="Times New Roman,serif" font-size="14.00">T2</text>
</g>
<!-- T1&#45;&gt;T2 -->
<g id="edge3" class="edge"><title>T1&#45;&gt;T2</title>
<path fill="none" stroke="black" d="M19.657,-537.198C13.3695,-527.492 7.68257,-514.573 11,-502.596 12.0049,-498.968 13.4971,-495.339 15.231,-491.865"/>
<polygon fill="black" stroke="black" points="18.2944,-493.558 20.2169,-483.139 12.2167,-490.085 18.2944,-493.558"/>
<text text-anchor="middle" x="15" y="-506.396" font-family="Times New Roman,serif" font-size="14.00">b</text>
</g>
<!-- T2&#45;&gt;T1 -->
<g id="edge5" class="edge"><title>T2&#45;&gt;T1</title>
<path fill="none" stroke="black" d="M32,-484.772C32,-496.402 32,-512.016 32,-525.33"/>
<polygon fill="black" stroke="black" points="28.5001,-525.395 32,-535.395 35.5001,-525.395 28.5001,-525.395"/>
<text text-anchor="middle" x="40.5" y="-506.396" font-family="Times New Roman,serif" font-size="14.00">EP</text>
</g>
<!-- T2&#45;&gt;T3 -->
<g id="edge4" class="edge"><title>T2&#45;&gt;T3</title>
<path fill="none" stroke="black" d="M38.5197,-448.803C43.1751,-436.812 49.5284,-420.447 54.8449,-406.753"/>
<polygon fill="black" stroke="black" points="58.1373,-407.944 58.4938,-397.355 51.6118,-405.41 58.1373,-407.944"/>
<text text-anchor="middle" x="59.5" y="-419.396" font-family="Times New Roman,serif" font-size="14.00">EP</text>
</g>
<!-- T5 -->
<g id="node5" class="node"><title>T5</title>
<ellipse fill="none" stroke="black" cx="65" cy="-292.596" rx="27" ry="18"/>
<text text-anchor="middle" x="65" y="-288.896" font-family="Times New Roman,serif" font-size="14.00">T5</text>
</g>
<!-- T6 -->
<g id="node8" class="node"><title>T6</title>
<ellipse fill="none" stroke="black" cx="27" cy="-205.596" rx="27" ry="18"/>
<text text-anchor="middle" x="27" y="-201.896" font-family="Times New Roman,serif" font-size="14.00">T6</text>
</g>
<!-- T5&#45;&gt;T6 -->
<g id="edge9" class="edge"><title>T5&#45;&gt;T6</title>
<path fill="none" stroke="black" d="M57.6732,-275.207C52.2585,-263.096 44.7787,-246.365 38.5611,-232.457"/>
<polygon fill="black" stroke="black" points="41.5809,-230.636 34.3043,-222.935 35.1904,-233.493 41.5809,-230.636"/>
<text text-anchor="middle" x="56.5" y="-245.396" font-family="Times New Roman,serif" font-size="14.00">EP</text>
</g>
<!-- T8 -->
<g id="node9" class="node"><title>T8</title>
<ellipse fill="none" stroke="black" cx="60" cy="-24.7982" rx="20.6302" ry="20.6302"/>
<ellipse fill="none" stroke="black" cx="60" cy="-24.7982" rx="24.5979" ry="24.5979"/>
<text text-anchor="middle" x="60" y="-21.0982" font-family="Times New Roman,serif" font-size="14.00">T8</text>
</g>
<!-- T5&#45;&gt;T8 -->
<g id="edge10" class="edge"><title>T5&#45;&gt;T8</title>
<path fill="none" stroke="black" d="M66.7575,-274.525C67.2653,-268.83 67.7498,-262.446 68,-256.596 68.2849,-249.936 68.0575,-248.263 68,-241.596 67.3333,-164.254 70.2668,-144.762 65,-67.5963 64.8258,-65.0443 64.6058,-62.4089 64.3557,-59.7604"/>
<polygon fill="black" stroke="black" points="67.8163,-59.2033 63.2758,-49.6307 60.8557,-59.9455 67.8163,-59.2033"/>
<text text-anchor="middle" x="76.5" y="-158.396" font-family="Times New Roman,serif" font-size="14.00">EP</text>
</g>
<!-- T0&#45;&gt;T4 -->
<g id="edge2" class="edge"><title>T0&#45;&gt;T4</title>
<path fill="none" stroke="black" d="M65,-709.395C65,-697.759 65,-682.144 65,-668.833"/>
<polygon fill="black" stroke="black" points="68.5001,-668.772 65,-658.772 61.5001,-668.772 68.5001,-668.772"/>
<text text-anchor="middle" x="68.5" y="-680.396" font-family="Times New Roman,serif" font-size="14.00">a</text>
</g>
<!-- T3&#45;&gt;T5 -->
<g id="edge6" class="edge"><title>T3&#45;&gt;T5</title>
<path fill="none" stroke="black" d="M65,-361.395C65,-349.759 65,-334.144 65,-320.833"/>
<polygon fill="black" stroke="black" points="68.5001,-320.772 65,-310.772 61.5001,-320.772 68.5001,-320.772"/>
<text text-anchor="middle" x="68.5" y="-332.396" font-family="Times New Roman,serif" font-size="14.00">a</text>
</g>
<!-- T7 -->
<g id="node10" class="node"><title>T7</title>
<ellipse fill="none" stroke="black" cx="27" cy="-118.596" rx="27" ry="18"/>
<text text-anchor="middle" x="27" y="-114.896" font-family="Times New Roman,serif" font-size="14.00">T7</text>
</g>
<!-- T6&#45;&gt;T7 -->
<g id="edge11" class="edge"><title>T6&#45;&gt;T7</title>
<path fill="none" stroke="black" d="M14.657,-189.198C8.36949,-179.492 2.68257,-166.573 6,-154.596 7.00489,-150.968 8.49706,-147.339 10.231,-143.865"/>
<polygon fill="black" stroke="black" points="13.2944,-145.558 15.2169,-135.139 7.21667,-142.085 13.2944,-145.558"/>
<text text-anchor="middle" x="10" y="-158.396" font-family="Times New Roman,serif" font-size="14.00">b</text>
</g>
<!-- T7&#45;&gt;T6 -->
<g id="edge12" class="edge"><title>T7&#45;&gt;T6</title>
<path fill="none" stroke="black" d="M27,-136.772C27,-148.402 27,-164.016 27,-177.33"/>
<polygon fill="black" stroke="black" points="23.5001,-177.395 27,-187.395 30.5001,-177.395 23.5001,-177.395"/>
<text text-anchor="middle" x="35.5" y="-158.396" font-family="Times New Roman,serif" font-size="14.00">EP</text>
</g>
<!-- T7&#45;&gt;T8 -->
<g id="edge13" class="edge"><title>T7&#45;&gt;T8</title>
<path fill="none" stroke="black" d="M33.0527,-100.759C37.3463,-88.8154 43.2432,-72.4116 48.4261,-57.9939"/>
<polygon fill="black" stroke="black" points="51.7825,-59.0033 51.8718,-48.4089 45.1952,-56.6352 51.7825,-59.0033"/>
<text text-anchor="middle" x="52.5" y="-71.3963" font-family="Times New Roman,serif" font-size="14.00">EP</text>
</g>
</g>
</svg>
