<?xml version="1.0" encoding="UTF-8" standalone="no"?>
<!DOCTYPE svg PUBLIC "-//W3C//DTD SVG 1.1//EN"
 "http://www.w3.org/Graphics/SVG/1.1/DTD/svg11.dtd">
<!-- Generated by graphviz version 2.38.0 (20140413.2041)
 -->
<!-- Title: %3 Pages: 1 -->
<svg width="125pt" height="392pt"
 viewBox="0.00 0.00 124.55 391.60" xmlns="http://www.w3.org/2000/svg" xmlns:xlink="http://www.w3.org/1999/xlink">
<g id="graph0" class="graph" transform="scale(1 1) rotate(0) translate(4 387.596)">
<title>%3</title>
<polygon fill="white" stroke="none" points="-4,4 -4,-387.596 120.547,-387.596 120.547,4 -4,4"/>
<!-- fake0 -->
<g id="node1" class="node"><title>fake0</title>
</g>
<!-- T0 -->
<g id="node3" class="node"><title>T0</title>
<ellipse fill="none" stroke="black" cx="30.5473" cy="-292.596" rx="27" ry="18"/>
<text text-anchor="middle" x="30.5473" y="-288.896" font-family="Times New Roman,serif" font-size="14.00">T0</text>
</g>
<!-- fake0&#45;&gt;T0 -->
<g id="edge1" class="edge"><title>fake0&#45;&gt;T0</title>
<path fill="none" stroke="black" stroke-width="2" d="M30.5473,-347.409C30.5473,-339.386 30.5473,-329.644 30.5473,-320.665"/>
<polygon fill="black" stroke="black" stroke-width="2" points="34.0474,-320.625 30.5473,-310.625 27.0474,-320.625 34.0474,-320.625"/>
</g>
<!-- T2 -->
<g id="node2" class="node"><title>T2</title>
<ellipse fill="none" stroke="black" cx="29.5473" cy="-18" rx="27" ry="18"/>
<text text-anchor="middle" x="29.5473" y="-14.3" font-family="Times New Roman,serif" font-size="14.00">T2</text>
</g>
<!-- T2&#45;&gt;T2 -->
<g id="edge6" class="edge"><title>T2&#45;&gt;T2</title>
<path fill="none" stroke="black" d="M56.3421,-21.9288C66.3277,-22.0577 74.5473,-20.748 74.5473,-18 74.5473,-16.2825 71.3365,-15.1268 66.4905,-14.5331"/>
<polygon fill="black" stroke="black" points="66.491,-11.0296 56.3421,-14.0712 66.1726,-18.0223 66.491,-11.0296"/>
<text text-anchor="middle" x="78.0473" y="-14.3" font-family="Times New Roman,serif" font-size="14.00">a</text>
</g>
<!-- T2&#45;&gt;T2 -->
<g id="edge7" class="edge"><title>T2&#45;&gt;T2</title>
<path fill="none" stroke="black" d="M54.7765,-24.9445C73.5878,-27.3695 92.5473,-25.0547 92.5473,-18 92.5473,-12.213 79.7892,-9.61542 64.8205,-10.2074"/>
<polygon fill="black" stroke="black" points="64.4465,-6.72644 54.7765,-11.0555 65.0355,-13.7016 64.4465,-6.72644"/>
<text text-anchor="middle" x="96.5473" y="-14.3" font-family="Times New Roman,serif" font-size="14.00">b</text>
</g>
<!-- T0&#45;&gt;T2 -->
<g id="edge3" class="edge"><title>T0&#45;&gt;T2</title>
<path fill="none" stroke="black" d="M29.5871,-274.556C28.8625,-260.807 27.9302,-240.963 27.5473,-223.596 26.2091,-162.902 26.6548,-147.703 27.5473,-87 27.7447,-73.5733 28.1612,-58.6601 28.5634,-46.2292"/>
<polygon fill="black" stroke="black" points="32.0677,-46.1562 28.9071,-36.0438 25.0717,-45.92 32.0677,-46.1562"/>
<text text-anchor="middle" x="31.5473" y="-158.396" font-family="Times New Roman,serif" font-size="14.00">b</text>
</g>
<!-- T1 -->
<g id="node5" class="node"><title>T1</title>
<ellipse fill="none" stroke="black" cx="63.5473" cy="-205.596" rx="27" ry="18"/>
<text text-anchor="middle" x="63.5473" y="-201.896" font-family="Times New Roman,serif" font-size="14.00">T1</text>
</g>
<!-- T0&#45;&gt;T1 -->
<g id="edge2" class="edge"><title>T0&#45;&gt;T1</title>
<path fill="none" stroke="black" d="M37.067,-274.803C41.7224,-262.812 48.0757,-246.447 53.3922,-232.753"/>
<polygon fill="black" stroke="black" points="56.6846,-233.944 57.0411,-223.355 50.1591,-231.41 56.6846,-233.944"/>
<text text-anchor="middle" x="54.0473" y="-245.396" font-family="Times New Roman,serif" font-size="14.00">a</text>
</g>
<!-- T3 -->
<g id="node4" class="node"><title>T3</title>
<ellipse fill="none" stroke="black" cx="61.5473" cy="-111.798" rx="20.6302" ry="20.6302"/>
<ellipse fill="none" stroke="black" cx="61.5473" cy="-111.798" rx="24.5979" ry="24.5979"/>
<text text-anchor="middle" x="61.5473" y="-108.098" font-family="Times New Roman,serif" font-size="14.00">T3</text>
</g>
<!-- T3&#45;&gt;T2 -->
<g id="edge8" class="edge"><title>T3&#45;&gt;T2</title>
<path fill="none" stroke="black" d="M53.6372,-88.1065C49.1241,-75.1599 43.4457,-58.8703 38.7356,-45.3585"/>
<polygon fill="black" stroke="black" points="41.9546,-43.9595 35.3579,-35.6689 35.3447,-46.2637 41.9546,-43.9595"/>
<text text-anchor="middle" x="50.0473" y="-57.8" font-family="Times New Roman,serif" font-size="14.00">a</text>
</g>
<!-- T3&#45;&gt;T3 -->
<g id="edge9" class="edge"><title>T3&#45;&gt;T3</title>
<path fill="none" stroke="black" d="M84.8794,-121.027C95.3177,-121.906 104.345,-118.829 104.345,-111.798 104.345,-107.294 100.64,-104.413 95.2331,-103.154"/>
<polygon fill="black" stroke="black" points="95.0609,-99.6392 84.8794,-102.57 94.6661,-106.628 95.0609,-99.6392"/>
<text text-anchor="middle" x="108.345" y="-108.098" font-family="Times New Roman,serif" font-size="14.00">b</text>
</g>
<!-- T1&#45;&gt;T3 -->
<g id="edge4" class="edge"><title>T1&#45;&gt;T3</title>
<path fill="none" stroke="black" d="M63.1711,-187.33C62.924,-175.99 62.5924,-160.767 62.2932,-147.036"/>
<polygon fill="black" stroke="black" points="65.7898,-146.837 62.0727,-136.915 58.7915,-146.989 65.7898,-146.837"/>
<text text-anchor="middle" x="66.0473" y="-158.396" font-family="Times New Roman,serif" font-size="14.00">a</text>
</g>
<!-- T1&#45;&gt;T1 -->
<g id="edge5" class="edge"><title>T1&#45;&gt;T1</title>
<path fill="none" stroke="black" d="M88.0798,-213.348C99.0551,-214.087 108.547,-211.503 108.547,-205.596 108.547,-201.628 104.262,-199.16 98.1216,-198.191"/>
<polygon fill="black" stroke="black" points="98.1945,-194.691 88.0798,-197.844 97.9531,-201.687 98.1945,-194.691"/>
<text text-anchor="middle" x="112.547" y="-201.896" font-family="Times New Roman,serif" font-size="14.00">b</text>
</g>
</g>
</svg>
