<?xml version="1.0" encoding="UTF-8" standalone="no"?>
<!DOCTYPE svg PUBLIC "-//W3C//DTD SVG 1.1//EN"
 "http://www.w3.org/Graphics/SVG/1.1/DTD/svg11.dtd">
<!-- Generated by graphviz version 2.38.0 (20140413.2041)
 -->
<!-- Title: %3 Pages: 1 -->
<svg width="169pt" height="392pt"
 viewBox="0.00 0.00 169.00 391.60" xmlns="http://www.w3.org/2000/svg" xmlns:xlink="http://www.w3.org/1999/xlink">
<g id="graph0" class="graph" transform="scale(1 1) rotate(0) translate(4 387.596)">
<title>%3</title>
<polygon fill="white" stroke="none" points="-4,4 -4,-387.596 165,-387.596 165,4 -4,4"/>
<!-- fake0 -->
<g id="node1" class="node"><title>fake0</title>
</g>
<!-- T0 -->
<g id="node3" class="node"><title>T0</title>
<ellipse fill="none" stroke="black" cx="87" cy="-292.596" rx="27" ry="18"/>
<text text-anchor="middle" x="87" y="-288.896" font-family="Times New Roman,serif" font-size="14.00">T0</text>
</g>
<!-- fake0&#45;&gt;T0 -->
<g id="edge1" class="edge"><title>fake0&#45;&gt;T0</title>
<path fill="none" stroke="black" stroke-width="2" d="M87,-347.409C87,-339.386 87,-329.644 87,-320.665"/>
<polygon fill="black" stroke="black" stroke-width="2" points="90.5001,-320.625 87,-310.625 83.5001,-320.625 90.5001,-320.625"/>
</g>
<!-- T1 -->
<g id="node2" class="node"><title>T1</title>
<ellipse fill="none" stroke="black" cx="27" cy="-205.596" rx="27" ry="18"/>
<text text-anchor="middle" x="27" y="-201.896" font-family="Times New Roman,serif" font-size="14.00">T1</text>
</g>
<!-- T1&#45;&gt;T1 -->
<g id="edge5" class="edge"><title>T1&#45;&gt;T1</title>
<path fill="none" stroke="black" d="M51.5325,-213.348C62.5078,-214.087 72,-211.503 72,-205.596 72,-201.628 67.7151,-199.16 61.5743,-198.191"/>
<polygon fill="black" stroke="black" points="61.6472,-194.691 51.5325,-197.844 61.4059,-201.687 61.6472,-194.691"/>
<text text-anchor="middle" x="76" y="-201.896" font-family="Times New Roman,serif" font-size="14.00">b</text>
</g>
<!-- T3 -->
<g id="node5" class="node"><title>T3</title>
<ellipse fill="none" stroke="black" cx="29" cy="-111.798" rx="20.6302" ry="20.6302"/>
<ellipse fill="none" stroke="black" cx="29" cy="-111.798" rx="24.5979" ry="24.5979"/>
<text text-anchor="middle" x="29" y="-108.098" font-family="Times New Roman,serif" font-size="14.00">T3</text>
</g>
<!-- T1&#45;&gt;T3 -->
<g id="edge4" class="edge"><title>T1&#45;&gt;T3</title>
<path fill="none" stroke="black" d="M27.3762,-187.33C27.6233,-175.99 27.9549,-160.767 28.2541,-147.036"/>
<polygon fill="black" stroke="black" points="31.7558,-146.989 28.4746,-136.915 24.7575,-146.837 31.7558,-146.989"/>
<text text-anchor="middle" x="32.5" y="-158.396" font-family="Times New Roman,serif" font-size="14.00">a</text>
</g>
<!-- T0&#45;&gt;T1 -->
<g id="edge2" class="edge"><title>T0&#45;&gt;T1</title>
<path fill="none" stroke="black" d="M75.9951,-276.006C67.0299,-263.305 54.2199,-245.158 43.9468,-230.604"/>
<polygon fill="black" stroke="black" points="46.5614,-228.239 37.9352,-222.088 40.8426,-232.276 46.5614,-228.239"/>
<text text-anchor="middle" x="64.5" y="-245.396" font-family="Times New Roman,serif" font-size="14.00">a</text>
</g>
<!-- T2 -->
<g id="node4" class="node"><title>T2</title>
<ellipse fill="none" stroke="black" cx="83" cy="-18" rx="27" ry="18"/>
<text text-anchor="middle" x="83" y="-14.3" font-family="Times New Roman,serif" font-size="14.00">T2</text>
</g>
<!-- T0&#45;&gt;T2 -->
<g id="edge3" class="edge"><title>T0&#45;&gt;T2</title>
<path fill="none" stroke="black" d="M87.7942,-274.341C89.2775,-239.111 92.0549,-156.378 89,-87 88.4073,-73.5385 87.1576,-58.6215 85.9513,-46.197"/>
<polygon fill="black" stroke="black" points="89.4104,-45.6156 84.9201,-36.0194 82.4461,-46.3213 89.4104,-45.6156"/>
<text text-anchor="middle" x="95" y="-158.396" font-family="Times New Roman,serif" font-size="14.00">b</text>
</g>
<!-- T2&#45;&gt;T2 -->
<g id="edge6" class="edge"><title>T2&#45;&gt;T2</title>
<path fill="none" stroke="black" d="M109.795,-21.9288C119.78,-22.0577 128,-20.748 128,-18 128,-16.2825 124.789,-15.1268 119.943,-14.5331"/>
<polygon fill="black" stroke="black" points="119.944,-11.0296 109.795,-14.0712 119.625,-18.0223 119.944,-11.0296"/>
<text text-anchor="middle" x="131.5" y="-14.3" font-family="Times New Roman,serif" font-size="14.00">a</text>
</g>
<!-- T2&#45;&gt;T2 -->
<g id="edge7" class="edge"><title>T2&#45;&gt;T2</title>
<path fill="none" stroke="black" d="M108.229,-24.9445C127.041,-27.3695 146,-25.0547 146,-18 146,-12.213 133.242,-9.61542 118.273,-10.2074"/>
<polygon fill="black" stroke="black" points="117.899,-6.72644 108.229,-11.0555 118.488,-13.7016 117.899,-6.72644"/>
<text text-anchor="middle" x="150" y="-14.3" font-family="Times New Roman,serif" font-size="14.00">b</text>
</g>
<!-- T3&#45;&gt;T2 -->
<g id="edge8" class="edge"><title>T3&#45;&gt;T2</title>
<path fill="none" stroke="black" d="M41.2534,-89.9677C49.3197,-76.2553 59.919,-58.2368 68.4189,-43.7874"/>
<polygon fill="black" stroke="black" points="71.6001,-45.2824 73.6536,-34.8885 65.5666,-41.7332 71.6001,-45.2824"/>
<text text-anchor="middle" x="64.5" y="-57.8" font-family="Times New Roman,serif" font-size="14.00">a</text>
</g>
<!-- T3&#45;&gt;T3 -->
<g id="edge9" class="edge"><title>T3&#45;&gt;T3</title>
<path fill="none" stroke="black" d="M52.3321,-121.027C62.7704,-121.906 71.7982,-118.829 71.7982,-111.798 71.7982,-107.294 68.0932,-104.413 62.6858,-103.154"/>
<polygon fill="black" stroke="black" points="62.5136,-99.6392 52.3321,-102.57 62.1188,-106.628 62.5136,-99.6392"/>
<text text-anchor="middle" x="75.7982" y="-108.098" font-family="Times New Roman,serif" font-size="14.00">b</text>
</g>
</g>
</svg>
