<?xml version="1.0" encoding="UTF-8" standalone="no"?>
<!DOCTYPE svg PUBLIC "-//W3C//DTD SVG 1.1//EN"
 "http://www.w3.org/Graphics/SVG/1.1/DTD/svg11.dtd">
<!-- Generated by graphviz version 2.38.0 (20140413.2041)
 -->
<!-- Title: %3 Pages: 1 -->
<svg width="134pt" height="827pt"
 viewBox="0.00 0.00 134.00 826.60" xmlns="http://www.w3.org/2000/svg" xmlns:xlink="http://www.w3.org/1999/xlink">
<g id="graph0" class="graph" transform="scale(1 1) rotate(0) translate(4 822.596)">
<title>%3</title>
<polygon fill="white" stroke="none" points="-4,4 -4,-822.596 130,-822.596 130,4 -4,4"/>
<!-- fake0 -->
<g id="node1" class="node"><title>fake0</title>
</g>
<!-- T0 -->
<g id="node7" class="node"><title>T0</title>
<ellipse fill="none" stroke="black" cx="60" cy="-727.596" rx="27" ry="18"/>
<text text-anchor="middle" x="60" y="-723.896" font-family="Times New Roman,serif" font-size="14.00">T0</text>
</g>
<!-- fake0&#45;&gt;T0 -->
<g id="edge1" class="edge"><title>fake0&#45;&gt;T0</title>
<path fill="none" stroke="black" stroke-width="2" d="M60,-782.409C60,-774.386 60,-764.644 60,-755.665"/>
<polygon fill="black" stroke="black" stroke-width="2" points="63.5001,-755.625 60,-745.625 56.5001,-755.625 63.5001,-755.625"/>
</g>
<!-- T4 -->
<g id="node2" class="node"><title>T4</title>
<ellipse fill="none" stroke="black" cx="60" cy="-640.596" rx="27" ry="18"/>
<text text-anchor="middle" x="60" y="-636.896" font-family="Times New Roman,serif" font-size="14.00">T4</text>
</g>
<!-- T1 -->
<g id="node3" class="node"><title>T1</title>
<ellipse fill="none" stroke="black" cx="27" cy="-553.596" rx="27" ry="18"/>
<text text-anchor="middle" x="27" y="-549.896" font-family="Times New Roman,serif" font-size="14.00">T1</text>
</g>
<!-- T4&#45;&gt;T1 -->
<g id="edge7" class="edge"><title>T4&#45;&gt;T1</title>
<path fill="none" stroke="black" d="M53.4803,-622.803C48.8249,-610.812 42.4716,-594.447 37.1551,-580.753"/>
<polygon fill="black" stroke="black" points="40.3882,-579.41 33.5062,-571.355 33.8627,-581.944 40.3882,-579.41"/>
<text text-anchor="middle" x="53.5" y="-593.396" font-family="Times New Roman,serif" font-size="14.00">EP</text>
</g>
<!-- T3 -->
<g id="node10" class="node"><title>T3</title>
<ellipse fill="none" stroke="black" cx="60" cy="-379.596" rx="27" ry="18"/>
<text text-anchor="middle" x="60" y="-375.896" font-family="Times New Roman,serif" font-size="14.00">T3</text>
</g>
<!-- T4&#45;&gt;T3 -->
<g id="edge8" class="edge"><title>T4&#45;&gt;T3</title>
<path fill="none" stroke="black" d="M63.4937,-622.579C64.5078,-616.888 65.4812,-610.492 66,-604.596 72.7784,-527.559 66.7778,-507.931 67,-430.596 67.0192,-423.93 67.6569,-422.231 67,-415.596 66.7435,-413.006 66.3828,-410.324 65.9589,-407.65"/>
<polygon fill="black" stroke="black" points="69.3579,-406.782 64.0982,-397.585 62.4745,-408.054 69.3579,-406.782"/>
<text text-anchor="middle" x="76.5" y="-506.396" font-family="Times New Roman,serif" font-size="14.00">EP</text>
</g>
<!-- T2 -->
<g id="node5" class="node"><title>T2</title>
<ellipse fill="none" stroke="black" cx="27" cy="-466.596" rx="27" ry="18"/>
<text text-anchor="middle" x="27" y="-462.896" font-family="Times New Roman,serif" font-size="14.00">T2</text>
</g>
<!-- T1&#45;&gt;T2 -->
<g id="edge3" class="edge"><title>T1&#45;&gt;T2</title>
<path fill="none" stroke="black" d="M14.657,-537.198C8.36949,-527.492 2.68257,-514.573 6,-502.596 7.00489,-498.968 8.49706,-495.339 10.231,-491.865"/>
<polygon fill="black" stroke="black" points="13.2944,-493.558 15.2169,-483.139 7.21667,-490.085 13.2944,-493.558"/>
<text text-anchor="middle" x="10" y="-506.396" font-family="Times New Roman,serif" font-size="14.00">b</text>
</g>
<!-- T7 -->
<g id="node4" class="node"><title>T7</title>
<ellipse fill="none" stroke="black" cx="99" cy="-118.596" rx="27" ry="18"/>
<text text-anchor="middle" x="99" y="-114.896" font-family="Times New Roman,serif" font-size="14.00">T7</text>
</g>
<!-- T8 -->
<g id="node6" class="node"><title>T8</title>
<ellipse fill="none" stroke="black" cx="66" cy="-24.7982" rx="20.6302" ry="20.6302"/>
<ellipse fill="none" stroke="black" cx="66" cy="-24.7982" rx="24.5979" ry="24.5979"/>
<text text-anchor="middle" x="66" y="-21.0982" font-family="Times New Roman,serif" font-size="14.00">T8</text>
</g>
<!-- T7&#45;&gt;T8 -->
<g id="edge12" class="edge"><title>T7&#45;&gt;T8</title>
<path fill="none" stroke="black" d="M92.9473,-100.759C88.6537,-88.8154 82.7568,-72.4116 77.5739,-57.9939"/>
<polygon fill="black" stroke="black" points="80.8048,-56.6352 74.1282,-48.4089 74.2175,-59.0033 80.8048,-56.6352"/>
<text text-anchor="middle" x="93.5" y="-71.3963" font-family="Times New Roman,serif" font-size="14.00">EP</text>
</g>
<!-- T6 -->
<g id="node9" class="node"><title>T6</title>
<ellipse fill="none" stroke="black" cx="99" cy="-205.596" rx="27" ry="18"/>
<text text-anchor="middle" x="99" y="-201.896" font-family="Times New Roman,serif" font-size="14.00">T6</text>
</g>
<!-- T7&#45;&gt;T6 -->
<g id="edge13" class="edge"><title>T7&#45;&gt;T6</title>
<path fill="none" stroke="black" d="M99.6326,-136.72C99.9164,-146.374 100.156,-158.658 100,-169.596 99.9635,-172.149 99.9121,-174.806 99.8516,-177.465"/>
<polygon fill="black" stroke="black" points="96.3517,-177.419 99.5859,-187.509 103.349,-177.605 96.3517,-177.419"/>
<text text-anchor="middle" x="108.5" y="-158.396" font-family="Times New Roman,serif" font-size="14.00">EP</text>
</g>
<!-- T2&#45;&gt;T1 -->
<g id="edge4" class="edge"><title>T2&#45;&gt;T1</title>
<path fill="none" stroke="black" d="M27,-484.772C27,-496.402 27,-512.016 27,-525.33"/>
<polygon fill="black" stroke="black" points="23.5001,-525.395 27,-535.395 30.5001,-525.395 23.5001,-525.395"/>
<text text-anchor="middle" x="35.5" y="-506.396" font-family="Times New Roman,serif" font-size="14.00">EP</text>
</g>
<!-- T2&#45;&gt;T3 -->
<g id="edge5" class="edge"><title>T2&#45;&gt;T3</title>
<path fill="none" stroke="black" d="M33.5197,-448.803C38.1751,-436.812 44.5284,-420.447 49.8449,-406.753"/>
<polygon fill="black" stroke="black" points="53.1373,-407.944 53.4938,-397.355 46.6118,-405.41 53.1373,-407.944"/>
<text text-anchor="middle" x="54.5" y="-419.396" font-family="Times New Roman,serif" font-size="14.00">EP</text>
</g>
<!-- T0&#45;&gt;T4 -->
<g id="edge2" class="edge"><title>T0&#45;&gt;T4</title>
<path fill="none" stroke="black" d="M60,-709.395C60,-697.759 60,-682.144 60,-668.833"/>
<polygon fill="black" stroke="black" points="63.5001,-668.772 60,-658.772 56.5001,-668.772 63.5001,-668.772"/>
<text text-anchor="middle" x="63.5" y="-680.396" font-family="Times New Roman,serif" font-size="14.00">a</text>
</g>
<!-- T5 -->
<g id="node8" class="node"><title>T5</title>
<ellipse fill="none" stroke="black" cx="60" cy="-292.596" rx="27" ry="18"/>
<text text-anchor="middle" x="60" y="-288.896" font-family="Times New Roman,serif" font-size="14.00">T5</text>
</g>
<!-- T5&#45;&gt;T8 -->
<g id="edge9" class="edge"><title>T5&#45;&gt;T8</title>
<path fill="none" stroke="black" d="M60.1291,-274.472C60.4121,-241.041 61.2101,-164.743 63,-100.596 63.371,-87.3007 63.9248,-72.6811 64.456,-59.9212"/>
<polygon fill="black" stroke="black" points="67.9621,-59.8505 64.8924,-49.7101 60.9685,-59.5515 67.9621,-59.8505"/>
<text text-anchor="middle" x="69.5" y="-158.396" font-family="Times New Roman,serif" font-size="14.00">EP</text>
</g>
<!-- T5&#45;&gt;T6 -->
<g id="edge10" class="edge"><title>T5&#45;&gt;T6</title>
<path fill="none" stroke="black" d="M67.5196,-275.207C73.1307,-262.978 80.9027,-246.039 87.3202,-232.052"/>
<polygon fill="black" stroke="black" points="90.5143,-233.483 91.5035,-222.935 84.1521,-230.564 90.5143,-233.483"/>
<text text-anchor="middle" x="90.5" y="-245.396" font-family="Times New Roman,serif" font-size="14.00">EP</text>
</g>
<!-- T6&#45;&gt;T7 -->
<g id="edge11" class="edge"><title>T6&#45;&gt;T7</title>
<path fill="none" stroke="black" d="M95.4865,-187.581C94.471,-181.89 93.5018,-175.493 93,-169.596 92.3652,-162.136 92.8266,-154.071 93.7218,-146.642"/>
<polygon fill="black" stroke="black" points="97.1924,-147.098 95.2071,-136.691 90.2691,-146.064 97.1924,-147.098"/>
<text text-anchor="middle" x="97" y="-158.396" font-family="Times New Roman,serif" font-size="14.00">b</text>
</g>
<!-- T3&#45;&gt;T5 -->
<g id="edge6" class="edge"><title>T3&#45;&gt;T5</title>
<path fill="none" stroke="black" d="M60,-361.395C60,-349.759 60,-334.144 60,-320.833"/>
<polygon fill="black" stroke="black" points="63.5001,-320.772 60,-310.772 56.5001,-320.772 63.5001,-320.772"/>
<text text-anchor="middle" x="63.5" y="-332.396" font-family="Times New Roman,serif" font-size="14.00">a</text>
</g>
</g>
</svg>
