<?xml version="1.0" encoding="UTF-8" standalone="no"?>
<!DOCTYPE svg PUBLIC "-//W3C//DTD SVG 1.1//EN"
 "http://www.w3.org/Graphics/SVG/1.1/DTD/svg11.dtd">
<!-- Generated by graphviz version 2.38.0 (20140413.2041)
 -->
<!-- Title: %3 Pages: 1 -->
<svg width="358pt" height="566pt"
 viewBox="0.00 0.00 357.80 565.60" xmlns="http://www.w3.org/2000/svg" xmlns:xlink="http://www.w3.org/1999/xlink">
<g id="graph0" class="graph" transform="scale(1 1) rotate(0) translate(4 561.596)">
<title>%3</title>
<polygon fill="white" stroke="none" points="-4,4 -4,-561.596 353.798,-561.596 353.798,4 -4,4"/>
<!-- fake0 -->
<g id="node1" class="node"><title>fake0</title>
</g>
<!-- T0 -->
<g id="node6" class="node"><title>T0</title>
<ellipse fill="none" stroke="black" cx="38" cy="-466.596" rx="27" ry="18"/>
<text text-anchor="middle" x="38" y="-462.896" font-family="Times New Roman,serif" font-size="14.00">T0</text>
</g>
<!-- fake0&#45;&gt;T0 -->
<g id="edge1" class="edge"><title>fake0&#45;&gt;T0</title>
<path fill="none" stroke="black" stroke-width="2" d="M38,-521.409C38,-513.386 38,-503.644 38,-494.665"/>
<polygon fill="black" stroke="black" stroke-width="2" points="41.5001,-494.625 38,-484.625 34.5001,-494.625 41.5001,-494.625"/>
</g>
<!-- T2 -->
<g id="node2" class="node"><title>T2</title>
<ellipse fill="none" stroke="black" cx="160" cy="-18" rx="27" ry="18"/>
<text text-anchor="middle" x="160" y="-14.3" font-family="Times New Roman,serif" font-size="14.00">T2</text>
</g>
<!-- T2&#45;&gt;T2 -->
<g id="edge8" class="edge"><title>T2&#45;&gt;T2</title>
<path fill="none" stroke="black" d="M186.795,-20.6192C196.78,-20.7051 205,-19.832 205,-18 205,-16.855 201.789,-16.0846 196.943,-15.6887"/>
<polygon fill="black" stroke="black" points="196.896,-12.1858 186.795,-15.3808 196.684,-19.1826 196.896,-12.1858"/>
<text text-anchor="middle" x="209" y="-14.3" font-family="Times New Roman,serif" font-size="14.00">b</text>
</g>
<!-- T2&#45;&gt;T2 -->
<g id="edge9" class="edge"><title>T2&#45;&gt;T2</title>
<path fill="none" stroke="black" d="M186.214,-22.7113C204.696,-24.1915 223,-22.6211 223,-18 223,-14.2454 210.917,-12.5046 196.472,-12.7778"/>
<polygon fill="black" stroke="black" points="196.027,-9.2955 186.214,-13.2887 196.375,-16.2868 196.027,-9.2955"/>
<text text-anchor="middle" x="226.5" y="-14.3" font-family="Times New Roman,serif" font-size="14.00">a</text>
</g>
<!-- T2&#45;&gt;T2 -->
<g id="edge10" class="edge"><title>T2&#45;&gt;T2</title>
<path fill="none" stroke="black" d="M185.713,-24.1447C211.877,-27.7592 241,-25.7109 241,-18 241,-11.2831 218.902,-8.863 195.91,-10.7398"/>
<polygon fill="black" stroke="black" points="195.273,-7.28856 185.713,-11.8553 196.034,-14.2471 195.273,-7.28856"/>
<text text-anchor="middle" x="244.5" y="-14.3" font-family="Times New Roman,serif" font-size="14.00">c</text>
</g>
<!-- T4 -->
<g id="node3" class="node"><title>T4</title>
<ellipse fill="none" stroke="black" cx="236" cy="-205.596" rx="27" ry="18"/>
<text text-anchor="middle" x="236" y="-201.896" font-family="Times New Roman,serif" font-size="14.00">T4</text>
</g>
<!-- T4&#45;&gt;T2 -->
<g id="edge14" class="edge"><title>T4&#45;&gt;T2</title>
<path fill="none" stroke="black" d="M229.256,-188.126C216.016,-155.795 186.537,-83.8039 170.643,-44.9917"/>
<polygon fill="black" stroke="black" points="173.758,-43.3614 166.729,-35.4335 167.28,-46.014 173.758,-43.3614"/>
<text text-anchor="middle" x="213" y="-108.098" font-family="Times New Roman,serif" font-size="14.00">b</text>
</g>
<!-- T4&#45;&gt;T2 -->
<g id="edge15" class="edge"><title>T4&#45;&gt;T2</title>
<path fill="none" stroke="black" d="M237.108,-187.291C237.916,-163.478 236.791,-119.829 221,-87 212.29,-68.8914 197.259,-52.0506 184.298,-39.6586"/>
<polygon fill="black" stroke="black" points="186.298,-36.743 176.57,-32.5462 181.558,-41.8936 186.298,-36.743"/>
<text text-anchor="middle" x="237.5" y="-108.098" font-family="Times New Roman,serif" font-size="14.00">a</text>
</g>
<!-- T5 -->
<g id="node5" class="node"><title>T5</title>
<ellipse fill="none" stroke="black" cx="300" cy="-111.798" rx="20.6302" ry="20.6302"/>
<ellipse fill="none" stroke="black" cx="300" cy="-111.798" rx="24.5979" ry="24.5979"/>
<text text-anchor="middle" x="300" y="-108.098" font-family="Times New Roman,serif" font-size="14.00">T5</text>
</g>
<!-- T4&#45;&gt;T5 -->
<g id="edge16" class="edge"><title>T4&#45;&gt;T5</title>
<path fill="none" stroke="black" d="M248.639,-189.544C253.584,-183.465 259.208,-176.31 264,-169.596 270.256,-160.83 276.678,-151.006 282.334,-142.025"/>
<polygon fill="black" stroke="black" points="285.392,-143.736 287.7,-133.396 279.447,-140.04 285.392,-143.736"/>
<text text-anchor="middle" x="277.5" y="-158.396" font-family="Times New Roman,serif" font-size="14.00">c</text>
</g>
<!-- T1 -->
<g id="node4" class="node"><title>T1</title>
<ellipse fill="none" stroke="black" cx="93" cy="-379.596" rx="27" ry="18"/>
<text text-anchor="middle" x="93" y="-375.896" font-family="Times New Roman,serif" font-size="14.00">T1</text>
</g>
<!-- T1&#45;&gt;T2 -->
<g id="edge7" class="edge"><title>T1&#45;&gt;T2</title>
<path fill="none" stroke="black" d="M90.1028,-361.396C87.4718,-344.266 84,-317.191 84,-293.596 84,-293.596 84,-293.596 84,-110.798 84,-79.5639 110.428,-53.2453 132.115,-36.9062"/>
<polygon fill="black" stroke="black" points="134.345,-39.6136 140.428,-30.9388 130.263,-33.927 134.345,-39.6136"/>
<text text-anchor="middle" x="87.5" y="-201.896" font-family="Times New Roman,serif" font-size="14.00">c</text>
</g>
<!-- T1&#45;&gt;T1 -->
<g id="edge5" class="edge"><title>T1&#45;&gt;T1</title>
<path fill="none" stroke="black" d="M117.532,-387.348C128.508,-388.087 138,-385.503 138,-379.596 138,-375.628 133.715,-373.16 127.574,-372.191"/>
<polygon fill="black" stroke="black" points="127.647,-368.691 117.532,-371.844 127.406,-375.687 127.647,-368.691"/>
<text text-anchor="middle" x="142" y="-375.896" font-family="Times New Roman,serif" font-size="14.00">b</text>
</g>
<!-- T3 -->
<g id="node7" class="node"><title>T3</title>
<ellipse fill="none" stroke="black" cx="150" cy="-292.596" rx="27" ry="18"/>
<text text-anchor="middle" x="150" y="-288.896" font-family="Times New Roman,serif" font-size="14.00">T3</text>
</g>
<!-- T1&#45;&gt;T3 -->
<g id="edge6" class="edge"><title>T1&#45;&gt;T3</title>
<path fill="none" stroke="black" d="M103.721,-362.608C112.214,-349.944 124.213,-332.05 133.865,-317.657"/>
<polygon fill="black" stroke="black" points="136.857,-319.48 139.519,-309.225 131.043,-315.581 136.857,-319.48"/>
<text text-anchor="middle" x="130.5" y="-332.396" font-family="Times New Roman,serif" font-size="14.00">a</text>
</g>
<!-- T5&#45;&gt;T2 -->
<g id="edge17" class="edge"><title>T5&#45;&gt;T2</title>
<path fill="none" stroke="black" d="M289.474,-89.0819C282.774,-77.2602 273.081,-63.2097 261,-54 242.062,-39.5631 216.733,-30.8054 196.178,-25.6608"/>
<polygon fill="black" stroke="black" points="196.754,-22.2017 186.222,-23.3527 195.173,-29.0208 196.754,-22.2017"/>
<text text-anchor="middle" x="279" y="-57.8" font-family="Times New Roman,serif" font-size="14.00">b</text>
</g>
<!-- T5&#45;&gt;T2 -->
<g id="edge18" class="edge"><title>T5&#45;&gt;T2</title>
<path fill="none" stroke="black" d="M299.967,-86.8809C298.717,-75.5812 295.323,-62.6968 287,-54 263.833,-29.7924 225.587,-21.8293 197.11,-19.446"/>
<polygon fill="black" stroke="black" points="197.31,-15.9517 187.106,-18.8006 196.86,-22.9372 197.31,-15.9517"/>
<text text-anchor="middle" x="298.5" y="-57.8" font-family="Times New Roman,serif" font-size="14.00">a</text>
</g>
<!-- T5&#45;&gt;T5 -->
<g id="edge19" class="edge"><title>T5&#45;&gt;T5</title>
<path fill="none" stroke="black" d="M323.332,-121.027C333.77,-121.906 342.798,-118.829 342.798,-111.798 342.798,-107.294 339.093,-104.413 333.686,-103.154"/>
<polygon fill="black" stroke="black" points="333.514,-99.6392 323.332,-102.57 333.119,-106.628 333.514,-99.6392"/>
<text text-anchor="middle" x="346.298" y="-108.098" font-family="Times New Roman,serif" font-size="14.00">c</text>
</g>
<!-- T0&#45;&gt;T2 -->
<g id="edge3" class="edge"><title>T0&#45;&gt;T2</title>
<path fill="none" stroke="black" d="M26.3923,-450.224C15.2172,-433.865 0,-406.783 0,-380.596 0,-380.596 0,-380.596 0,-110.798 0,-83.3934 3.24315,-71.8933 24,-54 51.5035,-30.2908 93.0382,-22.3224 122.968,-19.8042"/>
<polygon fill="black" stroke="black" points="123.287,-23.2906 133.029,-19.1239 122.815,-16.3066 123.287,-23.2906"/>
<text text-anchor="middle" x="3.5" y="-245.396" font-family="Times New Roman,serif" font-size="14.00">a</text>
</g>
<!-- T0&#45;&gt;T2 -->
<g id="edge4" class="edge"><title>T0&#45;&gt;T2</title>
<path fill="none" stroke="black" d="M38,-448.34C38,-431.167 38,-404.06 38,-380.596 38,-380.596 38,-380.596 38,-110.798 38,-66.7016 89.5198,-41.1508 125.6,-28.6638"/>
<polygon fill="black" stroke="black" points="126.897,-31.922 135.311,-25.4838 124.719,-25.2696 126.897,-31.922"/>
<text text-anchor="middle" x="41.5" y="-245.396" font-family="Times New Roman,serif" font-size="14.00">c</text>
</g>
<!-- T0&#45;&gt;T1 -->
<g id="edge2" class="edge"><title>T0&#45;&gt;T1</title>
<path fill="none" stroke="black" d="M48.3451,-449.608C56.4881,-437.024 67.9725,-419.275 77.2554,-404.929"/>
<polygon fill="black" stroke="black" points="80.2073,-406.81 82.7013,-396.512 74.3302,-403.007 80.2073,-406.81"/>
<text text-anchor="middle" x="75" y="-419.396" font-family="Times New Roman,serif" font-size="14.00">b</text>
</g>
<!-- T3&#45;&gt;T2 -->
<g id="edge12" class="edge"><title>T3&#45;&gt;T2</title>
<path fill="none" stroke="black" d="M146.525,-274.72C141.89,-251.265 133.928,-207.425 131,-169.596 127.636,-126.14 144.176,-60.7403 146,-54 146.811,-51.0013 147.803,-47.9112 148.881,-44.8669"/>
<polygon fill="black" stroke="black" points="152.174,-46.0548 152.498,-35.4649 145.641,-43.5409 152.174,-46.0548"/>
<text text-anchor="middle" x="134.5" y="-158.396" font-family="Times New Roman,serif" font-size="14.00">a</text>
</g>
<!-- T3&#45;&gt;T2 -->
<g id="edge13" class="edge"><title>T3&#45;&gt;T2</title>
<path fill="none" stroke="black" d="M150.626,-274.544C152.309,-228.649 156.948,-102.209 159,-46.2524"/>
<polygon fill="black" stroke="black" points="162.506,-46.1673 159.375,-36.0457 155.51,-45.9106 162.506,-46.1673"/>
<text text-anchor="middle" x="158.5" y="-158.396" font-family="Times New Roman,serif" font-size="14.00">c</text>
</g>
<!-- T3&#45;&gt;T4 -->
<g id="edge11" class="edge"><title>T3&#45;&gt;T4</title>
<path fill="none" stroke="black" d="M164.589,-277.177C178.179,-263.745 198.623,-243.539 214.159,-228.183"/>
<polygon fill="black" stroke="black" points="216.688,-230.605 221.34,-221.086 211.767,-225.626 216.688,-230.605"/>
<text text-anchor="middle" x="205" y="-245.396" font-family="Times New Roman,serif" font-size="14.00">b</text>
</g>
</g>
</svg>
