<?xml version="1.0" encoding="UTF-8" standalone="no"?>
<!DOCTYPE svg PUBLIC "-//W3C//DTD SVG 1.1//EN"
 "http://www.w3.org/Graphics/SVG/1.1/DTD/svg11.dtd">
<!-- Generated by graphviz version 2.38.0 (20140413.2041)
 -->
<!-- Title: %3 Pages: 1 -->
<svg width="347pt" height="566pt"
 viewBox="0.00 0.00 347.00 565.60" xmlns="http://www.w3.org/2000/svg" xmlns:xlink="http://www.w3.org/1999/xlink">
<g id="graph0" class="graph" transform="scale(1 1) rotate(0) translate(4 561.596)">
<title>%3</title>
<polygon fill="white" stroke="none" points="-4,4 -4,-561.596 343,-561.596 343,4 -4,4"/>
<!-- fake0 -->
<g id="node1" class="node"><title>fake0</title>
</g>
<!-- T0 -->
<g id="node4" class="node"><title>T0</title>
<ellipse fill="none" stroke="black" cx="294" cy="-466.596" rx="27" ry="18"/>
<text text-anchor="middle" x="294" y="-462.896" font-family="Times New Roman,serif" font-size="14.00">T0</text>
</g>
<!-- fake0&#45;&gt;T0 -->
<g id="edge1" class="edge"><title>fake0&#45;&gt;T0</title>
<path fill="none" stroke="black" stroke-width="2" d="M294,-521.409C294,-513.386 294,-503.644 294,-494.665"/>
<polygon fill="black" stroke="black" stroke-width="2" points="297.5,-494.625 294,-484.625 290.5,-494.625 297.5,-494.625"/>
</g>
<!-- T4 -->
<g id="node2" class="node"><title>T4</title>
<ellipse fill="none" stroke="black" cx="111" cy="-205.596" rx="27" ry="18"/>
<text text-anchor="middle" x="111" y="-201.896" font-family="Times New Roman,serif" font-size="14.00">T4</text>
</g>
<!-- T2 -->
<g id="node5" class="node"><title>T2</title>
<ellipse fill="none" stroke="black" cx="171" cy="-18" rx="27" ry="18"/>
<text text-anchor="middle" x="171" y="-14.3" font-family="Times New Roman,serif" font-size="14.00">T2</text>
</g>
<!-- T4&#45;&gt;T2 -->
<g id="edge14" class="edge"><title>T4&#45;&gt;T2</title>
<path fill="none" stroke="black" d="M95.1803,-190.945C88.7129,-184.843 81.4802,-177.298 76,-169.596 54.3219,-139.13 51.6312,-123.443 60,-87 63.6481,-71.1138 63.9212,-64.9444 76,-54 92.4159,-39.1258 115.693,-30.4141 135.098,-25.4023"/>
<polygon fill="black" stroke="black" points="135.906,-28.8079 144.835,-23.1056 134.299,-21.9948 135.906,-28.8079"/>
<text text-anchor="middle" x="64" y="-108.098" font-family="Times New Roman,serif" font-size="14.00">b</text>
</g>
<!-- T4&#45;&gt;T2 -->
<g id="edge15" class="edge"><title>T4&#45;&gt;T2</title>
<path fill="none" stroke="black" d="M104.31,-187.84C95.9901,-164.295 84.5403,-120.546 99,-87 107.958,-66.2174 126.739,-48.8294 142.872,-36.8394"/>
<polygon fill="black" stroke="black" points="145.342,-39.3794 151.484,-30.7464 141.299,-33.665 145.342,-39.3794"/>
<text text-anchor="middle" x="102.5" y="-108.098" font-family="Times New Roman,serif" font-size="14.00">a</text>
</g>
<!-- T5 -->
<g id="node7" class="node"><title>T5</title>
<ellipse fill="none" stroke="black" cx="140" cy="-111.798" rx="20.6302" ry="20.6302"/>
<ellipse fill="none" stroke="black" cx="140" cy="-111.798" rx="24.5979" ry="24.5979"/>
<text text-anchor="middle" x="140" y="-108.098" font-family="Times New Roman,serif" font-size="14.00">T5</text>
</g>
<!-- T4&#45;&gt;T5 -->
<g id="edge16" class="edge"><title>T4&#45;&gt;T5</title>
<path fill="none" stroke="black" d="M116.319,-187.759C120.066,-175.9 125.201,-159.642 129.733,-145.299"/>
<polygon fill="black" stroke="black" points="133.074,-146.342 132.749,-135.752 126.399,-144.233 133.074,-146.342"/>
<text text-anchor="middle" x="130.5" y="-158.396" font-family="Times New Roman,serif" font-size="14.00">c</text>
</g>
<!-- T1 -->
<g id="node3" class="node"><title>T1</title>
<ellipse fill="none" stroke="black" cx="213" cy="-379.596" rx="27" ry="18"/>
<text text-anchor="middle" x="213" y="-375.896" font-family="Times New Roman,serif" font-size="14.00">T1</text>
</g>
<!-- T1&#45;&gt;T1 -->
<g id="edge5" class="edge"><title>T1&#45;&gt;T1</title>
<path fill="none" stroke="black" d="M237.532,-387.348C248.508,-388.087 258,-385.503 258,-379.596 258,-375.628 253.715,-373.16 247.574,-372.191"/>
<polygon fill="black" stroke="black" points="247.647,-368.691 237.532,-371.844 247.406,-375.687 247.647,-368.691"/>
<text text-anchor="middle" x="262" y="-375.896" font-family="Times New Roman,serif" font-size="14.00">b</text>
</g>
<!-- T1&#45;&gt;T2 -->
<g id="edge7" class="edge"><title>T1&#45;&gt;T2</title>
<path fill="none" stroke="black" d="M187.307,-373.971C130.656,-363.043 0,-333.511 0,-293.596 0,-293.596 0,-293.596 0,-110.798 0,-50.4002 83.8368,-29.5768 134.106,-22.5196"/>
<polygon fill="black" stroke="black" points="134.808,-25.9582 144.281,-21.2133 133.917,-19.0152 134.808,-25.9582"/>
<text text-anchor="middle" x="3.5" y="-201.896" font-family="Times New Roman,serif" font-size="14.00">c</text>
</g>
<!-- T3 -->
<g id="node6" class="node"><title>T3</title>
<ellipse fill="none" stroke="black" cx="217" cy="-292.596" rx="27" ry="18"/>
<text text-anchor="middle" x="217" y="-288.896" font-family="Times New Roman,serif" font-size="14.00">T3</text>
</g>
<!-- T1&#45;&gt;T3 -->
<g id="edge6" class="edge"><title>T1&#45;&gt;T3</title>
<path fill="none" stroke="black" d="M213.809,-361.395C214.357,-349.759 215.092,-334.144 215.718,-320.833"/>
<polygon fill="black" stroke="black" points="219.218,-320.925 216.192,-310.772 212.225,-320.596 219.218,-320.925"/>
<text text-anchor="middle" x="219.5" y="-332.396" font-family="Times New Roman,serif" font-size="14.00">a</text>
</g>
<!-- T0&#45;&gt;T1 -->
<g id="edge2" class="edge"><title>T0&#45;&gt;T1</title>
<path fill="none" stroke="black" d="M279.891,-450.79C267.231,-437.505 248.476,-417.825 234.045,-402.681"/>
<polygon fill="black" stroke="black" points="236.38,-400.057 226.947,-395.233 231.312,-404.886 236.38,-400.057"/>
<text text-anchor="middle" x="263" y="-419.396" font-family="Times New Roman,serif" font-size="14.00">b</text>
</g>
<!-- T0&#45;&gt;T2 -->
<g id="edge3" class="edge"><title>T0&#45;&gt;T2</title>
<path fill="none" stroke="black" d="M294,-448.34C294,-431.167 294,-404.06 294,-380.596 294,-380.596 294,-380.596 294,-110.798 294,-66.4705 242.058,-40.9889 205.682,-28.5788"/>
<polygon fill="black" stroke="black" points="206.483,-25.1596 195.891,-25.4204 204.333,-31.8215 206.483,-25.1596"/>
<text text-anchor="middle" x="297.5" y="-245.396" font-family="Times New Roman,serif" font-size="14.00">a</text>
</g>
<!-- T0&#45;&gt;T2 -->
<g id="edge4" class="edge"><title>T0&#45;&gt;T2</title>
<path fill="none" stroke="black" d="M305.608,-450.224C316.783,-433.865 332,-406.783 332,-380.596 332,-380.596 332,-380.596 332,-110.798 332,-53.8434 255.025,-31.7624 207.524,-23.5585"/>
<polygon fill="black" stroke="black" points="208.013,-20.0923 197.586,-21.9684 206.907,-27.0044 208.013,-20.0923"/>
<text text-anchor="middle" x="335.5" y="-245.396" font-family="Times New Roman,serif" font-size="14.00">c</text>
</g>
<!-- T2&#45;&gt;T2 -->
<g id="edge8" class="edge"><title>T2&#45;&gt;T2</title>
<path fill="none" stroke="black" d="M197.795,-20.6192C207.78,-20.7051 216,-19.832 216,-18 216,-16.855 212.789,-16.0846 207.943,-15.6887"/>
<polygon fill="black" stroke="black" points="207.896,-12.1858 197.795,-15.3808 207.684,-19.1826 207.896,-12.1858"/>
<text text-anchor="middle" x="220" y="-14.3" font-family="Times New Roman,serif" font-size="14.00">b</text>
</g>
<!-- T2&#45;&gt;T2 -->
<g id="edge9" class="edge"><title>T2&#45;&gt;T2</title>
<path fill="none" stroke="black" d="M197.214,-22.7113C215.696,-24.1915 234,-22.6211 234,-18 234,-14.2454 221.917,-12.5046 207.472,-12.7778"/>
<polygon fill="black" stroke="black" points="207.027,-9.2955 197.214,-13.2887 207.375,-16.2868 207.027,-9.2955"/>
<text text-anchor="middle" x="237.5" y="-14.3" font-family="Times New Roman,serif" font-size="14.00">a</text>
</g>
<!-- T2&#45;&gt;T2 -->
<g id="edge10" class="edge"><title>T2&#45;&gt;T2</title>
<path fill="none" stroke="black" d="M196.713,-24.1447C222.877,-27.7592 252,-25.7109 252,-18 252,-11.2831 229.902,-8.863 206.91,-10.7398"/>
<polygon fill="black" stroke="black" points="206.273,-7.28856 196.713,-11.8553 207.034,-14.2471 206.273,-7.28856"/>
<text text-anchor="middle" x="255.5" y="-14.3" font-family="Times New Roman,serif" font-size="14.00">c</text>
</g>
<!-- T3&#45;&gt;T4 -->
<g id="edge11" class="edge"><title>T3&#45;&gt;T4</title>
<path fill="none" stroke="black" d="M200.438,-278.315C183.115,-264.424 155.727,-242.462 135.819,-226.498"/>
<polygon fill="black" stroke="black" points="137.787,-223.59 127.796,-220.065 133.408,-229.051 137.787,-223.59"/>
<text text-anchor="middle" x="175" y="-245.396" font-family="Times New Roman,serif" font-size="14.00">b</text>
</g>
<!-- T3&#45;&gt;T2 -->
<g id="edge12" class="edge"><title>T3&#45;&gt;T2</title>
<path fill="none" stroke="black" d="M217.226,-274.337C217.312,-238.758 215.557,-154.899 199,-87 195.468,-72.5147 189.331,-57.0945 183.702,-44.6067"/>
<polygon fill="black" stroke="black" points="186.756,-42.8755 179.355,-35.2943 180.413,-45.8362 186.756,-42.8755"/>
<text text-anchor="middle" x="216.5" y="-158.396" font-family="Times New Roman,serif" font-size="14.00">a</text>
</g>
<!-- T3&#45;&gt;T2 -->
<g id="edge13" class="edge"><title>T3&#45;&gt;T2</title>
<path fill="none" stroke="black" d="M225.03,-275.254C227.451,-269.499 229.787,-262.894 231,-256.596 232.261,-250.05 231.062,-248.263 231,-241.596 230.362,-172.647 234.858,-153.859 218,-87 214.146,-71.7147 213.548,-67.2451 205,-54 201.899,-49.1954 198.07,-44.4911 194.112,-40.1684"/>
<polygon fill="black" stroke="black" points="196.468,-37.571 186.978,-32.8601 191.459,-42.4608 196.468,-37.571"/>
<text text-anchor="middle" x="234.5" y="-158.396" font-family="Times New Roman,serif" font-size="14.00">c</text>
</g>
<!-- T5&#45;&gt;T2 -->
<g id="edge17" class="edge"><title>T5&#45;&gt;T2</title>
<path fill="none" stroke="black" d="M137.456,-86.9061C137.196,-76.4912 138.07,-64.3286 142,-54 143.766,-49.3581 146.417,-44.8832 149.41,-40.7736"/>
<polygon fill="black" stroke="black" points="152.222,-42.8648 155.862,-32.9151 146.811,-38.4229 152.222,-42.8648"/>
<text text-anchor="middle" x="146" y="-57.8" font-family="Times New Roman,serif" font-size="14.00">b</text>
</g>
<!-- T5&#45;&gt;T2 -->
<g id="edge18" class="edge"><title>T5&#45;&gt;T2</title>
<path fill="none" stroke="black" d="M147.663,-88.1065C152.035,-75.1599 157.536,-58.8703 162.099,-45.3585"/>
<polygon fill="black" stroke="black" points="165.487,-46.2631 165.371,-35.6689 158.855,-44.0234 165.487,-46.2631"/>
<text text-anchor="middle" x="162.5" y="-57.8" font-family="Times New Roman,serif" font-size="14.00">a</text>
</g>
<!-- T5&#45;&gt;T5 -->
<g id="edge19" class="edge"><title>T5&#45;&gt;T5</title>
<path fill="none" stroke="black" d="M163.332,-121.027C173.77,-121.906 182.798,-118.829 182.798,-111.798 182.798,-107.294 179.093,-104.413 173.686,-103.154"/>
<polygon fill="black" stroke="black" points="173.514,-99.6392 163.332,-102.57 173.119,-106.628 173.514,-99.6392"/>
<text text-anchor="middle" x="186.298" y="-108.098" font-family="Times New Roman,serif" font-size="14.00">c</text>
</g>
</g>
</svg>
