<?xml version="1.0" encoding="UTF-8" standalone="no"?>
<!DOCTYPE svg PUBLIC "-//W3C//DTD SVG 1.1//EN"
 "http://www.w3.org/Graphics/SVG/1.1/DTD/svg11.dtd">
<!-- Generated by graphviz version 2.38.0 (20140413.2041)
 -->
<!-- Title: %3 Pages: 1 -->
<svg width="69pt" height="827pt"
 viewBox="0.00 0.00 69.09 826.60" xmlns="http://www.w3.org/2000/svg" xmlns:xlink="http://www.w3.org/1999/xlink">
<g id="graph0" class="graph" transform="scale(1 1) rotate(0) translate(4 822.596)">
<title>%3</title>
<polygon fill="white" stroke="none" points="-4,4 -4,-822.596 65.0946,-822.596 65.0946,4 -4,4"/>
<!-- fake0 -->
<g id="node1" class="node"><title>fake0</title>
</g>
<!-- T0 -->
<g id="node5" class="node"><title>T0</title>
<ellipse fill="none" stroke="black" cx="30.5473" cy="-727.596" rx="27" ry="18"/>
<text text-anchor="middle" x="30.5473" y="-723.896" font-family="Times New Roman,serif" font-size="14.00">T0</text>
</g>
<!-- fake0&#45;&gt;T0 -->
<g id="edge1" class="edge"><title>fake0&#45;&gt;T0</title>
<path fill="none" stroke="black" stroke-width="2" d="M30.5473,-782.409C30.5473,-774.386 30.5473,-764.644 30.5473,-755.665"/>
<polygon fill="black" stroke="black" stroke-width="2" points="34.0474,-755.625 30.5473,-745.625 27.0474,-755.625 34.0474,-755.625"/>
</g>
<!-- T6 -->
<g id="node2" class="node"><title>T6</title>
<ellipse fill="none" stroke="black" cx="30.5473" cy="-205.596" rx="27" ry="18"/>
<text text-anchor="middle" x="30.5473" y="-201.896" font-family="Times New Roman,serif" font-size="14.00">T6</text>
</g>
<!-- T7 -->
<g id="node9" class="node"><title>T7</title>
<ellipse fill="none" stroke="black" cx="30.5473" cy="-118.596" rx="27" ry="18"/>
<text text-anchor="middle" x="30.5473" y="-114.896" font-family="Times New Roman,serif" font-size="14.00">T7</text>
</g>
<!-- T6&#45;&gt;T7 -->
<g id="edge9" class="edge"><title>T6&#45;&gt;T7</title>
<path fill="none" stroke="black" d="M23.1384,-188.05C19.6688,-178.367 16.6688,-165.867 18.5473,-154.596 19.0324,-151.686 19.7298,-148.693 20.5477,-145.74"/>
<polygon fill="black" stroke="black" points="23.9376,-146.631 23.6592,-136.04 17.2721,-144.493 23.9376,-146.631"/>
<text text-anchor="middle" x="22.0473" y="-158.396" font-family="Times New Roman,serif" font-size="14.00">c</text>
</g>
<!-- T4 -->
<g id="node3" class="node"><title>T4</title>
<ellipse fill="none" stroke="black" cx="30.5473" cy="-379.596" rx="27" ry="18"/>
<text text-anchor="middle" x="30.5473" y="-375.896" font-family="Times New Roman,serif" font-size="14.00">T4</text>
</g>
<!-- T5 -->
<g id="node8" class="node"><title>T5</title>
<ellipse fill="none" stroke="black" cx="30.5473" cy="-292.596" rx="27" ry="18"/>
<text text-anchor="middle" x="30.5473" y="-288.896" font-family="Times New Roman,serif" font-size="14.00">T5</text>
</g>
<!-- T4&#45;&gt;T5 -->
<g id="edge7" class="edge"><title>T4&#45;&gt;T5</title>
<path fill="none" stroke="black" d="M30.5473,-361.395C30.5473,-349.759 30.5473,-334.144 30.5473,-320.833"/>
<polygon fill="black" stroke="black" points="34.0474,-320.772 30.5473,-310.772 27.0474,-320.772 34.0474,-320.772"/>
<text text-anchor="middle" x="34.5473" y="-332.396" font-family="Times New Roman,serif" font-size="14.00">b</text>
</g>
<!-- T1 -->
<g id="node4" class="node"><title>T1</title>
<ellipse fill="none" stroke="black" cx="30.5473" cy="-640.596" rx="27" ry="18"/>
<text text-anchor="middle" x="30.5473" y="-636.896" font-family="Times New Roman,serif" font-size="14.00">T1</text>
</g>
<!-- T2 -->
<g id="node6" class="node"><title>T2</title>
<ellipse fill="none" stroke="black" cx="30.5473" cy="-553.596" rx="27" ry="18"/>
<text text-anchor="middle" x="30.5473" y="-549.896" font-family="Times New Roman,serif" font-size="14.00">T2</text>
</g>
<!-- T1&#45;&gt;T2 -->
<g id="edge3" class="edge"><title>T1&#45;&gt;T2</title>
<path fill="none" stroke="black" d="M22.5243,-623.071C18.7666,-613.396 15.5166,-600.896 17.5473,-589.596 18.074,-586.666 18.8303,-583.66 19.7168,-580.7"/>
<polygon fill="black" stroke="black" points="23.114,-581.586 23.088,-570.991 16.5013,-579.29 23.114,-581.586"/>
<text text-anchor="middle" x="21.5473" y="-593.396" font-family="Times New Roman,serif" font-size="14.00">b</text>
</g>
<!-- T0&#45;&gt;T1 -->
<g id="edge2" class="edge"><title>T0&#45;&gt;T1</title>
<path fill="none" stroke="black" d="M30.5473,-709.395C30.5473,-697.759 30.5473,-682.144 30.5473,-668.833"/>
<polygon fill="black" stroke="black" points="34.0474,-668.772 30.5473,-658.772 27.0474,-668.772 34.0474,-668.772"/>
<text text-anchor="middle" x="39.0473" y="-680.396" font-family="Times New Roman,serif" font-size="14.00">EP</text>
</g>
<!-- T2&#45;&gt;T1 -->
<g id="edge4" class="edge"><title>T2&#45;&gt;T1</title>
<path fill="none" stroke="black" d="M30.5473,-571.772C30.5473,-583.402 30.5473,-599.016 30.5473,-612.33"/>
<polygon fill="black" stroke="black" points="27.0474,-612.395 30.5473,-622.395 34.0474,-612.395 27.0474,-612.395"/>
<text text-anchor="middle" x="39.0473" y="-593.396" font-family="Times New Roman,serif" font-size="14.00">EP</text>
</g>
<!-- T3 -->
<g id="node7" class="node"><title>T3</title>
<ellipse fill="none" stroke="black" cx="30.5473" cy="-466.596" rx="27" ry="18"/>
<text text-anchor="middle" x="30.5473" y="-462.896" font-family="Times New Roman,serif" font-size="14.00">T3</text>
</g>
<!-- T2&#45;&gt;T3 -->
<g id="edge5" class="edge"><title>T2&#45;&gt;T3</title>
<path fill="none" stroke="black" d="M30.5473,-535.395C30.5473,-523.759 30.5473,-508.144 30.5473,-494.833"/>
<polygon fill="black" stroke="black" points="34.0474,-494.772 30.5473,-484.772 27.0474,-494.772 34.0474,-494.772"/>
<text text-anchor="middle" x="39.0473" y="-506.396" font-family="Times New Roman,serif" font-size="14.00">EP</text>
</g>
<!-- T3&#45;&gt;T4 -->
<g id="edge6" class="edge"><title>T3&#45;&gt;T4</title>
<path fill="none" stroke="black" d="M30.5473,-448.395C30.5473,-436.759 30.5473,-421.144 30.5473,-407.833"/>
<polygon fill="black" stroke="black" points="34.0474,-407.772 30.5473,-397.772 27.0474,-407.772 34.0474,-407.772"/>
<text text-anchor="middle" x="34.0473" y="-419.396" font-family="Times New Roman,serif" font-size="14.00">a</text>
</g>
<!-- T5&#45;&gt;T6 -->
<g id="edge8" class="edge"><title>T5&#45;&gt;T6</title>
<path fill="none" stroke="black" d="M30.5473,-274.395C30.5473,-262.759 30.5473,-247.144 30.5473,-233.833"/>
<polygon fill="black" stroke="black" points="34.0474,-233.772 30.5473,-223.772 27.0474,-233.772 34.0474,-233.772"/>
<text text-anchor="middle" x="39.0473" y="-245.396" font-family="Times New Roman,serif" font-size="14.00">EP</text>
</g>
<!-- T7&#45;&gt;T6 -->
<g id="edge10" class="edge"><title>T7&#45;&gt;T6</title>
<path fill="none" stroke="black" d="M30.5473,-136.772C30.5473,-148.402 30.5473,-164.016 30.5473,-177.33"/>
<polygon fill="black" stroke="black" points="27.0474,-177.395 30.5473,-187.395 34.0474,-177.395 27.0474,-177.395"/>
<text text-anchor="middle" x="39.0473" y="-158.396" font-family="Times New Roman,serif" font-size="14.00">EP</text>
</g>
<!-- T8 -->
<g id="node10" class="node"><title>T8</title>
<ellipse fill="none" stroke="black" cx="30.5473" cy="-24.7982" rx="20.6302" ry="20.6302"/>
<ellipse fill="none" stroke="black" cx="30.5473" cy="-24.7982" rx="24.5979" ry="24.5979"/>
<text text-anchor="middle" x="30.5473" y="-21.0982" font-family="Times New Roman,serif" font-size="14.00">T8</text>
</g>
<!-- T7&#45;&gt;T8 -->
<g id="edge11" class="edge"><title>T7&#45;&gt;T8</title>
<path fill="none" stroke="black" d="M30.5473,-100.33C30.5473,-88.9897 30.5473,-73.7672 30.5473,-60.0359"/>
<polygon fill="black" stroke="black" points="34.0474,-59.9151 30.5473,-49.9152 27.0474,-59.9152 34.0474,-59.9151"/>
<text text-anchor="middle" x="39.0473" y="-71.3963" font-family="Times New Roman,serif" font-size="14.00">EP</text>
</g>
</g>
</svg>
