<?xml version="1.0" encoding="UTF-8" standalone="no"?>
<!DOCTYPE svg PUBLIC "-//W3C//DTD SVG 1.1//EN"
 "http://www.w3.org/Graphics/SVG/1.1/DTD/svg11.dtd">
<!-- Generated by graphviz version 2.38.0 (20140413.2041)
 -->
<!-- Title: %3 Pages: 1 -->
<svg width="122pt" height="332pt"
 viewBox="0.00 0.00 122.35 331.79" xmlns="http://www.w3.org/2000/svg" xmlns:xlink="http://www.w3.org/1999/xlink">
<g id="graph0" class="graph" transform="scale(1 1) rotate(0) translate(4 327.789)">
<title>%3</title>
<polygon fill="white" stroke="none" points="-4,4 -4,-327.789 118.345,-327.789 118.345,4 -4,4"/>
<!-- fake0 -->
<g id="node1" class="node"><title>fake0</title>
</g>
<!-- T0 -->
<g id="node2" class="node"><title>T0</title>
<ellipse fill="none" stroke="black" cx="83.7982" cy="-225.991" rx="20.6302" ry="20.6302"/>
<ellipse fill="none" stroke="black" cx="83.7982" cy="-225.991" rx="24.5979" ry="24.5979"/>
<text text-anchor="middle" x="83.7982" y="-222.291" font-family="Times New Roman,serif" font-size="14.00">T0</text>
</g>
<!-- fake0&#45;&gt;T0 -->
<g id="edge1" class="edge"><title>fake0&#45;&gt;T0</title>
<path fill="none" stroke="black" stroke-width="2" d="M83.7982,-287.523C83.7982,-279.717 83.7982,-270.207 83.7982,-261.059"/>
<polygon fill="black" stroke="black" stroke-width="2" points="87.2983,-260.994 83.7982,-250.994 80.2983,-260.994 87.2983,-260.994"/>
</g>
<!-- T1 -->
<g id="node3" class="node"><title>T1</title>
<ellipse fill="none" stroke="black" cx="24.7982" cy="-125.394" rx="20.6302" ry="20.6302"/>
<ellipse fill="none" stroke="black" cx="24.7982" cy="-125.394" rx="24.5979" ry="24.5979"/>
<text text-anchor="middle" x="24.7982" y="-121.694" font-family="Times New Roman,serif" font-size="14.00">T1</text>
</g>
<!-- T0&#45;&gt;T1 -->
<g id="edge2" class="edge"><title>T0&#45;&gt;T1</title>
<path fill="none" stroke="black" d="M71.2858,-204.081C62.8594,-190 51.6279,-171.23 42.3156,-155.668"/>
<polygon fill="black" stroke="black" points="45.2284,-153.72 37.0902,-146.936 39.2217,-157.314 45.2284,-153.72"/>
<text text-anchor="middle" x="62.2982" y="-171.993" font-family="Times New Roman,serif" font-size="14.00">0</text>
</g>
<!-- T2 -->
<g id="node4" class="node"><title>T2</title>
<ellipse fill="none" stroke="black" cx="54.7982" cy="-24.7982" rx="20.6302" ry="20.6302"/>
<ellipse fill="none" stroke="black" cx="54.7982" cy="-24.7982" rx="24.5979" ry="24.5979"/>
<text text-anchor="middle" x="54.7982" y="-21.0982" font-family="Times New Roman,serif" font-size="14.00">T2</text>
</g>
<!-- T0&#45;&gt;T2 -->
<g id="edge3" class="edge"><title>T0&#45;&gt;T2</title>
<path fill="none" stroke="black" d="M86.4003,-200.902C88.5226,-175.665 90.2314,-134.986 83.7982,-100.596 81.0226,-85.7596 75.3998,-70.0798 69.8379,-56.9296"/>
<polygon fill="black" stroke="black" points="72.8826,-55.1597 65.6446,-47.4226 66.4779,-57.9846 72.8826,-55.1597"/>
<text text-anchor="middle" x="92.2982" y="-121.694" font-family="Times New Roman,serif" font-size="14.00">1</text>
</g>
<!-- T1&#45;&gt;T1 -->
<g id="edge4" class="edge"><title>T1&#45;&gt;T1</title>
<path fill="none" stroke="black" d="M48.1303,-134.623C58.5686,-135.502 67.5963,-132.426 67.5963,-125.394 67.5963,-120.89 63.8913,-118.009 58.484,-116.751"/>
<polygon fill="black" stroke="black" points="58.3118,-113.236 48.1303,-116.166 57.9169,-120.224 58.3118,-113.236"/>
<text text-anchor="middle" x="71.0963" y="-121.694" font-family="Times New Roman,serif" font-size="14.00">0</text>
</g>
<!-- T1&#45;&gt;T2 -->
<g id="edge5" class="edge"><title>T1&#45;&gt;T2</title>
<path fill="none" stroke="black" d="M23.3455,-100.407C23.4092,-90.0872 24.4216,-78.024 27.7982,-67.5963 29.3467,-62.814 31.5862,-58.0462 34.1225,-53.5335"/>
<polygon fill="black" stroke="black" points="37.3046,-55.0446 39.6194,-44.7057 31.3624,-51.3446 37.3046,-55.0446"/>
<text text-anchor="middle" x="31.2982" y="-71.3963" font-family="Times New Roman,serif" font-size="14.00">1</text>
</g>
<!-- T2&#45;&gt;T1 -->
<g id="edge6" class="edge"><title>T2&#45;&gt;T1</title>
<path fill="none" stroke="black" d="M47.774,-48.8835C43.8903,-61.6472 39.0009,-77.7165 34.7318,-91.7471"/>
<polygon fill="black" stroke="black" points="31.3187,-90.9409 31.7562,-101.527 38.0156,-92.9786 31.3187,-90.9409"/>
<text text-anchor="middle" x="45.2982" y="-71.3963" font-family="Times New Roman,serif" font-size="14.00">0</text>
</g>
<!-- T2&#45;&gt;T2 -->
<g id="edge7" class="edge"><title>T2&#45;&gt;T2</title>
<path fill="none" stroke="black" d="M78.1303,-34.0267C88.5686,-34.9056 97.5963,-31.8294 97.5963,-24.7982 97.5963,-20.2938 93.8913,-17.4125 88.484,-16.1545"/>
<polygon fill="black" stroke="black" points="88.3118,-12.6392 78.1303,-15.5696 87.9169,-19.6281 88.3118,-12.6392"/>
<text text-anchor="middle" x="101.096" y="-21.0982" font-family="Times New Roman,serif" font-size="14.00">1</text>
</g>
</g>
</svg>
