<?xml version="1.0" encoding="UTF-8" standalone="no"?>
<!DOCTYPE svg PUBLIC "-//W3C//DTD SVG 1.1//EN"
 "http://www.w3.org/Graphics/SVG/1.1/DTD/svg11.dtd">
<!-- Generated by graphviz version 2.38.0 (20140413.2041)
 -->
<!-- Title: %3 Pages: 1 -->
<svg width="216pt" height="836pt"
 viewBox="0.00 0.00 215.55 835.70" xmlns="http://www.w3.org/2000/svg" xmlns:xlink="http://www.w3.org/1999/xlink">
<g id="graph0" class="graph" transform="scale(1 1) rotate(0) translate(4 831.696)">
<title>%3</title>
<polygon fill="white" stroke="none" points="-4,4 -4,-831.696 211.547,-831.696 211.547,4 -4,4"/>
<!-- fake0 -->
<g id="node1" class="node"><title>fake0</title>
</g>
<!-- T0 -->
<g id="node11" class="node"><title>T0</title>
<ellipse fill="none" stroke="black" cx="30.5473" cy="-736.696" rx="27" ry="18"/>
<text text-anchor="middle" x="30.5473" y="-732.996" font-family="Times New Roman,serif" font-size="14.00">T0</text>
</g>
<!-- fake0&#45;&gt;T0 -->
<g id="edge1" class="edge"><title>fake0&#45;&gt;T0</title>
<path fill="none" stroke="black" stroke-width="2" d="M30.5473,-791.508C30.5473,-783.485 30.5473,-773.743 30.5473,-764.765"/>
<polygon fill="black" stroke="black" stroke-width="2" points="34.0474,-764.724 30.5473,-754.724 27.0474,-764.724 34.0474,-764.724"/>
</g>
<!-- T3 -->
<g id="node2" class="node"><title>T3</title>
<ellipse fill="none" stroke="black" cx="135.547" cy="-475.696" rx="27" ry="18"/>
<text text-anchor="middle" x="135.547" y="-471.996" font-family="Times New Roman,serif" font-size="14.00">T3</text>
</g>
<!-- T6 -->
<g id="node12" class="node"><title>T6</title>
<ellipse fill="none" stroke="black" cx="101.547" cy="-388.696" rx="27" ry="18"/>
<text text-anchor="middle" x="101.547" y="-384.996" font-family="Times New Roman,serif" font-size="14.00">T6</text>
</g>
<!-- T3&#45;&gt;T6 -->
<g id="edge7" class="edge"><title>T3&#45;&gt;T6</title>
<path fill="none" stroke="black" d="M128.83,-457.902C124.002,-445.833 117.403,-429.334 111.904,-415.586"/>
<polygon fill="black" stroke="black" points="115.099,-414.15 108.135,-406.165 108.599,-416.749 115.099,-414.15"/>
<text text-anchor="middle" x="129.047" y="-428.496" font-family="Times New Roman,serif" font-size="14.00">EP</text>
</g>
<!-- T4 -->
<g id="node3" class="node"><title>T4</title>
<ellipse fill="none" stroke="black" cx="63.5473" cy="-562.696" rx="27" ry="18"/>
<text text-anchor="middle" x="63.5473" y="-558.996" font-family="Times New Roman,serif" font-size="14.00">T4</text>
</g>
<!-- T5 -->
<g id="node8" class="node"><title>T5</title>
<ellipse fill="none" stroke="black" cx="63.5473" cy="-475.696" rx="27" ry="18"/>
<text text-anchor="middle" x="63.5473" y="-471.996" font-family="Times New Roman,serif" font-size="14.00">T5</text>
</g>
<!-- T4&#45;&gt;T5 -->
<g id="edge8" class="edge"><title>T4&#45;&gt;T5</title>
<path fill="none" stroke="black" d="M63.5473,-544.494C63.5473,-532.858 63.5473,-517.243 63.5473,-503.932"/>
<polygon fill="black" stroke="black" points="67.0474,-503.871 63.5473,-493.871 60.0474,-503.871 67.0474,-503.871"/>
<text text-anchor="middle" x="67.0473" y="-515.496" font-family="Times New Roman,serif" font-size="14.00">0</text>
</g>
<!-- T10 -->
<g id="node4" class="node"><title>T10</title>
<ellipse fill="none" stroke="black" cx="33.5473" cy="-29.3478" rx="25.2169" ry="25.2169"/>
<ellipse fill="none" stroke="black" cx="33.5473" cy="-29.3478" rx="29.1963" ry="29.1963"/>
<text text-anchor="middle" x="33.5473" y="-25.6478" font-family="Times New Roman,serif" font-size="14.00">T10</text>
</g>
<!-- T1 -->
<g id="node5" class="node"><title>T1</title>
<ellipse fill="none" stroke="black" cx="107.547" cy="-649.696" rx="27" ry="18"/>
<text text-anchor="middle" x="107.547" y="-645.996" font-family="Times New Roman,serif" font-size="14.00">T1</text>
</g>
<!-- T1&#45;&gt;T4 -->
<g id="edge4" class="edge"><title>T1&#45;&gt;T4</title>
<path fill="none" stroke="black" d="M99.0636,-632.307C92.7331,-620.077 83.9648,-603.138 76.7245,-589.152"/>
<polygon fill="black" stroke="black" points="79.7103,-587.306 72.0049,-580.034 73.4938,-590.524 79.7103,-587.306"/>
<text text-anchor="middle" x="96.0473" y="-602.496" font-family="Times New Roman,serif" font-size="14.00">EP</text>
</g>
<!-- T2 -->
<g id="node10" class="node"><title>T2</title>
<ellipse fill="none" stroke="black" cx="135.547" cy="-562.696" rx="27" ry="18"/>
<text text-anchor="middle" x="135.547" y="-558.996" font-family="Times New Roman,serif" font-size="14.00">T2</text>
</g>
<!-- T1&#45;&gt;T2 -->
<g id="edge5" class="edge"><title>T1&#45;&gt;T2</title>
<path fill="none" stroke="black" d="M113.079,-631.902C116.991,-620.027 122.315,-603.864 126.799,-590.252"/>
<polygon fill="black" stroke="black" points="130.222,-591.047 130.027,-580.454 123.574,-588.857 130.222,-591.047"/>
<text text-anchor="middle" x="132.047" y="-602.496" font-family="Times New Roman,serif" font-size="14.00">EP</text>
</g>
<!-- T9 -->
<g id="node6" class="node"><title>T9</title>
<ellipse fill="none" stroke="black" cx="75.5473" cy="-127.696" rx="27" ry="18"/>
<text text-anchor="middle" x="75.5473" y="-123.996" font-family="Times New Roman,serif" font-size="14.00">T9</text>
</g>
<!-- T9&#45;&gt;T10 -->
<g id="edge15" class="edge"><title>T9&#45;&gt;T10</title>
<path fill="none" stroke="black" d="M68.2314,-109.913C62.9875,-97.8833 55.727,-81.2279 49.2036,-66.2632"/>
<polygon fill="black" stroke="black" points="52.2562,-64.5072 45.0517,-56.7389 45.8394,-67.3044 52.2562,-64.5072"/>
<text text-anchor="middle" x="67.0473" y="-80.4955" font-family="Times New Roman,serif" font-size="14.00">EP</text>
</g>
<!-- T9&#45;&gt;T1 -->
<g id="edge16" class="edge"><title>T9&#45;&gt;T1</title>
<path fill="none" stroke="black" d="M100.501,-135.078C134.323,-145.405 190.547,-169.255 190.547,-213.696 190.547,-563.696 190.547,-563.696 190.547,-563.696 190.547,-594.97 161.429,-619.016 137.686,-633.425"/>
<polygon fill="black" stroke="black" points="135.842,-630.448 128.922,-638.471 139.335,-636.515 135.842,-630.448"/>
<text text-anchor="middle" x="199.047" y="-384.996" font-family="Times New Roman,serif" font-size="14.00">EP</text>
</g>
<!-- T7 -->
<g id="node7" class="node"><title>T7</title>
<ellipse fill="none" stroke="black" cx="122.547" cy="-301.696" rx="27" ry="18"/>
<text text-anchor="middle" x="122.547" y="-297.996" font-family="Times New Roman,serif" font-size="14.00">T7</text>
</g>
<!-- T8 -->
<g id="node9" class="node"><title>T8</title>
<ellipse fill="none" stroke="black" cx="122.547" cy="-214.696" rx="27" ry="18"/>
<text text-anchor="middle" x="122.547" y="-210.996" font-family="Times New Roman,serif" font-size="14.00">T8</text>
</g>
<!-- T7&#45;&gt;T8 -->
<g id="edge12" class="edge"><title>T7&#45;&gt;T8</title>
<path fill="none" stroke="black" d="M120.204,-283.639C119.527,-277.945 118.881,-271.557 118.547,-265.696 118.123,-258.25 118.431,-250.19 119.027,-242.76"/>
<polygon fill="black" stroke="black" points="122.51,-243.104 120.018,-232.807 115.545,-242.411 122.51,-243.104"/>
<text text-anchor="middle" x="122.047" y="-254.496" font-family="Times New Roman,serif" font-size="14.00">1</text>
</g>
<!-- T5&#45;&gt;T6 -->
<g id="edge9" class="edge"><title>T5&#45;&gt;T6</title>
<path fill="none" stroke="black" d="M70.8741,-458.307C76.2888,-446.195 83.7686,-429.464 89.9862,-415.556"/>
<polygon fill="black" stroke="black" points="93.3569,-416.592 94.243,-406.034 86.9664,-413.735 93.3569,-416.592"/>
<text text-anchor="middle" x="94.0473" y="-428.496" font-family="Times New Roman,serif" font-size="14.00">EP</text>
</g>
<!-- T8&#45;&gt;T9 -->
<g id="edge13" class="edge"><title>T8&#45;&gt;T9</title>
<path fill="none" stroke="black" d="M113.485,-197.307C106.68,-184.999 97.2367,-167.921 89.4744,-153.883"/>
<polygon fill="black" stroke="black" points="92.3241,-151.803 84.4222,-144.746 86.1982,-155.191 92.3241,-151.803"/>
<text text-anchor="middle" x="110.047" y="-167.496" font-family="Times New Roman,serif" font-size="14.00">EP</text>
</g>
<!-- T8&#45;&gt;T7 -->
<g id="edge14" class="edge"><title>T8&#45;&gt;T7</title>
<path fill="none" stroke="black" d="M123.133,-232.783C123.302,-238.48 123.464,-244.86 123.547,-250.696 123.652,-258.045 123.578,-266.001 123.433,-273.36"/>
<polygon fill="black" stroke="black" points="119.928,-273.488 123.18,-283.572 126.926,-273.662 119.928,-273.488"/>
<text text-anchor="middle" x="132.047" y="-254.496" font-family="Times New Roman,serif" font-size="14.00">EP</text>
</g>
<!-- T2&#45;&gt;T3 -->
<g id="edge6" class="edge"><title>T2&#45;&gt;T3</title>
<path fill="none" stroke="black" d="M135.547,-544.494C135.547,-532.858 135.547,-517.243 135.547,-503.932"/>
<polygon fill="black" stroke="black" points="139.047,-503.871 135.547,-493.871 132.047,-503.871 139.047,-503.871"/>
<text text-anchor="middle" x="144.047" y="-515.496" font-family="Times New Roman,serif" font-size="14.00">EP</text>
</g>
<!-- T0&#45;&gt;T10 -->
<g id="edge2" class="edge"><title>T0&#45;&gt;T10</title>
<path fill="none" stroke="black" d="M23.5864,-719.09C17.141,-702.19 8.54729,-675.085 8.54729,-650.696 8.54729,-650.696 8.54729,-650.696 8.54729,-126.696 8.54729,-106.471 13.772,-84.6027 19.4445,-66.8196"/>
<polygon fill="black" stroke="black" points="22.9224,-67.4588 22.8,-56.8647 16.2891,-65.2229 22.9224,-67.4588"/>
<text text-anchor="middle" x="17.0473" y="-384.996" font-family="Times New Roman,serif" font-size="14.00">EP</text>
</g>
<!-- T0&#45;&gt;T1 -->
<g id="edge3" class="edge"><title>T0&#45;&gt;T1</title>
<path fill="none" stroke="black" d="M43.9597,-720.89C55.9213,-707.685 73.6055,-688.164 87.2901,-673.057"/>
<polygon fill="black" stroke="black" points="89.9105,-675.378 94.0303,-665.617 84.7226,-670.678 89.9105,-675.378"/>
<text text-anchor="middle" x="84.0473" y="-689.496" font-family="Times New Roman,serif" font-size="14.00">EP</text>
</g>
<!-- T6&#45;&gt;T9 -->
<g id="edge10" class="edge"><title>T6&#45;&gt;T9</title>
<path fill="none" stroke="black" d="M97.028,-370.785C93.5648,-357.108 88.98,-337.3 86.5473,-319.696 78.5398,-261.75 76.3438,-193.136 75.753,-155.957"/>
<polygon fill="black" stroke="black" points="79.2521,-155.859 75.6209,-145.906 72.2527,-155.951 79.2521,-155.859"/>
<text text-anchor="middle" x="89.0473" y="-254.496" font-family="Times New Roman,serif" font-size="14.00">EP</text>
</g>
<!-- T6&#45;&gt;T7 -->
<g id="edge11" class="edge"><title>T6&#45;&gt;T7</title>
<path fill="none" stroke="black" d="M105.696,-370.902C108.611,-359.105 112.572,-343.074 115.921,-329.518"/>
<polygon fill="black" stroke="black" points="119.334,-330.292 118.335,-319.745 112.539,-328.613 119.334,-330.292"/>
<text text-anchor="middle" x="122.047" y="-341.496" font-family="Times New Roman,serif" font-size="14.00">EP</text>
</g>
</g>
</svg>
