<?xml version="1.0" encoding="UTF-8" standalone="no"?>
<!DOCTYPE svg PUBLIC "-//W3C//DTD SVG 1.1//EN"
 "http://www.w3.org/Graphics/SVG/1.1/DTD/svg11.dtd">
<!-- Generated by graphviz version 2.38.0 (20140413.2041)
 -->
<!-- Title: %3 Pages: 1 -->
<svg width="232pt" height="836pt"
 viewBox="0.00 0.00 232.00 835.70" xmlns="http://www.w3.org/2000/svg" xmlns:xlink="http://www.w3.org/1999/xlink">
<g id="graph0" class="graph" transform="scale(1 1) rotate(0) translate(4 831.696)">
<title>%3</title>
<polygon fill="white" stroke="none" points="-4,4 -4,-831.696 228,-831.696 228,4 -4,4"/>
<!-- fake0 -->
<g id="node1" class="node"><title>fake0</title>
</g>
<!-- T0 -->
<g id="node7" class="node"><title>T0</title>
<ellipse fill="none" stroke="black" cx="175" cy="-736.696" rx="27" ry="18"/>
<text text-anchor="middle" x="175" y="-732.996" font-family="Times New Roman,serif" font-size="14.00">T0</text>
</g>
<!-- fake0&#45;&gt;T0 -->
<g id="edge1" class="edge"><title>fake0&#45;&gt;T0</title>
<path fill="none" stroke="black" stroke-width="2" d="M175,-791.508C175,-783.485 175,-773.743 175,-764.765"/>
<polygon fill="black" stroke="black" stroke-width="2" points="178.5,-764.724 175,-754.724 171.5,-764.724 178.5,-764.724"/>
</g>
<!-- T4 -->
<g id="node2" class="node"><title>T4</title>
<ellipse fill="none" stroke="black" cx="27" cy="-562.696" rx="27" ry="18"/>
<text text-anchor="middle" x="27" y="-558.996" font-family="Times New Roman,serif" font-size="14.00">T4</text>
</g>
<!-- T5 -->
<g id="node6" class="node"><title>T5</title>
<ellipse fill="none" stroke="black" cx="27" cy="-475.696" rx="27" ry="18"/>
<text text-anchor="middle" x="27" y="-471.996" font-family="Times New Roman,serif" font-size="14.00">T5</text>
</g>
<!-- T4&#45;&gt;T5 -->
<g id="edge8" class="edge"><title>T4&#45;&gt;T5</title>
<path fill="none" stroke="black" d="M27,-544.494C27,-532.858 27,-517.243 27,-503.932"/>
<polygon fill="black" stroke="black" points="30.5001,-503.871 27,-493.871 23.5001,-503.871 30.5001,-503.871"/>
<text text-anchor="middle" x="30.5" y="-515.496" font-family="Times New Roman,serif" font-size="14.00">0</text>
</g>
<!-- T2 -->
<g id="node3" class="node"><title>T2</title>
<ellipse fill="none" stroke="black" cx="99" cy="-562.696" rx="27" ry="18"/>
<text text-anchor="middle" x="99" y="-558.996" font-family="Times New Roman,serif" font-size="14.00">T2</text>
</g>
<!-- T3 -->
<g id="node11" class="node"><title>T3</title>
<ellipse fill="none" stroke="black" cx="99" cy="-475.696" rx="27" ry="18"/>
<text text-anchor="middle" x="99" y="-471.996" font-family="Times New Roman,serif" font-size="14.00">T3</text>
</g>
<!-- T2&#45;&gt;T3 -->
<g id="edge6" class="edge"><title>T2&#45;&gt;T3</title>
<path fill="none" stroke="black" d="M99,-544.494C99,-532.858 99,-517.243 99,-503.932"/>
<polygon fill="black" stroke="black" points="102.5,-503.871 99,-493.871 95.5001,-503.871 102.5,-503.871"/>
<text text-anchor="middle" x="107.5" y="-515.496" font-family="Times New Roman,serif" font-size="14.00">EP</text>
</g>
<!-- T7 -->
<g id="node4" class="node"><title>T7</title>
<ellipse fill="none" stroke="black" cx="61" cy="-301.696" rx="27" ry="18"/>
<text text-anchor="middle" x="61" y="-297.996" font-family="Times New Roman,serif" font-size="14.00">T7</text>
</g>
<!-- T8 -->
<g id="node12" class="node"><title>T8</title>
<ellipse fill="none" stroke="black" cx="61" cy="-214.696" rx="27" ry="18"/>
<text text-anchor="middle" x="61" y="-210.996" font-family="Times New Roman,serif" font-size="14.00">T8</text>
</g>
<!-- T7&#45;&gt;T8 -->
<g id="edge12" class="edge"><title>T7&#45;&gt;T8</title>
<path fill="none" stroke="black" d="M50.3282,-285.01C46.9731,-279.203 43.7016,-272.397 42,-265.696 39.8552,-257.249 41.8361,-248.276 45.2061,-240.298"/>
<polygon fill="black" stroke="black" points="48.4364,-241.666 49.8217,-231.162 42.1885,-238.509 48.4364,-241.666"/>
<text text-anchor="middle" x="46.5" y="-254.496" font-family="Times New Roman,serif" font-size="14.00">1</text>
</g>
<!-- T1 -->
<g id="node5" class="node"><title>T1</title>
<ellipse fill="none" stroke="black" cx="127" cy="-649.696" rx="27" ry="18"/>
<text text-anchor="middle" x="127" y="-645.996" font-family="Times New Roman,serif" font-size="14.00">T1</text>
</g>
<!-- T1&#45;&gt;T4 -->
<g id="edge4" class="edge"><title>T1&#45;&gt;T4</title>
<path fill="none" stroke="black" d="M110.933,-635.039C94.6777,-621.222 69.3619,-599.703 50.7817,-583.91"/>
<polygon fill="black" stroke="black" points="52.9131,-581.128 43.0269,-577.318 48.3795,-586.462 52.9131,-581.128"/>
<text text-anchor="middle" x="90.5" y="-602.496" font-family="Times New Roman,serif" font-size="14.00">EP</text>
</g>
<!-- T1&#45;&gt;T2 -->
<g id="edge5" class="edge"><title>T1&#45;&gt;T2</title>
<path fill="none" stroke="black" d="M121.468,-631.902C117.556,-620.027 112.232,-603.864 107.748,-590.252"/>
<polygon fill="black" stroke="black" points="110.973,-588.857 104.52,-580.454 104.325,-591.047 110.973,-588.857"/>
<text text-anchor="middle" x="122.5" y="-602.496" font-family="Times New Roman,serif" font-size="14.00">EP</text>
</g>
<!-- T6 -->
<g id="node8" class="node"><title>T6</title>
<ellipse fill="none" stroke="black" cx="83" cy="-388.696" rx="27" ry="18"/>
<text text-anchor="middle" x="83" y="-384.996" font-family="Times New Roman,serif" font-size="14.00">T6</text>
</g>
<!-- T5&#45;&gt;T6 -->
<g id="edge9" class="edge"><title>T5&#45;&gt;T6</title>
<path fill="none" stroke="black" d="M37.5332,-458.708C45.8243,-446.123 57.5175,-428.374 66.9692,-414.028"/>
<polygon fill="black" stroke="black" points="69.9352,-415.888 72.5141,-405.612 64.0897,-412.037 69.9352,-415.888"/>
<text text-anchor="middle" x="68.5" y="-428.496" font-family="Times New Roman,serif" font-size="14.00">EP</text>
</g>
<!-- T0&#45;&gt;T1 -->
<g id="edge2" class="edge"><title>T0&#45;&gt;T1</title>
<path fill="none" stroke="black" d="M165.972,-719.708C158.976,-707.321 149.156,-689.93 141.124,-675.706"/>
<polygon fill="black" stroke="black" points="144.116,-673.887 136.151,-666.901 138.021,-677.329 144.116,-673.887"/>
<text text-anchor="middle" x="161.5" y="-689.496" font-family="Times New Roman,serif" font-size="14.00">EP</text>
</g>
<!-- T10 -->
<g id="node9" class="node"><title>T10</title>
<ellipse fill="none" stroke="black" cx="181" cy="-29.3478" rx="25.2169" ry="25.2169"/>
<ellipse fill="none" stroke="black" cx="181" cy="-29.3478" rx="29.1963" ry="29.1963"/>
<text text-anchor="middle" x="181" y="-25.6478" font-family="Times New Roman,serif" font-size="14.00">T10</text>
</g>
<!-- T0&#45;&gt;T10 -->
<g id="edge3" class="edge"><title>T0&#45;&gt;T10</title>
<path fill="none" stroke="black" d="M184.95,-719.755C194.343,-703.157 207,-676.082 207,-650.696 207,-650.696 207,-650.696 207,-126.696 207,-106.23 201.464,-84.1372 195.501,-66.2765"/>
<polygon fill="black" stroke="black" points="198.797,-65.0984 192.177,-56.8264 192.194,-67.4212 198.797,-65.0984"/>
<text text-anchor="middle" x="215.5" y="-384.996" font-family="Times New Roman,serif" font-size="14.00">EP</text>
</g>
<!-- T6&#45;&gt;T7 -->
<g id="edge10" class="edge"><title>T6&#45;&gt;T7</title>
<path fill="none" stroke="black" d="M78.6535,-370.902C75.6,-359.105 71.4508,-343.074 67.9422,-329.518"/>
<polygon fill="black" stroke="black" points="71.3069,-328.549 65.4128,-319.745 64.5302,-330.303 71.3069,-328.549"/>
<text text-anchor="middle" x="81.5" y="-341.496" font-family="Times New Roman,serif" font-size="14.00">EP</text>
</g>
<!-- T9 -->
<g id="node10" class="node"><title>T9</title>
<ellipse fill="none" stroke="black" cx="134" cy="-127.696" rx="27" ry="18"/>
<text text-anchor="middle" x="134" y="-123.996" font-family="Times New Roman,serif" font-size="14.00">T9</text>
</g>
<!-- T6&#45;&gt;T9 -->
<g id="edge11" class="edge"><title>T6&#45;&gt;T9</title>
<path fill="none" stroke="black" d="M88.6984,-371.083C90.5519,-365.308 92.5126,-358.758 94,-352.696 111.233,-282.461 124.274,-198.13 130.306,-155.779"/>
<polygon fill="black" stroke="black" points="133.795,-156.1 131.72,-145.71 126.863,-155.126 133.795,-156.1"/>
<text text-anchor="middle" x="122.5" y="-254.496" font-family="Times New Roman,serif" font-size="14.00">EP</text>
</g>
<!-- T9&#45;&gt;T1 -->
<g id="edge15" class="edge"><title>T9&#45;&gt;T1</title>
<path fill="none" stroke="black" d="M140.328,-145.357C146.188,-162.3 154,-189.44 154,-213.696 154,-563.696 154,-563.696 154,-563.696 154,-584.339 146.676,-606.536 139.658,-623.068"/>
<polygon fill="black" stroke="black" points="136.297,-622.009 135.395,-632.566 142.683,-624.876 136.297,-622.009"/>
<text text-anchor="middle" x="162.5" y="-384.996" font-family="Times New Roman,serif" font-size="14.00">EP</text>
</g>
<!-- T9&#45;&gt;T10 -->
<g id="edge16" class="edge"><title>T9&#45;&gt;T10</title>
<path fill="none" stroke="black" d="M141.973,-110.351C147.959,-98.0803 156.378,-80.8217 163.865,-65.4741"/>
<polygon fill="black" stroke="black" points="167.137,-66.7488 168.376,-56.2266 160.846,-63.6797 167.137,-66.7488"/>
<text text-anchor="middle" x="165.5" y="-80.4955" font-family="Times New Roman,serif" font-size="14.00">EP</text>
</g>
<!-- T3&#45;&gt;T6 -->
<g id="edge7" class="edge"><title>T3&#45;&gt;T6</title>
<path fill="none" stroke="black" d="M95.7622,-457.494C93.5574,-445.782 90.5938,-430.038 88.0775,-416.67"/>
<polygon fill="black" stroke="black" points="91.468,-415.761 86.1784,-406.581 84.5888,-417.056 91.468,-415.761"/>
<text text-anchor="middle" x="99.5" y="-428.496" font-family="Times New Roman,serif" font-size="14.00">EP</text>
</g>
<!-- T8&#45;&gt;T7 -->
<g id="edge13" class="edge"><title>T8&#45;&gt;T7</title>
<path fill="none" stroke="black" d="M61,-232.871C61,-244.502 61,-260.115 61,-273.429"/>
<polygon fill="black" stroke="black" points="57.5001,-273.494 61,-283.494 64.5001,-273.495 57.5001,-273.494"/>
<text text-anchor="middle" x="69.5" y="-254.496" font-family="Times New Roman,serif" font-size="14.00">EP</text>
</g>
<!-- T8&#45;&gt;T9 -->
<g id="edge14" class="edge"><title>T8&#45;&gt;T9</title>
<path fill="none" stroke="black" d="M66.6811,-196.715C70.6961,-186.414 76.8214,-173.425 85,-163.696 90.7054,-156.909 98.0086,-150.777 105.225,-145.612"/>
<polygon fill="black" stroke="black" points="107.209,-148.495 113.555,-140.01 103.303,-142.686 107.209,-148.495"/>
<text text-anchor="middle" x="93.5" y="-167.496" font-family="Times New Roman,serif" font-size="14.00">EP</text>
</g>
</g>
</svg>
