<?xml version="1.0" encoding="UTF-8" standalone="no"?>
<!DOCTYPE svg PUBLIC "-//W3C//DTD SVG 1.1//EN"
 "http://www.w3.org/Graphics/SVG/1.1/DTD/svg11.dtd">
<!-- Generated by graphviz version 2.38.0 (20140413.2041)
 -->
<!-- Title: %3 Pages: 1 -->
<svg width="232pt" height="1184pt"
 viewBox="0.00 0.00 232.00 1183.70" xmlns="http://www.w3.org/2000/svg" xmlns:xlink="http://www.w3.org/1999/xlink">
<g id="graph0" class="graph" transform="scale(1 1) rotate(0) translate(4 1179.7)">
<title>%3</title>
<polygon fill="white" stroke="none" points="-4,4 -4,-1179.7 228,-1179.7 228,4 -4,4"/>
<!-- fake0 -->
<g id="node1" class="node"><title>fake0</title>
</g>
<!-- T0 -->
<g id="node17" class="node"><title>T0</title>
<ellipse fill="none" stroke="black" cx="52" cy="-1084.7" rx="27" ry="18"/>
<text text-anchor="middle" x="52" y="-1081" font-family="Times New Roman,serif" font-size="14.00">T0</text>
</g>
<!-- fake0&#45;&gt;T0 -->
<g id="edge1" class="edge"><title>fake0&#45;&gt;T0</title>
<path fill="none" stroke="black" stroke-width="2" d="M52,-1139.51C52,-1131.48 52,-1121.74 52,-1112.76"/>
<polygon fill="black" stroke="black" stroke-width="2" points="55.5001,-1112.72 52,-1102.72 48.5001,-1112.72 55.5001,-1112.72"/>
</g>
<!-- T18 -->
<g id="node2" class="node"><title>T18</title>
<ellipse fill="none" stroke="black" cx="79" cy="-29.3478" rx="25.2169" ry="25.2169"/>
<ellipse fill="none" stroke="black" cx="79" cy="-29.3478" rx="29.1963" ry="29.1963"/>
<text text-anchor="middle" x="79" y="-25.6478" font-family="Times New Roman,serif" font-size="14.00">T18</text>
</g>
<!-- T7 -->
<g id="node3" class="node"><title>T7</title>
<ellipse fill="none" stroke="black" cx="55" cy="-649.696" rx="27" ry="18"/>
<text text-anchor="middle" x="55" y="-645.996" font-family="Times New Roman,serif" font-size="14.00">T7</text>
</g>
<!-- T8 -->
<g id="node15" class="node"><title>T8</title>
<ellipse fill="none" stroke="black" cx="55" cy="-562.696" rx="27" ry="18"/>
<text text-anchor="middle" x="55" y="-558.996" font-family="Times New Roman,serif" font-size="14.00">T8</text>
</g>
<!-- T7&#45;&gt;T8 -->
<g id="edge12" class="edge"><title>T7&#45;&gt;T8</title>
<path fill="none" stroke="black" d="M55,-631.494C55,-619.858 55,-604.243 55,-590.932"/>
<polygon fill="black" stroke="black" points="58.5001,-590.871 55,-580.871 51.5001,-590.871 58.5001,-590.871"/>
<text text-anchor="middle" x="58.5" y="-602.496" font-family="Times New Roman,serif" font-size="14.00">a</text>
</g>
<!-- T10 -->
<g id="node4" class="node"><title>T10</title>
<ellipse fill="none" stroke="black" cx="99" cy="-388.696" rx="27" ry="18"/>
<text text-anchor="middle" x="99" y="-384.996" font-family="Times New Roman,serif" font-size="14.00">T10</text>
</g>
<!-- T13 -->
<g id="node5" class="node"><title>T13</title>
<ellipse fill="none" stroke="black" cx="67" cy="-301.696" rx="27" ry="18"/>
<text text-anchor="middle" x="67" y="-297.996" font-family="Times New Roman,serif" font-size="14.00">T13</text>
</g>
<!-- T10&#45;&gt;T13 -->
<g id="edge16" class="edge"><title>T10&#45;&gt;T13</title>
<path fill="none" stroke="black" d="M92.6778,-370.902C88.1635,-358.911 82.0028,-342.547 76.8474,-328.853"/>
<polygon fill="black" stroke="black" points="80.108,-327.579 73.309,-319.454 73.5568,-330.046 80.108,-327.579"/>
<text text-anchor="middle" x="92.5" y="-341.496" font-family="Times New Roman,serif" font-size="14.00">EP</text>
</g>
<!-- T14 -->
<g id="node8" class="node"><title>T14</title>
<ellipse fill="none" stroke="black" cx="39" cy="-214.696" rx="27" ry="18"/>
<text text-anchor="middle" x="39" y="-210.996" font-family="Times New Roman,serif" font-size="14.00">T14</text>
</g>
<!-- T13&#45;&gt;T14 -->
<g id="edge20" class="edge"><title>T13&#45;&gt;T14</title>
<path fill="none" stroke="black" d="M61.4681,-283.902C57.5564,-272.027 52.2319,-255.864 47.7481,-242.252"/>
<polygon fill="black" stroke="black" points="50.9735,-240.857 44.5204,-232.454 44.3249,-243.047 50.9735,-240.857"/>
<text text-anchor="middle" x="62.5" y="-254.496" font-family="Times New Roman,serif" font-size="14.00">EP</text>
</g>
<!-- T16 -->
<g id="node14" class="node"><title>T16</title>
<ellipse fill="none" stroke="black" cx="111" cy="-214.696" rx="27" ry="18"/>
<text text-anchor="middle" x="111" y="-210.996" font-family="Times New Roman,serif" font-size="14.00">T16</text>
</g>
<!-- T13&#45;&gt;T16 -->
<g id="edge19" class="edge"><title>T13&#45;&gt;T16</title>
<path fill="none" stroke="black" d="M75.4836,-284.307C81.8142,-272.077 90.5825,-255.138 97.8228,-241.152"/>
<polygon fill="black" stroke="black" points="101.054,-242.524 102.542,-232.034 94.837,-239.306 101.054,-242.524"/>
<text text-anchor="middle" x="100.5" y="-254.496" font-family="Times New Roman,serif" font-size="14.00">EP</text>
</g>
<!-- T12 -->
<g id="node6" class="node"><title>T12</title>
<ellipse fill="none" stroke="black" cx="27" cy="-388.696" rx="27" ry="18"/>
<text text-anchor="middle" x="27" y="-384.996" font-family="Times New Roman,serif" font-size="14.00">T12</text>
</g>
<!-- T12&#45;&gt;T13 -->
<g id="edge18" class="edge"><title>T12&#45;&gt;T13</title>
<path fill="none" stroke="black" d="M34.7124,-371.307C40.4674,-359.077 48.4386,-342.138 55.0207,-328.152"/>
<polygon fill="black" stroke="black" points="58.2201,-329.573 59.3113,-319.034 51.8864,-326.592 58.2201,-329.573"/>
<text text-anchor="middle" x="58.5" y="-341.496" font-family="Times New Roman,serif" font-size="14.00">EP</text>
</g>
<!-- T4 -->
<g id="node7" class="node"><title>T4</title>
<ellipse fill="none" stroke="black" cx="125" cy="-910.696" rx="27" ry="18"/>
<text text-anchor="middle" x="125" y="-906.996" font-family="Times New Roman,serif" font-size="14.00">T4</text>
</g>
<!-- T5 -->
<g id="node20" class="node"><title>T5</title>
<ellipse fill="none" stroke="black" cx="125" cy="-823.696" rx="27" ry="18"/>
<text text-anchor="middle" x="125" y="-819.996" font-family="Times New Roman,serif" font-size="14.00">T5</text>
</g>
<!-- T4&#45;&gt;T5 -->
<g id="edge8" class="edge"><title>T4&#45;&gt;T5</title>
<path fill="none" stroke="black" d="M125,-892.494C125,-880.858 125,-865.243 125,-851.932"/>
<polygon fill="black" stroke="black" points="128.5,-851.871 125,-841.871 121.5,-851.871 128.5,-851.871"/>
<text text-anchor="middle" x="129" y="-863.496" font-family="Times New Roman,serif" font-size="14.00">b</text>
</g>
<!-- T15 -->
<g id="node18" class="node"><title>T15</title>
<ellipse fill="none" stroke="black" cx="39" cy="-127.696" rx="27" ry="18"/>
<text text-anchor="middle" x="39" y="-123.996" font-family="Times New Roman,serif" font-size="14.00">T15</text>
</g>
<!-- T14&#45;&gt;T15 -->
<g id="edge21" class="edge"><title>T14&#45;&gt;T15</title>
<path fill="none" stroke="black" d="M39,-196.494C39,-184.858 39,-169.243 39,-155.932"/>
<polygon fill="black" stroke="black" points="42.5001,-155.871 39,-145.871 35.5001,-155.871 42.5001,-155.871"/>
<text text-anchor="middle" x="42.5" y="-167.496" font-family="Times New Roman,serif" font-size="14.00">a</text>
</g>
<!-- T11 -->
<g id="node9" class="node"><title>T11</title>
<ellipse fill="none" stroke="black" cx="27" cy="-475.696" rx="27" ry="18"/>
<text text-anchor="middle" x="27" y="-471.996" font-family="Times New Roman,serif" font-size="14.00">T11</text>
</g>
<!-- T11&#45;&gt;T12 -->
<g id="edge17" class="edge"><title>T11&#45;&gt;T12</title>
<path fill="none" stroke="black" d="M27,-457.494C27,-445.858 27,-430.243 27,-416.932"/>
<polygon fill="black" stroke="black" points="30.5001,-416.871 27,-406.871 23.5001,-416.871 30.5001,-416.871"/>
<text text-anchor="middle" x="31" y="-428.496" font-family="Times New Roman,serif" font-size="14.00">b</text>
</g>
<!-- T6 -->
<g id="node10" class="node"><title>T6</title>
<ellipse fill="none" stroke="black" cx="99" cy="-736.696" rx="27" ry="18"/>
<text text-anchor="middle" x="99" y="-732.996" font-family="Times New Roman,serif" font-size="14.00">T6</text>
</g>
<!-- T6&#45;&gt;T7 -->
<g id="edge10" class="edge"><title>T6&#45;&gt;T7</title>
<path fill="none" stroke="black" d="M90.5164,-719.307C84.1858,-707.077 75.4175,-690.138 68.1772,-676.152"/>
<polygon fill="black" stroke="black" points="71.163,-674.306 63.4576,-667.034 64.9465,-677.524 71.163,-674.306"/>
<text text-anchor="middle" x="87.5" y="-689.496" font-family="Times New Roman,serif" font-size="14.00">EP</text>
</g>
<!-- T1 -->
<g id="node16" class="node"><title>T1</title>
<ellipse fill="none" stroke="black" cx="94" cy="-997.696" rx="27" ry="18"/>
<text text-anchor="middle" x="94" y="-993.996" font-family="Times New Roman,serif" font-size="14.00">T1</text>
</g>
<!-- T6&#45;&gt;T1 -->
<g id="edge11" class="edge"><title>T6&#45;&gt;T1</title>
<path fill="none" stroke="black" d="M95.801,-754.666C93.3868,-768.377 90.2794,-788.201 89,-805.696 84.7388,-863.959 88.707,-932.453 91.5984,-969.527"/>
<polygon fill="black" stroke="black" points="88.1142,-969.865 92.4143,-979.548 95.0911,-969.297 88.1142,-969.865"/>
<text text-anchor="middle" x="95.5" y="-863.496" font-family="Times New Roman,serif" font-size="14.00">EP</text>
</g>
<!-- T3 -->
<g id="node11" class="node"><title>T3</title>
<ellipse fill="none" stroke="black" cx="197" cy="-823.696" rx="27" ry="18"/>
<text text-anchor="middle" x="197" y="-819.996" font-family="Times New Roman,serif" font-size="14.00">T3</text>
</g>
<!-- T3&#45;&gt;T6 -->
<g id="edge7" class="edge"><title>T3&#45;&gt;T6</title>
<path fill="none" stroke="black" d="M181.255,-809.039C165.489,-795.365 141.028,-774.149 122.875,-758.403"/>
<polygon fill="black" stroke="black" points="124.88,-755.509 115.032,-751.601 120.293,-760.797 124.88,-755.509"/>
<text text-anchor="middle" x="161.5" y="-776.496" font-family="Times New Roman,serif" font-size="14.00">EP</text>
</g>
<!-- T17 -->
<g id="node12" class="node"><title>T17</title>
<ellipse fill="none" stroke="black" cx="111" cy="-127.696" rx="27" ry="18"/>
<text text-anchor="middle" x="111" y="-123.996" font-family="Times New Roman,serif" font-size="14.00">T17</text>
</g>
<!-- T17&#45;&gt;T18 -->
<g id="edge24" class="edge"><title>T17&#45;&gt;T18</title>
<path fill="none" stroke="black" d="M105.426,-109.913C101.527,-98.1731 96.1645,-82.0277 91.2887,-67.3475"/>
<polygon fill="black" stroke="black" points="94.4886,-65.8776 88.0149,-57.4905 87.8454,-68.084 94.4886,-65.8776"/>
<text text-anchor="middle" x="106.5" y="-80.4955" font-family="Times New Roman,serif" font-size="14.00">EP</text>
</g>
<!-- T2 -->
<g id="node13" class="node"><title>T2</title>
<ellipse fill="none" stroke="black" cx="197" cy="-910.696" rx="27" ry="18"/>
<text text-anchor="middle" x="197" y="-906.996" font-family="Times New Roman,serif" font-size="14.00">T2</text>
</g>
<!-- T2&#45;&gt;T3 -->
<g id="edge6" class="edge"><title>T2&#45;&gt;T3</title>
<path fill="none" stroke="black" d="M197,-892.494C197,-880.858 197,-865.243 197,-851.932"/>
<polygon fill="black" stroke="black" points="200.5,-851.871 197,-841.871 193.5,-851.871 200.5,-851.871"/>
<text text-anchor="middle" x="200.5" y="-863.496" font-family="Times New Roman,serif" font-size="14.00">a</text>
</g>
<!-- T16&#45;&gt;T17 -->
<g id="edge23" class="edge"><title>T16&#45;&gt;T17</title>
<path fill="none" stroke="black" d="M111,-196.494C111,-184.858 111,-169.243 111,-155.932"/>
<polygon fill="black" stroke="black" points="114.5,-155.871 111,-145.871 107.5,-155.871 114.5,-155.871"/>
<text text-anchor="middle" x="115" y="-167.496" font-family="Times New Roman,serif" font-size="14.00">b</text>
</g>
<!-- T8&#45;&gt;T11 -->
<g id="edge13" class="edge"><title>T8&#45;&gt;T11</title>
<path fill="none" stroke="black" d="M49.4681,-544.902C45.5564,-533.027 40.2319,-516.864 35.7481,-503.252"/>
<polygon fill="black" stroke="black" points="38.9735,-501.857 32.5204,-493.454 32.3249,-504.047 38.9735,-501.857"/>
<text text-anchor="middle" x="50.5" y="-515.496" font-family="Times New Roman,serif" font-size="14.00">EP</text>
</g>
<!-- T9 -->
<g id="node19" class="node"><title>T9</title>
<ellipse fill="none" stroke="black" cx="99" cy="-475.696" rx="27" ry="18"/>
<text text-anchor="middle" x="99" y="-471.996" font-family="Times New Roman,serif" font-size="14.00">T9</text>
</g>
<!-- T8&#45;&gt;T9 -->
<g id="edge14" class="edge"><title>T8&#45;&gt;T9</title>
<path fill="none" stroke="black" d="M63.4836,-545.307C69.8142,-533.077 78.5825,-516.138 85.8228,-502.152"/>
<polygon fill="black" stroke="black" points="89.0535,-503.524 90.5424,-493.034 82.837,-500.306 89.0535,-503.524"/>
<text text-anchor="middle" x="88.5" y="-515.496" font-family="Times New Roman,serif" font-size="14.00">EP</text>
</g>
<!-- T1&#45;&gt;T4 -->
<g id="edge5" class="edge"><title>T1&#45;&gt;T4</title>
<path fill="none" stroke="black" d="M100.125,-979.902C104.498,-967.911 110.466,-951.547 115.46,-937.853"/>
<polygon fill="black" stroke="black" points="118.75,-939.048 118.888,-928.454 112.174,-936.649 118.75,-939.048"/>
<text text-anchor="middle" x="120.5" y="-950.496" font-family="Times New Roman,serif" font-size="14.00">EP</text>
</g>
<!-- T1&#45;&gt;T2 -->
<g id="edge4" class="edge"><title>T1&#45;&gt;T2</title>
<path fill="none" stroke="black" d="M110.549,-983.039C127.367,-969.16 153.601,-947.51 172.762,-931.698"/>
<polygon fill="black" stroke="black" points="175.007,-934.383 180.492,-925.318 170.552,-928.984 175.007,-934.383"/>
<text text-anchor="middle" x="162.5" y="-950.496" font-family="Times New Roman,serif" font-size="14.00">EP</text>
</g>
<!-- T0&#45;&gt;T7 -->
<g id="edge2" class="edge"><title>T0&#45;&gt;T7</title>
<path fill="none" stroke="black" d="M45.0391,-1067.09C38.5938,-1050.19 30,-1023.08 30,-998.696 30,-998.696 30,-998.696 30,-735.696 30,-715.314 36.6972,-693.26 43.1589,-676.725"/>
<polygon fill="black" stroke="black" points="46.5075,-677.786 47.0898,-667.207 40.0376,-675.114 46.5075,-677.786"/>
<text text-anchor="middle" x="38.5" y="-863.496" font-family="Times New Roman,serif" font-size="14.00">EP</text>
</g>
<!-- T0&#45;&gt;T1 -->
<g id="edge3" class="edge"><title>T0&#45;&gt;T1</title>
<path fill="none" stroke="black" d="M60.098,-1067.31C66.1408,-1055.08 74.5106,-1038.14 81.4217,-1024.15"/>
<polygon fill="black" stroke="black" points="84.6347,-1025.55 85.9268,-1015.03 78.359,-1022.45 84.6347,-1025.55"/>
<text text-anchor="middle" x="84.5" y="-1037.5" font-family="Times New Roman,serif" font-size="14.00">EP</text>
</g>
<!-- T15&#45;&gt;T18 -->
<g id="edge22" class="edge"><title>T15&#45;&gt;T18</title>
<path fill="none" stroke="black" d="M45.9675,-109.913C50.9617,-97.8833 57.8764,-81.2279 64.0893,-66.2632"/>
<polygon fill="black" stroke="black" points="67.4415,-67.3166 68.0434,-56.7389 60.9765,-64.6326 67.4415,-67.3166"/>
<text text-anchor="middle" x="67.5" y="-80.4955" font-family="Times New Roman,serif" font-size="14.00">EP</text>
</g>
<!-- T9&#45;&gt;T10 -->
<g id="edge15" class="edge"><title>T9&#45;&gt;T10</title>
<path fill="none" stroke="black" d="M99,-457.494C99,-445.858 99,-430.243 99,-416.932"/>
<polygon fill="black" stroke="black" points="102.5,-416.871 99,-406.871 95.5001,-416.871 102.5,-416.871"/>
<text text-anchor="middle" x="102.5" y="-428.496" font-family="Times New Roman,serif" font-size="14.00">a</text>
</g>
<!-- T5&#45;&gt;T6 -->
<g id="edge9" class="edge"><title>T5&#45;&gt;T6</title>
<path fill="none" stroke="black" d="M119.863,-805.902C116.231,-794.027 111.287,-777.864 107.123,-764.252"/>
<polygon fill="black" stroke="black" points="110.398,-762.993 104.126,-754.454 103.704,-765.04 110.398,-762.993"/>
<text text-anchor="middle" x="121.5" y="-776.496" font-family="Times New Roman,serif" font-size="14.00">EP</text>
</g>
</g>
</svg>
