<?xml version="1.0" encoding="UTF-8" standalone="no"?>
<!DOCTYPE svg PUBLIC "-//W3C//DTD SVG 1.1//EN"
 "http://www.w3.org/Graphics/SVG/1.1/DTD/svg11.dtd">
<!-- Generated by graphviz version 2.38.0 (20140413.2041)
 -->
<!-- Title: %3 Pages: 1 -->
<svg width="284pt" height="780pt"
 viewBox="0.00 0.00 283.55 780.39" xmlns="http://www.w3.org/2000/svg" xmlns:xlink="http://www.w3.org/1999/xlink">
<g id="graph0" class="graph" transform="scale(1 1) rotate(0) translate(4 776.385)">
<title>%3</title>
<polygon fill="white" stroke="none" points="-4,4 -4,-776.385 279.547,-776.385 279.547,4 -4,4"/>
<!-- fake0 -->
<g id="node1" class="node"><title>fake0</title>
</g>
<!-- T0 -->
<g id="node5" class="node"><title>T0</title>
<ellipse fill="none" stroke="black" cx="30.5473" cy="-681.385" rx="27" ry="18"/>
<text text-anchor="middle" x="30.5473" y="-677.685" font-family="Times New Roman,serif" font-size="14.00">T0</text>
</g>
<!-- fake0&#45;&gt;T0 -->
<g id="edge1" class="edge"><title>fake0&#45;&gt;T0</title>
<path fill="none" stroke="black" stroke-width="2" d="M30.5473,-736.198C30.5473,-728.175 30.5473,-718.433 30.5473,-709.454"/>
<polygon fill="black" stroke="black" stroke-width="2" points="34.0474,-709.414 30.5473,-699.414 27.0474,-709.414 34.0474,-709.414"/>
</g>
<!-- T2 -->
<g id="node2" class="node"><title>T2</title>
<ellipse fill="none" stroke="black" cx="177.547" cy="-507.385" rx="27" ry="18"/>
<text text-anchor="middle" x="177.547" y="-503.685" font-family="Times New Roman,serif" font-size="14.00">T2</text>
</g>
<!-- T4 -->
<g id="node3" class="node"><title>T4</title>
<ellipse fill="none" stroke="black" cx="107.547" cy="-413.587" rx="20.6302" ry="20.6302"/>
<ellipse fill="none" stroke="black" cx="107.547" cy="-413.587" rx="24.5979" ry="24.5979"/>
<text text-anchor="middle" x="107.547" y="-409.887" font-family="Times New Roman,serif" font-size="14.00">T4</text>
</g>
<!-- T2&#45;&gt;T4 -->
<g id="edge6" class="edge"><title>T2&#45;&gt;T4</title>
<path fill="none" stroke="black" d="M165.673,-490.813C155.442,-477.396 140.44,-457.723 128.24,-441.723"/>
<polygon fill="black" stroke="black" points="131.002,-439.573 122.155,-433.744 125.436,-443.818 131.002,-439.573"/>
<text text-anchor="middle" x="153.047" y="-460.185" font-family="Times New Roman,serif" font-size="14.00">a</text>
</g>
<!-- T5 -->
<g id="node9" class="node"><title>T5</title>
<ellipse fill="none" stroke="black" cx="157.547" cy="-312.991" rx="20.6302" ry="20.6302"/>
<ellipse fill="none" stroke="black" cx="157.547" cy="-312.991" rx="24.5979" ry="24.5979"/>
<text text-anchor="middle" x="157.547" y="-309.291" font-family="Times New Roman,serif" font-size="14.00">T5</text>
</g>
<!-- T2&#45;&gt;T5 -->
<g id="edge7" class="edge"><title>T2&#45;&gt;T5</title>
<path fill="none" stroke="black" d="M176.086,-489.233C174.102,-466.321 170.362,-424.47 166.547,-388.789 165.124,-375.479 163.401,-360.856 161.844,-348.098"/>
<polygon fill="black" stroke="black" points="165.283,-347.386 160.586,-337.889 158.336,-348.242 165.283,-347.386"/>
<text text-anchor="middle" x="174.547" y="-409.887" font-family="Times New Roman,serif" font-size="14.00">b</text>
</g>
<!-- T4&#45;&gt;T4 -->
<g id="edge10" class="edge"><title>T4&#45;&gt;T4</title>
<path fill="none" stroke="black" d="M130.879,-422.816C141.318,-423.695 150.345,-420.618 150.345,-413.587 150.345,-409.083 146.64,-406.201 141.233,-404.943"/>
<polygon fill="black" stroke="black" points="141.061,-401.428 130.879,-404.359 140.666,-408.417 141.061,-401.428"/>
<text text-anchor="middle" x="153.845" y="-409.887" font-family="Times New Roman,serif" font-size="14.00">a</text>
</g>
<!-- T4&#45;&gt;T5 -->
<g id="edge11" class="edge"><title>T4&#45;&gt;T5</title>
<path fill="none" stroke="black" d="M118.397,-391.193C125.342,-377.498 134.46,-359.518 142.149,-344.356"/>
<polygon fill="black" stroke="black" points="145.318,-345.845 146.719,-335.343 139.075,-342.679 145.318,-345.845"/>
<text text-anchor="middle" x="139.547" y="-359.589" font-family="Times New Roman,serif" font-size="14.00">b</text>
</g>
<!-- T7 -->
<g id="node4" class="node"><title>T7</title>
<ellipse fill="none" stroke="black" cx="84.5473" cy="-24.7982" rx="20.6302" ry="20.6302"/>
<ellipse fill="none" stroke="black" cx="84.5473" cy="-24.7982" rx="24.5979" ry="24.5979"/>
<text text-anchor="middle" x="84.5473" y="-21.0982" font-family="Times New Roman,serif" font-size="14.00">T7</text>
</g>
<!-- T7&#45;&gt;T0 -->
<g id="edge17" class="edge"><title>T7&#45;&gt;T0</title>
<path fill="none" stroke="black" d="M63.78,-38.5604C41.2778,-54.1649 8.54729,-82.8367 8.54729,-117.596 8.54729,-595.385 8.54729,-595.385 8.54729,-595.385 8.54729,-615.582 14.4408,-637.643 20.1271,-654.227"/>
<polygon fill="black" stroke="black" points="16.8906,-655.569 23.5864,-663.78 23.4724,-653.186 16.8906,-655.569"/>
<text text-anchor="middle" x="12.5473" y="-359.589" font-family="Times New Roman,serif" font-size="14.00">b</text>
</g>
<!-- T1 -->
<g id="node8" class="node"><title>T1</title>
<ellipse fill="none" stroke="black" cx="128.547" cy="-594.385" rx="27" ry="18"/>
<text text-anchor="middle" x="128.547" y="-590.685" font-family="Times New Roman,serif" font-size="14.00">T1</text>
</g>
<!-- T7&#45;&gt;T1 -->
<g id="edge16" class="edge"><title>T7&#45;&gt;T1</title>
<path fill="none" stroke="black" d="M73.3764,-47.0447C64.847,-65.2526 54.5473,-92.4463 54.5473,-117.596 54.5473,-508.385 54.5473,-508.385 54.5473,-508.385 54.5473,-537.447 79.4594,-561.4 100.375,-576.389"/>
<polygon fill="black" stroke="black" points="98.4798,-579.333 108.717,-582.064 102.417,-573.545 98.4798,-579.333"/>
<text text-anchor="middle" x="58.0473" y="-309.291" font-family="Times New Roman,serif" font-size="14.00">a</text>
</g>
<!-- T0&#45;&gt;T0 -->
<g id="edge3" class="edge"><title>T0&#45;&gt;T0</title>
<path fill="none" stroke="black" d="M55.9908,-688.076C66.5751,-688.537 75.5473,-686.307 75.5473,-681.385 75.5473,-678.155 71.6833,-676.084 66.0354,-675.173"/>
<polygon fill="black" stroke="black" points="66.146,-671.674 55.9908,-674.695 65.8129,-678.666 66.146,-671.674"/>
<text text-anchor="middle" x="79.5473" y="-677.685" font-family="Times New Roman,serif" font-size="14.00">b</text>
</g>
<!-- T0&#45;&gt;T1 -->
<g id="edge2" class="edge"><title>T0&#45;&gt;T1</title>
<path fill="none" stroke="black" d="M46.2927,-666.729C62.0579,-653.055 86.5188,-631.839 104.672,-616.093"/>
<polygon fill="black" stroke="black" points="107.254,-618.487 112.515,-609.29 102.668,-613.199 107.254,-618.487"/>
<text text-anchor="middle" x="92.0473" y="-634.185" font-family="Times New Roman,serif" font-size="14.00">a</text>
</g>
<!-- T6 -->
<g id="node6" class="node"><title>T6</title>
<ellipse fill="none" stroke="black" cx="194.547" cy="-212.394" rx="20.6302" ry="20.6302"/>
<ellipse fill="none" stroke="black" cx="194.547" cy="-212.394" rx="24.5979" ry="24.5979"/>
<text text-anchor="middle" x="194.547" y="-208.694" font-family="Times New Roman,serif" font-size="14.00">T6</text>
</g>
<!-- T6&#45;&gt;T2 -->
<g id="edge14" class="edge"><title>T6&#45;&gt;T2</title>
<path fill="none" stroke="black" d="M195.913,-237.408C198.074,-283.226 200.788,-386.155 187.547,-471.385 187.125,-474.102 186.558,-476.905 185.907,-479.689"/>
<polygon fill="black" stroke="black" points="182.49,-478.92 183.292,-489.485 189.253,-480.726 182.49,-478.92"/>
<text text-anchor="middle" x="200.047" y="-359.589" font-family="Times New Roman,serif" font-size="14.00">a</text>
</g>
<!-- T3 -->
<g id="node7" class="node"><title>T3</title>
<ellipse fill="none" stroke="black" cx="193.547" cy="-118.596" rx="27" ry="18"/>
<text text-anchor="middle" x="193.547" y="-114.896" font-family="Times New Roman,serif" font-size="14.00">T3</text>
</g>
<!-- T6&#45;&gt;T3 -->
<g id="edge15" class="edge"><title>T6&#45;&gt;T3</title>
<path fill="none" stroke="black" d="M185.32,-189.127C182.064,-178.698 179.635,-166.071 181.547,-154.596 182.032,-151.686 182.73,-148.693 183.548,-145.74"/>
<polygon fill="black" stroke="black" points="186.938,-146.631 186.659,-136.04 180.272,-144.493 186.938,-146.631"/>
<text text-anchor="middle" x="185.547" y="-158.396" font-family="Times New Roman,serif" font-size="14.00">b</text>
</g>
<!-- T3&#45;&gt;T7 -->
<g id="edge9" class="edge"><title>T3&#45;&gt;T7</title>
<path fill="none" stroke="black" d="M177.464,-104.051C160.003,-89.3455 131.837,-65.6246 111.087,-48.1493"/>
<polygon fill="black" stroke="black" points="113.161,-45.3206 103.258,-41.556 108.652,-50.6748 113.161,-45.3206"/>
<text text-anchor="middle" x="153.547" y="-71.3963" font-family="Times New Roman,serif" font-size="14.00">b</text>
</g>
<!-- T3&#45;&gt;T6 -->
<g id="edge8" class="edge"><title>T3&#45;&gt;T6</title>
<path fill="none" stroke="black" d="M193.733,-136.601C193.856,-147.95 194.023,-163.27 194.174,-177.09"/>
<polygon fill="black" stroke="black" points="190.676,-177.314 194.285,-187.276 197.675,-177.238 190.676,-177.314"/>
<text text-anchor="middle" x="197.047" y="-158.396" font-family="Times New Roman,serif" font-size="14.00">a</text>
</g>
<!-- T1&#45;&gt;T2 -->
<g id="edge4" class="edge"><title>T1&#45;&gt;T2</title>
<path fill="none" stroke="black" d="M137.764,-577.397C144.905,-565.01 154.929,-547.62 163.129,-533.396"/>
<polygon fill="black" stroke="black" points="166.243,-535.002 168.205,-524.59 160.179,-531.506 166.243,-535.002"/>
<text text-anchor="middle" x="161.047" y="-547.185" font-family="Times New Roman,serif" font-size="14.00">a</text>
</g>
<!-- T1&#45;&gt;T3 -->
<g id="edge5" class="edge"><title>T1&#45;&gt;T3</title>
<path fill="none" stroke="black" d="M154.692,-589.473C194.957,-581.802 267.547,-560.715 267.547,-508.385 267.547,-508.385 267.547,-508.385 267.547,-211.394 267.547,-180.492 241.815,-154.114 220.698,-137.67"/>
<polygon fill="black" stroke="black" points="222.719,-134.811 212.604,-131.659 218.546,-140.431 222.719,-134.811"/>
<text text-anchor="middle" x="271.547" y="-359.589" font-family="Times New Roman,serif" font-size="14.00">b</text>
</g>
<!-- T5&#45;&gt;T7 -->
<g id="edge13" class="edge"><title>T5&#45;&gt;T7</title>
<path fill="none" stroke="black" d="M151.573,-288.57C138.628,-237.818 107.953,-117.557 93.0146,-58.9937"/>
<polygon fill="black" stroke="black" points="96.3644,-57.9654 90.5013,-49.1407 89.5816,-59.6956 96.3644,-57.9654"/>
<text text-anchor="middle" x="125.547" y="-158.396" font-family="Times New Roman,serif" font-size="14.00">b</text>
</g>
<!-- T5&#45;&gt;T6 -->
<g id="edge12" class="edge"><title>T5&#45;&gt;T6</title>
<path fill="none" stroke="black" d="M165.943,-289.618C170.828,-276.6 177.07,-259.968 182.475,-245.564"/>
<polygon fill="black" stroke="black" points="185.82,-246.612 186.057,-236.02 179.266,-244.153 185.82,-246.612"/>
<text text-anchor="middle" x="181.047" y="-258.993" font-family="Times New Roman,serif" font-size="14.00">a</text>
</g>
</g>
</svg>
