<?xml version="1.0" encoding="UTF-8" standalone="no"?>
<!DOCTYPE svg PUBLIC "-//W3C//DTD SVG 1.1//EN"
 "http://www.w3.org/Graphics/SVG/1.1/DTD/svg11.dtd">
<!-- Generated by graphviz version 2.38.0 (20140413.2041)
 -->
<!-- Title: %3 Pages: 1 -->
<svg width="298pt" height="867pt"
 viewBox="0.00 0.00 298.00 867.39" xmlns="http://www.w3.org/2000/svg" xmlns:xlink="http://www.w3.org/1999/xlink">
<g id="graph0" class="graph" transform="scale(1 1) rotate(0) translate(4 863.385)">
<title>%3</title>
<polygon fill="white" stroke="none" points="-4,4 -4,-863.385 294,-863.385 294,4 -4,4"/>
<!-- fake0 -->
<g id="node1" class="node"><title>fake0</title>
</g>
<!-- T0 -->
<g id="node6" class="node"><title>T0</title>
<ellipse fill="none" stroke="black" cx="93" cy="-768.385" rx="27" ry="18"/>
<text text-anchor="middle" x="93" y="-764.685" font-family="Times New Roman,serif" font-size="14.00">T0</text>
</g>
<!-- fake0&#45;&gt;T0 -->
<g id="edge1" class="edge"><title>fake0&#45;&gt;T0</title>
<path fill="none" stroke="black" stroke-width="2" d="M93,-823.198C93,-815.175 93,-805.433 93,-796.454"/>
<polygon fill="black" stroke="black" stroke-width="2" points="96.5001,-796.414 93,-786.414 89.5001,-796.414 96.5001,-796.414"/>
</g>
<!-- T3 -->
<g id="node2" class="node"><title>T3</title>
<ellipse fill="none" stroke="black" cx="156" cy="-507.385" rx="27" ry="18"/>
<text text-anchor="middle" x="156" y="-503.685" font-family="Times New Roman,serif" font-size="14.00">T3</text>
</g>
<!-- T6 -->
<g id="node5" class="node"><title>T6</title>
<ellipse fill="none" stroke="black" cx="134" cy="-312.991" rx="20.6302" ry="20.6302"/>
<ellipse fill="none" stroke="black" cx="134" cy="-312.991" rx="24.5979" ry="24.5979"/>
<text text-anchor="middle" x="134" y="-309.291" font-family="Times New Roman,serif" font-size="14.00">T6</text>
</g>
<!-- T3&#45;&gt;T6 -->
<g id="edge9" class="edge"><title>T3&#45;&gt;T6</title>
<path fill="none" stroke="black" d="M146.125,-490.621C138.386,-477.281 128.241,-457.358 124,-438.385 117.187,-407.908 121.217,-372.315 126.039,-347.029"/>
<polygon fill="black" stroke="black" points="129.473,-347.704 128.05,-337.205 122.615,-346.299 129.473,-347.704"/>
<text text-anchor="middle" x="128" y="-409.887" font-family="Times New Roman,serif" font-size="14.00">b</text>
</g>
<!-- T5 -->
<g id="node9" class="node"><title>T5</title>
<ellipse fill="none" stroke="black" cx="166" cy="-413.587" rx="20.6302" ry="20.6302"/>
<ellipse fill="none" stroke="black" cx="166" cy="-413.587" rx="24.5979" ry="24.5979"/>
<text text-anchor="middle" x="166" y="-409.887" font-family="Times New Roman,serif" font-size="14.00">T5</text>
</g>
<!-- T3&#45;&gt;T5 -->
<g id="edge8" class="edge"><title>T3&#45;&gt;T5</title>
<path fill="none" stroke="black" d="M157.881,-489.119C159.125,-477.696 160.799,-462.334 162.303,-448.524"/>
<polygon fill="black" stroke="black" points="165.807,-448.678 163.411,-438.358 158.848,-447.92 165.807,-448.678"/>
<text text-anchor="middle" x="165.5" y="-460.185" font-family="Times New Roman,serif" font-size="14.00">a</text>
</g>
<!-- T8 -->
<g id="node3" class="node"><title>T8</title>
<ellipse fill="none" stroke="black" cx="92" cy="-24.7982" rx="20.6302" ry="20.6302"/>
<ellipse fill="none" stroke="black" cx="92" cy="-24.7982" rx="24.5979" ry="24.5979"/>
<text text-anchor="middle" x="92" y="-21.0982" font-family="Times New Roman,serif" font-size="14.00">T8</text>
</g>
<!-- T2 -->
<g id="node4" class="node"><title>T2</title>
<ellipse fill="none" stroke="black" cx="27" cy="-681.385" rx="27" ry="18"/>
<text text-anchor="middle" x="27" y="-677.685" font-family="Times New Roman,serif" font-size="14.00">T2</text>
</g>
<!-- T8&#45;&gt;T2 -->
<g id="edge19" class="edge"><title>T8&#45;&gt;T2</title>
<path fill="none" stroke="black" d="M72.0423,-39.8798C51.664,-56.0741 23,-84.6998 23,-117.596 23,-595.385 23,-595.385 23,-595.385 23,-614.654 24.0383,-636.353 25.0569,-653.003"/>
<polygon fill="black" stroke="black" points="21.5743,-653.387 25.7124,-663.14 28.5597,-652.935 21.5743,-653.387"/>
<text text-anchor="middle" x="27" y="-359.589" font-family="Times New Roman,serif" font-size="14.00">b</text>
</g>
<!-- T1 -->
<g id="node7" class="node"><title>T1</title>
<ellipse fill="none" stroke="black" cx="116" cy="-594.385" rx="27" ry="18"/>
<text text-anchor="middle" x="116" y="-590.685" font-family="Times New Roman,serif" font-size="14.00">T1</text>
</g>
<!-- T8&#45;&gt;T1 -->
<g id="edge18" class="edge"><title>T8&#45;&gt;T1</title>
<path fill="none" stroke="black" d="M83.1734,-48.044C76.6873,-66.398 69,-93.2802 69,-117.596 69,-508.385 69,-508.385 69,-508.385 69,-531.791 82.8174,-554.805 95.4684,-570.97"/>
<polygon fill="black" stroke="black" points="92.8351,-573.278 101.898,-578.765 98.235,-568.823 92.8351,-573.278"/>
<text text-anchor="middle" x="72.5" y="-309.291" font-family="Times New Roman,serif" font-size="14.00">a</text>
</g>
<!-- T2&#45;&gt;T2 -->
<g id="edge7" class="edge"><title>T2&#45;&gt;T2</title>
<path fill="none" stroke="black" d="M51.5325,-689.137C62.5078,-689.875 72,-687.291 72,-681.385 72,-677.417 67.7151,-674.948 61.5743,-673.98"/>
<polygon fill="black" stroke="black" points="61.6472,-670.48 51.5325,-673.633 61.4059,-677.476 61.6472,-670.48"/>
<text text-anchor="middle" x="76" y="-677.685" font-family="Times New Roman,serif" font-size="14.00">b</text>
</g>
<!-- T2&#45;&gt;T1 -->
<g id="edge6" class="edge"><title>T2&#45;&gt;T1</title>
<path fill="none" stroke="black" d="M42.0976,-665.966C56.2474,-652.452 77.576,-632.082 93.6888,-616.694"/>
<polygon fill="black" stroke="black" points="96.3109,-619.029 101.125,-609.591 91.4762,-613.967 96.3109,-619.029"/>
<text text-anchor="middle" x="83.5" y="-634.185" font-family="Times New Roman,serif" font-size="14.00">a</text>
</g>
<!-- T6&#45;&gt;T8 -->
<g id="edge15" class="edge"><title>T6&#45;&gt;T8</title>
<path fill="none" stroke="black" d="M130.491,-288.082C123.03,-237.241 105.569,-118.261 96.9677,-59.6488"/>
<polygon fill="black" stroke="black" points="100.384,-58.823 95.4691,-49.4372 93.4583,-59.8395 100.384,-58.823"/>
<text text-anchor="middle" x="117" y="-158.396" font-family="Times New Roman,serif" font-size="14.00">b</text>
</g>
<!-- T7 -->
<g id="node10" class="node"><title>T7</title>
<ellipse fill="none" stroke="black" cx="229" cy="-212.394" rx="20.6302" ry="20.6302"/>
<ellipse fill="none" stroke="black" cx="229" cy="-212.394" rx="24.5979" ry="24.5979"/>
<text text-anchor="middle" x="229" y="-208.694" font-family="Times New Roman,serif" font-size="14.00">T7</text>
</g>
<!-- T6&#45;&gt;T7 -->
<g id="edge14" class="edge"><title>T6&#45;&gt;T7</title>
<path fill="none" stroke="black" d="M150.984,-294.364C165.979,-278.801 188.011,-255.935 204.84,-238.469"/>
<polygon fill="black" stroke="black" points="207.745,-240.499 212.163,-230.869 202.704,-235.642 207.745,-240.499"/>
<text text-anchor="middle" x="191.5" y="-258.993" font-family="Times New Roman,serif" font-size="14.00">a</text>
</g>
<!-- T0&#45;&gt;T2 -->
<g id="edge3" class="edge"><title>T0&#45;&gt;T2</title>
<path fill="none" stroke="black" d="M81.2005,-752.189C71.2202,-739.335 56.7533,-720.704 45.2757,-705.922"/>
<polygon fill="black" stroke="black" points="47.8173,-703.489 38.9199,-697.737 42.2884,-707.782 47.8173,-703.489"/>
<text text-anchor="middle" x="68" y="-721.185" font-family="Times New Roman,serif" font-size="14.00">b</text>
</g>
<!-- T0&#45;&gt;T1 -->
<g id="edge2" class="edge"><title>T0&#45;&gt;T1</title>
<path fill="none" stroke="black" d="M95.2894,-750.264C99.2847,-720.386 107.56,-658.498 112.353,-622.659"/>
<polygon fill="black" stroke="black" points="115.863,-622.813 113.72,-612.437 108.925,-621.885 115.863,-622.813"/>
<text text-anchor="middle" x="110.5" y="-677.685" font-family="Times New Roman,serif" font-size="14.00">a</text>
</g>
<!-- T1&#45;&gt;T3 -->
<g id="edge4" class="edge"><title>T1&#45;&gt;T3</title>
<path fill="none" stroke="black" d="M123.712,-576.996C129.467,-564.767 137.439,-547.828 144.021,-533.841"/>
<polygon fill="black" stroke="black" points="147.22,-535.262 148.311,-524.724 140.886,-532.282 147.22,-535.262"/>
<text text-anchor="middle" x="143.5" y="-547.185" font-family="Times New Roman,serif" font-size="14.00">a</text>
</g>
<!-- T4 -->
<g id="node8" class="node"><title>T4</title>
<ellipse fill="none" stroke="black" cx="230" cy="-118.596" rx="27" ry="18"/>
<text text-anchor="middle" x="230" y="-114.896" font-family="Times New Roman,serif" font-size="14.00">T4</text>
</g>
<!-- T1&#45;&gt;T4 -->
<g id="edge5" class="edge"><title>T1&#45;&gt;T4</title>
<path fill="none" stroke="black" d="M143.04,-591.653C190.078,-587.016 282,-570.065 282,-508.385 282,-508.385 282,-508.385 282,-211.394 282,-185.107 265.657,-159.443 251.296,-141.965"/>
<polygon fill="black" stroke="black" points="253.669,-139.358 244.485,-134.076 248.37,-143.933 253.669,-139.358"/>
<text text-anchor="middle" x="286" y="-359.589" font-family="Times New Roman,serif" font-size="14.00">b</text>
</g>
<!-- T4&#45;&gt;T8 -->
<g id="edge11" class="edge"><title>T4&#45;&gt;T8</title>
<path fill="none" stroke="black" d="M211.389,-105.216C188.154,-89.7599 148.157,-63.1541 120.918,-45.0345"/>
<polygon fill="black" stroke="black" points="122.824,-42.0991 112.56,-39.4746 118.947,-47.9274 122.824,-42.0991"/>
<text text-anchor="middle" x="178" y="-71.3963" font-family="Times New Roman,serif" font-size="14.00">b</text>
</g>
<!-- T4&#45;&gt;T7 -->
<g id="edge10" class="edge"><title>T4&#45;&gt;T7</title>
<path fill="none" stroke="black" d="M229.815,-136.601C229.691,-147.95 229.524,-163.27 229.374,-177.09"/>
<polygon fill="black" stroke="black" points="225.872,-177.238 229.263,-187.276 232.872,-177.314 225.872,-177.238"/>
<text text-anchor="middle" x="233.5" y="-158.396" font-family="Times New Roman,serif" font-size="14.00">a</text>
</g>
<!-- T5&#45;&gt;T6 -->
<g id="edge13" class="edge"><title>T5&#45;&gt;T6</title>
<path fill="none" stroke="black" d="M158.578,-389.719C154.418,-376.902 149.16,-360.7 144.575,-346.575"/>
<polygon fill="black" stroke="black" points="147.798,-345.166 141.382,-336.735 141.14,-347.327 147.798,-345.166"/>
<text text-anchor="middle" x="156" y="-359.589" font-family="Times New Roman,serif" font-size="14.00">b</text>
</g>
<!-- T5&#45;&gt;T5 -->
<g id="edge12" class="edge"><title>T5&#45;&gt;T5</title>
<path fill="none" stroke="black" d="M189.332,-422.816C199.77,-423.695 208.798,-420.618 208.798,-413.587 208.798,-409.083 205.093,-406.201 199.686,-404.943"/>
<polygon fill="black" stroke="black" points="199.514,-401.428 189.332,-404.359 199.119,-408.417 199.514,-401.428"/>
<text text-anchor="middle" x="212.298" y="-409.887" font-family="Times New Roman,serif" font-size="14.00">a</text>
</g>
<!-- T7&#45;&gt;T3 -->
<g id="edge16" class="edge"><title>T7&#45;&gt;T3</title>
<path fill="none" stroke="black" d="M234.175,-236.945C242.292,-279.277 254.263,-370.17 225,-438.385 216.328,-458.6 198.509,-475.907 183.152,-488.002"/>
<polygon fill="black" stroke="black" points="180.836,-485.364 174.947,-494.171 185.043,-490.959 180.836,-485.364"/>
<text text-anchor="middle" x="245.5" y="-359.589" font-family="Times New Roman,serif" font-size="14.00">a</text>
</g>
<!-- T7&#45;&gt;T4 -->
<g id="edge17" class="edge"><title>T7&#45;&gt;T4</title>
<path fill="none" stroke="black" d="M220.864,-188.78C218.093,-178.389 216.118,-165.891 218,-154.596 218.485,-151.686 219.183,-148.693 220,-145.74"/>
<polygon fill="black" stroke="black" points="223.39,-146.631 223.112,-136.04 216.725,-144.493 223.39,-146.631"/>
<text text-anchor="middle" x="222" y="-158.396" font-family="Times New Roman,serif" font-size="14.00">b</text>
</g>
</g>
</svg>
