<?xml version="1.0" encoding="UTF-8" standalone="no"?>
<!DOCTYPE svg PUBLIC "-//W3C//DTD SVG 1.1//EN"
 "http://www.w3.org/Graphics/SVG/1.1/DTD/svg11.dtd">
<!-- Generated by graphviz version 2.38.0 (20140413.2041)
 -->
<!-- Title: %3 Pages: 1 -->
<svg width="271pt" height="867pt"
 viewBox="0.00 0.00 271.00 867.39" xmlns="http://www.w3.org/2000/svg" xmlns:xlink="http://www.w3.org/1999/xlink">
<g id="graph0" class="graph" transform="scale(1 1) rotate(0) translate(4 863.385)">
<title>%3</title>
<polygon fill="white" stroke="none" points="-4,4 -4,-863.385 267,-863.385 267,4 -4,4"/>
<!-- fake0 -->
<g id="node1" class="node"><title>fake0</title>
</g>
<!-- T0 -->
<g id="node6" class="node"><title>T0</title>
<ellipse fill="none" stroke="black" cx="93" cy="-768.385" rx="27" ry="18"/>
<text text-anchor="middle" x="93" y="-764.685" font-family="Times New Roman,serif" font-size="14.00">T0</text>
</g>
<!-- fake0&#45;&gt;T0 -->
<g id="edge1" class="edge"><title>fake0&#45;&gt;T0</title>
<path fill="none" stroke="black" stroke-width="2" d="M93,-823.198C93,-815.175 93,-805.433 93,-796.454"/>
<polygon fill="black" stroke="black" stroke-width="2" points="96.5001,-796.414 93,-786.414 89.5001,-796.414 96.5001,-796.414"/>
</g>
<!-- T2 -->
<g id="node2" class="node"><title>T2</title>
<ellipse fill="none" stroke="black" cx="27" cy="-681.385" rx="27" ry="18"/>
<text text-anchor="middle" x="27" y="-677.685" font-family="Times New Roman,serif" font-size="14.00">T2</text>
</g>
<!-- T2&#45;&gt;T2 -->
<g id="edge7" class="edge"><title>T2&#45;&gt;T2</title>
<path fill="none" stroke="black" d="M51.5325,-689.137C62.5078,-689.875 72,-687.291 72,-681.385 72,-677.417 67.7151,-674.948 61.5743,-673.98"/>
<polygon fill="black" stroke="black" points="61.6472,-670.48 51.5325,-673.633 61.4059,-677.476 61.6472,-670.48"/>
<text text-anchor="middle" x="76" y="-677.685" font-family="Times New Roman,serif" font-size="14.00">b</text>
</g>
<!-- T1 -->
<g id="node9" class="node"><title>T1</title>
<ellipse fill="none" stroke="black" cx="116" cy="-594.385" rx="27" ry="18"/>
<text text-anchor="middle" x="116" y="-590.685" font-family="Times New Roman,serif" font-size="14.00">T1</text>
</g>
<!-- T2&#45;&gt;T1 -->
<g id="edge6" class="edge"><title>T2&#45;&gt;T1</title>
<path fill="none" stroke="black" d="M42.0976,-665.966C56.2474,-652.452 77.576,-632.082 93.6888,-616.694"/>
<polygon fill="black" stroke="black" points="96.3109,-619.029 101.125,-609.591 91.4762,-613.967 96.3109,-619.029"/>
<text text-anchor="middle" x="83.5" y="-634.185" font-family="Times New Roman,serif" font-size="14.00">a</text>
</g>
<!-- T4 -->
<g id="node3" class="node"><title>T4</title>
<ellipse fill="none" stroke="black" cx="89" cy="-507.385" rx="27" ry="18"/>
<text text-anchor="middle" x="89" y="-503.685" font-family="Times New Roman,serif" font-size="14.00">T4</text>
</g>
<!-- T7 -->
<g id="node4" class="node"><title>T7</title>
<ellipse fill="none" stroke="black" cx="96" cy="-413.587" rx="20.6302" ry="20.6302"/>
<ellipse fill="none" stroke="black" cx="96" cy="-413.587" rx="24.5979" ry="24.5979"/>
<text text-anchor="middle" x="96" y="-409.887" font-family="Times New Roman,serif" font-size="14.00">T7</text>
</g>
<!-- T4&#45;&gt;T7 -->
<g id="edge10" class="edge"><title>T4&#45;&gt;T7</title>
<path fill="none" stroke="black" d="M85.4865,-489.37C84.471,-483.679 83.5018,-477.282 83,-471.385 82.4348,-464.743 81.9987,-462.976 83,-456.385 83.4644,-453.328 84.1096,-450.187 84.8663,-447.066"/>
<polygon fill="black" stroke="black" points="88.2774,-447.863 87.5789,-437.291 81.5323,-445.991 88.2774,-447.863"/>
<text text-anchor="middle" x="86.5" y="-460.185" font-family="Times New Roman,serif" font-size="14.00">a</text>
</g>
<!-- T8 -->
<g id="node5" class="node"><title>T8</title>
<ellipse fill="none" stroke="black" cx="68" cy="-24.7982" rx="20.6302" ry="20.6302"/>
<ellipse fill="none" stroke="black" cx="68" cy="-24.7982" rx="24.5979" ry="24.5979"/>
<text text-anchor="middle" x="68" y="-21.0982" font-family="Times New Roman,serif" font-size="14.00">T8</text>
</g>
<!-- T4&#45;&gt;T8 -->
<g id="edge11" class="edge"><title>T4&#45;&gt;T8</title>
<path fill="none" stroke="black" d="M75.9413,-491.297C62.3417,-473.992 43,-444.178 43,-414.587 43,-414.587 43,-414.587 43,-124.394 43,-101.642 49.3327,-76.8167 55.6236,-57.7686"/>
<polygon fill="black" stroke="black" points="59.0055,-58.6986 58.9744,-48.1038 52.3917,-56.4055 59.0055,-58.6986"/>
<text text-anchor="middle" x="47" y="-272.589" font-family="Times New Roman,serif" font-size="14.00">b</text>
</g>
<!-- T7&#45;&gt;T4 -->
<g id="edge17" class="edge"><title>T7&#45;&gt;T4</title>
<path fill="none" stroke="black" d="M94.1874,-438.358C93.2409,-450.77 92.0779,-466.021 91.0932,-478.935"/>
<polygon fill="black" stroke="black" points="87.5872,-478.882 90.3166,-489.119 94.5669,-479.414 87.5872,-478.882"/>
<text text-anchor="middle" x="97" y="-460.185" font-family="Times New Roman,serif" font-size="14.00">b</text>
</g>
<!-- T3 -->
<g id="node8" class="node"><title>T3</title>
<ellipse fill="none" stroke="black" cx="143" cy="-319.789" rx="27" ry="18"/>
<text text-anchor="middle" x="143" y="-316.089" font-family="Times New Roman,serif" font-size="14.00">T3</text>
</g>
<!-- T7&#45;&gt;T3 -->
<g id="edge16" class="edge"><title>T7&#45;&gt;T3</title>
<path fill="none" stroke="black" d="M106.901,-391.296C113.775,-377.869 122.692,-360.454 129.943,-346.291"/>
<polygon fill="black" stroke="black" points="133.21,-347.591 134.651,-337.095 126.979,-344.401 133.21,-347.591"/>
<text text-anchor="middle" x="129.5" y="-359.589" font-family="Times New Roman,serif" font-size="14.00">a</text>
</g>
<!-- T8&#45;&gt;T2 -->
<g id="edge19" class="edge"><title>T8&#45;&gt;T2</title>
<path fill="none" stroke="black" d="M49.4387,-41.9395C30.8552,-59.9861 5,-91.0805 5,-124.394 5,-595.385 5,-595.385 5,-595.385 5,-615.582 10.8935,-637.643 16.5798,-654.227"/>
<polygon fill="black" stroke="black" points="13.3433,-655.569 20.0391,-663.78 19.9251,-653.186 13.3433,-655.569"/>
<text text-anchor="middle" x="9" y="-359.589" font-family="Times New Roman,serif" font-size="14.00">b</text>
</g>
<!-- T8&#45;&gt;T1 -->
<g id="edge18" class="edge"><title>T8&#45;&gt;T1</title>
<path fill="none" stroke="black" d="M92.9649,-27.488C144.105,-32.4443 256,-51.6055 256,-124.394 256,-508.385 256,-508.385 256,-508.385 256,-556.88 193.865,-578.485 152.384,-587.505"/>
<polygon fill="black" stroke="black" points="151.442,-584.125 142.333,-589.536 152.828,-590.986 151.442,-584.125"/>
<text text-anchor="middle" x="259.5" y="-316.089" font-family="Times New Roman,serif" font-size="14.00">a</text>
</g>
<!-- T0&#45;&gt;T2 -->
<g id="edge3" class="edge"><title>T0&#45;&gt;T2</title>
<path fill="none" stroke="black" d="M81.2005,-752.189C71.2202,-739.335 56.7533,-720.704 45.2757,-705.922"/>
<polygon fill="black" stroke="black" points="47.8173,-703.489 38.9199,-697.737 42.2884,-707.782 47.8173,-703.489"/>
<text text-anchor="middle" x="68" y="-721.185" font-family="Times New Roman,serif" font-size="14.00">b</text>
</g>
<!-- T0&#45;&gt;T1 -->
<g id="edge2" class="edge"><title>T0&#45;&gt;T1</title>
<path fill="none" stroke="black" d="M95.2894,-750.264C99.2847,-720.386 107.56,-658.498 112.353,-622.659"/>
<polygon fill="black" stroke="black" points="115.863,-622.813 113.72,-612.437 108.925,-621.885 115.863,-622.813"/>
<text text-anchor="middle" x="110.5" y="-677.685" font-family="Times New Roman,serif" font-size="14.00">a</text>
</g>
<!-- T6 -->
<g id="node7" class="node"><title>T6</title>
<ellipse fill="none" stroke="black" cx="110" cy="-125.394" rx="20.6302" ry="20.6302"/>
<ellipse fill="none" stroke="black" cx="110" cy="-125.394" rx="24.5979" ry="24.5979"/>
<text text-anchor="middle" x="110" y="-121.694" font-family="Times New Roman,serif" font-size="14.00">T6</text>
</g>
<!-- T6&#45;&gt;T7 -->
<g id="edge14" class="edge"><title>T6&#45;&gt;T7</title>
<path fill="none" stroke="black" d="M106.157,-149.904C103.929,-164.601 101.312,-183.949 100,-201.193 95.2495,-263.651 95.0549,-336.772 95.4532,-378.588"/>
<polygon fill="black" stroke="black" points="91.9554,-378.809 95.5681,-388.768 98.9549,-378.729 91.9554,-378.809"/>
<text text-anchor="middle" x="100.5" y="-272.589" font-family="Times New Roman,serif" font-size="14.00">a</text>
</g>
<!-- T6&#45;&gt;T8 -->
<g id="edge15" class="edge"><title>T6&#45;&gt;T8</title>
<path fill="none" stroke="black" d="M100.47,-102.021C94.8848,-88.911 87.7389,-72.1358 81.5733,-57.662"/>
<polygon fill="black" stroke="black" points="84.6319,-55.911 77.4927,-48.0826 78.1918,-58.6544 84.6319,-55.911"/>
<text text-anchor="middle" x="96" y="-71.3963" font-family="Times New Roman,serif" font-size="14.00">b</text>
</g>
<!-- T3&#45;&gt;T6 -->
<g id="edge9" class="edge"><title>T3&#45;&gt;T6</title>
<path fill="none" stroke="black" d="M157.853,-304.465C169.946,-291.694 186.102,-271.813 193,-250.789 199.871,-229.844 201.961,-221.332 193,-201.193 182.127,-176.757 158.888,-156.945 139.759,-143.865"/>
<polygon fill="black" stroke="black" points="141.601,-140.887 131.318,-138.336 137.766,-146.743 141.601,-140.887"/>
<text text-anchor="middle" x="203" y="-222.291" font-family="Times New Roman,serif" font-size="14.00">b</text>
</g>
<!-- T5 -->
<g id="node10" class="node"><title>T5</title>
<ellipse fill="none" stroke="black" cx="134" cy="-225.991" rx="20.6302" ry="20.6302"/>
<ellipse fill="none" stroke="black" cx="134" cy="-225.991" rx="24.5979" ry="24.5979"/>
<text text-anchor="middle" x="134" y="-222.291" font-family="Times New Roman,serif" font-size="14.00">T5</text>
</g>
<!-- T3&#45;&gt;T5 -->
<g id="edge8" class="edge"><title>T3&#45;&gt;T5</title>
<path fill="none" stroke="black" d="M141.307,-301.522C140.187,-290.1 138.681,-274.737 137.327,-260.928"/>
<polygon fill="black" stroke="black" points="140.79,-260.372 136.331,-250.762 133.823,-261.055 140.79,-260.372"/>
<text text-anchor="middle" x="143.5" y="-272.589" font-family="Times New Roman,serif" font-size="14.00">a</text>
</g>
<!-- T1&#45;&gt;T4 -->
<g id="edge5" class="edge"><title>T1&#45;&gt;T4</title>
<path fill="none" stroke="black" d="M110.666,-576.592C106.894,-564.717 101.759,-548.554 97.4356,-534.942"/>
<polygon fill="black" stroke="black" points="100.686,-533.615 94.3232,-525.144 94.015,-535.734 100.686,-533.615"/>
<text text-anchor="middle" x="109" y="-547.185" font-family="Times New Roman,serif" font-size="14.00">b</text>
</g>
<!-- T1&#45;&gt;T3 -->
<g id="edge4" class="edge"><title>T1&#45;&gt;T3</title>
<path fill="none" stroke="black" d="M118.463,-576.363C120.401,-562.624 123.084,-542.786 125,-525.385 131.992,-461.887 138.013,-387.061 140.998,-347.862"/>
<polygon fill="black" stroke="black" points="144.496,-348.024 141.758,-337.789 137.516,-347.498 144.496,-348.024"/>
<text text-anchor="middle" x="135.5" y="-460.185" font-family="Times New Roman,serif" font-size="14.00">a</text>
</g>
<!-- T5&#45;&gt;T6 -->
<g id="edge13" class="edge"><title>T5&#45;&gt;T6</title>
<path fill="none" stroke="black" d="M128.312,-201.625C125.264,-189.1 121.455,-173.454 118.102,-159.679"/>
<polygon fill="black" stroke="black" points="121.413,-158.481 115.647,-149.593 114.611,-160.137 121.413,-158.481"/>
<text text-anchor="middle" x="128" y="-171.993" font-family="Times New Roman,serif" font-size="14.00">b</text>
</g>
<!-- T5&#45;&gt;T5 -->
<g id="edge12" class="edge"><title>T5&#45;&gt;T5</title>
<path fill="none" stroke="black" d="M157.332,-235.219C167.77,-236.098 176.798,-233.022 176.798,-225.991 176.798,-221.486 173.093,-218.605 167.686,-217.347"/>
<polygon fill="black" stroke="black" points="167.514,-213.832 157.332,-216.762 167.119,-220.821 167.514,-213.832"/>
<text text-anchor="middle" x="180.298" y="-222.291" font-family="Times New Roman,serif" font-size="14.00">a</text>
</g>
</g>
</svg>
