<?xml version="1.0" encoding="UTF-8" standalone="no"?>
<!DOCTYPE svg PUBLIC "-//W3C//DTD SVG 1.1//EN"
 "http://www.w3.org/Graphics/SVG/1.1/DTD/svg11.dtd">
<!-- Generated by graphviz version 2.38.0 (20140413.2041)
 -->
<!-- Title: %3 Pages: 1 -->
<svg width="270pt" height="780pt"
 viewBox="0.00 0.00 270.00 780.39" xmlns="http://www.w3.org/2000/svg" xmlns:xlink="http://www.w3.org/1999/xlink">
<g id="graph0" class="graph" transform="scale(1 1) rotate(0) translate(4 776.385)">
<title>%3</title>
<polygon fill="white" stroke="none" points="-4,4 -4,-776.385 266,-776.385 266,4 -4,4"/>
<!-- fake0 -->
<g id="node1" class="node"><title>fake0</title>
</g>
<!-- T0 -->
<g id="node5" class="node"><title>T0</title>
<ellipse fill="none" stroke="black" cx="209" cy="-681.385" rx="27" ry="18"/>
<text text-anchor="middle" x="209" y="-677.685" font-family="Times New Roman,serif" font-size="14.00">T0</text>
</g>
<!-- fake0&#45;&gt;T0 -->
<g id="edge1" class="edge"><title>fake0&#45;&gt;T0</title>
<path fill="none" stroke="black" stroke-width="2" d="M209,-736.198C209,-728.175 209,-718.433 209,-709.454"/>
<polygon fill="black" stroke="black" stroke-width="2" points="212.5,-709.414 209,-699.414 205.5,-709.414 212.5,-709.414"/>
</g>
<!-- T3 -->
<g id="node2" class="node"><title>T3</title>
<ellipse fill="none" stroke="black" cx="169" cy="-507.385" rx="27" ry="18"/>
<text text-anchor="middle" x="169" y="-503.685" font-family="Times New Roman,serif" font-size="14.00">T3</text>
</g>
<!-- T6 -->
<g id="node4" class="node"><title>T6</title>
<ellipse fill="none" stroke="black" cx="160" cy="-413.587" rx="20.6302" ry="20.6302"/>
<ellipse fill="none" stroke="black" cx="160" cy="-413.587" rx="24.5979" ry="24.5979"/>
<text text-anchor="middle" x="160" y="-409.887" font-family="Times New Roman,serif" font-size="14.00">T6</text>
</g>
<!-- T3&#45;&gt;T6 -->
<g id="edge8" class="edge"><title>T3&#45;&gt;T6</title>
<path fill="none" stroke="black" d="M161.541,-489.99C159.292,-484.232 157.124,-477.637 156,-471.385 154.666,-463.961 154.482,-455.915 154.882,-448.279"/>
<polygon fill="black" stroke="black" points="158.378,-448.477 155.736,-438.216 151.403,-447.885 158.378,-448.477"/>
<text text-anchor="middle" x="159.5" y="-460.185" font-family="Times New Roman,serif" font-size="14.00">a</text>
</g>
<!-- T7 -->
<g id="node9" class="node"><title>T7</title>
<ellipse fill="none" stroke="black" cx="198" cy="-24.7982" rx="20.6302" ry="20.6302"/>
<ellipse fill="none" stroke="black" cx="198" cy="-24.7982" rx="24.5979" ry="24.5979"/>
<text text-anchor="middle" x="198" y="-21.0982" font-family="Times New Roman,serif" font-size="14.00">T7</text>
</g>
<!-- T3&#45;&gt;T7 -->
<g id="edge9" class="edge"><title>T3&#45;&gt;T7</title>
<path fill="none" stroke="black" d="M181.491,-491.203C194.499,-473.814 213,-443.925 213,-414.587 213,-414.587 213,-414.587 213,-124.394 213,-102.481 209.334,-78.1363 205.626,-59.1204"/>
<polygon fill="black" stroke="black" points="209.02,-58.2481 203.585,-49.1535 202.163,-59.6524 209.02,-58.2481"/>
<text text-anchor="middle" x="217" y="-272.589" font-family="Times New Roman,serif" font-size="14.00">b</text>
</g>
<!-- T2 -->
<g id="node3" class="node"><title>T2</title>
<ellipse fill="none" stroke="black" cx="114" cy="-319.789" rx="27" ry="18"/>
<text text-anchor="middle" x="114" y="-316.089" font-family="Times New Roman,serif" font-size="14.00">T2</text>
</g>
<!-- T4 -->
<g id="node7" class="node"><title>T4</title>
<ellipse fill="none" stroke="black" cx="53" cy="-225.991" rx="20.6302" ry="20.6302"/>
<ellipse fill="none" stroke="black" cx="53" cy="-225.991" rx="24.5979" ry="24.5979"/>
<text text-anchor="middle" x="53" y="-222.291" font-family="Times New Roman,serif" font-size="14.00">T4</text>
</g>
<!-- T2&#45;&gt;T4 -->
<g id="edge6" class="edge"><title>T2&#45;&gt;T4</title>
<path fill="none" stroke="black" d="M103.375,-302.799C94.7572,-289.831 82.3907,-271.221 72.0674,-255.685"/>
<polygon fill="black" stroke="black" points="74.7186,-253.351 66.269,-246.959 68.8885,-257.225 74.7186,-253.351"/>
<text text-anchor="middle" x="92.5" y="-272.589" font-family="Times New Roman,serif" font-size="14.00">a</text>
</g>
<!-- T5 -->
<g id="node8" class="node"><title>T5</title>
<ellipse fill="none" stroke="black" cx="149" cy="-125.394" rx="20.6302" ry="20.6302"/>
<ellipse fill="none" stroke="black" cx="149" cy="-125.394" rx="24.5979" ry="24.5979"/>
<text text-anchor="middle" x="149" y="-121.694" font-family="Times New Roman,serif" font-size="14.00">T5</text>
</g>
<!-- T2&#45;&gt;T5 -->
<g id="edge7" class="edge"><title>T2&#45;&gt;T5</title>
<path fill="none" stroke="black" d="M117.106,-301.715C122.89,-269.923 135.403,-201.135 142.922,-159.804"/>
<polygon fill="black" stroke="black" points="146.373,-160.392 144.719,-149.927 139.486,-159.139 146.373,-160.392"/>
<text text-anchor="middle" x="139" y="-222.291" font-family="Times New Roman,serif" font-size="14.00">b</text>
</g>
<!-- T6&#45;&gt;T3 -->
<g id="edge15" class="edge"><title>T6&#45;&gt;T3</title>
<path fill="none" stroke="black" d="M162.331,-438.358C163.547,-450.77 165.043,-466.021 166.309,-478.935"/>
<polygon fill="black" stroke="black" points="162.848,-479.508 167.307,-489.119 169.815,-478.825 162.848,-479.508"/>
<text text-anchor="middle" x="170" y="-460.185" font-family="Times New Roman,serif" font-size="14.00">b</text>
</g>
<!-- T6&#45;&gt;T2 -->
<g id="edge14" class="edge"><title>T6&#45;&gt;T2</title>
<path fill="none" stroke="black" d="M149.099,-390.832C142.407,-377.478 133.805,-360.312 126.792,-346.316"/>
<polygon fill="black" stroke="black" points="129.842,-344.591 122.233,-337.219 123.584,-347.727 129.842,-344.591"/>
<text text-anchor="middle" x="142.5" y="-359.589" font-family="Times New Roman,serif" font-size="14.00">a</text>
</g>
<!-- T0&#45;&gt;T0 -->
<g id="edge3" class="edge"><title>T0&#45;&gt;T0</title>
<path fill="none" stroke="black" d="M234.443,-688.076C245.028,-688.537 254,-686.307 254,-681.385 254,-678.155 250.136,-676.084 244.488,-675.173"/>
<polygon fill="black" stroke="black" points="244.599,-671.674 234.443,-674.695 244.266,-678.666 244.599,-671.674"/>
<text text-anchor="middle" x="258" y="-677.685" font-family="Times New Roman,serif" font-size="14.00">b</text>
</g>
<!-- T1 -->
<g id="node6" class="node"><title>T1</title>
<ellipse fill="none" stroke="black" cx="131" cy="-594.385" rx="27" ry="18"/>
<text text-anchor="middle" x="131" y="-590.685" font-family="Times New Roman,serif" font-size="14.00">T1</text>
</g>
<!-- T0&#45;&gt;T1 -->
<g id="edge2" class="edge"><title>T0&#45;&gt;T1</title>
<path fill="none" stroke="black" d="M195.413,-665.579C183.222,-652.294 165.163,-632.614 151.266,-617.469"/>
<polygon fill="black" stroke="black" points="153.771,-615.023 144.431,-610.021 148.613,-619.756 153.771,-615.023"/>
<text text-anchor="middle" x="178.5" y="-634.185" font-family="Times New Roman,serif" font-size="14.00">a</text>
</g>
<!-- T1&#45;&gt;T3 -->
<g id="edge5" class="edge"><title>T1&#45;&gt;T3</title>
<path fill="none" stroke="black" d="M138.327,-576.996C143.741,-564.885 151.221,-548.153 157.439,-534.246"/>
<polygon fill="black" stroke="black" points="160.81,-535.281 161.696,-524.724 154.419,-532.425 160.81,-535.281"/>
<text text-anchor="middle" x="158" y="-547.185" font-family="Times New Roman,serif" font-size="14.00">b</text>
</g>
<!-- T1&#45;&gt;T2 -->
<g id="edge4" class="edge"><title>T1&#45;&gt;T2</title>
<path fill="none" stroke="black" d="M129.937,-576.333C127.074,-530.438 119.189,-403.998 115.7,-348.041"/>
<polygon fill="black" stroke="black" points="119.179,-347.597 115.063,-337.835 112.192,-348.033 119.179,-347.597"/>
<text text-anchor="middle" x="127.5" y="-460.185" font-family="Times New Roman,serif" font-size="14.00">a</text>
</g>
<!-- T4&#45;&gt;T4 -->
<g id="edge10" class="edge"><title>T4&#45;&gt;T4</title>
<path fill="none" stroke="black" d="M76.3321,-235.219C86.7704,-236.098 95.7982,-233.022 95.7982,-225.991 95.7982,-221.486 92.0932,-218.605 86.6858,-217.347"/>
<polygon fill="black" stroke="black" points="86.5136,-213.832 76.3321,-216.762 86.1188,-220.821 86.5136,-213.832"/>
<text text-anchor="middle" x="99.2982" y="-222.291" font-family="Times New Roman,serif" font-size="14.00">a</text>
</g>
<!-- T4&#45;&gt;T5 -->
<g id="edge11" class="edge"><title>T4&#45;&gt;T5</title>
<path fill="none" stroke="black" d="M70.1629,-207.364C85.316,-191.801 107.579,-168.935 124.586,-151.469"/>
<polygon fill="black" stroke="black" points="127.517,-153.475 131.986,-143.869 122.502,-148.592 127.517,-153.475"/>
<text text-anchor="middle" x="111" y="-171.993" font-family="Times New Roman,serif" font-size="14.00">b</text>
</g>
<!-- T5&#45;&gt;T6 -->
<g id="edge12" class="edge"><title>T5&#45;&gt;T6</title>
<path fill="none" stroke="black" d="M152.246,-150.229C152.935,-156.092 153.581,-162.361 154,-168.193 159.381,-243.009 160.192,-331.004 160.178,-378.323"/>
<polygon fill="black" stroke="black" points="156.678,-378.609 160.162,-388.615 163.678,-378.621 156.678,-378.609"/>
<text text-anchor="middle" x="163.5" y="-272.589" font-family="Times New Roman,serif" font-size="14.00">a</text>
</g>
<!-- T5&#45;&gt;T7 -->
<g id="edge13" class="edge"><title>T5&#45;&gt;T7</title>
<path fill="none" stroke="black" d="M159.875,-102.513C166.582,-89.0165 175.287,-71.5006 182.685,-56.6138"/>
<polygon fill="black" stroke="black" points="186.008,-57.7922 187.324,-47.2795 179.74,-54.6769 186.008,-57.7922"/>
<text text-anchor="middle" x="181" y="-71.3963" font-family="Times New Roman,serif" font-size="14.00">b</text>
</g>
<!-- T7&#45;&gt;T0 -->
<g id="edge17" class="edge"><title>T7&#45;&gt;T0</title>
<path fill="none" stroke="black" d="M214.479,-43.528C230.037,-62.1755 251,-93.1061 251,-124.394 251,-595.385 251,-595.385 251,-595.385 251,-617.884 239.026,-640.59 227.865,-656.867"/>
<polygon fill="black" stroke="black" points="224.857,-655.053 221.83,-665.206 230.528,-659.157 224.857,-655.053"/>
<text text-anchor="middle" x="255" y="-359.589" font-family="Times New Roman,serif" font-size="14.00">b</text>
</g>
<!-- T7&#45;&gt;T1 -->
<g id="edge16" class="edge"><title>T7&#45;&gt;T1</title>
<path fill="none" stroke="black" d="M172.923,-26.92C119.644,-30.7863 0,-47.9762 0,-124.394 0,-508.385 0,-508.385 0,-508.385 0,-553.929 56.4091,-576.302 95.1956,-586.302"/>
<polygon fill="black" stroke="black" points="94.5768,-589.754 105.119,-588.695 96.2175,-582.948 94.5768,-589.754"/>
<text text-anchor="middle" x="3.5" y="-316.089" font-family="Times New Roman,serif" font-size="14.00">a</text>
</g>
</g>
</svg>
