<?xml version="1.0" encoding="UTF-8" standalone="no"?>
<!DOCTYPE svg PUBLIC "-//W3C//DTD SVG 1.1//EN"
 "http://www.w3.org/Graphics/SVG/1.1/DTD/svg11.dtd">
<!-- Generated by graphviz version 2.38.0 (20140413.2041)
 -->
<!-- Title: %3 Pages: 1 -->
<svg width="178pt" height="674pt"
 viewBox="0.00 0.00 178.00 673.60" xmlns="http://www.w3.org/2000/svg" xmlns:xlink="http://www.w3.org/1999/xlink">
<g id="graph0" class="graph" transform="scale(1 1) rotate(0) translate(4 669.596)">
<title>%3</title>
<polygon fill="white" stroke="none" points="-4,4 -4,-669.596 174,-669.596 174,4 -4,4"/>
<!-- fake0 -->
<g id="node1" class="node"><title>fake0</title>
</g>
<!-- T0 -->
<g id="node6" class="node"><title>T0</title>
<ellipse fill="none" stroke="black" cx="99" cy="-574.596" rx="27" ry="18"/>
<text text-anchor="middle" x="99" y="-570.896" font-family="Times New Roman,serif" font-size="14.00">T0</text>
</g>
<!-- fake0&#45;&gt;T0 -->
<g id="edge1" class="edge"><title>fake0&#45;&gt;T0</title>
<path fill="none" stroke="black" stroke-width="2" d="M99,-629.409C99,-621.386 99,-611.644 99,-602.665"/>
<polygon fill="black" stroke="black" stroke-width="2" points="102.5,-602.625 99,-592.625 95.5001,-602.625 102.5,-602.625"/>
</g>
<!-- T5 -->
<g id="node2" class="node"><title>T5</title>
<ellipse fill="none" stroke="black" cx="27" cy="-400.596" rx="27" ry="18"/>
<text text-anchor="middle" x="27" y="-396.896" font-family="Times New Roman,serif" font-size="14.00">T5</text>
</g>
<!-- T6 -->
<g id="node10" class="node"><title>T6</title>
<ellipse fill="none" stroke="black" cx="29" cy="-259.596" rx="27" ry="18"/>
<text text-anchor="middle" x="29" y="-255.896" font-family="Times New Roman,serif" font-size="14.00">T6</text>
</g>
<!-- T5&#45;&gt;T6 -->
<g id="edge8" class="edge"><title>T5&#45;&gt;T6</title>
<path fill="none" stroke="black" d="M27.2452,-382.552C27.5841,-359.001 28.1994,-316.235 28.6039,-288.122"/>
<polygon fill="black" stroke="black" points="32.1084,-287.829 28.7528,-277.78 25.1092,-287.728 32.1084,-287.829"/>
<text text-anchor="middle" x="31.5" y="-353.396" font-family="Times New Roman,serif" font-size="14.00">a</text>
</g>
<!-- T1 -->
<g id="node3" class="node"><title>T1</title>
<ellipse fill="none" stroke="black" cx="99" cy="-487.596" rx="27" ry="18"/>
<text text-anchor="middle" x="99" y="-483.896" font-family="Times New Roman,serif" font-size="14.00">T1</text>
</g>
<!-- T1&#45;&gt;T5 -->
<g id="edge3" class="edge"><title>T1&#45;&gt;T5</title>
<path fill="none" stroke="black" d="M86.1278,-471.4C75.0702,-458.346 58.9641,-439.332 46.353,-424.444"/>
<polygon fill="black" stroke="black" points="48.8949,-422.029 39.7607,-416.661 43.5535,-426.554 48.8949,-422.029"/>
<text text-anchor="middle" x="76" y="-440.396" font-family="Times New Roman,serif" font-size="14.00">Ep</text>
</g>
<!-- T2 -->
<g id="node9" class="node"><title>T2</title>
<ellipse fill="none" stroke="black" cx="99" cy="-400.596" rx="27" ry="18"/>
<text text-anchor="middle" x="99" y="-396.896" font-family="Times New Roman,serif" font-size="14.00">T2</text>
</g>
<!-- T1&#45;&gt;T2 -->
<g id="edge4" class="edge"><title>T1&#45;&gt;T2</title>
<path fill="none" stroke="black" d="M99,-469.395C99,-457.759 99,-442.144 99,-428.833"/>
<polygon fill="black" stroke="black" points="102.5,-428.772 99,-418.772 95.5001,-428.772 102.5,-428.772"/>
<text text-anchor="middle" x="107" y="-440.396" font-family="Times New Roman,serif" font-size="14.00">Ep</text>
</g>
<!-- T4 -->
<g id="node4" class="node"><title>T4</title>
<ellipse fill="none" stroke="black" cx="91" cy="-205.596" rx="27" ry="18"/>
<text text-anchor="middle" x="91" y="-201.896" font-family="Times New Roman,serif" font-size="14.00">T4</text>
</g>
<!-- T7 -->
<g id="node7" class="node"><title>T7</title>
<ellipse fill="none" stroke="black" cx="91" cy="-118.596" rx="27" ry="18"/>
<text text-anchor="middle" x="91" y="-114.896" font-family="Times New Roman,serif" font-size="14.00">T7</text>
</g>
<!-- T4&#45;&gt;T7 -->
<g id="edge7" class="edge"><title>T4&#45;&gt;T7</title>
<path fill="none" stroke="black" d="M91,-187.395C91,-175.759 91,-160.144 91,-146.833"/>
<polygon fill="black" stroke="black" points="94.5001,-146.772 91,-136.772 87.5001,-146.772 94.5001,-146.772"/>
<text text-anchor="middle" x="99" y="-158.396" font-family="Times New Roman,serif" font-size="14.00">Ep</text>
</g>
<!-- T3 -->
<g id="node5" class="node"><title>T3</title>
<ellipse fill="none" stroke="black" cx="91" cy="-313.596" rx="27" ry="18"/>
<text text-anchor="middle" x="91" y="-309.896" font-family="Times New Roman,serif" font-size="14.00">T3</text>
</g>
<!-- T3&#45;&gt;T4 -->
<g id="edge6" class="edge"><title>T3&#45;&gt;T4</title>
<path fill="none" stroke="black" d="M91,-295.566C91,-278.974 91,-253.479 91,-234.027"/>
<polygon fill="black" stroke="black" points="94.5001,-233.937 91,-223.937 87.5001,-233.937 94.5001,-233.937"/>
<text text-anchor="middle" x="94.5" y="-255.896" font-family="Times New Roman,serif" font-size="14.00">a</text>
</g>
<!-- T0&#45;&gt;T1 -->
<g id="edge2" class="edge"><title>T0&#45;&gt;T1</title>
<path fill="none" stroke="black" d="M99,-556.395C99,-544.759 99,-529.144 99,-515.833"/>
<polygon fill="black" stroke="black" points="102.5,-515.772 99,-505.772 95.5001,-515.772 102.5,-515.772"/>
<text text-anchor="middle" x="107" y="-527.396" font-family="Times New Roman,serif" font-size="14.00">Ep</text>
</g>
<!-- T7&#45;&gt;T1 -->
<g id="edge11" class="edge"><title>T7&#45;&gt;T1</title>
<path fill="none" stroke="black" d="M108.885,-132.421C127.51,-147.417 154,-174.105 154,-204.596 154,-401.596 154,-401.596 154,-401.596 154,-426.52 137.126,-449.911 122.071,-465.821"/>
<polygon fill="black" stroke="black" points="119.491,-463.452 114.908,-473.005 124.448,-468.395 119.491,-463.452"/>
<text text-anchor="middle" x="162" y="-309.896" font-family="Times New Roman,serif" font-size="14.00">Ep</text>
</g>
<!-- T8 -->
<g id="node8" class="node"><title>T8</title>
<ellipse fill="none" stroke="black" cx="91" cy="-24.7982" rx="20.6302" ry="20.6302"/>
<ellipse fill="none" stroke="black" cx="91" cy="-24.7982" rx="24.5979" ry="24.5979"/>
<text text-anchor="middle" x="91" y="-21.0982" font-family="Times New Roman,serif" font-size="14.00">T8</text>
</g>
<!-- T7&#45;&gt;T8 -->
<g id="edge10" class="edge"><title>T7&#45;&gt;T8</title>
<path fill="none" stroke="black" d="M91,-100.33C91,-88.9897 91,-73.7672 91,-60.0359"/>
<polygon fill="black" stroke="black" points="94.5001,-59.9151 91,-49.9152 87.5001,-59.9152 94.5001,-59.9151"/>
<text text-anchor="middle" x="99" y="-71.3963" font-family="Times New Roman,serif" font-size="14.00">Ep</text>
</g>
<!-- T2&#45;&gt;T3 -->
<g id="edge5" class="edge"><title>T2&#45;&gt;T3</title>
<path fill="none" stroke="black" d="M97.3811,-382.395C96.2859,-370.759 94.8163,-355.144 93.5635,-341.833"/>
<polygon fill="black" stroke="black" points="97.0382,-341.4 92.6165,-331.772 90.069,-342.056 97.0382,-341.4"/>
<text text-anchor="middle" x="98.5" y="-353.396" font-family="Times New Roman,serif" font-size="14.00">a</text>
</g>
<!-- T6&#45;&gt;T7 -->
<g id="edge9" class="edge"><title>T6&#45;&gt;T7</title>
<path fill="none" stroke="black" d="M29.0043,-241.312C29.5678,-226.522 31.7429,-204.935 39,-187.596 46.1545,-170.502 58.6755,-153.929 69.6381,-141.423"/>
<polygon fill="black" stroke="black" points="72.4063,-143.581 76.545,-133.828 67.2276,-138.872 72.4063,-143.581"/>
<text text-anchor="middle" x="47" y="-201.896" font-family="Times New Roman,serif" font-size="14.00">Ep</text>
</g>
</g>
</svg>
