<?xml version="1.0" encoding="UTF-8" standalone="no"?>
<!DOCTYPE svg PUBLIC "-//W3C//DTD SVG 1.1//EN"
 "http://www.w3.org/Graphics/SVG/1.1/DTD/svg11.dtd">
<!-- Generated by graphviz version 2.38.0 (20140413.2041)
 -->
<!-- Title: %3 Pages: 1 -->
<svg width="212pt" height="740pt"
 viewBox="0.00 0.00 211.55 739.60" xmlns="http://www.w3.org/2000/svg" xmlns:xlink="http://www.w3.org/1999/xlink">
<g id="graph0" class="graph" transform="scale(1 1) rotate(0) translate(4 735.596)">
<title>%3</title>
<polygon fill="white" stroke="none" points="-4,4 -4,-735.596 207.547,-735.596 207.547,4 -4,4"/>
<!-- fake0 -->
<g id="node1" class="node"><title>fake0</title>
</g>
<!-- T0 -->
<g id="node5" class="node"><title>T0</title>
<ellipse fill="none" stroke="black" cx="30.5473" cy="-640.596" rx="27" ry="18"/>
<text text-anchor="middle" x="30.5473" y="-636.896" font-family="Times New Roman,serif" font-size="14.00">T0</text>
</g>
<!-- fake0&#45;&gt;T0 -->
<g id="edge1" class="edge"><title>fake0&#45;&gt;T0</title>
<path fill="none" stroke="black" stroke-width="2" d="M30.5473,-695.409C30.5473,-687.386 30.5473,-677.644 30.5473,-668.665"/>
<polygon fill="black" stroke="black" stroke-width="2" points="34.0474,-668.625 30.5473,-658.625 27.0474,-668.625 34.0474,-668.625"/>
</g>
<!-- T7 -->
<g id="node2" class="node"><title>T7</title>
<ellipse fill="none" stroke="black" cx="37.5473" cy="-118.596" rx="27" ry="18"/>
<text text-anchor="middle" x="37.5473" y="-114.896" font-family="Times New Roman,serif" font-size="14.00">T7</text>
</g>
<!-- T9 -->
<g id="node10" class="node"><title>T9</title>
<ellipse fill="none" stroke="black" cx="37.5473" cy="-24.7982" rx="20.6302" ry="20.6302"/>
<ellipse fill="none" stroke="black" cx="37.5473" cy="-24.7982" rx="24.5979" ry="24.5979"/>
<text text-anchor="middle" x="37.5473" y="-21.0982" font-family="Times New Roman,serif" font-size="14.00">T9</text>
</g>
<!-- T7&#45;&gt;T9 -->
<g id="edge11" class="edge"><title>T7&#45;&gt;T9</title>
<path fill="none" stroke="black" d="M37.5473,-100.33C37.5473,-88.9897 37.5473,-73.7672 37.5473,-60.0359"/>
<polygon fill="black" stroke="black" points="41.0474,-59.9151 37.5473,-49.9152 34.0474,-59.9152 41.0474,-59.9151"/>
<text text-anchor="middle" x="41.0473" y="-71.3963" font-family="Times New Roman,serif" font-size="14.00">0</text>
</g>
<!-- T3 -->
<g id="node3" class="node"><title>T3</title>
<ellipse fill="none" stroke="black" cx="135.547" cy="-292.596" rx="27" ry="18"/>
<text text-anchor="middle" x="135.547" y="-288.896" font-family="Times New Roman,serif" font-size="14.00">T3</text>
</g>
<!-- T6 -->
<g id="node8" class="node"><title>T6</title>
<ellipse fill="none" stroke="black" cx="91.5473" cy="-205.596" rx="27" ry="18"/>
<text text-anchor="middle" x="91.5473" y="-201.896" font-family="Times New Roman,serif" font-size="14.00">T6</text>
</g>
<!-- T3&#45;&gt;T6 -->
<g id="edge6" class="edge"><title>T3&#45;&gt;T6</title>
<path fill="none" stroke="black" d="M127.064,-275.207C120.733,-262.978 111.965,-246.039 104.725,-232.052"/>
<polygon fill="black" stroke="black" points="107.71,-230.207 100.005,-222.935 101.494,-233.425 107.71,-230.207"/>
<text text-anchor="middle" x="124.047" y="-245.396" font-family="Times New Roman,serif" font-size="14.00">EP</text>
</g>
<!-- T1 -->
<g id="node4" class="node"><title>T1</title>
<ellipse fill="none" stroke="black" cx="107.547" cy="-466.596" rx="27" ry="18"/>
<text text-anchor="middle" x="107.547" y="-462.896" font-family="Times New Roman,serif" font-size="14.00">T1</text>
</g>
<!-- T4 -->
<g id="node6" class="node"><title>T4</title>
<ellipse fill="none" stroke="black" cx="63.5473" cy="-379.596" rx="27" ry="18"/>
<text text-anchor="middle" x="63.5473" y="-375.896" font-family="Times New Roman,serif" font-size="14.00">T4</text>
</g>
<!-- T1&#45;&gt;T4 -->
<g id="edge4" class="edge"><title>T1&#45;&gt;T4</title>
<path fill="none" stroke="black" d="M99.0636,-449.207C92.7331,-436.978 83.9648,-420.039 76.7245,-406.052"/>
<polygon fill="black" stroke="black" points="79.7103,-404.207 72.0049,-396.935 73.4938,-407.425 79.7103,-404.207"/>
<text text-anchor="middle" x="96.0473" y="-419.396" font-family="Times New Roman,serif" font-size="14.00">EP</text>
</g>
<!-- T2 -->
<g id="node11" class="node"><title>T2</title>
<ellipse fill="none" stroke="black" cx="135.547" cy="-379.596" rx="27" ry="18"/>
<text text-anchor="middle" x="135.547" y="-375.896" font-family="Times New Roman,serif" font-size="14.00">T2</text>
</g>
<!-- T1&#45;&gt;T2 -->
<g id="edge3" class="edge"><title>T1&#45;&gt;T2</title>
<path fill="none" stroke="black" d="M113.079,-448.803C116.991,-436.928 122.315,-420.765 126.799,-407.153"/>
<polygon fill="black" stroke="black" points="130.222,-407.948 130.027,-397.355 123.574,-405.758 130.222,-407.948"/>
<text text-anchor="middle" x="132.047" y="-419.396" font-family="Times New Roman,serif" font-size="14.00">EP</text>
</g>
<!-- T8 -->
<g id="node9" class="node"><title>T8</title>
<ellipse fill="none" stroke="black" cx="30.5473" cy="-553.596" rx="27" ry="18"/>
<text text-anchor="middle" x="30.5473" y="-549.896" font-family="Times New Roman,serif" font-size="14.00">T8</text>
</g>
<!-- T0&#45;&gt;T8 -->
<g id="edge2" class="edge"><title>T0&#45;&gt;T8</title>
<path fill="none" stroke="black" d="M30.5473,-622.395C30.5473,-610.759 30.5473,-595.144 30.5473,-581.833"/>
<polygon fill="black" stroke="black" points="34.0474,-581.772 30.5473,-571.772 27.0474,-581.772 34.0474,-581.772"/>
<text text-anchor="middle" x="34.0473" y="-593.396" font-family="Times New Roman,serif" font-size="14.00">0</text>
</g>
<!-- T5 -->
<g id="node7" class="node"><title>T5</title>
<ellipse fill="none" stroke="black" cx="63.5473" cy="-292.596" rx="27" ry="18"/>
<text text-anchor="middle" x="63.5473" y="-288.896" font-family="Times New Roman,serif" font-size="14.00">T5</text>
</g>
<!-- T4&#45;&gt;T5 -->
<g id="edge7" class="edge"><title>T4&#45;&gt;T5</title>
<path fill="none" stroke="black" d="M63.5473,-361.395C63.5473,-349.759 63.5473,-334.144 63.5473,-320.833"/>
<polygon fill="black" stroke="black" points="67.0474,-320.772 63.5473,-310.772 60.0474,-320.772 67.0474,-320.772"/>
<text text-anchor="middle" x="67.0473" y="-332.396" font-family="Times New Roman,serif" font-size="14.00">1</text>
</g>
<!-- T5&#45;&gt;T6 -->
<g id="edge8" class="edge"><title>T5&#45;&gt;T6</title>
<path fill="none" stroke="black" d="M69.0792,-274.803C72.9909,-262.928 78.3153,-246.765 82.7992,-233.153"/>
<polygon fill="black" stroke="black" points="86.2224,-233.948 86.0269,-223.355 79.5738,-231.758 86.2224,-233.948"/>
<text text-anchor="middle" x="88.0473" y="-245.396" font-family="Times New Roman,serif" font-size="14.00">EP</text>
</g>
<!-- T6&#45;&gt;T7 -->
<g id="edge10" class="edge"><title>T6&#45;&gt;T7</title>
<path fill="none" stroke="black" d="M81.3903,-188.608C73.4707,-176.142 62.3322,-158.61 53.2641,-144.336"/>
<polygon fill="black" stroke="black" points="55.9754,-142.076 47.6587,-135.512 50.0669,-145.83 55.9754,-142.076"/>
<text text-anchor="middle" x="76.0473" y="-158.396" font-family="Times New Roman,serif" font-size="14.00">EP</text>
</g>
<!-- T6&#45;&gt;T1 -->
<g id="edge9" class="edge"><title>T6&#45;&gt;T1</title>
<path fill="none" stroke="black" d="M112.725,-217.237C132.337,-228.448 160.136,-248.153 171.547,-274.596 193.208,-324.789 189.925,-346.111 171.547,-397.596 164.531,-417.252 148.387,-434.335 134.07,-446.462"/>
<polygon fill="black" stroke="black" points="131.529,-444.014 125.934,-453.012 135.918,-449.467 131.529,-444.014"/>
<text text-anchor="middle" x="195.047" y="-332.396" font-family="Times New Roman,serif" font-size="14.00">EP</text>
</g>
<!-- T8&#45;&gt;T7 -->
<g id="edge13" class="edge"><title>T8&#45;&gt;T7</title>
<path fill="none" stroke="black" d="M23.5864,-535.991C17.141,-519.091 8.54729,-491.985 8.54729,-467.596 8.54729,-467.596 8.54729,-467.596 8.54729,-204.596 8.54729,-183.611 16.5625,-161.198 24.1654,-144.658"/>
<polygon fill="black" stroke="black" points="27.3177,-146.179 28.5305,-135.654 21.0188,-143.126 27.3177,-146.179"/>
<text text-anchor="middle" x="17.0473" y="-332.396" font-family="Times New Roman,serif" font-size="14.00">EP</text>
</g>
<!-- T8&#45;&gt;T1 -->
<g id="edge12" class="edge"><title>T8&#45;&gt;T1</title>
<path fill="none" stroke="black" d="M43.9597,-537.79C55.9213,-524.586 73.6055,-505.064 87.2901,-489.958"/>
<polygon fill="black" stroke="black" points="89.9105,-492.279 94.0303,-482.518 84.7226,-487.579 89.9105,-492.279"/>
<text text-anchor="middle" x="84.0473" y="-506.396" font-family="Times New Roman,serif" font-size="14.00">EP</text>
</g>
<!-- T2&#45;&gt;T3 -->
<g id="edge5" class="edge"><title>T2&#45;&gt;T3</title>
<path fill="none" stroke="black" d="M135.547,-361.395C135.547,-349.759 135.547,-334.144 135.547,-320.833"/>
<polygon fill="black" stroke="black" points="139.047,-320.772 135.547,-310.772 132.047,-320.772 139.047,-320.772"/>
<text text-anchor="middle" x="139.047" y="-332.396" font-family="Times New Roman,serif" font-size="14.00">0</text>
</g>
</g>
</svg>
