<?xml version="1.0" encoding="UTF-8" standalone="no"?>
<!DOCTYPE svg PUBLIC "-//W3C//DTD SVG 1.1//EN"
 "http://www.w3.org/Graphics/SVG/1.1/DTD/svg11.dtd">
<!-- Generated by graphviz version 2.38.0 (20140413.2041)
 -->
<!-- Title: %3 Pages: 1 -->
<svg width="209pt" height="305pt"
 viewBox="0.00 0.00 209.00 304.60" xmlns="http://www.w3.org/2000/svg" xmlns:xlink="http://www.w3.org/1999/xlink">
<g id="graph0" class="graph" transform="scale(1 1) rotate(0) translate(4 300.596)">
<title>%3</title>
<polygon fill="white" stroke="none" points="-4,4 -4,-300.596 205,-300.596 205,4 -4,4"/>
<!-- fake0 -->
<g id="node1" class="node"><title>fake0</title>
</g>
<!-- T0 -->
<g id="node3" class="node"><title>T0</title>
<ellipse fill="none" stroke="black" cx="75" cy="-205.596" rx="27" ry="18"/>
<text text-anchor="middle" x="75" y="-201.896" font-family="Times New Roman,serif" font-size="14.00">T0</text>
</g>
<!-- fake0&#45;&gt;T0 -->
<g id="edge1" class="edge"><title>fake0&#45;&gt;T0</title>
<path fill="none" stroke="black" stroke-width="2" d="M75,-260.409C75,-252.386 75,-242.644 75,-233.665"/>
<polygon fill="black" stroke="black" stroke-width="2" points="78.5001,-233.625 75,-223.625 71.5001,-233.625 78.5001,-233.625"/>
</g>
<!-- T1 -->
<g id="node2" class="node"><title>T1</title>
<ellipse fill="none" stroke="black" cx="27" cy="-118.596" rx="27" ry="18"/>
<text text-anchor="middle" x="27" y="-114.896" font-family="Times New Roman,serif" font-size="14.00">T1</text>
</g>
<!-- T1&#45;&gt;T1 -->
<g id="edge5" class="edge"><title>T1&#45;&gt;T1</title>
<path fill="none" stroke="black" d="M51.5325,-126.348C62.5078,-127.087 72,-124.503 72,-118.596 72,-114.628 67.7151,-112.16 61.5743,-111.191"/>
<polygon fill="black" stroke="black" points="61.6472,-107.691 51.5325,-110.844 61.4059,-114.687 61.6472,-107.691"/>
<text text-anchor="middle" x="75.5" y="-114.896" font-family="Times New Roman,serif" font-size="14.00">1</text>
</g>
<!-- T3 -->
<g id="node5" class="node"><title>T3</title>
<ellipse fill="none" stroke="black" cx="27" cy="-24.7982" rx="20.6302" ry="20.6302"/>
<ellipse fill="none" stroke="black" cx="27" cy="-24.7982" rx="24.5979" ry="24.5979"/>
<text text-anchor="middle" x="27" y="-21.0982" font-family="Times New Roman,serif" font-size="14.00">T3</text>
</g>
<!-- T1&#45;&gt;T3 -->
<g id="edge4" class="edge"><title>T1&#45;&gt;T3</title>
<path fill="none" stroke="black" d="M20.1119,-101.153C18.036,-95.3902 16.0349,-88.8058 15,-82.5963 13.6602,-74.5578 14.364,-65.9308 15.9541,-57.8891"/>
<polygon fill="black" stroke="black" points="19.3711,-58.6503 18.355,-48.1043 12.5727,-56.9821 19.3711,-58.6503"/>
<text text-anchor="middle" x="18.5" y="-71.3963" font-family="Times New Roman,serif" font-size="14.00">0</text>
</g>
<!-- T0&#45;&gt;T1 -->
<g id="edge2" class="edge"><title>T0&#45;&gt;T1</title>
<path fill="none" stroke="black" d="M65.9716,-188.608C58.9765,-176.221 49.1562,-158.831 41.1238,-144.607"/>
<polygon fill="black" stroke="black" points="44.116,-142.788 36.1511,-135.801 38.0208,-146.23 44.116,-142.788"/>
<text text-anchor="middle" x="57.5" y="-158.396" font-family="Times New Roman,serif" font-size="14.00">0</text>
</g>
<!-- T2 -->
<g id="node4" class="node"><title>T2</title>
<ellipse fill="none" stroke="black" cx="124" cy="-118.596" rx="27" ry="18"/>
<text text-anchor="middle" x="124" y="-114.896" font-family="Times New Roman,serif" font-size="14.00">T2</text>
</g>
<!-- T0&#45;&gt;T2 -->
<g id="edge3" class="edge"><title>T0&#45;&gt;T2</title>
<path fill="none" stroke="black" d="M84.2165,-188.608C91.3573,-176.221 101.382,-158.831 109.582,-144.607"/>
<polygon fill="black" stroke="black" points="112.696,-146.213 114.658,-135.801 106.632,-142.717 112.696,-146.213"/>
<text text-anchor="middle" x="106.5" y="-158.396" font-family="Times New Roman,serif" font-size="14.00">1</text>
</g>
<!-- T2&#45;&gt;T2 -->
<g id="edge6" class="edge"><title>T2&#45;&gt;T2</title>
<path fill="none" stroke="black" d="M150.795,-122.525C160.78,-122.654 169,-121.344 169,-118.596 169,-116.879 165.789,-115.723 160.943,-115.129"/>
<polygon fill="black" stroke="black" points="160.944,-111.626 150.795,-114.667 160.625,-118.619 160.944,-111.626"/>
<text text-anchor="middle" x="172.5" y="-114.896" font-family="Times New Roman,serif" font-size="14.00">0</text>
</g>
<!-- T2&#45;&gt;T2 -->
<g id="edge7" class="edge"><title>T2&#45;&gt;T2</title>
<path fill="none" stroke="black" d="M149.229,-125.541C168.041,-127.966 187,-125.651 187,-118.596 187,-112.809 174.242,-110.212 159.273,-110.804"/>
<polygon fill="black" stroke="black" points="158.899,-107.323 149.229,-111.652 159.488,-114.298 158.899,-107.323"/>
<text text-anchor="middle" x="190.5" y="-114.896" font-family="Times New Roman,serif" font-size="14.00">1</text>
</g>
<!-- T3&#45;&gt;T1 -->
<g id="edge9" class="edge"><title>T3&#45;&gt;T1</title>
<path fill="none" stroke="black" d="M27,-49.9152C27,-62.2896 27,-77.4139 27,-90.2243"/>
<polygon fill="black" stroke="black" points="23.5001,-90.3297 27,-100.33 30.5001,-90.3298 23.5001,-90.3297"/>
<text text-anchor="middle" x="30.5" y="-71.3963" font-family="Times New Roman,serif" font-size="14.00">1</text>
</g>
<!-- T3&#45;&gt;T3 -->
<g id="edge8" class="edge"><title>T3&#45;&gt;T3</title>
<path fill="none" stroke="black" d="M50.3321,-34.0267C60.7704,-34.9056 69.7982,-31.8294 69.7982,-24.7982 69.7982,-20.2938 66.0932,-17.4125 60.6858,-16.1545"/>
<polygon fill="black" stroke="black" points="60.5136,-12.6392 50.3321,-15.5696 60.1188,-19.6281 60.5136,-12.6392"/>
<text text-anchor="middle" x="73.2982" y="-21.0982" font-family="Times New Roman,serif" font-size="14.00">0</text>
</g>
</g>
</svg>
