<?xml version="1.0" encoding="UTF-8" standalone="no"?>
<!DOCTYPE svg PUBLIC "-//W3C//DTD SVG 1.1//EN"
 "http://www.w3.org/Graphics/SVG/1.1/DTD/svg11.dtd">
<!-- Generated by graphviz version 2.38.0 (20140413.2041)
 -->
<!-- Title: %3 Pages: 1 -->
<svg width="209pt" height="305pt"
 viewBox="0.00 0.00 209.00 304.60" xmlns="http://www.w3.org/2000/svg" xmlns:xlink="http://www.w3.org/1999/xlink">
<g id="graph0" class="graph" transform="scale(1 1) rotate(0) translate(4 300.596)">
<title>%3</title>
<polygon fill="white" stroke="none" points="-4,4 -4,-300.596 205,-300.596 205,4 -4,4"/>
<!-- fake0 -->
<g id="node1" class="node"><title>fake0</title>
</g>
<!-- T0 -->
<g id="node3" class="node"><title>T0</title>
<ellipse fill="none" stroke="black" cx="99" cy="-205.596" rx="27" ry="18"/>
<text text-anchor="middle" x="99" y="-201.896" font-family="Times New Roman,serif" font-size="14.00">T0</text>
</g>
<!-- fake0&#45;&gt;T0 -->
<g id="edge1" class="edge"><title>fake0&#45;&gt;T0</title>
<path fill="none" stroke="black" stroke-width="2" d="M99,-260.409C99,-252.386 99,-242.644 99,-233.665"/>
<polygon fill="black" stroke="black" stroke-width="2" points="102.5,-233.625 99,-223.625 95.5001,-233.625 102.5,-233.625"/>
</g>
<!-- T2 -->
<g id="node2" class="node"><title>T2</title>
<ellipse fill="none" stroke="black" cx="27" cy="-118.596" rx="27" ry="18"/>
<text text-anchor="middle" x="27" y="-114.896" font-family="Times New Roman,serif" font-size="14.00">T2</text>
</g>
<!-- T2&#45;&gt;T2 -->
<g id="edge6" class="edge"><title>T2&#45;&gt;T2</title>
<path fill="none" stroke="black" d="M53.7949,-122.525C63.7804,-122.654 72,-121.344 72,-118.596 72,-116.879 68.7892,-115.723 63.9433,-115.129"/>
<polygon fill="black" stroke="black" points="63.9437,-111.626 53.7949,-114.667 63.6253,-118.619 63.9437,-111.626"/>
<text text-anchor="middle" x="75.5" y="-114.896" font-family="Times New Roman,serif" font-size="14.00">0</text>
</g>
<!-- T2&#45;&gt;T2 -->
<g id="edge7" class="edge"><title>T2&#45;&gt;T2</title>
<path fill="none" stroke="black" d="M52.2292,-125.541C71.0405,-127.966 90,-125.651 90,-118.596 90,-112.809 77.2419,-110.212 62.2732,-110.804"/>
<polygon fill="black" stroke="black" points="61.8992,-107.323 52.2292,-111.652 62.4882,-114.298 61.8992,-107.323"/>
<text text-anchor="middle" x="93.5" y="-114.896" font-family="Times New Roman,serif" font-size="14.00">1</text>
</g>
<!-- T0&#45;&gt;T2 -->
<g id="edge3" class="edge"><title>T0&#45;&gt;T2</title>
<path fill="none" stroke="black" d="M86.1278,-189.4C75.0702,-176.346 58.9641,-157.332 46.353,-142.444"/>
<polygon fill="black" stroke="black" points="48.8949,-140.029 39.7607,-134.661 43.5535,-144.554 48.8949,-140.029"/>
<text text-anchor="middle" x="70.5" y="-158.396" font-family="Times New Roman,serif" font-size="14.00">1</text>
</g>
<!-- T1 -->
<g id="node4" class="node"><title>T1</title>
<ellipse fill="none" stroke="black" cx="149" cy="-118.596" rx="27" ry="18"/>
<text text-anchor="middle" x="149" y="-114.896" font-family="Times New Roman,serif" font-size="14.00">T1</text>
</g>
<!-- T0&#45;&gt;T1 -->
<g id="edge2" class="edge"><title>T0&#45;&gt;T1</title>
<path fill="none" stroke="black" d="M108.405,-188.608C115.738,-176.142 126.051,-158.61 134.447,-144.336"/>
<polygon fill="black" stroke="black" points="137.584,-145.906 139.638,-135.512 131.551,-142.357 137.584,-145.906"/>
<text text-anchor="middle" x="131.5" y="-158.396" font-family="Times New Roman,serif" font-size="14.00">0</text>
</g>
<!-- T1&#45;&gt;T1 -->
<g id="edge5" class="edge"><title>T1&#45;&gt;T1</title>
<path fill="none" stroke="black" d="M173.532,-126.348C184.508,-127.087 194,-124.503 194,-118.596 194,-114.628 189.715,-112.16 183.574,-111.191"/>
<polygon fill="black" stroke="black" points="183.647,-107.691 173.532,-110.844 183.406,-114.687 183.647,-107.691"/>
<text text-anchor="middle" x="197.5" y="-114.896" font-family="Times New Roman,serif" font-size="14.00">1</text>
</g>
<!-- T3 -->
<g id="node5" class="node"><title>T3</title>
<ellipse fill="none" stroke="black" cx="149" cy="-24.7982" rx="20.6302" ry="20.6302"/>
<ellipse fill="none" stroke="black" cx="149" cy="-24.7982" rx="24.5979" ry="24.5979"/>
<text text-anchor="middle" x="149" y="-21.0982" font-family="Times New Roman,serif" font-size="14.00">T3</text>
</g>
<!-- T1&#45;&gt;T3 -->
<g id="edge4" class="edge"><title>T1&#45;&gt;T3</title>
<path fill="none" stroke="black" d="M142.112,-101.153C140.036,-95.3902 138.035,-88.8058 137,-82.5963 135.66,-74.5578 136.364,-65.9308 137.954,-57.8891"/>
<polygon fill="black" stroke="black" points="141.371,-58.6503 140.355,-48.1043 134.573,-56.9821 141.371,-58.6503"/>
<text text-anchor="middle" x="140.5" y="-71.3963" font-family="Times New Roman,serif" font-size="14.00">0</text>
</g>
<!-- T3&#45;&gt;T1 -->
<g id="edge9" class="edge"><title>T3&#45;&gt;T1</title>
<path fill="none" stroke="black" d="M149,-49.9152C149,-62.2896 149,-77.4139 149,-90.2243"/>
<polygon fill="black" stroke="black" points="145.5,-90.3297 149,-100.33 152.5,-90.3298 145.5,-90.3297"/>
<text text-anchor="middle" x="152.5" y="-71.3963" font-family="Times New Roman,serif" font-size="14.00">1</text>
</g>
<!-- T3&#45;&gt;T3 -->
<g id="edge8" class="edge"><title>T3&#45;&gt;T3</title>
<path fill="none" stroke="black" d="M172.332,-34.0267C182.77,-34.9056 191.798,-31.8294 191.798,-24.7982 191.798,-20.2938 188.093,-17.4125 182.686,-16.1545"/>
<polygon fill="black" stroke="black" points="182.514,-12.6392 172.332,-15.5696 182.119,-19.6281 182.514,-12.6392"/>
<text text-anchor="middle" x="195.298" y="-21.0982" font-family="Times New Roman,serif" font-size="14.00">0</text>
</g>
</g>
</svg>
