<?xml version="1.0" encoding="UTF-8" standalone="no"?>
<!DOCTYPE svg PUBLIC "-//W3C//DTD SVG 1.1//EN"
 "http://www.w3.org/Graphics/SVG/1.1/DTD/svg11.dtd">
<!-- Generated by graphviz version 2.38.0 (20140413.2041)
 -->
<!-- Title: %3 Pages: 1 -->
<svg width="184pt" height="392pt"
 viewBox="0.00 0.00 184.00 391.60" xmlns="http://www.w3.org/2000/svg" xmlns:xlink="http://www.w3.org/1999/xlink">
<g id="graph0" class="graph" transform="scale(1 1) rotate(0) translate(4 387.596)">
<title>%3</title>
<polygon fill="white" stroke="none" points="-4,4 -4,-387.596 180,-387.596 180,4 -4,4"/>
<!-- fake0 -->
<g id="node1" class="node"><title>fake0</title>
</g>
<!-- T0 -->
<g id="node4" class="node"><title>T0</title>
<ellipse fill="none" stroke="black" cx="99" cy="-292.596" rx="27" ry="18"/>
<text text-anchor="middle" x="99" y="-288.896" font-family="Times New Roman,serif" font-size="14.00">T0</text>
</g>
<!-- fake0&#45;&gt;T0 -->
<g id="edge1" class="edge"><title>fake0&#45;&gt;T0</title>
<path fill="none" stroke="black" stroke-width="2" d="M99,-347.409C99,-339.386 99,-329.644 99,-320.665"/>
<polygon fill="black" stroke="black" stroke-width="2" points="102.5,-320.625 99,-310.625 95.5001,-320.625 102.5,-320.625"/>
</g>
<!-- T2 -->
<g id="node2" class="node"><title>T2</title>
<ellipse fill="none" stroke="black" cx="27" cy="-205.596" rx="27" ry="18"/>
<text text-anchor="middle" x="27" y="-201.896" font-family="Times New Roman,serif" font-size="14.00">T2</text>
</g>
<!-- T2&#45;&gt;T2 -->
<g id="edge6" class="edge"><title>T2&#45;&gt;T2</title>
<path fill="none" stroke="black" d="M53.7949,-209.525C63.7804,-209.654 72,-208.344 72,-205.596 72,-203.879 68.7892,-202.723 63.9433,-202.129"/>
<polygon fill="black" stroke="black" points="63.9437,-198.626 53.7949,-201.667 63.6253,-205.619 63.9437,-198.626"/>
<text text-anchor="middle" x="75.5" y="-201.896" font-family="Times New Roman,serif" font-size="14.00">0</text>
</g>
<!-- T2&#45;&gt;T2 -->
<g id="edge7" class="edge"><title>T2&#45;&gt;T2</title>
<path fill="none" stroke="black" d="M52.2292,-212.541C71.0405,-214.966 90,-212.651 90,-205.596 90,-199.809 77.2419,-197.212 62.2732,-197.804"/>
<polygon fill="black" stroke="black" points="61.8992,-194.323 52.2292,-198.652 62.4882,-201.298 61.8992,-194.323"/>
<text text-anchor="middle" x="93.5" y="-201.896" font-family="Times New Roman,serif" font-size="14.00">1</text>
</g>
<!-- T3 -->
<g id="node3" class="node"><title>T3</title>
<ellipse fill="none" stroke="black" cx="90" cy="-111.798" rx="20.6302" ry="20.6302"/>
<ellipse fill="none" stroke="black" cx="90" cy="-111.798" rx="24.5979" ry="24.5979"/>
<text text-anchor="middle" x="90" y="-108.098" font-family="Times New Roman,serif" font-size="14.00">T3</text>
</g>
<!-- T3&#45;&gt;T3 -->
<g id="edge8" class="edge"><title>T3&#45;&gt;T3</title>
<path fill="none" stroke="black" d="M113.332,-121.027C123.77,-121.906 132.798,-118.829 132.798,-111.798 132.798,-107.294 129.093,-104.413 123.686,-103.154"/>
<polygon fill="black" stroke="black" points="123.514,-99.6392 113.332,-102.57 123.119,-106.628 123.514,-99.6392"/>
<text text-anchor="middle" x="136.298" y="-108.098" font-family="Times New Roman,serif" font-size="14.00">0</text>
</g>
<!-- T4 -->
<g id="node6" class="node"><title>T4</title>
<ellipse fill="none" stroke="black" cx="120" cy="-18" rx="27" ry="18"/>
<text text-anchor="middle" x="120" y="-14.3" font-family="Times New Roman,serif" font-size="14.00">T4</text>
</g>
<!-- T3&#45;&gt;T4 -->
<g id="edge9" class="edge"><title>T3&#45;&gt;T4</title>
<path fill="none" stroke="black" d="M88.1316,-86.9456C88.102,-76.538 89.1566,-64.3702 93,-54 94.6035,-49.6734 96.9431,-45.4485 99.5847,-41.5162"/>
<polygon fill="black" stroke="black" points="102.444,-43.5374 105.681,-33.4492 96.8596,-39.317 102.444,-43.5374"/>
<text text-anchor="middle" x="96.5" y="-57.8" font-family="Times New Roman,serif" font-size="14.00">1</text>
</g>
<!-- T0&#45;&gt;T2 -->
<g id="edge3" class="edge"><title>T0&#45;&gt;T2</title>
<path fill="none" stroke="black" d="M86.1278,-276.4C75.0702,-263.346 58.9641,-244.332 46.353,-229.444"/>
<polygon fill="black" stroke="black" points="48.8949,-227.029 39.7607,-221.661 43.5535,-231.554 48.8949,-227.029"/>
<text text-anchor="middle" x="70.5" y="-245.396" font-family="Times New Roman,serif" font-size="14.00">1</text>
</g>
<!-- T1 -->
<g id="node5" class="node"><title>T1</title>
<ellipse fill="none" stroke="black" cx="149" cy="-205.596" rx="27" ry="18"/>
<text text-anchor="middle" x="149" y="-201.896" font-family="Times New Roman,serif" font-size="14.00">T1</text>
</g>
<!-- T0&#45;&gt;T1 -->
<g id="edge2" class="edge"><title>T0&#45;&gt;T1</title>
<path fill="none" stroke="black" d="M108.405,-275.608C115.738,-263.142 126.051,-245.61 134.447,-231.336"/>
<polygon fill="black" stroke="black" points="137.584,-232.906 139.638,-222.512 131.551,-229.357 137.584,-232.906"/>
<text text-anchor="middle" x="131.5" y="-245.396" font-family="Times New Roman,serif" font-size="14.00">0</text>
</g>
<!-- T1&#45;&gt;T3 -->
<g id="edge4" class="edge"><title>T1&#45;&gt;T3</title>
<path fill="none" stroke="black" d="M138.723,-188.606C130.443,-175.724 118.585,-157.274 108.641,-141.801"/>
<polygon fill="black" stroke="black" points="111.399,-139.62 103.048,-133.1 105.511,-143.405 111.399,-139.62"/>
<text text-anchor="middle" x="127.5" y="-158.396" font-family="Times New Roman,serif" font-size="14.00">0</text>
</g>
<!-- T1&#45;&gt;T4 -->
<g id="edge5" class="edge"><title>T1&#45;&gt;T4</title>
<path fill="none" stroke="black" d="M151.107,-187.636C153.496,-164.586 156.193,-122.205 149,-87 145.999,-72.3153 139.702,-56.8777 133.739,-44.4298"/>
<polygon fill="black" stroke="black" points="136.705,-42.535 129.099,-35.1594 130.445,-45.6684 136.705,-42.535"/>
<text text-anchor="middle" x="156.5" y="-108.098" font-family="Times New Roman,serif" font-size="14.00">1</text>
</g>
<!-- T4&#45;&gt;T3 -->
<g id="edge10" class="edge"><title>T4&#45;&gt;T3</title>
<path fill="none" stroke="black" d="M114.553,-35.6689C110.655,-47.5961 105.283,-64.0332 100.558,-78.4922"/>
<polygon fill="black" stroke="black" points="97.1953,-77.5139 97.4157,-88.1065 103.849,-79.6884 97.1953,-77.5139"/>
<text text-anchor="middle" x="110.5" y="-57.8" font-family="Times New Roman,serif" font-size="14.00">0</text>
</g>
<!-- T4&#45;&gt;T4 -->
<g id="edge11" class="edge"><title>T4&#45;&gt;T4</title>
<path fill="none" stroke="black" d="M144.532,-25.752C155.508,-26.4902 165,-23.9063 165,-18 165,-14.0317 160.715,-11.5632 154.574,-10.5944"/>
<polygon fill="black" stroke="black" points="154.647,-7.09491 144.532,-10.248 154.406,-14.0908 154.647,-7.09491"/>
<text text-anchor="middle" x="168.5" y="-14.3" font-family="Times New Roman,serif" font-size="14.00">1</text>
</g>
</g>
</svg>
