<?xml version="1.0" encoding="UTF-8" standalone="no"?>
<!DOCTYPE svg PUBLIC "-//W3C//DTD SVG 1.1//EN"
 "http://www.w3.org/Graphics/SVG/1.1/DTD/svg11.dtd">
<!-- Generated by graphviz version 2.38.0 (20140413.2041)
 -->
<!-- Title: %3 Pages: 1 -->
<svg width="246pt" height="392pt"
 viewBox="0.00 0.00 245.80 391.60" xmlns="http://www.w3.org/2000/svg" xmlns:xlink="http://www.w3.org/1999/xlink">
<g id="graph0" class="graph" transform="scale(1 1) rotate(0) translate(4 387.596)">
<title>%3</title>
<polygon fill="white" stroke="none" points="-4,4 -4,-387.596 241.798,-387.596 241.798,4 -4,4"/>
<!-- fake0 -->
<g id="node1" class="node"><title>fake0</title>
</g>
<!-- T0 -->
<g id="node4" class="node"><title>T0</title>
<ellipse fill="none" stroke="black" cx="123.798" cy="-292.596" rx="27" ry="18"/>
<text text-anchor="middle" x="123.798" y="-288.896" font-family="Times New Roman,serif" font-size="14.00">T0</text>
</g>
<!-- fake0&#45;&gt;T0 -->
<g id="edge1" class="edge"><title>fake0&#45;&gt;T0</title>
<path fill="none" stroke="black" stroke-width="2" d="M123.798,-347.409C123.798,-339.386 123.798,-329.644 123.798,-320.665"/>
<polygon fill="black" stroke="black" stroke-width="2" points="127.298,-320.625 123.798,-310.625 120.298,-320.625 127.298,-320.625"/>
</g>
<!-- T3 -->
<g id="node2" class="node"><title>T3</title>
<ellipse fill="none" stroke="black" cx="24.7982" cy="-111.798" rx="20.6302" ry="20.6302"/>
<ellipse fill="none" stroke="black" cx="24.7982" cy="-111.798" rx="24.5979" ry="24.5979"/>
<text text-anchor="middle" x="24.7982" y="-108.098" font-family="Times New Roman,serif" font-size="14.00">T3</text>
</g>
<!-- T3&#45;&gt;T3 -->
<g id="edge8" class="edge"><title>T3&#45;&gt;T3</title>
<path fill="none" stroke="black" d="M48.1303,-121.027C58.5686,-121.906 67.5963,-118.829 67.5963,-111.798 67.5963,-107.294 63.8913,-104.413 58.484,-103.154"/>
<polygon fill="black" stroke="black" points="58.3118,-99.6392 48.1303,-102.57 57.9169,-106.628 58.3118,-99.6392"/>
<text text-anchor="middle" x="71.0963" y="-108.098" font-family="Times New Roman,serif" font-size="14.00">0</text>
</g>
<!-- T4 -->
<g id="node5" class="node"><title>T4</title>
<ellipse fill="none" stroke="black" cx="54.7982" cy="-18" rx="27" ry="18"/>
<text text-anchor="middle" x="54.7982" y="-14.3" font-family="Times New Roman,serif" font-size="14.00">T4</text>
</g>
<!-- T3&#45;&gt;T4 -->
<g id="edge9" class="edge"><title>T3&#45;&gt;T4</title>
<path fill="none" stroke="black" d="M22.9297,-86.9456C22.9002,-76.538 23.9548,-64.3702 27.7982,-54 29.4017,-49.6734 31.7413,-45.4485 34.3828,-41.5162"/>
<polygon fill="black" stroke="black" points="37.2424,-43.5374 40.4792,-33.4492 31.6577,-39.317 37.2424,-43.5374"/>
<text text-anchor="middle" x="31.2982" y="-57.8" font-family="Times New Roman,serif" font-size="14.00">1</text>
</g>
<!-- T1 -->
<g id="node3" class="node"><title>T1</title>
<ellipse fill="none" stroke="black" cx="88.7982" cy="-205.596" rx="27" ry="18"/>
<text text-anchor="middle" x="88.7982" y="-201.896" font-family="Times New Roman,serif" font-size="14.00">T1</text>
</g>
<!-- T1&#45;&gt;T3 -->
<g id="edge4" class="edge"><title>T1&#45;&gt;T3</title>
<path fill="none" stroke="black" d="M77.9414,-189.024C68.7939,-175.903 55.474,-156.798 44.458,-140.997"/>
<polygon fill="black" stroke="black" points="47.2065,-138.82 38.6162,-132.618 41.4643,-142.823 47.2065,-138.82"/>
<text text-anchor="middle" x="66.2982" y="-158.396" font-family="Times New Roman,serif" font-size="14.00">0</text>
</g>
<!-- T1&#45;&gt;T4 -->
<g id="edge5" class="edge"><title>T1&#45;&gt;T4</title>
<path fill="none" stroke="black" d="M89.9667,-187.598C91.1283,-164.505 91.7451,-122.076 83.7982,-87 80.4863,-72.3824 74.1612,-56.9506 68.2612,-44.4893"/>
<polygon fill="black" stroke="black" points="71.2459,-42.628 63.6863,-35.2048 64.9668,-45.722 71.2459,-42.628"/>
<text text-anchor="middle" x="94.2982" y="-108.098" font-family="Times New Roman,serif" font-size="14.00">1</text>
</g>
<!-- T0&#45;&gt;T1 -->
<g id="edge2" class="edge"><title>T0&#45;&gt;T1</title>
<path fill="none" stroke="black" d="M116.883,-274.803C111.914,-262.734 105.12,-246.235 99.459,-232.487"/>
<polygon fill="black" stroke="black" points="102.624,-230.98 95.5796,-223.065 96.1508,-233.645 102.624,-230.98"/>
<text text-anchor="middle" x="112.298" y="-245.396" font-family="Times New Roman,serif" font-size="14.00">0</text>
</g>
<!-- T2 -->
<g id="node6" class="node"><title>T2</title>
<ellipse fill="none" stroke="black" cx="160.798" cy="-205.596" rx="27" ry="18"/>
<text text-anchor="middle" x="160.798" y="-201.896" font-family="Times New Roman,serif" font-size="14.00">T2</text>
</g>
<!-- T0&#45;&gt;T2 -->
<g id="edge3" class="edge"><title>T0&#45;&gt;T2</title>
<path fill="none" stroke="black" d="M130.932,-275.207C136.171,-263.173 143.394,-246.579 149.425,-232.724"/>
<polygon fill="black" stroke="black" points="152.778,-233.791 153.56,-223.225 146.359,-230.997 152.778,-233.791"/>
<text text-anchor="middle" x="149.298" y="-245.396" font-family="Times New Roman,serif" font-size="14.00">1</text>
</g>
<!-- T4&#45;&gt;T3 -->
<g id="edge10" class="edge"><title>T4&#45;&gt;T3</title>
<path fill="none" stroke="black" d="M49.3507,-35.6689C45.4528,-47.5961 40.0811,-64.0332 35.3559,-78.4922"/>
<polygon fill="black" stroke="black" points="31.9935,-77.5139 32.2139,-88.1065 38.6472,-79.6884 31.9935,-77.5139"/>
<text text-anchor="middle" x="46.2982" y="-57.8" font-family="Times New Roman,serif" font-size="14.00">0</text>
</g>
<!-- T4&#45;&gt;T4 -->
<g id="edge11" class="edge"><title>T4&#45;&gt;T4</title>
<path fill="none" stroke="black" d="M79.3306,-25.752C90.306,-26.4902 99.7982,-23.9063 99.7982,-18 99.7982,-14.0317 95.5132,-11.5632 89.3725,-10.5944"/>
<polygon fill="black" stroke="black" points="89.4454,-7.09491 79.3306,-10.248 89.204,-14.0908 89.4454,-7.09491"/>
<text text-anchor="middle" x="103.298" y="-14.3" font-family="Times New Roman,serif" font-size="14.00">1</text>
</g>
<!-- T2&#45;&gt;T2 -->
<g id="edge6" class="edge"><title>T2&#45;&gt;T2</title>
<path fill="none" stroke="black" d="M187.593,-209.525C197.579,-209.654 205.798,-208.344 205.798,-205.596 205.798,-203.879 202.587,-202.723 197.741,-202.129"/>
<polygon fill="black" stroke="black" points="197.742,-198.626 187.593,-201.667 197.423,-205.619 197.742,-198.626"/>
<text text-anchor="middle" x="209.298" y="-201.896" font-family="Times New Roman,serif" font-size="14.00">0</text>
</g>
<!-- T2&#45;&gt;T2 -->
<g id="edge7" class="edge"><title>T2&#45;&gt;T2</title>
<path fill="none" stroke="black" d="M186.027,-212.541C204.839,-214.966 223.798,-212.651 223.798,-205.596 223.798,-199.809 211.04,-197.212 196.071,-197.804"/>
<polygon fill="black" stroke="black" points="195.697,-194.323 186.027,-198.652 196.286,-201.298 195.697,-194.323"/>
<text text-anchor="middle" x="227.298" y="-201.896" font-family="Times New Roman,serif" font-size="14.00">1</text>
</g>
</g>
</svg>
