<?xml version="1.0" encoding="UTF-8" standalone="no"?>
<!DOCTYPE svg PUBLIC "-//W3C//DTD SVG 1.1//EN"
 "http://www.w3.org/Graphics/SVG/1.1/DTD/svg11.dtd">
<!-- Generated by graphviz version 2.38.0 (20140413.2041)
 -->
<!-- Title: %3 Pages: 1 -->
<svg width="211pt" height="740pt"
 viewBox="0.00 0.00 210.55 739.60" xmlns="http://www.w3.org/2000/svg" xmlns:xlink="http://www.w3.org/1999/xlink">
<g id="graph0" class="graph" transform="scale(1 1) rotate(0) translate(4 735.596)">
<title>%3</title>
<polygon fill="white" stroke="none" points="-4,4 -4,-735.596 206.547,-735.596 206.547,4 -4,4"/>
<!-- fake0 -->
<g id="node1" class="node"><title>fake0</title>
</g>
<!-- T0 -->
<g id="node8" class="node"><title>T0</title>
<ellipse fill="none" stroke="black" cx="30.5473" cy="-640.596" rx="27" ry="18"/>
<text text-anchor="middle" x="30.5473" y="-636.896" font-family="Times New Roman,serif" font-size="14.00">T0</text>
</g>
<!-- fake0&#45;&gt;T0 -->
<g id="edge1" class="edge"><title>fake0&#45;&gt;T0</title>
<path fill="none" stroke="black" stroke-width="2" d="M30.5473,-695.409C30.5473,-687.386 30.5473,-677.644 30.5473,-668.665"/>
<polygon fill="black" stroke="black" stroke-width="2" points="34.0474,-668.625 30.5473,-658.625 27.0474,-668.625 34.0474,-668.625"/>
</g>
<!-- T9 -->
<g id="node2" class="node"><title>T9</title>
<ellipse fill="none" stroke="black" cx="33.5473" cy="-24.7982" rx="20.6302" ry="20.6302"/>
<ellipse fill="none" stroke="black" cx="33.5473" cy="-24.7982" rx="24.5979" ry="24.5979"/>
<text text-anchor="middle" x="33.5473" y="-21.0982" font-family="Times New Roman,serif" font-size="14.00">T9</text>
</g>
<!-- T2 -->
<g id="node3" class="node"><title>T2</title>
<ellipse fill="none" stroke="black" cx="103.547" cy="-379.596" rx="27" ry="18"/>
<text text-anchor="middle" x="103.547" y="-375.896" font-family="Times New Roman,serif" font-size="14.00">T2</text>
</g>
<!-- T3 -->
<g id="node6" class="node"><title>T3</title>
<ellipse fill="none" stroke="black" cx="103.547" cy="-292.596" rx="27" ry="18"/>
<text text-anchor="middle" x="103.547" y="-288.896" font-family="Times New Roman,serif" font-size="14.00">T3</text>
</g>
<!-- T2&#45;&gt;T3 -->
<g id="edge5" class="edge"><title>T2&#45;&gt;T3</title>
<path fill="none" stroke="black" d="M103.547,-361.395C103.547,-349.759 103.547,-334.144 103.547,-320.833"/>
<polygon fill="black" stroke="black" points="107.047,-320.772 103.547,-310.772 100.047,-320.772 107.047,-320.772"/>
<text text-anchor="middle" x="107.047" y="-332.396" font-family="Times New Roman,serif" font-size="14.00">0</text>
</g>
<!-- T8 -->
<g id="node4" class="node"><title>T8</title>
<ellipse fill="none" stroke="black" cx="30.5473" cy="-553.596" rx="27" ry="18"/>
<text text-anchor="middle" x="30.5473" y="-549.896" font-family="Times New Roman,serif" font-size="14.00">T8</text>
</g>
<!-- T7 -->
<g id="node7" class="node"><title>T7</title>
<ellipse fill="none" stroke="black" cx="33.5473" cy="-118.596" rx="27" ry="18"/>
<text text-anchor="middle" x="33.5473" y="-114.896" font-family="Times New Roman,serif" font-size="14.00">T7</text>
</g>
<!-- T8&#45;&gt;T7 -->
<g id="edge12" class="edge"><title>T8&#45;&gt;T7</title>
<path fill="none" stroke="black" d="M23.5864,-535.991C17.141,-519.091 8.54729,-491.985 8.54729,-467.596 8.54729,-467.596 8.54729,-467.596 8.54729,-204.596 8.54729,-184.215 15.2445,-162.161 21.7062,-145.626"/>
<polygon fill="black" stroke="black" points="25.0548,-146.687 25.6371,-136.108 18.5849,-144.015 25.0548,-146.687"/>
<text text-anchor="middle" x="17.0473" y="-332.396" font-family="Times New Roman,serif" font-size="14.00">EP</text>
</g>
<!-- T1 -->
<g id="node9" class="node"><title>T1</title>
<ellipse fill="none" stroke="black" cx="72.5473" cy="-466.596" rx="27" ry="18"/>
<text text-anchor="middle" x="72.5473" y="-462.896" font-family="Times New Roman,serif" font-size="14.00">T1</text>
</g>
<!-- T8&#45;&gt;T1 -->
<g id="edge13" class="edge"><title>T8&#45;&gt;T1</title>
<path fill="none" stroke="black" d="M38.6453,-536.207C44.6881,-523.978 53.0579,-507.039 59.969,-493.052"/>
<polygon fill="black" stroke="black" points="63.182,-494.451 64.4741,-483.935 56.9063,-491.35 63.182,-494.451"/>
<text text-anchor="middle" x="63.0473" y="-506.396" font-family="Times New Roman,serif" font-size="14.00">EP</text>
</g>
<!-- T6 -->
<g id="node5" class="node"><title>T6</title>
<ellipse fill="none" stroke="black" cx="77.5473" cy="-205.596" rx="27" ry="18"/>
<text text-anchor="middle" x="77.5473" y="-201.896" font-family="Times New Roman,serif" font-size="14.00">T6</text>
</g>
<!-- T6&#45;&gt;T7 -->
<g id="edge9" class="edge"><title>T6&#45;&gt;T7</title>
<path fill="none" stroke="black" d="M69.0636,-188.207C62.7331,-175.978 53.9648,-159.039 46.7245,-145.052"/>
<polygon fill="black" stroke="black" points="49.7103,-143.207 42.0049,-135.935 43.4938,-146.425 49.7103,-143.207"/>
<text text-anchor="middle" x="66.0473" y="-158.396" font-family="Times New Roman,serif" font-size="14.00">EP</text>
</g>
<!-- T6&#45;&gt;T1 -->
<g id="edge10" class="edge"><title>T6&#45;&gt;T1</title>
<path fill="none" stroke="black" d="M74.3482,-223.567C71.9341,-237.278 68.8267,-257.102 67.5473,-274.596 63.2861,-332.86 67.2543,-401.354 70.1457,-438.428"/>
<polygon fill="black" stroke="black" points="66.6615,-438.766 70.9616,-448.448 73.6384,-438.197 66.6615,-438.766"/>
<text text-anchor="middle" x="74.0473" y="-332.396" font-family="Times New Roman,serif" font-size="14.00">EP</text>
</g>
<!-- T3&#45;&gt;T6 -->
<g id="edge6" class="edge"><title>T3&#45;&gt;T6</title>
<path fill="none" stroke="black" d="M98.4105,-274.803C94.7782,-262.928 89.8341,-246.765 85.6705,-233.153"/>
<polygon fill="black" stroke="black" points="88.9454,-231.894 82.6734,-223.355 82.2516,-233.941 88.9454,-231.894"/>
<text text-anchor="middle" x="100.047" y="-245.396" font-family="Times New Roman,serif" font-size="14.00">EP</text>
</g>
<!-- T7&#45;&gt;T9 -->
<g id="edge11" class="edge"><title>T7&#45;&gt;T9</title>
<path fill="none" stroke="black" d="M33.5473,-100.33C33.5473,-88.9897 33.5473,-73.7672 33.5473,-60.0359"/>
<polygon fill="black" stroke="black" points="37.0474,-59.9151 33.5473,-49.9152 30.0474,-59.9152 37.0474,-59.9151"/>
<text text-anchor="middle" x="37.0473" y="-71.3963" font-family="Times New Roman,serif" font-size="14.00">0</text>
</g>
<!-- T0&#45;&gt;T8 -->
<g id="edge2" class="edge"><title>T0&#45;&gt;T8</title>
<path fill="none" stroke="black" d="M30.5473,-622.395C30.5473,-610.759 30.5473,-595.144 30.5473,-581.833"/>
<polygon fill="black" stroke="black" points="34.0474,-581.772 30.5473,-571.772 27.0474,-581.772 34.0474,-581.772"/>
<text text-anchor="middle" x="34.0473" y="-593.396" font-family="Times New Roman,serif" font-size="14.00">0</text>
</g>
<!-- T1&#45;&gt;T2 -->
<g id="edge3" class="edge"><title>T1&#45;&gt;T2</title>
<path fill="none" stroke="black" d="M78.6719,-448.803C83.0451,-436.812 89.0134,-420.447 94.0077,-406.753"/>
<polygon fill="black" stroke="black" points="97.2972,-407.949 97.4354,-397.355 90.7209,-405.55 97.2972,-407.949"/>
<text text-anchor="middle" x="99.0473" y="-419.396" font-family="Times New Roman,serif" font-size="14.00">EP</text>
</g>
<!-- T4 -->
<g id="node11" class="node"><title>T4</title>
<ellipse fill="none" stroke="black" cx="175.547" cy="-379.596" rx="27" ry="18"/>
<text text-anchor="middle" x="175.547" y="-375.896" font-family="Times New Roman,serif" font-size="14.00">T4</text>
</g>
<!-- T1&#45;&gt;T4 -->
<g id="edge4" class="edge"><title>T1&#45;&gt;T4</title>
<path fill="none" stroke="black" d="M89.096,-451.94C105.914,-438.06 132.149,-416.411 151.309,-400.599"/>
<polygon fill="black" stroke="black" points="153.555,-403.284 159.04,-394.219 149.099,-397.885 153.555,-403.284"/>
<text text-anchor="middle" x="141.047" y="-419.396" font-family="Times New Roman,serif" font-size="14.00">EP</text>
</g>
<!-- T5 -->
<g id="node10" class="node"><title>T5</title>
<ellipse fill="none" stroke="black" cx="175.547" cy="-292.596" rx="27" ry="18"/>
<text text-anchor="middle" x="175.547" y="-288.896" font-family="Times New Roman,serif" font-size="14.00">T5</text>
</g>
<!-- T5&#45;&gt;T6 -->
<g id="edge8" class="edge"><title>T5&#45;&gt;T6</title>
<path fill="none" stroke="black" d="M159.802,-277.94C144.037,-264.266 119.576,-243.05 101.422,-227.304"/>
<polygon fill="black" stroke="black" points="103.427,-224.41 93.5792,-220.502 98.8403,-229.698 103.427,-224.41"/>
<text text-anchor="middle" x="140.047" y="-245.396" font-family="Times New Roman,serif" font-size="14.00">EP</text>
</g>
<!-- T4&#45;&gt;T5 -->
<g id="edge7" class="edge"><title>T4&#45;&gt;T5</title>
<path fill="none" stroke="black" d="M175.547,-361.395C175.547,-349.759 175.547,-334.144 175.547,-320.833"/>
<polygon fill="black" stroke="black" points="179.047,-320.772 175.547,-310.772 172.047,-320.772 179.047,-320.772"/>
<text text-anchor="middle" x="179.047" y="-332.396" font-family="Times New Roman,serif" font-size="14.00">1</text>
</g>
</g>
</svg>
