<?xml version="1.0" encoding="UTF-8" standalone="no"?>
<!DOCTYPE svg PUBLIC "-//W3C//DTD SVG 1.1//EN"
 "http://www.w3.org/Graphics/SVG/1.1/DTD/svg11.dtd">
<!-- Generated by graphviz version 2.38.0 (20140413.2041)
 -->
<!-- Title: %3 Pages: 1 -->
<svg width="229pt" height="1184pt"
 viewBox="0.00 0.00 229.00 1183.70" xmlns="http://www.w3.org/2000/svg" xmlns:xlink="http://www.w3.org/1999/xlink">
<g id="graph0" class="graph" transform="scale(1 1) rotate(0) translate(4 1179.7)">
<title>%3</title>
<polygon fill="white" stroke="none" points="-4,4 -4,-1179.7 225,-1179.7 225,4 -4,4"/>
<!-- fake0 -->
<g id="node1" class="node"><title>fake0</title>
</g>
<!-- T0 -->
<g id="node18" class="node"><title>T0</title>
<ellipse fill="none" stroke="black" cx="48" cy="-1084.7" rx="27" ry="18"/>
<text text-anchor="middle" x="48" y="-1081" font-family="Times New Roman,serif" font-size="14.00">T0</text>
</g>
<!-- fake0&#45;&gt;T0 -->
<g id="edge1" class="edge"><title>fake0&#45;&gt;T0</title>
<path fill="none" stroke="black" stroke-width="2" d="M48,-1139.51C48,-1131.48 48,-1121.74 48,-1112.76"/>
<polygon fill="black" stroke="black" stroke-width="2" points="51.5001,-1112.72 48,-1102.72 44.5001,-1112.72 51.5001,-1112.72"/>
</g>
<!-- T10 -->
<g id="node2" class="node"><title>T10</title>
<ellipse fill="none" stroke="black" cx="27" cy="-388.696" rx="27" ry="18"/>
<text text-anchor="middle" x="27" y="-384.996" font-family="Times New Roman,serif" font-size="14.00">T10</text>
</g>
<!-- T13 -->
<g id="node20" class="node"><title>T13</title>
<ellipse fill="none" stroke="black" cx="67" cy="-301.696" rx="27" ry="18"/>
<text text-anchor="middle" x="67" y="-297.996" font-family="Times New Roman,serif" font-size="14.00">T13</text>
</g>
<!-- T10&#45;&gt;T13 -->
<g id="edge16" class="edge"><title>T10&#45;&gt;T13</title>
<path fill="none" stroke="black" d="M34.7124,-371.307C40.4674,-359.077 48.4386,-342.138 55.0207,-328.152"/>
<polygon fill="black" stroke="black" points="58.2201,-329.573 59.3113,-319.034 51.8864,-326.592 58.2201,-329.573"/>
<text text-anchor="middle" x="58.5" y="-341.496" font-family="Times New Roman,serif" font-size="14.00">EP</text>
</g>
<!-- T7 -->
<g id="node3" class="node"><title>T7</title>
<ellipse fill="none" stroke="black" cx="55" cy="-649.696" rx="27" ry="18"/>
<text text-anchor="middle" x="55" y="-645.996" font-family="Times New Roman,serif" font-size="14.00">T7</text>
</g>
<!-- T8 -->
<g id="node19" class="node"><title>T8</title>
<ellipse fill="none" stroke="black" cx="55" cy="-562.696" rx="27" ry="18"/>
<text text-anchor="middle" x="55" y="-558.996" font-family="Times New Roman,serif" font-size="14.00">T8</text>
</g>
<!-- T7&#45;&gt;T8 -->
<g id="edge12" class="edge"><title>T7&#45;&gt;T8</title>
<path fill="none" stroke="black" d="M55,-631.494C55,-619.858 55,-604.243 55,-590.932"/>
<polygon fill="black" stroke="black" points="58.5001,-590.871 55,-580.871 51.5001,-590.871 58.5001,-590.871"/>
<text text-anchor="middle" x="58.5" y="-602.496" font-family="Times New Roman,serif" font-size="14.00">0</text>
</g>
<!-- T4 -->
<g id="node4" class="node"><title>T4</title>
<ellipse fill="none" stroke="black" cx="81" cy="-910.696" rx="27" ry="18"/>
<text text-anchor="middle" x="81" y="-906.996" font-family="Times New Roman,serif" font-size="14.00">T4</text>
</g>
<!-- T5 -->
<g id="node14" class="node"><title>T5</title>
<ellipse fill="none" stroke="black" cx="81" cy="-823.696" rx="27" ry="18"/>
<text text-anchor="middle" x="81" y="-819.996" font-family="Times New Roman,serif" font-size="14.00">T5</text>
</g>
<!-- T4&#45;&gt;T5 -->
<g id="edge8" class="edge"><title>T4&#45;&gt;T5</title>
<path fill="none" stroke="black" d="M81,-892.494C81,-880.858 81,-865.243 81,-851.932"/>
<polygon fill="black" stroke="black" points="84.5001,-851.871 81,-841.871 77.5001,-851.871 84.5001,-851.871"/>
<text text-anchor="middle" x="84.5" y="-863.496" font-family="Times New Roman,serif" font-size="14.00">1</text>
</g>
<!-- T14 -->
<g id="node5" class="node"><title>T14</title>
<ellipse fill="none" stroke="black" cx="39" cy="-214.696" rx="27" ry="18"/>
<text text-anchor="middle" x="39" y="-210.996" font-family="Times New Roman,serif" font-size="14.00">T14</text>
</g>
<!-- T15 -->
<g id="node8" class="node"><title>T15</title>
<ellipse fill="none" stroke="black" cx="39" cy="-127.696" rx="27" ry="18"/>
<text text-anchor="middle" x="39" y="-123.996" font-family="Times New Roman,serif" font-size="14.00">T15</text>
</g>
<!-- T14&#45;&gt;T15 -->
<g id="edge21" class="edge"><title>T14&#45;&gt;T15</title>
<path fill="none" stroke="black" d="M39,-196.494C39,-184.858 39,-169.243 39,-155.932"/>
<polygon fill="black" stroke="black" points="42.5001,-155.871 39,-145.871 35.5001,-155.871 42.5001,-155.871"/>
<text text-anchor="middle" x="42.5" y="-167.496" font-family="Times New Roman,serif" font-size="14.00">0</text>
</g>
<!-- T9 -->
<g id="node6" class="node"><title>T9</title>
<ellipse fill="none" stroke="black" cx="27" cy="-475.696" rx="27" ry="18"/>
<text text-anchor="middle" x="27" y="-471.996" font-family="Times New Roman,serif" font-size="14.00">T9</text>
</g>
<!-- T9&#45;&gt;T10 -->
<g id="edge15" class="edge"><title>T9&#45;&gt;T10</title>
<path fill="none" stroke="black" d="M27,-457.494C27,-445.858 27,-430.243 27,-416.932"/>
<polygon fill="black" stroke="black" points="30.5001,-416.871 27,-406.871 23.5001,-416.871 30.5001,-416.871"/>
<text text-anchor="middle" x="30.5" y="-428.496" font-family="Times New Roman,serif" font-size="14.00">0</text>
</g>
<!-- T3 -->
<g id="node7" class="node"><title>T3</title>
<ellipse fill="none" stroke="black" cx="153" cy="-823.696" rx="27" ry="18"/>
<text text-anchor="middle" x="153" y="-819.996" font-family="Times New Roman,serif" font-size="14.00">T3</text>
</g>
<!-- T6 -->
<g id="node12" class="node"><title>T6</title>
<ellipse fill="none" stroke="black" cx="109" cy="-736.696" rx="27" ry="18"/>
<text text-anchor="middle" x="109" y="-732.996" font-family="Times New Roman,serif" font-size="14.00">T6</text>
</g>
<!-- T3&#45;&gt;T6 -->
<g id="edge7" class="edge"><title>T3&#45;&gt;T6</title>
<path fill="none" stroke="black" d="M144.516,-806.307C138.186,-794.077 129.418,-777.138 122.177,-763.152"/>
<polygon fill="black" stroke="black" points="125.163,-761.306 117.458,-754.034 118.946,-764.524 125.163,-761.306"/>
<text text-anchor="middle" x="141.5" y="-776.496" font-family="Times New Roman,serif" font-size="14.00">EP</text>
</g>
<!-- T18 -->
<g id="node10" class="node"><title>T18</title>
<ellipse fill="none" stroke="black" cx="79" cy="-29.3478" rx="25.2169" ry="25.2169"/>
<ellipse fill="none" stroke="black" cx="79" cy="-29.3478" rx="29.1963" ry="29.1963"/>
<text text-anchor="middle" x="79" y="-25.6478" font-family="Times New Roman,serif" font-size="14.00">T18</text>
</g>
<!-- T15&#45;&gt;T18 -->
<g id="edge22" class="edge"><title>T15&#45;&gt;T18</title>
<path fill="none" stroke="black" d="M45.9675,-109.913C50.9617,-97.8833 57.8764,-81.2279 64.0893,-66.2632"/>
<polygon fill="black" stroke="black" points="67.4415,-67.3166 68.0434,-56.7389 60.9765,-64.6326 67.4415,-67.3166"/>
<text text-anchor="middle" x="67.5" y="-80.4955" font-family="Times New Roman,serif" font-size="14.00">EP</text>
</g>
<!-- T11 -->
<g id="node9" class="node"><title>T11</title>
<ellipse fill="none" stroke="black" cx="99" cy="-475.696" rx="27" ry="18"/>
<text text-anchor="middle" x="99" y="-471.996" font-family="Times New Roman,serif" font-size="14.00">T11</text>
</g>
<!-- T12 -->
<g id="node16" class="node"><title>T12</title>
<ellipse fill="none" stroke="black" cx="99" cy="-388.696" rx="27" ry="18"/>
<text text-anchor="middle" x="99" y="-384.996" font-family="Times New Roman,serif" font-size="14.00">T12</text>
</g>
<!-- T11&#45;&gt;T12 -->
<g id="edge17" class="edge"><title>T11&#45;&gt;T12</title>
<path fill="none" stroke="black" d="M99,-457.494C99,-445.858 99,-430.243 99,-416.932"/>
<polygon fill="black" stroke="black" points="102.5,-416.871 99,-406.871 95.5001,-416.871 102.5,-416.871"/>
<text text-anchor="middle" x="102.5" y="-428.496" font-family="Times New Roman,serif" font-size="14.00">1</text>
</g>
<!-- T1 -->
<g id="node11" class="node"><title>T1</title>
<ellipse fill="none" stroke="black" cx="125" cy="-997.696" rx="27" ry="18"/>
<text text-anchor="middle" x="125" y="-993.996" font-family="Times New Roman,serif" font-size="14.00">T1</text>
</g>
<!-- T1&#45;&gt;T4 -->
<g id="edge5" class="edge"><title>T1&#45;&gt;T4</title>
<path fill="none" stroke="black" d="M116.516,-980.307C110.186,-968.077 101.418,-951.138 94.1772,-937.152"/>
<polygon fill="black" stroke="black" points="97.163,-935.306 89.4576,-928.034 90.9465,-938.524 97.163,-935.306"/>
<text text-anchor="middle" x="113.5" y="-950.496" font-family="Times New Roman,serif" font-size="14.00">EP</text>
</g>
<!-- T2 -->
<g id="node17" class="node"><title>T2</title>
<ellipse fill="none" stroke="black" cx="153" cy="-910.696" rx="27" ry="18"/>
<text text-anchor="middle" x="153" y="-906.996" font-family="Times New Roman,serif" font-size="14.00">T2</text>
</g>
<!-- T1&#45;&gt;T2 -->
<g id="edge4" class="edge"><title>T1&#45;&gt;T2</title>
<path fill="none" stroke="black" d="M130.532,-979.902C134.444,-968.027 139.768,-951.864 144.252,-938.252"/>
<polygon fill="black" stroke="black" points="147.675,-939.047 147.48,-928.454 141.027,-936.857 147.675,-939.047"/>
<text text-anchor="middle" x="149.5" y="-950.496" font-family="Times New Roman,serif" font-size="14.00">EP</text>
</g>
<!-- T6&#45;&gt;T7 -->
<g id="edge11" class="edge"><title>T6&#45;&gt;T7</title>
<path fill="none" stroke="black" d="M98.843,-719.708C90.9234,-707.242 79.7849,-689.709 70.7168,-675.435"/>
<polygon fill="black" stroke="black" points="73.4281,-673.176 65.1114,-666.612 67.5196,-676.929 73.4281,-673.176"/>
<text text-anchor="middle" x="93.5" y="-689.496" font-family="Times New Roman,serif" font-size="14.00">EP</text>
</g>
<!-- T6&#45;&gt;T1 -->
<g id="edge10" class="edge"><title>T6&#45;&gt;T1</title>
<path fill="none" stroke="black" d="M130.178,-748.336C149.789,-759.547 177.588,-779.252 189,-805.696 210.66,-855.888 207.378,-877.211 189,-928.696 181.984,-948.351 165.84,-965.434 151.523,-977.561"/>
<polygon fill="black" stroke="black" points="148.981,-975.114 143.387,-984.111 153.371,-980.566 148.981,-975.114"/>
<text text-anchor="middle" x="212.5" y="-863.496" font-family="Times New Roman,serif" font-size="14.00">EP</text>
</g>
<!-- T16 -->
<g id="node13" class="node"><title>T16</title>
<ellipse fill="none" stroke="black" cx="111" cy="-214.696" rx="27" ry="18"/>
<text text-anchor="middle" x="111" y="-210.996" font-family="Times New Roman,serif" font-size="14.00">T16</text>
</g>
<!-- T17 -->
<g id="node15" class="node"><title>T17</title>
<ellipse fill="none" stroke="black" cx="111" cy="-127.696" rx="27" ry="18"/>
<text text-anchor="middle" x="111" y="-123.996" font-family="Times New Roman,serif" font-size="14.00">T17</text>
</g>
<!-- T16&#45;&gt;T17 -->
<g id="edge23" class="edge"><title>T16&#45;&gt;T17</title>
<path fill="none" stroke="black" d="M111,-196.494C111,-184.858 111,-169.243 111,-155.932"/>
<polygon fill="black" stroke="black" points="114.5,-155.871 111,-145.871 107.5,-155.871 114.5,-155.871"/>
<text text-anchor="middle" x="114.5" y="-167.496" font-family="Times New Roman,serif" font-size="14.00">1</text>
</g>
<!-- T5&#45;&gt;T6 -->
<g id="edge9" class="edge"><title>T5&#45;&gt;T6</title>
<path fill="none" stroke="black" d="M86.5319,-805.902C90.4436,-794.027 95.7681,-777.864 100.252,-764.252"/>
<polygon fill="black" stroke="black" points="103.675,-765.047 103.48,-754.454 97.0265,-762.857 103.675,-765.047"/>
<text text-anchor="middle" x="105.5" y="-776.496" font-family="Times New Roman,serif" font-size="14.00">EP</text>
</g>
<!-- T17&#45;&gt;T18 -->
<g id="edge24" class="edge"><title>T17&#45;&gt;T18</title>
<path fill="none" stroke="black" d="M105.426,-109.913C101.527,-98.1731 96.1645,-82.0277 91.2887,-67.3475"/>
<polygon fill="black" stroke="black" points="94.4886,-65.8776 88.0149,-57.4905 87.8454,-68.084 94.4886,-65.8776"/>
<text text-anchor="middle" x="106.5" y="-80.4955" font-family="Times New Roman,serif" font-size="14.00">EP</text>
</g>
<!-- T12&#45;&gt;T13 -->
<g id="edge18" class="edge"><title>T12&#45;&gt;T13</title>
<path fill="none" stroke="black" d="M92.6778,-370.902C88.1635,-358.911 82.0028,-342.547 76.8474,-328.853"/>
<polygon fill="black" stroke="black" points="80.108,-327.579 73.309,-319.454 73.5568,-330.046 80.108,-327.579"/>
<text text-anchor="middle" x="92.5" y="-341.496" font-family="Times New Roman,serif" font-size="14.00">EP</text>
</g>
<!-- T2&#45;&gt;T3 -->
<g id="edge6" class="edge"><title>T2&#45;&gt;T3</title>
<path fill="none" stroke="black" d="M153,-892.494C153,-880.858 153,-865.243 153,-851.932"/>
<polygon fill="black" stroke="black" points="156.5,-851.871 153,-841.871 149.5,-851.871 156.5,-851.871"/>
<text text-anchor="middle" x="156.5" y="-863.496" font-family="Times New Roman,serif" font-size="14.00">0</text>
</g>
<!-- T0&#45;&gt;T7 -->
<g id="edge3" class="edge"><title>T0&#45;&gt;T7</title>
<path fill="none" stroke="black" d="M41.0391,-1067.09C34.5938,-1050.19 26,-1023.08 26,-998.696 26,-998.696 26,-998.696 26,-735.696 26,-714.711 34.0153,-692.297 41.6181,-675.758"/>
<polygon fill="black" stroke="black" points="44.7704,-677.278 45.9832,-666.753 38.4715,-674.225 44.7704,-677.278"/>
<text text-anchor="middle" x="34.5" y="-863.496" font-family="Times New Roman,serif" font-size="14.00">EP</text>
</g>
<!-- T0&#45;&gt;T1 -->
<g id="edge2" class="edge"><title>T0&#45;&gt;T1</title>
<path fill="none" stroke="black" d="M61.4124,-1068.89C73.374,-1055.69 91.0582,-1036.16 104.743,-1021.06"/>
<polygon fill="black" stroke="black" points="107.363,-1023.38 111.483,-1013.62 102.175,-1018.68 107.363,-1023.38"/>
<text text-anchor="middle" x="101.5" y="-1037.5" font-family="Times New Roman,serif" font-size="14.00">EP</text>
</g>
<!-- T8&#45;&gt;T9 -->
<g id="edge13" class="edge"><title>T8&#45;&gt;T9</title>
<path fill="none" stroke="black" d="M49.4681,-544.902C45.5564,-533.027 40.2319,-516.864 35.7481,-503.252"/>
<polygon fill="black" stroke="black" points="38.9735,-501.857 32.5204,-493.454 32.3249,-504.047 38.9735,-501.857"/>
<text text-anchor="middle" x="50.5" y="-515.496" font-family="Times New Roman,serif" font-size="14.00">EP</text>
</g>
<!-- T8&#45;&gt;T11 -->
<g id="edge14" class="edge"><title>T8&#45;&gt;T11</title>
<path fill="none" stroke="black" d="M63.4836,-545.307C69.8142,-533.077 78.5825,-516.138 85.8228,-502.152"/>
<polygon fill="black" stroke="black" points="89.0535,-503.524 90.5424,-493.034 82.837,-500.306 89.0535,-503.524"/>
<text text-anchor="middle" x="88.5" y="-515.496" font-family="Times New Roman,serif" font-size="14.00">EP</text>
</g>
<!-- T13&#45;&gt;T14 -->
<g id="edge19" class="edge"><title>T13&#45;&gt;T14</title>
<path fill="none" stroke="black" d="M61.4681,-283.902C57.5564,-272.027 52.2319,-255.864 47.7481,-242.252"/>
<polygon fill="black" stroke="black" points="50.9735,-240.857 44.5204,-232.454 44.3249,-243.047 50.9735,-240.857"/>
<text text-anchor="middle" x="62.5" y="-254.496" font-family="Times New Roman,serif" font-size="14.00">EP</text>
</g>
<!-- T13&#45;&gt;T16 -->
<g id="edge20" class="edge"><title>T13&#45;&gt;T16</title>
<path fill="none" stroke="black" d="M75.4836,-284.307C81.8142,-272.077 90.5825,-255.138 97.8228,-241.152"/>
<polygon fill="black" stroke="black" points="101.054,-242.524 102.542,-232.034 94.837,-239.306 101.054,-242.524"/>
<text text-anchor="middle" x="100.5" y="-254.496" font-family="Times New Roman,serif" font-size="14.00">EP</text>
</g>
</g>
</svg>
