<?xml version="1.0" encoding="UTF-8" standalone="no"?>
<!DOCTYPE svg PUBLIC "-//W3C//DTD SVG 1.1//EN"
 "http://www.w3.org/Graphics/SVG/1.1/DTD/svg11.dtd">
<!-- Generated by graphviz version 2.38.0 (20140413.2041)
 -->
<!-- Title: %3 Pages: 1 -->
<svg width="266pt" height="780pt"
 viewBox="0.00 0.00 266.00 780.39" xmlns="http://www.w3.org/2000/svg" xmlns:xlink="http://www.w3.org/1999/xlink">
<g id="graph0" class="graph" transform="scale(1 1) rotate(0) translate(4 776.385)">
<title>%3</title>
<polygon fill="white" stroke="none" points="-4,4 -4,-776.385 262,-776.385 262,4 -4,4"/>
<!-- fake0 -->
<g id="node1" class="node"><title>fake0</title>
</g>
<!-- T0 -->
<g id="node2" class="node"><title>T0</title>
<ellipse fill="none" stroke="black" cx="206" cy="-681.385" rx="27" ry="18"/>
<text text-anchor="middle" x="206" y="-677.685" font-family="Times New Roman,serif" font-size="14.00">T0</text>
</g>
<!-- fake0&#45;&gt;T0 -->
<g id="edge1" class="edge"><title>fake0&#45;&gt;T0</title>
<path fill="none" stroke="black" stroke-width="2" d="M206,-736.198C206,-728.175 206,-718.433 206,-709.454"/>
<polygon fill="black" stroke="black" stroke-width="2" points="209.5,-709.414 206,-699.414 202.5,-709.414 209.5,-709.414"/>
</g>
<!-- T0&#45;&gt;T0 -->
<g id="edge3" class="edge"><title>T0&#45;&gt;T0</title>
<path fill="none" stroke="black" d="M231.443,-688.076C242.028,-688.537 251,-686.307 251,-681.385 251,-678.155 247.136,-676.084 241.488,-675.173"/>
<polygon fill="black" stroke="black" points="241.599,-671.674 231.443,-674.695 241.266,-678.666 241.599,-671.674"/>
<text text-anchor="middle" x="254.5" y="-677.685" font-family="Times New Roman,serif" font-size="14.00">1</text>
</g>
<!-- T1 -->
<g id="node8" class="node"><title>T1</title>
<ellipse fill="none" stroke="black" cx="127" cy="-594.385" rx="27" ry="18"/>
<text text-anchor="middle" x="127" y="-590.685" font-family="Times New Roman,serif" font-size="14.00">T1</text>
</g>
<!-- T0&#45;&gt;T1 -->
<g id="edge2" class="edge"><title>T0&#45;&gt;T1</title>
<path fill="none" stroke="black" d="M192.239,-665.579C179.892,-652.294 161.601,-632.614 147.525,-617.469"/>
<polygon fill="black" stroke="black" points="149.975,-614.964 140.603,-610.021 144.847,-619.729 149.975,-614.964"/>
<text text-anchor="middle" x="175.5" y="-634.185" font-family="Times New Roman,serif" font-size="14.00">0</text>
</g>
<!-- T3 -->
<g id="node3" class="node"><title>T3</title>
<ellipse fill="none" stroke="black" cx="84" cy="-507.385" rx="27" ry="18"/>
<text text-anchor="middle" x="84" y="-503.685" font-family="Times New Roman,serif" font-size="14.00">T3</text>
</g>
<!-- T7 -->
<g id="node4" class="node"><title>T7</title>
<ellipse fill="none" stroke="black" cx="63" cy="-24.7982" rx="20.6302" ry="20.6302"/>
<ellipse fill="none" stroke="black" cx="63" cy="-24.7982" rx="24.5979" ry="24.5979"/>
<text text-anchor="middle" x="63" y="-21.0982" font-family="Times New Roman,serif" font-size="14.00">T7</text>
</g>
<!-- T3&#45;&gt;T7 -->
<g id="edge9" class="edge"><title>T3&#45;&gt;T7</title>
<path fill="none" stroke="black" d="M70.9413,-491.297C57.3417,-473.992 38,-444.178 38,-414.587 38,-414.587 38,-414.587 38,-124.394 38,-101.642 44.3327,-76.8167 50.6236,-57.7686"/>
<polygon fill="black" stroke="black" points="54.0055,-58.6986 53.9744,-48.1038 47.3917,-56.4055 54.0055,-58.6986"/>
<text text-anchor="middle" x="41.5" y="-272.589" font-family="Times New Roman,serif" font-size="14.00">1</text>
</g>
<!-- T6 -->
<g id="node9" class="node"><title>T6</title>
<ellipse fill="none" stroke="black" cx="91" cy="-413.587" rx="20.6302" ry="20.6302"/>
<ellipse fill="none" stroke="black" cx="91" cy="-413.587" rx="24.5979" ry="24.5979"/>
<text text-anchor="middle" x="91" y="-409.887" font-family="Times New Roman,serif" font-size="14.00">T6</text>
</g>
<!-- T3&#45;&gt;T6 -->
<g id="edge8" class="edge"><title>T3&#45;&gt;T6</title>
<path fill="none" stroke="black" d="M80.4865,-489.37C79.471,-483.679 78.5018,-477.282 78,-471.385 77.4348,-464.743 76.9987,-462.976 78,-456.385 78.4644,-453.328 79.1096,-450.187 79.8663,-447.066"/>
<polygon fill="black" stroke="black" points="83.2774,-447.863 82.5789,-437.291 76.5323,-445.991 83.2774,-447.863"/>
<text text-anchor="middle" x="81.5" y="-460.185" font-family="Times New Roman,serif" font-size="14.00">0</text>
</g>
<!-- T7&#45;&gt;T0 -->
<g id="edge17" class="edge"><title>T7&#45;&gt;T0</title>
<path fill="none" stroke="black" d="M87.8322,-27.5355C138.7,-32.583 250,-51.909 250,-124.394 250,-595.385 250,-595.385 250,-595.385 250,-618.239 237.301,-641.069 225.547,-657.306"/>
<polygon fill="black" stroke="black" points="222.495,-655.536 219.201,-665.606 228.056,-659.788 222.495,-655.536"/>
<text text-anchor="middle" x="253.5" y="-359.589" font-family="Times New Roman,serif" font-size="14.00">1</text>
</g>
<!-- T7&#45;&gt;T1 -->
<g id="edge16" class="edge"><title>T7&#45;&gt;T1</title>
<path fill="none" stroke="black" d="M44.4387,-41.9395C25.8552,-59.9861 0,-91.0805 0,-124.394 0,-508.385 0,-508.385 0,-508.385 0,-552.523 53.6313,-575.19 91.1902,-585.653"/>
<polygon fill="black" stroke="black" points="90.7401,-589.153 101.3,-588.288 92.5058,-582.379 90.7401,-589.153"/>
<text text-anchor="middle" x="3.5" y="-316.089" font-family="Times New Roman,serif" font-size="14.00">0</text>
</g>
<!-- T4 -->
<g id="node5" class="node"><title>T4</title>
<ellipse fill="none" stroke="black" cx="129" cy="-225.991" rx="20.6302" ry="20.6302"/>
<ellipse fill="none" stroke="black" cx="129" cy="-225.991" rx="24.5979" ry="24.5979"/>
<text text-anchor="middle" x="129" y="-222.291" font-family="Times New Roman,serif" font-size="14.00">T4</text>
</g>
<!-- T4&#45;&gt;T4 -->
<g id="edge10" class="edge"><title>T4&#45;&gt;T4</title>
<path fill="none" stroke="black" d="M152.332,-235.219C162.77,-236.098 171.798,-233.022 171.798,-225.991 171.798,-221.486 168.093,-218.605 162.686,-217.347"/>
<polygon fill="black" stroke="black" points="162.514,-213.832 152.332,-216.762 162.119,-220.821 162.514,-213.832"/>
<text text-anchor="middle" x="175.298" y="-222.291" font-family="Times New Roman,serif" font-size="14.00">0</text>
</g>
<!-- T5 -->
<g id="node6" class="node"><title>T5</title>
<ellipse fill="none" stroke="black" cx="105" cy="-125.394" rx="20.6302" ry="20.6302"/>
<ellipse fill="none" stroke="black" cx="105" cy="-125.394" rx="24.5979" ry="24.5979"/>
<text text-anchor="middle" x="105" y="-121.694" font-family="Times New Roman,serif" font-size="14.00">T5</text>
</g>
<!-- T4&#45;&gt;T5 -->
<g id="edge11" class="edge"><title>T4&#45;&gt;T5</title>
<path fill="none" stroke="black" d="M123.312,-201.625C120.264,-189.1 116.455,-173.454 113.102,-159.679"/>
<polygon fill="black" stroke="black" points="116.413,-158.481 110.647,-149.593 109.611,-160.137 116.413,-158.481"/>
<text text-anchor="middle" x="122.5" y="-171.993" font-family="Times New Roman,serif" font-size="14.00">1</text>
</g>
<!-- T5&#45;&gt;T7 -->
<g id="edge13" class="edge"><title>T5&#45;&gt;T7</title>
<path fill="none" stroke="black" d="M95.4695,-102.021C89.8848,-88.911 82.7389,-72.1358 76.5733,-57.662"/>
<polygon fill="black" stroke="black" points="79.6319,-55.911 72.4927,-48.0826 73.1918,-58.6544 79.6319,-55.911"/>
<text text-anchor="middle" x="90.5" y="-71.3963" font-family="Times New Roman,serif" font-size="14.00">1</text>
</g>
<!-- T5&#45;&gt;T6 -->
<g id="edge12" class="edge"><title>T5&#45;&gt;T6</title>
<path fill="none" stroke="black" d="M101.157,-149.904C98.9293,-164.601 96.3115,-183.949 95,-201.193 90.2495,-263.651 90.0549,-336.772 90.4532,-378.588"/>
<polygon fill="black" stroke="black" points="86.9554,-378.809 90.5681,-388.768 93.9549,-378.729 86.9554,-378.809"/>
<text text-anchor="middle" x="95.5" y="-272.589" font-family="Times New Roman,serif" font-size="14.00">0</text>
</g>
<!-- T2 -->
<g id="node7" class="node"><title>T2</title>
<ellipse fill="none" stroke="black" cx="138" cy="-319.789" rx="27" ry="18"/>
<text text-anchor="middle" x="138" y="-316.089" font-family="Times New Roman,serif" font-size="14.00">T2</text>
</g>
<!-- T2&#45;&gt;T4 -->
<g id="edge6" class="edge"><title>T2&#45;&gt;T4</title>
<path fill="none" stroke="black" d="M136.307,-301.522C135.187,-290.1 133.681,-274.737 132.327,-260.928"/>
<polygon fill="black" stroke="black" points="135.79,-260.372 131.331,-250.762 128.823,-261.055 135.79,-260.372"/>
<text text-anchor="middle" x="138.5" y="-272.589" font-family="Times New Roman,serif" font-size="14.00">0</text>
</g>
<!-- T2&#45;&gt;T5 -->
<g id="edge7" class="edge"><title>T2&#45;&gt;T5</title>
<path fill="none" stroke="black" d="M152.853,-304.465C164.946,-291.694 181.102,-271.813 188,-250.789 194.871,-229.844 196.961,-221.332 188,-201.193 177.127,-176.757 153.888,-156.945 134.759,-143.865"/>
<polygon fill="black" stroke="black" points="136.601,-140.887 126.318,-138.336 132.766,-146.743 136.601,-140.887"/>
<text text-anchor="middle" x="197.5" y="-222.291" font-family="Times New Roman,serif" font-size="14.00">1</text>
</g>
<!-- T1&#45;&gt;T3 -->
<g id="edge5" class="edge"><title>T1&#45;&gt;T3</title>
<path fill="none" stroke="black" d="M118.709,-576.996C112.523,-564.767 103.953,-547.828 96.8777,-533.841"/>
<polygon fill="black" stroke="black" points="99.9026,-532.067 92.2654,-524.724 93.6564,-535.227 99.9026,-532.067"/>
<text text-anchor="middle" x="112.5" y="-547.185" font-family="Times New Roman,serif" font-size="14.00">1</text>
</g>
<!-- T1&#45;&gt;T2 -->
<g id="edge4" class="edge"><title>T1&#45;&gt;T2</title>
<path fill="none" stroke="black" d="M127.688,-576.333C129.54,-530.438 134.642,-403.998 136.9,-348.041"/>
<polygon fill="black" stroke="black" points="140.406,-347.968 137.312,-337.835 133.412,-347.685 140.406,-347.968"/>
<text text-anchor="middle" x="136.5" y="-460.185" font-family="Times New Roman,serif" font-size="14.00">0</text>
</g>
<!-- T6&#45;&gt;T3 -->
<g id="edge15" class="edge"><title>T6&#45;&gt;T3</title>
<path fill="none" stroke="black" d="M89.1874,-438.358C88.2409,-450.77 87.0779,-466.021 86.0932,-478.935"/>
<polygon fill="black" stroke="black" points="82.5872,-478.882 85.3166,-489.119 89.5669,-479.414 82.5872,-478.882"/>
<text text-anchor="middle" x="91.5" y="-460.185" font-family="Times New Roman,serif" font-size="14.00">1</text>
</g>
<!-- T6&#45;&gt;T2 -->
<g id="edge14" class="edge"><title>T6&#45;&gt;T2</title>
<path fill="none" stroke="black" d="M101.901,-391.296C108.775,-377.869 117.692,-360.454 124.943,-346.291"/>
<polygon fill="black" stroke="black" points="128.21,-347.591 129.651,-337.095 121.979,-344.401 128.21,-347.591"/>
<text text-anchor="middle" x="124.5" y="-359.589" font-family="Times New Roman,serif" font-size="14.00">0</text>
</g>
</g>
</svg>
