<?xml version="1.0" encoding="UTF-8" standalone="no"?>
<!DOCTYPE svg PUBLIC "-//W3C//DTD SVG 1.1//EN"
 "http://www.w3.org/Graphics/SVG/1.1/DTD/svg11.dtd">
<!-- Generated by graphviz version 2.38.0 (20140413.2041)
 -->
<!-- Title: %3 Pages: 1 -->
<svg width="276pt" height="867pt"
 viewBox="0.00 0.00 276.00 867.39" xmlns="http://www.w3.org/2000/svg" xmlns:xlink="http://www.w3.org/1999/xlink">
<g id="graph0" class="graph" transform="scale(1 1) rotate(0) translate(4 863.385)">
<title>%3</title>
<polygon fill="white" stroke="none" points="-4,4 -4,-863.385 272,-863.385 272,4 -4,4"/>
<!-- fake0 -->
<g id="node1" class="node"><title>fake0</title>
</g>
<!-- T0 -->
<g id="node2" class="node"><title>T0</title>
<ellipse fill="none" stroke="black" cx="87" cy="-768.385" rx="27" ry="18"/>
<text text-anchor="middle" x="87" y="-764.685" font-family="Times New Roman,serif" font-size="14.00">T0</text>
</g>
<!-- fake0&#45;&gt;T0 -->
<g id="edge1" class="edge"><title>fake0&#45;&gt;T0</title>
<path fill="none" stroke="black" stroke-width="2" d="M87,-823.198C87,-815.175 87,-805.433 87,-796.454"/>
<polygon fill="black" stroke="black" stroke-width="2" points="90.5001,-796.414 87,-786.414 83.5001,-796.414 90.5001,-796.414"/>
</g>
<!-- T2 -->
<g id="node8" class="node"><title>T2</title>
<ellipse fill="none" stroke="black" cx="27" cy="-681.385" rx="27" ry="18"/>
<text text-anchor="middle" x="27" y="-677.685" font-family="Times New Roman,serif" font-size="14.00">T2</text>
</g>
<!-- T0&#45;&gt;T2 -->
<g id="edge3" class="edge"><title>T0&#45;&gt;T2</title>
<path fill="none" stroke="black" d="M75.9951,-751.795C67.0299,-739.094 54.2199,-720.947 43.9468,-706.393"/>
<polygon fill="black" stroke="black" points="46.5614,-704.028 37.9352,-697.877 40.8426,-708.065 46.5614,-704.028"/>
<text text-anchor="middle" x="64.5" y="-721.185" font-family="Times New Roman,serif" font-size="14.00">1</text>
</g>
<!-- T1 -->
<g id="node9" class="node"><title>T1</title>
<ellipse fill="none" stroke="black" cx="115" cy="-594.385" rx="27" ry="18"/>
<text text-anchor="middle" x="115" y="-590.685" font-family="Times New Roman,serif" font-size="14.00">T1</text>
</g>
<!-- T0&#45;&gt;T1 -->
<g id="edge2" class="edge"><title>T0&#45;&gt;T1</title>
<path fill="none" stroke="black" d="M89.7871,-750.264C94.651,-720.386 104.726,-658.498 110.56,-622.659"/>
<polygon fill="black" stroke="black" points="114.072,-622.869 112.224,-612.437 107.163,-621.745 114.072,-622.869"/>
<text text-anchor="middle" x="107.5" y="-677.685" font-family="Times New Roman,serif" font-size="14.00">0</text>
</g>
<!-- T3 -->
<g id="node3" class="node"><title>T3</title>
<ellipse fill="none" stroke="black" cx="176" cy="-507.385" rx="27" ry="18"/>
<text text-anchor="middle" x="176" y="-503.685" font-family="Times New Roman,serif" font-size="14.00">T3</text>
</g>
<!-- T5 -->
<g id="node7" class="node"><title>T5</title>
<ellipse fill="none" stroke="black" cx="102" cy="-413.587" rx="20.6302" ry="20.6302"/>
<ellipse fill="none" stroke="black" cx="102" cy="-413.587" rx="24.5979" ry="24.5979"/>
<text text-anchor="middle" x="102" y="-409.887" font-family="Times New Roman,serif" font-size="14.00">T5</text>
</g>
<!-- T3&#45;&gt;T5 -->
<g id="edge8" class="edge"><title>T3&#45;&gt;T5</title>
<path fill="none" stroke="black" d="M163.78,-491.227C152.944,-477.783 136.858,-457.829 123.817,-441.651"/>
<polygon fill="black" stroke="black" points="126.32,-439.179 117.319,-433.59 120.87,-443.572 126.32,-439.179"/>
<text text-anchor="middle" x="149.5" y="-460.185" font-family="Times New Roman,serif" font-size="14.00">0</text>
</g>
<!-- T6 -->
<g id="node10" class="node"><title>T6</title>
<ellipse fill="none" stroke="black" cx="163" cy="-312.991" rx="20.6302" ry="20.6302"/>
<ellipse fill="none" stroke="black" cx="163" cy="-312.991" rx="24.5979" ry="24.5979"/>
<text text-anchor="middle" x="163" y="-309.291" font-family="Times New Roman,serif" font-size="14.00">T6</text>
</g>
<!-- T3&#45;&gt;T6 -->
<g id="edge9" class="edge"><title>T3&#45;&gt;T6</title>
<path fill="none" stroke="black" d="M174.846,-489.312C172.708,-457.671 168.095,-389.388 165.298,-347.995"/>
<polygon fill="black" stroke="black" points="168.778,-347.58 164.611,-337.839 161.794,-348.052 168.778,-347.58"/>
<text text-anchor="middle" x="175.5" y="-409.887" font-family="Times New Roman,serif" font-size="14.00">1</text>
</g>
<!-- T8 -->
<g id="node4" class="node"><title>T8</title>
<ellipse fill="none" stroke="black" cx="98" cy="-24.7982" rx="20.6302" ry="20.6302"/>
<ellipse fill="none" stroke="black" cx="98" cy="-24.7982" rx="24.5979" ry="24.5979"/>
<text text-anchor="middle" x="98" y="-21.0982" font-family="Times New Roman,serif" font-size="14.00">T8</text>
</g>
<!-- T8&#45;&gt;T2 -->
<g id="edge19" class="edge"><title>T8&#45;&gt;T2</title>
<path fill="none" stroke="black" d="M75.4863,-35.4986C47.3935,-49.3003 3,-77.46 3,-117.596 3,-595.385 3,-595.385 3,-595.385 3,-615.703 9.42929,-637.759 15.6326,-654.311"/>
<polygon fill="black" stroke="black" points="12.4704,-655.832 19.4063,-663.841 18.9787,-653.255 12.4704,-655.832"/>
<text text-anchor="middle" x="6.5" y="-359.589" font-family="Times New Roman,serif" font-size="14.00">1</text>
</g>
<!-- T8&#45;&gt;T1 -->
<g id="edge18" class="edge"><title>T8&#45;&gt;T1</title>
<path fill="none" stroke="black" d="M81.6837,-43.6405C67.4296,-61.1329 49,-89.2335 49,-117.596 49,-508.385 49,-508.385 49,-508.385 49,-535.442 70.1214,-559.089 88.4673,-574.524"/>
<polygon fill="black" stroke="black" points="86.6146,-577.523 96.6153,-581.021 90.9787,-572.05 86.6146,-577.523"/>
<text text-anchor="middle" x="52.5" y="-309.291" font-family="Times New Roman,serif" font-size="14.00">0</text>
</g>
<!-- T7 -->
<g id="node5" class="node"><title>T7</title>
<ellipse fill="none" stroke="black" cx="202" cy="-212.394" rx="20.6302" ry="20.6302"/>
<ellipse fill="none" stroke="black" cx="202" cy="-212.394" rx="24.5979" ry="24.5979"/>
<text text-anchor="middle" x="202" y="-208.694" font-family="Times New Roman,serif" font-size="14.00">T7</text>
</g>
<!-- T7&#45;&gt;T3 -->
<g id="edge16" class="edge"><title>T7&#45;&gt;T3</title>
<path fill="none" stroke="black" d="M202.991,-237.516C204.375,-283.516 205.052,-386.738 188,-471.385 187.417,-474.278 186.657,-477.26 185.802,-480.205"/>
<polygon fill="black" stroke="black" points="182.415,-479.306 182.65,-489.898 189.071,-481.47 182.415,-479.306"/>
<text text-anchor="middle" x="204.5" y="-359.589" font-family="Times New Roman,serif" font-size="14.00">0</text>
</g>
<!-- T4 -->
<g id="node6" class="node"><title>T4</title>
<ellipse fill="none" stroke="black" cx="211" cy="-118.596" rx="27" ry="18"/>
<text text-anchor="middle" x="211" y="-114.896" font-family="Times New Roman,serif" font-size="14.00">T4</text>
</g>
<!-- T7&#45;&gt;T4 -->
<g id="edge17" class="edge"><title>T7&#45;&gt;T4</title>
<path fill="none" stroke="black" d="M195.652,-188.295C193.695,-177.918 192.611,-165.566 195,-154.596 195.675,-151.497 196.649,-148.344 197.789,-145.264"/>
<polygon fill="black" stroke="black" points="201.112,-146.395 201.831,-135.825 194.677,-143.64 201.112,-146.395"/>
<text text-anchor="middle" x="198.5" y="-158.396" font-family="Times New Roman,serif" font-size="14.00">1</text>
</g>
<!-- T4&#45;&gt;T8 -->
<g id="edge11" class="edge"><title>T4&#45;&gt;T8</title>
<path fill="none" stroke="black" d="M198.039,-102.749C188.577,-92.3301 175.155,-78.3883 162,-67.5963 151.394,-58.896 138.919,-50.4071 127.813,-43.3772"/>
<polygon fill="black" stroke="black" points="129.605,-40.3703 119.262,-38.0761 125.917,-46.3198 129.605,-40.3703"/>
<text text-anchor="middle" x="181.5" y="-71.3963" font-family="Times New Roman,serif" font-size="14.00">1</text>
</g>
<!-- T4&#45;&gt;T7 -->
<g id="edge10" class="edge"><title>T4&#45;&gt;T7</title>
<path fill="none" stroke="black" d="M209.333,-136.601C208.22,-147.95 206.718,-163.27 205.363,-177.09"/>
<polygon fill="black" stroke="black" points="201.857,-176.982 204.365,-187.276 208.824,-177.665 201.857,-176.982"/>
<text text-anchor="middle" x="210.5" y="-158.396" font-family="Times New Roman,serif" font-size="14.00">0</text>
</g>
<!-- T5&#45;&gt;T5 -->
<g id="edge12" class="edge"><title>T5&#45;&gt;T5</title>
<path fill="none" stroke="black" d="M125.332,-422.816C135.77,-423.695 144.798,-420.618 144.798,-413.587 144.798,-409.083 141.093,-406.201 135.686,-404.943"/>
<polygon fill="black" stroke="black" points="135.514,-401.428 125.332,-404.359 135.119,-408.417 135.514,-401.428"/>
<text text-anchor="middle" x="148.298" y="-409.887" font-family="Times New Roman,serif" font-size="14.00">0</text>
</g>
<!-- T5&#45;&gt;T6 -->
<g id="edge13" class="edge"><title>T5&#45;&gt;T6</title>
<path fill="none" stroke="black" d="M114.639,-392.158C123.391,-378.012 135.171,-358.971 144.914,-343.223"/>
<polygon fill="black" stroke="black" points="148.092,-344.739 150.377,-334.394 142.139,-341.056 148.092,-344.739"/>
<text text-anchor="middle" x="140.5" y="-359.589" font-family="Times New Roman,serif" font-size="14.00">1</text>
</g>
<!-- T2&#45;&gt;T2 -->
<g id="edge7" class="edge"><title>T2&#45;&gt;T2</title>
<path fill="none" stroke="black" d="M51.5325,-689.137C62.5078,-689.875 72,-687.291 72,-681.385 72,-677.417 67.7151,-674.948 61.5743,-673.98"/>
<polygon fill="black" stroke="black" points="61.6472,-670.48 51.5325,-673.633 61.4059,-677.476 61.6472,-670.48"/>
<text text-anchor="middle" x="75.5" y="-677.685" font-family="Times New Roman,serif" font-size="14.00">1</text>
</g>
<!-- T2&#45;&gt;T1 -->
<g id="edge6" class="edge"><title>T2&#45;&gt;T1</title>
<path fill="none" stroke="black" d="M41.928,-665.966C55.9188,-652.452 77.0078,-632.082 92.9394,-616.694"/>
<polygon fill="black" stroke="black" points="95.5314,-619.056 100.292,-609.591 90.6682,-614.021 95.5314,-619.056"/>
<text text-anchor="middle" x="82.5" y="-634.185" font-family="Times New Roman,serif" font-size="14.00">0</text>
</g>
<!-- T1&#45;&gt;T3 -->
<g id="edge4" class="edge"><title>T1&#45;&gt;T3</title>
<path fill="none" stroke="black" d="M126.188,-577.795C135.303,-565.094 148.326,-546.947 158.771,-532.393"/>
<polygon fill="black" stroke="black" points="161.896,-534.042 164.883,-523.877 156.209,-529.96 161.896,-534.042"/>
<text text-anchor="middle" x="154.5" y="-547.185" font-family="Times New Roman,serif" font-size="14.00">0</text>
</g>
<!-- T1&#45;&gt;T4 -->
<g id="edge5" class="edge"><title>T1&#45;&gt;T4</title>
<path fill="none" stroke="black" d="M141.439,-590.087C183.513,-583.198 261,-563.086 261,-508.385 261,-508.385 261,-508.385 261,-211.394 261,-185.349 245.286,-159.656 231.477,-142.106"/>
<polygon fill="black" stroke="black" points="233.995,-139.659 224.928,-134.178 228.598,-144.117 233.995,-139.659"/>
<text text-anchor="middle" x="264.5" y="-359.589" font-family="Times New Roman,serif" font-size="14.00">1</text>
</g>
<!-- T6&#45;&gt;T8 -->
<g id="edge15" class="edge"><title>T6&#45;&gt;T8</title>
<path fill="none" stroke="black" d="M157.681,-288.57C146.154,-237.818 118.84,-117.557 105.539,-58.9937"/>
<polygon fill="black" stroke="black" points="108.93,-58.1172 103.302,-49.1407 102.103,-59.6676 108.93,-58.1172"/>
<text text-anchor="middle" x="134.5" y="-158.396" font-family="Times New Roman,serif" font-size="14.00">1</text>
</g>
<!-- T6&#45;&gt;T7 -->
<g id="edge14" class="edge"><title>T6&#45;&gt;T7</title>
<path fill="none" stroke="black" d="M171.85,-289.618C177.036,-276.507 183.671,-259.732 189.396,-245.258"/>
<polygon fill="black" stroke="black" points="192.762,-246.265 193.185,-235.679 186.252,-243.691 192.762,-246.265"/>
<text text-anchor="middle" x="187.5" y="-258.993" font-family="Times New Roman,serif" font-size="14.00">0</text>
</g>
</g>
</svg>
