<?xml version="1.0" encoding="UTF-8" standalone="no"?>
<!DOCTYPE svg PUBLIC "-//W3C//DTD SVG 1.1//EN"
 "http://www.w3.org/Graphics/SVG/1.1/DTD/svg11.dtd">
<!-- Generated by graphviz version 2.38.0 (20140413.2041)
 -->
<!-- Title: %3 Pages: 1 -->
<svg width="137pt" height="492pt"
 viewBox="0.00 0.00 137.00 492.19" xmlns="http://www.w3.org/2000/svg" xmlns:xlink="http://www.w3.org/1999/xlink">
<g id="graph0" class="graph" transform="scale(1 1) rotate(0) translate(4 488.193)">
<title>%3</title>
<polygon fill="white" stroke="none" points="-4,4 -4,-488.193 133,-488.193 133,4 -4,4"/>
<!-- fake0 -->
<g id="node1" class="node"><title>fake0</title>
</g>
<!-- T0 -->
<g id="node3" class="node"><title>T0</title>
<ellipse fill="none" stroke="black" cx="62" cy="-393.193" rx="27" ry="18"/>
<text text-anchor="middle" x="62" y="-389.493" font-family="Times New Roman,serif" font-size="14.00">T0</text>
</g>
<!-- fake0&#45;&gt;T0 -->
<g id="edge1" class="edge"><title>fake0&#45;&gt;T0</title>
<path fill="none" stroke="black" stroke-width="2" d="M62,-448.005C62,-439.982 62,-430.24 62,-421.262"/>
<polygon fill="black" stroke="black" stroke-width="2" points="65.5001,-421.221 62,-411.221 58.5001,-421.221 65.5001,-421.221"/>
</g>
<!-- T2 -->
<g id="node2" class="node"><title>T2</title>
<ellipse fill="none" stroke="black" cx="27" cy="-306.193" rx="27" ry="18"/>
<text text-anchor="middle" x="27" y="-302.493" font-family="Times New Roman,serif" font-size="14.00">T2</text>
</g>
<!-- T3 -->
<g id="node4" class="node"><title>T3</title>
<ellipse fill="none" stroke="black" cx="52" cy="-111.798" rx="20.6302" ry="20.6302"/>
<ellipse fill="none" stroke="black" cx="52" cy="-111.798" rx="24.5979" ry="24.5979"/>
<text text-anchor="middle" x="52" y="-108.098" font-family="Times New Roman,serif" font-size="14.00">T3</text>
</g>
<!-- T2&#45;&gt;T3 -->
<g id="edge6" class="edge"><title>T2&#45;&gt;T3</title>
<path fill="none" stroke="black" d="M20.7845,-288.601C13.0646,-265.617 1.95234,-222.925 11,-187.596 15.2089,-171.161 23.8616,-154.457 32.1379,-141.015"/>
<polygon fill="black" stroke="black" points="35.2923,-142.58 37.7483,-132.274 29.4013,-138.799 35.2923,-142.58"/>
<text text-anchor="middle" x="14.5" y="-208.694" font-family="Times New Roman,serif" font-size="14.00">0</text>
</g>
<!-- T4 -->
<g id="node7" class="node"><title>T4</title>
<ellipse fill="none" stroke="black" cx="52" cy="-212.394" rx="20.6302" ry="20.6302"/>
<ellipse fill="none" stroke="black" cx="52" cy="-212.394" rx="24.5979" ry="24.5979"/>
<text text-anchor="middle" x="52" y="-208.694" font-family="Times New Roman,serif" font-size="14.00">T4</text>
</g>
<!-- T2&#45;&gt;T4 -->
<g id="edge7" class="edge"><title>T2&#45;&gt;T4</title>
<path fill="none" stroke="black" d="M31.5854,-288.355C34.7615,-276.693 39.0956,-260.779 42.9535,-246.613"/>
<polygon fill="black" stroke="black" points="46.4044,-247.261 45.6551,-236.693 39.6503,-245.421 46.4044,-247.261"/>
<text text-anchor="middle" x="44.5" y="-258.993" font-family="Times New Roman,serif" font-size="14.00">1</text>
</g>
<!-- T0&#45;&gt;T2 -->
<g id="edge3" class="edge"><title>T0&#45;&gt;T2</title>
<path fill="none" stroke="black" d="M55.0851,-375.399C50.1155,-363.33 43.3217,-346.831 37.6608,-333.083"/>
<polygon fill="black" stroke="black" points="40.8254,-331.576 33.7814,-323.662 34.3526,-334.241 40.8254,-331.576"/>
<text text-anchor="middle" x="50.5" y="-345.993" font-family="Times New Roman,serif" font-size="14.00">1</text>
</g>
<!-- T1 -->
<g id="node6" class="node"><title>T1</title>
<ellipse fill="none" stroke="black" cx="99" cy="-306.193" rx="27" ry="18"/>
<text text-anchor="middle" x="99" y="-302.493" font-family="Times New Roman,serif" font-size="14.00">T1</text>
</g>
<!-- T0&#45;&gt;T1 -->
<g id="edge2" class="edge"><title>T0&#45;&gt;T1</title>
<path fill="none" stroke="black" d="M69.134,-375.804C74.3724,-363.77 81.5958,-347.175 87.6266,-333.321"/>
<polygon fill="black" stroke="black" points="90.9796,-334.387 91.7617,-323.821 84.5613,-331.593 90.9796,-334.387"/>
<text text-anchor="middle" x="87.5" y="-345.993" font-family="Times New Roman,serif" font-size="14.00">0</text>
</g>
<!-- T5 -->
<g id="node5" class="node"><title>T5</title>
<ellipse fill="none" stroke="black" cx="52" cy="-18" rx="27" ry="18"/>
<text text-anchor="middle" x="52" y="-14.3" font-family="Times New Roman,serif" font-size="14.00">T5</text>
</g>
<!-- T3&#45;&gt;T5 -->
<g id="edge8" class="edge"><title>T3&#45;&gt;T5</title>
<path fill="none" stroke="black" d="M43.355,-88.4921C40.3226,-78.0554 38.0946,-65.4325 40,-54 40.4851,-51.0893 41.1825,-48.0962 42.0004,-45.144"/>
<polygon fill="black" stroke="black" points="45.3903,-46.0349 45.1119,-35.4437 38.7248,-43.8968 45.3903,-46.0349"/>
<text text-anchor="middle" x="43.5" y="-57.8" font-family="Times New Roman,serif" font-size="14.00">0</text>
</g>
<!-- T3&#45;&gt;T5 -->
<g id="edge9" class="edge"><title>T3&#45;&gt;T5</title>
<path fill="none" stroke="black" d="M52,-86.6793C52,-74.2289 52,-58.9952 52,-46.1353"/>
<polygon fill="black" stroke="black" points="55.5001,-46.0044 52,-36.0045 48.5001,-46.0045 55.5001,-46.0044"/>
<text text-anchor="middle" x="55.5" y="-57.8" font-family="Times New Roman,serif" font-size="14.00">1</text>
</g>
<!-- T5&#45;&gt;T5 -->
<g id="edge12" class="edge"><title>T5&#45;&gt;T5</title>
<path fill="none" stroke="black" d="M78.7949,-21.9288C88.7804,-22.0577 97,-20.748 97,-18 97,-16.2825 93.7892,-15.1268 88.9433,-14.5331"/>
<polygon fill="black" stroke="black" points="88.9437,-11.0296 78.7949,-14.0712 88.6253,-18.0223 88.9437,-11.0296"/>
<text text-anchor="middle" x="100.5" y="-14.3" font-family="Times New Roman,serif" font-size="14.00">0</text>
</g>
<!-- T5&#45;&gt;T5 -->
<g id="edge13" class="edge"><title>T5&#45;&gt;T5</title>
<path fill="none" stroke="black" d="M77.2292,-24.9445C96.0405,-27.3695 115,-25.0547 115,-18 115,-12.213 102.242,-9.61542 87.2732,-10.2074"/>
<polygon fill="black" stroke="black" points="86.8992,-6.72644 77.2292,-11.0555 87.4882,-13.7016 86.8992,-6.72644"/>
<text text-anchor="middle" x="118.5" y="-14.3" font-family="Times New Roman,serif" font-size="14.00">1</text>
</g>
<!-- T1&#45;&gt;T3 -->
<g id="edge4" class="edge"><title>T1&#45;&gt;T3</title>
<path fill="none" stroke="black" d="M105.124,-288.312C112.612,-264.993 122.906,-221.914 111,-187.596 104.248,-168.134 90.0995,-149.903 77.3504,-136.314"/>
<polygon fill="black" stroke="black" points="79.5672,-133.575 70.0721,-128.874 74.5635,-138.47 79.5672,-133.575"/>
<text text-anchor="middle" x="120.5" y="-208.694" font-family="Times New Roman,serif" font-size="14.00">0</text>
</g>
<!-- T1&#45;&gt;T4 -->
<g id="edge5" class="edge"><title>T1&#45;&gt;T4</title>
<path fill="none" stroke="black" d="M90.5973,-288.781C84.2125,-276.31 75.2492,-258.804 67.5672,-243.8"/>
<polygon fill="black" stroke="black" points="70.657,-242.154 62.9842,-234.848 64.4262,-245.345 70.657,-242.154"/>
<text text-anchor="middle" x="83.5" y="-258.993" font-family="Times New Roman,serif" font-size="14.00">1</text>
</g>
<!-- T4&#45;&gt;T3 -->
<g id="edge10" class="edge"><title>T4&#45;&gt;T3</title>
<path fill="none" stroke="black" d="M52,-187.527C52,-175.385 52,-160.409 52,-147.059"/>
<polygon fill="black" stroke="black" points="55.5001,-146.787 52,-136.788 48.5001,-146.788 55.5001,-146.787"/>
<text text-anchor="middle" x="55.5" y="-158.396" font-family="Times New Roman,serif" font-size="14.00">0</text>
</g>
<!-- T4&#45;&gt;T4 -->
<g id="edge11" class="edge"><title>T4&#45;&gt;T4</title>
<path fill="none" stroke="black" d="M75.3321,-221.623C85.7704,-222.502 94.7982,-219.426 94.7982,-212.394 94.7982,-207.89 91.0932,-205.009 85.6858,-203.751"/>
<polygon fill="black" stroke="black" points="85.5136,-200.236 75.3321,-203.166 85.1188,-207.224 85.5136,-200.236"/>
<text text-anchor="middle" x="98.2982" y="-208.694" font-family="Times New Roman,serif" font-size="14.00">1</text>
</g>
</g>
</svg>
