<?xml version="1.0" encoding="UTF-8" standalone="no"?>
<!DOCTYPE svg PUBLIC "-//W3C//DTD SVG 1.1//EN"
 "http://www.w3.org/Graphics/SVG/1.1/DTD/svg11.dtd">
<!-- Generated by graphviz version 2.38.0 (20140413.2041)
 -->
<!-- Title: %3 Pages: 1 -->
<svg width="141pt" height="923pt"
 viewBox="0.00 0.00 141.00 922.70" xmlns="http://www.w3.org/2000/svg" xmlns:xlink="http://www.w3.org/1999/xlink">
<g id="graph0" class="graph" transform="scale(1 1) rotate(0) translate(4 918.696)">
<title>%3</title>
<polygon fill="white" stroke="none" points="-4,4 -4,-918.696 137,-918.696 137,4 -4,4"/>
<!-- fake0 -->
<g id="node1" class="node"><title>fake0</title>
</g>
<!-- T0 -->
<g id="node6" class="node"><title>T0</title>
<ellipse fill="none" stroke="black" cx="63" cy="-823.696" rx="27" ry="18"/>
<text text-anchor="middle" x="63" y="-819.996" font-family="Times New Roman,serif" font-size="14.00">T0</text>
</g>
<!-- fake0&#45;&gt;T0 -->
<g id="edge1" class="edge"><title>fake0&#45;&gt;T0</title>
<path fill="none" stroke="black" stroke-width="2" d="M63,-878.508C63,-870.485 63,-860.743 63,-851.765"/>
<polygon fill="black" stroke="black" stroke-width="2" points="66.5001,-851.724 63,-841.724 59.5001,-851.724 66.5001,-851.724"/>
</g>
<!-- T2 -->
<g id="node2" class="node"><title>T2</title>
<ellipse fill="none" stroke="black" cx="99" cy="-649.696" rx="27" ry="18"/>
<text text-anchor="middle" x="99" y="-645.996" font-family="Times New Roman,serif" font-size="14.00">T2</text>
</g>
<!-- T5 -->
<g id="node10" class="node"><title>T5</title>
<ellipse fill="none" stroke="black" cx="67" cy="-562.696" rx="27" ry="18"/>
<text text-anchor="middle" x="67" y="-558.996" font-family="Times New Roman,serif" font-size="14.00">T5</text>
</g>
<!-- T2&#45;&gt;T5 -->
<g id="edge5" class="edge"><title>T2&#45;&gt;T5</title>
<path fill="none" stroke="black" d="M92.6778,-631.902C88.1635,-619.911 82.0028,-603.547 76.8474,-589.853"/>
<polygon fill="black" stroke="black" points="80.108,-588.579 73.309,-580.454 73.5568,-591.046 80.108,-588.579"/>
<text text-anchor="middle" x="92.5" y="-602.496" font-family="Times New Roman,serif" font-size="14.00">EP</text>
</g>
<!-- T6 -->
<g id="node3" class="node"><title>T6</title>
<ellipse fill="none" stroke="black" cx="29" cy="-475.696" rx="27" ry="18"/>
<text text-anchor="middle" x="29" y="-471.996" font-family="Times New Roman,serif" font-size="14.00">T6</text>
</g>
<!-- T7 -->
<g id="node12" class="node"><title>T7</title>
<ellipse fill="none" stroke="black" cx="29" cy="-388.696" rx="27" ry="18"/>
<text text-anchor="middle" x="29" y="-384.996" font-family="Times New Roman,serif" font-size="14.00">T7</text>
</g>
<!-- T6&#45;&gt;T7 -->
<g id="edge10" class="edge"><title>T6&#45;&gt;T7</title>
<path fill="none" stroke="black" d="M17.8217,-459.229C12.129,-449.498 6.98317,-436.576 10,-424.696 10.8774,-421.24 12.1722,-417.757 13.6806,-414.397"/>
<polygon fill="black" stroke="black" points="16.8573,-415.873 18.3282,-405.381 10.6353,-412.666 16.8573,-415.873"/>
<text text-anchor="middle" x="13.5" y="-428.496" font-family="Times New Roman,serif" font-size="14.00">1</text>
</g>
<!-- T10 -->
<g id="node4" class="node"><title>T10</title>
<ellipse fill="none" stroke="black" cx="106" cy="-127.696" rx="27" ry="18"/>
<text text-anchor="middle" x="106" y="-123.996" font-family="Times New Roman,serif" font-size="14.00">T10</text>
</g>
<!-- T13 -->
<g id="node8" class="node"><title>T13</title>
<ellipse fill="none" stroke="black" cx="74" cy="-29.3478" rx="25.2169" ry="25.2169"/>
<ellipse fill="none" stroke="black" cx="74" cy="-29.3478" rx="29.1963" ry="29.1963"/>
<text text-anchor="middle" x="74" y="-25.6478" font-family="Times New Roman,serif" font-size="14.00">T13</text>
</g>
<!-- T10&#45;&gt;T13 -->
<g id="edge16" class="edge"><title>T10&#45;&gt;T13</title>
<path fill="none" stroke="black" d="M100.426,-109.913C96.5268,-98.1731 91.1645,-82.0277 86.2887,-67.3475"/>
<polygon fill="black" stroke="black" points="89.4886,-65.8776 83.0149,-57.4905 82.8454,-68.084 89.4886,-65.8776"/>
<text text-anchor="middle" x="101.5" y="-80.4955" font-family="Times New Roman,serif" font-size="14.00">EP</text>
</g>
<!-- T12 -->
<g id="node5" class="node"><title>T12</title>
<ellipse fill="none" stroke="black" cx="34" cy="-127.696" rx="27" ry="18"/>
<text text-anchor="middle" x="34" y="-123.996" font-family="Times New Roman,serif" font-size="14.00">T12</text>
</g>
<!-- T12&#45;&gt;T13 -->
<g id="edge18" class="edge"><title>T12&#45;&gt;T13</title>
<path fill="none" stroke="black" d="M40.9675,-109.913C45.9617,-97.8833 52.8764,-81.2279 59.0893,-66.2632"/>
<polygon fill="black" stroke="black" points="62.4415,-67.3166 63.0434,-56.7389 55.9765,-64.6326 62.4415,-67.3166"/>
<text text-anchor="middle" x="62.5" y="-80.4955" font-family="Times New Roman,serif" font-size="14.00">EP</text>
</g>
<!-- T3 -->
<g id="node9" class="node"><title>T3</title>
<ellipse fill="none" stroke="black" cx="27" cy="-736.696" rx="27" ry="18"/>
<text text-anchor="middle" x="27" y="-732.996" font-family="Times New Roman,serif" font-size="14.00">T3</text>
</g>
<!-- T0&#45;&gt;T3 -->
<g id="edge2" class="edge"><title>T0&#45;&gt;T3</title>
<path fill="none" stroke="black" d="M55.8876,-805.902C50.776,-793.833 43.788,-777.334 37.9654,-763.586"/>
<polygon fill="black" stroke="black" points="41.098,-762.008 33.9752,-754.165 34.6523,-764.738 41.098,-762.008"/>
<text text-anchor="middle" x="56.5" y="-776.496" font-family="Times New Roman,serif" font-size="14.00">EP</text>
</g>
<!-- T1 -->
<g id="node14" class="node"><title>T1</title>
<ellipse fill="none" stroke="black" cx="99" cy="-736.696" rx="27" ry="18"/>
<text text-anchor="middle" x="99" y="-732.996" font-family="Times New Roman,serif" font-size="14.00">T1</text>
</g>
<!-- T0&#45;&gt;T1 -->
<g id="edge3" class="edge"><title>T0&#45;&gt;T1</title>
<path fill="none" stroke="black" d="M70.1124,-805.902C75.224,-793.833 82.212,-777.334 88.0346,-763.586"/>
<polygon fill="black" stroke="black" points="91.3477,-764.738 92.0248,-754.165 84.902,-762.008 91.3477,-764.738"/>
<text text-anchor="middle" x="92.5" y="-776.496" font-family="Times New Roman,serif" font-size="14.00">EP</text>
</g>
<!-- T11 -->
<g id="node7" class="node"><title>T11</title>
<ellipse fill="none" stroke="black" cx="34" cy="-214.696" rx="27" ry="18"/>
<text text-anchor="middle" x="34" y="-210.996" font-family="Times New Roman,serif" font-size="14.00">T11</text>
</g>
<!-- T11&#45;&gt;T12 -->
<g id="edge17" class="edge"><title>T11&#45;&gt;T12</title>
<path fill="none" stroke="black" d="M34,-196.494C34,-184.858 34,-169.243 34,-155.932"/>
<polygon fill="black" stroke="black" points="37.5001,-155.871 34,-145.871 30.5001,-155.871 37.5001,-155.871"/>
<text text-anchor="middle" x="37.5" y="-167.496" font-family="Times New Roman,serif" font-size="14.00">1</text>
</g>
<!-- T4 -->
<g id="node15" class="node"><title>T4</title>
<ellipse fill="none" stroke="black" cx="27" cy="-649.696" rx="27" ry="18"/>
<text text-anchor="middle" x="27" y="-645.996" font-family="Times New Roman,serif" font-size="14.00">T4</text>
</g>
<!-- T3&#45;&gt;T4 -->
<g id="edge6" class="edge"><title>T3&#45;&gt;T4</title>
<path fill="none" stroke="black" d="M27,-718.494C27,-706.858 27,-691.243 27,-677.932"/>
<polygon fill="black" stroke="black" points="30.5001,-677.871 27,-667.871 23.5001,-677.871 30.5001,-677.871"/>
<text text-anchor="middle" x="30.5" y="-689.496" font-family="Times New Roman,serif" font-size="14.00">1</text>
</g>
<!-- T5&#45;&gt;T6 -->
<g id="edge9" class="edge"><title>T5&#45;&gt;T6</title>
<path fill="none" stroke="black" d="M59.6732,-545.307C54.2585,-533.195 46.7787,-516.464 40.5611,-502.556"/>
<polygon fill="black" stroke="black" points="43.5809,-500.735 36.3043,-493.034 37.1904,-503.592 43.5809,-500.735"/>
<text text-anchor="middle" x="59.5" y="-515.496" font-family="Times New Roman,serif" font-size="14.00">EP</text>
</g>
<!-- T8 -->
<g id="node11" class="node"><title>T8</title>
<ellipse fill="none" stroke="black" cx="62" cy="-301.696" rx="27" ry="18"/>
<text text-anchor="middle" x="62" y="-297.996" font-family="Times New Roman,serif" font-size="14.00">T8</text>
</g>
<!-- T5&#45;&gt;T8 -->
<g id="edge8" class="edge"><title>T5&#45;&gt;T8</title>
<path fill="none" stroke="black" d="M68.6961,-544.481C72.0846,-506.833 78.6558,-414.41 70,-337.696 69.696,-335.001 69.2643,-332.212 68.7571,-329.438"/>
<polygon fill="black" stroke="black" points="72.1807,-328.71 66.6825,-319.653 65.3329,-330.162 72.1807,-328.71"/>
<text text-anchor="middle" x="82.5" y="-428.496" font-family="Times New Roman,serif" font-size="14.00">EP</text>
</g>
<!-- T8&#45;&gt;T11 -->
<g id="edge13" class="edge"><title>T8&#45;&gt;T11</title>
<path fill="none" stroke="black" d="M56.4681,-283.902C52.5564,-272.027 47.2319,-255.864 42.7481,-242.252"/>
<polygon fill="black" stroke="black" points="45.9735,-240.857 39.5204,-232.454 39.3249,-243.047 45.9735,-240.857"/>
<text text-anchor="middle" x="58.5" y="-254.496" font-family="Times New Roman,serif" font-size="14.00">EP</text>
</g>
<!-- T9 -->
<g id="node13" class="node"><title>T9</title>
<ellipse fill="none" stroke="black" cx="106" cy="-214.696" rx="27" ry="18"/>
<text text-anchor="middle" x="106" y="-210.996" font-family="Times New Roman,serif" font-size="14.00">T9</text>
</g>
<!-- T8&#45;&gt;T9 -->
<g id="edge14" class="edge"><title>T8&#45;&gt;T9</title>
<path fill="none" stroke="black" d="M70.4836,-284.307C76.8142,-272.077 85.5825,-255.138 92.8228,-241.152"/>
<polygon fill="black" stroke="black" points="96.0535,-242.524 97.5424,-232.034 89.837,-239.306 96.0535,-242.524"/>
<text text-anchor="middle" x="95.5" y="-254.496" font-family="Times New Roman,serif" font-size="14.00">EP</text>
</g>
<!-- T7&#45;&gt;T6 -->
<g id="edge12" class="edge"><title>T7&#45;&gt;T6</title>
<path fill="none" stroke="black" d="M29,-406.871C29,-418.502 29,-434.115 29,-447.429"/>
<polygon fill="black" stroke="black" points="25.5001,-447.494 29,-457.494 32.5001,-447.495 25.5001,-447.494"/>
<text text-anchor="middle" x="37.5" y="-428.496" font-family="Times New Roman,serif" font-size="14.00">EP</text>
</g>
<!-- T7&#45;&gt;T8 -->
<g id="edge11" class="edge"><title>T7&#45;&gt;T8</title>
<path fill="none" stroke="black" d="M35.5197,-370.902C40.1751,-358.911 46.5284,-342.547 51.8449,-328.853"/>
<polygon fill="black" stroke="black" points="55.1373,-330.043 55.4938,-319.454 48.6118,-327.509 55.1373,-330.043"/>
<text text-anchor="middle" x="57.5" y="-341.496" font-family="Times New Roman,serif" font-size="14.00">EP</text>
</g>
<!-- T9&#45;&gt;T10 -->
<g id="edge15" class="edge"><title>T9&#45;&gt;T10</title>
<path fill="none" stroke="black" d="M106,-196.494C106,-184.858 106,-169.243 106,-155.932"/>
<polygon fill="black" stroke="black" points="109.5,-155.871 106,-145.871 102.5,-155.871 109.5,-155.871"/>
<text text-anchor="middle" x="109.5" y="-167.496" font-family="Times New Roman,serif" font-size="14.00">0</text>
</g>
<!-- T1&#45;&gt;T2 -->
<g id="edge4" class="edge"><title>T1&#45;&gt;T2</title>
<path fill="none" stroke="black" d="M99,-718.494C99,-706.858 99,-691.243 99,-677.932"/>
<polygon fill="black" stroke="black" points="102.5,-677.871 99,-667.871 95.5001,-677.871 102.5,-677.871"/>
<text text-anchor="middle" x="102.5" y="-689.496" font-family="Times New Roman,serif" font-size="14.00">0</text>
</g>
<!-- T4&#45;&gt;T5 -->
<g id="edge7" class="edge"><title>T4&#45;&gt;T5</title>
<path fill="none" stroke="black" d="M34.7124,-632.307C40.4674,-620.077 48.4386,-603.138 55.0207,-589.152"/>
<polygon fill="black" stroke="black" points="58.2201,-590.573 59.3113,-580.034 51.8864,-587.592 58.2201,-590.573"/>
<text text-anchor="middle" x="59.5" y="-602.496" font-family="Times New Roman,serif" font-size="14.00">EP</text>
</g>
</g>
</svg>
