<?xml version="1.0" encoding="UTF-8" standalone="no"?>
<!DOCTYPE svg PUBLIC "-//W3C//DTD SVG 1.1//EN"
 "http://www.w3.org/Graphics/SVG/1.1/DTD/svg11.dtd">
<!-- Generated by graphviz version 2.38.0 (20140413.2041)
 -->
<!-- Title: %3 Pages: 1 -->
<svg width="169pt" height="492pt"
 viewBox="0.00 0.00 168.80 492.19" xmlns="http://www.w3.org/2000/svg" xmlns:xlink="http://www.w3.org/1999/xlink">
<g id="graph0" class="graph" transform="scale(1 1) rotate(0) translate(4 488.193)">
<title>%3</title>
<polygon fill="white" stroke="none" points="-4,4 -4,-488.193 164.798,-488.193 164.798,4 -4,4"/>
<!-- fake0 -->
<g id="node1" class="node"><title>fake0</title>
</g>
<!-- T0 -->
<g id="node5" class="node"><title>T0</title>
<ellipse fill="none" stroke="black" cx="88.7982" cy="-393.193" rx="27" ry="18"/>
<text text-anchor="middle" x="88.7982" y="-389.493" font-family="Times New Roman,serif" font-size="14.00">T0</text>
</g>
<!-- fake0&#45;&gt;T0 -->
<g id="edge1" class="edge"><title>fake0&#45;&gt;T0</title>
<path fill="none" stroke="black" stroke-width="2" d="M88.7982,-448.005C88.7982,-439.982 88.7982,-430.24 88.7982,-421.262"/>
<polygon fill="black" stroke="black" stroke-width="2" points="92.2983,-421.221 88.7982,-411.221 85.2983,-421.221 92.2983,-421.221"/>
</g>
<!-- T3 -->
<g id="node2" class="node"><title>T3</title>
<ellipse fill="none" stroke="black" cx="24.7982" cy="-212.394" rx="20.6302" ry="20.6302"/>
<ellipse fill="none" stroke="black" cx="24.7982" cy="-212.394" rx="24.5979" ry="24.5979"/>
<text text-anchor="middle" x="24.7982" y="-208.694" font-family="Times New Roman,serif" font-size="14.00">T3</text>
</g>
<!-- T3&#45;&gt;T3 -->
<g id="edge9" class="edge"><title>T3&#45;&gt;T3</title>
<path fill="none" stroke="black" d="M48.1303,-221.623C58.5686,-222.502 67.5963,-219.426 67.5963,-212.394 67.5963,-207.89 63.8913,-205.009 58.484,-203.751"/>
<polygon fill="black" stroke="black" points="58.3118,-200.236 48.1303,-203.166 57.9169,-207.224 58.3118,-200.236"/>
<text text-anchor="middle" x="71.0963" y="-208.694" font-family="Times New Roman,serif" font-size="14.00">1</text>
</g>
<!-- T2 -->
<g id="node6" class="node"><title>T2</title>
<ellipse fill="none" stroke="black" cx="83.7982" cy="-111.798" rx="20.6302" ry="20.6302"/>
<ellipse fill="none" stroke="black" cx="83.7982" cy="-111.798" rx="24.5979" ry="24.5979"/>
<text text-anchor="middle" x="83.7982" y="-108.098" font-family="Times New Roman,serif" font-size="14.00">T2</text>
</g>
<!-- T3&#45;&gt;T2 -->
<g id="edge8" class="edge"><title>T3&#45;&gt;T2</title>
<path fill="none" stroke="black" d="M37.3105,-190.485C45.7369,-176.403 56.9684,-157.634 66.2807,-142.072"/>
<polygon fill="black" stroke="black" points="69.3746,-143.718 71.5061,-133.34 63.3679,-140.123 69.3746,-143.718"/>
<text text-anchor="middle" x="62.2982" y="-158.396" font-family="Times New Roman,serif" font-size="14.00">0</text>
</g>
<!-- T4 -->
<g id="node3" class="node"><title>T4</title>
<ellipse fill="none" stroke="black" cx="83.7982" cy="-18" rx="27" ry="18"/>
<text text-anchor="middle" x="83.7982" y="-14.3" font-family="Times New Roman,serif" font-size="14.00">T4</text>
</g>
<!-- T4&#45;&gt;T4 -->
<g id="edge10" class="edge"><title>T4&#45;&gt;T4</title>
<path fill="none" stroke="black" d="M110.593,-21.9288C120.579,-22.0577 128.798,-20.748 128.798,-18 128.798,-16.2825 125.587,-15.1268 120.741,-14.5331"/>
<polygon fill="black" stroke="black" points="120.742,-11.0296 110.593,-14.0712 120.423,-18.0223 120.742,-11.0296"/>
<text text-anchor="middle" x="132.298" y="-14.3" font-family="Times New Roman,serif" font-size="14.00">0</text>
</g>
<!-- T4&#45;&gt;T4 -->
<g id="edge11" class="edge"><title>T4&#45;&gt;T4</title>
<path fill="none" stroke="black" d="M109.027,-24.9445C127.839,-27.3695 146.798,-25.0547 146.798,-18 146.798,-12.213 134.04,-9.61542 119.071,-10.2074"/>
<polygon fill="black" stroke="black" points="118.697,-6.72644 109.027,-11.0555 119.286,-13.7016 118.697,-6.72644"/>
<text text-anchor="middle" x="150.298" y="-14.3" font-family="Times New Roman,serif" font-size="14.00">1</text>
</g>
<!-- T1 -->
<g id="node4" class="node"><title>T1</title>
<ellipse fill="none" stroke="black" cx="88.7982" cy="-306.193" rx="27" ry="18"/>
<text text-anchor="middle" x="88.7982" y="-302.493" font-family="Times New Roman,serif" font-size="14.00">T1</text>
</g>
<!-- T1&#45;&gt;T3 -->
<g id="edge5" class="edge"><title>T1&#45;&gt;T3</title>
<path fill="none" stroke="black" d="M77.9414,-289.62C68.7939,-276.5 55.474,-257.394 44.458,-241.594"/>
<polygon fill="black" stroke="black" points="47.2065,-239.416 38.6162,-233.214 41.4643,-243.419 47.2065,-239.416"/>
<text text-anchor="middle" x="66.2982" y="-258.993" font-family="Times New Roman,serif" font-size="14.00">1</text>
</g>
<!-- T1&#45;&gt;T2 -->
<g id="edge4" class="edge"><title>T1&#45;&gt;T2</title>
<path fill="none" stroke="black" d="M88.3544,-288.119C87.5322,-256.478 85.7576,-188.195 84.6819,-146.802"/>
<polygon fill="black" stroke="black" points="88.1766,-146.552 84.4179,-136.646 81.179,-146.733 88.1766,-146.552"/>
<text text-anchor="middle" x="91.2982" y="-208.694" font-family="Times New Roman,serif" font-size="14.00">0</text>
</g>
<!-- T0&#45;&gt;T1 -->
<g id="edge2" class="edge"><title>T0&#45;&gt;T1</title>
<path fill="none" stroke="black" d="M81.9101,-375.749C79.8342,-369.987 77.8331,-363.402 76.7982,-357.193 75.5067,-349.444 76.521,-341.114 78.4086,-333.518"/>
<polygon fill="black" stroke="black" points="81.8216,-334.325 81.3893,-323.739 75.1257,-332.284 81.8216,-334.325"/>
<text text-anchor="middle" x="80.2982" y="-345.993" font-family="Times New Roman,serif" font-size="14.00">0</text>
</g>
<!-- T0&#45;&gt;T1 -->
<g id="edge3" class="edge"><title>T0&#45;&gt;T1</title>
<path fill="none" stroke="black" d="M88.7982,-374.992C88.7982,-363.355 88.7982,-347.741 88.7982,-334.429"/>
<polygon fill="black" stroke="black" points="92.2983,-334.368 88.7982,-324.368 85.2983,-334.368 92.2983,-334.368"/>
<text text-anchor="middle" x="92.2982" y="-345.993" font-family="Times New Roman,serif" font-size="14.00">1</text>
</g>
<!-- T2&#45;&gt;T4 -->
<g id="edge6" class="edge"><title>T2&#45;&gt;T4</title>
<path fill="none" stroke="black" d="M75.1531,-88.4921C72.1208,-78.0554 69.8927,-65.4325 71.7982,-54 72.2833,-51.0893 72.9807,-48.0962 73.7986,-45.144"/>
<polygon fill="black" stroke="black" points="77.1884,-46.0349 76.9101,-35.4437 70.5229,-43.8968 77.1884,-46.0349"/>
<text text-anchor="middle" x="75.2982" y="-57.8" font-family="Times New Roman,serif" font-size="14.00">0</text>
</g>
<!-- T2&#45;&gt;T4 -->
<g id="edge7" class="edge"><title>T2&#45;&gt;T4</title>
<path fill="none" stroke="black" d="M83.7982,-86.6793C83.7982,-74.2289 83.7982,-58.9952 83.7982,-46.1353"/>
<polygon fill="black" stroke="black" points="87.2983,-46.0044 83.7982,-36.0045 80.2983,-46.0045 87.2983,-46.0044"/>
<text text-anchor="middle" x="87.2982" y="-57.8" font-family="Times New Roman,serif" font-size="14.00">1</text>
</g>
</g>
</svg>
