<?xml version="1.0" encoding="UTF-8" standalone="no"?>
<!DOCTYPE svg PUBLIC "-//W3C//DTD SVG 1.1//EN"
 "http://www.w3.org/Graphics/SVG/1.1/DTD/svg11.dtd">
<!-- Generated by graphviz version 2.38.0 (20140413.2041)
 -->
<!-- Title: %3 Pages: 1 -->
<svg width="152pt" height="923pt"
 viewBox="0.00 0.00 152.00 922.70" xmlns="http://www.w3.org/2000/svg" xmlns:xlink="http://www.w3.org/1999/xlink">
<g id="graph0" class="graph" transform="scale(1 1) rotate(0) translate(4 918.696)">
<title>%3</title>
<polygon fill="white" stroke="none" points="-4,4 -4,-918.696 148,-918.696 148,4 -4,4"/>
<!-- fake0 -->
<g id="node1" class="node"><title>fake0</title>
</g>
<!-- T0 -->
<g id="node8" class="node"><title>T0</title>
<ellipse fill="none" stroke="black" cx="63" cy="-823.696" rx="27" ry="18"/>
<text text-anchor="middle" x="63" y="-819.996" font-family="Times New Roman,serif" font-size="14.00">T0</text>
</g>
<!-- fake0&#45;&gt;T0 -->
<g id="edge1" class="edge"><title>fake0&#45;&gt;T0</title>
<path fill="none" stroke="black" stroke-width="2" d="M63,-878.508C63,-870.485 63,-860.743 63,-851.765"/>
<polygon fill="black" stroke="black" stroke-width="2" points="66.5001,-851.724 63,-841.724 59.5001,-851.724 66.5001,-851.724"/>
</g>
<!-- T3 -->
<g id="node2" class="node"><title>T3</title>
<ellipse fill="none" stroke="black" cx="27" cy="-736.696" rx="27" ry="18"/>
<text text-anchor="middle" x="27" y="-732.996" font-family="Times New Roman,serif" font-size="14.00">T3</text>
</g>
<!-- T4 -->
<g id="node3" class="node"><title>T4</title>
<ellipse fill="none" stroke="black" cx="27" cy="-649.696" rx="27" ry="18"/>
<text text-anchor="middle" x="27" y="-645.996" font-family="Times New Roman,serif" font-size="14.00">T4</text>
</g>
<!-- T3&#45;&gt;T4 -->
<g id="edge6" class="edge"><title>T3&#45;&gt;T4</title>
<path fill="none" stroke="black" d="M27,-718.494C27,-706.858 27,-691.243 27,-677.932"/>
<polygon fill="black" stroke="black" points="30.5001,-677.871 27,-667.871 23.5001,-677.871 30.5001,-677.871"/>
<text text-anchor="middle" x="30.5" y="-689.496" font-family="Times New Roman,serif" font-size="14.00">1</text>
</g>
<!-- T5 -->
<g id="node5" class="node"><title>T5</title>
<ellipse fill="none" stroke="black" cx="67" cy="-562.696" rx="27" ry="18"/>
<text text-anchor="middle" x="67" y="-558.996" font-family="Times New Roman,serif" font-size="14.00">T5</text>
</g>
<!-- T4&#45;&gt;T5 -->
<g id="edge7" class="edge"><title>T4&#45;&gt;T5</title>
<path fill="none" stroke="black" d="M34.7124,-632.307C40.4674,-620.077 48.4386,-603.138 55.0207,-589.152"/>
<polygon fill="black" stroke="black" points="58.2201,-590.573 59.3113,-580.034 51.8864,-587.592 58.2201,-590.573"/>
<text text-anchor="middle" x="59.5" y="-602.496" font-family="Times New Roman,serif" font-size="14.00">EP</text>
</g>
<!-- T9 -->
<g id="node4" class="node"><title>T9</title>
<ellipse fill="none" stroke="black" cx="45" cy="-214.696" rx="27" ry="18"/>
<text text-anchor="middle" x="45" y="-210.996" font-family="Times New Roman,serif" font-size="14.00">T9</text>
</g>
<!-- T10 -->
<g id="node11" class="node"><title>T10</title>
<ellipse fill="none" stroke="black" cx="45" cy="-127.696" rx="27" ry="18"/>
<text text-anchor="middle" x="45" y="-123.996" font-family="Times New Roman,serif" font-size="14.00">T10</text>
</g>
<!-- T9&#45;&gt;T10 -->
<g id="edge15" class="edge"><title>T9&#45;&gt;T10</title>
<path fill="none" stroke="black" d="M45,-196.494C45,-184.858 45,-169.243 45,-155.932"/>
<polygon fill="black" stroke="black" points="48.5001,-155.871 45,-145.871 41.5001,-155.871 48.5001,-155.871"/>
<text text-anchor="middle" x="48.5" y="-167.496" font-family="Times New Roman,serif" font-size="14.00">0</text>
</g>
<!-- T8 -->
<g id="node6" class="node"><title>T8</title>
<ellipse fill="none" stroke="black" cx="73" cy="-301.696" rx="27" ry="18"/>
<text text-anchor="middle" x="73" y="-297.996" font-family="Times New Roman,serif" font-size="14.00">T8</text>
</g>
<!-- T5&#45;&gt;T8 -->
<g id="edge8" class="edge"><title>T5&#45;&gt;T8</title>
<path fill="none" stroke="black" d="M67.1061,-544.571C67.3494,-511.138 68.0817,-434.839 70,-370.696 70.4016,-357.266 71.0382,-342.353 71.6219,-329.922"/>
<polygon fill="black" stroke="black" points="75.1272,-329.895 72.1139,-319.737 68.1354,-329.557 75.1272,-329.895"/>
<text text-anchor="middle" x="76.5" y="-428.496" font-family="Times New Roman,serif" font-size="14.00">EP</text>
</g>
<!-- T6 -->
<g id="node9" class="node"><title>T6</title>
<ellipse fill="none" stroke="black" cx="106" cy="-475.696" rx="27" ry="18"/>
<text text-anchor="middle" x="106" y="-471.996" font-family="Times New Roman,serif" font-size="14.00">T6</text>
</g>
<!-- T5&#45;&gt;T6 -->
<g id="edge9" class="edge"><title>T5&#45;&gt;T6</title>
<path fill="none" stroke="black" d="M74.5196,-545.307C80.1307,-533.077 87.9027,-516.138 94.3202,-502.152"/>
<polygon fill="black" stroke="black" points="97.5143,-503.583 98.5035,-493.034 91.1521,-500.663 97.5143,-503.583"/>
<text text-anchor="middle" x="97.5" y="-515.496" font-family="Times New Roman,serif" font-size="14.00">EP</text>
</g>
<!-- T8&#45;&gt;T9 -->
<g id="edge14" class="edge"><title>T8&#45;&gt;T9</title>
<path fill="none" stroke="black" d="M67.4681,-283.902C63.5564,-272.027 58.2319,-255.864 53.7481,-242.252"/>
<polygon fill="black" stroke="black" points="56.9735,-240.857 50.5204,-232.454 50.3249,-243.047 56.9735,-240.857"/>
<text text-anchor="middle" x="68.5" y="-254.496" font-family="Times New Roman,serif" font-size="14.00">EP</text>
</g>
<!-- T11 -->
<g id="node12" class="node"><title>T11</title>
<ellipse fill="none" stroke="black" cx="117" cy="-214.696" rx="27" ry="18"/>
<text text-anchor="middle" x="117" y="-210.996" font-family="Times New Roman,serif" font-size="14.00">T11</text>
</g>
<!-- T8&#45;&gt;T11 -->
<g id="edge13" class="edge"><title>T8&#45;&gt;T11</title>
<path fill="none" stroke="black" d="M81.4836,-284.307C87.8142,-272.077 96.5825,-255.138 103.823,-241.152"/>
<polygon fill="black" stroke="black" points="107.054,-242.524 108.542,-232.034 100.837,-239.306 107.054,-242.524"/>
<text text-anchor="middle" x="106.5" y="-254.496" font-family="Times New Roman,serif" font-size="14.00">EP</text>
</g>
<!-- T1 -->
<g id="node7" class="node"><title>T1</title>
<ellipse fill="none" stroke="black" cx="99" cy="-736.696" rx="27" ry="18"/>
<text text-anchor="middle" x="99" y="-732.996" font-family="Times New Roman,serif" font-size="14.00">T1</text>
</g>
<!-- T2 -->
<g id="node13" class="node"><title>T2</title>
<ellipse fill="none" stroke="black" cx="99" cy="-649.696" rx="27" ry="18"/>
<text text-anchor="middle" x="99" y="-645.996" font-family="Times New Roman,serif" font-size="14.00">T2</text>
</g>
<!-- T1&#45;&gt;T2 -->
<g id="edge4" class="edge"><title>T1&#45;&gt;T2</title>
<path fill="none" stroke="black" d="M99,-718.494C99,-706.858 99,-691.243 99,-677.932"/>
<polygon fill="black" stroke="black" points="102.5,-677.871 99,-667.871 95.5001,-677.871 102.5,-677.871"/>
<text text-anchor="middle" x="102.5" y="-689.496" font-family="Times New Roman,serif" font-size="14.00">0</text>
</g>
<!-- T0&#45;&gt;T3 -->
<g id="edge2" class="edge"><title>T0&#45;&gt;T3</title>
<path fill="none" stroke="black" d="M55.8876,-805.902C50.776,-793.833 43.788,-777.334 37.9654,-763.586"/>
<polygon fill="black" stroke="black" points="41.098,-762.008 33.9752,-754.165 34.6523,-764.738 41.098,-762.008"/>
<text text-anchor="middle" x="56.5" y="-776.496" font-family="Times New Roman,serif" font-size="14.00">EP</text>
</g>
<!-- T0&#45;&gt;T1 -->
<g id="edge3" class="edge"><title>T0&#45;&gt;T1</title>
<path fill="none" stroke="black" d="M70.1124,-805.902C75.224,-793.833 82.212,-777.334 88.0346,-763.586"/>
<polygon fill="black" stroke="black" points="91.3477,-764.738 92.0248,-754.165 84.902,-762.008 91.3477,-764.738"/>
<text text-anchor="middle" x="92.5" y="-776.496" font-family="Times New Roman,serif" font-size="14.00">EP</text>
</g>
<!-- T7 -->
<g id="node10" class="node"><title>T7</title>
<ellipse fill="none" stroke="black" cx="106" cy="-388.696" rx="27" ry="18"/>
<text text-anchor="middle" x="106" y="-384.996" font-family="Times New Roman,serif" font-size="14.00">T7</text>
</g>
<!-- T6&#45;&gt;T7 -->
<g id="edge10" class="edge"><title>T6&#45;&gt;T7</title>
<path fill="none" stroke="black" d="M102.839,-457.592C101.42,-447.944 100.221,-435.66 101,-424.696 101.183,-422.124 101.44,-419.454 101.743,-416.788"/>
<polygon fill="black" stroke="black" points="105.231,-417.106 103.072,-406.733 98.2914,-416.188 105.231,-417.106"/>
<text text-anchor="middle" x="104.5" y="-428.496" font-family="Times New Roman,serif" font-size="14.00">1</text>
</g>
<!-- T7&#45;&gt;T8 -->
<g id="edge11" class="edge"><title>T7&#45;&gt;T8</title>
<path fill="none" stroke="black" d="M99.4803,-370.902C94.8249,-358.911 88.4716,-342.547 83.1551,-328.853"/>
<polygon fill="black" stroke="black" points="86.3882,-327.509 79.5062,-319.454 79.8627,-330.043 86.3882,-327.509"/>
<text text-anchor="middle" x="99.5" y="-341.496" font-family="Times New Roman,serif" font-size="14.00">EP</text>
</g>
<!-- T7&#45;&gt;T6 -->
<g id="edge12" class="edge"><title>T7&#45;&gt;T6</title>
<path fill="none" stroke="black" d="M106,-406.871C106,-418.502 106,-434.115 106,-447.429"/>
<polygon fill="black" stroke="black" points="102.5,-447.494 106,-457.494 109.5,-447.495 102.5,-447.494"/>
<text text-anchor="middle" x="114.5" y="-428.496" font-family="Times New Roman,serif" font-size="14.00">EP</text>
</g>
<!-- T13 -->
<g id="node14" class="node"><title>T13</title>
<ellipse fill="none" stroke="black" cx="85" cy="-29.3478" rx="25.2169" ry="25.2169"/>
<ellipse fill="none" stroke="black" cx="85" cy="-29.3478" rx="29.1963" ry="29.1963"/>
<text text-anchor="middle" x="85" y="-25.6478" font-family="Times New Roman,serif" font-size="14.00">T13</text>
</g>
<!-- T10&#45;&gt;T13 -->
<g id="edge16" class="edge"><title>T10&#45;&gt;T13</title>
<path fill="none" stroke="black" d="M51.9675,-109.913C56.9617,-97.8833 63.8764,-81.2279 70.0893,-66.2632"/>
<polygon fill="black" stroke="black" points="73.4415,-67.3166 74.0434,-56.7389 66.9765,-64.6326 73.4415,-67.3166"/>
<text text-anchor="middle" x="73.5" y="-80.4955" font-family="Times New Roman,serif" font-size="14.00">EP</text>
</g>
<!-- T12 -->
<g id="node15" class="node"><title>T12</title>
<ellipse fill="none" stroke="black" cx="117" cy="-127.696" rx="27" ry="18"/>
<text text-anchor="middle" x="117" y="-123.996" font-family="Times New Roman,serif" font-size="14.00">T12</text>
</g>
<!-- T11&#45;&gt;T12 -->
<g id="edge17" class="edge"><title>T11&#45;&gt;T12</title>
<path fill="none" stroke="black" d="M117,-196.494C117,-184.858 117,-169.243 117,-155.932"/>
<polygon fill="black" stroke="black" points="120.5,-155.871 117,-145.871 113.5,-155.871 120.5,-155.871"/>
<text text-anchor="middle" x="120.5" y="-167.496" font-family="Times New Roman,serif" font-size="14.00">1</text>
</g>
<!-- T2&#45;&gt;T5 -->
<g id="edge5" class="edge"><title>T2&#45;&gt;T5</title>
<path fill="none" stroke="black" d="M92.6778,-631.902C88.1635,-619.911 82.0028,-603.547 76.8474,-589.853"/>
<polygon fill="black" stroke="black" points="80.108,-588.579 73.309,-580.454 73.5568,-591.046 80.108,-588.579"/>
<text text-anchor="middle" x="92.5" y="-602.496" font-family="Times New Roman,serif" font-size="14.00">EP</text>
</g>
<!-- T12&#45;&gt;T13 -->
<g id="edge18" class="edge"><title>T12&#45;&gt;T13</title>
<path fill="none" stroke="black" d="M111.426,-109.913C107.527,-98.1731 102.164,-82.0277 97.2887,-67.3475"/>
<polygon fill="black" stroke="black" points="100.489,-65.8776 94.0149,-57.4905 93.8454,-68.084 100.489,-65.8776"/>
<text text-anchor="middle" x="112.5" y="-80.4955" font-family="Times New Roman,serif" font-size="14.00">EP</text>
</g>
</g>
</svg>
