<?xml version="1.0" encoding="UTF-8" standalone="no"?>
<!DOCTYPE svg PUBLIC "-//W3C//DTD SVG 1.1//EN"
 "http://www.w3.org/Graphics/SVG/1.1/DTD/svg11.dtd">
<!-- Generated by graphviz version 2.38.0 (20140413.2041)
 -->
<!-- Title: %3 Pages: 1 -->
<svg width="122pt" height="492pt"
 viewBox="0.00 0.00 122.35 492.19" xmlns="http://www.w3.org/2000/svg" xmlns:xlink="http://www.w3.org/1999/xlink">
<g id="graph0" class="graph" transform="scale(1 1) rotate(0) translate(4 488.193)">
<title>%3</title>
<polygon fill="white" stroke="none" points="-4,4 -4,-488.193 118.345,-488.193 118.345,4 -4,4"/>
<!-- fake0 -->
<g id="node1" class="node"><title>fake0</title>
</g>
<!-- T0 -->
<g id="node3" class="node"><title>T0</title>
<ellipse fill="none" stroke="black" cx="30.5473" cy="-393.193" rx="27" ry="18"/>
<text text-anchor="middle" x="30.5473" y="-389.493" font-family="Times New Roman,serif" font-size="14.00">T0</text>
</g>
<!-- fake0&#45;&gt;T0 -->
<g id="edge1" class="edge"><title>fake0&#45;&gt;T0</title>
<path fill="none" stroke="black" stroke-width="2" d="M30.5473,-448.005C30.5473,-439.982 30.5473,-430.24 30.5473,-421.262"/>
<polygon fill="black" stroke="black" stroke-width="2" points="34.0474,-421.221 30.5473,-411.221 27.0474,-421.221 34.0474,-421.221"/>
</g>
<!-- T2 -->
<g id="node2" class="node"><title>T2</title>
<ellipse fill="none" stroke="black" cx="34.5473" cy="-111.798" rx="20.6302" ry="20.6302"/>
<ellipse fill="none" stroke="black" cx="34.5473" cy="-111.798" rx="24.5979" ry="24.5979"/>
<text text-anchor="middle" x="34.5473" y="-108.098" font-family="Times New Roman,serif" font-size="14.00">T2</text>
</g>
<!-- T4 -->
<g id="node6" class="node"><title>T4</title>
<ellipse fill="none" stroke="black" cx="34.5473" cy="-18" rx="27" ry="18"/>
<text text-anchor="middle" x="34.5473" y="-14.3" font-family="Times New Roman,serif" font-size="14.00">T4</text>
</g>
<!-- T2&#45;&gt;T4 -->
<g id="edge6" class="edge"><title>T2&#45;&gt;T4</title>
<path fill="none" stroke="black" d="M25.9023,-88.4921C22.8699,-78.0554 20.6419,-65.4325 22.5473,-54 23.0324,-51.0893 23.7298,-48.0962 24.5477,-45.144"/>
<polygon fill="black" stroke="black" points="27.9376,-46.0349 27.6592,-35.4437 21.2721,-43.8968 27.9376,-46.0349"/>
<text text-anchor="middle" x="26.0473" y="-57.8" font-family="Times New Roman,serif" font-size="14.00">0</text>
</g>
<!-- T2&#45;&gt;T4 -->
<g id="edge7" class="edge"><title>T2&#45;&gt;T4</title>
<path fill="none" stroke="black" d="M34.5473,-86.6793C34.5473,-74.2289 34.5473,-58.9952 34.5473,-46.1353"/>
<polygon fill="black" stroke="black" points="38.0474,-46.0044 34.5473,-36.0045 31.0474,-46.0045 38.0474,-46.0044"/>
<text text-anchor="middle" x="38.0473" y="-57.8" font-family="Times New Roman,serif" font-size="14.00">1</text>
</g>
<!-- T1 -->
<g id="node5" class="node"><title>T1</title>
<ellipse fill="none" stroke="black" cx="30.5473" cy="-306.193" rx="27" ry="18"/>
<text text-anchor="middle" x="30.5473" y="-302.493" font-family="Times New Roman,serif" font-size="14.00">T1</text>
</g>
<!-- T0&#45;&gt;T1 -->
<g id="edge2" class="edge"><title>T0&#45;&gt;T1</title>
<path fill="none" stroke="black" d="M23.6592,-375.749C21.5833,-369.987 19.5822,-363.402 18.5473,-357.193 17.2558,-349.444 18.2702,-341.114 20.1578,-333.518"/>
<polygon fill="black" stroke="black" points="23.5707,-334.325 23.1384,-323.739 16.8748,-332.284 23.5707,-334.325"/>
<text text-anchor="middle" x="22.0473" y="-345.993" font-family="Times New Roman,serif" font-size="14.00">0</text>
</g>
<!-- T0&#45;&gt;T1 -->
<g id="edge3" class="edge"><title>T0&#45;&gt;T1</title>
<path fill="none" stroke="black" d="M30.5473,-374.992C30.5473,-363.355 30.5473,-347.741 30.5473,-334.429"/>
<polygon fill="black" stroke="black" points="34.0474,-334.368 30.5473,-324.368 27.0474,-334.368 34.0474,-334.368"/>
<text text-anchor="middle" x="34.0473" y="-345.993" font-family="Times New Roman,serif" font-size="14.00">1</text>
</g>
<!-- T3 -->
<g id="node4" class="node"><title>T3</title>
<ellipse fill="none" stroke="black" cx="64.5473" cy="-212.394" rx="20.6302" ry="20.6302"/>
<ellipse fill="none" stroke="black" cx="64.5473" cy="-212.394" rx="24.5979" ry="24.5979"/>
<text text-anchor="middle" x="64.5473" y="-208.694" font-family="Times New Roman,serif" font-size="14.00">T3</text>
</g>
<!-- T3&#45;&gt;T2 -->
<g id="edge8" class="edge"><title>T3&#45;&gt;T2</title>
<path fill="none" stroke="black" d="M57.5893,-188.527C53.7172,-175.801 48.83,-159.739 44.5539,-145.685"/>
<polygon fill="black" stroke="black" points="47.8309,-144.432 41.5715,-135.883 41.1341,-146.469 47.8309,-144.432"/>
<text text-anchor="middle" x="55.0473" y="-158.396" font-family="Times New Roman,serif" font-size="14.00">0</text>
</g>
<!-- T3&#45;&gt;T3 -->
<g id="edge9" class="edge"><title>T3&#45;&gt;T3</title>
<path fill="none" stroke="black" d="M87.8794,-221.623C98.3177,-222.502 107.345,-219.426 107.345,-212.394 107.345,-207.89 103.64,-205.009 98.2331,-203.751"/>
<polygon fill="black" stroke="black" points="98.0609,-200.236 87.8794,-203.166 97.6661,-207.224 98.0609,-200.236"/>
<text text-anchor="middle" x="110.845" y="-208.694" font-family="Times New Roman,serif" font-size="14.00">1</text>
</g>
<!-- T1&#45;&gt;T2 -->
<g id="edge4" class="edge"><title>T1&#45;&gt;T2</title>
<path fill="none" stroke="black" d="M28.3073,-288.183C26.617,-274.451 24.4417,-254.616 23.5473,-237.193 22.4172,-215.179 21.9394,-209.58 23.5473,-187.596 24.5346,-174.097 26.5115,-159.336 28.5205,-146.52"/>
<polygon fill="black" stroke="black" points="32.0348,-146.716 30.1945,-136.282 25.1265,-145.586 32.0348,-146.716"/>
<text text-anchor="middle" x="27.0473" y="-208.694" font-family="Times New Roman,serif" font-size="14.00">0</text>
</g>
<!-- T1&#45;&gt;T3 -->
<g id="edge5" class="edge"><title>T1&#45;&gt;T3</title>
<path fill="none" stroke="black" d="M36.7834,-288.355C41.2071,-276.412 47.2827,-260.008 52.6227,-245.59"/>
<polygon fill="black" stroke="black" points="55.9816,-246.598 56.1728,-236.005 49.4174,-244.167 55.9816,-246.598"/>
<text text-anchor="middle" x="53.0473" y="-258.993" font-family="Times New Roman,serif" font-size="14.00">1</text>
</g>
<!-- T4&#45;&gt;T4 -->
<g id="edge10" class="edge"><title>T4&#45;&gt;T4</title>
<path fill="none" stroke="black" d="M61.3421,-21.9288C71.3277,-22.0577 79.5473,-20.748 79.5473,-18 79.5473,-16.2825 76.3365,-15.1268 71.4905,-14.5331"/>
<polygon fill="black" stroke="black" points="71.491,-11.0296 61.3421,-14.0712 71.1726,-18.0223 71.491,-11.0296"/>
<text text-anchor="middle" x="83.0473" y="-14.3" font-family="Times New Roman,serif" font-size="14.00">0</text>
</g>
<!-- T4&#45;&gt;T4 -->
<g id="edge11" class="edge"><title>T4&#45;&gt;T4</title>
<path fill="none" stroke="black" d="M59.7765,-24.9445C78.5878,-27.3695 97.5473,-25.0547 97.5473,-18 97.5473,-12.213 84.7892,-9.61542 69.8205,-10.2074"/>
<polygon fill="black" stroke="black" points="69.4465,-6.72644 59.7765,-11.0555 70.0355,-13.7016 69.4465,-6.72644"/>
<text text-anchor="middle" x="101.047" y="-14.3" font-family="Times New Roman,serif" font-size="14.00">1</text>
</g>
</g>
</svg>
