<?xml version="1.0" encoding="UTF-8" standalone="no"?>
<!DOCTYPE svg PUBLIC "-//W3C//DTD SVG 1.1//EN"
 "http://www.w3.org/Graphics/SVG/1.1/DTD/svg11.dtd">
<!-- Generated by graphviz version 2.38.0 (20140413.2041)
 -->
<!-- Title: %3 Pages: 1 -->
<svg width="140pt" height="419pt"
 viewBox="0.00 0.00 139.80 418.79" xmlns="http://www.w3.org/2000/svg" xmlns:xlink="http://www.w3.org/1999/xlink">
<g id="graph0" class="graph" transform="scale(1 1) rotate(0) translate(4 414.789)">
<title>%3</title>
<polygon fill="white" stroke="none" points="-4,4 -4,-414.789 135.798,-414.789 135.798,4 -4,4"/>
<!-- fake0 -->
<g id="node1" class="node"><title>fake0</title>
</g>
<!-- T0 -->
<g id="node5" class="node"><title>T0</title>
<ellipse fill="none" stroke="black" cx="69.7982" cy="-312.991" rx="20.6302" ry="20.6302"/>
<ellipse fill="none" stroke="black" cx="69.7982" cy="-312.991" rx="24.5979" ry="24.5979"/>
<text text-anchor="middle" x="69.7982" y="-309.291" font-family="Times New Roman,serif" font-size="14.00">T0</text>
</g>
<!-- fake0&#45;&gt;T0 -->
<g id="edge1" class="edge"><title>fake0&#45;&gt;T0</title>
<path fill="none" stroke="black" stroke-width="2" d="M69.7982,-374.523C69.7982,-366.717 69.7982,-357.207 69.7982,-348.059"/>
<polygon fill="black" stroke="black" stroke-width="2" points="73.2983,-347.994 69.7982,-337.994 66.2983,-347.994 73.2983,-347.994"/>
</g>
<!-- T3 -->
<g id="node2" class="node"><title>T3</title>
<ellipse fill="none" stroke="black" cx="54.7982" cy="-18" rx="27" ry="18"/>
<text text-anchor="middle" x="54.7982" y="-14.3" font-family="Times New Roman,serif" font-size="14.00">T3</text>
</g>
<!-- T3&#45;&gt;T3 -->
<g id="edge8" class="edge"><title>T3&#45;&gt;T3</title>
<path fill="none" stroke="black" d="M81.593,-21.9288C91.5786,-22.0577 99.7982,-20.748 99.7982,-18 99.7982,-16.2825 96.5874,-15.1268 91.7414,-14.5331"/>
<polygon fill="black" stroke="black" points="91.7418,-11.0296 81.593,-14.0712 91.4235,-18.0223 91.7418,-11.0296"/>
<text text-anchor="middle" x="103.298" y="-14.3" font-family="Times New Roman,serif" font-size="14.00">0</text>
</g>
<!-- T3&#45;&gt;T3 -->
<g id="edge9" class="edge"><title>T3&#45;&gt;T3</title>
<path fill="none" stroke="black" d="M80.0273,-24.9445C98.8387,-27.3695 117.798,-25.0547 117.798,-18 117.798,-12.213 105.04,-9.61542 90.0713,-10.2074"/>
<polygon fill="black" stroke="black" points="89.6973,-6.72644 80.0273,-11.0555 90.2864,-13.7016 89.6973,-6.72644"/>
<text text-anchor="middle" x="121.298" y="-14.3" font-family="Times New Roman,serif" font-size="14.00">1</text>
</g>
<!-- T1 -->
<g id="node3" class="node"><title>T1</title>
<ellipse fill="none" stroke="black" cx="24.7982" cy="-212.394" rx="20.6302" ry="20.6302"/>
<ellipse fill="none" stroke="black" cx="24.7982" cy="-212.394" rx="24.5979" ry="24.5979"/>
<text text-anchor="middle" x="24.7982" y="-208.694" font-family="Times New Roman,serif" font-size="14.00">T1</text>
</g>
<!-- T2 -->
<g id="node4" class="node"><title>T2</title>
<ellipse fill="none" stroke="black" cx="54.7982" cy="-111.798" rx="20.6302" ry="20.6302"/>
<ellipse fill="none" stroke="black" cx="54.7982" cy="-111.798" rx="24.5979" ry="24.5979"/>
<text text-anchor="middle" x="54.7982" y="-108.098" font-family="Times New Roman,serif" font-size="14.00">T2</text>
</g>
<!-- T1&#45;&gt;T2 -->
<g id="edge4" class="edge"><title>T1&#45;&gt;T2</title>
<path fill="none" stroke="black" d="M23.3455,-187.407C23.4092,-177.087 24.4216,-165.024 27.7982,-154.596 29.3467,-149.814 31.5862,-145.046 34.1225,-140.534"/>
<polygon fill="black" stroke="black" points="37.3046,-142.045 39.6194,-131.706 31.3624,-138.345 37.3046,-142.045"/>
<text text-anchor="middle" x="31.2982" y="-158.396" font-family="Times New Roman,serif" font-size="14.00">0</text>
</g>
<!-- T1&#45;&gt;T2 -->
<g id="edge5" class="edge"><title>T1&#45;&gt;T2</title>
<path fill="none" stroke="black" d="M31.7562,-188.527C35.6283,-175.801 40.5155,-159.739 44.7916,-145.685"/>
<polygon fill="black" stroke="black" points="48.2114,-146.469 47.774,-135.883 41.5145,-144.432 48.2114,-146.469"/>
<text text-anchor="middle" x="45.2982" y="-158.396" font-family="Times New Roman,serif" font-size="14.00">1</text>
</g>
<!-- T2&#45;&gt;T3 -->
<g id="edge7" class="edge"><title>T2&#45;&gt;T3</title>
<path fill="none" stroke="black" d="M54.7982,-86.6793C54.7982,-74.2289 54.7982,-58.9952 54.7982,-46.1353"/>
<polygon fill="black" stroke="black" points="58.2983,-46.0044 54.7982,-36.0045 51.2983,-46.0045 58.2983,-46.0044"/>
<text text-anchor="middle" x="58.2982" y="-57.8" font-family="Times New Roman,serif" font-size="14.00">1</text>
</g>
<!-- T2&#45;&gt;T2 -->
<g id="edge6" class="edge"><title>T2&#45;&gt;T2</title>
<path fill="none" stroke="black" d="M78.1303,-121.027C88.5686,-121.906 97.5963,-118.829 97.5963,-111.798 97.5963,-107.294 93.8913,-104.413 88.484,-103.154"/>
<polygon fill="black" stroke="black" points="88.3118,-99.6392 78.1303,-102.57 87.9169,-106.628 88.3118,-99.6392"/>
<text text-anchor="middle" x="101.096" y="-108.098" font-family="Times New Roman,serif" font-size="14.00">0</text>
</g>
<!-- T0&#45;&gt;T1 -->
<g id="edge2" class="edge"><title>T0&#45;&gt;T1</title>
<path fill="none" stroke="black" d="M59.8112,-290.109C53.6939,-276.706 45.7672,-259.338 39.0034,-244.519"/>
<polygon fill="black" stroke="black" points="42.0934,-242.859 34.7572,-235.215 35.7253,-245.766 42.0934,-242.859"/>
<text text-anchor="middle" x="54.2982" y="-258.993" font-family="Times New Roman,serif" font-size="14.00">0</text>
</g>
<!-- T0&#45;&gt;T2 -->
<g id="edge3" class="edge"><title>T0&#45;&gt;T2</title>
<path fill="none" stroke="black" d="M67.9888,-287.963C65.3351,-252.723 60.3755,-186.863 57.3518,-146.709"/>
<polygon fill="black" stroke="black" points="60.8317,-146.31 56.5906,-136.601 53.8515,-146.835 60.8317,-146.31"/>
<text text-anchor="middle" x="68.2982" y="-208.694" font-family="Times New Roman,serif" font-size="14.00">1</text>
</g>
</g>
</svg>
