<?xml version="1.0" encoding="UTF-8" standalone="no"?>
<!DOCTYPE svg PUBLIC "-//W3C//DTD SVG 1.1//EN"
 "http://www.w3.org/Graphics/SVG/1.1/DTD/svg11.dtd">
<!-- Generated by graphviz version 2.38.0 (20140413.2041)
 -->
<!-- Title: %3 Pages: 1 -->
<svg width="205pt" height="1097pt"
 viewBox="0.00 0.00 205.00 1096.70" xmlns="http://www.w3.org/2000/svg" xmlns:xlink="http://www.w3.org/1999/xlink">
<g id="graph0" class="graph" transform="scale(1 1) rotate(0) translate(4 1092.7)">
<title>%3</title>
<polygon fill="white" stroke="none" points="-4,4 -4,-1092.7 201,-1092.7 201,4 -4,4"/>
<!-- fake0 -->
<g id="node1" class="node"><title>fake0</title>
</g>
<!-- T0 -->
<g id="node13" class="node"><title>T0</title>
<ellipse fill="none" stroke="black" cx="59" cy="-997.696" rx="27" ry="18"/>
<text text-anchor="middle" x="59" y="-993.996" font-family="Times New Roman,serif" font-size="14.00">T0</text>
</g>
<!-- fake0&#45;&gt;T0 -->
<g id="edge1" class="edge"><title>fake0&#45;&gt;T0</title>
<path fill="none" stroke="black" stroke-width="2" d="M59,-1052.51C59,-1044.48 59,-1034.74 59,-1025.76"/>
<polygon fill="black" stroke="black" stroke-width="2" points="62.5001,-1025.72 59,-1015.72 55.5001,-1025.72 62.5001,-1025.72"/>
</g>
<!-- T8 -->
<g id="node2" class="node"><title>T8</title>
<ellipse fill="none" stroke="black" cx="170" cy="-475.696" rx="27" ry="18"/>
<text text-anchor="middle" x="170" y="-471.996" font-family="Times New Roman,serif" font-size="14.00">T8</text>
</g>
<!-- T9 -->
<g id="node11" class="node"><title>T9</title>
<ellipse fill="none" stroke="black" cx="98" cy="-388.696" rx="27" ry="18"/>
<text text-anchor="middle" x="98" y="-384.996" font-family="Times New Roman,serif" font-size="14.00">T9</text>
</g>
<!-- T8&#45;&gt;T9 -->
<g id="edge13" class="edge"><title>T8&#45;&gt;T9</title>
<path fill="none" stroke="black" d="M157.128,-459.499C146.07,-446.445 129.964,-427.431 117.353,-412.543"/>
<polygon fill="black" stroke="black" points="119.895,-410.128 110.761,-404.76 114.554,-414.653 119.895,-410.128"/>
<text text-anchor="middle" x="146.5" y="-428.496" font-family="Times New Roman,serif" font-size="14.00">EP</text>
</g>
<!-- T11 -->
<g id="node3" class="node"><title>T11</title>
<ellipse fill="none" stroke="black" cx="27" cy="-214.696" rx="27" ry="18"/>
<text text-anchor="middle" x="27" y="-210.996" font-family="Times New Roman,serif" font-size="14.00">T11</text>
</g>
<!-- T12 -->
<g id="node5" class="node"><title>T12</title>
<ellipse fill="none" stroke="black" cx="27" cy="-127.696" rx="27" ry="18"/>
<text text-anchor="middle" x="27" y="-123.996" font-family="Times New Roman,serif" font-size="14.00">T12</text>
</g>
<!-- T11&#45;&gt;T12 -->
<g id="edge17" class="edge"><title>T11&#45;&gt;T12</title>
<path fill="none" stroke="black" d="M15.8217,-198.229C10.129,-188.498 4.98317,-175.576 8,-163.696 8.87741,-160.24 10.1722,-156.757 11.6806,-153.397"/>
<polygon fill="black" stroke="black" points="14.8573,-154.873 16.3282,-144.381 8.6353,-151.666 14.8573,-154.873"/>
<text text-anchor="middle" x="11.5" y="-167.496" font-family="Times New Roman,serif" font-size="14.00">0</text>
</g>
<!-- T3 -->
<g id="node4" class="node"><title>T3</title>
<ellipse fill="none" stroke="black" cx="59" cy="-736.696" rx="27" ry="18"/>
<text text-anchor="middle" x="59" y="-732.996" font-family="Times New Roman,serif" font-size="14.00">T3</text>
</g>
<!-- T10 -->
<g id="node6" class="node"><title>T10</title>
<ellipse fill="none" stroke="black" cx="65" cy="-301.696" rx="27" ry="18"/>
<text text-anchor="middle" x="65" y="-297.996" font-family="Times New Roman,serif" font-size="14.00">T10</text>
</g>
<!-- T3&#45;&gt;T10 -->
<g id="edge6" class="edge"><title>T3&#45;&gt;T10</title>
<path fill="none" stroke="black" d="M53.9375,-718.937C49.25,-701.918 43,-674.721 43,-650.696 43,-650.696 43,-650.696 43,-387.696 43,-367.498 48.8935,-345.438 54.5798,-328.854"/>
<polygon fill="black" stroke="black" points="57.9251,-329.895 58.0391,-319.301 51.3433,-327.512 57.9251,-329.895"/>
<text text-anchor="middle" x="51.5" y="-515.496" font-family="Times New Roman,serif" font-size="14.00">EP</text>
</g>
<!-- T4 -->
<g id="node7" class="node"><title>T4</title>
<ellipse fill="none" stroke="black" cx="98" cy="-649.696" rx="27" ry="18"/>
<text text-anchor="middle" x="98" y="-645.996" font-family="Times New Roman,serif" font-size="14.00">T4</text>
</g>
<!-- T3&#45;&gt;T4 -->
<g id="edge7" class="edge"><title>T3&#45;&gt;T4</title>
<path fill="none" stroke="black" d="M66.5196,-719.307C72.1307,-707.077 79.9027,-690.138 86.3202,-676.152"/>
<polygon fill="black" stroke="black" points="89.5143,-677.583 90.5035,-667.034 83.1521,-674.663 89.5143,-677.583"/>
<text text-anchor="middle" x="89.5" y="-689.496" font-family="Times New Roman,serif" font-size="14.00">EP</text>
</g>
<!-- T12&#45;&gt;T11 -->
<g id="edge18" class="edge"><title>T12&#45;&gt;T11</title>
<path fill="none" stroke="black" d="M27,-145.871C27,-157.502 27,-173.115 27,-186.429"/>
<polygon fill="black" stroke="black" points="23.5001,-186.494 27,-196.494 30.5001,-186.495 23.5001,-186.494"/>
<text text-anchor="middle" x="35.5" y="-167.496" font-family="Times New Roman,serif" font-size="14.00">EP</text>
</g>
<!-- T13 -->
<g id="node8" class="node"><title>T13</title>
<ellipse fill="none" stroke="black" cx="60" cy="-29.3478" rx="25.2169" ry="25.2169"/>
<ellipse fill="none" stroke="black" cx="60" cy="-29.3478" rx="29.1963" ry="29.1963"/>
<text text-anchor="middle" x="60" y="-25.6478" font-family="Times New Roman,serif" font-size="14.00">T13</text>
</g>
<!-- T12&#45;&gt;T13 -->
<g id="edge19" class="edge"><title>T12&#45;&gt;T13</title>
<path fill="none" stroke="black" d="M32.7482,-109.913C36.7692,-98.1731 42.2991,-82.0277 47.3272,-67.3475"/>
<polygon fill="black" stroke="black" points="50.7742,-68.0851 50.7033,-57.4905 44.1518,-65.8169 50.7742,-68.0851"/>
<text text-anchor="middle" x="52.5" y="-80.4955" font-family="Times New Roman,serif" font-size="14.00">EP</text>
</g>
<!-- T10&#45;&gt;T11 -->
<g id="edge15" class="edge"><title>T10&#45;&gt;T11</title>
<path fill="none" stroke="black" d="M57.6732,-284.307C52.2585,-272.195 44.7787,-255.464 38.5611,-241.556"/>
<polygon fill="black" stroke="black" points="41.5809,-239.735 34.3043,-232.034 35.1904,-242.592 41.5809,-239.735"/>
<text text-anchor="middle" x="56.5" y="-254.496" font-family="Times New Roman,serif" font-size="14.00">EP</text>
</g>
<!-- T10&#45;&gt;T13 -->
<g id="edge16" class="edge"><title>T10&#45;&gt;T13</title>
<path fill="none" stroke="black" d="M66.7575,-283.624C67.2653,-277.929 67.7498,-271.545 68,-265.696 68.2849,-259.035 68.0575,-257.362 68,-250.696 67.3333,-173.354 69.8195,-153.89 65,-76.6955 64.8411,-74.1511 64.6457,-71.5311 64.425,-68.8927"/>
<polygon fill="black" stroke="black" points="67.8919,-68.3753 63.4732,-58.7459 60.9225,-69.0291 67.8919,-68.3753"/>
<text text-anchor="middle" x="76.5" y="-167.496" font-family="Times New Roman,serif" font-size="14.00">EP</text>
</g>
<!-- T5 -->
<g id="node10" class="node"><title>T5</title>
<ellipse fill="none" stroke="black" cx="98" cy="-562.696" rx="27" ry="18"/>
<text text-anchor="middle" x="98" y="-558.996" font-family="Times New Roman,serif" font-size="14.00">T5</text>
</g>
<!-- T4&#45;&gt;T5 -->
<g id="edge9" class="edge"><title>T4&#45;&gt;T5</title>
<path fill="none" stroke="black" d="M98,-631.494C98,-619.858 98,-604.243 98,-590.932"/>
<polygon fill="black" stroke="black" points="101.5,-590.871 98,-580.871 94.5001,-590.871 101.5,-590.871"/>
<text text-anchor="middle" x="106.5" y="-602.496" font-family="Times New Roman,serif" font-size="14.00">EP</text>
</g>
<!-- T7 -->
<g id="node12" class="node"><title>T7</title>
<ellipse fill="none" stroke="black" cx="170" cy="-562.696" rx="27" ry="18"/>
<text text-anchor="middle" x="170" y="-558.996" font-family="Times New Roman,serif" font-size="14.00">T7</text>
</g>
<!-- T4&#45;&gt;T7 -->
<g id="edge8" class="edge"><title>T4&#45;&gt;T7</title>
<path fill="none" stroke="black" d="M110.872,-633.499C121.93,-620.445 138.036,-601.431 150.647,-586.543"/>
<polygon fill="black" stroke="black" points="153.446,-588.653 157.239,-578.76 148.105,-584.128 153.446,-588.653"/>
<text text-anchor="middle" x="148.5" y="-602.496" font-family="Times New Roman,serif" font-size="14.00">EP</text>
</g>
<!-- T2 -->
<g id="node9" class="node"><title>T2</title>
<ellipse fill="none" stroke="black" cx="92" cy="-823.696" rx="27" ry="18"/>
<text text-anchor="middle" x="92" y="-819.996" font-family="Times New Roman,serif" font-size="14.00">T2</text>
</g>
<!-- T2&#45;&gt;T3 -->
<g id="edge5" class="edge"><title>T2&#45;&gt;T3</title>
<path fill="none" stroke="black" d="M85.4803,-805.902C80.8249,-793.911 74.4716,-777.547 69.1551,-763.853"/>
<polygon fill="black" stroke="black" points="72.3882,-762.509 65.5062,-754.454 65.8627,-765.043 72.3882,-762.509"/>
<text text-anchor="middle" x="85.5" y="-776.496" font-family="Times New Roman,serif" font-size="14.00">EP</text>
</g>
<!-- T6 -->
<g id="node15" class="node"><title>T6</title>
<ellipse fill="none" stroke="black" cx="98" cy="-475.696" rx="27" ry="18"/>
<text text-anchor="middle" x="98" y="-471.996" font-family="Times New Roman,serif" font-size="14.00">T6</text>
</g>
<!-- T5&#45;&gt;T6 -->
<g id="edge10" class="edge"><title>T5&#45;&gt;T6</title>
<path fill="none" stroke="black" d="M98,-544.494C98,-532.858 98,-517.243 98,-503.932"/>
<polygon fill="black" stroke="black" points="101.5,-503.871 98,-493.871 94.5001,-503.871 101.5,-503.871"/>
<text text-anchor="middle" x="101.5" y="-515.496" font-family="Times New Roman,serif" font-size="14.00">1</text>
</g>
<!-- T9&#45;&gt;T10 -->
<g id="edge14" class="edge"><title>T9&#45;&gt;T10</title>
<path fill="none" stroke="black" d="M91.4803,-370.902C86.8249,-358.911 80.4716,-342.547 75.1551,-328.853"/>
<polygon fill="black" stroke="black" points="78.3882,-327.509 71.5062,-319.454 71.8627,-330.043 78.3882,-327.509"/>
<text text-anchor="middle" x="91.5" y="-341.496" font-family="Times New Roman,serif" font-size="14.00">EP</text>
</g>
<!-- T7&#45;&gt;T8 -->
<g id="edge12" class="edge"><title>T7&#45;&gt;T8</title>
<path fill="none" stroke="black" d="M170,-544.494C170,-532.858 170,-517.243 170,-503.932"/>
<polygon fill="black" stroke="black" points="173.5,-503.871 170,-493.871 166.5,-503.871 173.5,-503.871"/>
<text text-anchor="middle" x="178.5" y="-515.496" font-family="Times New Roman,serif" font-size="14.00">EP</text>
</g>
<!-- T0&#45;&gt;T3 -->
<g id="edge2" class="edge"><title>T0&#45;&gt;T3</title>
<path fill="none" stroke="black" d="M58.0398,-979.655C57.3152,-965.906 56.3829,-946.062 56,-928.696 54.795,-874.042 54.795,-860.349 56,-805.696 56.2962,-792.263 56.921,-777.35 57.5241,-764.92"/>
<polygon fill="black" stroke="black" points="61.0295,-764.9 58.0398,-754.736 54.0385,-764.546 61.0295,-764.9"/>
<text text-anchor="middle" x="63.5" y="-863.496" font-family="Times New Roman,serif" font-size="14.00">EP</text>
</g>
<!-- T1 -->
<g id="node14" class="node"><title>T1</title>
<ellipse fill="none" stroke="black" cx="92" cy="-910.696" rx="27" ry="18"/>
<text text-anchor="middle" x="92" y="-906.996" font-family="Times New Roman,serif" font-size="14.00">T1</text>
</g>
<!-- T0&#45;&gt;T1 -->
<g id="edge3" class="edge"><title>T0&#45;&gt;T1</title>
<path fill="none" stroke="black" d="M65.5197,-979.902C70.1751,-967.911 76.5284,-951.547 81.8449,-937.853"/>
<polygon fill="black" stroke="black" points="85.1373,-939.043 85.4938,-928.454 78.6118,-936.509 85.1373,-939.043"/>
<text text-anchor="middle" x="86.5" y="-950.496" font-family="Times New Roman,serif" font-size="14.00">EP</text>
</g>
<!-- T1&#45;&gt;T2 -->
<g id="edge4" class="edge"><title>T1&#45;&gt;T2</title>
<path fill="none" stroke="black" d="M92,-892.494C92,-880.858 92,-865.243 92,-851.932"/>
<polygon fill="black" stroke="black" points="95.5001,-851.871 92,-841.871 88.5001,-851.871 95.5001,-851.871"/>
<text text-anchor="middle" x="95.5" y="-863.496" font-family="Times New Roman,serif" font-size="14.00">0</text>
</g>
<!-- T6&#45;&gt;T9 -->
<g id="edge11" class="edge"><title>T6&#45;&gt;T9</title>
<path fill="none" stroke="black" d="M98,-457.494C98,-445.858 98,-430.243 98,-416.932"/>
<polygon fill="black" stroke="black" points="101.5,-416.871 98,-406.871 94.5001,-416.871 101.5,-416.871"/>
<text text-anchor="middle" x="106.5" y="-428.496" font-family="Times New Roman,serif" font-size="14.00">EP</text>
</g>
</g>
</svg>
