<?xml version="1.0" encoding="UTF-8" standalone="no"?>
<!DOCTYPE svg PUBLIC "-//W3C//DTD SVG 1.1//EN"
 "http://www.w3.org/Graphics/SVG/1.1/DTD/svg11.dtd">
<!-- Generated by graphviz version 2.38.0 (20140413.2041)
 -->
<!-- Title: %3 Pages: 1 -->
<svg width="133pt" height="519pt"
 viewBox="0.00 0.00 132.60 519.39" xmlns="http://www.w3.org/2000/svg" xmlns:xlink="http://www.w3.org/1999/xlink">
<g id="graph0" class="graph" transform="scale(1 1) rotate(0) translate(4 515.385)">
<title>%3</title>
<polygon fill="white" stroke="none" points="-4,4 -4,-515.385 128.596,-515.385 128.596,4 -4,4"/>
<!-- fake0 -->
<g id="node1" class="node"><title>fake0</title>
</g>
<!-- T0 -->
<g id="node5" class="node"><title>T0</title>
<ellipse fill="none" stroke="black" cx="44.7982" cy="-413.587" rx="20.6302" ry="20.6302"/>
<ellipse fill="none" stroke="black" cx="44.7982" cy="-413.587" rx="24.5979" ry="24.5979"/>
<text text-anchor="middle" x="44.7982" y="-409.887" font-family="Times New Roman,serif" font-size="14.00">T0</text>
</g>
<!-- fake0&#45;&gt;T0 -->
<g id="edge1" class="edge"><title>fake0&#45;&gt;T0</title>
<path fill="none" stroke="black" stroke-width="2" d="M44.7982,-475.119C44.7982,-467.313 44.7982,-457.803 44.7982,-448.655"/>
<polygon fill="black" stroke="black" stroke-width="2" points="48.2983,-448.59 44.7982,-438.59 41.2983,-448.59 48.2983,-448.59"/>
</g>
<!-- T3 -->
<g id="node2" class="node"><title>T3</title>
<ellipse fill="none" stroke="black" cx="74.7982" cy="-111.798" rx="20.6302" ry="20.6302"/>
<ellipse fill="none" stroke="black" cx="74.7982" cy="-111.798" rx="24.5979" ry="24.5979"/>
<text text-anchor="middle" x="74.7982" y="-108.098" font-family="Times New Roman,serif" font-size="14.00">T3</text>
</g>
<!-- T3&#45;&gt;T3 -->
<g id="edge8" class="edge"><title>T3&#45;&gt;T3</title>
<path fill="none" stroke="black" d="M98.1303,-121.027C108.569,-121.906 117.596,-118.829 117.596,-111.798 117.596,-107.294 113.891,-104.413 108.484,-103.154"/>
<polygon fill="black" stroke="black" points="108.312,-99.6392 98.1303,-102.57 107.917,-106.628 108.312,-99.6392"/>
<text text-anchor="middle" x="121.096" y="-108.098" font-family="Times New Roman,serif" font-size="14.00">0</text>
</g>
<!-- T4 -->
<g id="node3" class="node"><title>T4</title>
<ellipse fill="none" stroke="black" cx="44.7982" cy="-18" rx="27" ry="18"/>
<text text-anchor="middle" x="44.7982" y="-14.3" font-family="Times New Roman,serif" font-size="14.00">T4</text>
</g>
<!-- T3&#45;&gt;T4 -->
<g id="edge9" class="edge"><title>T3&#45;&gt;T4</title>
<path fill="none" stroke="black" d="M67.3824,-88.1065C63.1514,-75.1599 57.8279,-58.8703 53.4122,-45.3585"/>
<polygon fill="black" stroke="black" points="56.6789,-44.0869 50.2456,-35.6689 50.0252,-46.2614 56.6789,-44.0869"/>
<text text-anchor="middle" x="64.2982" y="-57.8" font-family="Times New Roman,serif" font-size="14.00">1</text>
</g>
<!-- T4&#45;&gt;T4 -->
<g id="edge10" class="edge"><title>T4&#45;&gt;T4</title>
<path fill="none" stroke="black" d="M71.593,-21.9288C81.5786,-22.0577 89.7982,-20.748 89.7982,-18 89.7982,-16.2825 86.5874,-15.1268 81.7414,-14.5331"/>
<polygon fill="black" stroke="black" points="81.7418,-11.0296 71.593,-14.0712 81.4235,-18.0223 81.7418,-11.0296"/>
<text text-anchor="middle" x="93.2982" y="-14.3" font-family="Times New Roman,serif" font-size="14.00">0</text>
</g>
<!-- T4&#45;&gt;T4 -->
<g id="edge11" class="edge"><title>T4&#45;&gt;T4</title>
<path fill="none" stroke="black" d="M70.0273,-24.9445C88.8387,-27.3695 107.798,-25.0547 107.798,-18 107.798,-12.213 95.0401,-9.61542 80.0713,-10.2074"/>
<polygon fill="black" stroke="black" points="79.6973,-6.72644 70.0273,-11.0555 80.2864,-13.7016 79.6973,-6.72644"/>
<text text-anchor="middle" x="111.298" y="-14.3" font-family="Times New Roman,serif" font-size="14.00">1</text>
</g>
<!-- T2 -->
<g id="node4" class="node"><title>T2</title>
<ellipse fill="none" stroke="black" cx="24.7982" cy="-212.394" rx="20.6302" ry="20.6302"/>
<ellipse fill="none" stroke="black" cx="24.7982" cy="-212.394" rx="24.5979" ry="24.5979"/>
<text text-anchor="middle" x="24.7982" y="-208.694" font-family="Times New Roman,serif" font-size="14.00">T2</text>
</g>
<!-- T2&#45;&gt;T3 -->
<g id="edge6" class="edge"><title>T2&#45;&gt;T3</title>
<path fill="none" stroke="black" d="M35.6474,-190.001C42.5926,-176.305 51.7104,-158.325 59.3994,-143.163"/>
<polygon fill="black" stroke="black" points="62.5687,-144.652 63.9701,-134.15 56.3256,-141.486 62.5687,-144.652"/>
<text text-anchor="middle" x="56.2982" y="-158.396" font-family="Times New Roman,serif" font-size="14.00">0</text>
</g>
<!-- T2&#45;&gt;T4 -->
<g id="edge7" class="edge"><title>T2&#45;&gt;T4</title>
<path fill="none" stroke="black" d="M25.901,-187.488C27.205,-162.4 29.7278,-121.84 33.7982,-87 35.3759,-73.495 37.7219,-58.5731 39.8426,-46.1567"/>
<polygon fill="black" stroke="black" points="43.3457,-46.4427 41.6232,-35.9888 36.4506,-45.2351 43.3457,-46.4427"/>
<text text-anchor="middle" x="37.2982" y="-108.098" font-family="Times New Roman,serif" font-size="14.00">1</text>
</g>
<!-- T0&#45;&gt;T2 -->
<g id="edge3" class="edge"><title>T0&#45;&gt;T2</title>
<path fill="none" stroke="black" d="M40.8839,-389.063C38.5506,-374.36 35.685,-355.011 33.7982,-337.789 30.4556,-307.279 28.0553,-272.417 26.5786,-247.378"/>
<polygon fill="black" stroke="black" points="30.067,-247.073 26.0022,-237.289 23.0784,-247.472 30.067,-247.073"/>
<text text-anchor="middle" x="37.2982" y="-309.291" font-family="Times New Roman,serif" font-size="14.00">1</text>
</g>
<!-- T1 -->
<g id="node6" class="node"><title>T1</title>
<ellipse fill="none" stroke="black" cx="74.7982" cy="-312.991" rx="20.6302" ry="20.6302"/>
<ellipse fill="none" stroke="black" cx="74.7982" cy="-312.991" rx="24.5979" ry="24.5979"/>
<text text-anchor="middle" x="74.7982" y="-309.291" font-family="Times New Roman,serif" font-size="14.00">T1</text>
</g>
<!-- T0&#45;&gt;T1 -->
<g id="edge2" class="edge"><title>T0&#45;&gt;T1</title>
<path fill="none" stroke="black" d="M51.7562,-389.719C55.6283,-376.993 60.5155,-360.931 64.7916,-346.878"/>
<polygon fill="black" stroke="black" points="68.2114,-347.662 67.774,-337.076 61.5145,-345.624 68.2114,-347.662"/>
<text text-anchor="middle" x="65.2982" y="-359.589" font-family="Times New Roman,serif" font-size="14.00">0</text>
</g>
<!-- T1&#45;&gt;T3 -->
<g id="edge4" class="edge"><title>T1&#45;&gt;T3</title>
<path fill="none" stroke="black" d="M74.7982,-287.963C74.7982,-252.723 74.7982,-186.863 74.7982,-146.709"/>
<polygon fill="black" stroke="black" points="78.2983,-146.601 74.7982,-136.601 71.2983,-146.601 78.2983,-146.601"/>
<text text-anchor="middle" x="78.2982" y="-208.694" font-family="Times New Roman,serif" font-size="14.00">0</text>
</g>
<!-- T1&#45;&gt;T2 -->
<g id="edge5" class="edge"><title>T1&#45;&gt;T2</title>
<path fill="none" stroke="black" d="M63.9489,-290.597C57.0037,-276.901 47.8859,-258.922 40.1969,-243.76"/>
<polygon fill="black" stroke="black" points="43.2707,-242.082 35.6262,-234.747 37.0276,-245.248 43.2707,-242.082"/>
<text text-anchor="middle" x="56.2982" y="-258.993" font-family="Times New Roman,serif" font-size="14.00">1</text>
</g>
</g>
</svg>
