<?xml version="1.0" encoding="UTF-8" standalone="no"?>
<!DOCTYPE svg PUBLIC "-//W3C//DTD SVG 1.1//EN"
 "http://www.w3.org/Graphics/SVG/1.1/DTD/svg11.dtd">
<!-- Generated by graphviz version 2.38.0 (20140413.2041)
 -->
<!-- Title: %3 Pages: 1 -->
<svg width="129pt" height="419pt"
 viewBox="0.00 0.00 128.55 418.79" xmlns="http://www.w3.org/2000/svg" xmlns:xlink="http://www.w3.org/1999/xlink">
<g id="graph0" class="graph" transform="scale(1 1) rotate(0) translate(4 414.789)">
<title>%3</title>
<polygon fill="white" stroke="none" points="-4,4 -4,-414.789 124.547,-414.789 124.547,4 -4,4"/>
<!-- fake0 -->
<g id="node1" class="node"><title>fake0</title>
</g>
<!-- T0 -->
<g id="node4" class="node"><title>T0</title>
<ellipse fill="none" stroke="black" cx="30.5473" cy="-312.991" rx="20.6302" ry="20.6302"/>
<ellipse fill="none" stroke="black" cx="30.5473" cy="-312.991" rx="24.5979" ry="24.5979"/>
<text text-anchor="middle" x="30.5473" y="-309.291" font-family="Times New Roman,serif" font-size="14.00">T0</text>
</g>
<!-- fake0&#45;&gt;T0 -->
<g id="edge1" class="edge"><title>fake0&#45;&gt;T0</title>
<path fill="none" stroke="black" stroke-width="2" d="M30.5473,-374.523C30.5473,-366.717 30.5473,-357.207 30.5473,-348.059"/>
<polygon fill="black" stroke="black" stroke-width="2" points="34.0474,-347.994 30.5473,-337.994 27.0474,-347.994 34.0474,-347.994"/>
</g>
<!-- T3 -->
<g id="node2" class="node"><title>T3</title>
<ellipse fill="none" stroke="black" cx="43.5473" cy="-18" rx="27" ry="18"/>
<text text-anchor="middle" x="43.5473" y="-14.3" font-family="Times New Roman,serif" font-size="14.00">T3</text>
</g>
<!-- T3&#45;&gt;T3 -->
<g id="edge8" class="edge"><title>T3&#45;&gt;T3</title>
<path fill="none" stroke="black" d="M70.3421,-21.9288C80.3277,-22.0577 88.5473,-20.748 88.5473,-18 88.5473,-16.2825 85.3365,-15.1268 80.4905,-14.5331"/>
<polygon fill="black" stroke="black" points="80.491,-11.0296 70.3421,-14.0712 80.1726,-18.0223 80.491,-11.0296"/>
<text text-anchor="middle" x="92.0473" y="-14.3" font-family="Times New Roman,serif" font-size="14.00">0</text>
</g>
<!-- T3&#45;&gt;T3 -->
<g id="edge9" class="edge"><title>T3&#45;&gt;T3</title>
<path fill="none" stroke="black" d="M68.7765,-24.9445C87.5878,-27.3695 106.547,-25.0547 106.547,-18 106.547,-12.213 93.7892,-9.61542 78.8205,-10.2074"/>
<polygon fill="black" stroke="black" points="78.4465,-6.72644 68.7765,-11.0555 79.0355,-13.7016 78.4465,-6.72644"/>
<text text-anchor="middle" x="110.047" y="-14.3" font-family="Times New Roman,serif" font-size="14.00">1</text>
</g>
<!-- T2 -->
<g id="node3" class="node"><title>T2</title>
<ellipse fill="none" stroke="black" cx="43.5473" cy="-111.798" rx="20.6302" ry="20.6302"/>
<ellipse fill="none" stroke="black" cx="43.5473" cy="-111.798" rx="24.5979" ry="24.5979"/>
<text text-anchor="middle" x="43.5473" y="-108.098" font-family="Times New Roman,serif" font-size="14.00">T2</text>
</g>
<!-- T2&#45;&gt;T3 -->
<g id="edge7" class="edge"><title>T2&#45;&gt;T3</title>
<path fill="none" stroke="black" d="M43.5473,-86.6793C43.5473,-74.2289 43.5473,-58.9952 43.5473,-46.1353"/>
<polygon fill="black" stroke="black" points="47.0474,-46.0044 43.5473,-36.0045 40.0474,-46.0045 47.0474,-46.0044"/>
<text text-anchor="middle" x="47.0473" y="-57.8" font-family="Times New Roman,serif" font-size="14.00">1</text>
</g>
<!-- T2&#45;&gt;T2 -->
<g id="edge6" class="edge"><title>T2&#45;&gt;T2</title>
<path fill="none" stroke="black" d="M66.8794,-121.027C77.3177,-121.906 86.3454,-118.829 86.3454,-111.798 86.3454,-107.294 82.6405,-104.413 77.2331,-103.154"/>
<polygon fill="black" stroke="black" points="77.0609,-99.6392 66.8794,-102.57 76.6661,-106.628 77.0609,-99.6392"/>
<text text-anchor="middle" x="89.8454" y="-108.098" font-family="Times New Roman,serif" font-size="14.00">0</text>
</g>
<!-- T0&#45;&gt;T2 -->
<g id="edge3" class="edge"><title>T0&#45;&gt;T2</title>
<path fill="none" stroke="black" d="M25.0836,-288.492C20.0368,-263.395 14.0831,-222.511 19.5473,-187.596 21.8158,-173.101 26.4159,-157.58 30.9874,-144.455"/>
<polygon fill="black" stroke="black" points="34.3184,-145.536 34.4386,-134.941 27.7381,-143.148 34.3184,-145.536"/>
<text text-anchor="middle" x="23.0473" y="-208.694" font-family="Times New Roman,serif" font-size="14.00">1</text>
</g>
<!-- T1 -->
<g id="node5" class="node"><title>T1</title>
<ellipse fill="none" stroke="black" cx="60.5473" cy="-212.394" rx="20.6302" ry="20.6302"/>
<ellipse fill="none" stroke="black" cx="60.5473" cy="-212.394" rx="24.5979" ry="24.5979"/>
<text text-anchor="middle" x="60.5473" y="-208.694" font-family="Times New Roman,serif" font-size="14.00">T1</text>
</g>
<!-- T0&#45;&gt;T1 -->
<g id="edge2" class="edge"><title>T0&#45;&gt;T1</title>
<path fill="none" stroke="black" d="M37.5053,-289.123C41.3774,-276.397 46.2646,-260.335 50.5407,-246.282"/>
<polygon fill="black" stroke="black" points="53.9605,-247.066 53.5231,-236.48 47.2636,-245.028 53.9605,-247.066"/>
<text text-anchor="middle" x="51.0473" y="-258.993" font-family="Times New Roman,serif" font-size="14.00">0</text>
</g>
<!-- T1&#45;&gt;T2 -->
<g id="edge4" class="edge"><title>T1&#45;&gt;T2</title>
<path fill="none" stroke="black" d="M51.8528,-189.132C49.7608,-182.9 47.7772,-176.062 46.5473,-169.596 45.1517,-162.26 44.3189,-154.302 43.8381,-146.729"/>
<polygon fill="black" stroke="black" points="47.3344,-146.566 43.3809,-136.736 40.3417,-146.886 47.3344,-146.566"/>
<text text-anchor="middle" x="50.0473" y="-158.396" font-family="Times New Roman,serif" font-size="14.00">0</text>
</g>
<!-- T1&#45;&gt;T2 -->
<g id="edge5" class="edge"><title>T1&#45;&gt;T2</title>
<path fill="none" stroke="black" d="M56.9503,-187.6C55.3669,-177.422 53.4391,-165.414 51.5473,-154.596 51.0744,-151.892 50.5702,-149.092 50.0538,-146.282"/>
<polygon fill="black" stroke="black" points="53.4478,-145.391 48.1643,-136.207 46.5678,-146.681 53.4478,-145.391"/>
<text text-anchor="middle" x="58.0473" y="-158.396" font-family="Times New Roman,serif" font-size="14.00">1</text>
</g>
</g>
</svg>
