<?xml version="1.0" encoding="UTF-8" standalone="no"?>
<!DOCTYPE svg PUBLIC "-//W3C//DTD SVG 1.1//EN"
 "http://www.w3.org/Graphics/SVG/1.1/DTD/svg11.dtd">
<!-- Generated by graphviz version 2.38.0 (20140413.2041)
 -->
<!-- Title: %3 Pages: 1 -->
<svg width="205pt" height="1097pt"
 viewBox="0.00 0.00 205.00 1096.70" xmlns="http://www.w3.org/2000/svg" xmlns:xlink="http://www.w3.org/1999/xlink">
<g id="graph0" class="graph" transform="scale(1 1) rotate(0) translate(4 1092.7)">
<title>%3</title>
<polygon fill="white" stroke="none" points="-4,4 -4,-1092.7 201,-1092.7 201,4 -4,4"/>
<!-- fake0 -->
<g id="node1" class="node"><title>fake0</title>
</g>
<!-- T0 -->
<g id="node8" class="node"><title>T0</title>
<ellipse fill="none" stroke="black" cx="137" cy="-997.696" rx="27" ry="18"/>
<text text-anchor="middle" x="137" y="-993.996" font-family="Times New Roman,serif" font-size="14.00">T0</text>
</g>
<!-- fake0&#45;&gt;T0 -->
<g id="edge1" class="edge"><title>fake0&#45;&gt;T0</title>
<path fill="none" stroke="black" stroke-width="2" d="M137,-1052.51C137,-1044.48 137,-1034.74 137,-1025.76"/>
<polygon fill="black" stroke="black" stroke-width="2" points="140.5,-1025.72 137,-1015.72 133.5,-1025.72 140.5,-1025.72"/>
</g>
<!-- T2 -->
<g id="node2" class="node"><title>T2</title>
<ellipse fill="none" stroke="black" cx="170" cy="-823.696" rx="27" ry="18"/>
<text text-anchor="middle" x="170" y="-819.996" font-family="Times New Roman,serif" font-size="14.00">T2</text>
</g>
<!-- T3 -->
<g id="node13" class="node"><title>T3</title>
<ellipse fill="none" stroke="black" cx="137" cy="-736.696" rx="27" ry="18"/>
<text text-anchor="middle" x="137" y="-732.996" font-family="Times New Roman,serif" font-size="14.00">T3</text>
</g>
<!-- T2&#45;&gt;T3 -->
<g id="edge5" class="edge"><title>T2&#45;&gt;T3</title>
<path fill="none" stroke="black" d="M163.48,-805.902C158.825,-793.911 152.472,-777.547 147.155,-763.853"/>
<polygon fill="black" stroke="black" points="150.388,-762.509 143.506,-754.454 143.863,-765.043 150.388,-762.509"/>
<text text-anchor="middle" x="163.5" y="-776.496" font-family="Times New Roman,serif" font-size="14.00">EP</text>
</g>
<!-- T6 -->
<g id="node3" class="node"><title>T6</title>
<ellipse fill="none" stroke="black" cx="27" cy="-475.696" rx="27" ry="18"/>
<text text-anchor="middle" x="27" y="-471.996" font-family="Times New Roman,serif" font-size="14.00">T6</text>
</g>
<!-- T9 -->
<g id="node4" class="node"><title>T9</title>
<ellipse fill="none" stroke="black" cx="99" cy="-388.696" rx="27" ry="18"/>
<text text-anchor="middle" x="99" y="-384.996" font-family="Times New Roman,serif" font-size="14.00">T9</text>
</g>
<!-- T6&#45;&gt;T9 -->
<g id="edge11" class="edge"><title>T6&#45;&gt;T9</title>
<path fill="none" stroke="black" d="M39.8722,-459.499C50.9298,-446.445 67.0359,-427.431 79.647,-412.543"/>
<polygon fill="black" stroke="black" points="82.4465,-414.653 86.2393,-404.76 77.1051,-410.128 82.4465,-414.653"/>
<text text-anchor="middle" x="78.5" y="-428.496" font-family="Times New Roman,serif" font-size="14.00">EP</text>
</g>
<!-- T10 -->
<g id="node11" class="node"><title>T10</title>
<ellipse fill="none" stroke="black" cx="132" cy="-301.696" rx="27" ry="18"/>
<text text-anchor="middle" x="132" y="-297.996" font-family="Times New Roman,serif" font-size="14.00">T10</text>
</g>
<!-- T9&#45;&gt;T10 -->
<g id="edge14" class="edge"><title>T9&#45;&gt;T10</title>
<path fill="none" stroke="black" d="M105.52,-370.902C110.175,-358.911 116.528,-342.547 121.845,-328.853"/>
<polygon fill="black" stroke="black" points="125.137,-330.043 125.494,-319.454 118.612,-327.509 125.137,-330.043"/>
<text text-anchor="middle" x="127.5" y="-341.496" font-family="Times New Roman,serif" font-size="14.00">EP</text>
</g>
<!-- T5 -->
<g id="node5" class="node"><title>T5</title>
<ellipse fill="none" stroke="black" cx="27" cy="-562.696" rx="27" ry="18"/>
<text text-anchor="middle" x="27" y="-558.996" font-family="Times New Roman,serif" font-size="14.00">T5</text>
</g>
<!-- T5&#45;&gt;T6 -->
<g id="edge10" class="edge"><title>T5&#45;&gt;T6</title>
<path fill="none" stroke="black" d="M27,-544.494C27,-532.858 27,-517.243 27,-503.932"/>
<polygon fill="black" stroke="black" points="30.5001,-503.871 27,-493.871 23.5001,-503.871 30.5001,-503.871"/>
<text text-anchor="middle" x="30.5" y="-515.496" font-family="Times New Roman,serif" font-size="14.00">1</text>
</g>
<!-- T7 -->
<g id="node6" class="node"><title>T7</title>
<ellipse fill="none" stroke="black" cx="99" cy="-562.696" rx="27" ry="18"/>
<text text-anchor="middle" x="99" y="-558.996" font-family="Times New Roman,serif" font-size="14.00">T7</text>
</g>
<!-- T8 -->
<g id="node9" class="node"><title>T8</title>
<ellipse fill="none" stroke="black" cx="99" cy="-475.696" rx="27" ry="18"/>
<text text-anchor="middle" x="99" y="-471.996" font-family="Times New Roman,serif" font-size="14.00">T8</text>
</g>
<!-- T7&#45;&gt;T8 -->
<g id="edge12" class="edge"><title>T7&#45;&gt;T8</title>
<path fill="none" stroke="black" d="M99,-544.494C99,-532.858 99,-517.243 99,-503.932"/>
<polygon fill="black" stroke="black" points="102.5,-503.871 99,-493.871 95.5001,-503.871 102.5,-503.871"/>
<text text-anchor="middle" x="107.5" y="-515.496" font-family="Times New Roman,serif" font-size="14.00">EP</text>
</g>
<!-- T4 -->
<g id="node7" class="node"><title>T4</title>
<ellipse fill="none" stroke="black" cx="99" cy="-649.696" rx="27" ry="18"/>
<text text-anchor="middle" x="99" y="-645.996" font-family="Times New Roman,serif" font-size="14.00">T4</text>
</g>
<!-- T4&#45;&gt;T5 -->
<g id="edge8" class="edge"><title>T4&#45;&gt;T5</title>
<path fill="none" stroke="black" d="M86.1278,-633.499C75.0702,-620.445 58.9641,-601.431 46.353,-586.543"/>
<polygon fill="black" stroke="black" points="48.8949,-584.128 39.7607,-578.76 43.5535,-588.653 48.8949,-584.128"/>
<text text-anchor="middle" x="76.5" y="-602.496" font-family="Times New Roman,serif" font-size="14.00">EP</text>
</g>
<!-- T4&#45;&gt;T7 -->
<g id="edge9" class="edge"><title>T4&#45;&gt;T7</title>
<path fill="none" stroke="black" d="M99,-631.494C99,-619.858 99,-604.243 99,-590.932"/>
<polygon fill="black" stroke="black" points="102.5,-590.871 99,-580.871 95.5001,-590.871 102.5,-590.871"/>
<text text-anchor="middle" x="107.5" y="-602.496" font-family="Times New Roman,serif" font-size="14.00">EP</text>
</g>
<!-- T0&#45;&gt;T3 -->
<g id="edge3" class="edge"><title>T0&#45;&gt;T3</title>
<path fill="none" stroke="black" d="M136.04,-979.655C135.315,-965.906 134.383,-946.062 134,-928.696 132.795,-874.042 132.795,-860.349 134,-805.696 134.296,-792.263 134.921,-777.35 135.524,-764.92"/>
<polygon fill="black" stroke="black" points="139.03,-764.9 136.04,-754.736 132.038,-764.546 139.03,-764.9"/>
<text text-anchor="middle" x="141.5" y="-863.496" font-family="Times New Roman,serif" font-size="14.00">EP</text>
</g>
<!-- T1 -->
<g id="node14" class="node"><title>T1</title>
<ellipse fill="none" stroke="black" cx="170" cy="-910.696" rx="27" ry="18"/>
<text text-anchor="middle" x="170" y="-906.996" font-family="Times New Roman,serif" font-size="14.00">T1</text>
</g>
<!-- T0&#45;&gt;T1 -->
<g id="edge2" class="edge"><title>T0&#45;&gt;T1</title>
<path fill="none" stroke="black" d="M143.52,-979.902C148.175,-967.911 154.528,-951.547 159.845,-937.853"/>
<polygon fill="black" stroke="black" points="163.137,-939.043 163.494,-928.454 156.612,-936.509 163.137,-939.043"/>
<text text-anchor="middle" x="164.5" y="-950.496" font-family="Times New Roman,serif" font-size="14.00">EP</text>
</g>
<!-- T8&#45;&gt;T9 -->
<g id="edge13" class="edge"><title>T8&#45;&gt;T9</title>
<path fill="none" stroke="black" d="M99,-457.494C99,-445.858 99,-430.243 99,-416.932"/>
<polygon fill="black" stroke="black" points="102.5,-416.871 99,-406.871 95.5001,-416.871 102.5,-416.871"/>
<text text-anchor="middle" x="107.5" y="-428.496" font-family="Times New Roman,serif" font-size="14.00">EP</text>
</g>
<!-- T11 -->
<g id="node10" class="node"><title>T11</title>
<ellipse fill="none" stroke="black" cx="94" cy="-214.696" rx="27" ry="18"/>
<text text-anchor="middle" x="94" y="-210.996" font-family="Times New Roman,serif" font-size="14.00">T11</text>
</g>
<!-- T12 -->
<g id="node12" class="node"><title>T12</title>
<ellipse fill="none" stroke="black" cx="94" cy="-127.696" rx="27" ry="18"/>
<text text-anchor="middle" x="94" y="-123.996" font-family="Times New Roman,serif" font-size="14.00">T12</text>
</g>
<!-- T11&#45;&gt;T12 -->
<g id="edge17" class="edge"><title>T11&#45;&gt;T12</title>
<path fill="none" stroke="black" d="M82.8217,-198.229C77.129,-188.498 71.9832,-175.576 75,-163.696 75.8774,-160.24 77.1722,-156.757 78.6806,-153.397"/>
<polygon fill="black" stroke="black" points="81.8573,-154.873 83.3282,-144.381 75.6353,-151.666 81.8573,-154.873"/>
<text text-anchor="middle" x="78.5" y="-167.496" font-family="Times New Roman,serif" font-size="14.00">0</text>
</g>
<!-- T10&#45;&gt;T11 -->
<g id="edge16" class="edge"><title>T10&#45;&gt;T11</title>
<path fill="none" stroke="black" d="M124.673,-284.307C119.259,-272.195 111.779,-255.464 105.561,-241.556"/>
<polygon fill="black" stroke="black" points="108.581,-239.735 101.304,-232.034 102.19,-242.592 108.581,-239.735"/>
<text text-anchor="middle" x="124.5" y="-254.496" font-family="Times New Roman,serif" font-size="14.00">EP</text>
</g>
<!-- T13 -->
<g id="node15" class="node"><title>T13</title>
<ellipse fill="none" stroke="black" cx="127" cy="-29.3478" rx="25.2169" ry="25.2169"/>
<ellipse fill="none" stroke="black" cx="127" cy="-29.3478" rx="29.1963" ry="29.1963"/>
<text text-anchor="middle" x="127" y="-25.6478" font-family="Times New Roman,serif" font-size="14.00">T13</text>
</g>
<!-- T10&#45;&gt;T13 -->
<g id="edge15" class="edge"><title>T10&#45;&gt;T13</title>
<path fill="none" stroke="black" d="M133.758,-283.624C134.265,-277.929 134.75,-271.545 135,-265.696 135.285,-259.035 135.057,-257.362 135,-250.696 134.333,-173.354 136.819,-153.89 132,-76.6955 131.841,-74.1511 131.646,-71.5311 131.425,-68.8927"/>
<polygon fill="black" stroke="black" points="134.892,-68.3753 130.473,-58.7459 127.923,-69.0291 134.892,-68.3753"/>
<text text-anchor="middle" x="143.5" y="-167.496" font-family="Times New Roman,serif" font-size="14.00">EP</text>
</g>
<!-- T12&#45;&gt;T11 -->
<g id="edge19" class="edge"><title>T12&#45;&gt;T11</title>
<path fill="none" stroke="black" d="M94,-145.871C94,-157.502 94,-173.115 94,-186.429"/>
<polygon fill="black" stroke="black" points="90.5001,-186.494 94,-196.494 97.5001,-186.495 90.5001,-186.494"/>
<text text-anchor="middle" x="102.5" y="-167.496" font-family="Times New Roman,serif" font-size="14.00">EP</text>
</g>
<!-- T12&#45;&gt;T13 -->
<g id="edge18" class="edge"><title>T12&#45;&gt;T13</title>
<path fill="none" stroke="black" d="M99.7482,-109.913C103.769,-98.1731 109.299,-82.0277 114.327,-67.3475"/>
<polygon fill="black" stroke="black" points="117.774,-68.0851 117.703,-57.4905 111.152,-65.8169 117.774,-68.0851"/>
<text text-anchor="middle" x="119.5" y="-80.4955" font-family="Times New Roman,serif" font-size="14.00">EP</text>
</g>
<!-- T3&#45;&gt;T4 -->
<g id="edge7" class="edge"><title>T3&#45;&gt;T4</title>
<path fill="none" stroke="black" d="M129.673,-719.307C124.259,-707.195 116.779,-690.464 110.561,-676.556"/>
<polygon fill="black" stroke="black" points="113.581,-674.735 106.304,-667.034 107.19,-677.592 113.581,-674.735"/>
<text text-anchor="middle" x="129.5" y="-689.496" font-family="Times New Roman,serif" font-size="14.00">EP</text>
</g>
<!-- T3&#45;&gt;T10 -->
<g id="edge6" class="edge"><title>T3&#45;&gt;T10</title>
<path fill="none" stroke="black" d="M142.379,-718.959C147.359,-701.958 154,-674.774 154,-650.696 154,-650.696 154,-650.696 154,-387.696 154,-367.498 148.106,-345.438 142.42,-328.854"/>
<polygon fill="black" stroke="black" points="145.657,-327.512 138.961,-319.301 139.075,-329.895 145.657,-327.512"/>
<text text-anchor="middle" x="162.5" y="-515.496" font-family="Times New Roman,serif" font-size="14.00">EP</text>
</g>
<!-- T1&#45;&gt;T2 -->
<g id="edge4" class="edge"><title>T1&#45;&gt;T2</title>
<path fill="none" stroke="black" d="M170,-892.494C170,-880.858 170,-865.243 170,-851.932"/>
<polygon fill="black" stroke="black" points="173.5,-851.871 170,-841.871 166.5,-851.871 173.5,-851.871"/>
<text text-anchor="middle" x="173.5" y="-863.496" font-family="Times New Roman,serif" font-size="14.00">0</text>
</g>
</g>
</svg>
