<?xml version="1.0" encoding="UTF-8" standalone="no"?>
<!DOCTYPE svg PUBLIC "-//W3C//DTD SVG 1.1//EN"
 "http://www.w3.org/Graphics/SVG/1.1/DTD/svg11.dtd">
<!-- Generated by graphviz version 2.38.0 (20140413.2041)
 -->
<!-- Title: %3 Pages: 1 -->
<svg width="239pt" height="1097pt"
 viewBox="0.00 0.00 239.00 1096.70" xmlns="http://www.w3.org/2000/svg" xmlns:xlink="http://www.w3.org/1999/xlink">
<g id="graph0" class="graph" transform="scale(1 1) rotate(0) translate(4 1092.7)">
<title>%3</title>
<polygon fill="white" stroke="none" points="-4,4 -4,-1092.7 235,-1092.7 235,4 -4,4"/>
<!-- fake0 -->
<g id="node1" class="node"><title>fake0</title>
</g>
<!-- T0 -->
<g id="node7" class="node"><title>T0</title>
<ellipse fill="none" stroke="black" cx="165" cy="-997.696" rx="27" ry="18"/>
<text text-anchor="middle" x="165" y="-993.996" font-family="Times New Roman,serif" font-size="14.00">T0</text>
</g>
<!-- fake0&#45;&gt;T0 -->
<g id="edge1" class="edge"><title>fake0&#45;&gt;T0</title>
<path fill="none" stroke="black" stroke-width="2" d="M165,-1052.51C165,-1044.48 165,-1034.74 165,-1025.76"/>
<polygon fill="black" stroke="black" stroke-width="2" points="168.5,-1025.72 165,-1015.72 161.5,-1025.72 168.5,-1025.72"/>
</g>
<!-- T4 -->
<g id="node2" class="node"><title>T4</title>
<ellipse fill="none" stroke="black" cx="27" cy="-823.696" rx="27" ry="18"/>
<text text-anchor="middle" x="27" y="-819.996" font-family="Times New Roman,serif" font-size="14.00">T4</text>
</g>
<!-- T5 -->
<g id="node13" class="node"><title>T5</title>
<ellipse fill="none" stroke="black" cx="27" cy="-736.696" rx="27" ry="18"/>
<text text-anchor="middle" x="27" y="-732.996" font-family="Times New Roman,serif" font-size="14.00">T5</text>
</g>
<!-- T4&#45;&gt;T5 -->
<g id="edge8" class="edge"><title>T4&#45;&gt;T5</title>
<path fill="none" stroke="black" d="M27,-805.494C27,-793.858 27,-778.243 27,-764.932"/>
<polygon fill="black" stroke="black" points="30.5001,-764.871 27,-754.871 23.5001,-764.871 30.5001,-764.871"/>
<text text-anchor="middle" x="31" y="-776.496" font-family="Times New Roman,serif" font-size="14.00">b</text>
</g>
<!-- T12 -->
<g id="node3" class="node"><title>T12</title>
<ellipse fill="none" stroke="black" cx="204" cy="-127.696" rx="27" ry="18"/>
<text text-anchor="middle" x="204" y="-123.996" font-family="Times New Roman,serif" font-size="14.00">T12</text>
</g>
<!-- T13 -->
<g id="node6" class="node"><title>T13</title>
<ellipse fill="none" stroke="black" cx="171" cy="-29.3478" rx="25.2169" ry="25.2169"/>
<ellipse fill="none" stroke="black" cx="171" cy="-29.3478" rx="29.1963" ry="29.1963"/>
<text text-anchor="middle" x="171" y="-25.6478" font-family="Times New Roman,serif" font-size="14.00">T13</text>
</g>
<!-- T12&#45;&gt;T13 -->
<g id="edge19" class="edge"><title>T12&#45;&gt;T13</title>
<path fill="none" stroke="black" d="M198.252,-109.913C194.231,-98.1731 188.701,-82.0277 183.673,-67.3475"/>
<polygon fill="black" stroke="black" points="186.848,-65.8169 180.297,-57.4905 180.226,-68.0851 186.848,-65.8169"/>
<text text-anchor="middle" x="199.5" y="-80.4955" font-family="Times New Roman,serif" font-size="14.00">EP</text>
</g>
<!-- T1 -->
<g id="node4" class="node"><title>T1</title>
<ellipse fill="none" stroke="black" cx="124" cy="-910.696" rx="27" ry="18"/>
<text text-anchor="middle" x="124" y="-906.996" font-family="Times New Roman,serif" font-size="14.00">T1</text>
</g>
<!-- T1&#45;&gt;T4 -->
<g id="edge4" class="edge"><title>T1&#45;&gt;T4</title>
<path fill="none" stroke="black" d="M107.982,-895.659C92.3035,-881.92 68.2427,-860.836 50.4179,-845.216"/>
<polygon fill="black" stroke="black" points="52.5472,-842.429 42.7195,-838.47 47.9338,-847.693 52.5472,-842.429"/>
<text text-anchor="middle" x="89.5" y="-863.496" font-family="Times New Roman,serif" font-size="14.00">EP</text>
</g>
<!-- T2 -->
<g id="node14" class="node"><title>T2</title>
<ellipse fill="none" stroke="black" cx="99" cy="-823.696" rx="27" ry="18"/>
<text text-anchor="middle" x="99" y="-819.996" font-family="Times New Roman,serif" font-size="14.00">T2</text>
</g>
<!-- T1&#45;&gt;T2 -->
<g id="edge5" class="edge"><title>T1&#45;&gt;T2</title>
<path fill="none" stroke="black" d="M119.061,-892.902C115.568,-881.027 110.814,-864.864 106.811,-851.252"/>
<polygon fill="black" stroke="black" points="110.108,-850.06 103.929,-841.454 103.393,-852.035 110.108,-850.06"/>
<text text-anchor="middle" x="120.5" y="-863.496" font-family="Times New Roman,serif" font-size="14.00">EP</text>
</g>
<!-- T9 -->
<g id="node5" class="node"><title>T9</title>
<ellipse fill="none" stroke="black" cx="165" cy="-388.696" rx="27" ry="18"/>
<text text-anchor="middle" x="165" y="-384.996" font-family="Times New Roman,serif" font-size="14.00">T9</text>
</g>
<!-- T10 -->
<g id="node8" class="node"><title>T10</title>
<ellipse fill="none" stroke="black" cx="165" cy="-301.696" rx="27" ry="18"/>
<text text-anchor="middle" x="165" y="-297.996" font-family="Times New Roman,serif" font-size="14.00">T10</text>
</g>
<!-- T9&#45;&gt;T10 -->
<g id="edge14" class="edge"><title>T9&#45;&gt;T10</title>
<path fill="none" stroke="black" d="M165,-370.494C165,-358.858 165,-343.243 165,-329.932"/>
<polygon fill="black" stroke="black" points="168.5,-329.871 165,-319.871 161.5,-329.871 168.5,-329.871"/>
<text text-anchor="middle" x="173.5" y="-341.496" font-family="Times New Roman,serif" font-size="14.00">EP</text>
</g>
<!-- T8 -->
<g id="node15" class="node"><title>T8</title>
<ellipse fill="none" stroke="black" cx="165" cy="-475.696" rx="27" ry="18"/>
<text text-anchor="middle" x="165" y="-471.996" font-family="Times New Roman,serif" font-size="14.00">T8</text>
</g>
<!-- T9&#45;&gt;T8 -->
<g id="edge15" class="edge"><title>T9&#45;&gt;T8</title>
<path fill="none" stroke="black" d="M165,-406.871C165,-418.502 165,-434.115 165,-447.429"/>
<polygon fill="black" stroke="black" points="161.5,-447.494 165,-457.494 168.5,-447.495 161.5,-447.494"/>
<text text-anchor="middle" x="173.5" y="-428.496" font-family="Times New Roman,serif" font-size="14.00">EP</text>
</g>
<!-- T0&#45;&gt;T1 -->
<g id="edge3" class="edge"><title>T0&#45;&gt;T1</title>
<path fill="none" stroke="black" d="M157.095,-980.307C151.196,-968.077 143.025,-951.138 136.279,-937.152"/>
<polygon fill="black" stroke="black" points="139.378,-935.52 131.881,-928.034 133.073,-938.562 139.378,-935.52"/>
<text text-anchor="middle" x="154.5" y="-950.496" font-family="Times New Roman,serif" font-size="14.00">EP</text>
</g>
<!-- T7 -->
<g id="node9" class="node"><title>T7</title>
<ellipse fill="none" stroke="black" cx="165" cy="-562.696" rx="27" ry="18"/>
<text text-anchor="middle" x="165" y="-558.996" font-family="Times New Roman,serif" font-size="14.00">T7</text>
</g>
<!-- T0&#45;&gt;T7 -->
<g id="edge2" class="edge"><title>T0&#45;&gt;T7</title>
<path fill="none" stroke="black" d="M174.017,-980.638C182.53,-963.946 194,-936.799 194,-911.696 194,-911.696 194,-911.696 194,-648.696 194,-627.711 185.985,-605.297 178.382,-588.758"/>
<polygon fill="black" stroke="black" points="181.528,-587.225 174.017,-579.753 175.23,-590.278 181.528,-587.225"/>
<text text-anchor="middle" x="202.5" y="-776.496" font-family="Times New Roman,serif" font-size="14.00">EP</text>
</g>
<!-- T10&#45;&gt;T13 -->
<g id="edge16" class="edge"><title>T10&#45;&gt;T13</title>
<path fill="none" stroke="black" d="M165.142,-283.572C165.448,-250.141 166.284,-173.845 168,-109.696 168.351,-96.5609 168.857,-82.2077 169.353,-69.3639"/>
<polygon fill="black" stroke="black" points="172.866,-69.1209 169.764,-58.9901 165.871,-68.8437 172.866,-69.1209"/>
<text text-anchor="middle" x="174.5" y="-167.496" font-family="Times New Roman,serif" font-size="14.00">EP</text>
</g>
<!-- T11 -->
<g id="node10" class="node"><title>T11</title>
<ellipse fill="none" stroke="black" cx="204" cy="-214.696" rx="27" ry="18"/>
<text text-anchor="middle" x="204" y="-210.996" font-family="Times New Roman,serif" font-size="14.00">T11</text>
</g>
<!-- T10&#45;&gt;T11 -->
<g id="edge17" class="edge"><title>T10&#45;&gt;T11</title>
<path fill="none" stroke="black" d="M172.52,-284.307C178.131,-272.077 185.903,-255.138 192.32,-241.152"/>
<polygon fill="black" stroke="black" points="195.514,-242.583 196.503,-232.034 189.152,-239.663 195.514,-242.583"/>
<text text-anchor="middle" x="195.5" y="-254.496" font-family="Times New Roman,serif" font-size="14.00">EP</text>
</g>
<!-- T7&#45;&gt;T8 -->
<g id="edge12" class="edge"><title>T7&#45;&gt;T8</title>
<path fill="none" stroke="black" d="M165,-544.494C165,-532.858 165,-517.243 165,-503.932"/>
<polygon fill="black" stroke="black" points="168.5,-503.871 165,-493.871 161.5,-503.871 168.5,-503.871"/>
<text text-anchor="middle" x="173.5" y="-515.496" font-family="Times New Roman,serif" font-size="14.00">EP</text>
</g>
<!-- T11&#45;&gt;T12 -->
<g id="edge18" class="edge"><title>T11&#45;&gt;T12</title>
<path fill="none" stroke="black" d="M204,-196.494C204,-184.858 204,-169.243 204,-155.932"/>
<polygon fill="black" stroke="black" points="207.5,-155.871 204,-145.871 200.5,-155.871 207.5,-155.871"/>
<text text-anchor="middle" x="207.5" y="-167.496" font-family="Times New Roman,serif" font-size="14.00">c</text>
</g>
<!-- T6 -->
<g id="node11" class="node"><title>T6</title>
<ellipse fill="none" stroke="black" cx="124" cy="-649.696" rx="27" ry="18"/>
<text text-anchor="middle" x="124" y="-645.996" font-family="Times New Roman,serif" font-size="14.00">T6</text>
</g>
<!-- T6&#45;&gt;T1 -->
<g id="edge11" class="edge"><title>T6&#45;&gt;T1</title>
<path fill="none" stroke="black" d="M129.743,-667.596C131.428,-673.28 133.068,-679.701 134,-685.696 144.656,-754.207 137.098,-772.392 135,-841.696 134.555,-856.382 135.285,-860.181 133,-874.696 132.576,-877.392 132.036,-880.182 131.432,-882.957"/>
<polygon fill="black" stroke="black" points="128.014,-882.199 129.055,-892.742 134.816,-883.851 128.014,-882.199"/>
<text text-anchor="middle" x="146.5" y="-776.496" font-family="Times New Roman,serif" font-size="14.00">EP</text>
</g>
<!-- T6&#45;&gt;T7 -->
<g id="edge10" class="edge"><title>T6&#45;&gt;T7</title>
<path fill="none" stroke="black" d="M131.905,-632.307C137.804,-620.077 145.975,-603.138 152.721,-589.152"/>
<polygon fill="black" stroke="black" points="155.927,-590.562 157.119,-580.034 149.622,-587.52 155.927,-590.562"/>
<text text-anchor="middle" x="156.5" y="-602.496" font-family="Times New Roman,serif" font-size="14.00">EP</text>
</g>
<!-- T3 -->
<g id="node12" class="node"><title>T3</title>
<ellipse fill="none" stroke="black" cx="99" cy="-736.696" rx="27" ry="18"/>
<text text-anchor="middle" x="99" y="-732.996" font-family="Times New Roman,serif" font-size="14.00">T3</text>
</g>
<!-- T3&#45;&gt;T6 -->
<g id="edge7" class="edge"><title>T3&#45;&gt;T6</title>
<path fill="none" stroke="black" d="M103.939,-718.902C107.432,-707.027 112.186,-690.864 116.189,-677.252"/>
<polygon fill="black" stroke="black" points="119.607,-678.035 119.071,-667.454 112.892,-676.06 119.607,-678.035"/>
<text text-anchor="middle" x="121.5" y="-689.496" font-family="Times New Roman,serif" font-size="14.00">EP</text>
</g>
<!-- T5&#45;&gt;T6 -->
<g id="edge9" class="edge"><title>T5&#45;&gt;T6</title>
<path fill="none" stroke="black" d="M43.0176,-721.659C58.6965,-707.92 82.7573,-686.836 100.582,-671.216"/>
<polygon fill="black" stroke="black" points="103.066,-673.693 108.28,-664.47 98.4528,-668.429 103.066,-673.693"/>
<text text-anchor="middle" x="92.5" y="-689.496" font-family="Times New Roman,serif" font-size="14.00">EP</text>
</g>
<!-- T2&#45;&gt;T3 -->
<g id="edge6" class="edge"><title>T2&#45;&gt;T3</title>
<path fill="none" stroke="black" d="M99,-805.494C99,-793.858 99,-778.243 99,-764.932"/>
<polygon fill="black" stroke="black" points="102.5,-764.871 99,-754.871 95.5001,-764.871 102.5,-764.871"/>
<text text-anchor="middle" x="103" y="-776.496" font-family="Times New Roman,serif" font-size="14.00">b</text>
</g>
<!-- T8&#45;&gt;T9 -->
<g id="edge13" class="edge"><title>T8&#45;&gt;T9</title>
<path fill="none" stroke="black" d="M157.591,-458.149C154.121,-448.467 151.121,-435.967 153,-424.696 153.485,-421.785 154.183,-418.792 155,-415.84"/>
<polygon fill="black" stroke="black" points="158.39,-416.73 158.112,-406.139 151.725,-414.592 158.39,-416.73"/>
<text text-anchor="middle" x="156.5" y="-428.496" font-family="Times New Roman,serif" font-size="14.00">a</text>
</g>
</g>
</svg>
