<?xml version="1.0" encoding="UTF-8" standalone="no"?>
<!DOCTYPE svg PUBLIC "-//W3C//DTD SVG 1.1//EN"
 "http://www.w3.org/Graphics/SVG/1.1/DTD/svg11.dtd">
<!-- Generated by graphviz version 2.38.0 (20140413.2041)
 -->
<!-- Title: %3 Pages: 1 -->
<svg width="184pt" height="405pt"
 viewBox="0.00 0.00 183.55 405.19" xmlns="http://www.w3.org/2000/svg" xmlns:xlink="http://www.w3.org/1999/xlink">
<g id="graph0" class="graph" transform="scale(1 1) rotate(0) translate(4 401.193)">
<title>%3</title>
<polygon fill="white" stroke="none" points="-4,4 -4,-401.193 179.547,-401.193 179.547,4 -4,4"/>
<!-- fake0 -->
<g id="node1" class="node"><title>fake0</title>
</g>
<!-- T0 -->
<g id="node4" class="node"><title>T0</title>
<ellipse fill="none" stroke="black" cx="30.5473" cy="-306.193" rx="27" ry="18"/>
<text text-anchor="middle" x="30.5473" y="-302.493" font-family="Times New Roman,serif" font-size="14.00">T0</text>
</g>
<!-- fake0&#45;&gt;T0 -->
<g id="edge1" class="edge"><title>fake0&#45;&gt;T0</title>
<path fill="none" stroke="black" stroke-width="2" d="M30.5473,-361.005C30.5473,-352.982 30.5473,-343.24 30.5473,-334.262"/>
<polygon fill="black" stroke="black" stroke-width="2" points="34.0474,-334.221 30.5473,-324.221 27.0474,-334.221 34.0474,-334.221"/>
</g>
<!-- T3 -->
<g id="node2" class="node"><title>T3</title>
<ellipse fill="none" stroke="black" cx="63.5473" cy="-111.798" rx="20.6302" ry="20.6302"/>
<ellipse fill="none" stroke="black" cx="63.5473" cy="-111.798" rx="24.5979" ry="24.5979"/>
<text text-anchor="middle" x="63.5473" y="-108.098" font-family="Times New Roman,serif" font-size="14.00">T3</text>
</g>
<!-- T2 -->
<g id="node3" class="node"><title>T2</title>
<ellipse fill="none" stroke="black" cx="72.5473" cy="-18" rx="27" ry="18"/>
<text text-anchor="middle" x="72.5473" y="-14.3" font-family="Times New Roman,serif" font-size="14.00">T2</text>
</g>
<!-- T3&#45;&gt;T2 -->
<g id="edge11" class="edge"><title>T3&#45;&gt;T2</title>
<path fill="none" stroke="black" d="M49.7147,-91.0583C43.7805,-80.1234 39.116,-66.2936 43.5473,-54 45.2314,-49.3277 47.8403,-44.8374 50.8174,-40.7218"/>
<polygon fill="black" stroke="black" points="53.629,-42.813 57.2673,-32.8624 48.2179,-38.3723 53.629,-42.813"/>
<text text-anchor="middle" x="47.5473" y="-57.8" font-family="Times New Roman,serif" font-size="14.00">b</text>
</g>
<!-- T3&#45;&gt;T2 -->
<g id="edge12" class="edge"><title>T3&#45;&gt;T2</title>
<path fill="none" stroke="black" d="M65.9119,-86.6793C67.1326,-74.2289 68.6261,-58.9952 69.8869,-46.1353"/>
<polygon fill="black" stroke="black" points="73.3876,-46.2983 70.8802,-36.0045 66.421,-45.6152 73.3876,-46.2983"/>
<text text-anchor="middle" x="73.0473" y="-57.8" font-family="Times New Roman,serif" font-size="14.00">a</text>
</g>
<!-- T3&#45;&gt;T2 -->
<g id="edge13" class="edge"><title>T3&#45;&gt;T2</title>
<path fill="none" stroke="black" d="M74.1924,-89.1626C76.8018,-82.8189 79.2241,-75.7656 80.5473,-69 82.0322,-61.4078 81.5509,-53.127 80.2797,-45.5282"/>
<polygon fill="black" stroke="black" points="83.6939,-44.7567 78.1672,-35.7176 76.8507,-46.2303 83.6939,-44.7567"/>
<text text-anchor="middle" x="85.0473" y="-57.8" font-family="Times New Roman,serif" font-size="14.00">c</text>
</g>
<!-- T2&#45;&gt;T2 -->
<g id="edge8" class="edge"><title>T2&#45;&gt;T2</title>
<path fill="none" stroke="black" d="M99.3421,-20.6192C109.328,-20.7051 117.547,-19.832 117.547,-18 117.547,-16.855 114.337,-16.0846 109.491,-15.6887"/>
<polygon fill="black" stroke="black" points="109.444,-12.1858 99.3421,-15.3808 109.231,-19.1826 109.444,-12.1858"/>
<text text-anchor="middle" x="121.547" y="-14.3" font-family="Times New Roman,serif" font-size="14.00">b</text>
</g>
<!-- T2&#45;&gt;T2 -->
<g id="edge9" class="edge"><title>T2&#45;&gt;T2</title>
<path fill="none" stroke="black" d="M98.7608,-22.7113C117.243,-24.1915 135.547,-22.6211 135.547,-18 135.547,-14.2454 123.464,-12.5046 109.019,-12.7778"/>
<polygon fill="black" stroke="black" points="108.574,-9.2955 98.7608,-13.2887 108.923,-16.2868 108.574,-9.2955"/>
<text text-anchor="middle" x="139.047" y="-14.3" font-family="Times New Roman,serif" font-size="14.00">a</text>
</g>
<!-- T2&#45;&gt;T2 -->
<g id="edge10" class="edge"><title>T2&#45;&gt;T2</title>
<path fill="none" stroke="black" d="M98.2599,-24.1447C124.425,-27.7592 153.547,-25.7109 153.547,-18 153.547,-11.2831 131.449,-8.863 108.457,-10.7398"/>
<polygon fill="black" stroke="black" points="107.82,-7.28856 98.2599,-11.8553 108.581,-14.2471 107.82,-7.28856"/>
<text text-anchor="middle" x="157.047" y="-14.3" font-family="Times New Roman,serif" font-size="14.00">c</text>
</g>
<!-- T0&#45;&gt;T2 -->
<g id="edge4" class="edge"><title>T0&#45;&gt;T2</title>
<path fill="none" stroke="black" d="M28.8835,-288.116C25.6344,-251.21 19.5917,-161.341 29.5473,-87 31.5651,-71.9322 31.0123,-67.2036 38.5473,-54 41.3815,-49.0336 45.0849,-44.2529 49.0021,-39.9052"/>
<polygon fill="black" stroke="black" points="51.655,-42.1983 56.1423,-32.6006 46.6492,-37.3052 51.655,-42.1983"/>
<text text-anchor="middle" x="28.0473" y="-158.396" font-family="Times New Roman,serif" font-size="14.00">c</text>
</g>
<!-- T0&#45;&gt;T0 -->
<g id="edge2" class="edge"><title>T0&#45;&gt;T0</title>
<path fill="none" stroke="black" d="M55.9908,-312.883C66.5751,-313.345 75.5473,-311.114 75.5473,-306.193 75.5473,-302.963 71.6833,-300.892 66.0354,-299.98"/>
<polygon fill="black" stroke="black" points="66.146,-296.482 55.9908,-299.502 65.8129,-303.474 66.146,-296.482"/>
<text text-anchor="middle" x="79.5473" y="-302.493" font-family="Times New Roman,serif" font-size="14.00">b</text>
</g>
<!-- T1 -->
<g id="node5" class="node"><title>T1</title>
<ellipse fill="none" stroke="black" cx="63.5473" cy="-212.394" rx="20.6302" ry="20.6302"/>
<ellipse fill="none" stroke="black" cx="63.5473" cy="-212.394" rx="24.5979" ry="24.5979"/>
<text text-anchor="middle" x="63.5473" y="-208.694" font-family="Times New Roman,serif" font-size="14.00">T1</text>
</g>
<!-- T0&#45;&gt;T1 -->
<g id="edge3" class="edge"><title>T0&#45;&gt;T1</title>
<path fill="none" stroke="black" d="M36.6,-288.355C40.8936,-276.412 46.7905,-260.008 51.9734,-245.59"/>
<polygon fill="black" stroke="black" points="55.3298,-246.6 55.4191,-236.005 48.7425,-244.232 55.3298,-246.6"/>
<text text-anchor="middle" x="52.0473" y="-258.993" font-family="Times New Roman,serif" font-size="14.00">a</text>
</g>
<!-- T1&#45;&gt;T3 -->
<g id="edge7" class="edge"><title>T1&#45;&gt;T3</title>
<path fill="none" stroke="black" d="M63.5473,-187.527C63.5473,-175.385 63.5473,-160.409 63.5473,-147.059"/>
<polygon fill="black" stroke="black" points="67.0474,-146.787 63.5473,-136.788 60.0474,-146.788 67.0474,-146.787"/>
<text text-anchor="middle" x="67.0473" y="-158.396" font-family="Times New Roman,serif" font-size="14.00">c</text>
</g>
<!-- T1&#45;&gt;T2 -->
<g id="edge5" class="edge"><title>T1&#45;&gt;T2</title>
<path fill="none" stroke="black" d="M75.9029,-190.632C83.8255,-176.067 93.3799,-155.835 97.5473,-136.596 105.333,-100.653 104.63,-88.7352 92.5473,-54 91.3617,-50.5917 89.8424,-47.1365 88.1718,-43.7915"/>
<polygon fill="black" stroke="black" points="91.1035,-41.8594 83.2148,-34.787 84.9713,-45.2352 91.1035,-41.8594"/>
<text text-anchor="middle" x="107.547" y="-108.098" font-family="Times New Roman,serif" font-size="14.00">b</text>
</g>
<!-- T1&#45;&gt;T1 -->
<g id="edge6" class="edge"><title>T1&#45;&gt;T1</title>
<path fill="none" stroke="black" d="M86.8794,-221.623C97.3177,-222.502 106.345,-219.426 106.345,-212.394 106.345,-207.89 102.64,-205.009 97.2331,-203.751"/>
<polygon fill="black" stroke="black" points="97.0609,-200.236 86.8794,-203.166 96.6661,-207.224 97.0609,-200.236"/>
<text text-anchor="middle" x="109.845" y="-208.694" font-family="Times New Roman,serif" font-size="14.00">a</text>
</g>
</g>
</svg>
