<?xml version="1.0" encoding="UTF-8" standalone="no"?>
<!DOCTYPE svg PUBLIC "-//W3C//DTD SVG 1.1//EN"
 "http://www.w3.org/Graphics/SVG/1.1/DTD/svg11.dtd">
<!-- Generated by graphviz version 2.38.0 (20140413.2041)
 -->
<!-- Title: %3 Pages: 1 -->
<svg width="204pt" height="492pt"
 viewBox="0.00 0.00 204.00 492.19" xmlns="http://www.w3.org/2000/svg" xmlns:xlink="http://www.w3.org/1999/xlink">
<g id="graph0" class="graph" transform="scale(1 1) rotate(0) translate(4 488.193)">
<title>%3</title>
<polygon fill="white" stroke="none" points="-4,4 -4,-488.193 200,-488.193 200,4 -4,4"/>
<!-- fake0 -->
<g id="node1" class="node"><title>fake0</title>
</g>
<!-- T0 -->
<g id="node4" class="node"><title>T0</title>
<ellipse fill="none" stroke="black" cx="55" cy="-393.193" rx="27" ry="18"/>
<text text-anchor="middle" x="55" y="-389.493" font-family="Times New Roman,serif" font-size="14.00">T0</text>
</g>
<!-- fake0&#45;&gt;T0 -->
<g id="edge1" class="edge"><title>fake0&#45;&gt;T0</title>
<path fill="none" stroke="black" stroke-width="2" d="M55,-448.005C55,-439.982 55,-430.24 55,-421.262"/>
<polygon fill="black" stroke="black" stroke-width="2" points="58.5001,-421.221 55,-411.221 51.5001,-421.221 58.5001,-421.221"/>
</g>
<!-- T4 -->
<g id="node2" class="node"><title>T4</title>
<ellipse fill="none" stroke="black" cx="103" cy="-111.798" rx="20.6302" ry="20.6302"/>
<ellipse fill="none" stroke="black" cx="103" cy="-111.798" rx="24.5979" ry="24.5979"/>
<text text-anchor="middle" x="103" y="-108.098" font-family="Times New Roman,serif" font-size="14.00">T4</text>
</g>
<!-- T3 -->
<g id="node5" class="node"><title>T3</title>
<ellipse fill="none" stroke="black" cx="93" cy="-18" rx="27" ry="18"/>
<text text-anchor="middle" x="93" y="-14.3" font-family="Times New Roman,serif" font-size="14.00">T3</text>
</g>
<!-- T4&#45;&gt;T3 -->
<g id="edge14" class="edge"><title>T4&#45;&gt;T3</title>
<path fill="none" stroke="black" d="M89.3536,-90.8271C85.5534,-84.1793 81.9377,-76.5408 80,-69 77.9823,-61.1478 79.0101,-52.6071 81.1844,-44.843"/>
<polygon fill="black" stroke="black" points="84.5567,-45.8018 84.5434,-35.207 77.9468,-43.4976 84.5567,-45.8018"/>
<text text-anchor="middle" x="84" y="-57.8" font-family="Times New Roman,serif" font-size="14.00">b</text>
</g>
<!-- T4&#45;&gt;T3 -->
<g id="edge15" class="edge"><title>T4&#45;&gt;T3</title>
<path fill="none" stroke="black" d="M100.373,-86.6793C99.0163,-74.2289 97.3569,-58.9952 95.956,-46.1353"/>
<polygon fill="black" stroke="black" points="99.4148,-45.5666 94.8524,-36.0045 92.456,-46.3247 99.4148,-45.5666"/>
<text text-anchor="middle" x="102.5" y="-57.8" font-family="Times New Roman,serif" font-size="14.00">a</text>
</g>
<!-- T4&#45;&gt;T3 -->
<g id="edge16" class="edge"><title>T4&#45;&gt;T3</title>
<path fill="none" stroke="black" d="M109.468,-87.6719C111.448,-77.29 112.517,-64.9413 110,-54 109.258,-50.7742 108.177,-47.5009 106.915,-44.3167"/>
<polygon fill="black" stroke="black" points="110.075,-42.8104 102.738,-35.167 103.707,-45.7174 110.075,-42.8104"/>
<text text-anchor="middle" x="115.5" y="-57.8" font-family="Times New Roman,serif" font-size="14.00">c</text>
</g>
<!-- T1 -->
<g id="node3" class="node"><title>T1</title>
<ellipse fill="none" stroke="black" cx="55" cy="-306.193" rx="27" ry="18"/>
<text text-anchor="middle" x="55" y="-302.493" font-family="Times New Roman,serif" font-size="14.00">T1</text>
</g>
<!-- T1&#45;&gt;T1 -->
<g id="edge5" class="edge"><title>T1&#45;&gt;T1</title>
<path fill="none" stroke="black" d="M79.5325,-313.945C90.5078,-314.683 100,-312.099 100,-306.193 100,-302.224 95.7151,-299.756 89.5743,-298.787"/>
<polygon fill="black" stroke="black" points="89.6472,-295.288 79.5325,-298.441 89.4059,-302.283 89.6472,-295.288"/>
<text text-anchor="middle" x="104" y="-302.493" font-family="Times New Roman,serif" font-size="14.00">b</text>
</g>
<!-- T1&#45;&gt;T3 -->
<g id="edge7" class="edge"><title>T1&#45;&gt;T3</title>
<path fill="none" stroke="black" d="M55.4222,-288.155C56.4818,-251.327 59.8561,-161.6 69,-87 70.8136,-72.2036 70.2057,-68.1151 75,-54 76.1331,-50.664 77.54,-47.2519 79.0644,-43.9298"/>
<polygon fill="black" stroke="black" points="82.2151,-45.4545 83.5421,-34.9431 75.9497,-42.3327 82.2151,-45.4545"/>
<text text-anchor="middle" x="66.5" y="-158.396" font-family="Times New Roman,serif" font-size="14.00">c</text>
</g>
<!-- T2 -->
<g id="node6" class="node"><title>T2</title>
<ellipse fill="none" stroke="black" cx="121" cy="-212.394" rx="20.6302" ry="20.6302"/>
<ellipse fill="none" stroke="black" cx="121" cy="-212.394" rx="24.5979" ry="24.5979"/>
<text text-anchor="middle" x="121" y="-208.694" font-family="Times New Roman,serif" font-size="14.00">T2</text>
</g>
<!-- T1&#45;&gt;T2 -->
<g id="edge6" class="edge"><title>T1&#45;&gt;T2</title>
<path fill="none" stroke="black" d="M66.196,-289.62C75.6915,-276.413 89.5465,-257.143 100.95,-241.282"/>
<polygon fill="black" stroke="black" points="103.993,-243.044 106.989,-232.882 98.3099,-238.958 103.993,-243.044"/>
<text text-anchor="middle" x="93.5" y="-258.993" font-family="Times New Roman,serif" font-size="14.00">a</text>
</g>
<!-- T0&#45;&gt;T1 -->
<g id="edge2" class="edge"><title>T0&#45;&gt;T1</title>
<path fill="none" stroke="black" d="M55,-374.992C55,-363.355 55,-347.741 55,-334.429"/>
<polygon fill="black" stroke="black" points="58.5001,-334.368 55,-324.368 51.5001,-334.368 58.5001,-334.368"/>
<text text-anchor="middle" x="59" y="-345.993" font-family="Times New Roman,serif" font-size="14.00">b</text>
</g>
<!-- T0&#45;&gt;T3 -->
<g id="edge4" class="edge"><title>T0&#45;&gt;T3</title>
<path fill="none" stroke="black" d="M39.0917,-378.601C22.8481,-363.122 0,-336.194 0,-307.193 0,-307.193 0,-307.193 0,-110.798 0,-75.2839 34.7752,-48.8774 61.7959,-33.7198"/>
<polygon fill="black" stroke="black" points="63.7846,-36.6258 70.9603,-28.831 60.4898,-30.4497 63.7846,-36.6258"/>
<text text-anchor="middle" x="3.5" y="-208.694" font-family="Times New Roman,serif" font-size="14.00">c</text>
</g>
<!-- T0&#45;&gt;T2 -->
<g id="edge3" class="edge"><title>T0&#45;&gt;T2</title>
<path fill="none" stroke="black" d="M72.2549,-379.257C87.1519,-366.951 107.699,-346.97 117,-324.193 126.925,-299.887 127.41,-270.028 125.696,-247.433"/>
<polygon fill="black" stroke="black" points="129.164,-246.925 124.745,-237.296 122.194,-247.579 129.164,-246.925"/>
<text text-anchor="middle" x="129.5" y="-302.493" font-family="Times New Roman,serif" font-size="14.00">a</text>
</g>
<!-- T3&#45;&gt;T3 -->
<g id="edge11" class="edge"><title>T3&#45;&gt;T3</title>
<path fill="none" stroke="black" d="M119.795,-20.6192C129.78,-20.7051 138,-19.832 138,-18 138,-16.855 134.789,-16.0846 129.943,-15.6887"/>
<polygon fill="black" stroke="black" points="129.896,-12.1858 119.795,-15.3808 129.684,-19.1826 129.896,-12.1858"/>
<text text-anchor="middle" x="142" y="-14.3" font-family="Times New Roman,serif" font-size="14.00">b</text>
</g>
<!-- T3&#45;&gt;T3 -->
<g id="edge12" class="edge"><title>T3&#45;&gt;T3</title>
<path fill="none" stroke="black" d="M119.214,-22.7113C137.696,-24.1915 156,-22.6211 156,-18 156,-14.2454 143.917,-12.5046 129.472,-12.7778"/>
<polygon fill="black" stroke="black" points="129.027,-9.2955 119.214,-13.2887 129.375,-16.2868 129.027,-9.2955"/>
<text text-anchor="middle" x="159.5" y="-14.3" font-family="Times New Roman,serif" font-size="14.00">a</text>
</g>
<!-- T3&#45;&gt;T3 -->
<g id="edge13" class="edge"><title>T3&#45;&gt;T3</title>
<path fill="none" stroke="black" d="M118.713,-24.1447C144.877,-27.7592 174,-25.7109 174,-18 174,-11.2831 151.902,-8.863 128.91,-10.7398"/>
<polygon fill="black" stroke="black" points="128.273,-7.28856 118.713,-11.8553 129.034,-14.2471 128.273,-7.28856"/>
<text text-anchor="middle" x="177.5" y="-14.3" font-family="Times New Roman,serif" font-size="14.00">c</text>
</g>
<!-- T2&#45;&gt;T4 -->
<g id="edge10" class="edge"><title>T2&#45;&gt;T4</title>
<path fill="none" stroke="black" d="M116.689,-187.778C114.434,-175.43 111.635,-160.099 109.157,-146.524"/>
<polygon fill="black" stroke="black" points="112.578,-145.772 107.339,-136.563 105.692,-147.029 112.578,-145.772"/>
<text text-anchor="middle" x="117.5" y="-158.396" font-family="Times New Roman,serif" font-size="14.00">c</text>
</g>
<!-- T2&#45;&gt;T3 -->
<g id="edge8" class="edge"><title>T2&#45;&gt;T3</title>
<path fill="none" stroke="black" d="M128.471,-188.303C135.548,-163.203 144.116,-121.993 137,-87 133.825,-71.3876 131.394,-67.5412 123,-54 120.346,-49.7189 117.184,-45.4274 113.924,-41.3893"/>
<polygon fill="black" stroke="black" points="116.38,-38.8752 107.225,-33.541 111.055,-43.4195 116.38,-38.8752"/>
<text text-anchor="middle" x="144" y="-108.098" font-family="Times New Roman,serif" font-size="14.00">b</text>
</g>
<!-- T2&#45;&gt;T2 -->
<g id="edge9" class="edge"><title>T2&#45;&gt;T2</title>
<path fill="none" stroke="black" d="M144.332,-221.623C154.77,-222.502 163.798,-219.426 163.798,-212.394 163.798,-207.89 160.093,-205.009 154.686,-203.751"/>
<polygon fill="black" stroke="black" points="154.514,-200.236 144.332,-203.166 154.119,-207.224 154.514,-200.236"/>
<text text-anchor="middle" x="167.298" y="-208.694" font-family="Times New Roman,serif" font-size="14.00">a</text>
</g>
</g>
</svg>
