<?xml version="1.0" encoding="UTF-8" standalone="no"?>
<!DOCTYPE svg PUBLIC "-//W3C//DTD SVG 1.1//EN"
 "http://www.w3.org/Graphics/SVG/1.1/DTD/svg11.dtd">
<!-- Generated by graphviz version 2.38.0 (20140413.2041)
 -->
<!-- Title: %3 Pages: 1 -->
<svg width="175pt" height="405pt"
 viewBox="0.00 0.00 174.80 405.19" xmlns="http://www.w3.org/2000/svg" xmlns:xlink="http://www.w3.org/1999/xlink">
<g id="graph0" class="graph" transform="scale(1 1) rotate(0) translate(4 401.193)">
<title>%3</title>
<polygon fill="white" stroke="none" points="-4,4 -4,-401.193 170.798,-401.193 170.798,4 -4,4"/>
<!-- fake0 -->
<g id="node1" class="node"><title>fake0</title>
</g>
<!-- T0 -->
<g id="node4" class="node"><title>T0</title>
<ellipse fill="none" stroke="black" cx="101.798" cy="-306.193" rx="27" ry="18"/>
<text text-anchor="middle" x="101.798" y="-302.493" font-family="Times New Roman,serif" font-size="14.00">T0</text>
</g>
<!-- fake0&#45;&gt;T0 -->
<g id="edge1" class="edge"><title>fake0&#45;&gt;T0</title>
<path fill="none" stroke="black" stroke-width="2" d="M101.798,-361.005C101.798,-352.982 101.798,-343.24 101.798,-334.262"/>
<polygon fill="black" stroke="black" stroke-width="2" points="105.298,-334.221 101.798,-324.221 98.2983,-334.221 105.298,-334.221"/>
</g>
<!-- T3 -->
<g id="node2" class="node"><title>T3</title>
<ellipse fill="none" stroke="black" cx="24.7982" cy="-111.798" rx="20.6302" ry="20.6302"/>
<ellipse fill="none" stroke="black" cx="24.7982" cy="-111.798" rx="24.5979" ry="24.5979"/>
<text text-anchor="middle" x="24.7982" y="-108.098" font-family="Times New Roman,serif" font-size="14.00">T3</text>
</g>
<!-- T1 -->
<g id="node5" class="node"><title>T1</title>
<ellipse fill="none" stroke="black" cx="63.7982" cy="-18" rx="27" ry="18"/>
<text text-anchor="middle" x="63.7982" y="-14.3" font-family="Times New Roman,serif" font-size="14.00">T1</text>
</g>
<!-- T3&#45;&gt;T1 -->
<g id="edge11" class="edge"><title>T3&#45;&gt;T1</title>
<path fill="none" stroke="black" d="M10.1447,-91.6473C3.33513,-80.2719 -1.92743,-65.8097 4.79815,-54 10.5741,-43.8578 20.574,-36.3516 30.7175,-30.9496"/>
<polygon fill="black" stroke="black" points="32.4228,-34.0145 39.9562,-26.5648 29.4214,-27.6906 32.4228,-34.0145"/>
<text text-anchor="middle" x="8.79815" y="-57.8" font-family="Times New Roman,serif" font-size="14.00">b</text>
</g>
<!-- T3&#45;&gt;T1 -->
<g id="edge12" class="edge"><title>T3&#45;&gt;T1</title>
<path fill="none" stroke="black" d="M27.3783,-87.1083C29.1256,-76.6175 32.0232,-64.3393 36.7982,-54 38.7328,-49.811 41.248,-45.659 43.9643,-41.7578"/>
<polygon fill="black" stroke="black" points="46.8228,-43.781 50.0849,-33.7008 41.2487,-39.5465 46.8228,-43.781"/>
<text text-anchor="middle" x="40.2982" y="-57.8" font-family="Times New Roman,serif" font-size="14.00">a</text>
</g>
<!-- T3&#45;&gt;T1 -->
<g id="edge13" class="edge"><title>T3&#45;&gt;T1</title>
<path fill="none" stroke="black" d="M34.239,-88.5764C39.8262,-75.4252 46.9306,-58.7028 52.7742,-44.9483"/>
<polygon fill="black" stroke="black" points="56.0777,-46.1233 56.7666,-35.5509 49.635,-43.3861 56.0777,-46.1233"/>
<text text-anchor="middle" x="51.2982" y="-57.8" font-family="Times New Roman,serif" font-size="14.00">c</text>
</g>
<!-- T2 -->
<g id="node3" class="node"><title>T2</title>
<ellipse fill="none" stroke="black" cx="43.7982" cy="-212.394" rx="20.6302" ry="20.6302"/>
<ellipse fill="none" stroke="black" cx="43.7982" cy="-212.394" rx="24.5979" ry="24.5979"/>
<text text-anchor="middle" x="43.7982" y="-208.694" font-family="Times New Roman,serif" font-size="14.00">T2</text>
</g>
<!-- T2&#45;&gt;T3 -->
<g id="edge10" class="edge"><title>T2&#45;&gt;T3</title>
<path fill="none" stroke="black" d="M39.2472,-187.778C36.8501,-175.339 33.8698,-159.873 31.2396,-146.225"/>
<polygon fill="black" stroke="black" points="34.6411,-145.379 29.312,-136.222 27.7675,-146.703 34.6411,-145.379"/>
<text text-anchor="middle" x="39.2982" y="-158.396" font-family="Times New Roman,serif" font-size="14.00">c</text>
</g>
<!-- T2&#45;&gt;T2 -->
<g id="edge9" class="edge"><title>T2&#45;&gt;T2</title>
<path fill="none" stroke="black" d="M67.1303,-221.623C77.5686,-222.502 86.5963,-219.426 86.5963,-212.394 86.5963,-207.89 82.8913,-205.009 77.484,-203.751"/>
<polygon fill="black" stroke="black" points="77.3118,-200.236 67.1303,-203.166 76.9169,-207.224 77.3118,-200.236"/>
<text text-anchor="middle" x="90.0963" y="-208.694" font-family="Times New Roman,serif" font-size="14.00">a</text>
</g>
<!-- T2&#45;&gt;T1 -->
<g id="edge8" class="edge"><title>T2&#45;&gt;T1</title>
<path fill="none" stroke="black" d="M49.4711,-187.964C52.7792,-173.297 56.7017,-153.953 58.7982,-136.596 62.5168,-105.809 63.5837,-70.1982 63.8359,-46.3017"/>
<polygon fill="black" stroke="black" points="67.3364,-46.2284 63.9011,-36.206 60.3365,-46.1831 67.3364,-46.2284"/>
<text text-anchor="middle" x="66.7982" y="-108.098" font-family="Times New Roman,serif" font-size="14.00">b</text>
</g>
<!-- T0&#45;&gt;T2 -->
<g id="edge3" class="edge"><title>T0&#45;&gt;T2</title>
<path fill="none" stroke="black" d="M91.6953,-289.203C83.556,-276.32 71.899,-257.87 62.123,-242.398"/>
<polygon fill="black" stroke="black" points="64.9256,-240.281 56.6253,-233.696 59.0078,-244.02 64.9256,-240.281"/>
<text text-anchor="middle" x="82.2982" y="-258.993" font-family="Times New Roman,serif" font-size="14.00">a</text>
</g>
<!-- T0&#45;&gt;T0 -->
<g id="edge2" class="edge"><title>T0&#45;&gt;T0</title>
<path fill="none" stroke="black" d="M127.242,-312.883C137.826,-313.345 146.798,-311.114 146.798,-306.193 146.798,-302.963 142.934,-300.892 137.286,-299.98"/>
<polygon fill="black" stroke="black" points="137.397,-296.482 127.242,-299.502 137.064,-303.474 137.397,-296.482"/>
<text text-anchor="middle" x="150.798" y="-302.493" font-family="Times New Roman,serif" font-size="14.00">b</text>
</g>
<!-- T0&#45;&gt;T1 -->
<g id="edge4" class="edge"><title>T0&#45;&gt;T1</title>
<path fill="none" stroke="black" d="M102.118,-288.146C102.36,-274.393 102.671,-254.548 102.798,-237.193 102.96,-215.15 104.834,-209.545 102.798,-187.596 97.2187,-127.448 94.6514,-112.008 77.7982,-54 76.9314,-51.0168 75.9048,-47.9365 74.8073,-44.8977"/>
<polygon fill="black" stroke="black" points="78.0438,-43.5632 71.1692,-35.5015 71.5161,-46.0907 78.0438,-43.5632"/>
<text text-anchor="middle" x="105.298" y="-158.396" font-family="Times New Roman,serif" font-size="14.00">c</text>
</g>
<!-- T1&#45;&gt;T1 -->
<g id="edge5" class="edge"><title>T1&#45;&gt;T1</title>
<path fill="none" stroke="black" d="M90.593,-20.6192C100.579,-20.7051 108.798,-19.832 108.798,-18 108.798,-16.855 105.587,-16.0846 100.741,-15.6887"/>
<polygon fill="black" stroke="black" points="100.695,-12.1858 90.593,-15.3808 100.482,-19.1826 100.695,-12.1858"/>
<text text-anchor="middle" x="112.798" y="-14.3" font-family="Times New Roman,serif" font-size="14.00">b</text>
</g>
<!-- T1&#45;&gt;T1 -->
<g id="edge6" class="edge"><title>T1&#45;&gt;T1</title>
<path fill="none" stroke="black" d="M90.0117,-22.7113C108.494,-24.1915 126.798,-22.6211 126.798,-18 126.798,-14.2454 114.715,-12.5046 100.27,-12.7778"/>
<polygon fill="black" stroke="black" points="99.8252,-9.2955 90.0117,-13.2887 100.173,-16.2868 99.8252,-9.2955"/>
<text text-anchor="middle" x="130.298" y="-14.3" font-family="Times New Roman,serif" font-size="14.00">a</text>
</g>
<!-- T1&#45;&gt;T1 -->
<g id="edge7" class="edge"><title>T1&#45;&gt;T1</title>
<path fill="none" stroke="black" d="M89.5108,-24.1447C115.676,-27.7592 144.798,-25.7109 144.798,-18 144.798,-11.2831 122.7,-8.863 99.7079,-10.7398"/>
<polygon fill="black" stroke="black" points="99.0709,-7.28856 89.5108,-11.8553 99.8321,-14.2471 99.0709,-7.28856"/>
<text text-anchor="middle" x="148.298" y="-14.3" font-family="Times New Roman,serif" font-size="14.00">c</text>
</g>
</g>
</svg>
