<?xml version="1.0" encoding="UTF-8" standalone="no"?>
<!DOCTYPE svg PUBLIC "-//W3C//DTD SVG 1.1//EN"
 "http://www.w3.org/Graphics/SVG/1.1/DTD/svg11.dtd">
<!-- Generated by graphviz version 2.38.0 (20140413.2041)
 -->
<!-- Title: %3 Pages: 1 -->
<svg width="253pt" height="740pt"
 viewBox="0.00 0.00 252.55 739.60" xmlns="http://www.w3.org/2000/svg" xmlns:xlink="http://www.w3.org/1999/xlink">
<g id="graph0" class="graph" transform="scale(1 1) rotate(0) translate(4 735.596)">
<title>%3</title>
<polygon fill="white" stroke="none" points="-4,4 -4,-735.596 248.547,-735.596 248.547,4 -4,4"/>
<!-- fake0 -->
<g id="node1" class="node"><title>fake0</title>
</g>
<!-- T0 -->
<g id="node8" class="node"><title>T0</title>
<ellipse fill="none" stroke="black" cx="30.5473" cy="-640.596" rx="27" ry="18"/>
<text text-anchor="middle" x="30.5473" y="-636.896" font-family="Times New Roman,serif" font-size="14.00">T0</text>
</g>
<!-- fake0&#45;&gt;T0 -->
<g id="edge1" class="edge"><title>fake0&#45;&gt;T0</title>
<path fill="none" stroke="black" stroke-width="2" d="M30.5473,-695.409C30.5473,-687.386 30.5473,-677.644 30.5473,-668.665"/>
<polygon fill="black" stroke="black" stroke-width="2" points="34.0474,-668.625 30.5473,-658.625 27.0474,-668.625 34.0474,-668.625"/>
</g>
<!-- T7 -->
<g id="node2" class="node"><title>T7</title>
<ellipse fill="none" stroke="black" cx="27.5473" cy="-24.7982" rx="20.6302" ry="20.6302"/>
<ellipse fill="none" stroke="black" cx="27.5473" cy="-24.7982" rx="24.5979" ry="24.5979"/>
<text text-anchor="middle" x="27.5473" y="-21.0982" font-family="Times New Roman,serif" font-size="14.00">T7</text>
</g>
<!-- T6 -->
<g id="node3" class="node"><title>T6</title>
<ellipse fill="none" stroke="black" cx="69.5473" cy="-118.596" rx="27" ry="18"/>
<text text-anchor="middle" x="69.5473" y="-114.896" font-family="Times New Roman,serif" font-size="14.00">T6</text>
</g>
<!-- T6&#45;&gt;T7 -->
<g id="edge12" class="edge"><title>T6&#45;&gt;T7</title>
<path fill="none" stroke="black" d="M62.0385,-101.185C56.4255,-88.9164 48.5824,-71.774 41.7933,-56.9353"/>
<polygon fill="black" stroke="black" points="44.8614,-55.2285 37.5182,-47.5912 38.496,-58.1408 44.8614,-55.2285"/>
<text text-anchor="middle" x="60.0473" y="-71.3963" font-family="Times New Roman,serif" font-size="14.00">EP</text>
</g>
<!-- T1 -->
<g id="node6" class="node"><title>T1</title>
<ellipse fill="none" stroke="black" cx="70.5473" cy="-553.596" rx="27" ry="18"/>
<text text-anchor="middle" x="70.5473" y="-549.896" font-family="Times New Roman,serif" font-size="14.00">T1</text>
</g>
<!-- T6&#45;&gt;T1 -->
<g id="edge13" class="edge"><title>T6&#45;&gt;T1</title>
<path fill="none" stroke="black" d="M73.6606,-136.414C77.4692,-153.479 82.5473,-180.711 82.5473,-204.596 82.5473,-467.596 82.5473,-467.596 82.5473,-467.596 82.5473,-487.157 79.393,-509.003 76.3188,-525.65"/>
<polygon fill="black" stroke="black" points="72.8257,-525.276 74.3442,-535.761 79.6959,-526.618 72.8257,-525.276"/>
<text text-anchor="middle" x="91.0473" y="-332.396" font-family="Times New Roman,serif" font-size="14.00">EP</text>
</g>
<!-- T5 -->
<g id="node4" class="node"><title>T5</title>
<ellipse fill="none" stroke="black" cx="149.547" cy="-205.596" rx="27" ry="18"/>
<text text-anchor="middle" x="149.547" y="-201.896" font-family="Times New Roman,serif" font-size="14.00">T5</text>
</g>
<!-- T5&#45;&gt;T6 -->
<g id="edge11" class="edge"><title>T5&#45;&gt;T6</title>
<path fill="none" stroke="black" d="M135.612,-189.79C123.108,-176.505 104.586,-156.825 90.3325,-141.681"/>
<polygon fill="black" stroke="black" points="92.7249,-139.116 83.3225,-134.233 87.6275,-143.913 92.7249,-139.116"/>
<text text-anchor="middle" x="122.047" y="-158.396" font-family="Times New Roman,serif" font-size="14.00">EP</text>
</g>
<!-- T2 -->
<g id="node5" class="node"><title>T2</title>
<ellipse fill="none" stroke="black" cx="150.547" cy="-466.596" rx="27" ry="18"/>
<text text-anchor="middle" x="150.547" y="-462.896" font-family="Times New Roman,serif" font-size="14.00">T2</text>
</g>
<!-- T5&#45;&gt;T2 -->
<g id="edge10" class="edge"><title>T5&#45;&gt;T2</title>
<path fill="none" stroke="black" d="M149.614,-223.916C149.784,-267.975 150.235,-384.603 150.441,-438.089"/>
<polygon fill="black" stroke="black" points="146.941,-438.214 150.48,-448.2 153.941,-438.187 146.941,-438.214"/>
<text text-anchor="middle" x="158.047" y="-332.396" font-family="Times New Roman,serif" font-size="14.00">EP</text>
</g>
<!-- T2&#45;&gt;T5 -->
<g id="edge7" class="edge"><title>T2&#45;&gt;T5</title>
<path fill="none" stroke="black" d="M145.613,-448.817C139.03,-425.475 127.72,-381.766 123.547,-343.596 119.301,-304.758 130.741,-260.443 139.777,-232.99"/>
<polygon fill="black" stroke="black" points="143.153,-233.936 143.085,-223.341 136.532,-231.665 143.153,-233.936"/>
<text text-anchor="middle" x="132.047" y="-332.396" font-family="Times New Roman,serif" font-size="14.00">EP</text>
</g>
<!-- T3 -->
<g id="node7" class="node"><title>T3</title>
<ellipse fill="none" stroke="black" cx="217.547" cy="-379.596" rx="27" ry="18"/>
<text text-anchor="middle" x="217.547" y="-375.896" font-family="Times New Roman,serif" font-size="14.00">T3</text>
</g>
<!-- T2&#45;&gt;T3 -->
<g id="edge6" class="edge"><title>T2&#45;&gt;T3</title>
<path fill="none" stroke="black" d="M162.526,-450.4C172.657,-437.547 187.343,-418.915 198.995,-404.133"/>
<polygon fill="black" stroke="black" points="202.005,-405.968 205.447,-395.948 196.508,-401.635 202.005,-405.968"/>
<text text-anchor="middle" x="198.047" y="-419.396" font-family="Times New Roman,serif" font-size="14.00">EP</text>
</g>
<!-- T1&#45;&gt;T6 -->
<g id="edge5" class="edge"><title>T1&#45;&gt;T6</title>
<path fill="none" stroke="black" d="M61.8414,-536.502C53.6219,-519.781 42.5473,-492.611 42.5473,-467.596 42.5473,-467.596 42.5473,-467.596 42.5473,-204.596 42.5473,-183.952 49.8709,-161.756 56.8897,-145.223"/>
<polygon fill="black" stroke="black" points="60.2507,-146.283 61.1523,-135.726 53.8644,-143.416 60.2507,-146.283"/>
<text text-anchor="middle" x="51.0473" y="-332.396" font-family="Times New Roman,serif" font-size="14.00">EP</text>
</g>
<!-- T1&#45;&gt;T2 -->
<g id="edge4" class="edge"><title>T1&#45;&gt;T2</title>
<path fill="none" stroke="black" d="M84.4822,-537.79C96.9861,-524.505 115.509,-504.825 129.762,-489.681"/>
<polygon fill="black" stroke="black" points="132.467,-491.913 136.772,-482.233 127.37,-487.116 132.467,-491.913"/>
<text text-anchor="middle" x="126.047" y="-506.396" font-family="Times New Roman,serif" font-size="14.00">EP</text>
</g>
<!-- T4 -->
<g id="node9" class="node"><title>T4</title>
<ellipse fill="none" stroke="black" cx="217.547" cy="-292.596" rx="27" ry="18"/>
<text text-anchor="middle" x="217.547" y="-288.896" font-family="Times New Roman,serif" font-size="14.00">T4</text>
</g>
<!-- T3&#45;&gt;T4 -->
<g id="edge8" class="edge"><title>T3&#45;&gt;T4</title>
<path fill="none" stroke="black" d="M217.547,-361.395C217.547,-349.759 217.547,-334.144 217.547,-320.833"/>
<polygon fill="black" stroke="black" points="221.047,-320.772 217.547,-310.772 214.047,-320.772 221.047,-320.772"/>
<text text-anchor="middle" x="221.047" y="-332.396" font-family="Times New Roman,serif" font-size="14.00">1</text>
</g>
<!-- T0&#45;&gt;T7 -->
<g id="edge2" class="edge"><title>T0&#45;&gt;T7</title>
<path fill="none" stroke="black" d="M21.8414,-623.502C13.6219,-606.781 2.54729,-579.611 2.54729,-554.596 2.54729,-554.596 2.54729,-554.596 2.54729,-117.596 2.54729,-97.1609 8.38619,-75.0374 14.4204,-57.6302"/>
<polygon fill="black" stroke="black" points="17.804,-58.5683 17.9531,-47.9746 11.2302,-56.1631 17.804,-58.5683"/>
<text text-anchor="middle" x="11.0473" y="-332.396" font-family="Times New Roman,serif" font-size="14.00">EP</text>
</g>
<!-- T0&#45;&gt;T1 -->
<g id="edge3" class="edge"><title>T0&#45;&gt;T1</title>
<path fill="none" stroke="black" d="M38.2597,-623.207C44.0147,-610.978 51.9859,-594.039 58.568,-580.052"/>
<polygon fill="black" stroke="black" points="61.7674,-581.473 62.8586,-570.935 55.4337,-578.493 61.7674,-581.473"/>
<text text-anchor="middle" x="62.0473" y="-593.396" font-family="Times New Roman,serif" font-size="14.00">EP</text>
</g>
<!-- T4&#45;&gt;T5 -->
<g id="edge9" class="edge"><title>T4&#45;&gt;T5</title>
<path fill="none" stroke="black" d="M205.39,-276.4C195.107,-263.547 180.202,-244.915 168.377,-230.133"/>
<polygon fill="black" stroke="black" points="170.808,-227.57 161.828,-221.948 165.342,-231.943 170.808,-227.57"/>
<text text-anchor="middle" x="196.047" y="-245.396" font-family="Times New Roman,serif" font-size="14.00">EP</text>
</g>
</g>
</svg>
