<?xml version="1.0" encoding="UTF-8" standalone="no"?>
<!DOCTYPE svg PUBLIC "-//W3C//DTD SVG 1.1//EN"
 "http://www.w3.org/Graphics/SVG/1.1/DTD/svg11.dtd">
<!-- Generated by graphviz version 2.38.0 (20140413.2041)
 -->
<!-- Title: %3 Pages: 1 -->
<svg width="88pt" height="231pt"
 viewBox="0.00 0.00 88.35 231.19" xmlns="http://www.w3.org/2000/svg" xmlns:xlink="http://www.w3.org/1999/xlink">
<g id="graph0" class="graph" transform="scale(1 1) rotate(0) translate(4 227.193)">
<title>%3</title>
<polygon fill="white" stroke="none" points="-4,4 -4,-227.193 84.3454,-227.193 84.3454,4 -4,4"/>
<!-- fake0 -->
<g id="node1" class="node"><title>fake0</title>
</g>
<!-- T0 -->
<g id="node3" class="node"><title>T0</title>
<ellipse fill="none" stroke="black" cx="30.5473" cy="-125.394" rx="20.6302" ry="20.6302"/>
<ellipse fill="none" stroke="black" cx="30.5473" cy="-125.394" rx="24.5979" ry="24.5979"/>
<text text-anchor="middle" x="30.5473" y="-121.694" font-family="Times New Roman,serif" font-size="14.00">T0</text>
</g>
<!-- fake0&#45;&gt;T0 -->
<g id="edge1" class="edge"><title>fake0&#45;&gt;T0</title>
<path fill="none" stroke="black" stroke-width="2" d="M30.5473,-186.927C30.5473,-179.121 30.5473,-169.611 30.5473,-160.462"/>
<polygon fill="black" stroke="black" stroke-width="2" points="34.0474,-160.398 30.5473,-150.398 27.0474,-160.398 34.0474,-160.398"/>
</g>
<!-- T1 -->
<g id="node2" class="node"><title>T1</title>
<ellipse fill="none" stroke="black" cx="30.5473" cy="-24.7982" rx="20.6302" ry="20.6302"/>
<ellipse fill="none" stroke="black" cx="30.5473" cy="-24.7982" rx="24.5979" ry="24.5979"/>
<text text-anchor="middle" x="30.5473" y="-21.0982" font-family="Times New Roman,serif" font-size="14.00">T1</text>
</g>
<!-- T1&#45;&gt;T1 -->
<g id="edge3" class="edge"><title>T1&#45;&gt;T1</title>
<path fill="none" stroke="black" d="M53.8794,-34.0267C64.3177,-34.9056 73.3454,-31.8294 73.3454,-24.7982 73.3454,-20.2938 69.6405,-17.4125 64.2331,-16.1545"/>
<polygon fill="black" stroke="black" points="64.0609,-12.6392 53.8794,-15.5696 63.6661,-19.6281 64.0609,-12.6392"/>
<text text-anchor="middle" x="76.8454" y="-21.0982" font-family="Times New Roman,serif" font-size="14.00">1</text>
</g>
<!-- T0&#45;&gt;T1 -->
<g id="edge2" class="edge"><title>T0&#45;&gt;T1</title>
<path fill="none" stroke="black" d="M30.5473,-100.527C30.5473,-88.3851 30.5473,-73.4089 30.5473,-60.0595"/>
<polygon fill="black" stroke="black" points="34.0474,-59.7875 30.5473,-49.7875 27.0474,-59.7875 34.0474,-59.7875"/>
<text text-anchor="middle" x="34.0473" y="-71.3963" font-family="Times New Roman,serif" font-size="14.00">1</text>
</g>
</g>
</svg>
