<?xml version="1.0" encoding="UTF-8" standalone="no"?>
<!DOCTYPE svg PUBLIC "-//W3C//DTD SVG 1.1//EN"
 "http://www.w3.org/Graphics/SVG/1.1/DTD/svg11.dtd">
<!-- Generated by graphviz version 2.38.0 (20140413.2041)
 -->
<!-- Title: %3 Pages: 1 -->
<svg width="88pt" height="131pt"
 viewBox="0.00 0.00 88.35 130.60" xmlns="http://www.w3.org/2000/svg" xmlns:xlink="http://www.w3.org/1999/xlink">
<g id="graph0" class="graph" transform="scale(1 1) rotate(0) translate(4 126.596)">
<title>%3</title>
<polygon fill="white" stroke="none" points="-4,4 -4,-126.596 84.3454,-126.596 84.3454,4 -4,4"/>
<!-- fake0 -->
<g id="node1" class="node"><title>fake0</title>
</g>
<!-- T0 -->
<g id="node2" class="node"><title>T0</title>
<ellipse fill="none" stroke="black" cx="30.5473" cy="-24.7982" rx="20.6302" ry="20.6302"/>
<ellipse fill="none" stroke="black" cx="30.5473" cy="-24.7982" rx="24.5979" ry="24.5979"/>
<text text-anchor="middle" x="30.5473" y="-21.0982" font-family="Times New Roman,serif" font-size="14.00">T0</text>
</g>
<!-- fake0&#45;&gt;T0 -->
<g id="edge1" class="edge"><title>fake0&#45;&gt;T0</title>
<path fill="none" stroke="black" stroke-width="2" d="M30.5473,-86.3304C30.5473,-78.5244 30.5473,-69.0142 30.5473,-59.8661"/>
<polygon fill="black" stroke="black" stroke-width="2" points="34.0474,-59.8015 30.5473,-49.8015 27.0474,-59.8016 34.0474,-59.8015"/>
</g>
<!-- T0&#45;&gt;T0 -->
<g id="edge2" class="edge"><title>T0&#45;&gt;T0</title>
<path fill="none" stroke="black" d="M54.3135,-32.5789C64.5667,-33.216 73.3454,-30.6224 73.3454,-24.7982 73.3454,-21.067 69.7427,-18.6617 64.4574,-17.5823"/>
<polygon fill="black" stroke="black" points="64.4927,-14.0789 54.3135,-17.0174 64.1034,-21.0681 64.4927,-14.0789"/>
<text text-anchor="middle" x="76.8454" y="-21.0982" font-family="Times New Roman,serif" font-size="14.00">1</text>
</g>
</g>
</svg>
