<?xml version="1.0" encoding="UTF-8" standalone="no"?>
<!DOCTYPE svg PUBLIC "-//W3C//DTD SVG 1.1//EN"
 "http://www.w3.org/Graphics/SVG/1.1/DTD/svg11.dtd">
<!-- Generated by graphviz version 2.38.0 (20140413.2041)
 -->
<!-- Title: %3 Pages: 1 -->
<svg width="220pt" height="1271pt"
 viewBox="0.00 0.00 219.55 1270.70" xmlns="http://www.w3.org/2000/svg" xmlns:xlink="http://www.w3.org/1999/xlink">
<g id="graph0" class="graph" transform="scale(1 1) rotate(0) translate(4 1266.7)">
<title>%3</title>
<polygon fill="white" stroke="none" points="-4,4 -4,-1266.7 215.547,-1266.7 215.547,4 -4,4"/>
<!-- fake0 -->
<g id="node1" class="node"><title>fake0</title>
</g>
<!-- T0 -->
<g id="node14" class="node"><title>T0</title>
<ellipse fill="none" stroke="black" cx="30.5473" cy="-1171.7" rx="27" ry="18"/>
<text text-anchor="middle" x="30.5473" y="-1168" font-family="Times New Roman,serif" font-size="14.00">T0</text>
</g>
<!-- fake0&#45;&gt;T0 -->
<g id="edge1" class="edge"><title>fake0&#45;&gt;T0</title>
<path fill="none" stroke="black" stroke-width="2" d="M30.5473,-1226.51C30.5473,-1218.48 30.5473,-1208.74 30.5473,-1199.76"/>
<polygon fill="black" stroke="black" stroke-width="2" points="34.0474,-1199.72 30.5473,-1189.72 27.0474,-1199.72 34.0474,-1199.72"/>
</g>
<!-- T16 -->
<g id="node2" class="node"><title>T16</title>
<ellipse fill="none" stroke="black" cx="86.5473" cy="-127.696" rx="27" ry="18"/>
<text text-anchor="middle" x="86.5473" y="-123.996" font-family="Times New Roman,serif" font-size="14.00">T16</text>
</g>
<!-- T17 -->
<g id="node11" class="node"><title>T17</title>
<ellipse fill="none" stroke="black" cx="42.5473" cy="-29.3478" rx="25.2169" ry="25.2169"/>
<ellipse fill="none" stroke="black" cx="42.5473" cy="-29.3478" rx="29.1963" ry="29.1963"/>
<text text-anchor="middle" x="42.5473" y="-25.6478" font-family="Times New Roman,serif" font-size="14.00">T17</text>
</g>
<!-- T16&#45;&gt;T17 -->
<g id="edge24" class="edge"><title>T16&#45;&gt;T17</title>
<path fill="none" stroke="black" d="M79.0833,-110.351C73.4793,-98.0803 65.5977,-80.8217 58.5887,-65.4741"/>
<polygon fill="black" stroke="black" points="61.7035,-63.869 54.3656,-56.2266 55.336,-66.7769 61.7035,-63.869"/>
<text text-anchor="middle" x="78.0473" y="-80.4955" font-family="Times New Roman,serif" font-size="14.00">EP</text>
</g>
<!-- T11 -->
<g id="node19" class="node"><title>T11</title>
<ellipse fill="none" stroke="black" cx="81.5473" cy="-388.696" rx="27" ry="18"/>
<text text-anchor="middle" x="81.5473" y="-384.996" font-family="Times New Roman,serif" font-size="14.00">T11</text>
</g>
<!-- T16&#45;&gt;T11 -->
<g id="edge23" class="edge"><title>T16&#45;&gt;T11</title>
<path fill="none" stroke="black" d="M83.3482,-145.666C80.9341,-159.377 77.8267,-179.201 76.5473,-196.696 72.2861,-254.959 76.2543,-323.453 79.1457,-360.527"/>
<polygon fill="black" stroke="black" points="75.6615,-360.865 79.9616,-370.548 82.6384,-360.297 75.6615,-360.865"/>
<text text-anchor="middle" x="83.0473" y="-254.496" font-family="Times New Roman,serif" font-size="14.00">EP</text>
</g>
<!-- T10 -->
<g id="node3" class="node"><title>T10</title>
<ellipse fill="none" stroke="black" cx="33.5473" cy="-475.696" rx="27" ry="18"/>
<text text-anchor="middle" x="33.5473" y="-471.996" font-family="Times New Roman,serif" font-size="14.00">T10</text>
</g>
<!-- T10&#45;&gt;T17 -->
<g id="edge16" class="edge"><title>T10&#45;&gt;T17</title>
<path fill="none" stroke="black" d="M28.4848,-457.937C23.7973,-440.918 17.5473,-413.721 17.5473,-389.696 17.5473,-389.696 17.5473,-389.696 17.5473,-126.696 17.5473,-106.471 22.772,-84.6027 28.4445,-66.8196"/>
<polygon fill="black" stroke="black" points="31.9224,-67.4588 31.8,-56.8647 25.2891,-65.2229 31.9224,-67.4588"/>
<text text-anchor="middle" x="26.0473" y="-254.496" font-family="Times New Roman,serif" font-size="14.00">EP</text>
</g>
<!-- T10&#45;&gt;T11 -->
<g id="edge15" class="edge"><title>T10&#45;&gt;T11</title>
<path fill="none" stroke="black" d="M42.5757,-458.708C49.5708,-446.321 59.3911,-428.93 67.4235,-414.706"/>
<polygon fill="black" stroke="black" points="70.5265,-416.329 72.3961,-405.901 64.4313,-412.887 70.5265,-416.329"/>
<text text-anchor="middle" x="70.0473" y="-428.496" font-family="Times New Roman,serif" font-size="14.00">EP</text>
</g>
<!-- T4 -->
<g id="node4" class="node"><title>T4</title>
<ellipse fill="none" stroke="black" cx="103.547" cy="-997.696" rx="27" ry="18"/>
<text text-anchor="middle" x="103.547" y="-993.996" font-family="Times New Roman,serif" font-size="14.00">T4</text>
</g>
<!-- T5 -->
<g id="node5" class="node"><title>T5</title>
<ellipse fill="none" stroke="black" cx="103.547" cy="-910.696" rx="27" ry="18"/>
<text text-anchor="middle" x="103.547" y="-906.996" font-family="Times New Roman,serif" font-size="14.00">T5</text>
</g>
<!-- T4&#45;&gt;T5 -->
<g id="edge8" class="edge"><title>T4&#45;&gt;T5</title>
<path fill="none" stroke="black" d="M103.547,-979.494C103.547,-967.858 103.547,-952.243 103.547,-938.932"/>
<polygon fill="black" stroke="black" points="107.047,-938.871 103.547,-928.871 100.047,-938.871 107.047,-938.871"/>
<text text-anchor="middle" x="107.547" y="-950.496" font-family="Times New Roman,serif" font-size="14.00">b</text>
</g>
<!-- T6 -->
<g id="node10" class="node"><title>T6</title>
<ellipse fill="none" stroke="black" cx="77.5473" cy="-823.696" rx="27" ry="18"/>
<text text-anchor="middle" x="77.5473" y="-819.996" font-family="Times New Roman,serif" font-size="14.00">T6</text>
</g>
<!-- T5&#45;&gt;T6 -->
<g id="edge9" class="edge"><title>T5&#45;&gt;T6</title>
<path fill="none" stroke="black" d="M98.4105,-892.902C94.7782,-881.027 89.8341,-864.864 85.6705,-851.252"/>
<polygon fill="black" stroke="black" points="88.9454,-849.993 82.6734,-841.454 82.2516,-852.04 88.9454,-849.993"/>
<text text-anchor="middle" x="100.047" y="-863.496" font-family="Times New Roman,serif" font-size="14.00">EP</text>
</g>
<!-- T12 -->
<g id="node6" class="node"><title>T12</title>
<ellipse fill="none" stroke="black" cx="112.547" cy="-301.696" rx="27" ry="18"/>
<text text-anchor="middle" x="112.547" y="-297.996" font-family="Times New Roman,serif" font-size="14.00">T12</text>
</g>
<!-- T13 -->
<g id="node12" class="node"><title>T13</title>
<ellipse fill="none" stroke="black" cx="112.547" cy="-214.696" rx="27" ry="18"/>
<text text-anchor="middle" x="112.547" y="-210.996" font-family="Times New Roman,serif" font-size="14.00">T13</text>
</g>
<!-- T12&#45;&gt;T13 -->
<g id="edge19" class="edge"><title>T12&#45;&gt;T13</title>
<path fill="none" stroke="black" d="M112.547,-283.494C112.547,-271.858 112.547,-256.243 112.547,-242.932"/>
<polygon fill="black" stroke="black" points="116.047,-242.871 112.547,-232.871 109.047,-242.871 116.047,-242.871"/>
<text text-anchor="middle" x="116.047" y="-254.496" font-family="Times New Roman,serif" font-size="14.00">a</text>
</g>
<!-- T14 -->
<g id="node7" class="node"><title>T14</title>
<ellipse fill="none" stroke="black" cx="184.547" cy="-301.696" rx="27" ry="18"/>
<text text-anchor="middle" x="184.547" y="-297.996" font-family="Times New Roman,serif" font-size="14.00">T14</text>
</g>
<!-- T15 -->
<g id="node8" class="node"><title>T15</title>
<ellipse fill="none" stroke="black" cx="184.547" cy="-214.696" rx="27" ry="18"/>
<text text-anchor="middle" x="184.547" y="-210.996" font-family="Times New Roman,serif" font-size="14.00">T15</text>
</g>
<!-- T14&#45;&gt;T15 -->
<g id="edge21" class="edge"><title>T14&#45;&gt;T15</title>
<path fill="none" stroke="black" d="M184.547,-283.494C184.547,-271.858 184.547,-256.243 184.547,-242.932"/>
<polygon fill="black" stroke="black" points="188.047,-242.871 184.547,-232.871 181.047,-242.871 188.047,-242.871"/>
<text text-anchor="middle" x="188.547" y="-254.496" font-family="Times New Roman,serif" font-size="14.00">b</text>
</g>
<!-- T15&#45;&gt;T16 -->
<g id="edge22" class="edge"><title>T15&#45;&gt;T16</title>
<path fill="none" stroke="black" d="M168.802,-200.039C153.037,-186.365 128.576,-165.149 110.422,-149.403"/>
<polygon fill="black" stroke="black" points="112.427,-146.509 102.579,-142.601 107.84,-151.797 112.427,-146.509"/>
<text text-anchor="middle" x="149.047" y="-167.496" font-family="Times New Roman,serif" font-size="14.00">EP</text>
</g>
<!-- T2 -->
<g id="node9" class="node"><title>T2</title>
<ellipse fill="none" stroke="black" cx="175.547" cy="-997.696" rx="27" ry="18"/>
<text text-anchor="middle" x="175.547" y="-993.996" font-family="Times New Roman,serif" font-size="14.00">T2</text>
</g>
<!-- T3 -->
<g id="node15" class="node"><title>T3</title>
<ellipse fill="none" stroke="black" cx="175.547" cy="-910.696" rx="27" ry="18"/>
<text text-anchor="middle" x="175.547" y="-906.996" font-family="Times New Roman,serif" font-size="14.00">T3</text>
</g>
<!-- T2&#45;&gt;T3 -->
<g id="edge6" class="edge"><title>T2&#45;&gt;T3</title>
<path fill="none" stroke="black" d="M175.547,-979.494C175.547,-967.858 175.547,-952.243 175.547,-938.932"/>
<polygon fill="black" stroke="black" points="179.047,-938.871 175.547,-928.871 172.047,-938.871 179.047,-938.871"/>
<text text-anchor="middle" x="179.547" y="-950.496" font-family="Times New Roman,serif" font-size="14.00">b</text>
</g>
<!-- T7 -->
<g id="node17" class="node"><title>T7</title>
<ellipse fill="none" stroke="black" cx="33.5473" cy="-736.696" rx="27" ry="18"/>
<text text-anchor="middle" x="33.5473" y="-732.996" font-family="Times New Roman,serif" font-size="14.00">T7</text>
</g>
<!-- T6&#45;&gt;T7 -->
<g id="edge11" class="edge"><title>T6&#45;&gt;T7</title>
<path fill="none" stroke="black" d="M69.0636,-806.307C62.7331,-794.077 53.9648,-777.138 46.7245,-763.152"/>
<polygon fill="black" stroke="black" points="49.7103,-761.306 42.0049,-754.034 43.4938,-764.524 49.7103,-761.306"/>
<text text-anchor="middle" x="66.0473" y="-776.496" font-family="Times New Roman,serif" font-size="14.00">EP</text>
</g>
<!-- T1 -->
<g id="node18" class="node"><title>T1</title>
<ellipse fill="none" stroke="black" cx="72.5473" cy="-1084.7" rx="27" ry="18"/>
<text text-anchor="middle" x="72.5473" y="-1081" font-family="Times New Roman,serif" font-size="14.00">T1</text>
</g>
<!-- T6&#45;&gt;T1 -->
<g id="edge10" class="edge"><title>T6&#45;&gt;T1</title>
<path fill="none" stroke="black" d="M74.3482,-841.666C71.9341,-855.377 68.8267,-875.201 67.5473,-892.696 63.2861,-950.959 67.2543,-1019.45 70.1457,-1056.53"/>
<polygon fill="black" stroke="black" points="66.6615,-1056.86 70.9616,-1066.55 73.6384,-1056.3 66.6615,-1056.86"/>
<text text-anchor="middle" x="74.0473" y="-950.496" font-family="Times New Roman,serif" font-size="14.00">EP</text>
</g>
<!-- T13&#45;&gt;T16 -->
<g id="edge20" class="edge"><title>T13&#45;&gt;T16</title>
<path fill="none" stroke="black" d="M107.411,-196.902C103.778,-185.027 98.8341,-168.864 94.6705,-155.252"/>
<polygon fill="black" stroke="black" points="97.9454,-153.993 91.6734,-145.454 91.2516,-156.04 97.9454,-153.993"/>
<text text-anchor="middle" x="109.047" y="-167.496" font-family="Times New Roman,serif" font-size="14.00">EP</text>
</g>
<!-- T8 -->
<g id="node13" class="node"><title>T8</title>
<ellipse fill="none" stroke="black" cx="33.5473" cy="-649.696" rx="27" ry="18"/>
<text text-anchor="middle" x="33.5473" y="-645.996" font-family="Times New Roman,serif" font-size="14.00">T8</text>
</g>
<!-- T9 -->
<g id="node16" class="node"><title>T9</title>
<ellipse fill="none" stroke="black" cx="33.5473" cy="-562.696" rx="27" ry="18"/>
<text text-anchor="middle" x="33.5473" y="-558.996" font-family="Times New Roman,serif" font-size="14.00">T9</text>
</g>
<!-- T8&#45;&gt;T9 -->
<g id="edge13" class="edge"><title>T8&#45;&gt;T9</title>
<path fill="none" stroke="black" d="M33.5473,-631.494C33.5473,-619.858 33.5473,-604.243 33.5473,-590.932"/>
<polygon fill="black" stroke="black" points="37.0474,-590.871 33.5473,-580.871 30.0474,-590.871 37.0474,-590.871"/>
<text text-anchor="middle" x="37.5473" y="-602.496" font-family="Times New Roman,serif" font-size="14.00">b</text>
</g>
<!-- T0&#45;&gt;T7 -->
<g id="edge3" class="edge"><title>T0&#45;&gt;T7</title>
<path fill="none" stroke="black" d="M23.5864,-1154.09C17.141,-1137.19 8.54729,-1110.08 8.54729,-1085.7 8.54729,-1085.7 8.54729,-1085.7 8.54729,-822.696 8.54729,-802.314 15.2445,-780.26 21.7062,-763.725"/>
<polygon fill="black" stroke="black" points="25.0548,-764.786 25.6371,-754.207 18.5849,-762.114 25.0548,-764.786"/>
<text text-anchor="middle" x="17.0473" y="-950.496" font-family="Times New Roman,serif" font-size="14.00">EP</text>
</g>
<!-- T0&#45;&gt;T1 -->
<g id="edge2" class="edge"><title>T0&#45;&gt;T1</title>
<path fill="none" stroke="black" d="M38.6453,-1154.31C44.6881,-1142.08 53.0579,-1125.14 59.969,-1111.15"/>
<polygon fill="black" stroke="black" points="63.182,-1112.55 64.4741,-1102.03 56.9063,-1109.45 63.182,-1112.55"/>
<text text-anchor="middle" x="63.0473" y="-1124.5" font-family="Times New Roman,serif" font-size="14.00">EP</text>
</g>
<!-- T3&#45;&gt;T6 -->
<g id="edge7" class="edge"><title>T3&#45;&gt;T6</title>
<path fill="none" stroke="black" d="M159.802,-896.039C144.037,-882.365 119.576,-861.149 101.422,-845.403"/>
<polygon fill="black" stroke="black" points="103.427,-842.509 93.5792,-838.601 98.8403,-847.797 103.427,-842.509"/>
<text text-anchor="middle" x="140.047" y="-863.496" font-family="Times New Roman,serif" font-size="14.00">EP</text>
</g>
<!-- T9&#45;&gt;T10 -->
<g id="edge14" class="edge"><title>T9&#45;&gt;T10</title>
<path fill="none" stroke="black" d="M33.5473,-544.494C33.5473,-532.858 33.5473,-517.243 33.5473,-503.932"/>
<polygon fill="black" stroke="black" points="37.0474,-503.871 33.5473,-493.871 30.0474,-503.871 37.0474,-503.871"/>
<text text-anchor="middle" x="37.5473" y="-515.496" font-family="Times New Roman,serif" font-size="14.00">b</text>
</g>
<!-- T7&#45;&gt;T8 -->
<g id="edge12" class="edge"><title>T7&#45;&gt;T8</title>
<path fill="none" stroke="black" d="M33.5473,-718.494C33.5473,-706.858 33.5473,-691.243 33.5473,-677.932"/>
<polygon fill="black" stroke="black" points="37.0474,-677.871 33.5473,-667.871 30.0474,-677.871 37.0474,-677.871"/>
<text text-anchor="middle" x="37.0473" y="-689.496" font-family="Times New Roman,serif" font-size="14.00">a</text>
</g>
<!-- T1&#45;&gt;T4 -->
<g id="edge5" class="edge"><title>T1&#45;&gt;T4</title>
<path fill="none" stroke="black" d="M78.6719,-1066.9C83.0451,-1054.91 89.0134,-1038.55 94.0077,-1024.85"/>
<polygon fill="black" stroke="black" points="97.2972,-1026.05 97.4354,-1015.45 90.7209,-1023.65 97.2972,-1026.05"/>
<text text-anchor="middle" x="99.0473" y="-1037.5" font-family="Times New Roman,serif" font-size="14.00">EP</text>
</g>
<!-- T1&#45;&gt;T2 -->
<g id="edge4" class="edge"><title>T1&#45;&gt;T2</title>
<path fill="none" stroke="black" d="M89.096,-1070.04C105.914,-1056.16 132.149,-1034.51 151.309,-1018.7"/>
<polygon fill="black" stroke="black" points="153.555,-1021.38 159.04,-1012.32 149.099,-1015.98 153.555,-1021.38"/>
<text text-anchor="middle" x="141.047" y="-1037.5" font-family="Times New Roman,serif" font-size="14.00">EP</text>
</g>
<!-- T11&#45;&gt;T12 -->
<g id="edge17" class="edge"><title>T11&#45;&gt;T12</title>
<path fill="none" stroke="black" d="M87.6719,-370.902C92.0451,-358.911 98.0134,-342.547 103.008,-328.853"/>
<polygon fill="black" stroke="black" points="106.297,-330.048 106.435,-319.454 99.7209,-327.649 106.297,-330.048"/>
<text text-anchor="middle" x="108.047" y="-341.496" font-family="Times New Roman,serif" font-size="14.00">EP</text>
</g>
<!-- T11&#45;&gt;T14 -->
<g id="edge18" class="edge"><title>T11&#45;&gt;T14</title>
<path fill="none" stroke="black" d="M98.096,-374.039C114.914,-360.16 141.149,-338.51 160.309,-322.698"/>
<polygon fill="black" stroke="black" points="162.555,-325.383 168.04,-316.318 158.099,-319.984 162.555,-325.383"/>
<text text-anchor="middle" x="150.047" y="-341.496" font-family="Times New Roman,serif" font-size="14.00">EP</text>
</g>
</g>
</svg>
