<?xml version="1.0" encoding="UTF-8" standalone="no"?>
<!DOCTYPE svg PUBLIC "-//W3C//DTD SVG 1.1//EN"
 "http://www.w3.org/Graphics/SVG/1.1/DTD/svg11.dtd">
<!-- Generated by graphviz version 2.38.0 (20140413.2041)
 -->
<!-- Title: %3 Pages: 1 -->
<svg width="181pt" height="680pt"
 viewBox="0.00 0.00 180.80 679.79" xmlns="http://www.w3.org/2000/svg" xmlns:xlink="http://www.w3.org/1999/xlink">
<g id="graph0" class="graph" transform="scale(1 1) rotate(0) translate(4 675.789)">
<title>%3</title>
<polygon fill="white" stroke="none" points="-4,4 -4,-675.789 176.798,-675.789 176.798,4 -4,4"/>
<!-- fake0 -->
<g id="node1" class="node"><title>fake0</title>
</g>
<!-- T0 -->
<g id="node3" class="node"><title>T0</title>
<ellipse fill="none" stroke="black" cx="43" cy="-580.789" rx="27" ry="18"/>
<text text-anchor="middle" x="43" y="-577.089" font-family="Times New Roman,serif" font-size="14.00">T0</text>
</g>
<!-- fake0&#45;&gt;T0 -->
<g id="edge1" class="edge"><title>fake0&#45;&gt;T0</title>
<path fill="none" stroke="black" stroke-width="2" d="M43,-635.602C43,-627.578 43,-617.836 43,-608.858"/>
<polygon fill="black" stroke="black" stroke-width="2" points="46.5001,-608.818 43,-598.818 39.5001,-608.818 46.5001,-608.818"/>
</g>
<!-- T2 -->
<g id="node2" class="node"><title>T2</title>
<ellipse fill="none" stroke="black" cx="43" cy="-406.789" rx="27" ry="18"/>
<text text-anchor="middle" x="43" y="-403.089" font-family="Times New Roman,serif" font-size="14.00">T2</text>
</g>
<!-- T4 -->
<g id="node5" class="node"><title>T4</title>
<ellipse fill="none" stroke="black" cx="27" cy="-225.991" rx="27" ry="18"/>
<text text-anchor="middle" x="27" y="-222.291" font-family="Times New Roman,serif" font-size="14.00">T4</text>
</g>
<!-- T2&#45;&gt;T4 -->
<g id="edge7" class="edge"><title>T2&#45;&gt;T4</title>
<path fill="none" stroke="black" d="M41.1435,-388.752C39.6702,-375.004 37.5995,-355.161 36,-337.789 33.3845,-309.383 30.7889,-276.841 29.0622,-254.41"/>
<polygon fill="black" stroke="black" points="32.5394,-253.978 28.288,-244.273 25.5598,-254.511 32.5394,-253.978"/>
<text text-anchor="middle" x="39.5" y="-316.089" font-family="Times New Roman,serif" font-size="14.00">a</text>
</g>
<!-- T3 -->
<g id="node8" class="node"><title>T3</title>
<ellipse fill="none" stroke="black" cx="79" cy="-319.789" rx="27" ry="18"/>
<text text-anchor="middle" x="79" y="-316.089" font-family="Times New Roman,serif" font-size="14.00">T3</text>
</g>
<!-- T2&#45;&gt;T3 -->
<g id="edge6" class="edge"><title>T2&#45;&gt;T3</title>
<path fill="none" stroke="black" d="M50.1124,-388.996C55.224,-376.927 62.212,-360.427 68.0346,-346.68"/>
<polygon fill="black" stroke="black" points="71.3477,-347.831 72.0248,-337.258 64.902,-345.101 71.3477,-347.831"/>
<text text-anchor="middle" x="69" y="-359.589" font-family="Times New Roman,serif" font-size="14.00">b</text>
</g>
<!-- T0&#45;&gt;T2 -->
<g id="edge3" class="edge"><title>T0&#45;&gt;T2</title>
<path fill="none" stroke="black" d="M39.1621,-562.851C36.2657,-549.16 32.5371,-529.344 31,-511.789 29.6044,-495.85 29.6044,-491.728 31,-475.789 32.1889,-462.211 34.6887,-447.281 37.1005,-434.878"/>
<polygon fill="black" stroke="black" points="40.6018,-435.223 39.1621,-424.727 33.7418,-433.83 40.6018,-435.223"/>
<text text-anchor="middle" x="34.5" y="-490.089" font-family="Times New Roman,serif" font-size="14.00">a</text>
</g>
<!-- T1 -->
<g id="node4" class="node"><title>T1</title>
<ellipse fill="none" stroke="black" cx="74" cy="-493.789" rx="27" ry="18"/>
<text text-anchor="middle" x="74" y="-490.089" font-family="Times New Roman,serif" font-size="14.00">T1</text>
</g>
<!-- T0&#45;&gt;T1 -->
<g id="edge2" class="edge"><title>T0&#45;&gt;T1</title>
<path fill="none" stroke="black" d="M49.1246,-562.996C53.4979,-551.004 59.4661,-534.64 64.4604,-520.946"/>
<polygon fill="black" stroke="black" points="67.7499,-522.141 67.8881,-511.547 61.1736,-519.743 67.7499,-522.141"/>
<text text-anchor="middle" x="66" y="-533.589" font-family="Times New Roman,serif" font-size="14.00">b</text>
</g>
<!-- T1&#45;&gt;T2 -->
<g id="edge5" class="edge"><title>T1&#45;&gt;T2</title>
<path fill="none" stroke="black" d="M67.8754,-475.996C63.5021,-464.004 57.5339,-447.64 52.5396,-433.946"/>
<polygon fill="black" stroke="black" points="55.8264,-432.743 49.1119,-424.547 49.2501,-435.141 55.8264,-432.743"/>
<text text-anchor="middle" x="64.5" y="-446.589" font-family="Times New Roman,serif" font-size="14.00">a</text>
</g>
<!-- T1&#45;&gt;T1 -->
<g id="edge4" class="edge"><title>T1&#45;&gt;T1</title>
<path fill="none" stroke="black" d="M98.5325,-501.541C109.508,-502.279 119,-499.695 119,-493.789 119,-489.821 114.715,-487.352 108.574,-486.383"/>
<polygon fill="black" stroke="black" points="108.647,-482.884 98.5325,-486.037 108.406,-489.88 108.647,-482.884"/>
<text text-anchor="middle" x="123" y="-490.089" font-family="Times New Roman,serif" font-size="14.00">b</text>
</g>
<!-- T4&#45;&gt;T4 -->
<g id="edge10" class="edge"><title>T4&#45;&gt;T4</title>
<path fill="none" stroke="black" d="M53.3466,-230.66C63.5332,-230.867 72,-229.311 72,-225.991 72,-223.864 68.5252,-222.461 63.3495,-221.781"/>
<polygon fill="black" stroke="black" points="63.4968,-218.284 53.3466,-221.322 63.1753,-225.277 63.4968,-218.284"/>
<text text-anchor="middle" x="76" y="-222.291" font-family="Times New Roman,serif" font-size="14.00">b</text>
</g>
<!-- T4&#45;&gt;T4 -->
<g id="edge11" class="edge"><title>T4&#45;&gt;T4</title>
<path fill="none" stroke="black" d="M51.2451,-234.102C70.3734,-237.239 90,-234.536 90,-225.991 90,-218.981 76.793,-215.902 61.4879,-216.754"/>
<polygon fill="black" stroke="black" points="60.8029,-213.308 51.2451,-217.88 61.5676,-220.266 60.8029,-213.308"/>
<text text-anchor="middle" x="93.5" y="-222.291" font-family="Times New Roman,serif" font-size="14.00">a</text>
</g>
<!-- T6 -->
<g id="node6" class="node"><title>T6</title>
<ellipse fill="none" stroke="black" cx="83" cy="-125.394" rx="20.6302" ry="20.6302"/>
<ellipse fill="none" stroke="black" cx="83" cy="-125.394" rx="24.5979" ry="24.5979"/>
<text text-anchor="middle" x="83" y="-121.694" font-family="Times New Roman,serif" font-size="14.00">T6</text>
</g>
<!-- T6&#45;&gt;T6 -->
<g id="edge14" class="edge"><title>T6&#45;&gt;T6</title>
<path fill="none" stroke="black" d="M106.332,-134.623C116.77,-135.502 125.798,-132.426 125.798,-125.394 125.798,-120.89 122.093,-118.009 116.686,-116.751"/>
<polygon fill="black" stroke="black" points="116.514,-113.236 106.332,-116.166 116.119,-120.224 116.514,-113.236"/>
<text text-anchor="middle" x="129.798" y="-121.694" font-family="Times New Roman,serif" font-size="14.00">b</text>
</g>
<!-- T7 -->
<g id="node7" class="node"><title>T7</title>
<ellipse fill="none" stroke="black" cx="113" cy="-24.7982" rx="20.6302" ry="20.6302"/>
<ellipse fill="none" stroke="black" cx="113" cy="-24.7982" rx="24.5979" ry="24.5979"/>
<text text-anchor="middle" x="113" y="-21.0982" font-family="Times New Roman,serif" font-size="14.00">T7</text>
</g>
<!-- T6&#45;&gt;T7 -->
<g id="edge15" class="edge"><title>T6&#45;&gt;T7</title>
<path fill="none" stroke="black" d="M81.5473,-100.407C81.611,-90.0872 82.6235,-78.024 86,-67.5963 87.5485,-62.814 89.788,-58.0462 92.3244,-53.5335"/>
<polygon fill="black" stroke="black" points="95.5065,-55.0446 97.8212,-44.7057 89.5643,-51.3446 95.5065,-55.0446"/>
<text text-anchor="middle" x="89.5" y="-71.3963" font-family="Times New Roman,serif" font-size="14.00">a</text>
</g>
<!-- T7&#45;&gt;T6 -->
<g id="edge16" class="edge"><title>T7&#45;&gt;T6</title>
<path fill="none" stroke="black" d="M105.976,-48.8835C102.092,-61.6472 97.2027,-77.7165 92.9337,-91.7471"/>
<polygon fill="black" stroke="black" points="89.5206,-90.9409 89.958,-101.527 96.2175,-92.9786 89.5206,-90.9409"/>
<text text-anchor="middle" x="104" y="-71.3963" font-family="Times New Roman,serif" font-size="14.00">b</text>
</g>
<!-- T7&#45;&gt;T7 -->
<g id="edge17" class="edge"><title>T7&#45;&gt;T7</title>
<path fill="none" stroke="black" d="M136.332,-34.0267C146.77,-34.9056 155.798,-31.8294 155.798,-24.7982 155.798,-20.2938 152.093,-17.4125 146.686,-16.1545"/>
<polygon fill="black" stroke="black" points="146.514,-12.6392 136.332,-15.5696 146.119,-19.6281 146.514,-12.6392"/>
<text text-anchor="middle" x="159.298" y="-21.0982" font-family="Times New Roman,serif" font-size="14.00">a</text>
</g>
<!-- T3&#45;&gt;T4 -->
<g id="edge9" class="edge"><title>T3&#45;&gt;T4</title>
<path fill="none" stroke="black" d="M69.9423,-302.799C62.0125,-288.8 50.3587,-268.227 41.1915,-252.044"/>
<polygon fill="black" stroke="black" points="44.1026,-250.081 36.1284,-243.106 38.0118,-253.532 44.1026,-250.081"/>
<text text-anchor="middle" x="61.5" y="-272.589" font-family="Times New Roman,serif" font-size="14.00">a</text>
</g>
<!-- T5 -->
<g id="node9" class="node"><title>T5</title>
<ellipse fill="none" stroke="black" cx="148" cy="-225.991" rx="20.6302" ry="20.6302"/>
<ellipse fill="none" stroke="black" cx="148" cy="-225.991" rx="24.5979" ry="24.5979"/>
<text text-anchor="middle" x="148" y="-222.291" font-family="Times New Roman,serif" font-size="14.00">T5</text>
</g>
<!-- T3&#45;&gt;T5 -->
<g id="edge8" class="edge"><title>T3&#45;&gt;T5</title>
<path fill="none" stroke="black" d="M90.7049,-303.217C100.632,-290.01 115.117,-270.739 127.038,-254.878"/>
<polygon fill="black" stroke="black" points="130.142,-256.575 133.352,-246.478 124.546,-252.369 130.142,-256.575"/>
<text text-anchor="middle" x="120" y="-272.589" font-family="Times New Roman,serif" font-size="14.00">b</text>
</g>
<!-- T5&#45;&gt;T6 -->
<g id="edge12" class="edge"><title>T5&#45;&gt;T6</title>
<path fill="none" stroke="black" d="M134.532,-204.562C125.057,-190.189 112.249,-170.761 101.773,-154.87"/>
<polygon fill="black" stroke="black" points="104.655,-152.883 96.2284,-146.46 98.8104,-156.736 104.655,-152.883"/>
<text text-anchor="middle" x="124" y="-171.993" font-family="Times New Roman,serif" font-size="14.00">b</text>
</g>
<!-- T5&#45;&gt;T7 -->
<g id="edge13" class="edge"><title>T5&#45;&gt;T7</title>
<path fill="none" stroke="black" d="M149.436,-200.841C150.383,-175.555 150.327,-134.835 143,-100.596 139.796,-85.6235 133.849,-69.7829 128.09,-56.5528"/>
<polygon fill="black" stroke="black" points="131.276,-55.1042 123.971,-47.4303 124.896,-57.9847 131.276,-55.1042"/>
<text text-anchor="middle" x="153.5" y="-121.694" font-family="Times New Roman,serif" font-size="14.00">a</text>
</g>
</g>
</svg>
