<?xml version="1.0" encoding="UTF-8" standalone="no"?>
<!DOCTYPE svg PUBLIC "-//W3C//DTD SVG 1.1//EN"
 "http://www.w3.org/Graphics/SVG/1.1/DTD/svg11.dtd">
<!-- Generated by graphviz version 2.38.0 (20140413.2041)
 -->
<!-- Title: %3 Pages: 1 -->
<svg width="255pt" height="1271pt"
 viewBox="0.00 0.00 255.00 1270.70" xmlns="http://www.w3.org/2000/svg" xmlns:xlink="http://www.w3.org/1999/xlink">
<g id="graph0" class="graph" transform="scale(1 1) rotate(0) translate(4 1266.7)">
<title>%3</title>
<polygon fill="white" stroke="none" points="-4,4 -4,-1266.7 251,-1266.7 251,4 -4,4"/>
<!-- fake0 -->
<g id="node1" class="node"><title>fake0</title>
</g>
<!-- T0 -->
<g id="node3" class="node"><title>T0</title>
<ellipse fill="none" stroke="black" cx="165" cy="-1171.7" rx="27" ry="18"/>
<text text-anchor="middle" x="165" y="-1168" font-family="Times New Roman,serif" font-size="14.00">T0</text>
</g>
<!-- fake0&#45;&gt;T0 -->
<g id="edge1" class="edge"><title>fake0&#45;&gt;T0</title>
<path fill="none" stroke="black" stroke-width="2" d="M165,-1226.51C165,-1218.48 165,-1208.74 165,-1199.76"/>
<polygon fill="black" stroke="black" stroke-width="2" points="168.5,-1199.72 165,-1189.72 161.5,-1199.72 168.5,-1199.72"/>
</g>
<!-- T2 -->
<g id="node2" class="node"><title>T2</title>
<ellipse fill="none" stroke="black" cx="27" cy="-997.696" rx="27" ry="18"/>
<text text-anchor="middle" x="27" y="-993.996" font-family="Times New Roman,serif" font-size="14.00">T2</text>
</g>
<!-- T3 -->
<g id="node17" class="node"><title>T3</title>
<ellipse fill="none" stroke="black" cx="27" cy="-910.696" rx="27" ry="18"/>
<text text-anchor="middle" x="27" y="-906.996" font-family="Times New Roman,serif" font-size="14.00">T3</text>
</g>
<!-- T2&#45;&gt;T3 -->
<g id="edge6" class="edge"><title>T2&#45;&gt;T3</title>
<path fill="none" stroke="black" d="M27,-979.494C27,-967.858 27,-952.243 27,-938.932"/>
<polygon fill="black" stroke="black" points="30.5001,-938.871 27,-928.871 23.5001,-938.871 30.5001,-938.871"/>
<text text-anchor="middle" x="31" y="-950.496" font-family="Times New Roman,serif" font-size="14.00">b</text>
</g>
<!-- T1 -->
<g id="node6" class="node"><title>T1</title>
<ellipse fill="none" stroke="black" cx="124" cy="-1084.7" rx="27" ry="18"/>
<text text-anchor="middle" x="124" y="-1081" font-family="Times New Roman,serif" font-size="14.00">T1</text>
</g>
<!-- T0&#45;&gt;T1 -->
<g id="edge2" class="edge"><title>T0&#45;&gt;T1</title>
<path fill="none" stroke="black" d="M157.095,-1154.31C151.196,-1142.08 143.025,-1125.14 136.279,-1111.15"/>
<polygon fill="black" stroke="black" points="139.378,-1109.52 131.881,-1102.03 133.073,-1112.56 139.378,-1109.52"/>
<text text-anchor="middle" x="154.5" y="-1124.5" font-family="Times New Roman,serif" font-size="14.00">EP</text>
</g>
<!-- T7 -->
<g id="node11" class="node"><title>T7</title>
<ellipse fill="none" stroke="black" cx="169" cy="-736.696" rx="27" ry="18"/>
<text text-anchor="middle" x="169" y="-732.996" font-family="Times New Roman,serif" font-size="14.00">T7</text>
</g>
<!-- T0&#45;&gt;T7 -->
<g id="edge3" class="edge"><title>T0&#45;&gt;T7</title>
<path fill="none" stroke="black" d="M174.017,-1154.64C182.53,-1137.95 194,-1110.8 194,-1085.7 194,-1085.7 194,-1085.7 194,-822.696 194,-802.314 187.303,-780.26 180.841,-763.725"/>
<polygon fill="black" stroke="black" points="183.962,-762.114 176.91,-754.207 177.492,-764.786 183.962,-762.114"/>
<text text-anchor="middle" x="202.5" y="-950.496" font-family="Times New Roman,serif" font-size="14.00">EP</text>
</g>
<!-- T10 -->
<g id="node4" class="node"><title>T10</title>
<ellipse fill="none" stroke="black" cx="169" cy="-475.696" rx="27" ry="18"/>
<text text-anchor="middle" x="169" y="-471.996" font-family="Times New Roman,serif" font-size="14.00">T10</text>
</g>
<!-- T11 -->
<g id="node12" class="node"><title>T11</title>
<ellipse fill="none" stroke="black" cx="131" cy="-388.696" rx="27" ry="18"/>
<text text-anchor="middle" x="131" y="-384.996" font-family="Times New Roman,serif" font-size="14.00">T11</text>
</g>
<!-- T10&#45;&gt;T11 -->
<g id="edge16" class="edge"><title>T10&#45;&gt;T11</title>
<path fill="none" stroke="black" d="M161.673,-458.307C156.259,-446.195 148.779,-429.464 142.561,-415.556"/>
<polygon fill="black" stroke="black" points="145.581,-413.735 138.304,-406.034 139.19,-416.592 145.581,-413.735"/>
<text text-anchor="middle" x="160.5" y="-428.496" font-family="Times New Roman,serif" font-size="14.00">EP</text>
</g>
<!-- T17 -->
<g id="node16" class="node"><title>T17</title>
<ellipse fill="none" stroke="black" cx="201" cy="-29.3478" rx="25.2169" ry="25.2169"/>
<ellipse fill="none" stroke="black" cx="201" cy="-29.3478" rx="29.1963" ry="29.1963"/>
<text text-anchor="middle" x="201" y="-25.6478" font-family="Times New Roman,serif" font-size="14.00">T17</text>
</g>
<!-- T10&#45;&gt;T17 -->
<g id="edge15" class="edge"><title>T10&#45;&gt;T17</title>
<path fill="none" stroke="black" d="M186.317,-461.745C204.351,-446.636 230,-419.847 230,-389.696 230,-389.696 230,-389.696 230,-126.696 230,-105.914 223.737,-83.6395 217.032,-65.7482"/>
<polygon fill="black" stroke="black" points="220.228,-64.3116 213.299,-56.2969 213.717,-66.8834 220.228,-64.3116"/>
<text text-anchor="middle" x="238.5" y="-254.496" font-family="Times New Roman,serif" font-size="14.00">EP</text>
</g>
<!-- T13 -->
<g id="node5" class="node"><title>T13</title>
<ellipse fill="none" stroke="black" cx="175" cy="-214.696" rx="27" ry="18"/>
<text text-anchor="middle" x="175" y="-210.996" font-family="Times New Roman,serif" font-size="14.00">T13</text>
</g>
<!-- T16 -->
<g id="node9" class="node"><title>T16</title>
<ellipse fill="none" stroke="black" cx="147" cy="-127.696" rx="27" ry="18"/>
<text text-anchor="middle" x="147" y="-123.996" font-family="Times New Roman,serif" font-size="14.00">T16</text>
</g>
<!-- T13&#45;&gt;T16 -->
<g id="edge20" class="edge"><title>T13&#45;&gt;T16</title>
<path fill="none" stroke="black" d="M169.468,-196.902C165.556,-185.027 160.232,-168.864 155.748,-155.252"/>
<polygon fill="black" stroke="black" points="158.973,-153.857 152.52,-145.454 152.325,-156.047 158.973,-153.857"/>
<text text-anchor="middle" x="170.5" y="-167.496" font-family="Times New Roman,serif" font-size="14.00">EP</text>
</g>
<!-- T1&#45;&gt;T2 -->
<g id="edge4" class="edge"><title>T1&#45;&gt;T2</title>
<path fill="none" stroke="black" d="M107.982,-1069.66C92.3035,-1055.92 68.2427,-1034.84 50.4179,-1019.22"/>
<polygon fill="black" stroke="black" points="52.5472,-1016.43 42.7195,-1012.47 47.9338,-1021.69 52.5472,-1016.43"/>
<text text-anchor="middle" x="89.5" y="-1037.5" font-family="Times New Roman,serif" font-size="14.00">EP</text>
</g>
<!-- T4 -->
<g id="node7" class="node"><title>T4</title>
<ellipse fill="none" stroke="black" cx="99" cy="-997.696" rx="27" ry="18"/>
<text text-anchor="middle" x="99" y="-993.996" font-family="Times New Roman,serif" font-size="14.00">T4</text>
</g>
<!-- T1&#45;&gt;T4 -->
<g id="edge5" class="edge"><title>T1&#45;&gt;T4</title>
<path fill="none" stroke="black" d="M119.061,-1066.9C115.568,-1055.03 110.814,-1038.86 106.811,-1025.25"/>
<polygon fill="black" stroke="black" points="110.108,-1024.06 103.929,-1015.45 103.393,-1026.04 110.108,-1024.06"/>
<text text-anchor="middle" x="120.5" y="-1037.5" font-family="Times New Roman,serif" font-size="14.00">EP</text>
</g>
<!-- T5 -->
<g id="node18" class="node"><title>T5</title>
<ellipse fill="none" stroke="black" cx="99" cy="-910.696" rx="27" ry="18"/>
<text text-anchor="middle" x="99" y="-906.996" font-family="Times New Roman,serif" font-size="14.00">T5</text>
</g>
<!-- T4&#45;&gt;T5 -->
<g id="edge8" class="edge"><title>T4&#45;&gt;T5</title>
<path fill="none" stroke="black" d="M99,-979.494C99,-967.858 99,-952.243 99,-938.932"/>
<polygon fill="black" stroke="black" points="102.5,-938.871 99,-928.871 95.5001,-938.871 102.5,-938.871"/>
<text text-anchor="middle" x="103" y="-950.496" font-family="Times New Roman,serif" font-size="14.00">b</text>
</g>
<!-- T14 -->
<g id="node8" class="node"><title>T14</title>
<ellipse fill="none" stroke="black" cx="103" cy="-301.696" rx="27" ry="18"/>
<text text-anchor="middle" x="103" y="-297.996" font-family="Times New Roman,serif" font-size="14.00">T14</text>
</g>
<!-- T15 -->
<g id="node13" class="node"><title>T15</title>
<ellipse fill="none" stroke="black" cx="103" cy="-214.696" rx="27" ry="18"/>
<text text-anchor="middle" x="103" y="-210.996" font-family="Times New Roman,serif" font-size="14.00">T15</text>
</g>
<!-- T14&#45;&gt;T15 -->
<g id="edge21" class="edge"><title>T14&#45;&gt;T15</title>
<path fill="none" stroke="black" d="M103,-283.494C103,-271.858 103,-256.243 103,-242.932"/>
<polygon fill="black" stroke="black" points="106.5,-242.871 103,-232.871 99.5001,-242.871 106.5,-242.871"/>
<text text-anchor="middle" x="107" y="-254.496" font-family="Times New Roman,serif" font-size="14.00">b</text>
</g>
<!-- T16&#45;&gt;T11 -->
<g id="edge24" class="edge"><title>T16&#45;&gt;T11</title>
<path fill="none" stroke="black" d="M126.12,-139.469C106.729,-150.779 79.0886,-170.555 67,-196.696 44.0546,-246.314 46.8473,-268.879 67,-319.696 74.6938,-339.096 90.8338,-356.18 104.98,-368.372"/>
<polygon fill="black" stroke="black" points="103.052,-371.318 112.999,-374.965 107.498,-365.911 103.052,-371.318"/>
<text text-anchor="middle" x="60.5" y="-254.496" font-family="Times New Roman,serif" font-size="14.00">EP</text>
</g>
<!-- T16&#45;&gt;T17 -->
<g id="edge23" class="edge"><title>T16&#45;&gt;T17</title>
<path fill="none" stroke="black" d="M156.16,-110.351C163.203,-97.785 173.178,-79.9882 181.932,-64.3695"/>
<polygon fill="black" stroke="black" points="185.077,-65.9157 186.913,-55.4811 178.971,-62.4932 185.077,-65.9157"/>
<text text-anchor="middle" x="182.5" y="-80.4955" font-family="Times New Roman,serif" font-size="14.00">EP</text>
</g>
<!-- T6 -->
<g id="node10" class="node"><title>T6</title>
<ellipse fill="none" stroke="black" cx="125" cy="-823.696" rx="27" ry="18"/>
<text text-anchor="middle" x="125" y="-819.996" font-family="Times New Roman,serif" font-size="14.00">T6</text>
</g>
<!-- T6&#45;&gt;T1 -->
<g id="edge10" class="edge"><title>T6&#45;&gt;T1</title>
<path fill="none" stroke="black" d="M130.85,-841.581C132.542,-847.263 134.159,-853.687 135,-859.696 144.617,-928.359 137.098,-946.394 135,-1015.7 134.555,-1030.38 135.285,-1034.18 133,-1048.7 132.576,-1051.39 132.036,-1054.18 131.432,-1056.96"/>
<polygon fill="black" stroke="black" points="128.014,-1056.2 129.055,-1066.74 134.816,-1057.85 128.014,-1056.2"/>
<text text-anchor="middle" x="146.5" y="-950.496" font-family="Times New Roman,serif" font-size="14.00">EP</text>
</g>
<!-- T6&#45;&gt;T7 -->
<g id="edge11" class="edge"><title>T6&#45;&gt;T7</title>
<path fill="none" stroke="black" d="M133.484,-806.307C139.814,-794.077 148.582,-777.138 155.823,-763.152"/>
<polygon fill="black" stroke="black" points="159.054,-764.524 160.542,-754.034 152.837,-761.306 159.054,-764.524"/>
<text text-anchor="middle" x="158.5" y="-776.496" font-family="Times New Roman,serif" font-size="14.00">EP</text>
</g>
<!-- T8 -->
<g id="node14" class="node"><title>T8</title>
<ellipse fill="none" stroke="black" cx="169" cy="-649.696" rx="27" ry="18"/>
<text text-anchor="middle" x="169" y="-645.996" font-family="Times New Roman,serif" font-size="14.00">T8</text>
</g>
<!-- T7&#45;&gt;T8 -->
<g id="edge12" class="edge"><title>T7&#45;&gt;T8</title>
<path fill="none" stroke="black" d="M169,-718.494C169,-706.858 169,-691.243 169,-677.932"/>
<polygon fill="black" stroke="black" points="172.5,-677.871 169,-667.871 165.5,-677.871 172.5,-677.871"/>
<text text-anchor="middle" x="172.5" y="-689.496" font-family="Times New Roman,serif" font-size="14.00">a</text>
</g>
<!-- T11&#45;&gt;T14 -->
<g id="edge17" class="edge"><title>T11&#45;&gt;T14</title>
<path fill="none" stroke="black" d="M125.468,-370.902C121.556,-359.027 116.232,-342.864 111.748,-329.252"/>
<polygon fill="black" stroke="black" points="114.973,-327.857 108.52,-319.454 108.325,-330.047 114.973,-327.857"/>
<text text-anchor="middle" x="126.5" y="-341.496" font-family="Times New Roman,serif" font-size="14.00">EP</text>
</g>
<!-- T12 -->
<g id="node19" class="node"><title>T12</title>
<ellipse fill="none" stroke="black" cx="175" cy="-301.696" rx="27" ry="18"/>
<text text-anchor="middle" x="175" y="-297.996" font-family="Times New Roman,serif" font-size="14.00">T12</text>
</g>
<!-- T11&#45;&gt;T12 -->
<g id="edge18" class="edge"><title>T11&#45;&gt;T12</title>
<path fill="none" stroke="black" d="M139.484,-371.307C145.814,-359.077 154.582,-342.138 161.823,-328.152"/>
<polygon fill="black" stroke="black" points="165.054,-329.524 166.542,-319.034 158.837,-326.306 165.054,-329.524"/>
<text text-anchor="middle" x="164.5" y="-341.496" font-family="Times New Roman,serif" font-size="14.00">EP</text>
</g>
<!-- T15&#45;&gt;T16 -->
<g id="edge22" class="edge"><title>T15&#45;&gt;T16</title>
<path fill="none" stroke="black" d="M111.484,-197.307C117.814,-185.077 126.582,-168.138 133.823,-154.152"/>
<polygon fill="black" stroke="black" points="137.054,-155.524 138.542,-145.034 130.837,-152.306 137.054,-155.524"/>
<text text-anchor="middle" x="136.5" y="-167.496" font-family="Times New Roman,serif" font-size="14.00">EP</text>
</g>
<!-- T9 -->
<g id="node15" class="node"><title>T9</title>
<ellipse fill="none" stroke="black" cx="169" cy="-562.696" rx="27" ry="18"/>
<text text-anchor="middle" x="169" y="-558.996" font-family="Times New Roman,serif" font-size="14.00">T9</text>
</g>
<!-- T8&#45;&gt;T9 -->
<g id="edge13" class="edge"><title>T8&#45;&gt;T9</title>
<path fill="none" stroke="black" d="M169,-631.494C169,-619.858 169,-604.243 169,-590.932"/>
<polygon fill="black" stroke="black" points="172.5,-590.871 169,-580.871 165.5,-590.871 172.5,-590.871"/>
<text text-anchor="middle" x="173" y="-602.496" font-family="Times New Roman,serif" font-size="14.00">b</text>
</g>
<!-- T9&#45;&gt;T10 -->
<g id="edge14" class="edge"><title>T9&#45;&gt;T10</title>
<path fill="none" stroke="black" d="M169,-544.494C169,-532.858 169,-517.243 169,-503.932"/>
<polygon fill="black" stroke="black" points="172.5,-503.871 169,-493.871 165.5,-503.871 172.5,-503.871"/>
<text text-anchor="middle" x="173" y="-515.496" font-family="Times New Roman,serif" font-size="14.00">b</text>
</g>
<!-- T3&#45;&gt;T6 -->
<g id="edge7" class="edge"><title>T3&#45;&gt;T6</title>
<path fill="none" stroke="black" d="M42.7454,-896.039C58.5106,-882.365 82.9715,-861.149 101.125,-845.403"/>
<polygon fill="black" stroke="black" points="103.707,-847.797 108.968,-838.601 99.1204,-842.509 103.707,-847.797"/>
<text text-anchor="middle" x="92.5" y="-863.496" font-family="Times New Roman,serif" font-size="14.00">EP</text>
</g>
<!-- T5&#45;&gt;T6 -->
<g id="edge9" class="edge"><title>T5&#45;&gt;T6</title>
<path fill="none" stroke="black" d="M104.137,-892.902C107.769,-881.027 112.713,-864.864 116.877,-851.252"/>
<polygon fill="black" stroke="black" points="120.296,-852.04 119.874,-841.454 113.602,-849.993 120.296,-852.04"/>
<text text-anchor="middle" x="122.5" y="-863.496" font-family="Times New Roman,serif" font-size="14.00">EP</text>
</g>
<!-- T12&#45;&gt;T13 -->
<g id="edge19" class="edge"><title>T12&#45;&gt;T13</title>
<path fill="none" stroke="black" d="M175,-283.494C175,-271.858 175,-256.243 175,-242.932"/>
<polygon fill="black" stroke="black" points="178.5,-242.871 175,-232.871 171.5,-242.871 178.5,-242.871"/>
<text text-anchor="middle" x="178.5" y="-254.496" font-family="Times New Roman,serif" font-size="14.00">a</text>
</g>
</g>
</svg>
