<?xml version="1.0" encoding="UTF-8" standalone="no"?>
<!DOCTYPE svg PUBLIC "-//W3C//DTD SVG 1.1//EN"
 "http://www.w3.org/Graphics/SVG/1.1/DTD/svg11.dtd">
<!-- Generated by graphviz version 2.38.0 (20140413.2041)
 -->
<!-- Title: %3 Pages: 1 -->
<svg width="232pt" height="392pt"
 viewBox="0.00 0.00 231.80 391.60" xmlns="http://www.w3.org/2000/svg" xmlns:xlink="http://www.w3.org/1999/xlink">
<g id="graph0" class="graph" transform="scale(1 1) rotate(0) translate(4 387.596)">
<title>%3</title>
<polygon fill="white" stroke="none" points="-4,4 -4,-387.596 227.798,-387.596 227.798,4 -4,4"/>
<!-- fake0 -->
<g id="node1" class="node"><title>fake0</title>
</g>
<!-- T0 -->
<g id="node3" class="node"><title>T0</title>
<ellipse fill="none" stroke="black" cx="129.798" cy="-292.596" rx="27" ry="18"/>
<text text-anchor="middle" x="129.798" y="-288.896" font-family="Times New Roman,serif" font-size="14.00">T0</text>
</g>
<!-- fake0&#45;&gt;T0 -->
<g id="edge1" class="edge"><title>fake0&#45;&gt;T0</title>
<path fill="none" stroke="black" stroke-width="2" d="M129.798,-347.409C129.798,-339.386 129.798,-329.644 129.798,-320.665"/>
<polygon fill="black" stroke="black" stroke-width="2" points="133.298,-320.625 129.798,-310.625 126.298,-320.625 133.298,-320.625"/>
</g>
<!-- T2 -->
<g id="node2" class="node"><title>T2</title>
<ellipse fill="none" stroke="black" cx="82.7982" cy="-118.596" rx="27" ry="18"/>
<text text-anchor="middle" x="82.7982" y="-114.896" font-family="Times New Roman,serif" font-size="14.00">T2</text>
</g>
<!-- T4 -->
<g id="node5" class="node"><title>T4</title>
<ellipse fill="none" stroke="black" cx="24.7982" cy="-24.7982" rx="20.6302" ry="20.6302"/>
<ellipse fill="none" stroke="black" cx="24.7982" cy="-24.7982" rx="24.5979" ry="24.5979"/>
<text text-anchor="middle" x="24.7982" y="-21.0982" font-family="Times New Roman,serif" font-size="14.00">T4</text>
</g>
<!-- T2&#45;&gt;T4 -->
<g id="edge6" class="edge"><title>T2&#45;&gt;T4</title>
<path fill="none" stroke="black" d="M72.6953,-101.606C64.556,-88.724 52.899,-70.2742 43.123,-54.8014"/>
<polygon fill="black" stroke="black" points="45.9256,-52.6844 37.6253,-46.1 40.0078,-56.4234 45.9256,-52.6844"/>
<text text-anchor="middle" x="63.7982" y="-71.3963" font-family="Times New Roman,serif" font-size="14.00">b</text>
</g>
<!-- T3 -->
<g id="node6" class="node"><title>T3</title>
<ellipse fill="none" stroke="black" cx="145.798" cy="-24.7982" rx="27" ry="18"/>
<text text-anchor="middle" x="145.798" y="-21.0982" font-family="Times New Roman,serif" font-size="14.00">T3</text>
</g>
<!-- T2&#45;&gt;T3 -->
<g id="edge7" class="edge"><title>T2&#45;&gt;T3</title>
<path fill="none" stroke="black" d="M93.4852,-102.024C103.26,-87.781 117.875,-66.4861 129.174,-50.0215"/>
<polygon fill="black" stroke="black" points="132.286,-51.6724 135.059,-41.4469 126.514,-47.7115 132.286,-51.6724"/>
<text text-anchor="middle" x="120.298" y="-71.3963" font-family="Times New Roman,serif" font-size="14.00">a</text>
</g>
<!-- T0&#45;&gt;T0 -->
<g id="edge2" class="edge"><title>T0&#45;&gt;T0</title>
<path fill="none" stroke="black" d="M155.242,-299.287C165.826,-299.748 174.798,-297.518 174.798,-292.596 174.798,-289.366 170.934,-287.296 165.286,-286.384"/>
<polygon fill="black" stroke="black" points="165.397,-282.885 155.242,-285.906 165.064,-289.877 165.397,-282.885"/>
<text text-anchor="middle" x="178.798" y="-288.896" font-family="Times New Roman,serif" font-size="14.00">b</text>
</g>
<!-- T1 -->
<g id="node4" class="node"><title>T1</title>
<ellipse fill="none" stroke="black" cx="129.798" cy="-205.596" rx="27" ry="18"/>
<text text-anchor="middle" x="129.798" y="-201.896" font-family="Times New Roman,serif" font-size="14.00">T1</text>
</g>
<!-- T0&#45;&gt;T1 -->
<g id="edge3" class="edge"><title>T0&#45;&gt;T1</title>
<path fill="none" stroke="black" d="M129.798,-274.395C129.798,-262.759 129.798,-247.144 129.798,-233.833"/>
<polygon fill="black" stroke="black" points="133.298,-233.772 129.798,-223.772 126.298,-233.772 133.298,-233.772"/>
<text text-anchor="middle" x="133.298" y="-245.396" font-family="Times New Roman,serif" font-size="14.00">a</text>
</g>
<!-- T1&#45;&gt;T2 -->
<g id="edge4" class="edge"><title>T1&#45;&gt;T2</title>
<path fill="none" stroke="black" d="M120.736,-188.207C113.931,-175.9 104.488,-158.822 96.7253,-144.784"/>
<polygon fill="black" stroke="black" points="99.5749,-142.704 91.673,-135.647 93.4491,-146.092 99.5749,-142.704"/>
<text text-anchor="middle" x="113.798" y="-158.396" font-family="Times New Roman,serif" font-size="14.00">b</text>
</g>
<!-- T1&#45;&gt;T3 -->
<g id="edge5" class="edge"><title>T1&#45;&gt;T3</title>
<path fill="none" stroke="black" d="M131.332,-187.452C134.116,-156.347 140.018,-90.3853 143.36,-53.049"/>
<polygon fill="black" stroke="black" points="146.863,-53.1624 144.269,-42.8902 139.891,-52.5384 146.863,-53.1624"/>
<text text-anchor="middle" x="143.298" y="-114.896" font-family="Times New Roman,serif" font-size="14.00">a</text>
</g>
<!-- T4&#45;&gt;T4 -->
<g id="edge10" class="edge"><title>T4&#45;&gt;T4</title>
<path fill="none" stroke="black" d="M49.4271,-29.457C59.3052,-29.7203 67.5963,-28.1673 67.5963,-24.7982 67.5963,-22.6924 64.3576,-21.2962 59.5169,-20.6093"/>
<polygon fill="black" stroke="black" points="59.5792,-17.1085 49.4271,-20.1393 59.2534,-24.101 59.5792,-17.1085"/>
<text text-anchor="middle" x="71.5963" y="-21.0982" font-family="Times New Roman,serif" font-size="14.00">b</text>
</g>
<!-- T4&#45;&gt;T4 -->
<g id="edge11" class="edge"><title>T4&#45;&gt;T4</title>
<path fill="none" stroke="black" d="M48.5124,-32.9624C66.8715,-36.0157 85.5963,-33.2942 85.5963,-24.7982 85.5963,-17.8951 73.235,-14.8042 58.7521,-15.5255"/>
<polygon fill="black" stroke="black" points="58.0776,-12.078 48.5124,-16.6339 58.831,-19.0373 58.0776,-12.078"/>
<text text-anchor="middle" x="89.0963" y="-21.0982" font-family="Times New Roman,serif" font-size="14.00">a</text>
</g>
<!-- T3&#45;&gt;T3 -->
<g id="edge8" class="edge"><title>T3&#45;&gt;T3</title>
<path fill="none" stroke="black" d="M172.145,-29.4673C182.331,-29.6749 190.798,-28.1185 190.798,-24.7982 190.798,-22.6711 187.323,-21.2679 182.148,-20.5887"/>
<polygon fill="black" stroke="black" points="182.295,-17.0918 172.145,-20.129 181.973,-24.0844 182.295,-17.0918"/>
<text text-anchor="middle" x="194.798" y="-21.0982" font-family="Times New Roman,serif" font-size="14.00">b</text>
</g>
<!-- T3&#45;&gt;T3 -->
<g id="edge9" class="edge"><title>T3&#45;&gt;T3</title>
<path fill="none" stroke="black" d="M170.043,-32.9092C189.172,-36.0467 208.798,-33.3431 208.798,-24.7982 208.798,-17.7886 195.591,-14.7098 180.286,-15.5616"/>
<polygon fill="black" stroke="black" points="179.601,-12.1157 170.043,-16.6872 180.366,-19.0738 179.601,-12.1157"/>
<text text-anchor="middle" x="212.298" y="-21.0982" font-family="Times New Roman,serif" font-size="14.00">a</text>
</g>
</g>
</svg>
