<?xml version="1.0" encoding="UTF-8" standalone="no"?>
<!DOCTYPE svg PUBLIC "-//W3C//DTD SVG 1.1//EN"
 "http://www.w3.org/Graphics/SVG/1.1/DTD/svg11.dtd">
<!-- Generated by graphviz version 2.38.0 (20140413.2041)
 -->
<!-- Title: %3 Pages: 1 -->
<svg width="171pt" height="593pt"
 viewBox="0.00 0.00 170.80 592.79" xmlns="http://www.w3.org/2000/svg" xmlns:xlink="http://www.w3.org/1999/xlink">
<g id="graph0" class="graph" transform="scale(1 1) rotate(0) translate(4 588.789)">
<title>%3</title>
<polygon fill="white" stroke="none" points="-4,4 -4,-588.789 166.798,-588.789 166.798,4 -4,4"/>
<!-- fake0 -->
<g id="node1" class="node"><title>fake0</title>
</g>
<!-- T0 -->
<g id="node4" class="node"><title>T0</title>
<ellipse fill="none" stroke="black" cx="38.7982" cy="-486.991" rx="20.6302" ry="20.6302"/>
<ellipse fill="none" stroke="black" cx="38.7982" cy="-486.991" rx="24.5979" ry="24.5979"/>
<text text-anchor="middle" x="38.7982" y="-483.291" font-family="Times New Roman,serif" font-size="14.00">T0</text>
</g>
<!-- fake0&#45;&gt;T0 -->
<g id="edge1" class="edge"><title>fake0&#45;&gt;T0</title>
<path fill="none" stroke="black" stroke-width="2" d="M38.7982,-548.523C38.7982,-540.717 38.7982,-531.207 38.7982,-522.059"/>
<polygon fill="black" stroke="black" stroke-width="2" points="42.2983,-521.994 38.7982,-511.994 35.2983,-521.994 42.2983,-521.994"/>
</g>
<!-- T4 -->
<g id="node2" class="node"><title>T4</title>
<ellipse fill="none" stroke="black" cx="67.7982" cy="-299.394" rx="20.6302" ry="20.6302"/>
<ellipse fill="none" stroke="black" cx="67.7982" cy="-299.394" rx="24.5979" ry="24.5979"/>
<text text-anchor="middle" x="67.7982" y="-295.694" font-family="Times New Roman,serif" font-size="14.00">T4</text>
</g>
<!-- T2 -->
<g id="node5" class="node"><title>T2</title>
<ellipse fill="none" stroke="black" cx="54.7982" cy="-205.596" rx="27" ry="18"/>
<text text-anchor="middle" x="54.7982" y="-201.896" font-family="Times New Roman,serif" font-size="14.00">T2</text>
</g>
<!-- T4&#45;&gt;T2 -->
<g id="edge11" class="edge"><title>T4&#45;&gt;T2</title>
<path fill="none" stroke="black" d="M64.4503,-274.754C62.6871,-262.303 60.5156,-246.969 58.679,-234.001"/>
<polygon fill="black" stroke="black" points="62.0991,-233.189 57.2314,-223.779 55.1683,-234.171 62.0991,-233.189"/>
<text text-anchor="middle" x="65.2982" y="-245.396" font-family="Times New Roman,serif" font-size="14.00">1</text>
</g>
<!-- T1 -->
<g id="node6" class="node"><title>T1</title>
<ellipse fill="none" stroke="black" cx="77.7982" cy="-393.193" rx="27" ry="18"/>
<text text-anchor="middle" x="77.7982" y="-389.493" font-family="Times New Roman,serif" font-size="14.00">T1</text>
</g>
<!-- T4&#45;&gt;T1 -->
<g id="edge10" class="edge"><title>T4&#45;&gt;T1</title>
<path fill="none" stroke="black" d="M70.3876,-324.165C71.7398,-336.578 73.4011,-351.829 74.8078,-364.742"/>
<polygon fill="black" stroke="black" points="71.3548,-365.364 75.9172,-374.926 78.3136,-364.606 71.3548,-365.364"/>
<text text-anchor="middle" x="77.2982" y="-345.993" font-family="Times New Roman,serif" font-size="14.00">0</text>
</g>
<!-- T5 -->
<g id="node3" class="node"><title>T5</title>
<ellipse fill="none" stroke="black" cx="24.7982" cy="-111.798" rx="20.6302" ry="20.6302"/>
<ellipse fill="none" stroke="black" cx="24.7982" cy="-111.798" rx="24.5979" ry="24.5979"/>
<text text-anchor="middle" x="24.7982" y="-108.098" font-family="Times New Roman,serif" font-size="14.00">T5</text>
</g>
<!-- T5&#45;&gt;T2 -->
<g id="edge13" class="edge"><title>T5&#45;&gt;T2</title>
<path fill="none" stroke="black" d="M32.2995,-135.752C36.5061,-148.624 41.7721,-164.737 46.1516,-178.138"/>
<polygon fill="black" stroke="black" points="42.8624,-179.341 49.2957,-187.759 49.5161,-177.167 42.8624,-179.341"/>
<text text-anchor="middle" x="46.2982" y="-158.396" font-family="Times New Roman,serif" font-size="14.00">1</text>
</g>
<!-- T3 -->
<g id="node7" class="node"><title>T3</title>
<ellipse fill="none" stroke="black" cx="85.7982" cy="-18" rx="27" ry="18"/>
<text text-anchor="middle" x="85.7982" y="-14.3" font-family="Times New Roman,serif" font-size="14.00">T3</text>
</g>
<!-- T5&#45;&gt;T3 -->
<g id="edge12" class="edge"><title>T5&#45;&gt;T3</title>
<path fill="none" stroke="black" d="M38.336,-90.4252C47.5793,-76.515 59.8702,-58.0186 69.6284,-43.3337"/>
<polygon fill="black" stroke="black" points="72.7076,-45.0238 75.3271,-34.7578 66.8774,-41.1496 72.7076,-45.0238"/>
<text text-anchor="middle" x="64.2982" y="-57.8" font-family="Times New Roman,serif" font-size="14.00">0</text>
</g>
<!-- T0&#45;&gt;T2 -->
<g id="edge3" class="edge"><title>T0&#45;&gt;T2</title>
<path fill="none" stroke="black" d="M35.5958,-462.362C30.866,-423.114 23.61,-342.114 33.7982,-274.596 35.9154,-260.565 40.3592,-245.438 44.6161,-233.022"/>
<polygon fill="black" stroke="black" points="48.0163,-233.909 48.0928,-223.314 41.4262,-231.548 48.0163,-233.909"/>
<text text-anchor="middle" x="32.2982" y="-345.993" font-family="Times New Roman,serif" font-size="14.00">1</text>
</g>
<!-- T0&#45;&gt;T1 -->
<g id="edge2" class="edge"><title>T0&#45;&gt;T1</title>
<path fill="none" stroke="black" d="M48.239,-463.769C53.8262,-450.618 60.9306,-433.895 66.7742,-420.141"/>
<polygon fill="black" stroke="black" points="70.0777,-421.316 70.7666,-410.743 63.635,-418.579 70.0777,-421.316"/>
<text text-anchor="middle" x="67.2982" y="-432.993" font-family="Times New Roman,serif" font-size="14.00">0</text>
</g>
<!-- T2&#45;&gt;T5 -->
<g id="edge6" class="edge"><title>T2&#45;&gt;T5</title>
<path fill="none" stroke="black" d="M40.4792,-190.147C35.5479,-184.26 30.5718,-177.08 27.7982,-169.596 25.1558,-162.467 23.8316,-154.488 23.2717,-146.815"/>
<polygon fill="black" stroke="black" points="26.7641,-146.527 22.9297,-136.651 19.768,-146.763 26.7641,-146.527"/>
<text text-anchor="middle" x="31.2982" y="-158.396" font-family="Times New Roman,serif" font-size="14.00">0</text>
</g>
<!-- T2&#45;&gt;T3 -->
<g id="edge7" class="edge"><title>T2&#45;&gt;T3</title>
<path fill="none" stroke="black" d="M57.659,-187.469C63.0571,-155.15 74.7836,-84.9439 81.2649,-46.1406"/>
<polygon fill="black" stroke="black" points="84.7489,-46.5264 82.9442,-36.0864 77.8445,-45.3731 84.7489,-46.5264"/>
<text text-anchor="middle" x="78.2982" y="-108.098" font-family="Times New Roman,serif" font-size="14.00">1</text>
</g>
<!-- T1&#45;&gt;T4 -->
<g id="edge5" class="edge"><title>T1&#45;&gt;T4</title>
<path fill="none" stroke="black" d="M67.6831,-376.44C64.504,-370.627 61.4058,-363.834 59.7982,-357.193 57.941,-349.521 58.0009,-341.155 58.9687,-333.259"/>
<polygon fill="black" stroke="black" points="62.4447,-333.696 60.6791,-323.25 55.5447,-332.517 62.4447,-333.696"/>
<text text-anchor="middle" x="63.2982" y="-345.993" font-family="Times New Roman,serif" font-size="14.00">1</text>
</g>
<!-- T1&#45;&gt;T3 -->
<g id="edge4" class="edge"><title>T1&#45;&gt;T3</title>
<path fill="none" stroke="black" d="M90.0052,-376.965C102.718,-359.534 120.798,-329.609 120.798,-300.394 120.798,-300.394 120.798,-300.394 120.798,-110.798 120.798,-87.0526 110.447,-61.9851 101.003,-44.0561"/>
<polygon fill="black" stroke="black" points="103.829,-41.9347 95.9216,-34.8836 97.7063,-45.3271 103.829,-41.9347"/>
<text text-anchor="middle" x="124.298" y="-201.896" font-family="Times New Roman,serif" font-size="14.00">0</text>
</g>
<!-- T3&#45;&gt;T3 -->
<g id="edge8" class="edge"><title>T3&#45;&gt;T3</title>
<path fill="none" stroke="black" d="M112.593,-21.9288C122.579,-22.0577 130.798,-20.748 130.798,-18 130.798,-16.2825 127.587,-15.1268 122.741,-14.5331"/>
<polygon fill="black" stroke="black" points="122.742,-11.0296 112.593,-14.0712 122.423,-18.0223 122.742,-11.0296"/>
<text text-anchor="middle" x="134.298" y="-14.3" font-family="Times New Roman,serif" font-size="14.00">0</text>
</g>
<!-- T3&#45;&gt;T3 -->
<g id="edge9" class="edge"><title>T3&#45;&gt;T3</title>
<path fill="none" stroke="black" d="M111.027,-24.9445C129.839,-27.3695 148.798,-25.0547 148.798,-18 148.798,-12.213 136.04,-9.61542 121.071,-10.2074"/>
<polygon fill="black" stroke="black" points="120.697,-6.72644 111.027,-11.0555 121.286,-13.7016 120.697,-6.72644"/>
<text text-anchor="middle" x="152.298" y="-14.3" font-family="Times New Roman,serif" font-size="14.00">1</text>
</g>
</g>
</svg>
