<?xml version="1.0" encoding="UTF-8" standalone="no"?>
<!DOCTYPE svg PUBLIC "-//W3C//DTD SVG 1.1//EN"
 "http://www.w3.org/Graphics/SVG/1.1/DTD/svg11.dtd">
<!-- Generated by graphviz version 2.38.0 (20140413.2041)
 -->
<!-- Title: %3 Pages: 1 -->
<svg width="171pt" height="405pt"
 viewBox="0.00 0.00 170.80 405.19" xmlns="http://www.w3.org/2000/svg" xmlns:xlink="http://www.w3.org/1999/xlink">
<g id="graph0" class="graph" transform="scale(1 1) rotate(0) translate(4 401.193)">
<title>%3</title>
<polygon fill="white" stroke="none" points="-4,4 -4,-401.193 166.798,-401.193 166.798,4 -4,4"/>
<!-- fake0 -->
<g id="node1" class="node"><title>fake0</title>
</g>
<!-- T0 -->
<g id="node3" class="node"><title>T0</title>
<ellipse fill="none" stroke="black" cx="98.7982" cy="-299.394" rx="20.6302" ry="20.6302"/>
<ellipse fill="none" stroke="black" cx="98.7982" cy="-299.394" rx="24.5979" ry="24.5979"/>
<text text-anchor="middle" x="98.7982" y="-295.694" font-family="Times New Roman,serif" font-size="14.00">T0</text>
</g>
<!-- fake0&#45;&gt;T0 -->
<g id="edge1" class="edge"><title>fake0&#45;&gt;T0</title>
<path fill="none" stroke="black" stroke-width="2" d="M98.7982,-360.927C98.7982,-353.121 98.7982,-343.611 98.7982,-334.462"/>
<polygon fill="black" stroke="black" stroke-width="2" points="102.298,-334.398 98.7982,-324.398 95.2983,-334.398 102.298,-334.398"/>
</g>
<!-- T4 -->
<g id="node2" class="node"><title>T4</title>
<ellipse fill="none" stroke="black" cx="24.7982" cy="-111.798" rx="20.6302" ry="20.6302"/>
<ellipse fill="none" stroke="black" cx="24.7982" cy="-111.798" rx="24.5979" ry="24.5979"/>
<text text-anchor="middle" x="24.7982" y="-108.098" font-family="Times New Roman,serif" font-size="14.00">T4</text>
</g>
<!-- T2 -->
<g id="node4" class="node"><title>T2</title>
<ellipse fill="none" stroke="black" cx="56.7982" cy="-205.596" rx="27" ry="18"/>
<text text-anchor="middle" x="56.7982" y="-201.896" font-family="Times New Roman,serif" font-size="14.00">T2</text>
</g>
<!-- T4&#45;&gt;T2 -->
<g id="edge11" class="edge"><title>T4&#45;&gt;T2</title>
<path fill="none" stroke="black" d="M32.68,-135.409C37.1785,-148.314 42.8418,-164.56 47.5499,-178.066"/>
<polygon fill="black" stroke="black" points="44.3322,-179.468 50.9289,-187.759 50.9421,-177.164 44.3322,-179.468"/>
<text text-anchor="middle" x="47.2982" y="-158.396" font-family="Times New Roman,serif" font-size="14.00">1</text>
</g>
<!-- T3 -->
<g id="node6" class="node"><title>T3</title>
<ellipse fill="none" stroke="black" cx="85.7982" cy="-18" rx="27" ry="18"/>
<text text-anchor="middle" x="85.7982" y="-14.3" font-family="Times New Roman,serif" font-size="14.00">T3</text>
</g>
<!-- T4&#45;&gt;T3 -->
<g id="edge10" class="edge"><title>T4&#45;&gt;T3</title>
<path fill="none" stroke="black" d="M38.336,-90.4252C47.5793,-76.515 59.8702,-58.0186 69.6284,-43.3337"/>
<polygon fill="black" stroke="black" points="72.7076,-45.0238 75.3271,-34.7578 66.8774,-41.1496 72.7076,-45.0238"/>
<text text-anchor="middle" x="64.2982" y="-57.8" font-family="Times New Roman,serif" font-size="14.00">0</text>
</g>
<!-- T0&#45;&gt;T2 -->
<g id="edge3" class="edge"><title>T0&#45;&gt;T2</title>
<path fill="none" stroke="black" d="M88.8447,-276.64C82.7348,-263.285 74.8808,-246.119 68.4774,-232.123"/>
<polygon fill="black" stroke="black" points="71.6585,-230.663 64.3152,-223.026 65.2931,-233.576 71.6585,-230.663"/>
<text text-anchor="middle" x="83.2982" y="-245.396" font-family="Times New Roman,serif" font-size="14.00">1</text>
</g>
<!-- T1 -->
<g id="node5" class="node"><title>T1</title>
<ellipse fill="none" stroke="black" cx="128.798" cy="-205.596" rx="27" ry="18"/>
<text text-anchor="middle" x="128.798" y="-201.896" font-family="Times New Roman,serif" font-size="14.00">T1</text>
</g>
<!-- T0&#45;&gt;T1 -->
<g id="edge2" class="edge"><title>T0&#45;&gt;T1</title>
<path fill="none" stroke="black" d="M96.9297,-274.542C96.9002,-264.134 97.9548,-251.966 101.798,-241.596 103.402,-237.27 105.741,-233.045 108.383,-229.112"/>
<polygon fill="black" stroke="black" points="111.242,-231.134 114.479,-221.045 105.658,-226.913 111.242,-231.134"/>
<text text-anchor="middle" x="105.298" y="-245.396" font-family="Times New Roman,serif" font-size="14.00">0</text>
</g>
<!-- T2&#45;&gt;T4 -->
<g id="edge6" class="edge"><title>T2&#45;&gt;T4</title>
<path fill="none" stroke="black" d="M42.022,-190.204C36.9171,-184.324 31.7437,-177.134 28.7982,-169.596 26.0278,-162.507 24.5621,-154.544 23.8668,-146.874"/>
<polygon fill="black" stroke="black" points="27.3531,-146.514 23.3462,-136.706 20.3622,-146.872 27.3531,-146.514"/>
<text text-anchor="middle" x="32.2982" y="-158.396" font-family="Times New Roman,serif" font-size="14.00">0</text>
</g>
<!-- T2&#45;&gt;T3 -->
<g id="edge7" class="edge"><title>T2&#45;&gt;T3</title>
<path fill="none" stroke="black" d="M59.4744,-187.469C64.5243,-155.15 75.4942,-84.9439 81.5574,-46.1406"/>
<polygon fill="black" stroke="black" points="85.0425,-46.5069 83.1284,-36.0864 78.1264,-45.4261 85.0425,-46.5069"/>
<text text-anchor="middle" x="79.2982" y="-108.098" font-family="Times New Roman,serif" font-size="14.00">1</text>
</g>
<!-- T1&#45;&gt;T0 -->
<g id="edge5" class="edge"><title>T1&#45;&gt;T0</title>
<path fill="none" stroke="black" d="M123.351,-223.265C119.453,-235.192 114.081,-251.63 109.356,-266.088"/>
<polygon fill="black" stroke="black" points="105.993,-265.11 106.214,-275.703 112.647,-267.285 105.993,-265.11"/>
<text text-anchor="middle" x="120.298" y="-245.396" font-family="Times New Roman,serif" font-size="14.00">1</text>
</g>
<!-- T1&#45;&gt;T3 -->
<g id="edge4" class="edge"><title>T1&#45;&gt;T3</title>
<path fill="none" stroke="black" d="M124.83,-187.469C117.323,-155.068 100.994,-84.5873 92.0179,-45.8457"/>
<polygon fill="black" stroke="black" points="95.3615,-44.7703 89.6947,-35.8183 88.5422,-46.3503 95.3615,-44.7703"/>
<text text-anchor="middle" x="116.298" y="-108.098" font-family="Times New Roman,serif" font-size="14.00">0</text>
</g>
<!-- T3&#45;&gt;T3 -->
<g id="edge8" class="edge"><title>T3&#45;&gt;T3</title>
<path fill="none" stroke="black" d="M112.593,-21.9288C122.579,-22.0577 130.798,-20.748 130.798,-18 130.798,-16.2825 127.587,-15.1268 122.741,-14.5331"/>
<polygon fill="black" stroke="black" points="122.742,-11.0296 112.593,-14.0712 122.423,-18.0223 122.742,-11.0296"/>
<text text-anchor="middle" x="134.298" y="-14.3" font-family="Times New Roman,serif" font-size="14.00">0</text>
</g>
<!-- T3&#45;&gt;T3 -->
<g id="edge9" class="edge"><title>T3&#45;&gt;T3</title>
<path fill="none" stroke="black" d="M111.027,-24.9445C129.839,-27.3695 148.798,-25.0547 148.798,-18 148.798,-12.213 136.04,-9.61542 121.071,-10.2074"/>
<polygon fill="black" stroke="black" points="120.697,-6.72644 111.027,-11.0555 121.286,-13.7016 120.697,-6.72644"/>
<text text-anchor="middle" x="152.298" y="-14.3" font-family="Times New Roman,serif" font-size="14.00">1</text>
</g>
</g>
</svg>
