<?xml version="1.0" encoding="UTF-8" standalone="no"?>
<!DOCTYPE svg PUBLIC "-//W3C//DTD SVG 1.1//EN"
 "http://www.w3.org/Graphics/SVG/1.1/DTD/svg11.dtd">
<!-- Generated by graphviz version 2.38.0 (20140413.2041)
 -->
<!-- Title: %3 Pages: 1 -->
<svg width="147pt" height="593pt"
 viewBox="0.00 0.00 146.55 592.79" xmlns="http://www.w3.org/2000/svg" xmlns:xlink="http://www.w3.org/1999/xlink">
<g id="graph0" class="graph" transform="scale(1 1) rotate(0) translate(4 588.789)">
<title>%3</title>
<polygon fill="white" stroke="none" points="-4,4 -4,-588.789 142.547,-588.789 142.547,4 -4,4"/>
<!-- fake0 -->
<g id="node1" class="node"><title>fake0</title>
</g>
<!-- T0 -->
<g id="node4" class="node"><title>T0</title>
<ellipse fill="none" stroke="black" cx="30.5473" cy="-486.991" rx="20.6302" ry="20.6302"/>
<ellipse fill="none" stroke="black" cx="30.5473" cy="-486.991" rx="24.5979" ry="24.5979"/>
<text text-anchor="middle" x="30.5473" y="-483.291" font-family="Times New Roman,serif" font-size="14.00">T0</text>
</g>
<!-- fake0&#45;&gt;T0 -->
<g id="edge1" class="edge"><title>fake0&#45;&gt;T0</title>
<path fill="none" stroke="black" stroke-width="2" d="M30.5473,-548.523C30.5473,-540.717 30.5473,-531.207 30.5473,-522.059"/>
<polygon fill="black" stroke="black" stroke-width="2" points="34.0474,-521.994 30.5473,-511.994 27.0474,-521.994 34.0474,-521.994"/>
</g>
<!-- T4 -->
<g id="node2" class="node"><title>T4</title>
<ellipse fill="none" stroke="black" cx="61.5473" cy="-299.394" rx="20.6302" ry="20.6302"/>
<ellipse fill="none" stroke="black" cx="61.5473" cy="-299.394" rx="24.5979" ry="24.5979"/>
<text text-anchor="middle" x="61.5473" y="-295.694" font-family="Times New Roman,serif" font-size="14.00">T4</text>
</g>
<!-- T2 -->
<g id="node3" class="node"><title>T2</title>
<ellipse fill="none" stroke="black" cx="44.5473" cy="-205.596" rx="27" ry="18"/>
<text text-anchor="middle" x="44.5473" y="-201.896" font-family="Times New Roman,serif" font-size="14.00">T2</text>
</g>
<!-- T4&#45;&gt;T2 -->
<g id="edge11" class="edge"><title>T4&#45;&gt;T2</title>
<path fill="none" stroke="black" d="M57.1694,-274.754C54.825,-262.095 51.9287,-246.455 49.5021,-233.352"/>
<polygon fill="black" stroke="black" points="52.9387,-232.687 47.6762,-223.492 46.0557,-233.962 52.9387,-232.687"/>
<text text-anchor="middle" x="58.0473" y="-245.396" font-family="Times New Roman,serif" font-size="14.00">1</text>
</g>
<!-- T1 -->
<g id="node7" class="node"><title>T1</title>
<ellipse fill="none" stroke="black" cx="77.5473" cy="-393.193" rx="27" ry="18"/>
<text text-anchor="middle" x="77.5473" y="-389.493" font-family="Times New Roman,serif" font-size="14.00">T1</text>
</g>
<!-- T4&#45;&gt;T1 -->
<g id="edge10" class="edge"><title>T4&#45;&gt;T1</title>
<path fill="none" stroke="black" d="M65.6904,-324.165C67.8539,-336.578 70.512,-351.829 72.7628,-364.742"/>
<polygon fill="black" stroke="black" points="69.3726,-365.676 74.5378,-374.926 76.2687,-364.474 69.3726,-365.676"/>
<text text-anchor="middle" x="75.0473" y="-345.993" font-family="Times New Roman,serif" font-size="14.00">0</text>
</g>
<!-- T3 -->
<g id="node5" class="node"><title>T3</title>
<ellipse fill="none" stroke="black" cx="61.5473" cy="-18" rx="27" ry="18"/>
<text text-anchor="middle" x="61.5473" y="-14.3" font-family="Times New Roman,serif" font-size="14.00">T3</text>
</g>
<!-- T2&#45;&gt;T3 -->
<g id="edge7" class="edge"><title>T2&#45;&gt;T3</title>
<path fill="none" stroke="black" d="M36.2778,-188.063C25.9205,-165.146 10.6641,-122.532 20.5473,-87 25.0062,-70.9691 34.3751,-54.9383 43.0326,-42.4712"/>
<polygon fill="black" stroke="black" points="46.0865,-44.2222 49.1305,-34.074 40.4224,-40.109 46.0865,-44.2222"/>
<text text-anchor="middle" x="24.0473" y="-108.098" font-family="Times New Roman,serif" font-size="14.00">1</text>
</g>
<!-- T5 -->
<g id="node6" class="node"><title>T5</title>
<ellipse fill="none" stroke="black" cx="61.5473" cy="-111.798" rx="20.6302" ry="20.6302"/>
<ellipse fill="none" stroke="black" cx="61.5473" cy="-111.798" rx="24.5979" ry="24.5979"/>
<text text-anchor="middle" x="61.5473" y="-108.098" font-family="Times New Roman,serif" font-size="14.00">T5</text>
</g>
<!-- T2&#45;&gt;T5 -->
<g id="edge6" class="edge"><title>T2&#45;&gt;T5</title>
<path fill="none" stroke="black" d="M44.4685,-187.332C44.7018,-177.634 45.4611,-165.353 47.5473,-154.596 48.1738,-151.366 48.9849,-148.041 49.9008,-144.745"/>
<polygon fill="black" stroke="black" points="53.2831,-145.654 52.8834,-135.067 46.5935,-143.593 53.2831,-145.654"/>
<text text-anchor="middle" x="51.0473" y="-158.396" font-family="Times New Roman,serif" font-size="14.00">0</text>
</g>
<!-- T0&#45;&gt;T2 -->
<g id="edge3" class="edge"><title>T0&#45;&gt;T2</title>
<path fill="none" stroke="black" d="M28.0973,-462.099C24.5405,-422.81 19.2283,-342.172 27.5473,-274.596 29.2548,-260.726 32.8516,-245.615 36.2989,-233.169"/>
<polygon fill="black" stroke="black" points="39.7005,-234.004 39.1147,-223.426 32.9757,-232.061 39.7005,-234.004"/>
<text text-anchor="middle" x="27.0473" y="-345.993" font-family="Times New Roman,serif" font-size="14.00">1</text>
</g>
<!-- T0&#45;&gt;T1 -->
<g id="edge2" class="edge"><title>T0&#45;&gt;T1</title>
<path fill="none" stroke="black" d="M41.4482,-464.7C48.3225,-451.273 57.239,-433.858 64.4903,-419.695"/>
<polygon fill="black" stroke="black" points="67.7568,-420.995 69.1988,-410.499 61.526,-417.805 67.7568,-420.995"/>
<text text-anchor="middle" x="64.0473" y="-432.993" font-family="Times New Roman,serif" font-size="14.00">0</text>
</g>
<!-- T3&#45;&gt;T3 -->
<g id="edge8" class="edge"><title>T3&#45;&gt;T3</title>
<path fill="none" stroke="black" d="M88.3421,-21.9288C98.3277,-22.0577 106.547,-20.748 106.547,-18 106.547,-16.2825 103.337,-15.1268 98.4905,-14.5331"/>
<polygon fill="black" stroke="black" points="98.491,-11.0296 88.3421,-14.0712 98.1726,-18.0223 98.491,-11.0296"/>
<text text-anchor="middle" x="110.047" y="-14.3" font-family="Times New Roman,serif" font-size="14.00">0</text>
</g>
<!-- T3&#45;&gt;T3 -->
<g id="edge9" class="edge"><title>T3&#45;&gt;T3</title>
<path fill="none" stroke="black" d="M86.7765,-24.9445C105.588,-27.3695 124.547,-25.0547 124.547,-18 124.547,-12.213 111.789,-9.61542 96.8205,-10.2074"/>
<polygon fill="black" stroke="black" points="96.4465,-6.72644 86.7765,-11.0555 97.0355,-13.7016 96.4465,-6.72644"/>
<text text-anchor="middle" x="128.047" y="-14.3" font-family="Times New Roman,serif" font-size="14.00">1</text>
</g>
<!-- T5&#45;&gt;T2 -->
<g id="edge13" class="edge"><title>T5&#45;&gt;T2</title>
<path fill="none" stroke="black" d="M58.1379,-136.627C56.5862,-146.811 54.6314,-158.814 52.5473,-169.596 52.0327,-172.258 51.4621,-175.026 50.8692,-177.787"/>
<polygon fill="black" stroke="black" points="47.4516,-177.033 48.6853,-187.555 54.283,-178.56 47.4516,-177.033"/>
<text text-anchor="middle" x="59.0473" y="-158.396" font-family="Times New Roman,serif" font-size="14.00">1</text>
</g>
<!-- T5&#45;&gt;T3 -->
<g id="edge12" class="edge"><title>T5&#45;&gt;T3</title>
<path fill="none" stroke="black" d="M61.5473,-86.6793C61.5473,-74.2289 61.5473,-58.9952 61.5473,-46.1353"/>
<polygon fill="black" stroke="black" points="65.0474,-46.0044 61.5473,-36.0045 58.0474,-46.0045 65.0474,-46.0044"/>
<text text-anchor="middle" x="65.0473" y="-57.8" font-family="Times New Roman,serif" font-size="14.00">0</text>
</g>
<!-- T1&#45;&gt;T4 -->
<g id="edge5" class="edge"><title>T1&#45;&gt;T4</title>
<path fill="none" stroke="black" d="M66.3195,-376.577C62.7883,-370.777 59.3436,-363.957 57.5473,-357.193 55.5936,-349.836 55.1771,-341.766 55.5498,-334.078"/>
<polygon fill="black" stroke="black" points="59.0522,-334.211 56.4769,-323.933 52.0812,-333.573 59.0522,-334.211"/>
<text text-anchor="middle" x="61.0473" y="-345.993" font-family="Times New Roman,serif" font-size="14.00">1</text>
</g>
<!-- T1&#45;&gt;T3 -->
<g id="edge4" class="edge"><title>T1&#45;&gt;T3</title>
<path fill="none" stroke="black" d="M88.2492,-376.388C99.1767,-358.686 114.547,-328.746 114.547,-300.394 114.547,-300.394 114.547,-300.394 114.547,-110.798 114.547,-84.3874 97.8904,-58.7384 83.2526,-41.2974"/>
<polygon fill="black" stroke="black" points="85.5506,-38.6117 76.3107,-33.4275 80.301,-43.2422 85.5506,-38.6117"/>
<text text-anchor="middle" x="118.047" y="-201.896" font-family="Times New Roman,serif" font-size="14.00">0</text>
</g>
</g>
</svg>
