<?xml version="1.0" encoding="UTF-8" standalone="no"?>
<!DOCTYPE svg PUBLIC "-//W3C//DTD SVG 1.1//EN"
 "http://www.w3.org/Graphics/SVG/1.1/DTD/svg11.dtd">
<!-- Generated by graphviz version 2.38.0 (20140413.2041)
 -->
<!-- Title: %3 Pages: 1 -->
<svg width="256pt" height="827pt"
 viewBox="0.00 0.00 256.00 826.60" xmlns="http://www.w3.org/2000/svg" xmlns:xlink="http://www.w3.org/1999/xlink">
<g id="graph0" class="graph" transform="scale(1 1) rotate(0) translate(4 822.596)">
<title>%3</title>
<polygon fill="white" stroke="none" points="-4,4 -4,-822.596 252,-822.596 252,4 -4,4"/>
<!-- fake0 -->
<g id="node1" class="node"><title>fake0</title>
</g>
<!-- T0 -->
<g id="node4" class="node"><title>T0</title>
<ellipse fill="none" stroke="black" cx="127" cy="-727.596" rx="27" ry="18"/>
<text text-anchor="middle" x="127" y="-723.896" font-family="Times New Roman,serif" font-size="14.00">T0</text>
</g>
<!-- fake0&#45;&gt;T0 -->
<g id="edge1" class="edge"><title>fake0&#45;&gt;T0</title>
<path fill="none" stroke="black" stroke-width="2" d="M127,-782.409C127,-774.386 127,-764.644 127,-755.665"/>
<polygon fill="black" stroke="black" stroke-width="2" points="130.5,-755.625 127,-745.625 123.5,-755.625 130.5,-755.625"/>
</g>
<!-- T4 -->
<g id="node2" class="node"><title>T4</title>
<ellipse fill="none" stroke="black" cx="127" cy="-379.596" rx="27" ry="18"/>
<text text-anchor="middle" x="127" y="-375.896" font-family="Times New Roman,serif" font-size="14.00">T4</text>
</g>
<!-- T5 -->
<g id="node6" class="node"><title>T5</title>
<ellipse fill="none" stroke="black" cx="89" cy="-292.596" rx="27" ry="18"/>
<text text-anchor="middle" x="89" y="-288.896" font-family="Times New Roman,serif" font-size="14.00">T5</text>
</g>
<!-- T4&#45;&gt;T5 -->
<g id="edge9" class="edge"><title>T4&#45;&gt;T5</title>
<path fill="none" stroke="black" d="M119.673,-362.207C114.259,-350.096 106.779,-333.365 100.561,-319.457"/>
<polygon fill="black" stroke="black" points="103.581,-317.636 96.3043,-309.935 97.1904,-320.493 103.581,-317.636"/>
<text text-anchor="middle" x="119.5" y="-332.396" font-family="Times New Roman,serif" font-size="14.00">EP</text>
</g>
<!-- T8 -->
<g id="node8" class="node"><title>T8</title>
<ellipse fill="none" stroke="black" cx="122" cy="-24.7982" rx="20.6302" ry="20.6302"/>
<ellipse fill="none" stroke="black" cx="122" cy="-24.7982" rx="24.5979" ry="24.5979"/>
<text text-anchor="middle" x="122" y="-21.0982" font-family="Times New Roman,serif" font-size="14.00">T8</text>
</g>
<!-- T4&#45;&gt;T8 -->
<g id="edge8" class="edge"><title>T4&#45;&gt;T8</title>
<path fill="none" stroke="black" d="M132.379,-361.86C137.359,-344.858 144,-317.675 144,-293.596 144,-293.596 144,-293.596 144,-117.596 144,-97.4577 138.931,-75.5013 133.659,-58.1124"/>
<polygon fill="black" stroke="black" points="136.949,-56.9085 130.569,-48.4502 130.282,-59.0411 136.949,-56.9085"/>
<text text-anchor="middle" x="152.5" y="-201.896" font-family="Times New Roman,serif" font-size="14.00">EP</text>
</g>
<!-- T2 -->
<g id="node3" class="node"><title>T2</title>
<ellipse fill="none" stroke="black" cx="221" cy="-553.596" rx="27" ry="18"/>
<text text-anchor="middle" x="221" y="-549.896" font-family="Times New Roman,serif" font-size="14.00">T2</text>
</g>
<!-- T3 -->
<g id="node5" class="node"><title>T3</title>
<ellipse fill="none" stroke="black" cx="160" cy="-466.596" rx="27" ry="18"/>
<text text-anchor="middle" x="160" y="-462.896" font-family="Times New Roman,serif" font-size="14.00">T3</text>
</g>
<!-- T2&#45;&gt;T3 -->
<g id="edge5" class="edge"><title>T2&#45;&gt;T3</title>
<path fill="none" stroke="black" d="M209.812,-537.006C200.697,-524.305 187.674,-506.158 177.229,-491.604"/>
<polygon fill="black" stroke="black" points="179.791,-489.172 171.117,-483.088 174.104,-493.253 179.791,-489.172"/>
<text text-anchor="middle" x="197.5" y="-506.396" font-family="Times New Roman,serif" font-size="14.00">1</text>
</g>
<!-- T0&#45;&gt;T4 -->
<g id="edge3" class="edge"><title>T0&#45;&gt;T4</title>
<path fill="none" stroke="black" d="M120.039,-709.991C113.594,-693.091 105,-665.985 105,-641.596 105,-641.596 105,-641.596 105,-465.596 105,-445.399 110.894,-423.339 116.58,-406.754"/>
<polygon fill="black" stroke="black" points="119.925,-407.796 120.039,-397.202 113.343,-405.412 119.925,-407.796"/>
<text text-anchor="middle" x="113.5" y="-549.896" font-family="Times New Roman,serif" font-size="14.00">EP</text>
</g>
<!-- T1 -->
<g id="node7" class="node"><title>T1</title>
<ellipse fill="none" stroke="black" cx="160" cy="-640.596" rx="27" ry="18"/>
<text text-anchor="middle" x="160" y="-636.896" font-family="Times New Roman,serif" font-size="14.00">T1</text>
</g>
<!-- T0&#45;&gt;T1 -->
<g id="edge2" class="edge"><title>T0&#45;&gt;T1</title>
<path fill="none" stroke="black" d="M133.52,-709.803C138.175,-697.812 144.528,-681.447 149.845,-667.753"/>
<polygon fill="black" stroke="black" points="153.137,-668.944 153.494,-658.355 146.612,-666.41 153.137,-668.944"/>
<text text-anchor="middle" x="154.5" y="-680.396" font-family="Times New Roman,serif" font-size="14.00">EP</text>
</g>
<!-- T3&#45;&gt;T4 -->
<g id="edge7" class="edge"><title>T3&#45;&gt;T4</title>
<path fill="none" stroke="black" d="M153.48,-448.803C148.825,-436.812 142.472,-420.447 137.155,-406.753"/>
<polygon fill="black" stroke="black" points="140.388,-405.41 133.506,-397.355 133.863,-407.944 140.388,-405.41"/>
<text text-anchor="middle" x="153.5" y="-419.396" font-family="Times New Roman,serif" font-size="14.00">EP</text>
</g>
<!-- T3&#45;&gt;T1 -->
<g id="edge6" class="edge"><title>T3&#45;&gt;T1</title>
<path fill="none" stroke="black" d="M160,-484.648C160,-514.476 160,-576.36 160,-612.24"/>
<polygon fill="black" stroke="black" points="156.5,-612.475 160,-622.475 163.5,-612.476 156.5,-612.475"/>
<text text-anchor="middle" x="168.5" y="-549.896" font-family="Times New Roman,serif" font-size="14.00">EP</text>
</g>
<!-- T6 -->
<g id="node10" class="node"><title>T6</title>
<ellipse fill="none" stroke="black" cx="27" cy="-205.596" rx="27" ry="18"/>
<text text-anchor="middle" x="27" y="-201.896" font-family="Times New Roman,serif" font-size="14.00">T6</text>
</g>
<!-- T5&#45;&gt;T6 -->
<g id="edge10" class="edge"><title>T5&#45;&gt;T6</title>
<path fill="none" stroke="black" d="M77.6282,-276.006C68.2768,-263.185 54.8771,-244.815 44.2119,-230.193"/>
<polygon fill="black" stroke="black" points="47.0204,-228.104 38.2997,-222.088 41.365,-232.23 47.0204,-228.104"/>
<text text-anchor="middle" x="65.5" y="-245.396" font-family="Times New Roman,serif" font-size="14.00">1</text>
</g>
<!-- T1&#45;&gt;T2 -->
<g id="edge4" class="edge"><title>T1&#45;&gt;T2</title>
<path fill="none" stroke="black" d="M171.188,-624.006C180.303,-611.305 193.326,-593.158 203.771,-578.604"/>
<polygon fill="black" stroke="black" points="206.896,-580.253 209.883,-570.088 201.209,-576.172 206.896,-580.253"/>
<text text-anchor="middle" x="198.5" y="-593.396" font-family="Times New Roman,serif" font-size="14.00">0</text>
</g>
<!-- T7 -->
<g id="node9" class="node"><title>T7</title>
<ellipse fill="none" stroke="black" cx="89" cy="-118.596" rx="27" ry="18"/>
<text text-anchor="middle" x="89" y="-114.896" font-family="Times New Roman,serif" font-size="14.00">T7</text>
</g>
<!-- T7&#45;&gt;T5 -->
<g id="edge13" class="edge"><title>T7&#45;&gt;T5</title>
<path fill="none" stroke="black" d="M89,-136.648C89,-166.476 89,-228.36 89,-264.24"/>
<polygon fill="black" stroke="black" points="85.5001,-264.475 89,-274.475 92.5001,-264.476 85.5001,-264.475"/>
<text text-anchor="middle" x="97.5" y="-201.896" font-family="Times New Roman,serif" font-size="14.00">EP</text>
</g>
<!-- T7&#45;&gt;T8 -->
<g id="edge12" class="edge"><title>T7&#45;&gt;T8</title>
<path fill="none" stroke="black" d="M95.0527,-100.759C99.3463,-88.8154 105.243,-72.4116 110.426,-57.9939"/>
<polygon fill="black" stroke="black" points="113.782,-59.0033 113.872,-48.4089 107.195,-56.6352 113.782,-59.0033"/>
<text text-anchor="middle" x="115.5" y="-71.3963" font-family="Times New Roman,serif" font-size="14.00">EP</text>
</g>
<!-- T6&#45;&gt;T7 -->
<g id="edge11" class="edge"><title>T6&#45;&gt;T7</title>
<path fill="none" stroke="black" d="M38.3718,-189.006C47.7232,-176.185 61.1229,-157.815 71.7881,-143.193"/>
<polygon fill="black" stroke="black" points="74.635,-145.23 77.7003,-135.088 68.9796,-141.104 74.635,-145.23"/>
<text text-anchor="middle" x="67.5" y="-158.396" font-family="Times New Roman,serif" font-size="14.00">0</text>
</g>
</g>
</svg>
