<?xml version="1.0" encoding="UTF-8" standalone="no"?>
<!DOCTYPE svg PUBLIC "-//W3C//DTD SVG 1.1//EN"
 "http://www.w3.org/Graphics/SVG/1.1/DTD/svg11.dtd">
<!-- Generated by graphviz version 2.38.0 (20140413.2041)
 -->
<!-- Title: %3 Pages: 1 -->
<svg width="398pt" height="593pt"
 viewBox="0.00 0.00 398.20 592.79" xmlns="http://www.w3.org/2000/svg" xmlns:xlink="http://www.w3.org/1999/xlink">
<g id="graph0" class="graph" transform="scale(1 1) rotate(0) translate(4 588.789)">
<title>%3</title>
<polygon fill="white" stroke="none" points="-4,4 -4,-588.789 394.197,-588.789 394.197,4 -4,4"/>
<!-- fake0 -->
<g id="node1" class="node"><title>fake0</title>
</g>
<!-- T0 -->
<g id="node4" class="node"><title>T0</title>
<ellipse fill="none" stroke="black" cx="303.197" cy="-486.991" rx="20.6302" ry="20.6302"/>
<ellipse fill="none" stroke="black" cx="303.197" cy="-486.991" rx="24.5979" ry="24.5979"/>
<text text-anchor="middle" x="303.197" y="-483.291" font-family="Times New Roman,serif" font-size="14.00">T0</text>
</g>
<!-- fake0&#45;&gt;T0 -->
<g id="edge1" class="edge"><title>fake0&#45;&gt;T0</title>
<path fill="none" stroke="black" stroke-width="2" d="M303.197,-548.523C303.197,-540.717 303.197,-531.207 303.197,-522.059"/>
<polygon fill="black" stroke="black" stroke-width="2" points="306.698,-521.994 303.197,-511.994 299.698,-521.994 306.698,-521.994"/>
</g>
<!-- T1 -->
<g id="node2" class="node"><title>T1</title>
<ellipse fill="none" stroke="black" cx="212.197" cy="-393.193" rx="27" ry="18"/>
<text text-anchor="middle" x="212.197" y="-389.493" font-family="Times New Roman,serif" font-size="14.00">T1</text>
</g>
<!-- T5 -->
<g id="node3" class="node"><title>T5</title>
<ellipse fill="none" stroke="black" cx="107.197" cy="-299.394" rx="20.6302" ry="20.6302"/>
<ellipse fill="none" stroke="black" cx="107.197" cy="-299.394" rx="24.5979" ry="24.5979"/>
<text text-anchor="middle" x="107.197" y="-295.694" font-family="Times New Roman,serif" font-size="14.00">T5</text>
</g>
<!-- T1&#45;&gt;T5 -->
<g id="edge9" class="edge"><title>T1&#45;&gt;T5</title>
<path fill="none" stroke="black" d="M185.406,-390.387C162.464,-387.313 130.477,-379.088 113.197,-357.193 108.101,-350.735 105.678,-342.497 104.73,-334.311"/>
<polygon fill="black" stroke="black" points="108.215,-333.924 104.229,-324.108 101.224,-334.267 108.215,-333.924"/>
<text text-anchor="middle" x="118.197" y="-345.993" font-family="Times New Roman,serif" font-size="14.00">C</text>
</g>
<!-- T4 -->
<g id="node5" class="node"><title>T4</title>
<ellipse fill="none" stroke="black" cx="151.197" cy="-111.798" rx="20.6302" ry="20.6302"/>
<ellipse fill="none" stroke="black" cx="151.197" cy="-111.798" rx="24.5979" ry="24.5979"/>
<text text-anchor="middle" x="151.197" y="-108.098" font-family="Times New Roman,serif" font-size="14.00">T4</text>
</g>
<!-- T1&#45;&gt;T4 -->
<g id="edge8" class="edge"><title>T1&#45;&gt;T4</title>
<path fill="none" stroke="black" d="M213.927,-375.178C217.309,-334.894 221.782,-231.315 188.197,-154.596 185.377,-148.154 181.183,-142.006 176.621,-136.503"/>
<polygon fill="black" stroke="black" points="179.091,-134.015 169.79,-128.942 173.896,-138.708 179.091,-134.015"/>
<text text-anchor="middle" x="218.197" y="-245.396" font-family="Times New Roman,serif" font-size="14.00">D</text>
</g>
<!-- T3 -->
<g id="node7" class="node"><title>T3</title>
<ellipse fill="none" stroke="black" cx="199.197" cy="-18" rx="27" ry="18"/>
<text text-anchor="middle" x="199.197" y="-14.3" font-family="Times New Roman,serif" font-size="14.00">T3</text>
</g>
<!-- T1&#45;&gt;T3 -->
<g id="edge6" class="edge"><title>T1&#45;&gt;T3</title>
<path fill="none" stroke="black" d="M225.256,-377.105C238.856,-359.799 258.197,-329.986 258.197,-300.394 258.197,-300.394 258.197,-300.394 258.197,-110.798 258.197,-83.1976 239.089,-57.2813 222.622,-40.0711"/>
<polygon fill="black" stroke="black" points="224.876,-37.3763 215.319,-32.8016 219.937,-42.3372 224.876,-37.3763"/>
<text text-anchor="middle" x="263.197" y="-201.896" font-family="Times New Roman,serif" font-size="14.00">A</text>
</g>
<!-- T1&#45;&gt;T3 -->
<g id="edge7" class="edge"><title>T1&#45;&gt;T3</title>
<path fill="none" stroke="black" d="M234,-382.297C261.206,-368.279 304.197,-339.88 304.197,-300.394 304.197,-300.394 304.197,-300.394 304.197,-110.798 304.197,-71.907 262.865,-45.6815 232.065,-31.5378"/>
<polygon fill="black" stroke="black" points="233.066,-28.1563 222.5,-27.3695 230.269,-34.5733 233.066,-28.1563"/>
<text text-anchor="middle" x="309.197" y="-201.896" font-family="Times New Roman,serif" font-size="14.00">B</text>
</g>
<!-- T5&#45;&gt;T1 -->
<g id="edge22" class="edge"><title>T5&#45;&gt;T1</title>
<path fill="none" stroke="black" d="M119.758,-320.979C127.528,-332.574 138.278,-346.774 150.197,-357.193 159.317,-365.165 170.541,-372.163 180.921,-377.763"/>
<polygon fill="black" stroke="black" points="179.638,-381.04 190.131,-382.502 182.84,-374.815 179.638,-381.04"/>
<text text-anchor="middle" x="155.197" y="-345.993" font-family="Times New Roman,serif" font-size="14.00">A</text>
</g>
<!-- T2 -->
<g id="node6" class="node"><title>T2</title>
<ellipse fill="none" stroke="black" cx="116.197" cy="-205.596" rx="27" ry="18"/>
<text text-anchor="middle" x="116.197" y="-201.896" font-family="Times New Roman,serif" font-size="14.00">T2</text>
</g>
<!-- T5&#45;&gt;T2 -->
<g id="edge23" class="edge"><title>T5&#45;&gt;T2</title>
<path fill="none" stroke="black" d="M109.562,-274.276C110.783,-261.825 112.276,-246.591 113.537,-233.732"/>
<polygon fill="black" stroke="black" points="117.038,-233.895 114.53,-223.601 110.071,-233.212 117.038,-233.895"/>
<text text-anchor="middle" x="118.197" y="-245.396" font-family="Times New Roman,serif" font-size="14.00">B</text>
</g>
<!-- T5&#45;&gt;T3 -->
<g id="edge24" class="edge"><title>T5&#45;&gt;T3</title>
<path fill="none" stroke="black" d="M85.5875,-287.051C73.6342,-279.786 59.3842,-269.337 50.1974,-256.596 -2.5582,-183.432 -23.7626,-119.552 38.1974,-54 54.8619,-36.3693 120.127,-26.7365 162.272,-22.2433"/>
<polygon fill="black" stroke="black" points="162.85,-25.7027 172.445,-21.2099 162.142,-18.7385 162.85,-25.7027"/>
<text text-anchor="middle" x="10.1974" y="-158.396" font-family="Times New Roman,serif" font-size="14.00">D</text>
</g>
<!-- T5&#45;&gt;T3 -->
<g id="edge25" class="edge"><title>T5&#45;&gt;T3</title>
<path fill="none" stroke="black" d="M97.0944,-276.689C90.8512,-262.045 83.4333,-242.091 80.1974,-223.596 69.6717,-163.436 73.8326,-144.216 95.1974,-87 101.279,-70.7138 102.919,-65.2202 116.197,-54 130.145,-42.2145 148.637,-33.8987 164.626,-28.3392"/>
<polygon fill="black" stroke="black" points="165.767,-31.6485 174.194,-25.2275 163.602,-24.9917 165.767,-31.6485"/>
<text text-anchor="middle" x="81.1974" y="-158.396" font-family="Times New Roman,serif" font-size="14.00">C</text>
</g>
<!-- T0&#45;&gt;T1 -->
<g id="edge2" class="edge"><title>T0&#45;&gt;T1</title>
<path fill="none" stroke="black" d="M286.081,-468.724C271.303,-453.817 249.874,-432.2 233.896,-416.081"/>
<polygon fill="black" stroke="black" points="236.069,-413.302 226.543,-408.664 231.097,-418.23 236.069,-413.302"/>
<text text-anchor="middle" x="266.197" y="-432.993" font-family="Times New Roman,serif" font-size="14.00">A</text>
</g>
<!-- T0&#45;&gt;T2 -->
<g id="edge3" class="edge"><title>T0&#45;&gt;T2</title>
<path fill="none" stroke="black" d="M280.229,-476.778C238.357,-459.035 148.725,-416.556 92.1974,-357.193 66.2216,-329.914 62.7176,-310.777 73.1974,-274.596 77.9335,-258.245 87.906,-242.051 97.0556,-229.57"/>
<polygon fill="black" stroke="black" points="99.8834,-231.634 103.184,-221.566 94.3255,-227.378 99.8834,-231.634"/>
<text text-anchor="middle" x="97.1974" y="-345.993" font-family="Times New Roman,serif" font-size="14.00">B</text>
</g>
<!-- T0&#45;&gt;T3 -->
<g id="edge4" class="edge"><title>T0&#45;&gt;T3</title>
<path fill="none" stroke="black" d="M317.057,-466.234C328.267,-448.301 342.197,-420.686 342.197,-394.193 342.197,-394.193 342.197,-394.193 342.197,-110.798 342.197,-59.9687 277.424,-35.9771 235.065,-25.7221"/>
<polygon fill="black" stroke="black" points="235.62,-22.2592 225.094,-23.4583 234.071,-29.0855 235.62,-22.2592"/>
<text text-anchor="middle" x="347.197" y="-245.396" font-family="Times New Roman,serif" font-size="14.00">D</text>
</g>
<!-- T0&#45;&gt;T3 -->
<g id="edge5" class="edge"><title>T0&#45;&gt;T3</title>
<path fill="none" stroke="black" d="M324.238,-473.295C347.036,-457.752 380.197,-429.139 380.197,-394.193 380.197,-394.193 380.197,-394.193 380.197,-110.798 380.197,-46.8814 289.31,-27.4543 236.344,-21.5596"/>
<polygon fill="black" stroke="black" points="236.594,-18.0672 226.295,-20.552 235.896,-25.0323 236.594,-18.0672"/>
<text text-anchor="middle" x="385.197" y="-245.396" font-family="Times New Roman,serif" font-size="14.00">C</text>
</g>
<!-- T4&#45;&gt;T1 -->
<g id="edge18" class="edge"><title>T4&#45;&gt;T1</title>
<path fill="none" stroke="black" d="M156.284,-136.095C167.508,-187.507 194.349,-310.443 206.292,-365.146"/>
<polygon fill="black" stroke="black" points="202.921,-366.113 208.473,-375.136 209.76,-364.619 202.921,-366.113"/>
<text text-anchor="middle" x="188.197" y="-245.396" font-family="Times New Roman,serif" font-size="14.00">A</text>
</g>
<!-- T4&#45;&gt;T2 -->
<g id="edge19" class="edge"><title>T4&#45;&gt;T2</title>
<path fill="none" stroke="black" d="M142.577,-135.409C137.656,-148.314 131.462,-164.56 126.313,-178.066"/>
<polygon fill="black" stroke="black" points="122.909,-177.168 122.617,-187.759 129.45,-179.662 122.909,-177.168"/>
<text text-anchor="middle" x="140.197" y="-158.396" font-family="Times New Roman,serif" font-size="14.00">B</text>
</g>
<!-- T4&#45;&gt;T3 -->
<g id="edge20" class="edge"><title>T4&#45;&gt;T3</title>
<path fill="none" stroke="black" d="M162.33,-89.5071C169.351,-76.0804 178.457,-58.6651 185.863,-44.5023"/>
<polygon fill="black" stroke="black" points="189.139,-45.7894 190.671,-35.3059 182.936,-42.5458 189.139,-45.7894"/>
<text text-anchor="middle" x="185.197" y="-57.8" font-family="Times New Roman,serif" font-size="14.00">D</text>
</g>
<!-- T4&#45;&gt;T3 -->
<g id="edge21" class="edge"><title>T4&#45;&gt;T3</title>
<path fill="none" stroke="black" d="M151.412,-86.9866C152.378,-76.3544 154.758,-63.9977 160.197,-54 163.393,-48.1263 167.969,-42.7403 172.868,-38.0461"/>
<polygon fill="black" stroke="black" points="175.421,-40.4646 180.683,-31.2683 170.835,-35.1765 175.421,-40.4646"/>
<text text-anchor="middle" x="165.197" y="-57.8" font-family="Times New Roman,serif" font-size="14.00">C</text>
</g>
<!-- T2&#45;&gt;T5 -->
<g id="edge13" class="edge"><title>T2&#45;&gt;T5</title>
<path fill="none" stroke="black" d="M107.028,-222.825C104.262,-228.57 101.59,-235.199 100.197,-241.596 98.5366,-249.224 98.5547,-257.52 99.3774,-265.355"/>
<polygon fill="black" stroke="black" points="95.9222,-265.915 100.849,-275.295 102.847,-264.89 95.9222,-265.915"/>
<text text-anchor="middle" x="105.197" y="-245.396" font-family="Times New Roman,serif" font-size="14.00">C</text>
</g>
<!-- T2&#45;&gt;T4 -->
<g id="edge12" class="edge"><title>T2&#45;&gt;T4</title>
<path fill="none" stroke="black" d="M113.828,-187.422C113.122,-177.53 113.372,-165.03 117.197,-154.596 119.437,-148.487 122.971,-142.612 126.929,-137.294"/>
<polygon fill="black" stroke="black" points="129.733,-139.394 133.373,-129.444 124.323,-134.952 129.733,-139.394"/>
<text text-anchor="middle" x="122.197" y="-158.396" font-family="Times New Roman,serif" font-size="14.00">D</text>
</g>
<!-- T2&#45;&gt;T3 -->
<g id="edge10" class="edge"><title>T2&#45;&gt;T3</title>
<path fill="none" stroke="black" d="M134.511,-192.089C150.724,-179.933 173.565,-159.926 185.197,-136.596 199.423,-108.066 201.552,-70.9563 201.019,-46.126"/>
<polygon fill="black" stroke="black" points="204.511,-45.8387 200.638,-35.977 197.516,-46.1012 204.511,-45.8387"/>
<text text-anchor="middle" x="204.197" y="-108.098" font-family="Times New Roman,serif" font-size="14.00">A</text>
</g>
<!-- T2&#45;&gt;T3 -->
<g id="edge11" class="edge"><title>T2&#45;&gt;T3</title>
<path fill="none" stroke="black" d="M109.796,-187.977C101.737,-164.214 90.8063,-119.782 107.197,-87 119.655,-62.0856 146.074,-44.0608 167.419,-32.8542"/>
<polygon fill="black" stroke="black" points="169.113,-35.921 176.5,-28.3268 165.989,-29.6564 169.113,-35.921"/>
<text text-anchor="middle" x="112.197" y="-108.098" font-family="Times New Roman,serif" font-size="14.00">B</text>
</g>
<!-- T3&#45;&gt;T3 -->
<g id="edge14" class="edge"><title>T3&#45;&gt;T3</title>
<path fill="none" stroke="black" d="M226.438,-19.9668C236.221,-20.0091 244.197,-19.3535 244.197,-18 244.197,-17.1752 241.236,-16.6096 236.708,-16.3031"/>
<polygon fill="black" stroke="black" points="236.527,-12.7972 226.438,-16.0332 236.343,-19.7948 236.527,-12.7972"/>
<text text-anchor="middle" x="249.197" y="-14.3" font-family="Times New Roman,serif" font-size="14.00">A</text>
</g>
<!-- T3&#45;&gt;T3 -->
<g id="edge15" class="edge"><title>T3&#45;&gt;T3</title>
<path fill="none" stroke="black" d="M225.739,-21.553C244.11,-22.6296 262.197,-21.4453 262.197,-18 262.197,-15.2007 250.257,-13.894 235.925,-14.0799"/>
<polygon fill="black" stroke="black" points="235.606,-10.589 225.739,-14.447 235.859,-17.5844 235.606,-10.589"/>
<text text-anchor="middle" x="267.197" y="-14.3" font-family="Times New Roman,serif" font-size="14.00">B</text>
</g>
<!-- T3&#45;&gt;T3 -->
<g id="edge16" class="edge"><title>T3&#45;&gt;T3</title>
<path fill="none" stroke="black" d="M225.328,-22.6514C251.384,-25.3029 280.197,-23.7524 280.197,-18 280.197,-12.9891 258.334,-11.1666 235.474,-12.5327"/>
<polygon fill="black" stroke="black" points="235.015,-9.05821 225.328,-13.3486 235.576,-16.0357 235.015,-9.05821"/>
<text text-anchor="middle" x="285.197" y="-14.3" font-family="Times New Roman,serif" font-size="14.00">D</text>
</g>
<!-- T3&#45;&gt;T3 -->
<g id="edge17" class="edge"><title>T3&#45;&gt;T3</title>
<path fill="none" stroke="black" d="M225.056,-23.452C258.316,-27.9795 298.197,-26.1621 298.197,-18 298.197,-10.6669 266.006,-8.45514 235.346,-11.3649"/>
<polygon fill="black" stroke="black" points="234.59,-7.92857 225.056,-12.548 235.39,-14.8828 234.59,-7.92857"/>
<text text-anchor="middle" x="303.197" y="-14.3" font-family="Times New Roman,serif" font-size="14.00">C</text>
</g>
</g>
</svg>
