<?xml version="1.0" encoding="UTF-8" standalone="no"?>
<!DOCTYPE svg PUBLIC "-//W3C//DTD SVG 1.1//EN"
 "http://www.w3.org/Graphics/SVG/1.1/DTD/svg11.dtd">
<!-- Generated by graphviz version 2.38.0 (20140413.2041)
 -->
<!-- Title: %3 Pages: 1 -->
<svg width="207pt" height="836pt"
 viewBox="0.00 0.00 207.00 835.70" xmlns="http://www.w3.org/2000/svg" xmlns:xlink="http://www.w3.org/1999/xlink">
<g id="graph0" class="graph" transform="scale(1 1) rotate(0) translate(4 831.696)">
<title>%3</title>
<polygon fill="white" stroke="none" points="-4,4 -4,-831.696 203,-831.696 203,4 -4,4"/>
<!-- fake0 -->
<g id="node1" class="node"><title>fake0</title>
</g>
<!-- T0 -->
<g id="node8" class="node"><title>T0</title>
<ellipse fill="none" stroke="black" cx="142" cy="-736.696" rx="27" ry="18"/>
<text text-anchor="middle" x="142" y="-732.996" font-family="Times New Roman,serif" font-size="14.00">T0</text>
</g>
<!-- fake0&#45;&gt;T0 -->
<g id="edge1" class="edge"><title>fake0&#45;&gt;T0</title>
<path fill="none" stroke="black" stroke-width="2" d="M142,-791.508C142,-783.485 142,-773.743 142,-764.765"/>
<polygon fill="black" stroke="black" stroke-width="2" points="145.5,-764.724 142,-754.724 138.5,-764.724 145.5,-764.724"/>
</g>
<!-- T11 -->
<g id="node2" class="node"><title>T11</title>
<ellipse fill="none" stroke="black" cx="85" cy="-127.696" rx="27" ry="18"/>
<text text-anchor="middle" x="85" y="-123.996" font-family="Times New Roman,serif" font-size="14.00">T11</text>
</g>
<!-- T1 -->
<g id="node5" class="node"><title>T1</title>
<ellipse fill="none" stroke="black" cx="87" cy="-649.696" rx="27" ry="18"/>
<text text-anchor="middle" x="87" y="-645.996" font-family="Times New Roman,serif" font-size="14.00">T1</text>
</g>
<!-- T11&#45;&gt;T1 -->
<g id="edge17" class="edge"><title>T11&#45;&gt;T1</title>
<path fill="none" stroke="black" d="M63.1104,-138.782C37.9255,-152.072 0,-178.009 0,-213.696 0,-563.696 0,-563.696 0,-563.696 0,-596.043 31.152,-620.114 56.174,-634.23"/>
<polygon fill="black" stroke="black" points="54.5778,-637.346 65.0462,-638.978 57.8804,-631.174 54.5778,-637.346"/>
<text text-anchor="middle" x="8.5" y="-384.996" font-family="Times New Roman,serif" font-size="14.00">EP</text>
</g>
<!-- T12 -->
<g id="node10" class="node"><title>T12</title>
<ellipse fill="none" stroke="black" cx="144" cy="-29.3478" rx="25.2169" ry="25.2169"/>
<ellipse fill="none" stroke="black" cx="144" cy="-29.3478" rx="29.1963" ry="29.1963"/>
<text text-anchor="middle" x="144" y="-25.6478" font-family="Times New Roman,serif" font-size="14.00">T12</text>
</g>
<!-- T11&#45;&gt;T12 -->
<g id="edge16" class="edge"><title>T11&#45;&gt;T12</title>
<path fill="none" stroke="black" d="M94.7427,-110.786C102.586,-97.9781 113.877,-79.5397 123.67,-63.5465"/>
<polygon fill="black" stroke="black" points="126.688,-65.3202 128.926,-54.9643 120.719,-61.6645 126.688,-65.3202"/>
<text text-anchor="middle" x="122.5" y="-80.4955" font-family="Times New Roman,serif" font-size="14.00">EP</text>
</g>
<!-- T10 -->
<g id="node3" class="node"><title>T10</title>
<ellipse fill="none" stroke="black" cx="127" cy="-214.696" rx="27" ry="18"/>
<text text-anchor="middle" x="127" y="-210.996" font-family="Times New Roman,serif" font-size="14.00">T10</text>
</g>
<!-- T10&#45;&gt;T11 -->
<g id="edge15" class="edge"><title>T10&#45;&gt;T11</title>
<path fill="none" stroke="black" d="M118.902,-197.307C112.859,-185.077 104.489,-168.138 97.5783,-154.152"/>
<polygon fill="black" stroke="black" points="100.641,-152.449 93.0732,-145.034 94.3653,-155.55 100.641,-152.449"/>
<text text-anchor="middle" x="116.5" y="-167.496" font-family="Times New Roman,serif" font-size="14.00">EP</text>
</g>
<!-- T7 -->
<g id="node4" class="node"><title>T7</title>
<ellipse fill="none" stroke="black" cx="55" cy="-301.696" rx="27" ry="18"/>
<text text-anchor="middle" x="55" y="-297.996" font-family="Times New Roman,serif" font-size="14.00">T7</text>
</g>
<!-- T8 -->
<g id="node9" class="node"><title>T8</title>
<ellipse fill="none" stroke="black" cx="55" cy="-214.696" rx="27" ry="18"/>
<text text-anchor="middle" x="55" y="-210.996" font-family="Times New Roman,serif" font-size="14.00">T8</text>
</g>
<!-- T7&#45;&gt;T8 -->
<g id="edge12" class="edge"><title>T7&#45;&gt;T8</title>
<path fill="none" stroke="black" d="M55,-283.494C55,-271.858 55,-256.243 55,-242.932"/>
<polygon fill="black" stroke="black" points="58.5001,-242.871 55,-232.871 51.5001,-242.871 58.5001,-242.871"/>
<text text-anchor="middle" x="60" y="-254.496" font-family="Times New Roman,serif" font-size="14.00">D</text>
</g>
<!-- T4 -->
<g id="node12" class="node"><title>T4</title>
<ellipse fill="none" stroke="black" cx="55" cy="-562.696" rx="27" ry="18"/>
<text text-anchor="middle" x="55" y="-558.996" font-family="Times New Roman,serif" font-size="14.00">T4</text>
</g>
<!-- T1&#45;&gt;T4 -->
<g id="edge4" class="edge"><title>T1&#45;&gt;T4</title>
<path fill="none" stroke="black" d="M80.6778,-631.902C76.1635,-619.911 70.0028,-603.547 64.8474,-589.853"/>
<polygon fill="black" stroke="black" points="68.108,-588.579 61.309,-580.454 61.5568,-591.046 68.108,-588.579"/>
<text text-anchor="middle" x="80.5" y="-602.496" font-family="Times New Roman,serif" font-size="14.00">EP</text>
</g>
<!-- T2 -->
<g id="node13" class="node"><title>T2</title>
<ellipse fill="none" stroke="black" cx="127" cy="-562.696" rx="27" ry="18"/>
<text text-anchor="middle" x="127" y="-558.996" font-family="Times New Roman,serif" font-size="14.00">T2</text>
</g>
<!-- T1&#45;&gt;T2 -->
<g id="edge5" class="edge"><title>T1&#45;&gt;T2</title>
<path fill="none" stroke="black" d="M94.7124,-632.307C100.467,-620.077 108.439,-603.138 115.021,-589.152"/>
<polygon fill="black" stroke="black" points="118.22,-590.573 119.311,-580.034 111.886,-587.592 118.22,-590.573"/>
<text text-anchor="middle" x="118.5" y="-602.496" font-family="Times New Roman,serif" font-size="14.00">EP</text>
</g>
<!-- T5 -->
<g id="node6" class="node"><title>T5</title>
<ellipse fill="none" stroke="black" cx="55" cy="-475.696" rx="27" ry="18"/>
<text text-anchor="middle" x="55" y="-471.996" font-family="Times New Roman,serif" font-size="14.00">T5</text>
</g>
<!-- T6 -->
<g id="node7" class="node"><title>T6</title>
<ellipse fill="none" stroke="black" cx="95" cy="-388.696" rx="27" ry="18"/>
<text text-anchor="middle" x="95" y="-384.996" font-family="Times New Roman,serif" font-size="14.00">T6</text>
</g>
<!-- T5&#45;&gt;T6 -->
<g id="edge9" class="edge"><title>T5&#45;&gt;T6</title>
<path fill="none" stroke="black" d="M62.7124,-458.307C68.4674,-446.077 76.4386,-429.138 83.0207,-415.152"/>
<polygon fill="black" stroke="black" points="86.2201,-416.573 87.3113,-406.034 79.8864,-413.592 86.2201,-416.573"/>
<text text-anchor="middle" x="86.5" y="-428.496" font-family="Times New Roman,serif" font-size="14.00">EP</text>
</g>
<!-- T6&#45;&gt;T7 -->
<g id="edge10" class="edge"><title>T6&#45;&gt;T7</title>
<path fill="none" stroke="black" d="M87.2876,-371.307C81.5326,-359.077 73.5614,-342.138 66.9793,-328.152"/>
<polygon fill="black" stroke="black" points="70.1136,-326.592 62.6887,-319.034 63.7799,-329.573 70.1136,-326.592"/>
<text text-anchor="middle" x="85.5" y="-341.496" font-family="Times New Roman,serif" font-size="14.00">EP</text>
</g>
<!-- T9 -->
<g id="node11" class="node"><title>T9</title>
<ellipse fill="none" stroke="black" cx="127" cy="-301.696" rx="27" ry="18"/>
<text text-anchor="middle" x="127" y="-297.996" font-family="Times New Roman,serif" font-size="14.00">T9</text>
</g>
<!-- T6&#45;&gt;T9 -->
<g id="edge11" class="edge"><title>T6&#45;&gt;T9</title>
<path fill="none" stroke="black" d="M101.322,-370.902C105.836,-358.911 111.997,-342.547 117.153,-328.853"/>
<polygon fill="black" stroke="black" points="120.443,-330.046 120.691,-319.454 113.892,-327.579 120.443,-330.046"/>
<text text-anchor="middle" x="121.5" y="-341.496" font-family="Times New Roman,serif" font-size="14.00">EP</text>
</g>
<!-- T0&#45;&gt;T1 -->
<g id="edge3" class="edge"><title>T0&#45;&gt;T1</title>
<path fill="none" stroke="black" d="M131.655,-719.708C123.512,-707.123 112.027,-689.374 102.745,-675.028"/>
<polygon fill="black" stroke="black" points="105.67,-673.106 97.2987,-666.612 99.7927,-676.909 105.67,-673.106"/>
<text text-anchor="middle" x="125.5" y="-689.496" font-family="Times New Roman,serif" font-size="14.00">EP</text>
</g>
<!-- T0&#45;&gt;T12 -->
<g id="edge2" class="edge"><title>T0&#45;&gt;T12</title>
<path fill="none" stroke="black" d="M154.219,-720.418C165.982,-704.137 182,-677.117 182,-650.696 182,-650.696 182,-650.696 182,-126.696 182,-104.646 173.281,-81.6139 164.196,-63.5993"/>
<polygon fill="black" stroke="black" points="167.236,-61.8603 159.456,-54.668 161.052,-65.1419 167.236,-61.8603"/>
<text text-anchor="middle" x="190.5" y="-384.996" font-family="Times New Roman,serif" font-size="14.00">EP</text>
</g>
<!-- T8&#45;&gt;T11 -->
<g id="edge13" class="edge"><title>T8&#45;&gt;T11</title>
<path fill="none" stroke="black" d="M60.927,-196.902C65.1181,-185.027 70.8229,-168.864 75.6271,-155.252"/>
<polygon fill="black" stroke="black" points="79.0575,-156.049 79.0853,-145.454 72.4565,-153.719 79.0575,-156.049"/>
<text text-anchor="middle" x="80.5" y="-167.496" font-family="Times New Roman,serif" font-size="14.00">EP</text>
</g>
<!-- T9&#45;&gt;T10 -->
<g id="edge14" class="edge"><title>T9&#45;&gt;T10</title>
<path fill="none" stroke="black" d="M127,-283.494C127,-271.858 127,-256.243 127,-242.932"/>
<polygon fill="black" stroke="black" points="130.5,-242.871 127,-232.871 123.5,-242.871 130.5,-242.871"/>
<text text-anchor="middle" x="132" y="-254.496" font-family="Times New Roman,serif" font-size="14.00">C</text>
</g>
<!-- T4&#45;&gt;T5 -->
<g id="edge8" class="edge"><title>T4&#45;&gt;T5</title>
<path fill="none" stroke="black" d="M55,-544.494C55,-532.858 55,-517.243 55,-503.932"/>
<polygon fill="black" stroke="black" points="58.5001,-503.871 55,-493.871 51.5001,-503.871 58.5001,-503.871"/>
<text text-anchor="middle" x="60" y="-515.496" font-family="Times New Roman,serif" font-size="14.00">B</text>
</g>
<!-- T3 -->
<g id="node14" class="node"><title>T3</title>
<ellipse fill="none" stroke="black" cx="127" cy="-475.696" rx="27" ry="18"/>
<text text-anchor="middle" x="127" y="-471.996" font-family="Times New Roman,serif" font-size="14.00">T3</text>
</g>
<!-- T2&#45;&gt;T3 -->
<g id="edge6" class="edge"><title>T2&#45;&gt;T3</title>
<path fill="none" stroke="black" d="M127,-544.494C127,-532.858 127,-517.243 127,-503.932"/>
<polygon fill="black" stroke="black" points="130.5,-503.871 127,-493.871 123.5,-503.871 130.5,-503.871"/>
<text text-anchor="middle" x="132" y="-515.496" font-family="Times New Roman,serif" font-size="14.00">A</text>
</g>
<!-- T3&#45;&gt;T6 -->
<g id="edge7" class="edge"><title>T3&#45;&gt;T6</title>
<path fill="none" stroke="black" d="M120.678,-457.902C116.164,-445.911 110.003,-429.547 104.847,-415.853"/>
<polygon fill="black" stroke="black" points="108.108,-414.579 101.309,-406.454 101.557,-417.046 108.108,-414.579"/>
<text text-anchor="middle" x="120.5" y="-428.496" font-family="Times New Roman,serif" font-size="14.00">EP</text>
</g>
</g>
</svg>
