<?xml version="1.0" encoding="UTF-8" standalone="no"?>
<!DOCTYPE svg PUBLIC "-//W3C//DTD SVG 1.1//EN"
 "http://www.w3.org/Graphics/SVG/1.1/DTD/svg11.dtd">
<!-- Generated by graphviz version 2.38.0 (20140413.2041)
 -->
<!-- Title: %3 Pages: 1 -->
<svg width="105pt" height="827pt"
 viewBox="0.00 0.00 104.55 826.60" xmlns="http://www.w3.org/2000/svg" xmlns:xlink="http://www.w3.org/1999/xlink">
<g id="graph0" class="graph" transform="scale(1 1) rotate(0) translate(4 822.596)">
<title>%3</title>
<polygon fill="white" stroke="none" points="-4,4 -4,-822.596 100.547,-822.596 100.547,4 -4,4"/>
<!-- fake0 -->
<g id="node1" class="node"><title>fake0</title>
</g>
<!-- T0 -->
<g id="node9" class="node"><title>T0</title>
<ellipse fill="none" stroke="black" cx="30.5473" cy="-727.596" rx="27" ry="18"/>
<text text-anchor="middle" x="30.5473" y="-723.896" font-family="Times New Roman,serif" font-size="14.00">T0</text>
</g>
<!-- fake0&#45;&gt;T0 -->
<g id="edge1" class="edge"><title>fake0&#45;&gt;T0</title>
<path fill="none" stroke="black" stroke-width="2" d="M30.5473,-782.409C30.5473,-774.386 30.5473,-764.644 30.5473,-755.665"/>
<polygon fill="black" stroke="black" stroke-width="2" points="34.0474,-755.625 30.5473,-745.625 27.0474,-755.625 34.0474,-755.625"/>
</g>
<!-- T8 -->
<g id="node2" class="node"><title>T8</title>
<ellipse fill="none" stroke="black" cx="36.5473" cy="-24.7982" rx="20.6302" ry="20.6302"/>
<ellipse fill="none" stroke="black" cx="36.5473" cy="-24.7982" rx="24.5979" ry="24.5979"/>
<text text-anchor="middle" x="36.5473" y="-21.0982" font-family="Times New Roman,serif" font-size="14.00">T8</text>
</g>
<!-- T7 -->
<g id="node3" class="node"><title>T7</title>
<ellipse fill="none" stroke="black" cx="69.5473" cy="-118.596" rx="27" ry="18"/>
<text text-anchor="middle" x="69.5473" y="-114.896" font-family="Times New Roman,serif" font-size="14.00">T7</text>
</g>
<!-- T7&#45;&gt;T8 -->
<g id="edge12" class="edge"><title>T7&#45;&gt;T8</title>
<path fill="none" stroke="black" d="M63.4946,-100.759C59.201,-88.8154 53.3041,-72.4116 48.1211,-57.9939"/>
<polygon fill="black" stroke="black" points="51.3521,-56.6352 44.6755,-48.4089 44.7648,-59.0033 51.3521,-56.6352"/>
<text text-anchor="middle" x="64.0473" y="-71.3963" font-family="Times New Roman,serif" font-size="14.00">EP</text>
</g>
<!-- T6 -->
<g id="node4" class="node"><title>T6</title>
<ellipse fill="none" stroke="black" cx="69.5473" cy="-205.596" rx="27" ry="18"/>
<text text-anchor="middle" x="69.5473" y="-201.896" font-family="Times New Roman,serif" font-size="14.00">T6</text>
</g>
<!-- T7&#45;&gt;T6 -->
<g id="edge11" class="edge"><title>T7&#45;&gt;T6</title>
<path fill="none" stroke="black" d="M71.3048,-136.667C71.8126,-142.363 72.2971,-148.747 72.5473,-154.596 72.8619,-161.951 72.6404,-169.91 72.2029,-177.268"/>
<polygon fill="black" stroke="black" points="68.6949,-177.248 71.4447,-187.479 75.6757,-177.766 68.6949,-177.248"/>
<text text-anchor="middle" x="81.0473" y="-158.396" font-family="Times New Roman,serif" font-size="14.00">EP</text>
</g>
<!-- T6&#45;&gt;T7 -->
<g id="edge10" class="edge"><title>T6&#45;&gt;T7</title>
<path fill="none" stroke="black" d="M65.4491,-187.608C64.2644,-181.918 63.1335,-175.516 62.5473,-169.596 61.8076,-162.126 62.3462,-154.059 63.3906,-146.629"/>
<polygon fill="black" stroke="black" points="66.8556,-147.132 65.1234,-136.68 59.9594,-145.931 66.8556,-147.132"/>
<text text-anchor="middle" x="67.5473" y="-158.396" font-family="Times New Roman,serif" font-size="14.00">B</text>
</g>
<!-- T3 -->
<g id="node5" class="node"><title>T3</title>
<ellipse fill="none" stroke="black" cx="30.5473" cy="-466.596" rx="27" ry="18"/>
<text text-anchor="middle" x="30.5473" y="-462.896" font-family="Times New Roman,serif" font-size="14.00">T3</text>
</g>
<!-- T4 -->
<g id="node7" class="node"><title>T4</title>
<ellipse fill="none" stroke="black" cx="30.5473" cy="-379.596" rx="27" ry="18"/>
<text text-anchor="middle" x="30.5473" y="-375.896" font-family="Times New Roman,serif" font-size="14.00">T4</text>
</g>
<!-- T3&#45;&gt;T4 -->
<g id="edge6" class="edge"><title>T3&#45;&gt;T4</title>
<path fill="none" stroke="black" d="M30.5473,-448.395C30.5473,-436.759 30.5473,-421.144 30.5473,-407.833"/>
<polygon fill="black" stroke="black" points="34.0474,-407.772 30.5473,-397.772 27.0474,-407.772 34.0474,-407.772"/>
<text text-anchor="middle" x="35.5473" y="-419.396" font-family="Times New Roman,serif" font-size="14.00">A</text>
</g>
<!-- T1 -->
<g id="node6" class="node"><title>T1</title>
<ellipse fill="none" stroke="black" cx="30.5473" cy="-640.596" rx="27" ry="18"/>
<text text-anchor="middle" x="30.5473" y="-636.896" font-family="Times New Roman,serif" font-size="14.00">T1</text>
</g>
<!-- T2 -->
<g id="node10" class="node"><title>T2</title>
<ellipse fill="none" stroke="black" cx="30.5473" cy="-553.596" rx="27" ry="18"/>
<text text-anchor="middle" x="30.5473" y="-549.896" font-family="Times New Roman,serif" font-size="14.00">T2</text>
</g>
<!-- T1&#45;&gt;T2 -->
<g id="edge3" class="edge"><title>T1&#45;&gt;T2</title>
<path fill="none" stroke="black" d="M21.9475,-623.309C19.3534,-617.559 16.8499,-610.943 15.5473,-604.596 13.8817,-596.482 15.3178,-587.787 17.8531,-579.962"/>
<polygon fill="black" stroke="black" points="21.1225,-581.211 21.5015,-570.623 14.6024,-578.664 21.1225,-581.211"/>
<text text-anchor="middle" x="20.5473" y="-593.396" font-family="Times New Roman,serif" font-size="14.00">A</text>
</g>
<!-- T5 -->
<g id="node8" class="node"><title>T5</title>
<ellipse fill="none" stroke="black" cx="30.5473" cy="-292.596" rx="27" ry="18"/>
<text text-anchor="middle" x="30.5473" y="-288.896" font-family="Times New Roman,serif" font-size="14.00">T5</text>
</g>
<!-- T4&#45;&gt;T5 -->
<g id="edge7" class="edge"><title>T4&#45;&gt;T5</title>
<path fill="none" stroke="black" d="M30.5473,-361.395C30.5473,-349.759 30.5473,-334.144 30.5473,-320.833"/>
<polygon fill="black" stroke="black" points="34.0474,-320.772 30.5473,-310.772 27.0474,-320.772 34.0474,-320.772"/>
<text text-anchor="middle" x="35.5473" y="-332.396" font-family="Times New Roman,serif" font-size="14.00">B</text>
</g>
<!-- T5&#45;&gt;T8 -->
<g id="edge9" class="edge"><title>T5&#45;&gt;T8</title>
<path fill="none" stroke="black" d="M30.6764,-274.472C30.9593,-241.041 31.7574,-164.743 33.5473,-100.596 33.9183,-87.3007 34.4721,-72.6811 35.0033,-59.9212"/>
<polygon fill="black" stroke="black" points="38.5094,-59.8505 35.4397,-49.7101 31.5158,-59.5515 38.5094,-59.8505"/>
<text text-anchor="middle" x="40.0473" y="-158.396" font-family="Times New Roman,serif" font-size="14.00">EP</text>
</g>
<!-- T5&#45;&gt;T6 -->
<g id="edge8" class="edge"><title>T5&#45;&gt;T6</title>
<path fill="none" stroke="black" d="M38.0669,-275.207C43.678,-262.978 51.45,-246.039 57.8675,-232.052"/>
<polygon fill="black" stroke="black" points="61.0616,-233.483 62.0508,-222.935 54.6994,-230.564 61.0616,-233.483"/>
<text text-anchor="middle" x="61.0473" y="-245.396" font-family="Times New Roman,serif" font-size="14.00">EP</text>
</g>
<!-- T0&#45;&gt;T1 -->
<g id="edge2" class="edge"><title>T0&#45;&gt;T1</title>
<path fill="none" stroke="black" d="M30.5473,-709.395C30.5473,-697.759 30.5473,-682.144 30.5473,-668.833"/>
<polygon fill="black" stroke="black" points="34.0474,-668.772 30.5473,-658.772 27.0474,-668.772 34.0474,-668.772"/>
<text text-anchor="middle" x="39.0473" y="-680.396" font-family="Times New Roman,serif" font-size="14.00">EP</text>
</g>
<!-- T2&#45;&gt;T3 -->
<g id="edge4" class="edge"><title>T2&#45;&gt;T3</title>
<path fill="none" stroke="black" d="M30.5473,-535.395C30.5473,-523.759 30.5473,-508.144 30.5473,-494.833"/>
<polygon fill="black" stroke="black" points="34.0474,-494.772 30.5473,-484.772 27.0474,-494.772 34.0474,-494.772"/>
<text text-anchor="middle" x="39.0473" y="-506.396" font-family="Times New Roman,serif" font-size="14.00">EP</text>
</g>
<!-- T2&#45;&gt;T1 -->
<g id="edge5" class="edge"><title>T2&#45;&gt;T1</title>
<path fill="none" stroke="black" d="M30.5473,-571.772C30.5473,-583.402 30.5473,-599.016 30.5473,-612.33"/>
<polygon fill="black" stroke="black" points="27.0474,-612.395 30.5473,-622.395 34.0474,-612.395 27.0474,-612.395"/>
<text text-anchor="middle" x="39.0473" y="-593.396" font-family="Times New Roman,serif" font-size="14.00">EP</text>
</g>
</g>
</svg>
