<?xml version="1.0" encoding="UTF-8" standalone="no"?>
<!DOCTYPE svg PUBLIC "-//W3C//DTD SVG 1.1//EN"
 "http://www.w3.org/Graphics/SVG/1.1/DTD/svg11.dtd">
<!-- Generated by graphviz version 2.38.0 (20140413.2041)
 -->
<!-- Title: %3 Pages: 1 -->
<svg width="224pt" height="579pt"
 viewBox="0.00 0.00 223.80 579.19" xmlns="http://www.w3.org/2000/svg" xmlns:xlink="http://www.w3.org/1999/xlink">
<g id="graph0" class="graph" transform="scale(1 1) rotate(0) translate(4 575.193)">
<title>%3</title>
<polygon fill="white" stroke="none" points="-4,4 -4,-575.193 219.798,-575.193 219.798,4 -4,4"/>
<!-- fake0 -->
<g id="node1" class="node"><title>fake0</title>
</g>
<!-- T0 -->
<g id="node6" class="node"><title>T0</title>
<ellipse fill="none" stroke="black" cx="175.798" cy="-480.193" rx="27" ry="18"/>
<text text-anchor="middle" x="175.798" y="-476.493" font-family="Times New Roman,serif" font-size="14.00">T0</text>
</g>
<!-- fake0&#45;&gt;T0 -->
<g id="edge1" class="edge"><title>fake0&#45;&gt;T0</title>
<path fill="none" stroke="black" stroke-width="2" d="M175.798,-535.005C175.798,-526.982 175.798,-517.24 175.798,-508.262"/>
<polygon fill="black" stroke="black" stroke-width="2" points="179.298,-508.221 175.798,-498.221 172.298,-508.221 179.298,-508.221"/>
</g>
<!-- T3 -->
<g id="node2" class="node"><title>T3</title>
<ellipse fill="none" stroke="black" cx="68.7982" cy="-306.193" rx="27" ry="18"/>
<text text-anchor="middle" x="68.7982" y="-302.493" font-family="Times New Roman,serif" font-size="14.00">T3</text>
</g>
<!-- T3&#45;&gt;T3 -->
<g id="edge8" class="edge"><title>T3&#45;&gt;T3</title>
<path fill="none" stroke="black" d="M93.3306,-313.945C104.306,-314.683 113.798,-312.099 113.798,-306.193 113.798,-302.224 109.513,-299.756 103.372,-298.787"/>
<polygon fill="black" stroke="black" points="103.445,-295.288 93.3306,-298.441 103.204,-302.283 103.445,-295.288"/>
<text text-anchor="middle" x="118.798" y="-302.493" font-family="Times New Roman,serif" font-size="14.00">A</text>
</g>
<!-- T4 -->
<g id="node4" class="node"><title>T4</title>
<ellipse fill="none" stroke="black" cx="68.7982" cy="-212.394" rx="20.6302" ry="20.6302"/>
<ellipse fill="none" stroke="black" cx="68.7982" cy="-212.394" rx="24.5979" ry="24.5979"/>
<text text-anchor="middle" x="68.7982" y="-208.694" font-family="Times New Roman,serif" font-size="14.00">T4</text>
</g>
<!-- T3&#45;&gt;T4 -->
<g id="edge9" class="edge"><title>T3&#45;&gt;T4</title>
<path fill="none" stroke="black" d="M68.7982,-287.926C68.7982,-276.586 68.7982,-261.363 68.7982,-247.632"/>
<polygon fill="black" stroke="black" points="72.2983,-247.511 68.7982,-237.511 65.2983,-247.512 72.2983,-247.511"/>
<text text-anchor="middle" x="73.7982" y="-258.993" font-family="Times New Roman,serif" font-size="14.00">B</text>
</g>
<!-- T1 -->
<g id="node3" class="node"><title>T1</title>
<ellipse fill="none" stroke="black" cx="134.798" cy="-393.193" rx="27" ry="18"/>
<text text-anchor="middle" x="134.798" y="-389.493" font-family="Times New Roman,serif" font-size="14.00">T1</text>
</g>
<!-- T1&#45;&gt;T3 -->
<g id="edge4" class="edge"><title>T1&#45;&gt;T3</title>
<path fill="none" stroke="black" d="M122.999,-376.996C113.018,-364.143 98.5515,-345.511 87.0739,-330.73"/>
<polygon fill="black" stroke="black" points="89.6155,-328.296 80.718,-322.544 84.0865,-332.589 89.6155,-328.296"/>
<text text-anchor="middle" x="110.798" y="-345.993" font-family="Times New Roman,serif" font-size="14.00">A</text>
</g>
<!-- T2 -->
<g id="node7" class="node"><title>T2</title>
<ellipse fill="none" stroke="black" cx="132.798" cy="-18" rx="27" ry="18"/>
<text text-anchor="middle" x="132.798" y="-14.3" font-family="Times New Roman,serif" font-size="14.00">T2</text>
</g>
<!-- T1&#45;&gt;T2 -->
<g id="edge5" class="edge"><title>T1&#45;&gt;T2</title>
<path fill="none" stroke="black" d="M140.177,-375.456C145.158,-358.455 151.798,-331.271 151.798,-307.193 151.798,-307.193 151.798,-307.193 151.798,-110.798 151.798,-88.3819 146.298,-63.5138 141.217,-45.321"/>
<polygon fill="black" stroke="black" points="144.569,-44.3152 138.396,-35.7045 137.852,-46.2854 144.569,-44.3152"/>
<text text-anchor="middle" x="156.798" y="-208.694" font-family="Times New Roman,serif" font-size="14.00">B</text>
</g>
<!-- T5 -->
<g id="node5" class="node"><title>T5</title>
<ellipse fill="none" stroke="black" cx="24.7982" cy="-111.798" rx="20.6302" ry="20.6302"/>
<ellipse fill="none" stroke="black" cx="24.7982" cy="-111.798" rx="24.5979" ry="24.5979"/>
<text text-anchor="middle" x="24.7982" y="-108.098" font-family="Times New Roman,serif" font-size="14.00">T5</text>
</g>
<!-- T4&#45;&gt;T5 -->
<g id="edge11" class="edge"><title>T4&#45;&gt;T5</title>
<path fill="none" stroke="black" d="M59.0331,-189.513C53.0518,-176.11 45.3012,-158.742 38.6877,-143.922"/>
<polygon fill="black" stroke="black" points="41.8074,-142.324 34.5359,-134.619 35.415,-145.177 41.8074,-142.324"/>
<text text-anchor="middle" x="54.7982" y="-158.396" font-family="Times New Roman,serif" font-size="14.00">B</text>
</g>
<!-- T4&#45;&gt;T2 -->
<g id="edge10" class="edge"><title>T4&#45;&gt;T2</title>
<path fill="none" stroke="black" d="M76.3911,-188.569C88.3158,-152.721 111.373,-83.4062 124.002,-45.4421"/>
<polygon fill="black" stroke="black" points="127.434,-46.2131 127.27,-35.6195 120.792,-44.0035 127.434,-46.2131"/>
<text text-anchor="middle" x="114.798" y="-108.098" font-family="Times New Roman,serif" font-size="14.00">A</text>
</g>
<!-- T5&#45;&gt;T5 -->
<g id="edge13" class="edge"><title>T5&#45;&gt;T5</title>
<path fill="none" stroke="black" d="M48.1303,-121.027C58.5686,-121.906 67.5963,-118.829 67.5963,-111.798 67.5963,-107.294 63.8913,-104.413 58.484,-103.154"/>
<polygon fill="black" stroke="black" points="58.3118,-99.6392 48.1303,-102.57 57.9169,-106.628 58.3118,-99.6392"/>
<text text-anchor="middle" x="72.5963" y="-108.098" font-family="Times New Roman,serif" font-size="14.00">B</text>
</g>
<!-- T5&#45;&gt;T2 -->
<g id="edge12" class="edge"><title>T5&#45;&gt;T2</title>
<path fill="none" stroke="black" d="M42.8626,-94.713C55.8244,-83.2454 73.7606,-67.5268 89.7982,-54 95.6661,-49.0507 102.051,-43.7885 108.061,-38.8885"/>
<polygon fill="black" stroke="black" points="110.381,-41.5134 115.941,-32.4947 105.971,-36.0776 110.381,-41.5134"/>
<text text-anchor="middle" x="94.7982" y="-57.8" font-family="Times New Roman,serif" font-size="14.00">A</text>
</g>
<!-- T0&#45;&gt;T1 -->
<g id="edge2" class="edge"><title>T0&#45;&gt;T1</title>
<path fill="none" stroke="black" d="M167.893,-462.804C161.994,-450.574 153.824,-433.636 147.077,-419.649"/>
<polygon fill="black" stroke="black" points="150.176,-418.018 142.679,-410.531 143.871,-421.059 150.176,-418.018"/>
<text text-anchor="middle" x="162.798" y="-432.993" font-family="Times New Roman,serif" font-size="14.00">A</text>
</g>
<!-- T0&#45;&gt;T2 -->
<g id="edge3" class="edge"><title>T0&#45;&gt;T2</title>
<path fill="none" stroke="black" d="M180.228,-462.393C184.329,-445.343 189.798,-418.122 189.798,-394.193 189.798,-394.193 189.798,-394.193 189.798,-110.798 189.798,-83.4678 171.338,-57.5142 155.428,-40.2216"/>
<polygon fill="black" stroke="black" points="157.837,-37.6769 148.374,-32.912 152.8,-42.5381 157.837,-37.6769"/>
<text text-anchor="middle" x="194.798" y="-258.993" font-family="Times New Roman,serif" font-size="14.00">B</text>
</g>
<!-- T2&#45;&gt;T2 -->
<g id="edge6" class="edge"><title>T2&#45;&gt;T2</title>
<path fill="none" stroke="black" d="M159.593,-21.9288C169.579,-22.0577 177.798,-20.748 177.798,-18 177.798,-16.2825 174.587,-15.1268 169.741,-14.5331"/>
<polygon fill="black" stroke="black" points="169.742,-11.0296 159.593,-14.0712 169.423,-18.0223 169.742,-11.0296"/>
<text text-anchor="middle" x="182.798" y="-14.3" font-family="Times New Roman,serif" font-size="14.00">A</text>
</g>
<!-- T2&#45;&gt;T2 -->
<g id="edge7" class="edge"><title>T2&#45;&gt;T2</title>
<path fill="none" stroke="black" d="M158.027,-24.9445C176.839,-27.3695 195.798,-25.0547 195.798,-18 195.798,-12.213 183.04,-9.61542 168.071,-10.2074"/>
<polygon fill="black" stroke="black" points="167.697,-6.72644 158.027,-11.0555 168.286,-13.7016 167.697,-6.72644"/>
<text text-anchor="middle" x="200.798" y="-14.3" font-family="Times New Roman,serif" font-size="14.00">B</text>
</g>
</g>
</svg>
