<?xml version="1.0" encoding="UTF-8" standalone="no"?>
<!DOCTYPE svg PUBLIC "-//W3C//DTD SVG 1.1//EN"
 "http://www.w3.org/Graphics/SVG/1.1/DTD/svg11.dtd">
<!-- Generated by graphviz version 2.38.0 (20140413.2041)
 -->
<!-- Title: %3 Pages: 1 -->
<svg width="230pt" height="674pt"
 viewBox="0.00 0.00 230.00 673.60" xmlns="http://www.w3.org/2000/svg" xmlns:xlink="http://www.w3.org/1999/xlink">
<g id="graph0" class="graph" transform="scale(1 1) rotate(0) translate(4 669.596)">
<title>%3</title>
<polygon fill="white" stroke="none" points="-4,4 -4,-669.596 226,-669.596 226,4 -4,4"/>
<!-- fake0 -->
<g id="node1" class="node"><title>fake0</title>
</g>
<!-- T0 -->
<g id="node7" class="node"><title>T0</title>
<ellipse fill="none" stroke="black" cx="174" cy="-574.596" rx="27" ry="18"/>
<text text-anchor="middle" x="174" y="-570.896" font-family="Times New Roman,serif" font-size="14.00">T0</text>
</g>
<!-- fake0&#45;&gt;T0 -->
<g id="edge1" class="edge"><title>fake0&#45;&gt;T0</title>
<path fill="none" stroke="black" stroke-width="2" d="M174,-629.409C174,-621.386 174,-611.644 174,-602.665"/>
<polygon fill="black" stroke="black" stroke-width="2" points="177.5,-602.625 174,-592.625 170.5,-602.625 177.5,-602.625"/>
</g>
<!-- T1 -->
<g id="node2" class="node"><title>T1</title>
<ellipse fill="none" stroke="black" cx="127" cy="-487.596" rx="27" ry="18"/>
<text text-anchor="middle" x="127" y="-483.896" font-family="Times New Roman,serif" font-size="14.00">T1</text>
</g>
<!-- T5 -->
<g id="node3" class="node"><title>T5</title>
<ellipse fill="none" stroke="black" cx="27" cy="-400.596" rx="27" ry="18"/>
<text text-anchor="middle" x="27" y="-396.896" font-family="Times New Roman,serif" font-size="14.00">T5</text>
</g>
<!-- T1&#45;&gt;T5 -->
<g id="edge5" class="edge"><title>T1&#45;&gt;T5</title>
<path fill="none" stroke="black" d="M110.933,-472.94C94.6777,-459.122 69.3619,-437.604 50.7817,-421.811"/>
<polygon fill="black" stroke="black" points="52.9131,-419.029 43.0269,-415.219 48.3795,-424.362 52.9131,-419.029"/>
<text text-anchor="middle" x="91" y="-440.396" font-family="Times New Roman,serif" font-size="14.00">Ep</text>
</g>
<!-- T2 -->
<g id="node6" class="node"><title>T2</title>
<ellipse fill="none" stroke="black" cx="99" cy="-400.596" rx="27" ry="18"/>
<text text-anchor="middle" x="99" y="-396.896" font-family="Times New Roman,serif" font-size="14.00">T2</text>
</g>
<!-- T1&#45;&gt;T2 -->
<g id="edge4" class="edge"><title>T1&#45;&gt;T2</title>
<path fill="none" stroke="black" d="M121.468,-469.803C117.556,-457.928 112.232,-441.765 107.748,-428.153"/>
<polygon fill="black" stroke="black" points="110.973,-426.758 104.52,-418.355 104.325,-428.948 110.973,-426.758"/>
<text text-anchor="middle" x="122" y="-440.396" font-family="Times New Roman,serif" font-size="14.00">Ep</text>
</g>
<!-- T6 -->
<g id="node8" class="node"><title>T6</title>
<ellipse fill="none" stroke="black" cx="33" cy="-259.596" rx="27" ry="18"/>
<text text-anchor="middle" x="33" y="-255.896" font-family="Times New Roman,serif" font-size="14.00">T6</text>
</g>
<!-- T5&#45;&gt;T6 -->
<g id="edge9" class="edge"><title>T5&#45;&gt;T6</title>
<path fill="none" stroke="black" d="M27.7357,-382.552C28.7523,-359.001 30.5983,-316.235 31.8118,-288.122"/>
<polygon fill="black" stroke="black" points="35.3237,-287.922 32.2583,-277.78 28.3302,-287.62 35.3237,-287.922"/>
<text text-anchor="middle" x="33.5" y="-353.396" font-family="Times New Roman,serif" font-size="14.00">a</text>
</g>
<!-- T8 -->
<g id="node4" class="node"><title>T8</title>
<ellipse fill="none" stroke="black" cx="174" cy="-24.7982" rx="20.6302" ry="20.6302"/>
<ellipse fill="none" stroke="black" cx="174" cy="-24.7982" rx="24.5979" ry="24.5979"/>
<text text-anchor="middle" x="174" y="-21.0982" font-family="Times New Roman,serif" font-size="14.00">T8</text>
</g>
<!-- T4 -->
<g id="node5" class="node"><title>T4</title>
<ellipse fill="none" stroke="black" cx="98" cy="-205.596" rx="27" ry="18"/>
<text text-anchor="middle" x="98" y="-201.896" font-family="Times New Roman,serif" font-size="14.00">T4</text>
</g>
<!-- T7 -->
<g id="node10" class="node"><title>T7</title>
<ellipse fill="none" stroke="black" cx="127" cy="-118.596" rx="27" ry="18"/>
<text text-anchor="middle" x="127" y="-114.896" font-family="Times New Roman,serif" font-size="14.00">T7</text>
</g>
<!-- T4&#45;&gt;T7 -->
<g id="edge8" class="edge"><title>T4&#45;&gt;T7</title>
<path fill="none" stroke="black" d="M103.729,-187.803C107.781,-175.928 113.295,-159.765 117.939,-146.153"/>
<polygon fill="black" stroke="black" points="121.366,-146.949 121.282,-136.355 114.741,-144.689 121.366,-146.949"/>
<text text-anchor="middle" x="123" y="-158.396" font-family="Times New Roman,serif" font-size="14.00">Ep</text>
</g>
<!-- T3 -->
<g id="node9" class="node"><title>T3</title>
<ellipse fill="none" stroke="black" cx="91" cy="-313.596" rx="27" ry="18"/>
<text text-anchor="middle" x="91" y="-309.896" font-family="Times New Roman,serif" font-size="14.00">T3</text>
</g>
<!-- T2&#45;&gt;T3 -->
<g id="edge6" class="edge"><title>T2&#45;&gt;T3</title>
<path fill="none" stroke="black" d="M97.3811,-382.395C96.2859,-370.759 94.8163,-355.144 93.5635,-341.833"/>
<polygon fill="black" stroke="black" points="97.0382,-341.4 92.6165,-331.772 90.069,-342.056 97.0382,-341.4"/>
<text text-anchor="middle" x="98.5" y="-353.396" font-family="Times New Roman,serif" font-size="14.00">a</text>
</g>
<!-- T0&#45;&gt;T1 -->
<g id="edge2" class="edge"><title>T0&#45;&gt;T1</title>
<path fill="none" stroke="black" d="M164.938,-557.207C158.132,-544.9 148.689,-527.822 140.927,-513.784"/>
<polygon fill="black" stroke="black" points="143.777,-511.704 135.875,-504.647 137.651,-515.092 143.777,-511.704"/>
<text text-anchor="middle" x="161" y="-527.396" font-family="Times New Roman,serif" font-size="14.00">Ep</text>
</g>
<!-- T0&#45;&gt;T8 -->
<g id="edge3" class="edge"><title>T0&#45;&gt;T8</title>
<path fill="none" stroke="black" d="M183.95,-557.656C193.343,-541.057 206,-513.983 206,-488.596 206,-488.596 206,-488.596 206,-117.596 206,-96.2354 198.179,-73.5586 190.27,-56.0879"/>
<polygon fill="black" stroke="black" points="193.38,-54.4783 185.916,-46.959 187.061,-57.4917 193.38,-54.4783"/>
<text text-anchor="middle" x="214" y="-309.896" font-family="Times New Roman,serif" font-size="14.00">Ep</text>
</g>
<!-- T6&#45;&gt;T7 -->
<g id="edge10" class="edge"><title>T6&#45;&gt;T7</title>
<path fill="none" stroke="black" d="M32.9389,-241.413C33.6002,-226.294 36.3611,-204.17 46,-187.596 58.4196,-166.241 80.1588,-148.55 97.9907,-136.57"/>
<polygon fill="black" stroke="black" points="100.379,-139.195 106.889,-130.837 96.5874,-133.311 100.379,-139.195"/>
<text text-anchor="middle" x="54" y="-201.896" font-family="Times New Roman,serif" font-size="14.00">Ep</text>
</g>
<!-- T3&#45;&gt;T4 -->
<g id="edge7" class="edge"><title>T3&#45;&gt;T4</title>
<path fill="none" stroke="black" d="M92.1247,-295.566C93.2268,-278.876 94.924,-253.175 96.2114,-233.68"/>
<polygon fill="black" stroke="black" points="99.7115,-233.794 96.8781,-223.585 92.7267,-233.332 99.7115,-233.794"/>
<text text-anchor="middle" x="99" y="-255.896" font-family="Times New Roman,serif" font-size="14.00">b</text>
</g>
<!-- T7&#45;&gt;T1 -->
<g id="edge11" class="edge"><title>T7&#45;&gt;T1</title>
<path fill="none" stroke="black" d="M135.395,-135.726C143.321,-152.475 154,-179.668 154,-204.596 154,-401.596 154,-401.596 154,-401.596 154,-422.24 146.676,-444.437 139.658,-460.969"/>
<polygon fill="black" stroke="black" points="136.297,-459.91 135.395,-470.466 142.683,-462.776 136.297,-459.91"/>
<text text-anchor="middle" x="162" y="-309.896" font-family="Times New Roman,serif" font-size="14.00">Ep</text>
</g>
<!-- T7&#45;&gt;T8 -->
<g id="edge12" class="edge"><title>T7&#45;&gt;T8</title>
<path fill="none" stroke="black" d="M135.403,-101.185C141.787,-88.7141 150.751,-71.2074 158.433,-56.2033"/>
<polygon fill="black" stroke="black" points="161.574,-57.7482 163.016,-47.2519 155.343,-54.558 161.574,-57.7482"/>
<text text-anchor="middle" x="159" y="-71.3963" font-family="Times New Roman,serif" font-size="14.00">Ep</text>
</g>
</g>
</svg>
