<?xml version="1.0" encoding="UTF-8" standalone="no"?>
<!DOCTYPE svg PUBLIC "-//W3C//DTD SVG 1.1//EN"
 "http://www.w3.org/Graphics/SVG/1.1/DTD/svg11.dtd">
<!-- Generated by graphviz version 2.38.0 (20140413.2041)
 -->
<!-- Title: %3 Pages: 1 -->
<svg width="211pt" height="836pt"
 viewBox="0.00 0.00 210.55 835.70" xmlns="http://www.w3.org/2000/svg" xmlns:xlink="http://www.w3.org/1999/xlink">
<g id="graph0" class="graph" transform="scale(1 1) rotate(0) translate(4 831.696)">
<title>%3</title>
<polygon fill="white" stroke="none" points="-4,4 -4,-831.696 206.547,-831.696 206.547,4 -4,4"/>
<!-- fake0 -->
<g id="node1" class="node"><title>fake0</title>
</g>
<!-- T0 -->
<g id="node5" class="node"><title>T0</title>
<ellipse fill="none" stroke="black" cx="30.5473" cy="-736.696" rx="27" ry="18"/>
<text text-anchor="middle" x="30.5473" y="-732.996" font-family="Times New Roman,serif" font-size="14.00">T0</text>
</g>
<!-- fake0&#45;&gt;T0 -->
<g id="edge1" class="edge"><title>fake0&#45;&gt;T0</title>
<path fill="none" stroke="black" stroke-width="2" d="M30.5473,-791.508C30.5473,-783.485 30.5473,-773.743 30.5473,-764.765"/>
<polygon fill="black" stroke="black" stroke-width="2" points="34.0474,-764.724 30.5473,-754.724 27.0474,-764.724 34.0474,-764.724"/>
</g>
<!-- T5 -->
<g id="node2" class="node"><title>T5</title>
<ellipse fill="none" stroke="black" cx="103.547" cy="-475.696" rx="27" ry="18"/>
<text text-anchor="middle" x="103.547" y="-471.996" font-family="Times New Roman,serif" font-size="14.00">T5</text>
</g>
<!-- T6 -->
<g id="node3" class="node"><title>T6</title>
<ellipse fill="none" stroke="black" cx="77.5473" cy="-388.696" rx="27" ry="18"/>
<text text-anchor="middle" x="77.5473" y="-384.996" font-family="Times New Roman,serif" font-size="14.00">T6</text>
</g>
<!-- T5&#45;&gt;T6 -->
<g id="edge9" class="edge"><title>T5&#45;&gt;T6</title>
<path fill="none" stroke="black" d="M98.4105,-457.902C94.7782,-446.027 89.8341,-429.864 85.6705,-416.252"/>
<polygon fill="black" stroke="black" points="88.9454,-414.993 82.6734,-406.454 82.2516,-417.04 88.9454,-414.993"/>
<text text-anchor="middle" x="100.047" y="-428.496" font-family="Times New Roman,serif" font-size="14.00">EP</text>
</g>
<!-- T7 -->
<g id="node7" class="node"><title>T7</title>
<ellipse fill="none" stroke="black" cx="33.5473" cy="-301.696" rx="27" ry="18"/>
<text text-anchor="middle" x="33.5473" y="-297.996" font-family="Times New Roman,serif" font-size="14.00">T7</text>
</g>
<!-- T6&#45;&gt;T7 -->
<g id="edge11" class="edge"><title>T6&#45;&gt;T7</title>
<path fill="none" stroke="black" d="M69.0636,-371.307C62.7331,-359.077 53.9648,-342.138 46.7245,-328.152"/>
<polygon fill="black" stroke="black" points="49.7103,-326.306 42.0049,-319.034 43.4938,-329.524 49.7103,-326.306"/>
<text text-anchor="middle" x="66.0473" y="-341.496" font-family="Times New Roman,serif" font-size="14.00">EP</text>
</g>
<!-- T1 -->
<g id="node8" class="node"><title>T1</title>
<ellipse fill="none" stroke="black" cx="72.5473" cy="-649.696" rx="27" ry="18"/>
<text text-anchor="middle" x="72.5473" y="-645.996" font-family="Times New Roman,serif" font-size="14.00">T1</text>
</g>
<!-- T6&#45;&gt;T1 -->
<g id="edge10" class="edge"><title>T6&#45;&gt;T1</title>
<path fill="none" stroke="black" d="M74.3482,-406.666C71.9341,-420.377 68.8267,-440.201 67.5473,-457.696 63.2861,-515.959 67.2543,-584.453 70.1457,-621.527"/>
<polygon fill="black" stroke="black" points="66.6615,-621.865 70.9616,-631.548 73.6384,-621.297 66.6615,-621.865"/>
<text text-anchor="middle" x="74.0473" y="-515.496" font-family="Times New Roman,serif" font-size="14.00">EP</text>
</g>
<!-- T9 -->
<g id="node4" class="node"><title>T9</title>
<ellipse fill="none" stroke="black" cx="33.5473" cy="-127.696" rx="27" ry="18"/>
<text text-anchor="middle" x="33.5473" y="-123.996" font-family="Times New Roman,serif" font-size="14.00">T9</text>
</g>
<!-- T10 -->
<g id="node11" class="node"><title>T10</title>
<ellipse fill="none" stroke="black" cx="33.5473" cy="-29.3478" rx="25.2169" ry="25.2169"/>
<ellipse fill="none" stroke="black" cx="33.5473" cy="-29.3478" rx="29.1963" ry="29.1963"/>
<text text-anchor="middle" x="33.5473" y="-25.6478" font-family="Times New Roman,serif" font-size="14.00">T10</text>
</g>
<!-- T9&#45;&gt;T10 -->
<g id="edge14" class="edge"><title>T9&#45;&gt;T10</title>
<path fill="none" stroke="black" d="M33.5473,-109.47C33.5473,-98.256 33.5473,-83.1612 33.5473,-69.1629"/>
<polygon fill="black" stroke="black" points="37.0474,-68.7544 33.5473,-58.7545 30.0474,-68.7545 37.0474,-68.7544"/>
<text text-anchor="middle" x="38.5473" y="-80.4955" font-family="Times New Roman,serif" font-size="14.00">B</text>
</g>
<!-- T0&#45;&gt;T7 -->
<g id="edge3" class="edge"><title>T0&#45;&gt;T7</title>
<path fill="none" stroke="black" d="M23.5864,-719.09C17.141,-702.19 8.54729,-675.085 8.54729,-650.696 8.54729,-650.696 8.54729,-650.696 8.54729,-387.696 8.54729,-367.314 15.2445,-345.26 21.7062,-328.725"/>
<polygon fill="black" stroke="black" points="25.0548,-329.786 25.6371,-319.207 18.5849,-327.114 25.0548,-329.786"/>
<text text-anchor="middle" x="17.0473" y="-515.496" font-family="Times New Roman,serif" font-size="14.00">EP</text>
</g>
<!-- T0&#45;&gt;T1 -->
<g id="edge2" class="edge"><title>T0&#45;&gt;T1</title>
<path fill="none" stroke="black" d="M38.6453,-719.307C44.6881,-707.077 53.0579,-690.138 59.969,-676.152"/>
<polygon fill="black" stroke="black" points="63.182,-677.55 64.4741,-667.034 56.9063,-674.449 63.182,-677.55"/>
<text text-anchor="middle" x="63.0473" y="-689.496" font-family="Times New Roman,serif" font-size="14.00">EP</text>
</g>
<!-- T4 -->
<g id="node6" class="node"><title>T4</title>
<ellipse fill="none" stroke="black" cx="103.547" cy="-562.696" rx="27" ry="18"/>
<text text-anchor="middle" x="103.547" y="-558.996" font-family="Times New Roman,serif" font-size="14.00">T4</text>
</g>
<!-- T4&#45;&gt;T5 -->
<g id="edge8" class="edge"><title>T4&#45;&gt;T5</title>
<path fill="none" stroke="black" d="M103.547,-544.494C103.547,-532.858 103.547,-517.243 103.547,-503.932"/>
<polygon fill="black" stroke="black" points="107.047,-503.871 103.547,-493.871 100.047,-503.871 107.047,-503.871"/>
<text text-anchor="middle" x="108.547" y="-515.496" font-family="Times New Roman,serif" font-size="14.00">B</text>
</g>
<!-- T8 -->
<g id="node10" class="node"><title>T8</title>
<ellipse fill="none" stroke="black" cx="33.5473" cy="-214.696" rx="27" ry="18"/>
<text text-anchor="middle" x="33.5473" y="-210.996" font-family="Times New Roman,serif" font-size="14.00">T8</text>
</g>
<!-- T7&#45;&gt;T8 -->
<g id="edge12" class="edge"><title>T7&#45;&gt;T8</title>
<path fill="none" stroke="black" d="M33.5473,-283.494C33.5473,-271.858 33.5473,-256.243 33.5473,-242.932"/>
<polygon fill="black" stroke="black" points="37.0474,-242.871 33.5473,-232.871 30.0474,-242.871 37.0474,-242.871"/>
<text text-anchor="middle" x="38.5473" y="-254.496" font-family="Times New Roman,serif" font-size="14.00">A</text>
</g>
<!-- T1&#45;&gt;T4 -->
<g id="edge4" class="edge"><title>T1&#45;&gt;T4</title>
<path fill="none" stroke="black" d="M78.6719,-631.902C83.0451,-619.911 89.0134,-603.547 94.0077,-589.853"/>
<polygon fill="black" stroke="black" points="97.2972,-591.048 97.4354,-580.454 90.7209,-588.649 97.2972,-591.048"/>
<text text-anchor="middle" x="99.0473" y="-602.496" font-family="Times New Roman,serif" font-size="14.00">EP</text>
</g>
<!-- T2 -->
<g id="node12" class="node"><title>T2</title>
<ellipse fill="none" stroke="black" cx="175.547" cy="-562.696" rx="27" ry="18"/>
<text text-anchor="middle" x="175.547" y="-558.996" font-family="Times New Roman,serif" font-size="14.00">T2</text>
</g>
<!-- T1&#45;&gt;T2 -->
<g id="edge5" class="edge"><title>T1&#45;&gt;T2</title>
<path fill="none" stroke="black" d="M89.096,-635.039C105.914,-621.16 132.149,-599.51 151.309,-583.698"/>
<polygon fill="black" stroke="black" points="153.555,-586.383 159.04,-577.318 149.099,-580.984 153.555,-586.383"/>
<text text-anchor="middle" x="141.047" y="-602.496" font-family="Times New Roman,serif" font-size="14.00">EP</text>
</g>
<!-- T3 -->
<g id="node9" class="node"><title>T3</title>
<ellipse fill="none" stroke="black" cx="175.547" cy="-475.696" rx="27" ry="18"/>
<text text-anchor="middle" x="175.547" y="-471.996" font-family="Times New Roman,serif" font-size="14.00">T3</text>
</g>
<!-- T3&#45;&gt;T6 -->
<g id="edge7" class="edge"><title>T3&#45;&gt;T6</title>
<path fill="none" stroke="black" d="M159.802,-461.039C144.037,-447.365 119.576,-426.149 101.422,-410.403"/>
<polygon fill="black" stroke="black" points="103.427,-407.509 93.5792,-403.601 98.8403,-412.797 103.427,-407.509"/>
<text text-anchor="middle" x="140.047" y="-428.496" font-family="Times New Roman,serif" font-size="14.00">EP</text>
</g>
<!-- T8&#45;&gt;T9 -->
<g id="edge13" class="edge"><title>T8&#45;&gt;T9</title>
<path fill="none" stroke="black" d="M33.5473,-196.494C33.5473,-184.858 33.5473,-169.243 33.5473,-155.932"/>
<polygon fill="black" stroke="black" points="37.0474,-155.871 33.5473,-145.871 30.0474,-155.871 37.0474,-155.871"/>
<text text-anchor="middle" x="38.5473" y="-167.496" font-family="Times New Roman,serif" font-size="14.00">B</text>
</g>
<!-- T2&#45;&gt;T3 -->
<g id="edge6" class="edge"><title>T2&#45;&gt;T3</title>
<path fill="none" stroke="black" d="M175.547,-544.494C175.547,-532.858 175.547,-517.243 175.547,-503.932"/>
<polygon fill="black" stroke="black" points="179.047,-503.871 175.547,-493.871 172.047,-503.871 179.047,-503.871"/>
<text text-anchor="middle" x="180.547" y="-515.496" font-family="Times New Roman,serif" font-size="14.00">A</text>
</g>
</g>
</svg>
