<?xml version="1.0" encoding="UTF-8" standalone="no"?>
<!DOCTYPE svg PUBLIC "-//W3C//DTD SVG 1.1//EN"
 "http://www.w3.org/Graphics/SVG/1.1/DTD/svg11.dtd">
<!-- Generated by graphviz version 2.38.0 (20140413.2041)
 -->
<!-- Title: %3 Pages: 1 -->
<svg width="146pt" height="662pt"
 viewBox="0.00 0.00 146.00 661.70" xmlns="http://www.w3.org/2000/svg" xmlns:xlink="http://www.w3.org/1999/xlink">
<g id="graph0" class="graph" transform="scale(1 1) rotate(0) translate(4 657.696)">
<title>%3</title>
<polygon fill="white" stroke="none" points="-4,4 -4,-657.696 142,-657.696 142,4 -4,4"/>
<!-- fake0 -->
<g id="node1" class="node"><title>fake0</title>
</g>
<!-- T0 -->
<g id="node10" class="node"><title>T0</title>
<ellipse fill="none" stroke="black" cx="62" cy="-562.696" rx="27" ry="18"/>
<text text-anchor="middle" x="62" y="-558.996" font-family="Times New Roman,serif" font-size="14.00">T0</text>
</g>
<!-- fake0&#45;&gt;T0 -->
<g id="edge1" class="edge"><title>fake0&#45;&gt;T0</title>
<path fill="none" stroke="black" stroke-width="2" d="M62,-617.508C62,-609.485 62,-599.743 62,-590.765"/>
<polygon fill="black" stroke="black" stroke-width="2" points="65.5001,-590.724 62,-580.724 58.5001,-590.724 65.5001,-590.724"/>
</g>
<!-- T8 -->
<g id="node2" class="node"><title>T8</title>
<ellipse fill="none" stroke="black" cx="39" cy="-214.696" rx="27" ry="18"/>
<text text-anchor="middle" x="39" y="-210.996" font-family="Times New Roman,serif" font-size="14.00">T8</text>
</g>
<!-- T9 -->
<g id="node6" class="node"><title>T9</title>
<ellipse fill="none" stroke="black" cx="39" cy="-127.696" rx="27" ry="18"/>
<text text-anchor="middle" x="39" y="-123.996" font-family="Times New Roman,serif" font-size="14.00">T9</text>
</g>
<!-- T8&#45;&gt;T9 -->
<g id="edge12" class="edge"><title>T8&#45;&gt;T9</title>
<path fill="none" stroke="black" d="M39,-196.494C39,-184.858 39,-169.243 39,-155.932"/>
<polygon fill="black" stroke="black" points="42.5001,-155.871 39,-145.871 35.5001,-155.871 42.5001,-155.871"/>
<text text-anchor="middle" x="43" y="-167.496" font-family="Times New Roman,serif" font-size="14.00">b</text>
</g>
<!-- T1 -->
<g id="node3" class="node"><title>T1</title>
<ellipse fill="none" stroke="black" cx="27" cy="-475.696" rx="27" ry="18"/>
<text text-anchor="middle" x="27" y="-471.996" font-family="Times New Roman,serif" font-size="14.00">T1</text>
</g>
<!-- T2 -->
<g id="node12" class="node"><title>T2</title>
<ellipse fill="none" stroke="black" cx="27" cy="-388.696" rx="27" ry="18"/>
<text text-anchor="middle" x="27" y="-384.996" font-family="Times New Roman,serif" font-size="14.00">T2</text>
</g>
<!-- T1&#45;&gt;T2 -->
<g id="edge4" class="edge"><title>T1&#45;&gt;T2</title>
<path fill="none" stroke="black" d="M27,-457.494C27,-445.858 27,-430.243 27,-416.932"/>
<polygon fill="black" stroke="black" points="30.5001,-416.871 27,-406.871 23.5001,-416.871 30.5001,-416.871"/>
<text text-anchor="middle" x="30.5" y="-428.496" font-family="Times New Roman,serif" font-size="14.00">a</text>
</g>
<!-- T4 -->
<g id="node4" class="node"><title>T4</title>
<ellipse fill="none" stroke="black" cx="99" cy="-388.696" rx="27" ry="18"/>
<text text-anchor="middle" x="99" y="-384.996" font-family="Times New Roman,serif" font-size="14.00">T4</text>
</g>
<!-- T5 -->
<g id="node11" class="node"><title>T5</title>
<ellipse fill="none" stroke="black" cx="66" cy="-301.696" rx="27" ry="18"/>
<text text-anchor="middle" x="66" y="-297.996" font-family="Times New Roman,serif" font-size="14.00">T5</text>
</g>
<!-- T4&#45;&gt;T5 -->
<g id="edge7" class="edge"><title>T4&#45;&gt;T5</title>
<path fill="none" stroke="black" d="M92.4803,-370.902C87.8249,-358.911 81.4716,-342.547 76.1551,-328.853"/>
<polygon fill="black" stroke="black" points="79.3882,-327.509 72.5062,-319.454 72.8627,-330.043 79.3882,-327.509"/>
<text text-anchor="middle" x="92" y="-341.496" font-family="Times New Roman,serif" font-size="14.00">Ep</text>
</g>
<!-- T10 -->
<g id="node5" class="node"><title>T10</title>
<ellipse fill="none" stroke="black" cx="78" cy="-29.3478" rx="25.2169" ry="25.2169"/>
<ellipse fill="none" stroke="black" cx="78" cy="-29.3478" rx="29.1963" ry="29.1963"/>
<text text-anchor="middle" x="78" y="-25.6478" font-family="Times New Roman,serif" font-size="14.00">T10</text>
</g>
<!-- T9&#45;&gt;T10 -->
<g id="edge13" class="edge"><title>T9&#45;&gt;T10</title>
<path fill="none" stroke="black" d="M45.7933,-109.913C50.6627,-97.8833 57.4045,-81.2279 63.462,-66.2632"/>
<polygon fill="black" stroke="black" points="66.8094,-67.3216 67.3173,-56.7389 60.3208,-64.695 66.8094,-67.3216"/>
<text text-anchor="middle" x="66" y="-80.4955" font-family="Times New Roman,serif" font-size="14.00">Ep</text>
</g>
<!-- T3 -->
<g id="node7" class="node"><title>T3</title>
<ellipse fill="none" stroke="black" cx="99" cy="-475.696" rx="27" ry="18"/>
<text text-anchor="middle" x="99" y="-471.996" font-family="Times New Roman,serif" font-size="14.00">T3</text>
</g>
<!-- T3&#45;&gt;T4 -->
<g id="edge6" class="edge"><title>T3&#45;&gt;T4</title>
<path fill="none" stroke="black" d="M99,-457.494C99,-445.858 99,-430.243 99,-416.932"/>
<polygon fill="black" stroke="black" points="102.5,-416.871 99,-406.871 95.5001,-416.871 102.5,-416.871"/>
<text text-anchor="middle" x="103" y="-428.496" font-family="Times New Roman,serif" font-size="14.00">b</text>
</g>
<!-- T6 -->
<g id="node8" class="node"><title>T6</title>
<ellipse fill="none" stroke="black" cx="111" cy="-214.696" rx="27" ry="18"/>
<text text-anchor="middle" x="111" y="-210.996" font-family="Times New Roman,serif" font-size="14.00">T6</text>
</g>
<!-- T7 -->
<g id="node9" class="node"><title>T7</title>
<ellipse fill="none" stroke="black" cx="111" cy="-127.696" rx="27" ry="18"/>
<text text-anchor="middle" x="111" y="-123.996" font-family="Times New Roman,serif" font-size="14.00">T7</text>
</g>
<!-- T6&#45;&gt;T7 -->
<g id="edge10" class="edge"><title>T6&#45;&gt;T7</title>
<path fill="none" stroke="black" d="M111,-196.494C111,-184.858 111,-169.243 111,-155.932"/>
<polygon fill="black" stroke="black" points="114.5,-155.871 111,-145.871 107.5,-155.871 114.5,-155.871"/>
<text text-anchor="middle" x="114.5" y="-167.496" font-family="Times New Roman,serif" font-size="14.00">a</text>
</g>
<!-- T7&#45;&gt;T10 -->
<g id="edge11" class="edge"><title>T7&#45;&gt;T10</title>
<path fill="none" stroke="black" d="M105.252,-109.913C101.231,-98.1731 95.7009,-82.0277 90.6728,-67.3475"/>
<polygon fill="black" stroke="black" points="93.8482,-65.8169 87.2967,-57.4905 87.2258,-68.0851 93.8482,-65.8169"/>
<text text-anchor="middle" x="106" y="-80.4955" font-family="Times New Roman,serif" font-size="14.00">Ep</text>
</g>
<!-- T0&#45;&gt;T1 -->
<g id="edge2" class="edge"><title>T0&#45;&gt;T1</title>
<path fill="none" stroke="black" d="M55.0851,-544.902C50.1155,-532.833 43.3217,-516.334 37.6608,-502.586"/>
<polygon fill="black" stroke="black" points="40.8254,-501.079 33.7814,-493.165 34.3526,-503.744 40.8254,-501.079"/>
<text text-anchor="middle" x="55" y="-515.496" font-family="Times New Roman,serif" font-size="14.00">Ep</text>
</g>
<!-- T0&#45;&gt;T3 -->
<g id="edge3" class="edge"><title>T0&#45;&gt;T3</title>
<path fill="none" stroke="black" d="M69.134,-545.307C74.3724,-533.272 81.5958,-516.678 87.6266,-502.824"/>
<polygon fill="black" stroke="black" points="90.9796,-503.89 91.7617,-493.324 84.5613,-501.096 90.9796,-503.89"/>
<text text-anchor="middle" x="91" y="-515.496" font-family="Times New Roman,serif" font-size="14.00">Ep</text>
</g>
<!-- T5&#45;&gt;T8 -->
<g id="edge9" class="edge"><title>T5&#45;&gt;T8</title>
<path fill="none" stroke="black" d="M60.6657,-283.902C56.8937,-272.027 51.7594,-255.864 47.4356,-242.252"/>
<polygon fill="black" stroke="black" points="50.6865,-240.925 44.3232,-232.454 44.015,-243.044 50.6865,-240.925"/>
<text text-anchor="middle" x="62" y="-254.496" font-family="Times New Roman,serif" font-size="14.00">Ep</text>
</g>
<!-- T5&#45;&gt;T6 -->
<g id="edge8" class="edge"><title>T5&#45;&gt;T6</title>
<path fill="none" stroke="black" d="M74.6765,-284.307C81.1508,-272.077 90.1185,-255.138 97.5233,-241.152"/>
<polygon fill="black" stroke="black" points="100.765,-242.51 102.35,-232.034 94.578,-239.234 100.765,-242.51"/>
<text text-anchor="middle" x="100" y="-254.496" font-family="Times New Roman,serif" font-size="14.00">Ep</text>
</g>
<!-- T2&#45;&gt;T5 -->
<g id="edge5" class="edge"><title>T2&#45;&gt;T5</title>
<path fill="none" stroke="black" d="M34.5196,-371.307C40.1307,-359.077 47.9027,-342.138 54.3202,-328.152"/>
<polygon fill="black" stroke="black" points="57.5143,-329.583 58.5035,-319.034 51.1521,-326.663 57.5143,-329.583"/>
<text text-anchor="middle" x="58" y="-341.496" font-family="Times New Roman,serif" font-size="14.00">Ep</text>
</g>
</g>
</svg>
