<?xml version="1.0" encoding="UTF-8" standalone="no"?>
<!DOCTYPE svg PUBLIC "-//W3C//DTD SVG 1.1//EN"
 "http://www.w3.org/Graphics/SVG/1.1/DTD/svg11.dtd">
<!-- Generated by graphviz version 2.38.0 (20140413.2041)
 -->
<!-- Title: %3 Pages: 1 -->
<svg width="210pt" height="836pt"
 viewBox="0.00 0.00 209.55 835.70" xmlns="http://www.w3.org/2000/svg" xmlns:xlink="http://www.w3.org/1999/xlink">
<g id="graph0" class="graph" transform="scale(1 1) rotate(0) translate(4 831.696)">
<title>%3</title>
<polygon fill="white" stroke="none" points="-4,4 -4,-831.696 205.547,-831.696 205.547,4 -4,4"/>
<!-- fake0 -->
<g id="node1" class="node"><title>fake0</title>
</g>
<!-- T0 -->
<g id="node5" class="node"><title>T0</title>
<ellipse fill="none" stroke="black" cx="30.5473" cy="-736.696" rx="27" ry="18"/>
<text text-anchor="middle" x="30.5473" y="-732.996" font-family="Times New Roman,serif" font-size="14.00">T0</text>
</g>
<!-- fake0&#45;&gt;T0 -->
<g id="edge1" class="edge"><title>fake0&#45;&gt;T0</title>
<path fill="none" stroke="black" stroke-width="2" d="M30.5473,-791.508C30.5473,-783.485 30.5473,-773.743 30.5473,-764.765"/>
<polygon fill="black" stroke="black" stroke-width="2" points="34.0474,-764.724 30.5473,-754.724 27.0474,-764.724 34.0474,-764.724"/>
</g>
<!-- T5 -->
<g id="node2" class="node"><title>T5</title>
<ellipse fill="none" stroke="black" cx="63.5473" cy="-475.696" rx="27" ry="18"/>
<text text-anchor="middle" x="63.5473" y="-471.996" font-family="Times New Roman,serif" font-size="14.00">T5</text>
</g>
<!-- T6 -->
<g id="node6" class="node"><title>T6</title>
<ellipse fill="none" stroke="black" cx="107.547" cy="-388.696" rx="27" ry="18"/>
<text text-anchor="middle" x="107.547" y="-384.996" font-family="Times New Roman,serif" font-size="14.00">T6</text>
</g>
<!-- T5&#45;&gt;T6 -->
<g id="edge9" class="edge"><title>T5&#45;&gt;T6</title>
<path fill="none" stroke="black" d="M72.0309,-458.307C78.3614,-446.077 87.1298,-429.138 94.3701,-415.152"/>
<polygon fill="black" stroke="black" points="97.6008,-416.524 99.0897,-406.034 91.3843,-413.306 97.6008,-416.524"/>
<text text-anchor="middle" x="96.5473" y="-428.496" font-family="Times New Roman,serif" font-size="14.00">Ep</text>
</g>
<!-- T7 -->
<g id="node3" class="node"><title>T7</title>
<ellipse fill="none" stroke="black" cx="41.5473" cy="-301.696" rx="27" ry="18"/>
<text text-anchor="middle" x="41.5473" y="-297.996" font-family="Times New Roman,serif" font-size="14.00">T7</text>
</g>
<!-- T8 -->
<g id="node9" class="node"><title>T8</title>
<ellipse fill="none" stroke="black" cx="41.5473" cy="-214.696" rx="27" ry="18"/>
<text text-anchor="middle" x="41.5473" y="-210.996" font-family="Times New Roman,serif" font-size="14.00">T8</text>
</g>
<!-- T7&#45;&gt;T8 -->
<g id="edge12" class="edge"><title>T7&#45;&gt;T8</title>
<path fill="none" stroke="black" d="M41.5473,-283.494C41.5473,-271.858 41.5473,-256.243 41.5473,-242.932"/>
<polygon fill="black" stroke="black" points="45.0474,-242.871 41.5473,-232.871 38.0474,-242.871 45.0474,-242.871"/>
<text text-anchor="middle" x="45.0473" y="-254.496" font-family="Times New Roman,serif" font-size="14.00">a</text>
</g>
<!-- T1 -->
<g id="node4" class="node"><title>T1</title>
<ellipse fill="none" stroke="black" cx="99.5473" cy="-649.696" rx="27" ry="18"/>
<text text-anchor="middle" x="99.5473" y="-645.996" font-family="Times New Roman,serif" font-size="14.00">T1</text>
</g>
<!-- T4 -->
<g id="node8" class="node"><title>T4</title>
<ellipse fill="none" stroke="black" cx="63.5473" cy="-562.696" rx="27" ry="18"/>
<text text-anchor="middle" x="63.5473" y="-558.996" font-family="Times New Roman,serif" font-size="14.00">T4</text>
</g>
<!-- T1&#45;&gt;T4 -->
<g id="edge4" class="edge"><title>T1&#45;&gt;T4</title>
<path fill="none" stroke="black" d="M90.6774,-632.525C87.6155,-626.673 84.2727,-619.961 81.5473,-613.696 78.2721,-606.166 75.0987,-597.828 72.3521,-590.155"/>
<polygon fill="black" stroke="black" points="75.6093,-588.866 69.0146,-580.574 68.9989,-591.168 75.6093,-588.866"/>
<text text-anchor="middle" x="89.5473" y="-602.496" font-family="Times New Roman,serif" font-size="14.00">Ep</text>
</g>
<!-- T2 -->
<g id="node10" class="node"><title>T2</title>
<ellipse fill="none" stroke="black" cx="135.547" cy="-562.696" rx="27" ry="18"/>
<text text-anchor="middle" x="135.547" y="-558.996" font-family="Times New Roman,serif" font-size="14.00">T2</text>
</g>
<!-- T1&#45;&gt;T2 -->
<g id="edge5" class="edge"><title>T1&#45;&gt;T2</title>
<path fill="none" stroke="black" d="M106.66,-631.902C111.771,-619.833 118.759,-603.334 124.582,-589.586"/>
<polygon fill="black" stroke="black" points="127.895,-590.738 128.572,-580.165 121.449,-588.008 127.895,-590.738"/>
<text text-anchor="middle" x="128.547" y="-602.496" font-family="Times New Roman,serif" font-size="14.00">Ep</text>
</g>
<!-- T0&#45;&gt;T7 -->
<g id="edge3" class="edge"><title>T0&#45;&gt;T7</title>
<path fill="none" stroke="black" d="M23.5864,-719.09C17.141,-702.19 8.54729,-675.085 8.54729,-650.696 8.54729,-650.696 8.54729,-650.696 8.54729,-387.696 8.54729,-366.39 17.6681,-343.994 26.3196,-327.542"/>
<polygon fill="black" stroke="black" points="29.4927,-329.037 31.2868,-318.595 23.3727,-325.639 29.4927,-329.037"/>
<text text-anchor="middle" x="16.5473" y="-515.496" font-family="Times New Roman,serif" font-size="14.00">Ep</text>
</g>
<!-- T0&#45;&gt;T1 -->
<g id="edge2" class="edge"><title>T0&#45;&gt;T1</title>
<path fill="none" stroke="black" d="M42.8831,-720.499C53.48,-707.445 68.915,-688.431 81.0006,-673.543"/>
<polygon fill="black" stroke="black" points="83.7331,-675.73 87.3183,-665.76 78.2984,-671.318 83.7331,-675.73"/>
<text text-anchor="middle" x="78.5473" y="-689.496" font-family="Times New Roman,serif" font-size="14.00">Ep</text>
</g>
<!-- T6&#45;&gt;T7 -->
<g id="edge11" class="edge"><title>T6&#45;&gt;T7</title>
<path fill="none" stroke="black" d="M95.7478,-372.499C85.7675,-359.646 71.3006,-341.014 59.823,-326.232"/>
<polygon fill="black" stroke="black" points="62.3646,-323.799 53.4671,-318.047 56.8357,-328.092 62.3646,-323.799"/>
<text text-anchor="middle" x="85.5473" y="-341.496" font-family="Times New Roman,serif" font-size="14.00">Ep</text>
</g>
<!-- T6&#45;&gt;T1 -->
<g id="edge10" class="edge"><title>T6&#45;&gt;T1</title>
<path fill="none" stroke="black" d="M125.737,-402.352C141.37,-414.471 162.741,-434.334 171.547,-457.696 190.83,-508.849 191.676,-529.869 171.547,-580.696 163.137,-601.931 144.067,-619.439 127.666,-631.369"/>
<polygon fill="black" stroke="black" points="125.632,-628.52 119.402,-637.089 129.617,-634.275 125.632,-628.52"/>
<text text-anchor="middle" x="193.547" y="-515.496" font-family="Times New Roman,serif" font-size="14.00">Ep</text>
</g>
<!-- T10 -->
<g id="node7" class="node"><title>T10</title>
<ellipse fill="none" stroke="black" cx="41.5473" cy="-29.3478" rx="25.2169" ry="25.2169"/>
<ellipse fill="none" stroke="black" cx="41.5473" cy="-29.3478" rx="29.1963" ry="29.1963"/>
<text text-anchor="middle" x="41.5473" y="-25.6478" font-family="Times New Roman,serif" font-size="14.00">T10</text>
</g>
<!-- T4&#45;&gt;T5 -->
<g id="edge8" class="edge"><title>T4&#45;&gt;T5</title>
<path fill="none" stroke="black" d="M63.5473,-544.494C63.5473,-532.858 63.5473,-517.243 63.5473,-503.932"/>
<polygon fill="black" stroke="black" points="67.0474,-503.871 63.5473,-493.871 60.0474,-503.871 67.0474,-503.871"/>
<text text-anchor="middle" x="67.5473" y="-515.496" font-family="Times New Roman,serif" font-size="14.00">b</text>
</g>
<!-- T9 -->
<g id="node12" class="node"><title>T9</title>
<ellipse fill="none" stroke="black" cx="41.5473" cy="-127.696" rx="27" ry="18"/>
<text text-anchor="middle" x="41.5473" y="-123.996" font-family="Times New Roman,serif" font-size="14.00">T9</text>
</g>
<!-- T8&#45;&gt;T9 -->
<g id="edge13" class="edge"><title>T8&#45;&gt;T9</title>
<path fill="none" stroke="black" d="M41.5473,-196.494C41.5473,-184.858 41.5473,-169.243 41.5473,-155.932"/>
<polygon fill="black" stroke="black" points="45.0474,-155.871 41.5473,-145.871 38.0474,-155.871 45.0474,-155.871"/>
<text text-anchor="middle" x="45.5473" y="-167.496" font-family="Times New Roman,serif" font-size="14.00">b</text>
</g>
<!-- T3 -->
<g id="node11" class="node"><title>T3</title>
<ellipse fill="none" stroke="black" cx="135.547" cy="-475.696" rx="27" ry="18"/>
<text text-anchor="middle" x="135.547" y="-471.996" font-family="Times New Roman,serif" font-size="14.00">T3</text>
</g>
<!-- T2&#45;&gt;T3 -->
<g id="edge6" class="edge"><title>T2&#45;&gt;T3</title>
<path fill="none" stroke="black" d="M135.547,-544.494C135.547,-532.858 135.547,-517.243 135.547,-503.932"/>
<polygon fill="black" stroke="black" points="139.047,-503.871 135.547,-493.871 132.047,-503.871 139.047,-503.871"/>
<text text-anchor="middle" x="139.047" y="-515.496" font-family="Times New Roman,serif" font-size="14.00">a</text>
</g>
<!-- T3&#45;&gt;T6 -->
<g id="edge7" class="edge"><title>T3&#45;&gt;T6</title>
<path fill="none" stroke="black" d="M130.015,-457.902C126.104,-446.027 120.779,-429.864 116.295,-416.252"/>
<polygon fill="black" stroke="black" points="119.521,-414.857 113.068,-406.454 112.872,-417.047 119.521,-414.857"/>
<text text-anchor="middle" x="130.547" y="-428.496" font-family="Times New Roman,serif" font-size="14.00">Ep</text>
</g>
<!-- T9&#45;&gt;T10 -->
<g id="edge14" class="edge"><title>T9&#45;&gt;T10</title>
<path fill="none" stroke="black" d="M41.5473,-109.47C41.5473,-98.256 41.5473,-83.1612 41.5473,-69.1629"/>
<polygon fill="black" stroke="black" points="45.0474,-68.7544 41.5473,-58.7545 38.0474,-68.7545 45.0474,-68.7544"/>
<text text-anchor="middle" x="45.5473" y="-80.4955" font-family="Times New Roman,serif" font-size="14.00">b</text>
</g>
</g>
</svg>
