<?xml version="1.0" encoding="UTF-8" standalone="no"?>
<!DOCTYPE svg PUBLIC "-//W3C//DTD SVG 1.1//EN"
 "http://www.w3.org/Graphics/SVG/1.1/DTD/svg11.dtd">
<!-- Generated by graphviz version 2.38.0 (20140413.2041)
 -->
<!-- Title: %3 Pages: 1 -->
<svg width="171pt" height="392pt"
 viewBox="0.00 0.00 171.00 391.60" xmlns="http://www.w3.org/2000/svg" xmlns:xlink="http://www.w3.org/1999/xlink">
<g id="graph0" class="graph" transform="scale(1 1) rotate(0) translate(4 387.596)">
<title>%3</title>
<polygon fill="white" stroke="none" points="-4,4 -4,-387.596 167,-387.596 167,4 -4,4"/>
<!-- fake0 -->
<g id="node1" class="node"><title>fake0</title>
</g>
<!-- T0 -->
<g id="node3" class="node"><title>T0</title>
<ellipse fill="none" stroke="black" cx="108" cy="-292.596" rx="27" ry="18"/>
<text text-anchor="middle" x="108" y="-288.896" font-family="Times New Roman,serif" font-size="14.00">T0</text>
</g>
<!-- fake0&#45;&gt;T0 -->
<g id="edge1" class="edge"><title>fake0&#45;&gt;T0</title>
<path fill="none" stroke="black" stroke-width="2" d="M108,-347.409C108,-339.386 108,-329.644 108,-320.665"/>
<polygon fill="black" stroke="black" stroke-width="2" points="111.5,-320.625 108,-310.625 104.5,-320.625 111.5,-320.625"/>
</g>
<!-- T1 -->
<g id="node2" class="node"><title>T1</title>
<ellipse fill="none" stroke="black" cx="52" cy="-205.596" rx="27" ry="18"/>
<text text-anchor="middle" x="52" y="-201.896" font-family="Times New Roman,serif" font-size="14.00">T1</text>
</g>
<!-- T1&#45;&gt;T1 -->
<g id="edge4" class="edge"><title>T1&#45;&gt;T1</title>
<path fill="none" stroke="black" d="M76.5325,-213.348C87.5078,-214.087 97,-211.503 97,-205.596 97,-201.628 92.7151,-199.16 86.5743,-198.191"/>
<polygon fill="black" stroke="black" points="86.6472,-194.691 76.5325,-197.844 86.4059,-201.687 86.6472,-194.691"/>
<text text-anchor="middle" x="102" y="-201.896" font-family="Times New Roman,serif" font-size="14.00">A</text>
</g>
<!-- T2 -->
<g id="node5" class="node"><title>T2</title>
<ellipse fill="none" stroke="black" cx="27" cy="-118.596" rx="27" ry="18"/>
<text text-anchor="middle" x="27" y="-114.896" font-family="Times New Roman,serif" font-size="14.00">T2</text>
</g>
<!-- T1&#45;&gt;T2 -->
<g id="edge5" class="edge"><title>T1&#45;&gt;T2</title>
<path fill="none" stroke="black" d="M36.9418,-190.309C31.8022,-184.441 26.6788,-177.233 24,-169.596 21.4957,-162.457 21.04,-154.396 21.5298,-146.863"/>
<polygon fill="black" stroke="black" points="25.0307,-147.062 22.7366,-136.719 18.0798,-146.235 25.0307,-147.062"/>
<text text-anchor="middle" x="29" y="-158.396" font-family="Times New Roman,serif" font-size="14.00">B</text>
</g>
<!-- T0&#45;&gt;T1 -->
<g id="edge2" class="edge"><title>T0&#45;&gt;T1</title>
<path fill="none" stroke="black" d="M97.4668,-275.608C89.1757,-263.024 77.4825,-245.275 68.0308,-230.929"/>
<polygon fill="black" stroke="black" points="70.9103,-228.938 62.4859,-222.512 65.0648,-232.789 70.9103,-228.938"/>
<text text-anchor="middle" x="88" y="-245.396" font-family="Times New Roman,serif" font-size="14.00">A</text>
</g>
<!-- T0&#45;&gt;T0 -->
<g id="edge3" class="edge"><title>T0&#45;&gt;T0</title>
<path fill="none" stroke="black" d="M133.443,-299.287C144.028,-299.748 153,-297.518 153,-292.596 153,-289.366 149.136,-287.296 143.488,-286.384"/>
<polygon fill="black" stroke="black" points="143.599,-282.885 133.443,-285.906 143.266,-289.877 143.599,-282.885"/>
<text text-anchor="middle" x="158" y="-288.896" font-family="Times New Roman,serif" font-size="14.00">B</text>
</g>
<!-- T3 -->
<g id="node4" class="node"><title>T3</title>
<ellipse fill="none" stroke="black" cx="90" cy="-24.7982" rx="20.6302" ry="20.6302"/>
<ellipse fill="none" stroke="black" cx="90" cy="-24.7982" rx="24.5979" ry="24.5979"/>
<text text-anchor="middle" x="90" y="-21.0982" font-family="Times New Roman,serif" font-size="14.00">T3</text>
</g>
<!-- T3&#45;&gt;T1 -->
<g id="edge8" class="edge"><title>T3&#45;&gt;T1</title>
<path fill="none" stroke="black" d="M84.998,-49.3337C77.965,-82.4253 65.1853,-142.557 57.7628,-177.481"/>
<polygon fill="black" stroke="black" points="54.299,-176.943 55.6436,-187.452 61.1461,-178.398 54.299,-176.943"/>
<text text-anchor="middle" x="79" y="-114.896" font-family="Times New Roman,serif" font-size="14.00">A</text>
</g>
<!-- T3&#45;&gt;T0 -->
<g id="edge9" class="edge"><title>T3&#45;&gt;T0</title>
<path fill="none" stroke="black" d="M95.9697,-49.1391C104.748,-86.0313 119.719,-160.149 116,-223.596 115.209,-237.088 113.543,-252.008 111.935,-264.427"/>
<polygon fill="black" stroke="black" points="108.431,-264.219 110.56,-274.598 115.368,-265.157 108.431,-264.219"/>
<text text-anchor="middle" x="120" y="-158.396" font-family="Times New Roman,serif" font-size="14.00">B</text>
</g>
<!-- T2&#45;&gt;T1 -->
<g id="edge6" class="edge"><title>T2&#45;&gt;T1</title>
<path fill="none" stroke="black" d="M31.9289,-136.355C35.419,-148.221 40.1725,-164.383 44.1775,-178"/>
<polygon fill="black" stroke="black" points="40.8813,-179.197 47.0608,-187.803 47.5969,-177.222 40.8813,-179.197"/>
<text text-anchor="middle" x="45" y="-158.396" font-family="Times New Roman,serif" font-size="14.00">A</text>
</g>
<!-- T2&#45;&gt;T3 -->
<g id="edge7" class="edge"><title>T2&#45;&gt;T3</title>
<path fill="none" stroke="black" d="M37.6871,-102.024C46.6917,-88.9032 59.8035,-69.7979 70.6473,-53.9972"/>
<polygon fill="black" stroke="black" points="73.6251,-55.8437 76.3978,-45.6181 67.8535,-51.8827 73.6251,-55.8437"/>
<text text-anchor="middle" x="65" y="-71.3963" font-family="Times New Roman,serif" font-size="14.00">B</text>
</g>
</g>
</svg>
