<?xml version="1.0" encoding="UTF-8" standalone="no"?>
<!DOCTYPE svg PUBLIC "-//W3C//DTD SVG 1.1//EN"
 "http://www.w3.org/Graphics/SVG/1.1/DTD/svg11.dtd">
<!-- Generated by graphviz version 2.38.0 (20140413.2041)
 -->
<!-- Title: %3 Pages: 1 -->
<svg width="208pt" height="1445pt"
 viewBox="0.00 0.00 208.00 1444.70" xmlns="http://www.w3.org/2000/svg" xmlns:xlink="http://www.w3.org/1999/xlink">
<g id="graph0" class="graph" transform="scale(1 1) rotate(0) translate(4 1440.7)">
<title>%3</title>
<polygon fill="white" stroke="none" points="-4,4 -4,-1440.7 204,-1440.7 204,4 -4,4"/>
<!-- fake0 -->
<g id="node1" class="node"><title>fake0</title>
</g>
<!-- T0 -->
<g id="node15" class="node"><title>T0</title>
<ellipse fill="none" stroke="black" cx="132" cy="-1345.7" rx="27" ry="18"/>
<text text-anchor="middle" x="132" y="-1342" font-family="Times New Roman,serif" font-size="14.00">T0</text>
</g>
<!-- fake0&#45;&gt;T0 -->
<g id="edge1" class="edge"><title>fake0&#45;&gt;T0</title>
<path fill="none" stroke="black" stroke-width="2" d="M132,-1400.51C132,-1392.48 132,-1382.74 132,-1373.76"/>
<polygon fill="black" stroke="black" stroke-width="2" points="135.5,-1373.72 132,-1363.72 128.5,-1373.72 135.5,-1373.72"/>
</g>
<!-- T11 -->
<g id="node2" class="node"><title>T11</title>
<ellipse fill="none" stroke="black" cx="94" cy="-562.696" rx="27" ry="18"/>
<text text-anchor="middle" x="94" y="-558.996" font-family="Times New Roman,serif" font-size="14.00">T11</text>
</g>
<!-- T12 -->
<g id="node14" class="node"><title>T12</title>
<ellipse fill="none" stroke="black" cx="94" cy="-475.696" rx="27" ry="18"/>
<text text-anchor="middle" x="94" y="-471.996" font-family="Times New Roman,serif" font-size="14.00">T12</text>
</g>
<!-- T11&#45;&gt;T12 -->
<g id="edge16" class="edge"><title>T11&#45;&gt;T12</title>
<path fill="none" stroke="black" d="M81.3519,-546.65C77.2087,-540.8 73.1256,-533.801 71,-526.696 68.3337,-517.783 71.0221,-508.418 75.3779,-500.233"/>
<polygon fill="black" stroke="black" points="78.4565,-501.912 80.8077,-491.581 72.5274,-498.191 78.4565,-501.912"/>
<text text-anchor="middle" x="75.5" y="-515.496" font-family="Times New Roman,serif" font-size="14.00">F</text>
</g>
<!-- T16 -->
<g id="node3" class="node"><title>T16</title>
<ellipse fill="none" stroke="black" cx="134" cy="-127.696" rx="27" ry="18"/>
<text text-anchor="middle" x="134" y="-123.996" font-family="Times New Roman,serif" font-size="14.00">T16</text>
</g>
<!-- T14 -->
<g id="node4" class="node"><title>T14</title>
<ellipse fill="none" stroke="black" cx="127" cy="-301.696" rx="27" ry="18"/>
<text text-anchor="middle" x="127" y="-297.996" font-family="Times New Roman,serif" font-size="14.00">T14</text>
</g>
<!-- T16&#45;&gt;T14 -->
<g id="edge22" class="edge"><title>T16&#45;&gt;T14</title>
<path fill="none" stroke="black" d="M129.524,-145.594C126.145,-159.264 121.796,-179.069 120,-196.696 117.345,-222.758 119.931,-252.601 122.68,-273.615"/>
<polygon fill="black" stroke="black" points="119.244,-274.319 124.105,-283.733 126.176,-273.342 119.244,-274.319"/>
<text text-anchor="middle" x="128.5" y="-210.996" font-family="Times New Roman,serif" font-size="14.00">EP</text>
</g>
<!-- T17 -->
<g id="node7" class="node"><title>T17</title>
<ellipse fill="none" stroke="black" cx="134" cy="-29.3478" rx="25.2169" ry="25.2169"/>
<ellipse fill="none" stroke="black" cx="134" cy="-29.3478" rx="29.1963" ry="29.1963"/>
<text text-anchor="middle" x="134" y="-25.6478" font-family="Times New Roman,serif" font-size="14.00">T17</text>
</g>
<!-- T16&#45;&gt;T17 -->
<g id="edge23" class="edge"><title>T16&#45;&gt;T17</title>
<path fill="none" stroke="black" d="M134,-109.47C134,-98.256 134,-83.1612 134,-69.1629"/>
<polygon fill="black" stroke="black" points="137.5,-68.7544 134,-58.7545 130.5,-68.7545 137.5,-68.7544"/>
<text text-anchor="middle" x="142.5" y="-80.4955" font-family="Times New Roman,serif" font-size="14.00">EP</text>
</g>
<!-- T15 -->
<g id="node18" class="node"><title>T15</title>
<ellipse fill="none" stroke="black" cx="173" cy="-214.696" rx="27" ry="18"/>
<text text-anchor="middle" x="173" y="-210.996" font-family="Times New Roman,serif" font-size="14.00">T15</text>
</g>
<!-- T14&#45;&gt;T15 -->
<g id="edge20" class="edge"><title>T14&#45;&gt;T15</title>
<path fill="none" stroke="black" d="M135.869,-284.307C142.53,-271.999 151.772,-254.921 159.369,-240.883"/>
<polygon fill="black" stroke="black" points="162.633,-242.206 164.314,-231.746 156.476,-238.875 162.633,-242.206"/>
<text text-anchor="middle" x="159" y="-254.496" font-family="Times New Roman,serif" font-size="14.00">C</text>
</g>
<!-- T2 -->
<g id="node5" class="node"><title>T2</title>
<ellipse fill="none" stroke="black" cx="27" cy="-1171.7" rx="27" ry="18"/>
<text text-anchor="middle" x="27" y="-1168" font-family="Times New Roman,serif" font-size="14.00">T2</text>
</g>
<!-- T3 -->
<g id="node10" class="node"><title>T3</title>
<ellipse fill="none" stroke="black" cx="27" cy="-1084.7" rx="27" ry="18"/>
<text text-anchor="middle" x="27" y="-1081" font-family="Times New Roman,serif" font-size="14.00">T3</text>
</g>
<!-- T2&#45;&gt;T3 -->
<g id="edge6" class="edge"><title>T2&#45;&gt;T3</title>
<path fill="none" stroke="black" d="M27,-1153.49C27,-1141.86 27,-1126.24 27,-1112.93"/>
<polygon fill="black" stroke="black" points="30.5001,-1112.87 27,-1102.87 23.5001,-1112.87 30.5001,-1112.87"/>
<text text-anchor="middle" x="32" y="-1124.5" font-family="Times New Roman,serif" font-size="14.00">A</text>
</g>
<!-- T6 -->
<g id="node6" class="node"><title>T6</title>
<ellipse fill="none" stroke="black" cx="99" cy="-997.696" rx="27" ry="18"/>
<text text-anchor="middle" x="99" y="-993.996" font-family="Times New Roman,serif" font-size="14.00">T6</text>
</g>
<!-- T7 -->
<g id="node17" class="node"><title>T7</title>
<ellipse fill="none" stroke="black" cx="132" cy="-910.696" rx="27" ry="18"/>
<text text-anchor="middle" x="132" y="-906.996" font-family="Times New Roman,serif" font-size="14.00">T7</text>
</g>
<!-- T6&#45;&gt;T7 -->
<g id="edge10" class="edge"><title>T6&#45;&gt;T7</title>
<path fill="none" stroke="black" d="M105.52,-979.902C110.175,-967.911 116.528,-951.547 121.845,-937.853"/>
<polygon fill="black" stroke="black" points="125.137,-939.043 125.494,-928.454 118.612,-936.509 125.137,-939.043"/>
<text text-anchor="middle" x="126.5" y="-950.496" font-family="Times New Roman,serif" font-size="14.00">EP</text>
</g>
<!-- T13 -->
<g id="node8" class="node"><title>T13</title>
<ellipse fill="none" stroke="black" cx="127" cy="-388.696" rx="27" ry="18"/>
<text text-anchor="middle" x="127" y="-384.996" font-family="Times New Roman,serif" font-size="14.00">T13</text>
</g>
<!-- T13&#45;&gt;T14 -->
<g id="edge19" class="edge"><title>T13&#45;&gt;T14</title>
<path fill="none" stroke="black" d="M127,-370.494C127,-358.858 127,-343.243 127,-329.932"/>
<polygon fill="black" stroke="black" points="130.5,-329.871 127,-319.871 123.5,-329.871 130.5,-329.871"/>
<text text-anchor="middle" x="135.5" y="-341.496" font-family="Times New Roman,serif" font-size="14.00">EP</text>
</g>
<!-- T8 -->
<g id="node9" class="node"><title>T8</title>
<ellipse fill="none" stroke="black" cx="132" cy="-823.696" rx="27" ry="18"/>
<text text-anchor="middle" x="132" y="-819.996" font-family="Times New Roman,serif" font-size="14.00">T8</text>
</g>
<!-- T9 -->
<g id="node16" class="node"><title>T9</title>
<ellipse fill="none" stroke="black" cx="132" cy="-736.696" rx="27" ry="18"/>
<text text-anchor="middle" x="132" y="-732.996" font-family="Times New Roman,serif" font-size="14.00">T9</text>
</g>
<!-- T8&#45;&gt;T9 -->
<g id="edge12" class="edge"><title>T8&#45;&gt;T9</title>
<path fill="none" stroke="black" d="M132,-805.494C132,-793.858 132,-778.243 132,-764.932"/>
<polygon fill="black" stroke="black" points="135.5,-764.871 132,-754.871 128.5,-764.871 135.5,-764.871"/>
<text text-anchor="middle" x="137" y="-776.496" font-family="Times New Roman,serif" font-size="14.00">D</text>
</g>
<!-- T3&#45;&gt;T6 -->
<g id="edge7" class="edge"><title>T3&#45;&gt;T6</title>
<path fill="none" stroke="black" d="M39.8722,-1068.5C50.9298,-1055.45 67.0359,-1036.43 79.647,-1021.54"/>
<polygon fill="black" stroke="black" points="82.4465,-1023.65 86.2393,-1013.76 77.1051,-1019.13 82.4465,-1023.65"/>
<text text-anchor="middle" x="77.5" y="-1037.5" font-family="Times New Roman,serif" font-size="14.00">EP</text>
</g>
<!-- T1 -->
<g id="node11" class="node"><title>T1</title>
<ellipse fill="none" stroke="black" cx="99" cy="-1258.7" rx="27" ry="18"/>
<text text-anchor="middle" x="99" y="-1255" font-family="Times New Roman,serif" font-size="14.00">T1</text>
</g>
<!-- T1&#45;&gt;T2 -->
<g id="edge4" class="edge"><title>T1&#45;&gt;T2</title>
<path fill="none" stroke="black" d="M86.1278,-1242.5C75.0702,-1229.45 58.9641,-1210.43 46.353,-1195.54"/>
<polygon fill="black" stroke="black" points="48.8949,-1193.13 39.7607,-1187.76 43.5535,-1197.65 48.8949,-1193.13"/>
<text text-anchor="middle" x="75.5" y="-1211.5" font-family="Times New Roman,serif" font-size="14.00">EP</text>
</g>
<!-- T4 -->
<g id="node12" class="node"><title>T4</title>
<ellipse fill="none" stroke="black" cx="99" cy="-1171.7" rx="27" ry="18"/>
<text text-anchor="middle" x="99" y="-1168" font-family="Times New Roman,serif" font-size="14.00">T4</text>
</g>
<!-- T1&#45;&gt;T4 -->
<g id="edge5" class="edge"><title>T1&#45;&gt;T4</title>
<path fill="none" stroke="black" d="M99,-1240.49C99,-1228.86 99,-1213.24 99,-1199.93"/>
<polygon fill="black" stroke="black" points="102.5,-1199.87 99,-1189.87 95.5001,-1199.87 102.5,-1199.87"/>
<text text-anchor="middle" x="107.5" y="-1211.5" font-family="Times New Roman,serif" font-size="14.00">EP</text>
</g>
<!-- T5 -->
<g id="node19" class="node"><title>T5</title>
<ellipse fill="none" stroke="black" cx="99" cy="-1084.7" rx="27" ry="18"/>
<text text-anchor="middle" x="99" y="-1081" font-family="Times New Roman,serif" font-size="14.00">T5</text>
</g>
<!-- T4&#45;&gt;T5 -->
<g id="edge8" class="edge"><title>T4&#45;&gt;T5</title>
<path fill="none" stroke="black" d="M99,-1153.49C99,-1141.86 99,-1126.24 99,-1112.93"/>
<polygon fill="black" stroke="black" points="102.5,-1112.87 99,-1102.87 95.5001,-1112.87 102.5,-1112.87"/>
<text text-anchor="middle" x="104" y="-1124.5" font-family="Times New Roman,serif" font-size="14.00">B</text>
</g>
<!-- T10 -->
<g id="node13" class="node"><title>T10</title>
<ellipse fill="none" stroke="black" cx="132" cy="-649.696" rx="27" ry="18"/>
<text text-anchor="middle" x="132" y="-645.996" font-family="Times New Roman,serif" font-size="14.00">T10</text>
</g>
<!-- T10&#45;&gt;T11 -->
<g id="edge14" class="edge"><title>T10&#45;&gt;T11</title>
<path fill="none" stroke="black" d="M124.673,-632.307C119.259,-620.195 111.779,-603.464 105.561,-589.556"/>
<polygon fill="black" stroke="black" points="108.581,-587.735 101.304,-580.034 102.19,-590.592 108.581,-587.735"/>
<text text-anchor="middle" x="123.5" y="-602.496" font-family="Times New Roman,serif" font-size="14.00">EP</text>
</g>
<!-- T10&#45;&gt;T13 -->
<g id="edge15" class="edge"><title>T10&#45;&gt;T13</title>
<path fill="none" stroke="black" d="M133.758,-631.624C134.265,-625.929 134.75,-619.545 135,-613.696 135.285,-607.035 135.019,-605.362 135,-598.696 134.778,-521.361 141.841,-501.632 134,-424.696 133.736,-422.106 133.37,-419.425 132.943,-416.75"/>
<polygon fill="black" stroke="black" points="136.342,-415.881 131.078,-406.686 129.459,-417.156 136.342,-415.881"/>
<text text-anchor="middle" x="145.5" y="-515.496" font-family="Times New Roman,serif" font-size="14.00">EP</text>
</g>
<!-- T12&#45;&gt;T11 -->
<g id="edge17" class="edge"><title>T12&#45;&gt;T11</title>
<path fill="none" stroke="black" d="M94,-493.871C94,-505.502 94,-521.115 94,-534.429"/>
<polygon fill="black" stroke="black" points="90.5001,-534.494 94,-544.494 97.5001,-534.495 90.5001,-534.494"/>
<text text-anchor="middle" x="102.5" y="-515.496" font-family="Times New Roman,serif" font-size="14.00">EP</text>
</g>
<!-- T12&#45;&gt;T13 -->
<g id="edge18" class="edge"><title>T12&#45;&gt;T13</title>
<path fill="none" stroke="black" d="M100.52,-457.902C105.175,-445.911 111.528,-429.547 116.845,-415.853"/>
<polygon fill="black" stroke="black" points="120.137,-417.043 120.494,-406.454 113.612,-414.509 120.137,-417.043"/>
<text text-anchor="middle" x="121.5" y="-428.496" font-family="Times New Roman,serif" font-size="14.00">EP</text>
</g>
<!-- T0&#45;&gt;T1 -->
<g id="edge3" class="edge"><title>T0&#45;&gt;T1</title>
<path fill="none" stroke="black" d="M125.48,-1327.9C120.825,-1315.91 114.472,-1299.55 109.155,-1285.85"/>
<polygon fill="black" stroke="black" points="112.388,-1284.51 105.506,-1276.45 105.863,-1287.04 112.388,-1284.51"/>
<text text-anchor="middle" x="125.5" y="-1298.5" font-family="Times New Roman,serif" font-size="14.00">EP</text>
</g>
<!-- T0&#45;&gt;T7 -->
<g id="edge2" class="edge"><title>T0&#45;&gt;T7</title>
<path fill="none" stroke="black" d="M138.961,-1328.09C145.406,-1311.19 154,-1284.08 154,-1259.7 154,-1259.7 154,-1259.7 154,-996.696 154,-976.498 148.106,-954.438 142.42,-937.854"/>
<polygon fill="black" stroke="black" points="145.657,-936.512 138.961,-928.301 139.075,-938.895 145.657,-936.512"/>
<text text-anchor="middle" x="162.5" y="-1124.5" font-family="Times New Roman,serif" font-size="14.00">EP</text>
</g>
<!-- T9&#45;&gt;T10 -->
<g id="edge13" class="edge"><title>T9&#45;&gt;T10</title>
<path fill="none" stroke="black" d="M132,-718.494C132,-706.858 132,-691.243 132,-677.932"/>
<polygon fill="black" stroke="black" points="135.5,-677.871 132,-667.871 128.5,-677.871 135.5,-677.871"/>
<text text-anchor="middle" x="137" y="-689.496" font-family="Times New Roman,serif" font-size="14.00">D</text>
</g>
<!-- T7&#45;&gt;T8 -->
<g id="edge11" class="edge"><title>T7&#45;&gt;T8</title>
<path fill="none" stroke="black" d="M132,-892.494C132,-880.858 132,-865.243 132,-851.932"/>
<polygon fill="black" stroke="black" points="135.5,-851.871 132,-841.871 128.5,-851.871 135.5,-851.871"/>
<text text-anchor="middle" x="137" y="-863.496" font-family="Times New Roman,serif" font-size="14.00">A</text>
</g>
<!-- T15&#45;&gt;T16 -->
<g id="edge21" class="edge"><title>T15&#45;&gt;T16</title>
<path fill="none" stroke="black" d="M165.48,-197.307C159.869,-185.077 152.097,-168.138 145.68,-154.152"/>
<polygon fill="black" stroke="black" points="148.848,-152.663 141.497,-145.034 142.486,-155.583 148.848,-152.663"/>
<text text-anchor="middle" x="160" y="-167.496" font-family="Times New Roman,serif" font-size="14.00">D</text>
</g>
<!-- T5&#45;&gt;T6 -->
<g id="edge9" class="edge"><title>T5&#45;&gt;T6</title>
<path fill="none" stroke="black" d="M99,-1066.49C99,-1054.86 99,-1039.24 99,-1025.93"/>
<polygon fill="black" stroke="black" points="102.5,-1025.87 99,-1015.87 95.5001,-1025.87 102.5,-1025.87"/>
<text text-anchor="middle" x="107.5" y="-1037.5" font-family="Times New Roman,serif" font-size="14.00">EP</text>
</g>
</g>
</svg>
