<?xml version="1.0" encoding="UTF-8" standalone="no"?>
<!DOCTYPE svg PUBLIC "-//W3C//DTD SVG 1.1//EN"
 "http://www.w3.org/Graphics/SVG/1.1/DTD/svg11.dtd">
<!-- Generated by graphviz version 2.38.0 (20140413.2041)
 -->
<!-- Title: %3 Pages: 1 -->
<svg width="219pt" height="836pt"
 viewBox="0.00 0.00 219.00 835.70" xmlns="http://www.w3.org/2000/svg" xmlns:xlink="http://www.w3.org/1999/xlink">
<g id="graph0" class="graph" transform="scale(1 1) rotate(0) translate(4 831.696)">
<title>%3</title>
<polygon fill="white" stroke="none" points="-4,4 -4,-831.696 215,-831.696 215,4 -4,4"/>
<!-- fake0 -->
<g id="node1" class="node"><title>fake0</title>
</g>
<!-- T0 -->
<g id="node12" class="node"><title>T0</title>
<ellipse fill="none" stroke="black" cx="165" cy="-736.696" rx="27" ry="18"/>
<text text-anchor="middle" x="165" y="-732.996" font-family="Times New Roman,serif" font-size="14.00">T0</text>
</g>
<!-- fake0&#45;&gt;T0 -->
<g id="edge1" class="edge"><title>fake0&#45;&gt;T0</title>
<path fill="none" stroke="black" stroke-width="2" d="M165,-791.508C165,-783.485 165,-773.743 165,-764.765"/>
<polygon fill="black" stroke="black" stroke-width="2" points="168.5,-764.724 165,-754.724 161.5,-764.724 168.5,-764.724"/>
</g>
<!-- T4 -->
<g id="node2" class="node"><title>T4</title>
<ellipse fill="none" stroke="black" cx="27" cy="-562.696" rx="27" ry="18"/>
<text text-anchor="middle" x="27" y="-558.996" font-family="Times New Roman,serif" font-size="14.00">T4</text>
</g>
<!-- T5 -->
<g id="node8" class="node"><title>T5</title>
<ellipse fill="none" stroke="black" cx="27" cy="-475.696" rx="27" ry="18"/>
<text text-anchor="middle" x="27" y="-471.996" font-family="Times New Roman,serif" font-size="14.00">T5</text>
</g>
<!-- T4&#45;&gt;T5 -->
<g id="edge8" class="edge"><title>T4&#45;&gt;T5</title>
<path fill="none" stroke="black" d="M27,-544.494C27,-532.858 27,-517.243 27,-503.932"/>
<polygon fill="black" stroke="black" points="30.5001,-503.871 27,-493.871 23.5001,-503.871 30.5001,-503.871"/>
<text text-anchor="middle" x="32" y="-515.496" font-family="Times New Roman,serif" font-size="14.00">B</text>
</g>
<!-- T1 -->
<g id="node3" class="node"><title>T1</title>
<ellipse fill="none" stroke="black" cx="124" cy="-649.696" rx="27" ry="18"/>
<text text-anchor="middle" x="124" y="-645.996" font-family="Times New Roman,serif" font-size="14.00">T1</text>
</g>
<!-- T1&#45;&gt;T4 -->
<g id="edge5" class="edge"><title>T1&#45;&gt;T4</title>
<path fill="none" stroke="black" d="M107.982,-634.659C92.3035,-620.92 68.2427,-599.836 50.4179,-584.216"/>
<polygon fill="black" stroke="black" points="52.5472,-581.429 42.7195,-577.47 47.9338,-586.693 52.5472,-581.429"/>
<text text-anchor="middle" x="89.5" y="-602.496" font-family="Times New Roman,serif" font-size="14.00">EP</text>
</g>
<!-- T2 -->
<g id="node10" class="node"><title>T2</title>
<ellipse fill="none" stroke="black" cx="99" cy="-562.696" rx="27" ry="18"/>
<text text-anchor="middle" x="99" y="-558.996" font-family="Times New Roman,serif" font-size="14.00">T2</text>
</g>
<!-- T1&#45;&gt;T2 -->
<g id="edge4" class="edge"><title>T1&#45;&gt;T2</title>
<path fill="none" stroke="black" d="M119.061,-631.902C115.568,-620.027 110.814,-603.864 106.811,-590.252"/>
<polygon fill="black" stroke="black" points="110.108,-589.06 103.929,-580.454 103.393,-591.035 110.108,-589.06"/>
<text text-anchor="middle" x="120.5" y="-602.496" font-family="Times New Roman,serif" font-size="14.00">EP</text>
</g>
<!-- T6 -->
<g id="node4" class="node"><title>T6</title>
<ellipse fill="none" stroke="black" cx="124" cy="-388.696" rx="27" ry="18"/>
<text text-anchor="middle" x="124" y="-384.996" font-family="Times New Roman,serif" font-size="14.00">T6</text>
</g>
<!-- T6&#45;&gt;T1 -->
<g id="edge11" class="edge"><title>T6&#45;&gt;T1</title>
<path fill="none" stroke="black" d="M129.743,-406.596C131.428,-412.28 133.068,-418.701 134,-424.696 144.656,-493.207 137.098,-511.392 135,-580.696 134.555,-595.382 135.285,-599.181 133,-613.696 132.576,-616.392 132.036,-619.182 131.432,-621.957"/>
<polygon fill="black" stroke="black" points="128.014,-621.199 129.055,-631.742 134.816,-622.851 128.014,-621.199"/>
<text text-anchor="middle" x="146.5" y="-515.496" font-family="Times New Roman,serif" font-size="14.00">EP</text>
</g>
<!-- T7 -->
<g id="node5" class="node"><title>T7</title>
<ellipse fill="none" stroke="black" cx="165" cy="-301.696" rx="27" ry="18"/>
<text text-anchor="middle" x="165" y="-297.996" font-family="Times New Roman,serif" font-size="14.00">T7</text>
</g>
<!-- T6&#45;&gt;T7 -->
<g id="edge10" class="edge"><title>T6&#45;&gt;T7</title>
<path fill="none" stroke="black" d="M131.905,-371.307C137.804,-359.077 145.975,-342.138 152.721,-328.152"/>
<polygon fill="black" stroke="black" points="155.927,-329.562 157.119,-319.034 149.622,-326.52 155.927,-329.562"/>
<text text-anchor="middle" x="156.5" y="-341.496" font-family="Times New Roman,serif" font-size="14.00">EP</text>
</g>
<!-- T8 -->
<g id="node9" class="node"><title>T8</title>
<ellipse fill="none" stroke="black" cx="165" cy="-214.696" rx="27" ry="18"/>
<text text-anchor="middle" x="165" y="-210.996" font-family="Times New Roman,serif" font-size="14.00">T8</text>
</g>
<!-- T7&#45;&gt;T8 -->
<g id="edge12" class="edge"><title>T7&#45;&gt;T8</title>
<path fill="none" stroke="black" d="M165,-283.494C165,-271.858 165,-256.243 165,-242.932"/>
<polygon fill="black" stroke="black" points="168.5,-242.871 165,-232.871 161.5,-242.871 168.5,-242.871"/>
<text text-anchor="middle" x="170" y="-254.496" font-family="Times New Roman,serif" font-size="14.00">A</text>
</g>
<!-- T3 -->
<g id="node6" class="node"><title>T3</title>
<ellipse fill="none" stroke="black" cx="99" cy="-475.696" rx="27" ry="18"/>
<text text-anchor="middle" x="99" y="-471.996" font-family="Times New Roman,serif" font-size="14.00">T3</text>
</g>
<!-- T3&#45;&gt;T6 -->
<g id="edge7" class="edge"><title>T3&#45;&gt;T6</title>
<path fill="none" stroke="black" d="M103.939,-457.902C107.432,-446.027 112.186,-429.864 116.189,-416.252"/>
<polygon fill="black" stroke="black" points="119.607,-417.035 119.071,-406.454 112.892,-415.06 119.607,-417.035"/>
<text text-anchor="middle" x="121.5" y="-428.496" font-family="Times New Roman,serif" font-size="14.00">EP</text>
</g>
<!-- T9 -->
<g id="node7" class="node"><title>T9</title>
<ellipse fill="none" stroke="black" cx="165" cy="-127.696" rx="27" ry="18"/>
<text text-anchor="middle" x="165" y="-123.996" font-family="Times New Roman,serif" font-size="14.00">T9</text>
</g>
<!-- T10 -->
<g id="node11" class="node"><title>T10</title>
<ellipse fill="none" stroke="black" cx="165" cy="-29.3478" rx="25.2169" ry="25.2169"/>
<ellipse fill="none" stroke="black" cx="165" cy="-29.3478" rx="29.1963" ry="29.1963"/>
<text text-anchor="middle" x="165" y="-25.6478" font-family="Times New Roman,serif" font-size="14.00">T10</text>
</g>
<!-- T9&#45;&gt;T10 -->
<g id="edge14" class="edge"><title>T9&#45;&gt;T10</title>
<path fill="none" stroke="black" d="M165,-109.47C165,-98.256 165,-83.1612 165,-69.1629"/>
<polygon fill="black" stroke="black" points="168.5,-68.7544 165,-58.7545 161.5,-68.7545 168.5,-68.7544"/>
<text text-anchor="middle" x="170" y="-80.4955" font-family="Times New Roman,serif" font-size="14.00">B</text>
</g>
<!-- T5&#45;&gt;T6 -->
<g id="edge9" class="edge"><title>T5&#45;&gt;T6</title>
<path fill="none" stroke="black" d="M43.0176,-460.659C58.6965,-446.92 82.7573,-425.836 100.582,-410.216"/>
<polygon fill="black" stroke="black" points="103.066,-412.693 108.28,-403.47 98.4528,-407.429 103.066,-412.693"/>
<text text-anchor="middle" x="92.5" y="-428.496" font-family="Times New Roman,serif" font-size="14.00">EP</text>
</g>
<!-- T8&#45;&gt;T9 -->
<g id="edge13" class="edge"><title>T8&#45;&gt;T9</title>
<path fill="none" stroke="black" d="M165,-196.494C165,-184.858 165,-169.243 165,-155.932"/>
<polygon fill="black" stroke="black" points="168.5,-155.871 165,-145.871 161.5,-155.871 168.5,-155.871"/>
<text text-anchor="middle" x="170" y="-167.496" font-family="Times New Roman,serif" font-size="14.00">B</text>
</g>
<!-- T2&#45;&gt;T3 -->
<g id="edge6" class="edge"><title>T2&#45;&gt;T3</title>
<path fill="none" stroke="black" d="M99,-544.494C99,-532.858 99,-517.243 99,-503.932"/>
<polygon fill="black" stroke="black" points="102.5,-503.871 99,-493.871 95.5001,-503.871 102.5,-503.871"/>
<text text-anchor="middle" x="104" y="-515.496" font-family="Times New Roman,serif" font-size="14.00">A</text>
</g>
<!-- T0&#45;&gt;T1 -->
<g id="edge3" class="edge"><title>T0&#45;&gt;T1</title>
<path fill="none" stroke="black" d="M157.095,-719.307C151.196,-707.077 143.025,-690.138 136.279,-676.152"/>
<polygon fill="black" stroke="black" points="139.378,-674.52 131.881,-667.034 133.073,-677.562 139.378,-674.52"/>
<text text-anchor="middle" x="154.5" y="-689.496" font-family="Times New Roman,serif" font-size="14.00">EP</text>
</g>
<!-- T0&#45;&gt;T7 -->
<g id="edge2" class="edge"><title>T0&#45;&gt;T7</title>
<path fill="none" stroke="black" d="M174.017,-719.638C182.53,-702.946 194,-675.799 194,-650.696 194,-650.696 194,-650.696 194,-387.696 194,-366.711 185.985,-344.297 178.382,-327.758"/>
<polygon fill="black" stroke="black" points="181.528,-326.225 174.017,-318.753 175.23,-329.278 181.528,-326.225"/>
<text text-anchor="middle" x="202.5" y="-515.496" font-family="Times New Roman,serif" font-size="14.00">EP</text>
</g>
</g>
</svg>
