<?xml version="1.0" encoding="UTF-8" standalone="no"?>
<!DOCTYPE svg PUBLIC "-//W3C//DTD SVG 1.1//EN"
 "http://www.w3.org/Graphics/SVG/1.1/DTD/svg11.dtd">
<!-- Generated by graphviz version 2.38.0 (20140413.2041)
 -->
<!-- Title: %3 Pages: 1 -->
<svg width="169pt" height="479pt"
 viewBox="0.00 0.00 168.80 478.60" xmlns="http://www.w3.org/2000/svg" xmlns:xlink="http://www.w3.org/1999/xlink">
<g id="graph0" class="graph" transform="scale(1 1) rotate(0) translate(4 474.596)">
<title>%3</title>
<polygon fill="white" stroke="none" points="-4,4 -4,-474.596 164.801,-474.596 164.801,4 -4,4"/>
<!-- fake0 -->
<g id="node1" class="node"><title>fake0</title>
</g>
<!-- T0 -->
<g id="node6" class="node"><title>T0</title>
<ellipse fill="none" stroke="black" cx="123.801" cy="-379.596" rx="27" ry="18"/>
<text text-anchor="middle" x="123.801" y="-375.896" font-family="Times New Roman,serif" font-size="14.00">T0</text>
</g>
<!-- fake0&#45;&gt;T0 -->
<g id="edge1" class="edge"><title>fake0&#45;&gt;T0</title>
<path fill="none" stroke="black" stroke-width="2" d="M123.801,-434.409C123.801,-426.386 123.801,-416.644 123.801,-407.665"/>
<polygon fill="black" stroke="black" stroke-width="2" points="127.301,-407.625 123.801,-397.625 120.301,-407.625 127.301,-407.625"/>
</g>
<!-- T4 -->
<g id="node2" class="node"><title>T4</title>
<ellipse fill="none" stroke="black" cx="49.8007" cy="-111.798" rx="20.6302" ry="20.6302"/>
<ellipse fill="none" stroke="black" cx="49.8007" cy="-111.798" rx="24.5979" ry="24.5979"/>
<text text-anchor="middle" x="49.8007" y="-108.098" font-family="Times New Roman,serif" font-size="14.00">T4</text>
</g>
<!-- T1 -->
<g id="node3" class="node"><title>T1</title>
<ellipse fill="none" stroke="black" cx="67.8007" cy="-292.596" rx="27" ry="18"/>
<text text-anchor="middle" x="67.8007" y="-288.896" font-family="Times New Roman,serif" font-size="14.00">T1</text>
</g>
<!-- T4&#45;&gt;T1 -->
<g id="edge10" class="edge"><title>T4&#45;&gt;T1</title>
<path fill="none" stroke="black" d="M33.2956,-130.766C15.316,-152.623 -9.25196,-190.683 3.80074,-223.596 11.4945,-242.997 27.6345,-260.081 41.7804,-272.273"/>
<polygon fill="black" stroke="black" points="39.8527,-275.219 49.8,-278.866 44.2983,-269.812 39.8527,-275.219"/>
<text text-anchor="middle" x="8.80074" y="-201.896" font-family="Times New Roman,serif" font-size="14.00">A</text>
</g>
<!-- T2 -->
<g id="node5" class="node"><title>T2</title>
<ellipse fill="none" stroke="black" cx="104.801" cy="-18" rx="27" ry="18"/>
<text text-anchor="middle" x="104.801" y="-14.3" font-family="Times New Roman,serif" font-size="14.00">T2</text>
</g>
<!-- T4&#45;&gt;T2 -->
<g id="edge11" class="edge"><title>T4&#45;&gt;T2</title>
<path fill="none" stroke="black" d="M60.7828,-89.4687C66.4985,-78.6884 73.7506,-65.4902 80.8007,-54 83.0548,-50.3263 85.532,-46.5039 88.0126,-42.7926"/>
<polygon fill="black" stroke="black" points="90.9557,-44.6892 93.7035,-34.4568 85.1744,-40.7423 90.9557,-44.6892"/>
<text text-anchor="middle" x="85.8007" y="-57.8" font-family="Times New Roman,serif" font-size="14.00">B</text>
</g>
<!-- T1&#45;&gt;T1 -->
<g id="edge4" class="edge"><title>T1&#45;&gt;T1</title>
<path fill="none" stroke="black" d="M92.3332,-300.348C103.309,-301.087 112.801,-298.503 112.801,-292.596 112.801,-288.628 108.516,-286.16 102.375,-285.191"/>
<polygon fill="black" stroke="black" points="102.448,-281.691 92.3332,-284.844 102.207,-288.687 102.448,-281.691"/>
<text text-anchor="middle" x="117.801" y="-288.896" font-family="Times New Roman,serif" font-size="14.00">A</text>
</g>
<!-- T3 -->
<g id="node4" class="node"><title>T3</title>
<ellipse fill="none" stroke="black" cx="49.8007" cy="-205.596" rx="27" ry="18"/>
<text text-anchor="middle" x="49.8007" y="-201.896" font-family="Times New Roman,serif" font-size="14.00">T3</text>
</g>
<!-- T1&#45;&gt;T3 -->
<g id="edge5" class="edge"><title>T1&#45;&gt;T3</title>
<path fill="none" stroke="black" d="M53.8021,-277.137C49.0276,-271.248 44.273,-264.07 41.8007,-256.596 39.3333,-249.137 39.5638,-240.792 40.9092,-233.088"/>
<polygon fill="black" stroke="black" points="44.3699,-233.664 43.2861,-223.125 37.561,-232.04 44.3699,-233.664"/>
<text text-anchor="middle" x="46.8007" y="-245.396" font-family="Times New Roman,serif" font-size="14.00">B</text>
</g>
<!-- T3&#45;&gt;T4 -->
<g id="edge9" class="edge"><title>T3&#45;&gt;T4</title>
<path fill="none" stroke="black" d="M49.8007,-187.33C49.8007,-175.99 49.8007,-160.767 49.8007,-147.036"/>
<polygon fill="black" stroke="black" points="53.3008,-146.915 49.8007,-136.915 46.3008,-146.915 53.3008,-146.915"/>
<text text-anchor="middle" x="54.8007" y="-158.396" font-family="Times New Roman,serif" font-size="14.00">B</text>
</g>
<!-- T3&#45;&gt;T1 -->
<g id="edge8" class="edge"><title>T3&#45;&gt;T1</title>
<path fill="none" stroke="black" d="M53.3765,-223.482C55.8414,-235.121 59.1721,-250.85 62.0119,-264.26"/>
<polygon fill="black" stroke="black" points="58.6623,-265.337 64.1582,-274.395 65.5105,-263.887 58.6623,-265.337"/>
<text text-anchor="middle" x="65.8007" y="-245.396" font-family="Times New Roman,serif" font-size="14.00">A</text>
</g>
<!-- T2&#45;&gt;T1 -->
<g id="edge6" class="edge"><title>T2&#45;&gt;T1</title>
<path fill="none" stroke="black" d="M104.173,-36.1033C102.667,-71.3956 98.0214,-154.753 85.8007,-223.596 83.3494,-237.405 79.475,-252.51 75.9476,-264.968"/>
<polygon fill="black" stroke="black" points="72.5421,-264.144 73.1051,-274.724 79.2627,-266.102 72.5421,-264.144"/>
<text text-anchor="middle" x="100.801" y="-158.396" font-family="Times New Roman,serif" font-size="14.00">A</text>
</g>
<!-- T2&#45;&gt;T2 -->
<g id="edge7" class="edge"><title>T2&#45;&gt;T2</title>
<path fill="none" stroke="black" d="M129.333,-25.752C140.309,-26.4902 149.801,-23.9063 149.801,-18 149.801,-14.0317 145.516,-11.5632 139.375,-10.5944"/>
<polygon fill="black" stroke="black" points="139.448,-7.09491 129.333,-10.248 139.207,-14.0908 139.448,-7.09491"/>
<text text-anchor="middle" x="154.801" y="-14.3" font-family="Times New Roman,serif" font-size="14.00">B</text>
</g>
<!-- T0&#45;&gt;T1 -->
<g id="edge2" class="edge"><title>T0&#45;&gt;T1</title>
<path fill="none" stroke="black" d="M113.268,-362.608C104.976,-350.024 93.2833,-332.275 83.8316,-317.929"/>
<polygon fill="black" stroke="black" points="86.711,-315.938 78.2867,-309.512 80.8656,-319.789 86.711,-315.938"/>
<text text-anchor="middle" x="104.801" y="-332.396" font-family="Times New Roman,serif" font-size="14.00">A</text>
</g>
<!-- T0&#45;&gt;T2 -->
<g id="edge3" class="edge"><title>T0&#45;&gt;T2</title>
<path fill="none" stroke="black" d="M132.196,-362.466C140.122,-345.717 150.801,-318.525 150.801,-293.596 150.801,-293.596 150.801,-293.596 150.801,-110.798 150.801,-85.368 136.516,-59.7739 123.868,-42.0953"/>
<polygon fill="black" stroke="black" points="126.661,-39.986 117.859,-34.088 121.062,-44.1873 126.661,-39.986"/>
<text text-anchor="middle" x="155.801" y="-201.896" font-family="Times New Roman,serif" font-size="14.00">B</text>
</g>
</g>
</svg>
