<?xml version="1.0" encoding="UTF-8" standalone="no"?>
<!DOCTYPE svg PUBLIC "-//W3C//DTD SVG 1.1//EN"
 "http://www.w3.org/Graphics/SVG/1.1/DTD/svg11.dtd">
<!-- Generated by graphviz version 2.38.0 (20140413.2041)
 -->
<!-- Title: %3 Pages: 1 -->
<svg width="1152pt" height="923pt"
 viewBox="0.00 0.00 1152.00 922.70" xmlns="http://www.w3.org/2000/svg" xmlns:xlink="http://www.w3.org/1999/xlink">
<g id="graph0" class="graph" transform="scale(1 1) rotate(0) translate(4 918.696)">
<title>%3</title>
<polygon fill="white" stroke="none" points="-4,4 -4,-918.696 1148,-918.696 1148,4 -4,4"/>
<!-- fake0 -->
<g id="node1" class="node"><title>fake0</title>
</g>
<!-- T0 -->
<g id="node9" class="node"><title>T0</title>
<ellipse fill="none" stroke="black" cx="1058" cy="-823.696" rx="27" ry="18"/>
<text text-anchor="middle" x="1058" y="-819.996" font-family="Times New Roman,serif" font-size="14.00">T0</text>
</g>
<!-- fake0&#45;&gt;T0 -->
<g id="edge1" class="edge"><title>fake0&#45;&gt;T0</title>
<path fill="none" stroke="black" stroke-width="2" d="M1058,-878.508C1058,-870.485 1058,-860.743 1058,-851.765"/>
<polygon fill="black" stroke="black" stroke-width="2" points="1061.5,-851.724 1058,-841.724 1054.5,-851.724 1061.5,-851.724"/>
</g>
<!-- T2 -->
<g id="node2" class="node"><title>T2</title>
<ellipse fill="none" stroke="black" cx="213" cy="-736.696" rx="27" ry="18"/>
<text text-anchor="middle" x="213" y="-732.996" font-family="Times New Roman,serif" font-size="14.00">T2</text>
</g>
<!-- T3 -->
<g id="node5" class="node"><title>T3</title>
<ellipse fill="none" stroke="black" cx="566" cy="-18" rx="27" ry="18"/>
<text text-anchor="middle" x="566" y="-14.3" font-family="Times New Roman,serif" font-size="14.00">T3</text>
</g>
<!-- T2&#45;&gt;T3 -->
<g id="edge13" class="edge"><title>T2&#45;&gt;T3</title>
<path fill="none" stroke="black" d="M187.634,-729.968C152.153,-720.284 92,-697.034 92,-650.696 92,-650.696 92,-650.696 92,-104 92,-79.3504 95.662,-67.9274 116,-54 149.72,-30.9087 427.318,-22.2093 528.924,-19.7801"/>
<polygon fill="black" stroke="black" points="529.115,-23.2766 539.031,-19.5453 528.953,-16.2785 529.115,-23.2766"/>
<text text-anchor="middle" x="97" y="-384.996" font-family="Times New Roman,serif" font-size="14.00">B</text>
</g>
<!-- T2&#45;&gt;T3 -->
<g id="edge14" class="edge"><title>T2&#45;&gt;T3</title>
<path fill="none" stroke="black" d="M186.39,-733.138C142.383,-728.488 56.8279,-717.545 32,-700.696 10.1689,-685.88 0,-677.079 0,-650.696 0,-650.696 0,-650.696 0,-104 0,-77.6163 9.28234,-67.4167 32,-54 74.5213,-28.8876 414.745,-21.3462 528.847,-19.5113"/>
<polygon fill="black" stroke="black" points="528.912,-23.0108 538.857,-19.3557 528.803,-16.0116 528.912,-23.0108"/>
<text text-anchor="middle" x="5" y="-384.996" font-family="Times New Roman,serif" font-size="14.00">D</text>
</g>
<!-- T2&#45;&gt;T3 -->
<g id="edge15" class="edge"><title>T2&#45;&gt;T3</title>
<path fill="none" stroke="black" d="M192.901,-724.441C170.685,-710.345 138,-683.955 138,-650.696 138,-650.696 138,-650.696 138,-431.196 138,-257.647 83.6177,-131.3 239,-54 289.062,-29.0947 453.94,-21.8113 528.636,-19.7637"/>
<polygon fill="black" stroke="black" points="529.071,-23.2538 538.978,-19.4981 528.891,-16.2561 529.071,-23.2538"/>
<text text-anchor="middle" x="142.5" y="-384.996" font-family="Times New Roman,serif" font-size="14.00">F</text>
</g>
<!-- T2&#45;&gt;T3 -->
<g id="edge16" class="edge"><title>T2&#45;&gt;T3</title>
<path fill="none" stroke="black" d="M186.169,-734.056C138.962,-729.565 46,-712.833 46,-650.696 46,-650.696 46,-650.696 46,-104 46,-72.573 67.4322,-67.0971 96,-54 172.8,-18.7907 431.534,-17.6109 528.704,-18.4707"/>
<polygon fill="black" stroke="black" points="528.898,-21.9728 538.933,-18.5744 528.969,-14.9731 528.898,-21.9728"/>
<text text-anchor="middle" x="51" y="-384.996" font-family="Times New Roman,serif" font-size="14.00">C</text>
</g>
<!-- T4 -->
<g id="node7" class="node"><title>T4</title>
<ellipse fill="none" stroke="black" cx="661" cy="-649.696" rx="27" ry="18"/>
<text text-anchor="middle" x="661" y="-645.996" font-family="Times New Roman,serif" font-size="14.00">T4</text>
</g>
<!-- T2&#45;&gt;T4 -->
<g id="edge12" class="edge"><title>T2&#45;&gt;T4</title>
<path fill="none" stroke="black" d="M238.696,-730.82C314.627,-716.414 538.116,-674.011 625.452,-657.44"/>
<polygon fill="black" stroke="black" points="626.236,-660.854 635.408,-655.551 624.931,-653.977 626.236,-660.854"/>
<text text-anchor="middle" x="483" y="-689.496" font-family="Times New Roman,serif" font-size="14.00">A</text>
</g>
<!-- T6 -->
<g id="node3" class="node"><title>T6</title>
<ellipse fill="none" stroke="black" cx="478" cy="-475.696" rx="27" ry="18"/>
<text text-anchor="middle" x="478" y="-471.996" font-family="Times New Roman,serif" font-size="14.00">T6</text>
</g>
<!-- T6&#45;&gt;T2 -->
<g id="edge33" class="edge"><title>T6&#45;&gt;T2</title>
<path fill="none" stroke="black" d="M466.838,-492.109C438.273,-530.797 358.842,-633.692 275,-700.696 265.366,-708.395 253.824,-715.409 243.324,-721.103"/>
<polygon fill="black" stroke="black" points="241.678,-718.014 234.44,-725.75 244.923,-724.216 241.678,-718.014"/>
<text text-anchor="middle" x="385" y="-602.496" font-family="Times New Roman,serif" font-size="14.00">B</text>
</g>
<!-- T8 -->
<g id="node4" class="node"><title>T8</title>
<ellipse fill="none" stroke="black" cx="357" cy="-388.696" rx="27" ry="18"/>
<text text-anchor="middle" x="357" y="-384.996" font-family="Times New Roman,serif" font-size="14.00">T8</text>
</g>
<!-- T6&#45;&gt;T8 -->
<g id="edge35" class="edge"><title>T6&#45;&gt;T8</title>
<path fill="none" stroke="black" d="M459.055,-462.848C448.605,-456.205 435.462,-447.674 424,-439.696 409.966,-429.927 394.659,-418.56 382.223,-409.135"/>
<polygon fill="black" stroke="black" points="384.199,-406.24 374.123,-402.963 379.957,-411.808 384.199,-406.24"/>
<text text-anchor="middle" x="428.5" y="-428.496" font-family="Times New Roman,serif" font-size="14.00">F</text>
</g>
<!-- T6&#45;&gt;T3 -->
<g id="edge34" class="edge"><title>T6&#45;&gt;T3</title>
<path fill="none" stroke="black" d="M487.881,-458.764C491.162,-452.933 494.589,-446.175 497,-439.696 555.813,-281.643 559.895,-236.666 578,-69 578.716,-62.3719 579.096,-60.576 578,-54 577.515,-51.0893 576.817,-48.0962 576,-45.144"/>
<polygon fill="black" stroke="black" points="579.275,-43.8968 572.888,-35.4437 572.61,-46.0349 579.275,-43.8968"/>
<text text-anchor="middle" x="560" y="-254.496" font-family="Times New Roman,serif" font-size="14.00">D</text>
</g>
<!-- T9 -->
<g id="node10" class="node"><title>T9</title>
<ellipse fill="none" stroke="black" cx="364" cy="-301.696" rx="27" ry="18"/>
<text text-anchor="middle" x="364" y="-297.996" font-family="Times New Roman,serif" font-size="14.00">T9</text>
</g>
<!-- T6&#45;&gt;T9 -->
<g id="edge36" class="edge"><title>T6&#45;&gt;T9</title>
<path fill="none" stroke="black" d="M470.02,-458.304C459.56,-437.346 440.16,-400.238 420,-370.696 409.181,-354.841 395.51,-338.188 384.384,-325.33"/>
<polygon fill="black" stroke="black" points="386.721,-322.686 377.496,-317.475 381.458,-327.301 386.721,-322.686"/>
<text text-anchor="middle" x="448" y="-384.996" font-family="Times New Roman,serif" font-size="14.00">C</text>
</g>
<!-- T7 -->
<g id="node11" class="node"><title>T7</title>
<ellipse fill="none" stroke="black" cx="518" cy="-105" rx="27" ry="18"/>
<text text-anchor="middle" x="518" y="-101.3" font-family="Times New Roman,serif" font-size="14.00">T7</text>
</g>
<!-- T6&#45;&gt;T7 -->
<g id="edge32" class="edge"><title>T6&#45;&gt;T7</title>
<path fill="none" stroke="black" d="M479.876,-457.407C486.266,-398.501 507.226,-205.31 515.034,-133.342"/>
<polygon fill="black" stroke="black" points="518.529,-133.57 516.128,-123.251 511.57,-132.815 518.529,-133.57"/>
<text text-anchor="middle" x="504" y="-297.996" font-family="Times New Roman,serif" font-size="14.00">A</text>
</g>
<!-- T8&#45;&gt;T2 -->
<g id="edge43" class="edge"><title>T8&#45;&gt;T2</title>
<path fill="none" stroke="black" d="M338.49,-402.312C310.594,-422.99 261,-466.957 261,-518.196 261,-650.696 261,-650.696 261,-650.696 261,-674.219 246.889,-697.222 233.968,-713.354"/>
<polygon fill="black" stroke="black" points="231.18,-711.231 227.402,-721.13 236.528,-715.748 231.18,-711.231"/>
<text text-anchor="middle" x="266" y="-558.996" font-family="Times New Roman,serif" font-size="14.00">B</text>
</g>
<!-- T8&#45;&gt;T8 -->
<g id="edge45" class="edge"><title>T8&#45;&gt;T8</title>
<path fill="none" stroke="black" d="M381.532,-396.447C392.508,-397.186 402,-394.602 402,-388.696 402,-384.727 397.715,-382.259 391.574,-381.29"/>
<polygon fill="black" stroke="black" points="391.647,-377.79 381.532,-380.944 391.406,-384.786 391.647,-377.79"/>
<text text-anchor="middle" x="406.5" y="-384.996" font-family="Times New Roman,serif" font-size="14.00">F</text>
</g>
<!-- T8&#45;&gt;T3 -->
<g id="edge44" class="edge"><title>T8&#45;&gt;T3</title>
<path fill="none" stroke="black" d="M341.313,-373.818C314.368,-348.806 260.244,-293.116 240,-232.696 219.305,-170.927 222.649,-142.958 256,-87 267.976,-66.9067 275.487,-63.1854 297,-54 338.028,-36.4818 465.655,-25.7237 529.236,-21.3143"/>
<polygon fill="black" stroke="black" points="529.493,-24.8051 539.233,-20.6369 529.019,-17.8211 529.493,-24.8051"/>
<text text-anchor="middle" x="245" y="-199.648" font-family="Times New Roman,serif" font-size="14.00">D</text>
</g>
<!-- T8&#45;&gt;T9 -->
<g id="edge46" class="edge"><title>T8&#45;&gt;T9</title>
<path fill="none" stroke="black" d="M358.417,-370.494C359.375,-358.858 360.661,-343.243 361.757,-329.932"/>
<polygon fill="black" stroke="black" points="365.253,-330.124 362.586,-319.871 358.277,-329.55 365.253,-330.124"/>
<text text-anchor="middle" x="367" y="-341.496" font-family="Times New Roman,serif" font-size="14.00">C</text>
</g>
<!-- T8&#45;&gt;T7 -->
<g id="edge42" class="edge"><title>T8&#45;&gt;T7</title>
<path fill="none" stroke="black" d="M371.477,-373.049C392.419,-351.222 431.348,-308.157 456,-265.696 459.524,-259.626 491.57,-175.655 508.153,-131.984"/>
<polygon fill="black" stroke="black" points="511.451,-133.16 511.726,-122.569 504.906,-130.676 511.451,-133.16"/>
<text text-anchor="middle" x="468" y="-254.496" font-family="Times New Roman,serif" font-size="14.00">A</text>
</g>
<!-- T3&#45;&gt;T3 -->
<g id="edge17" class="edge"><title>T3&#45;&gt;T3</title>
<path fill="none" stroke="black" d="M593.241,-19.5735C603.024,-19.6073 611,-19.0828 611,-18 611,-17.3402 608.038,-16.8876 603.51,-16.6425"/>
<polygon fill="black" stroke="black" points="603.312,-13.1376 593.241,-16.4265 603.165,-20.1361 603.312,-13.1376"/>
<text text-anchor="middle" x="616" y="-14.3" font-family="Times New Roman,serif" font-size="14.00">A</text>
</g>
<!-- T3&#45;&gt;T3 -->
<g id="edge18" class="edge"><title>T3&#45;&gt;T3</title>
<path fill="none" stroke="black" d="M592.87,-20.8576C611.127,-21.6924 629,-20.7398 629,-18 629,-15.7739 617.201,-14.7277 602.983,-14.8614"/>
<polygon fill="black" stroke="black" points="602.768,-11.3659 592.87,-15.1424 602.963,-18.3632 602.768,-11.3659"/>
<text text-anchor="middle" x="634" y="-14.3" font-family="Times New Roman,serif" font-size="14.00">B</text>
</g>
<!-- T3&#45;&gt;T3 -->
<g id="edge19" class="edge"><title>T3&#45;&gt;T3</title>
<path fill="none" stroke="black" d="M592.549,-21.7549C618.494,-23.829 647,-22.5773 647,-18 647,-14.0127 625.369,-12.549 602.643,-13.6088"/>
<polygon fill="black" stroke="black" points="602.309,-10.1229 592.549,-14.2451 602.749,-17.109 602.309,-10.1229"/>
<text text-anchor="middle" x="652" y="-14.3" font-family="Times New Roman,serif" font-size="14.00">D</text>
</g>
<!-- T3&#45;&gt;T3 -->
<g id="edge20" class="edge"><title>T3&#45;&gt;T3</title>
<path fill="none" stroke="black" d="M592.36,-22.4158C625.518,-25.9688 665,-24.4969 665,-18 665,-12.163 633.131,-10.382 602.611,-12.6571"/>
<polygon fill="black" stroke="black" points="602.004,-9.19758 592.36,-13.5842 602.635,-16.1691 602.004,-9.19758"/>
<text text-anchor="middle" x="669.5" y="-14.3" font-family="Times New Roman,serif" font-size="14.00">F</text>
</g>
<!-- T3&#45;&gt;T3 -->
<g id="edge21" class="edge"><title>T3&#45;&gt;T3</title>
<path fill="none" stroke="black" d="M592.152,-22.9131C632.248,-28.1074 683,-26.4697 683,-18 683,-10.2251 640.233,-8.20723 602.2,-11.9465"/>
<polygon fill="black" stroke="black" points="601.693,-8.48152 592.152,-13.0869 602.483,-15.4369 601.693,-8.48152"/>
<text text-anchor="middle" x="688" y="-14.3" font-family="Times New Roman,serif" font-size="14.00">C</text>
</g>
<!-- T1 -->
<g id="node6" class="node"><title>T1</title>
<ellipse fill="none" stroke="black" cx="952" cy="-736.696" rx="27" ry="18"/>
<text text-anchor="middle" x="952" y="-732.996" font-family="Times New Roman,serif" font-size="14.00">T1</text>
</g>
<!-- T1&#45;&gt;T3 -->
<g id="edge8" class="edge"><title>T1&#45;&gt;T3</title>
<path fill="none" stroke="black" d="M970.942,-723.462C991.062,-708.811 1020,-682.255 1020,-650.696 1020,-650.696 1020,-650.696 1020,-104 1020,-77.6163 1010.6,-67.6127 988,-54 955.45,-34.3948 700.229,-23.628 603.233,-20.2109"/>
<polygon fill="black" stroke="black" points="603.127,-16.7053 593.012,-19.8576 602.885,-23.7011 603.127,-16.7053"/>
<text text-anchor="middle" x="1025" y="-384.996" font-family="Times New Roman,serif" font-size="14.00">B</text>
</g>
<!-- T1&#45;&gt;T3 -->
<g id="edge9" class="edge"><title>T1&#45;&gt;T3</title>
<path fill="none" stroke="black" d="M944.723,-719.12C937.984,-702.244 929,-675.156 929,-650.696 929,-650.696 929,-650.696 929,-104 929,-37.5475 695.461,-23.0121 603.025,-19.8616"/>
<polygon fill="black" stroke="black" points="603.093,-16.3621 592.987,-19.5458 602.872,-23.3586 603.093,-16.3621"/>
<text text-anchor="middle" x="933.5" y="-384.996" font-family="Times New Roman,serif" font-size="14.00">F</text>
</g>
<!-- T1&#45;&gt;T3 -->
<g id="edge10" class="edge"><title>T1&#45;&gt;T3</title>
<path fill="none" stroke="black" d="M958.961,-719.09C965.406,-702.19 974,-675.085 974,-650.696 974,-650.696 974,-650.696 974,-104 974,-28.6157 703.682,-19.636 603.107,-18.9038"/>
<polygon fill="black" stroke="black" points="603.103,-15.4039 593.086,-18.8545 603.069,-22.4038 603.103,-15.4039"/>
<text text-anchor="middle" x="979" y="-384.996" font-family="Times New Roman,serif" font-size="14.00">C</text>
</g>
<!-- T1&#45;&gt;T4 -->
<g id="edge7" class="edge"><title>T1&#45;&gt;T4</title>
<path fill="none" stroke="black" d="M925.088,-733.805C886.007,-730.437 811.697,-721.667 752,-700.696 729.262,-692.708 705.454,-679.426 687.896,-668.558"/>
<polygon fill="black" stroke="black" points="689.644,-665.523 679.322,-663.136 685.903,-671.439 689.644,-665.523"/>
<text text-anchor="middle" x="757" y="-689.496" font-family="Times New Roman,serif" font-size="14.00">A</text>
</g>
<!-- T5 -->
<g id="node12" class="node"><title>T5</title>
<ellipse fill="none" stroke="black" cx="761" cy="-562.696" rx="27" ry="18"/>
<text text-anchor="middle" x="761" y="-558.996" font-family="Times New Roman,serif" font-size="14.00">T5</text>
</g>
<!-- T1&#45;&gt;T5 -->
<g id="edge11" class="edge"><title>T1&#45;&gt;T5</title>
<path fill="none" stroke="black" d="M936.37,-721.62C902.849,-691.434 823.895,-620.334 784.381,-584.751"/>
<polygon fill="black" stroke="black" points="786.352,-581.815 776.578,-577.724 781.667,-587.017 786.352,-581.815"/>
<text text-anchor="middle" x="881" y="-645.996" font-family="Times New Roman,serif" font-size="14.00">D</text>
</g>
<!-- T4&#45;&gt;T3 -->
<g id="edge22" class="edge"><title>T4&#45;&gt;T3</title>
<path fill="none" stroke="black" d="M638.911,-639.082C556.712,-601.714 270.847,-456.99 224,-232.696 207.32,-152.834 192.84,-90.1067 266,-54 311.397,-31.5952 458.98,-23.0768 528.776,-20.2431"/>
<polygon fill="black" stroke="black" points="529.029,-23.736 538.886,-19.8505 528.757,-16.7413 529.029,-23.736"/>
<text text-anchor="middle" x="279" y="-341.496" font-family="Times New Roman,serif" font-size="14.00">A</text>
</g>
<!-- T4&#45;&gt;T3 -->
<g id="edge23" class="edge"><title>T4&#45;&gt;T3</title>
<path fill="none" stroke="black" d="M651.983,-632.638C643.47,-615.946 632,-588.799 632,-563.696 632,-563.696 632,-563.696 632,-104 632,-76.943 610.879,-53.2967 592.533,-37.861"/>
<polygon fill="black" stroke="black" points="594.385,-34.8619 584.385,-31.364 590.021,-40.335 594.385,-34.8619"/>
<text text-anchor="middle" x="637" y="-341.496" font-family="Times New Roman,serif" font-size="14.00">B</text>
</g>
<!-- T4&#45;&gt;T3 -->
<g id="edge24" class="edge"><title>T4&#45;&gt;T3</title>
<path fill="none" stroke="black" d="M661.676,-631.614C663.77,-577.236 670,-403.268 670,-259.196 670,-259.196 670,-259.196 670,-104 670,-66.8615 629.748,-43.0342 599.328,-30.3298"/>
<polygon fill="black" stroke="black" points="600.446,-27.0087 589.86,-26.593 597.876,-33.5199 600.446,-27.0087"/>
<text text-anchor="middle" x="674.5" y="-341.496" font-family="Times New Roman,serif" font-size="14.00">F</text>
</g>
<!-- T4&#45;&gt;T3 -->
<g id="edge25" class="edge"><title>T4&#45;&gt;T3</title>
<path fill="none" stroke="black" d="M686.901,-644.432C745.462,-634.06 883,-605.275 883,-563.696 883,-563.696 883,-563.696 883,-431.196 883,-354.668 891,-335.723 891,-259.196 891,-259.196 891,-259.196 891,-104 891,-68.6003 861.529,-67.9638 829,-54 789.188,-36.9097 665.872,-26.0372 603.272,-21.4728"/>
<polygon fill="black" stroke="black" points="603.269,-17.9637 593.045,-20.7439 602.771,-24.946 603.269,-17.9637"/>
<text text-anchor="middle" x="893" y="-341.496" font-family="Times New Roman,serif" font-size="14.00">C</text>
</g>
<!-- T4&#45;&gt;T5 -->
<g id="edge26" class="edge"><title>T4&#45;&gt;T5</title>
<path fill="none" stroke="black" d="M677.863,-635.208C685.843,-628.765 695.472,-620.903 704,-613.696 715.107,-604.309 727.242,-593.713 737.45,-584.7"/>
<polygon fill="black" stroke="black" points="740.002,-587.114 745.166,-577.863 735.36,-581.875 740.002,-587.114"/>
<text text-anchor="middle" x="727" y="-602.496" font-family="Times New Roman,serif" font-size="14.00">D</text>
</g>
<!-- T10 -->
<g id="node8" class="node"><title>T10</title>
<ellipse fill="none" stroke="black" cx="309" cy="-203.348" rx="25.2169" ry="25.2169"/>
<ellipse fill="none" stroke="black" cx="309" cy="-203.348" rx="29.1963" ry="29.1963"/>
<text text-anchor="middle" x="309" y="-199.648" font-family="Times New Roman,serif" font-size="14.00">T10</text>
</g>
<!-- T10&#45;&gt;T2 -->
<g id="edge53" class="edge"><title>T10&#45;&gt;T2</title>
<path fill="none" stroke="black" d="M289.341,-225.324C261.255,-257.578 213,-322.482 213,-387.696 213,-650.696 213,-650.696 213,-650.696 213,-669.943 213,-691.642 213,-708.298"/>
<polygon fill="black" stroke="black" points="209.5,-708.439 213,-718.439 216.5,-708.439 209.5,-708.439"/>
<text text-anchor="middle" x="218" y="-471.996" font-family="Times New Roman,serif" font-size="14.00">B</text>
</g>
<!-- T10&#45;&gt;T3 -->
<g id="edge54" class="edge"><title>T10&#45;&gt;T3</title>
<path fill="none" stroke="black" d="M311.836,-174.052C316.825,-140.084 330.413,-83.9575 367,-54 391.199,-34.1861 478.237,-24.9936 528.833,-21.2392"/>
<polygon fill="black" stroke="black" points="529.312,-24.7142 539.04,-20.5187 528.819,-17.7315 529.312,-24.7142"/>
<text text-anchor="middle" x="344" y="-101.3" font-family="Times New Roman,serif" font-size="14.00">D</text>
</g>
<!-- T10&#45;&gt;T3 -->
<g id="edge55" class="edge"><title>T10&#45;&gt;T3</title>
<path fill="none" stroke="black" d="M303.65,-174.339C300.386,-150.039 299.007,-114.538 312,-87 321.545,-66.7703 329.742,-63.4844 350,-54 408.289,-26.7107 484.028,-20.2121 528.592,-18.9379"/>
<polygon fill="black" stroke="black" points="528.761,-22.4352 538.684,-18.7242 528.612,-15.4368 528.761,-22.4352"/>
<text text-anchor="middle" x="316.5" y="-101.3" font-family="Times New Roman,serif" font-size="14.00">F</text>
</g>
<!-- T10&#45;&gt;T9 -->
<g id="edge56" class="edge"><title>T10&#45;&gt;T9</title>
<path fill="none" stroke="black" d="M309.849,-232.708C311.225,-243.636 314.121,-255.847 320,-265.696 323.99,-272.38 329.764,-278.296 335.823,-283.274"/>
<polygon fill="black" stroke="black" points="334.014,-286.291 344.122,-289.465 338.199,-280.68 334.014,-286.291"/>
<text text-anchor="middle" x="325" y="-254.496" font-family="Times New Roman,serif" font-size="14.00">C</text>
</g>
<!-- T10&#45;&gt;T7 -->
<g id="edge52" class="edge"><title>T10&#45;&gt;T7</title>
<path fill="none" stroke="black" d="M336.23,-191.457C357.322,-182.698 387.053,-169.641 412,-156 422.708,-150.145 424.223,-146.727 435,-141 451.086,-132.451 469.717,-124.436 485.248,-118.238"/>
<polygon fill="black" stroke="black" points="486.912,-121.345 494.947,-114.441 484.36,-114.827 486.912,-121.345"/>
<text text-anchor="middle" x="440" y="-144.8" font-family="Times New Roman,serif" font-size="14.00">A</text>
</g>
<!-- T0&#45;&gt;T2 -->
<g id="edge3" class="edge"><title>T0&#45;&gt;T2</title>
<path fill="none" stroke="black" d="M1031.32,-820.011C907.883,-807.595 392.278,-755.729 249.684,-741.386"/>
<polygon fill="black" stroke="black" points="249.991,-737.899 239.691,-740.38 249.291,-744.864 249.991,-737.899"/>
<text text-anchor="middle" x="692" y="-776.496" font-family="Times New Roman,serif" font-size="14.00">B</text>
</g>
<!-- T0&#45;&gt;T3 -->
<g id="edge4" class="edge"><title>T0&#45;&gt;T3</title>
<path fill="none" stroke="black" d="M1058,-805.439C1058,-788.266 1058,-761.159 1058,-737.696 1058,-737.696 1058,-737.696 1058,-104 1058,-73.8039 1039.15,-67.207 1012,-54 940.375,-19.1642 697.25,-17.6814 603.394,-18.4691"/>
<polygon fill="black" stroke="black" points="603.192,-14.9708 593.226,-18.5685 603.26,-21.9705 603.192,-14.9708"/>
<text text-anchor="middle" x="1063" y="-428.496" font-family="Times New Roman,serif" font-size="14.00">D</text>
</g>
<!-- T0&#45;&gt;T3 -->
<g id="edge5" class="edge"><title>T0&#45;&gt;T3</title>
<path fill="none" stroke="black" d="M1069.61,-807.323C1080.78,-790.965 1096,-763.882 1096,-737.696 1096,-737.696 1096,-737.696 1096,-104 1096,-70.6341 1070.72,-67.0326 1040,-54 961.567,-20.7207 701.231,-18.3572 603.503,-18.6871"/>
<polygon fill="black" stroke="black" points="603.2,-15.1884 593.216,-18.7341 603.232,-22.1883 603.2,-15.1884"/>
<text text-anchor="middle" x="1100.5" y="-428.496" font-family="Times New Roman,serif" font-size="14.00">F</text>
</g>
<!-- T0&#45;&gt;T3 -->
<g id="edge6" class="edge"><title>T0&#45;&gt;T3</title>
<path fill="none" stroke="black" d="M1078.37,-811.508C1100.88,-797.478 1134,-771.15 1134,-737.696 1134,-737.696 1134,-737.696 1134,-104 1134,-68.2533 1104.33,-66.9275 1071,-54 985.732,-20.925 705.304,-18.4963 603.419,-18.7443"/>
<polygon fill="black" stroke="black" points="603.277,-15.2447 593.29,-18.7795 603.302,-22.2447 603.277,-15.2447"/>
<text text-anchor="middle" x="1139" y="-428.496" font-family="Times New Roman,serif" font-size="14.00">C</text>
</g>
<!-- T0&#45;&gt;T1 -->
<g id="edge2" class="edge"><title>T0&#45;&gt;T1</title>
<path fill="none" stroke="black" d="M1041.44,-809.414C1024.11,-795.523 996.727,-773.561 976.819,-757.597"/>
<polygon fill="black" stroke="black" points="978.787,-754.689 968.796,-751.164 974.408,-760.15 978.787,-754.689"/>
<text text-anchor="middle" x="1017" y="-776.496" font-family="Times New Roman,serif" font-size="14.00">A</text>
</g>
<!-- T9&#45;&gt;T3 -->
<g id="edge47" class="edge"><title>T9&#45;&gt;T3</title>
<path fill="none" stroke="black" d="M360.414,-283.708C351.873,-237.968 335.879,-111.779 405,-54 423.563,-38.4831 487.894,-28.1904 529.401,-22.9931"/>
<polygon fill="black" stroke="black" points="529.913,-26.4568 539.42,-21.7815 529.072,-19.5075 529.913,-26.4568"/>
<text text-anchor="middle" x="364" y="-144.8" font-family="Times New Roman,serif" font-size="14.00">A</text>
</g>
<!-- T9&#45;&gt;T3 -->
<g id="edge48" class="edge"><title>T9&#45;&gt;T3</title>
<path fill="none" stroke="black" d="M367.57,-283.682C375.06,-248.281 392.427,-167.764 401,-141 413.766,-101.148 405.587,-81.6462 437,-54 462.333,-31.7054 500.511,-23.4459 528.767,-20.4702"/>
<polygon fill="black" stroke="black" points="529.405,-23.9279 539.062,-19.5703 528.796,-16.9544 529.405,-23.9279"/>
<text text-anchor="middle" x="406" y="-144.8" font-family="Times New Roman,serif" font-size="14.00">B</text>
</g>
<!-- T9&#45;&gt;T3 -->
<g id="edge49" class="edge"><title>T9&#45;&gt;T3</title>
<path fill="none" stroke="black" d="M375.168,-285.282C379.36,-279.276 384.059,-272.267 388,-265.696 416.255,-218.575 423.58,-206.595 445,-156 463.63,-111.996 446.252,-88.7999 479,-54 492.431,-39.7279 512.467,-31.1391 529.926,-26.0445"/>
<polygon fill="black" stroke="black" points="531.062,-29.365 539.839,-23.4321 529.278,-22.5961 531.062,-29.365"/>
<text text-anchor="middle" x="455.5" y="-144.8" font-family="Times New Roman,serif" font-size="14.00">F</text>
</g>
<!-- T9&#45;&gt;T3 -->
<g id="edge50" class="edge"><title>T9&#45;&gt;T3</title>
<path fill="none" stroke="black" d="M341.106,-291.813C318.254,-281.513 284.633,-262.09 271,-232.696 236.301,-157.88 251.229,-97.971 321,-54 354.862,-32.6591 469.206,-23.8429 528.948,-20.6245"/>
<polygon fill="black" stroke="black" points="529.282,-24.112 539.089,-20.1038 528.923,-17.1212 529.282,-24.112"/>
<text text-anchor="middle" x="260" y="-144.8" font-family="Times New Roman,serif" font-size="14.00">C</text>
</g>
<!-- T9&#45;&gt;T10 -->
<g id="edge51" class="edge"><title>T9&#45;&gt;T10</title>
<path fill="none" stroke="black" d="M353.694,-284.805C349.925,-278.863 345.684,-272.022 342,-265.696 336.941,-257.008 331.688,-247.494 326.9,-238.607"/>
<polygon fill="black" stroke="black" points="329.906,-236.804 322.107,-229.632 323.731,-240.102 329.906,-236.804"/>
<text text-anchor="middle" x="347" y="-254.496" font-family="Times New Roman,serif" font-size="14.00">D</text>
</g>
<!-- T7&#45;&gt;T3 -->
<g id="edge38" class="edge"><title>T7&#45;&gt;T3</title>
<path fill="none" stroke="black" d="M500.338,-91.2673C488.566,-81.1679 476.66,-66.6896 485,-54 494.964,-38.8401 513.042,-30.2162 529.596,-25.3254"/>
<polygon fill="black" stroke="black" points="530.812,-28.6263 539.62,-22.7376 529.062,-21.8485 530.812,-28.6263"/>
<text text-anchor="middle" x="490" y="-57.8" font-family="Times New Roman,serif" font-size="14.00">B</text>
</g>
<!-- T7&#45;&gt;T3 -->
<g id="edge39" class="edge"><title>T7&#45;&gt;T3</title>
<path fill="none" stroke="black" d="M514.283,-86.8963C512.965,-76.7957 512.885,-64.0592 518,-54 521.998,-46.1368 528.683,-39.621 535.812,-34.4299"/>
<polygon fill="black" stroke="black" points="537.776,-37.3281 544.252,-28.9432 533.96,-31.4593 537.776,-37.3281"/>
<text text-anchor="middle" x="523" y="-57.8" font-family="Times New Roman,serif" font-size="14.00">D</text>
</g>
<!-- T7&#45;&gt;T3 -->
<g id="edge40" class="edge"><title>T7&#45;&gt;T3</title>
<path fill="none" stroke="black" d="M527.028,-88.0122C534.024,-75.625 543.844,-58.235 551.876,-44.0109"/>
<polygon fill="black" stroke="black" points="554.979,-45.6337 556.849,-35.2052 548.884,-42.1917 554.979,-45.6337"/>
<text text-anchor="middle" x="549.5" y="-57.8" font-family="Times New Roman,serif" font-size="14.00">F</text>
</g>
<!-- T7&#45;&gt;T3 -->
<g id="edge41" class="edge"><title>T7&#45;&gt;T3</title>
<path fill="none" stroke="black" d="M536.982,-91.8199C544.715,-85.8729 552.997,-78.0433 558,-69 561.803,-62.125 563.926,-53.9561 565.078,-46.2348"/>
<polygon fill="black" stroke="black" points="568.574,-46.4519 566.114,-36.1467 561.611,-45.7368 568.574,-46.4519"/>
<text text-anchor="middle" x="569" y="-57.8" font-family="Times New Roman,serif" font-size="14.00">C</text>
</g>
<!-- T7&#45;&gt;T4 -->
<g id="edge37" class="edge"><title>T7&#45;&gt;T4</title>
<path fill="none" stroke="black" d="M536.787,-118.193C559.292,-134.448 594,-165.491 594,-202.348 594,-563.696 594,-563.696 594,-563.696 594,-591.03 615.635,-614.746 634.317,-630.13"/>
<polygon fill="black" stroke="black" points="632.302,-632.997 642.337,-636.396 636.612,-627.481 632.302,-632.997"/>
<text text-anchor="middle" x="599" y="-384.996" font-family="Times New Roman,serif" font-size="14.00">A</text>
</g>
<!-- T5&#45;&gt;T6 -->
<g id="edge31" class="edge"><title>T5&#45;&gt;T6</title>
<path fill="none" stroke="black" d="M736.872,-554.448C686.433,-539.299 569.73,-504.247 511.833,-486.857"/>
<polygon fill="black" stroke="black" points="512.652,-483.449 502.067,-483.924 510.638,-490.153 512.652,-483.449"/>
<text text-anchor="middle" x="642" y="-515.496" font-family="Times New Roman,serif" font-size="14.00">D</text>
</g>
<!-- T5&#45;&gt;T3 -->
<g id="edge27" class="edge"><title>T5&#45;&gt;T3</title>
<path fill="none" stroke="black" d="M774.802,-547.021C788.351,-531.027 807,-504.046 807,-476.696 807,-476.696 807,-476.696 807,-104 807,-77.6163 797.015,-68.5405 775,-54 747.357,-35.7425 655.174,-25.8515 602.938,-21.5911"/>
<polygon fill="black" stroke="black" points="602.988,-18.0844 592.744,-20.7899 602.439,-25.0629 602.988,-18.0844"/>
<text text-anchor="middle" x="812" y="-297.996" font-family="Times New Roman,serif" font-size="14.00">A</text>
</g>
<!-- T5&#45;&gt;T3 -->
<g id="edge28" class="edge"><title>T5&#45;&gt;T3</title>
<path fill="none" stroke="black" d="M781.43,-550.628C790.916,-544.618 801.686,-536.422 809,-526.696 818.38,-514.222 817.257,-508.846 821,-493.696 846.228,-391.577 853,-364.384 853,-259.196 853,-259.196 853,-259.196 853,-104 853,-71.2918 828.48,-68.1688 799,-54 765.073,-37.6939 659.501,-26.7437 602.834,-21.8762"/>
<polygon fill="black" stroke="black" points="603.108,-18.387 592.851,-21.0382 602.523,-25.3625 603.108,-18.387"/>
<text text-anchor="middle" x="858" y="-297.996" font-family="Times New Roman,serif" font-size="14.00">B</text>
</g>
<!-- T5&#45;&gt;T3 -->
<g id="edge29" class="edge"><title>T5&#45;&gt;T3</title>
<path fill="none" stroke="black" d="M747.499,-546.968C734.243,-530.93 716,-503.912 716,-476.696 716,-476.696 716,-476.696 716,-104 716,-51.9329 646.743,-31.3788 602.349,-23.552"/>
<polygon fill="black" stroke="black" points="602.904,-20.0963 592.472,-21.9458 601.78,-27.0056 602.904,-20.0963"/>
<text text-anchor="middle" x="720.5" y="-297.996" font-family="Times New Roman,serif" font-size="14.00">F</text>
</g>
<!-- T5&#45;&gt;T3 -->
<g id="edge30" class="edge"><title>T5&#45;&gt;T3</title>
<path fill="none" stroke="black" d="M761,-544.439C761,-527.266 761,-500.159 761,-476.696 761,-476.696 761,-476.696 761,-104 761,-35.8572 659.697,-21.7866 603.123,-19.2418"/>
<polygon fill="black" stroke="black" points="603.231,-15.7436 593.114,-18.8904 602.985,-22.7393 603.231,-15.7436"/>
<text text-anchor="middle" x="766" y="-297.996" font-family="Times New Roman,serif" font-size="14.00">C</text>
</g>
</g>
</svg>
