<?xml version="1.0" encoding="UTF-8" standalone="no"?>
<!DOCTYPE svg PUBLIC "-//W3C//DTD SVG 1.1//EN"
 "http://www.w3.org/Graphics/SVG/1.1/DTD/svg11.dtd">
<!-- Generated by graphviz version 2.38.0 (20140413.2041)
 -->
<!-- Title: %3 Pages: 1 -->
<svg width="236pt" height="392pt"
 viewBox="0.00 0.00 236.00 391.60" xmlns="http://www.w3.org/2000/svg" xmlns:xlink="http://www.w3.org/1999/xlink">
<g id="graph0" class="graph" transform="scale(1 1) rotate(0) translate(4 387.596)">
<title>%3</title>
<polygon fill="white" stroke="none" points="-4,4 -4,-387.596 232,-387.596 232,4 -4,4"/>
<!-- fake0 -->
<g id="node1" class="node"><title>fake0</title>
</g>
<!-- T0 -->
<g id="node4" class="node"><title>T0</title>
<ellipse fill="none" stroke="black" cx="118" cy="-292.596" rx="27" ry="18"/>
<text text-anchor="middle" x="118" y="-288.896" font-family="Times New Roman,serif" font-size="14.00">T0</text>
</g>
<!-- fake0&#45;&gt;T0 -->
<g id="edge1" class="edge"><title>fake0&#45;&gt;T0</title>
<path fill="none" stroke="black" stroke-width="2" d="M118,-347.409C118,-339.386 118,-329.644 118,-320.665"/>
<polygon fill="black" stroke="black" stroke-width="2" points="121.5,-320.625 118,-310.625 114.5,-320.625 121.5,-320.625"/>
</g>
<!-- T3 -->
<g id="node2" class="node"><title>T3</title>
<ellipse fill="none" stroke="black" cx="115" cy="-111.798" rx="20.6302" ry="20.6302"/>
<ellipse fill="none" stroke="black" cx="115" cy="-111.798" rx="24.5979" ry="24.5979"/>
<text text-anchor="middle" x="115" y="-108.098" font-family="Times New Roman,serif" font-size="14.00">T3</text>
</g>
<!-- T4 -->
<g id="node5" class="node"><title>T4</title>
<ellipse fill="none" stroke="black" cx="115" cy="-18" rx="27" ry="18"/>
<text text-anchor="middle" x="115" y="-14.3" font-family="Times New Roman,serif" font-size="14.00">T4</text>
</g>
<!-- T3&#45;&gt;T4 -->
<g id="edge11" class="edge"><title>T3&#45;&gt;T4</title>
<path fill="none" stroke="black" d="M115,-86.6793C115,-74.2289 115,-58.9952 115,-46.1353"/>
<polygon fill="black" stroke="black" points="118.5,-46.0044 115,-36.0045 111.5,-46.0045 118.5,-46.0044"/>
<text text-anchor="middle" x="120" y="-57.8" font-family="Times New Roman,serif" font-size="14.00">A</text>
</g>
<!-- T3&#45;&gt;T4 -->
<g id="edge12" class="edge"><title>T3&#45;&gt;T4</title>
<path fill="none" stroke="black" d="M123.002,-88.2051C125.745,-77.8188 127.737,-65.3177 126,-54 125.58,-51.2614 124.985,-48.4428 124.286,-45.6507"/>
<polygon fill="black" stroke="black" points="127.587,-44.467 121.433,-35.8431 120.866,-46.4227 127.587,-44.467"/>
<text text-anchor="middle" x="132" y="-57.8" font-family="Times New Roman,serif" font-size="14.00">B</text>
</g>
<!-- T3&#45;&gt;T4 -->
<g id="edge13" class="edge"><title>T3&#45;&gt;T4</title>
<path fill="none" stroke="black" d="M105.02,-88.7964C101.438,-78.3148 98.7721,-65.5683 101,-54 101.587,-50.9495 102.438,-47.8269 103.435,-44.7638"/>
<polygon fill="black" stroke="black" points="106.734,-45.9349 106.97,-35.3427 100.18,-43.4757 106.734,-45.9349"/>
<text text-anchor="middle" x="106" y="-57.8" font-family="Times New Roman,serif" font-size="14.00">C</text>
</g>
<!-- T2 -->
<g id="node3" class="node"><title>T2</title>
<ellipse fill="none" stroke="black" cx="27" cy="-205.596" rx="27" ry="18"/>
<text text-anchor="middle" x="27" y="-201.896" font-family="Times New Roman,serif" font-size="14.00">T2</text>
</g>
<!-- T2&#45;&gt;T3 -->
<g id="edge10" class="edge"><title>T2&#45;&gt;T3</title>
<path fill="none" stroke="black" d="M41.1387,-189.847C54.6211,-175.783 75.1859,-154.331 91.1954,-137.63"/>
<polygon fill="black" stroke="black" points="93.7952,-139.976 98.1888,-130.335 88.742,-135.132 93.7952,-139.976"/>
<text text-anchor="middle" x="79" y="-158.396" font-family="Times New Roman,serif" font-size="14.00">C</text>
</g>
<!-- T2&#45;&gt;T2 -->
<g id="edge9" class="edge"><title>T2&#45;&gt;T2</title>
<path fill="none" stroke="black" d="M51.5325,-213.348C62.5078,-214.087 72,-211.503 72,-205.596 72,-201.628 67.7151,-199.16 61.5743,-198.191"/>
<polygon fill="black" stroke="black" points="61.6472,-194.691 51.5325,-197.844 61.4059,-201.687 61.6472,-194.691"/>
<text text-anchor="middle" x="77" y="-201.896" font-family="Times New Roman,serif" font-size="14.00">B</text>
</g>
<!-- T2&#45;&gt;T4 -->
<g id="edge8" class="edge"><title>T2&#45;&gt;T4</title>
<path fill="none" stroke="black" d="M32.0299,-187.759C39.263,-164.488 53.6582,-121.466 71,-87 78.7541,-71.5892 89.1817,-55.3314 97.9395,-42.5781"/>
<polygon fill="black" stroke="black" points="100.822,-44.5636 103.682,-34.3621 95.0845,-40.5532 100.822,-44.5636"/>
<text text-anchor="middle" x="76" y="-108.098" font-family="Times New Roman,serif" font-size="14.00">A</text>
</g>
<!-- T0&#45;&gt;T3 -->
<g id="edge4" class="edge"><title>T0&#45;&gt;T3</title>
<path fill="none" stroke="black" d="M117.712,-274.452C117.22,-245.131 116.209,-184.837 115.57,-146.744"/>
<polygon fill="black" stroke="black" points="119.067,-146.572 115.4,-136.632 112.068,-146.689 119.067,-146.572"/>
<text text-anchor="middle" x="122" y="-201.896" font-family="Times New Roman,serif" font-size="14.00">C</text>
</g>
<!-- T0&#45;&gt;T2 -->
<g id="edge3" class="edge"><title>T0&#45;&gt;T2</title>
<path fill="none" stroke="black" d="M102.973,-277.56C88.4834,-264.026 66.3629,-243.364 49.7211,-227.819"/>
<polygon fill="black" stroke="black" points="51.7462,-224.921 42.0491,-220.653 46.9679,-230.037 51.7462,-224.921"/>
<text text-anchor="middle" x="83" y="-245.396" font-family="Times New Roman,serif" font-size="14.00">B</text>
</g>
<!-- T1 -->
<g id="node6" class="node"><title>T1</title>
<ellipse fill="none" stroke="black" cx="173" cy="-205.596" rx="27" ry="18"/>
<text text-anchor="middle" x="173" y="-201.896" font-family="Times New Roman,serif" font-size="14.00">T1</text>
</g>
<!-- T0&#45;&gt;T1 -->
<g id="edge2" class="edge"><title>T0&#45;&gt;T1</title>
<path fill="none" stroke="black" d="M128.345,-275.608C136.488,-263.024 147.973,-245.275 157.255,-230.929"/>
<polygon fill="black" stroke="black" points="160.207,-232.81 162.701,-222.512 154.33,-229.007 160.207,-232.81"/>
<text text-anchor="middle" x="156" y="-245.396" font-family="Times New Roman,serif" font-size="14.00">A</text>
</g>
<!-- T4&#45;&gt;T4 -->
<g id="edge14" class="edge"><title>T4&#45;&gt;T4</title>
<path fill="none" stroke="black" d="M141.795,-20.6192C151.78,-20.7051 160,-19.832 160,-18 160,-16.855 156.789,-16.0846 151.943,-15.6887"/>
<polygon fill="black" stroke="black" points="151.896,-12.1858 141.795,-15.3808 151.684,-19.1826 151.896,-12.1858"/>
<text text-anchor="middle" x="165" y="-14.3" font-family="Times New Roman,serif" font-size="14.00">A</text>
</g>
<!-- T4&#45;&gt;T4 -->
<g id="edge15" class="edge"><title>T4&#45;&gt;T4</title>
<path fill="none" stroke="black" d="M141.214,-22.7113C159.696,-24.1915 178,-22.6211 178,-18 178,-14.2454 165.917,-12.5046 151.472,-12.7778"/>
<polygon fill="black" stroke="black" points="151.027,-9.2955 141.214,-13.2887 151.375,-16.2868 151.027,-9.2955"/>
<text text-anchor="middle" x="183" y="-14.3" font-family="Times New Roman,serif" font-size="14.00">B</text>
</g>
<!-- T4&#45;&gt;T4 -->
<g id="edge16" class="edge"><title>T4&#45;&gt;T4</title>
<path fill="none" stroke="black" d="M140.713,-24.1447C166.877,-27.7592 196,-25.7109 196,-18 196,-11.2831 173.902,-8.863 150.91,-10.7398"/>
<polygon fill="black" stroke="black" points="150.273,-7.28856 140.713,-11.8553 151.034,-14.2471 150.273,-7.28856"/>
<text text-anchor="middle" x="201" y="-14.3" font-family="Times New Roman,serif" font-size="14.00">C</text>
</g>
<!-- T1&#45;&gt;T3 -->
<g id="edge7" class="edge"><title>T1&#45;&gt;T3</title>
<path fill="none" stroke="black" d="M162.897,-188.606C154.758,-175.724 143.101,-157.274 133.325,-141.801"/>
<polygon fill="black" stroke="black" points="136.127,-139.684 127.827,-133.1 130.21,-143.423 136.127,-139.684"/>
<text text-anchor="middle" x="155" y="-158.396" font-family="Times New Roman,serif" font-size="14.00">C</text>
</g>
<!-- T1&#45;&gt;T4 -->
<g id="edge6" class="edge"><title>T1&#45;&gt;T4</title>
<path fill="none" stroke="black" d="M171.903,-187.536C169.512,-158.752 162.216,-99.2568 141,-54 139.12,-49.9905 136.742,-45.9859 134.191,-42.1931"/>
<polygon fill="black" stroke="black" points="136.804,-39.8364 128.079,-33.8256 131.151,-43.9653 136.804,-39.8364"/>
<text text-anchor="middle" x="171" y="-108.098" font-family="Times New Roman,serif" font-size="14.00">B</text>
</g>
<!-- T1&#45;&gt;T1 -->
<g id="edge5" class="edge"><title>T1&#45;&gt;T1</title>
<path fill="none" stroke="black" d="M197.532,-213.348C208.508,-214.087 218,-211.503 218,-205.596 218,-201.628 213.715,-199.16 207.574,-198.191"/>
<polygon fill="black" stroke="black" points="207.647,-194.691 197.532,-197.844 207.406,-201.687 207.647,-194.691"/>
<text text-anchor="middle" x="223" y="-201.896" font-family="Times New Roman,serif" font-size="14.00">A</text>
</g>
</g>
</svg>
