<?xml version="1.0" encoding="UTF-8" standalone="no"?>
<!DOCTYPE svg PUBLIC "-//W3C//DTD SVG 1.1//EN"
 "http://www.w3.org/Graphics/SVG/1.1/DTD/svg11.dtd">
<!-- Generated by graphviz version 2.38.0 (20140413.2041)
 -->
<!-- Title: %3 Pages: 1 -->
<svg width="219pt" height="662pt"
 viewBox="0.00 0.00 219.00 661.70" xmlns="http://www.w3.org/2000/svg" xmlns:xlink="http://www.w3.org/1999/xlink">
<g id="graph0" class="graph" transform="scale(1 1) rotate(0) translate(4 657.696)">
<title>%3</title>
<polygon fill="white" stroke="none" points="-4,4 -4,-657.696 215,-657.696 215,4 -4,4"/>
<!-- fake0 -->
<g id="node1" class="node"><title>fake0</title>
</g>
<!-- T0 -->
<g id="node6" class="node"><title>T0</title>
<ellipse fill="none" stroke="black" cx="121" cy="-562.696" rx="27" ry="18"/>
<text text-anchor="middle" x="121" y="-558.996" font-family="Times New Roman,serif" font-size="14.00">T0</text>
</g>
<!-- fake0&#45;&gt;T0 -->
<g id="edge1" class="edge"><title>fake0&#45;&gt;T0</title>
<path fill="none" stroke="black" stroke-width="2" d="M121,-617.508C121,-609.485 121,-599.743 121,-590.765"/>
<polygon fill="black" stroke="black" stroke-width="2" points="124.5,-590.724 121,-580.724 117.5,-590.724 124.5,-590.724"/>
</g>
<!-- T3 -->
<g id="node2" class="node"><title>T3</title>
<ellipse fill="none" stroke="black" cx="27" cy="-301.696" rx="27" ry="18"/>
<text text-anchor="middle" x="27" y="-297.996" font-family="Times New Roman,serif" font-size="14.00">T3</text>
</g>
<!-- T2 -->
<g id="node3" class="node"><title>T2</title>
<ellipse fill="none" stroke="black" cx="27" cy="-388.696" rx="27" ry="18"/>
<text text-anchor="middle" x="27" y="-384.996" font-family="Times New Roman,serif" font-size="14.00">T2</text>
</g>
<!-- T3&#45;&gt;T2 -->
<g id="edge7" class="edge"><title>T3&#45;&gt;T2</title>
<path fill="none" stroke="black" d="M27,-319.871C27,-331.502 27,-347.115 27,-360.429"/>
<polygon fill="black" stroke="black" points="23.5001,-360.494 27,-370.494 30.5001,-360.495 23.5001,-360.494"/>
<text text-anchor="middle" x="35.5" y="-341.496" font-family="Times New Roman,serif" font-size="14.00">EP</text>
</g>
<!-- T4 -->
<g id="node7" class="node"><title>T4</title>
<ellipse fill="none" stroke="black" cx="81" cy="-214.696" rx="27" ry="18"/>
<text text-anchor="middle" x="81" y="-210.996" font-family="Times New Roman,serif" font-size="14.00">T4</text>
</g>
<!-- T3&#45;&gt;T4 -->
<g id="edge8" class="edge"><title>T3&#45;&gt;T4</title>
<path fill="none" stroke="black" d="M33.7481,-283.9C38.0783,-273.909 44.1604,-261.179 51,-250.696 53.7522,-246.477 56.9645,-242.217 60.2442,-238.192"/>
<polygon fill="black" stroke="black" points="63.1125,-240.222 66.9452,-230.345 57.7894,-235.676 63.1125,-240.222"/>
<text text-anchor="middle" x="59.5" y="-254.496" font-family="Times New Roman,serif" font-size="14.00">EP</text>
</g>
<!-- T2&#45;&gt;T3 -->
<g id="edge6" class="edge"><title>T2&#45;&gt;T3</title>
<path fill="none" stroke="black" d="M13.2407,-372.849C5.93515,-363.141 -0.819581,-350.02 3,-337.696 4.21664,-333.77 6.04257,-329.893 8.15449,-326.231"/>
<polygon fill="black" stroke="black" points="11.2228,-327.936 13.8093,-317.661 5.38021,-324.08 11.2228,-327.936"/>
<text text-anchor="middle" x="8" y="-341.496" font-family="Times New Roman,serif" font-size="14.00">A</text>
</g>
<!-- T7 -->
<g id="node4" class="node"><title>T7</title>
<ellipse fill="none" stroke="black" cx="150" cy="-301.696" rx="27" ry="18"/>
<text text-anchor="middle" x="150" y="-297.996" font-family="Times New Roman,serif" font-size="14.00">T7</text>
</g>
<!-- T6 -->
<g id="node9" class="node"><title>T6</title>
<ellipse fill="none" stroke="black" cx="150" cy="-388.696" rx="27" ry="18"/>
<text text-anchor="middle" x="150" y="-384.996" font-family="Times New Roman,serif" font-size="14.00">T6</text>
</g>
<!-- T7&#45;&gt;T6 -->
<g id="edge14" class="edge"><title>T7&#45;&gt;T6</title>
<path fill="none" stroke="black" d="M150,-319.871C150,-331.502 150,-347.115 150,-360.429"/>
<polygon fill="black" stroke="black" points="146.5,-360.494 150,-370.494 153.5,-360.495 146.5,-360.494"/>
<text text-anchor="middle" x="158.5" y="-341.496" font-family="Times New Roman,serif" font-size="14.00">EP</text>
</g>
<!-- T8 -->
<g id="node11" class="node"><title>T8</title>
<ellipse fill="none" stroke="black" cx="153" cy="-214.696" rx="27" ry="18"/>
<text text-anchor="middle" x="153" y="-210.996" font-family="Times New Roman,serif" font-size="14.00">T8</text>
</g>
<!-- T7&#45;&gt;T8 -->
<g id="edge13" class="edge"><title>T7&#45;&gt;T8</title>
<path fill="none" stroke="black" d="M150.607,-283.494C151.018,-271.858 151.569,-256.243 152.039,-242.932"/>
<polygon fill="black" stroke="black" points="155.539,-242.988 152.394,-232.871 148.543,-242.741 155.539,-242.988"/>
<text text-anchor="middle" x="159.5" y="-254.496" font-family="Times New Roman,serif" font-size="14.00">EP</text>
</g>
<!-- T9 -->
<g id="node5" class="node"><title>T9</title>
<ellipse fill="none" stroke="black" cx="121" cy="-127.696" rx="27" ry="18"/>
<text text-anchor="middle" x="121" y="-123.996" font-family="Times New Roman,serif" font-size="14.00">T9</text>
</g>
<!-- T10 -->
<g id="node12" class="node"><title>T10</title>
<ellipse fill="none" stroke="black" cx="121" cy="-29.3478" rx="25.2169" ry="25.2169"/>
<ellipse fill="none" stroke="black" cx="121" cy="-29.3478" rx="29.1963" ry="29.1963"/>
<text text-anchor="middle" x="121" y="-25.6478" font-family="Times New Roman,serif" font-size="14.00">T10</text>
</g>
<!-- T9&#45;&gt;T10 -->
<g id="edge16" class="edge"><title>T9&#45;&gt;T10</title>
<path fill="none" stroke="black" d="M121,-109.47C121,-98.256 121,-83.1612 121,-69.1629"/>
<polygon fill="black" stroke="black" points="124.5,-68.7544 121,-58.7545 117.5,-68.7545 124.5,-68.7544"/>
<text text-anchor="middle" x="126" y="-80.4955" font-family="Times New Roman,serif" font-size="14.00">C</text>
</g>
<!-- T1 -->
<g id="node8" class="node"><title>T1</title>
<ellipse fill="none" stroke="black" cx="81" cy="-475.696" rx="27" ry="18"/>
<text text-anchor="middle" x="81" y="-471.996" font-family="Times New Roman,serif" font-size="14.00">T1</text>
</g>
<!-- T0&#45;&gt;T1 -->
<g id="edge3" class="edge"><title>T0&#45;&gt;T1</title>
<path fill="none" stroke="black" d="M113.288,-545.307C107.533,-533.077 99.5614,-516.138 92.9793,-502.152"/>
<polygon fill="black" stroke="black" points="96.1136,-500.592 88.6887,-493.034 89.7799,-503.573 96.1136,-500.592"/>
<text text-anchor="middle" x="111.5" y="-515.496" font-family="Times New Roman,serif" font-size="14.00">EP</text>
</g>
<!-- T5 -->
<g id="node10" class="node"><title>T5</title>
<ellipse fill="none" stroke="black" cx="153" cy="-475.696" rx="27" ry="18"/>
<text text-anchor="middle" x="153" y="-471.996" font-family="Times New Roman,serif" font-size="14.00">T5</text>
</g>
<!-- T0&#45;&gt;T5 -->
<g id="edge2" class="edge"><title>T0&#45;&gt;T5</title>
<path fill="none" stroke="black" d="M127.322,-544.902C131.836,-532.911 137.997,-516.547 143.153,-502.853"/>
<polygon fill="black" stroke="black" points="146.443,-504.046 146.691,-493.454 139.892,-501.579 146.443,-504.046"/>
<text text-anchor="middle" x="147.5" y="-515.496" font-family="Times New Roman,serif" font-size="14.00">EP</text>
</g>
<!-- T4&#45;&gt;T9 -->
<g id="edge9" class="edge"><title>T4&#45;&gt;T9</title>
<path fill="none" stroke="black" d="M88.7124,-197.307C94.4674,-185.077 102.439,-168.138 109.021,-154.152"/>
<polygon fill="black" stroke="black" points="112.22,-155.573 113.311,-145.034 105.886,-152.592 112.22,-155.573"/>
<text text-anchor="middle" x="112.5" y="-167.496" font-family="Times New Roman,serif" font-size="14.00">EP</text>
</g>
<!-- T1&#45;&gt;T2 -->
<g id="edge4" class="edge"><title>T1&#45;&gt;T2</title>
<path fill="none" stroke="black" d="M66.9452,-460.046C61.5755,-454.022 55.6353,-446.8 51,-439.696 46.1374,-432.242 41.6578,-423.654 37.9183,-415.721"/>
<polygon fill="black" stroke="black" points="41.0549,-414.163 33.7481,-406.491 34.6758,-417.045 41.0549,-414.163"/>
<text text-anchor="middle" x="59.5" y="-428.496" font-family="Times New Roman,serif" font-size="14.00">EP</text>
</g>
<!-- T1&#45;&gt;T4 -->
<g id="edge5" class="edge"><title>T1&#45;&gt;T4</title>
<path fill="none" stroke="black" d="M81,-457.3C81,-413.158 81,-296.524 81,-243.111"/>
<polygon fill="black" stroke="black" points="84.5001,-243.016 81,-233.016 77.5001,-243.016 84.5001,-243.016"/>
<text text-anchor="middle" x="89.5" y="-341.496" font-family="Times New Roman,serif" font-size="14.00">EP</text>
</g>
<!-- T6&#45;&gt;T7 -->
<g id="edge12" class="edge"><title>T6&#45;&gt;T7</title>
<path fill="none" stroke="black" d="M138.772,-372.08C135.241,-366.28 131.796,-359.46 130,-352.696 127.723,-344.123 129.881,-335.037 133.499,-326.995"/>
<polygon fill="black" stroke="black" points="136.611,-328.598 138.239,-318.129 130.438,-325.298 136.611,-328.598"/>
<text text-anchor="middle" x="135" y="-341.496" font-family="Times New Roman,serif" font-size="14.00">B</text>
</g>
<!-- T5&#45;&gt;T6 -->
<g id="edge11" class="edge"><title>T5&#45;&gt;T6</title>
<path fill="none" stroke="black" d="M152.393,-457.494C151.982,-445.858 151.431,-430.243 150.961,-416.932"/>
<polygon fill="black" stroke="black" points="154.457,-416.741 150.606,-406.871 147.461,-416.988 154.457,-416.741"/>
<text text-anchor="middle" x="159.5" y="-428.496" font-family="Times New Roman,serif" font-size="14.00">EP</text>
</g>
<!-- T5&#45;&gt;T8 -->
<g id="edge10" class="edge"><title>T5&#45;&gt;T8</title>
<path fill="none" stroke="black" d="M163.434,-459.029C171.564,-445.748 182.104,-425.856 186,-406.696 196.894,-353.125 196.894,-337.266 186,-283.696 182.895,-268.427 175.572,-252.694 168.611,-240.212"/>
<polygon fill="black" stroke="black" points="171.504,-238.226 163.434,-231.362 165.462,-241.761 171.504,-238.226"/>
<text text-anchor="middle" x="202.5" y="-341.496" font-family="Times New Roman,serif" font-size="14.00">EP</text>
</g>
<!-- T8&#45;&gt;T9 -->
<g id="edge15" class="edge"><title>T8&#45;&gt;T9</title>
<path fill="none" stroke="black" d="M146.678,-196.902C142.164,-184.911 136.003,-168.547 130.847,-154.853"/>
<polygon fill="black" stroke="black" points="134.108,-153.579 127.309,-145.454 127.557,-156.046 134.108,-153.579"/>
<text text-anchor="middle" x="146.5" y="-167.496" font-family="Times New Roman,serif" font-size="14.00">EP</text>
</g>
</g>
</svg>
