<?xml version="1.0" encoding="UTF-8" standalone="no"?>
<!DOCTYPE svg PUBLIC "-//W3C//DTD SVG 1.1//EN"
 "http://www.w3.org/Graphics/SVG/1.1/DTD/svg11.dtd">
<!-- Generated by graphviz version 2.38.0 (20140413.2041)
 -->
<!-- Title: %3 Pages: 1 -->
<svg width="228pt" height="392pt"
 viewBox="0.00 0.00 228.00 391.60" xmlns="http://www.w3.org/2000/svg" xmlns:xlink="http://www.w3.org/1999/xlink">
<g id="graph0" class="graph" transform="scale(1 1) rotate(0) translate(4 387.596)">
<title>%3</title>
<polygon fill="white" stroke="none" points="-4,4 -4,-387.596 224,-387.596 224,4 -4,4"/>
<!-- fake0 -->
<g id="node1" class="node"><title>fake0</title>
</g>
<!-- T0 -->
<g id="node5" class="node"><title>T0</title>
<ellipse fill="none" stroke="black" cx="116" cy="-292.596" rx="27" ry="18"/>
<text text-anchor="middle" x="116" y="-288.896" font-family="Times New Roman,serif" font-size="14.00">T0</text>
</g>
<!-- fake0&#45;&gt;T0 -->
<g id="edge1" class="edge"><title>fake0&#45;&gt;T0</title>
<path fill="none" stroke="black" stroke-width="2" d="M116,-347.409C116,-339.386 116,-329.644 116,-320.665"/>
<polygon fill="black" stroke="black" stroke-width="2" points="119.5,-320.625 116,-310.625 112.5,-320.625 119.5,-320.625"/>
</g>
<!-- T2 -->
<g id="node2" class="node"><title>T2</title>
<ellipse fill="none" stroke="black" cx="27" cy="-205.596" rx="27" ry="18"/>
<text text-anchor="middle" x="27" y="-201.896" font-family="Times New Roman,serif" font-size="14.00">T2</text>
</g>
<!-- T2&#45;&gt;T2 -->
<g id="edge9" class="edge"><title>T2&#45;&gt;T2</title>
<path fill="none" stroke="black" d="M51.5325,-213.348C62.5078,-214.087 72,-211.503 72,-205.596 72,-201.628 67.7151,-199.16 61.5743,-198.191"/>
<polygon fill="black" stroke="black" points="61.6472,-194.691 51.5325,-197.844 61.4059,-201.687 61.6472,-194.691"/>
<text text-anchor="middle" x="76" y="-201.896" font-family="Times New Roman,serif" font-size="14.00">b</text>
</g>
<!-- T3 -->
<g id="node4" class="node"><title>T3</title>
<ellipse fill="none" stroke="black" cx="110" cy="-111.798" rx="20.6302" ry="20.6302"/>
<ellipse fill="none" stroke="black" cx="110" cy="-111.798" rx="24.5979" ry="24.5979"/>
<text text-anchor="middle" x="110" y="-108.098" font-family="Times New Roman,serif" font-size="14.00">T3</text>
</g>
<!-- T2&#45;&gt;T3 -->
<g id="edge10" class="edge"><title>T2&#45;&gt;T3</title>
<path fill="none" stroke="black" d="M40.3354,-189.847C52.8584,-175.997 71.8599,-154.981 86.8564,-138.395"/>
<polygon fill="black" stroke="black" points="89.7401,-140.424 93.8506,-130.659 84.5477,-135.73 89.7401,-140.424"/>
<text text-anchor="middle" x="74.5" y="-158.396" font-family="Times New Roman,serif" font-size="14.00">c</text>
</g>
<!-- T4 -->
<g id="node6" class="node"><title>T4</title>
<ellipse fill="none" stroke="black" cx="110" cy="-18" rx="27" ry="18"/>
<text text-anchor="middle" x="110" y="-14.3" font-family="Times New Roman,serif" font-size="14.00">T4</text>
</g>
<!-- T2&#45;&gt;T4 -->
<g id="edge8" class="edge"><title>T2&#45;&gt;T4</title>
<path fill="none" stroke="black" d="M31.8333,-187.817C38.7747,-164.615 52.5585,-121.671 69,-87 76.1296,-71.9654 85.6507,-55.9913 93.7232,-43.306"/>
<polygon fill="black" stroke="black" points="96.7916,-45.0068 99.2902,-34.7108 90.9163,-41.2014 96.7916,-45.0068"/>
<text text-anchor="middle" x="72.5" y="-108.098" font-family="Times New Roman,serif" font-size="14.00">a</text>
</g>
<!-- T1 -->
<g id="node3" class="node"><title>T1</title>
<ellipse fill="none" stroke="black" cx="168" cy="-205.596" rx="27" ry="18"/>
<text text-anchor="middle" x="168" y="-201.896" font-family="Times New Roman,serif" font-size="14.00">T1</text>
</g>
<!-- T1&#45;&gt;T1 -->
<g id="edge5" class="edge"><title>T1&#45;&gt;T1</title>
<path fill="none" stroke="black" d="M192.532,-213.348C203.508,-214.087 213,-211.503 213,-205.596 213,-201.628 208.715,-199.16 202.574,-198.191"/>
<polygon fill="black" stroke="black" points="202.647,-194.691 192.532,-197.844 202.406,-201.687 202.647,-194.691"/>
<text text-anchor="middle" x="216.5" y="-201.896" font-family="Times New Roman,serif" font-size="14.00">a</text>
</g>
<!-- T1&#45;&gt;T3 -->
<g id="edge7" class="edge"><title>T1&#45;&gt;T3</title>
<path fill="none" stroke="black" d="M157.897,-188.606C149.758,-175.724 138.101,-157.274 128.325,-141.801"/>
<polygon fill="black" stroke="black" points="131.127,-139.684 122.827,-133.1 125.21,-143.423 131.127,-139.684"/>
<text text-anchor="middle" x="148.5" y="-158.396" font-family="Times New Roman,serif" font-size="14.00">c</text>
</g>
<!-- T1&#45;&gt;T4 -->
<g id="edge6" class="edge"><title>T1&#45;&gt;T4</title>
<path fill="none" stroke="black" d="M166.235,-187.515C162.739,-158.7 153.254,-99.1603 131,-54 129.303,-50.5556 127.383,-47.0013 125.411,-43.5378"/>
<polygon fill="black" stroke="black" points="128.295,-41.5392 120.187,-34.72 122.273,-45.1074 128.295,-41.5392"/>
<text text-anchor="middle" x="162" y="-108.098" font-family="Times New Roman,serif" font-size="14.00">b</text>
</g>
<!-- T3&#45;&gt;T4 -->
<g id="edge11" class="edge"><title>T3&#45;&gt;T4</title>
<path fill="none" stroke="black" d="M110,-86.6793C110,-74.2289 110,-58.9952 110,-46.1353"/>
<polygon fill="black" stroke="black" points="113.5,-46.0044 110,-36.0045 106.5,-46.0045 113.5,-46.0044"/>
<text text-anchor="middle" x="113.5" y="-57.8" font-family="Times New Roman,serif" font-size="14.00">a</text>
</g>
<!-- T3&#45;&gt;T4 -->
<g id="edge12" class="edge"><title>T3&#45;&gt;T4</title>
<path fill="none" stroke="black" d="M115.933,-87.622C117.876,-77.3396 119.25,-65.0828 118,-54 117.696,-51.3057 117.264,-48.5165 116.757,-45.7424"/>
<polygon fill="black" stroke="black" points="120.181,-45.0143 114.683,-35.9578 113.333,-46.4663 120.181,-45.0143"/>
<text text-anchor="middle" x="123" y="-57.8" font-family="Times New Roman,serif" font-size="14.00">b</text>
</g>
<!-- T3&#45;&gt;T4 -->
<g id="edge13" class="edge"><title>T3&#45;&gt;T4</title>
<path fill="none" stroke="black" d="M101.998,-88.2051C99.2548,-77.8188 97.2634,-65.3177 99,-54 99.4202,-51.2614 100.015,-48.4428 100.714,-45.6507"/>
<polygon fill="black" stroke="black" points="104.134,-46.4227 103.567,-35.8431 97.4127,-44.467 104.134,-46.4227"/>
<text text-anchor="middle" x="102.5" y="-57.8" font-family="Times New Roman,serif" font-size="14.00">c</text>
</g>
<!-- T0&#45;&gt;T2 -->
<g id="edge3" class="edge"><title>T0&#45;&gt;T2</title>
<path fill="none" stroke="black" d="M100.902,-277.177C86.7526,-263.663 65.424,-243.293 49.3112,-227.905"/>
<polygon fill="black" stroke="black" points="51.5238,-225.178 41.8747,-220.802 46.6891,-230.24 51.5238,-225.178"/>
<text text-anchor="middle" x="81" y="-245.396" font-family="Times New Roman,serif" font-size="14.00">b</text>
</g>
<!-- T0&#45;&gt;T1 -->
<g id="edge2" class="edge"><title>T0&#45;&gt;T1</title>
<path fill="none" stroke="black" d="M125.781,-275.608C133.407,-263.142 144.133,-245.61 152.865,-231.336"/>
<polygon fill="black" stroke="black" points="156.03,-232.869 158.263,-222.512 150.059,-229.216 156.03,-232.869"/>
<text text-anchor="middle" x="150.5" y="-245.396" font-family="Times New Roman,serif" font-size="14.00">a</text>
</g>
<!-- T0&#45;&gt;T3 -->
<g id="edge4" class="edge"><title>T0&#45;&gt;T3</title>
<path fill="none" stroke="black" d="M115.425,-274.452C114.441,-245.131 112.417,-184.837 111.139,-146.744"/>
<polygon fill="black" stroke="black" points="114.633,-146.509 110.8,-136.632 107.637,-146.744 114.633,-146.509"/>
<text text-anchor="middle" x="117.5" y="-201.896" font-family="Times New Roman,serif" font-size="14.00">c</text>
</g>
<!-- T4&#45;&gt;T4 -->
<g id="edge14" class="edge"><title>T4&#45;&gt;T4</title>
<path fill="none" stroke="black" d="M136.795,-20.6192C146.78,-20.7051 155,-19.832 155,-18 155,-16.855 151.789,-16.0846 146.943,-15.6887"/>
<polygon fill="black" stroke="black" points="146.896,-12.1858 136.795,-15.3808 146.684,-19.1826 146.896,-12.1858"/>
<text text-anchor="middle" x="158.5" y="-14.3" font-family="Times New Roman,serif" font-size="14.00">a</text>
</g>
<!-- T4&#45;&gt;T4 -->
<g id="edge15" class="edge"><title>T4&#45;&gt;T4</title>
<path fill="none" stroke="black" d="M136.214,-22.7113C154.696,-24.1915 173,-22.6211 173,-18 173,-14.2454 160.917,-12.5046 146.472,-12.7778"/>
<polygon fill="black" stroke="black" points="146.027,-9.2955 136.214,-13.2887 146.375,-16.2868 146.027,-9.2955"/>
<text text-anchor="middle" x="177" y="-14.3" font-family="Times New Roman,serif" font-size="14.00">b</text>
</g>
<!-- T4&#45;&gt;T4 -->
<g id="edge16" class="edge"><title>T4&#45;&gt;T4</title>
<path fill="none" stroke="black" d="M135.713,-24.1447C161.877,-27.7592 191,-25.7109 191,-18 191,-11.2831 168.902,-8.863 145.91,-10.7398"/>
<polygon fill="black" stroke="black" points="145.273,-7.28856 135.713,-11.8553 146.034,-14.2471 145.273,-7.28856"/>
<text text-anchor="middle" x="194.5" y="-14.3" font-family="Times New Roman,serif" font-size="14.00">c</text>
</g>
</g>
</svg>
