<?xml version="1.0" encoding="UTF-8" standalone="no"?>
<!DOCTYPE svg PUBLIC "-//W3C//DTD SVG 1.1//EN"
 "http://www.w3.org/Graphics/SVG/1.1/DTD/svg11.dtd">
<!-- Generated by graphviz version 2.38.0 (20140413.2041)
 -->
<!-- Title: %3 Pages: 1 -->
<svg width="228pt" height="662pt"
 viewBox="0.00 0.00 228.00 661.70" xmlns="http://www.w3.org/2000/svg" xmlns:xlink="http://www.w3.org/1999/xlink">
<g id="graph0" class="graph" transform="scale(1 1) rotate(0) translate(4 657.696)">
<title>%3</title>
<polygon fill="white" stroke="none" points="-4,4 -4,-657.696 224,-657.696 224,4 -4,4"/>
<!-- fake0 -->
<g id="node1" class="node"><title>fake0</title>
</g>
<!-- T0 -->
<g id="node9" class="node"><title>T0</title>
<ellipse fill="none" stroke="black" cx="114" cy="-562.696" rx="27" ry="18"/>
<text text-anchor="middle" x="114" y="-558.996" font-family="Times New Roman,serif" font-size="14.00">T0</text>
</g>
<!-- fake0&#45;&gt;T0 -->
<g id="edge1" class="edge"><title>fake0&#45;&gt;T0</title>
<path fill="none" stroke="black" stroke-width="2" d="M114,-617.508C114,-609.485 114,-599.743 114,-590.765"/>
<polygon fill="black" stroke="black" stroke-width="2" points="117.5,-590.724 114,-580.724 110.5,-590.724 117.5,-590.724"/>
</g>
<!-- T8 -->
<g id="node2" class="node"><title>T8</title>
<ellipse fill="none" stroke="black" cx="146" cy="-214.696" rx="27" ry="18"/>
<text text-anchor="middle" x="146" y="-210.996" font-family="Times New Roman,serif" font-size="14.00">T8</text>
</g>
<!-- T9 -->
<g id="node7" class="node"><title>T9</title>
<ellipse fill="none" stroke="black" cx="114" cy="-127.696" rx="27" ry="18"/>
<text text-anchor="middle" x="114" y="-123.996" font-family="Times New Roman,serif" font-size="14.00">T9</text>
</g>
<!-- T8&#45;&gt;T9 -->
<g id="edge15" class="edge"><title>T8&#45;&gt;T9</title>
<path fill="none" stroke="black" d="M139.678,-196.902C135.164,-184.911 129.003,-168.547 123.847,-154.853"/>
<polygon fill="black" stroke="black" points="127.108,-153.579 120.309,-145.454 120.557,-156.046 127.108,-153.579"/>
<text text-anchor="middle" x="139.5" y="-167.496" font-family="Times New Roman,serif" font-size="14.00">EP</text>
</g>
<!-- T10 -->
<g id="node3" class="node"><title>T10</title>
<ellipse fill="none" stroke="black" cx="114" cy="-29.3478" rx="25.2169" ry="25.2169"/>
<ellipse fill="none" stroke="black" cx="114" cy="-29.3478" rx="29.1963" ry="29.1963"/>
<text text-anchor="middle" x="114" y="-25.6478" font-family="Times New Roman,serif" font-size="14.00">T10</text>
</g>
<!-- T7 -->
<g id="node4" class="node"><title>T7</title>
<ellipse fill="none" stroke="black" cx="193" cy="-301.696" rx="27" ry="18"/>
<text text-anchor="middle" x="193" y="-297.996" font-family="Times New Roman,serif" font-size="14.00">T7</text>
</g>
<!-- T7&#45;&gt;T8 -->
<g id="edge14" class="edge"><title>T7&#45;&gt;T8</title>
<path fill="none" stroke="black" d="M183.938,-284.307C177.132,-271.999 167.689,-254.921 159.927,-240.883"/>
<polygon fill="black" stroke="black" points="162.777,-238.803 154.875,-231.746 156.651,-242.191 162.777,-238.803"/>
<text text-anchor="middle" x="180.5" y="-254.496" font-family="Times New Roman,serif" font-size="14.00">EP</text>
</g>
<!-- T6 -->
<g id="node10" class="node"><title>T6</title>
<ellipse fill="none" stroke="black" cx="193" cy="-388.696" rx="27" ry="18"/>
<text text-anchor="middle" x="193" y="-384.996" font-family="Times New Roman,serif" font-size="14.00">T6</text>
</g>
<!-- T7&#45;&gt;T6 -->
<g id="edge13" class="edge"><title>T7&#45;&gt;T6</title>
<path fill="none" stroke="black" d="M194.265,-319.817C194.833,-329.47 195.312,-341.754 195,-352.696 194.927,-355.251 194.824,-357.91 194.703,-360.569"/>
<polygon fill="black" stroke="black" points="191.205,-360.443 194.172,-370.614 198.195,-360.813 191.205,-360.443"/>
<text text-anchor="middle" x="203.5" y="-341.496" font-family="Times New Roman,serif" font-size="14.00">EP</text>
</g>
<!-- T2 -->
<g id="node5" class="node"><title>T2</title>
<ellipse fill="none" stroke="black" cx="27" cy="-388.696" rx="27" ry="18"/>
<text text-anchor="middle" x="27" y="-384.996" font-family="Times New Roman,serif" font-size="14.00">T2</text>
</g>
<!-- T3 -->
<g id="node8" class="node"><title>T3</title>
<ellipse fill="none" stroke="black" cx="27" cy="-301.696" rx="27" ry="18"/>
<text text-anchor="middle" x="27" y="-297.996" font-family="Times New Roman,serif" font-size="14.00">T3</text>
</g>
<!-- T2&#45;&gt;T3 -->
<g id="edge6" class="edge"><title>T2&#45;&gt;T3</title>
<path fill="none" stroke="black" d="M16.3282,-372.01C12.9731,-366.203 9.70165,-359.397 8,-352.696 5.85522,-344.249 7.83609,-335.276 11.2061,-327.298"/>
<polygon fill="black" stroke="black" points="14.4364,-328.666 15.8217,-318.162 8.18848,-325.509 14.4364,-328.666"/>
<text text-anchor="middle" x="12.5" y="-341.496" font-family="Times New Roman,serif" font-size="14.00">a</text>
</g>
<!-- T1 -->
<g id="node6" class="node"><title>T1</title>
<ellipse fill="none" stroke="black" cx="74" cy="-475.696" rx="27" ry="18"/>
<text text-anchor="middle" x="74" y="-471.996" font-family="Times New Roman,serif" font-size="14.00">T1</text>
</g>
<!-- T1&#45;&gt;T2 -->
<g id="edge4" class="edge"><title>T1&#45;&gt;T2</title>
<path fill="none" stroke="black" d="M63.0061,-458.946C59.0418,-453.02 54.6493,-446.152 51,-439.696 46.6211,-431.948 42.2759,-423.278 38.5108,-415.361"/>
<polygon fill="black" stroke="black" points="41.6353,-413.779 34.2426,-406.19 35.289,-416.733 41.6353,-413.779"/>
<text text-anchor="middle" x="59.5" y="-428.496" font-family="Times New Roman,serif" font-size="14.00">EP</text>
</g>
<!-- T4 -->
<g id="node11" class="node"><title>T4</title>
<ellipse fill="none" stroke="black" cx="74" cy="-214.696" rx="27" ry="18"/>
<text text-anchor="middle" x="74" y="-210.996" font-family="Times New Roman,serif" font-size="14.00">T4</text>
</g>
<!-- T1&#45;&gt;T4 -->
<g id="edge5" class="edge"><title>T1&#45;&gt;T4</title>
<path fill="none" stroke="black" d="M74,-457.3C74,-413.158 74,-296.524 74,-243.111"/>
<polygon fill="black" stroke="black" points="77.5001,-243.016 74,-233.016 70.5001,-243.016 77.5001,-243.016"/>
<text text-anchor="middle" x="82.5" y="-341.496" font-family="Times New Roman,serif" font-size="14.00">EP</text>
</g>
<!-- T9&#45;&gt;T10 -->
<g id="edge16" class="edge"><title>T9&#45;&gt;T10</title>
<path fill="none" stroke="black" d="M114,-109.47C114,-98.256 114,-83.1612 114,-69.1629"/>
<polygon fill="black" stroke="black" points="117.5,-68.7544 114,-58.7545 110.5,-68.7545 117.5,-68.7544"/>
<text text-anchor="middle" x="117.5" y="-80.4955" font-family="Times New Roman,serif" font-size="14.00">c</text>
</g>
<!-- T3&#45;&gt;T2 -->
<g id="edge7" class="edge"><title>T3&#45;&gt;T2</title>
<path fill="none" stroke="black" d="M27,-319.871C27,-331.502 27,-347.115 27,-360.429"/>
<polygon fill="black" stroke="black" points="23.5001,-360.494 27,-370.494 30.5001,-360.495 23.5001,-360.494"/>
<text text-anchor="middle" x="35.5" y="-341.496" font-family="Times New Roman,serif" font-size="14.00">EP</text>
</g>
<!-- T3&#45;&gt;T4 -->
<g id="edge8" class="edge"><title>T3&#45;&gt;T4</title>
<path fill="none" stroke="black" d="M34.2426,-284.201C38.748,-274.316 44.8407,-261.593 51,-250.696 52.9957,-247.165 55.2137,-243.511 57.4624,-239.955"/>
<polygon fill="black" stroke="black" points="60.4804,-241.734 63.0061,-231.445 54.6151,-237.914 60.4804,-241.734"/>
<text text-anchor="middle" x="59.5" y="-254.496" font-family="Times New Roman,serif" font-size="14.00">EP</text>
</g>
<!-- T0&#45;&gt;T1 -->
<g id="edge2" class="edge"><title>T0&#45;&gt;T1</title>
<path fill="none" stroke="black" d="M106.288,-545.307C100.533,-533.077 92.5614,-516.138 85.9793,-502.152"/>
<polygon fill="black" stroke="black" points="89.1136,-500.592 81.6887,-493.034 82.7799,-503.573 89.1136,-500.592"/>
<text text-anchor="middle" x="104.5" y="-515.496" font-family="Times New Roman,serif" font-size="14.00">EP</text>
</g>
<!-- T5 -->
<g id="node12" class="node"><title>T5</title>
<ellipse fill="none" stroke="black" cx="146" cy="-475.696" rx="27" ry="18"/>
<text text-anchor="middle" x="146" y="-471.996" font-family="Times New Roman,serif" font-size="14.00">T5</text>
</g>
<!-- T0&#45;&gt;T5 -->
<g id="edge3" class="edge"><title>T0&#45;&gt;T5</title>
<path fill="none" stroke="black" d="M120.322,-544.902C124.836,-532.911 130.997,-516.547 136.153,-502.853"/>
<polygon fill="black" stroke="black" points="139.443,-504.046 139.691,-493.454 132.892,-501.579 139.443,-504.046"/>
<text text-anchor="middle" x="140.5" y="-515.496" font-family="Times New Roman,serif" font-size="14.00">EP</text>
</g>
<!-- T6&#45;&gt;T7 -->
<g id="edge12" class="edge"><title>T6&#45;&gt;T7</title>
<path fill="none" stroke="black" d="M189.839,-370.592C188.42,-360.944 187.221,-348.66 188,-337.696 188.183,-335.124 188.44,-332.454 188.743,-329.788"/>
<polygon fill="black" stroke="black" points="192.231,-330.106 190.072,-319.733 185.291,-329.188 192.231,-330.106"/>
<text text-anchor="middle" x="192" y="-341.496" font-family="Times New Roman,serif" font-size="14.00">b</text>
</g>
<!-- T4&#45;&gt;T9 -->
<g id="edge9" class="edge"><title>T4&#45;&gt;T9</title>
<path fill="none" stroke="black" d="M81.7124,-197.307C87.4674,-185.077 95.4386,-168.138 102.021,-154.152"/>
<polygon fill="black" stroke="black" points="105.22,-155.573 106.311,-145.034 98.8864,-152.592 105.22,-155.573"/>
<text text-anchor="middle" x="105.5" y="-167.496" font-family="Times New Roman,serif" font-size="14.00">EP</text>
</g>
<!-- T5&#45;&gt;T8 -->
<g id="edge11" class="edge"><title>T5&#45;&gt;T8</title>
<path fill="none" stroke="black" d="M146,-457.3C146,-413.158 146,-296.524 146,-243.111"/>
<polygon fill="black" stroke="black" points="149.5,-243.016 146,-233.016 142.5,-243.016 149.5,-243.016"/>
<text text-anchor="middle" x="154.5" y="-341.496" font-family="Times New Roman,serif" font-size="14.00">EP</text>
</g>
<!-- T5&#45;&gt;T6 -->
<g id="edge10" class="edge"><title>T5&#45;&gt;T6</title>
<path fill="none" stroke="black" d="M155.062,-458.307C161.868,-445.999 171.311,-428.921 179.073,-414.883"/>
<polygon fill="black" stroke="black" points="182.349,-416.191 184.125,-405.746 176.223,-412.803 182.349,-416.191"/>
<text text-anchor="middle" x="181.5" y="-428.496" font-family="Times New Roman,serif" font-size="14.00">EP</text>
</g>
</g>
</svg>
