<?xml version="1.0" encoding="UTF-8" standalone="no"?>
<!DOCTYPE svg PUBLIC "-//W3C//DTD SVG 1.1//EN"
 "http://www.w3.org/Graphics/SVG/1.1/DTD/svg11.dtd">
<!-- Generated by graphviz version 2.38.0 (20140413.2041)
 -->
<!-- Title: %3 Pages: 1 -->
<svg width="204pt" height="653pt"
 viewBox="0.00 0.00 203.57 652.60" xmlns="http://www.w3.org/2000/svg" xmlns:xlink="http://www.w3.org/1999/xlink">
<g id="graph0" class="graph" transform="scale(1 1) rotate(0) translate(4 648.596)">
<title>%3</title>
<polygon fill="white" stroke="none" points="-4,4 -4,-648.596 199.572,-648.596 199.572,4 -4,4"/>
<!-- fake0 -->
<g id="node1" class="node"><title>fake0</title>
</g>
<!-- T0 -->
<g id="node10" class="node"><title>T0</title>
<ellipse fill="none" stroke="black" cx="138.572" cy="-553.596" rx="27" ry="18"/>
<text text-anchor="middle" x="138.572" y="-549.896" font-family="Times New Roman,serif" font-size="14.00">T0</text>
</g>
<!-- fake0&#45;&gt;T0 -->
<g id="edge1" class="edge"><title>fake0&#45;&gt;T0</title>
<path fill="none" stroke="black" stroke-width="2" d="M138.572,-608.409C138.572,-600.386 138.572,-590.644 138.572,-581.665"/>
<polygon fill="black" stroke="black" stroke-width="2" points="142.072,-581.625 138.572,-571.625 135.072,-581.625 142.072,-581.625"/>
</g>
<!-- T4 -->
<g id="node2" class="node"><title>T4</title>
<ellipse fill="none" stroke="black" cx="51.5721" cy="-292.596" rx="27" ry="18"/>
<text text-anchor="middle" x="51.5721" y="-288.896" font-family="Times New Roman,serif" font-size="14.00">T4</text>
</g>
<!-- T5 -->
<g id="node3" class="node"><title>T5</title>
<ellipse fill="none" stroke="black" cx="51.5721" cy="-205.596" rx="27" ry="18"/>
<text text-anchor="middle" x="51.5721" y="-201.896" font-family="Times New Roman,serif" font-size="14.00">T5</text>
</g>
<!-- T4&#45;&gt;T5 -->
<g id="edge7" class="edge"><title>T4&#45;&gt;T5</title>
<path fill="none" stroke="black" d="M51.5721,-274.395C51.5721,-262.759 51.5721,-247.144 51.5721,-233.833"/>
<polygon fill="black" stroke="black" points="55.0722,-233.772 51.5721,-223.772 48.0722,-233.772 55.0722,-233.772"/>
<text text-anchor="middle" x="56.5721" y="-245.396" font-family="Times New Roman,serif" font-size="14.00">B</text>
</g>
<!-- T6 -->
<g id="node4" class="node"><title>T6</title>
<ellipse fill="none" stroke="black" cx="81.5721" cy="-118.596" rx="27" ry="18"/>
<text text-anchor="middle" x="81.5721" y="-114.896" font-family="Times New Roman,serif" font-size="14.00">T6</text>
</g>
<!-- T5&#45;&gt;T6 -->
<g id="edge8" class="edge"><title>T5&#45;&gt;T6</title>
<path fill="none" stroke="black" d="M57.4991,-187.803C61.6902,-175.928 67.395,-159.765 72.1991,-146.153"/>
<polygon fill="black" stroke="black" points="75.6295,-146.949 75.6573,-136.355 69.0286,-144.62 75.6295,-146.949"/>
<text text-anchor="middle" x="77.0721" y="-158.396" font-family="Times New Roman,serif" font-size="14.00">EP</text>
</g>
<!-- T1 -->
<g id="node5" class="node"><title>T1</title>
<ellipse fill="none" stroke="black" cx="83.5721" cy="-379.596" rx="27" ry="18"/>
<text text-anchor="middle" x="83.5721" y="-375.896" font-family="Times New Roman,serif" font-size="14.00">T1</text>
</g>
<!-- T6&#45;&gt;T1 -->
<g id="edge9" class="edge"><title>T6&#45;&gt;T1</title>
<path fill="none" stroke="black" d="M63.3333,-131.963C47.3284,-144.021 25.1546,-163.965 15.5721,-187.596 -4.97051,-238.256 -5.34796,-260.091 15.5721,-310.596 23.9278,-330.769 41.4931,-348.077 56.6775,-360.183"/>
<polygon fill="black" stroke="black" points="54.7169,-363.09 64.7947,-366.359 58.9553,-357.519 54.7169,-363.09"/>
<text text-anchor="middle" x="9.07207" y="-245.396" font-family="Times New Roman,serif" font-size="14.00">EP</text>
</g>
<!-- T8 -->
<g id="node7" class="node"><title>T8</title>
<ellipse fill="none" stroke="black" cx="140.572" cy="-24.7982" rx="20.6302" ry="20.6302"/>
<ellipse fill="none" stroke="black" cx="140.572" cy="-24.7982" rx="24.5979" ry="24.5979"/>
<text text-anchor="middle" x="140.572" y="-21.0982" font-family="Times New Roman,serif" font-size="14.00">T8</text>
</g>
<!-- T6&#45;&gt;T8 -->
<g id="edge10" class="edge"><title>T6&#45;&gt;T8</title>
<path fill="none" stroke="black" d="M91.8491,-101.606C100.129,-88.724 111.987,-70.2742 121.931,-54.8014"/>
<polygon fill="black" stroke="black" points="125.061,-56.4047 127.524,-46.1 119.173,-52.6199 125.061,-56.4047"/>
<text text-anchor="middle" x="121.072" y="-71.3963" font-family="Times New Roman,serif" font-size="14.00">EP</text>
</g>
<!-- T1&#45;&gt;T4 -->
<g id="edge3" class="edge"><title>T1&#45;&gt;T4</title>
<path fill="none" stroke="black" d="M77.2499,-361.803C72.7356,-349.812 66.5748,-333.447 61.4194,-319.753"/>
<polygon fill="black" stroke="black" points="64.68,-318.48 57.8811,-310.355 58.1289,-320.947 64.68,-318.48"/>
<text text-anchor="middle" x="77.0721" y="-332.396" font-family="Times New Roman,serif" font-size="14.00">EP</text>
</g>
<!-- T2 -->
<g id="node8" class="node"><title>T2</title>
<ellipse fill="none" stroke="black" cx="123.572" cy="-292.596" rx="27" ry="18"/>
<text text-anchor="middle" x="123.572" y="-288.896" font-family="Times New Roman,serif" font-size="14.00">T2</text>
</g>
<!-- T1&#45;&gt;T2 -->
<g id="edge4" class="edge"><title>T1&#45;&gt;T2</title>
<path fill="none" stroke="black" d="M91.2845,-362.207C97.0395,-349.978 105.011,-333.039 111.593,-319.052"/>
<polygon fill="black" stroke="black" points="114.792,-320.473 115.883,-309.935 108.458,-317.493 114.792,-320.473"/>
<text text-anchor="middle" x="115.072" y="-332.396" font-family="Times New Roman,serif" font-size="14.00">EP</text>
</g>
<!-- T7 -->
<g id="node6" class="node"><title>T7</title>
<ellipse fill="none" stroke="black" cx="138.572" cy="-466.596" rx="27" ry="18"/>
<text text-anchor="middle" x="138.572" y="-462.896" font-family="Times New Roman,serif" font-size="14.00">T7</text>
</g>
<!-- T7&#45;&gt;T1 -->
<g id="edge11" class="edge"><title>T7&#45;&gt;T1</title>
<path fill="none" stroke="black" d="M128.227,-449.608C120.084,-437.024 108.6,-419.275 99.3166,-404.929"/>
<polygon fill="black" stroke="black" points="102.242,-403.007 93.8708,-396.512 96.3648,-406.81 102.242,-403.007"/>
<text text-anchor="middle" x="122.072" y="-419.396" font-family="Times New Roman,serif" font-size="14.00">EP</text>
</g>
<!-- T7&#45;&gt;T8 -->
<g id="edge12" class="edge"><title>T7&#45;&gt;T8</title>
<path fill="none" stroke="black" d="M150.791,-450.318C162.554,-434.038 178.572,-407.017 178.572,-380.596 178.572,-380.596 178.572,-380.596 178.572,-117.596 178.572,-95.3293 168.909,-72.1762 159.329,-54.6929"/>
<polygon fill="black" stroke="black" points="162.111,-52.5117 154.076,-45.6049 156.05,-56.0144 162.111,-52.5117"/>
<text text-anchor="middle" x="187.072" y="-245.396" font-family="Times New Roman,serif" font-size="14.00">EP</text>
</g>
<!-- T3 -->
<g id="node9" class="node"><title>T3</title>
<ellipse fill="none" stroke="black" cx="123.572" cy="-205.596" rx="27" ry="18"/>
<text text-anchor="middle" x="123.572" y="-201.896" font-family="Times New Roman,serif" font-size="14.00">T3</text>
</g>
<!-- T2&#45;&gt;T3 -->
<g id="edge5" class="edge"><title>T2&#45;&gt;T3</title>
<path fill="none" stroke="black" d="M123.572,-274.395C123.572,-262.759 123.572,-247.144 123.572,-233.833"/>
<polygon fill="black" stroke="black" points="127.072,-233.772 123.572,-223.772 120.072,-233.772 127.072,-233.772"/>
<text text-anchor="middle" x="128.572" y="-245.396" font-family="Times New Roman,serif" font-size="14.00">A</text>
</g>
<!-- T3&#45;&gt;T6 -->
<g id="edge6" class="edge"><title>T3&#45;&gt;T6</title>
<path fill="none" stroke="black" d="M115.474,-188.207C109.431,-175.978 101.062,-159.039 94.1503,-145.052"/>
<polygon fill="black" stroke="black" points="97.213,-143.35 89.6452,-135.935 90.9373,-146.451 97.213,-143.35"/>
<text text-anchor="middle" x="113.072" y="-158.396" font-family="Times New Roman,serif" font-size="14.00">EP</text>
</g>
<!-- T0&#45;&gt;T7 -->
<g id="edge2" class="edge"><title>T0&#45;&gt;T7</title>
<path fill="none" stroke="black" d="M138.572,-535.395C138.572,-523.759 138.572,-508.144 138.572,-494.833"/>
<polygon fill="black" stroke="black" points="142.072,-494.772 138.572,-484.772 135.072,-494.772 142.072,-494.772"/>
<text text-anchor="middle" x="143.572" y="-506.396" font-family="Times New Roman,serif" font-size="14.00">A</text>
</g>
</g>
</svg>
