<?xml version="1.0" encoding="UTF-8" standalone="no"?>
<!DOCTYPE svg PUBLIC "-//W3C//DTD SVG 1.1//EN"
 "http://www.w3.org/Graphics/SVG/1.1/DTD/svg11.dtd">
<!-- Generated by graphviz version 2.38.0 (20140413.2041)
 -->
<!-- Title: %3 Pages: 1 -->
<svg width="252pt" height="419pt"
 viewBox="0.00 0.00 251.80 418.79" xmlns="http://www.w3.org/2000/svg" xmlns:xlink="http://www.w3.org/1999/xlink">
<g id="graph0" class="graph" transform="scale(1 1) rotate(0) translate(4 414.789)">
<title>%3</title>
<polygon fill="white" stroke="none" points="-4,4 -4,-414.789 247.798,-414.789 247.798,4 -4,4"/>
<!-- fake0 -->
<g id="node1" class="node"><title>fake0</title>
</g>
<!-- T0 -->
<g id="node6" class="node"><title>T0</title>
<ellipse fill="none" stroke="black" cx="124.798" cy="-319.789" rx="27" ry="18"/>
<text text-anchor="middle" x="124.798" y="-316.089" font-family="Times New Roman,serif" font-size="14.00">T0</text>
</g>
<!-- fake0&#45;&gt;T0 -->
<g id="edge1" class="edge"><title>fake0&#45;&gt;T0</title>
<path fill="none" stroke="black" stroke-width="2" d="M124.798,-374.602C124.798,-366.578 124.798,-356.836 124.798,-347.858"/>
<polygon fill="black" stroke="black" stroke-width="2" points="128.298,-347.818 124.798,-337.818 121.298,-347.818 128.298,-347.818"/>
</g>
<!-- T4 -->
<g id="node2" class="node"><title>T4</title>
<ellipse fill="none" stroke="black" cx="24.7982" cy="-125.394" rx="20.6302" ry="20.6302"/>
<ellipse fill="none" stroke="black" cx="24.7982" cy="-125.394" rx="24.5979" ry="24.5979"/>
<text text-anchor="middle" x="24.7982" y="-121.694" font-family="Times New Roman,serif" font-size="14.00">T4</text>
</g>
<!-- T4&#45;&gt;T4 -->
<g id="edge11" class="edge"><title>T4&#45;&gt;T4</title>
<path fill="none" stroke="black" d="M48.1303,-134.623C58.5686,-135.502 67.5963,-132.426 67.5963,-125.394 67.5963,-120.89 63.8913,-118.009 58.484,-116.751"/>
<polygon fill="black" stroke="black" points="58.3118,-113.236 48.1303,-116.166 57.9169,-120.224 58.3118,-113.236"/>
<text text-anchor="middle" x="72.5963" y="-121.694" font-family="Times New Roman,serif" font-size="14.00">B</text>
</g>
<!-- T3 -->
<g id="node5" class="node"><title>T3</title>
<ellipse fill="none" stroke="black" cx="57.7982" cy="-24.7982" rx="20.6302" ry="20.6302"/>
<ellipse fill="none" stroke="black" cx="57.7982" cy="-24.7982" rx="24.5979" ry="24.5979"/>
<text text-anchor="middle" x="57.7982" y="-21.0982" font-family="Times New Roman,serif" font-size="14.00">T3</text>
</g>
<!-- T4&#45;&gt;T3 -->
<g id="edge10" class="edge"><title>T4&#45;&gt;T3</title>
<path fill="none" stroke="black" d="M21.9393,-100.599C21.5154,-90.2015 22.1614,-78.0262 25.7982,-67.5963 27.8029,-61.8469 30.9316,-56.259 34.4634,-51.138"/>
<polygon fill="black" stroke="black" points="37.378,-53.0879 40.6605,-43.0144 31.8125,-48.8423 37.378,-53.0879"/>
<text text-anchor="middle" x="30.7982" y="-71.3963" font-family="Times New Roman,serif" font-size="14.00">A</text>
</g>
<!-- T1 -->
<g id="node3" class="node"><title>T1</title>
<ellipse fill="none" stroke="black" cx="90.7982" cy="-225.991" rx="20.6302" ry="20.6302"/>
<ellipse fill="none" stroke="black" cx="90.7982" cy="-225.991" rx="24.5979" ry="24.5979"/>
<text text-anchor="middle" x="90.7982" y="-222.291" font-family="Times New Roman,serif" font-size="14.00">T1</text>
</g>
<!-- T1&#45;&gt;T4 -->
<g id="edge5" class="edge"><title>T1&#45;&gt;T4</title>
<path fill="none" stroke="black" d="M77.4421,-205.038C67.7805,-190.605 54.587,-170.895 43.8251,-154.819"/>
<polygon fill="black" stroke="black" points="46.6056,-152.68 38.1344,-146.317 40.7886,-156.574 46.6056,-152.68"/>
<text text-anchor="middle" x="66.7982" y="-171.993" font-family="Times New Roman,serif" font-size="14.00">B</text>
</g>
<!-- T1&#45;&gt;T3 -->
<g id="edge4" class="edge"><title>T1&#45;&gt;T3</title>
<path fill="none" stroke="black" d="M92.4031,-200.866C93.5323,-175.599 93.7869,-134.896 86.7982,-100.596 83.7845,-85.8061 78.1252,-70.1334 72.6003,-56.976"/>
<polygon fill="black" stroke="black" points="75.6555,-55.2262 68.4477,-47.4611 69.2399,-58.0263 75.6555,-55.2262"/>
<text text-anchor="middle" x="97.7982" y="-121.694" font-family="Times New Roman,serif" font-size="14.00">A</text>
</g>
<!-- T2 -->
<g id="node4" class="node"><title>T2</title>
<ellipse fill="none" stroke="black" cx="160.798" cy="-225.991" rx="27" ry="18"/>
<text text-anchor="middle" x="160.798" y="-222.291" font-family="Times New Roman,serif" font-size="14.00">T2</text>
</g>
<!-- T2&#45;&gt;T2 -->
<g id="edge6" class="edge"><title>T2&#45;&gt;T2</title>
<path fill="none" stroke="black" d="M187.145,-230.66C197.331,-230.867 205.798,-229.311 205.798,-225.991 205.798,-223.864 202.323,-222.461 197.148,-221.781"/>
<polygon fill="black" stroke="black" points="197.295,-218.284 187.145,-221.322 196.973,-225.277 197.295,-218.284"/>
<text text-anchor="middle" x="210.798" y="-222.291" font-family="Times New Roman,serif" font-size="14.00">A</text>
</g>
<!-- T2&#45;&gt;T2 -->
<g id="edge7" class="edge"><title>T2&#45;&gt;T2</title>
<path fill="none" stroke="black" d="M185.043,-234.102C204.172,-237.239 223.798,-234.536 223.798,-225.991 223.798,-218.981 210.591,-215.902 195.286,-216.754"/>
<polygon fill="black" stroke="black" points="194.601,-213.308 185.043,-217.88 195.366,-220.266 194.601,-213.308"/>
<text text-anchor="middle" x="228.798" y="-222.291" font-family="Times New Roman,serif" font-size="14.00">B</text>
</g>
<!-- T3&#45;&gt;T4 -->
<g id="edge9" class="edge"><title>T3&#45;&gt;T4</title>
<path fill="none" stroke="black" d="M50.1859,-48.5419C45.9032,-61.3375 40.482,-77.5349 35.7498,-91.6735"/>
<polygon fill="black" stroke="black" points="32.3069,-90.9328 32.452,-101.527 38.945,-93.1546 32.3069,-90.9328"/>
<text text-anchor="middle" x="48.7982" y="-71.3963" font-family="Times New Roman,serif" font-size="14.00">B</text>
</g>
<!-- T3&#45;&gt;T3 -->
<g id="edge8" class="edge"><title>T3&#45;&gt;T3</title>
<path fill="none" stroke="black" d="M81.1303,-34.0267C91.5686,-34.9056 100.596,-31.8294 100.596,-24.7982 100.596,-20.2938 96.8913,-17.4125 91.484,-16.1545"/>
<polygon fill="black" stroke="black" points="91.3118,-12.6392 81.1303,-15.5696 90.9169,-19.6281 91.3118,-12.6392"/>
<text text-anchor="middle" x="105.596" y="-21.0982" font-family="Times New Roman,serif" font-size="14.00">A</text>
</g>
<!-- T0&#45;&gt;T1 -->
<g id="edge2" class="edge"><title>T0&#45;&gt;T1</title>
<path fill="none" stroke="black" d="M118.562,-301.952C114.138,-290.008 108.063,-273.604 102.723,-259.186"/>
<polygon fill="black" stroke="black" points="105.928,-257.763 99.1727,-249.601 99.3638,-260.195 105.928,-257.763"/>
<text text-anchor="middle" x="116.798" y="-272.589" font-family="Times New Roman,serif" font-size="14.00">A</text>
</g>
<!-- T0&#45;&gt;T2 -->
<g id="edge3" class="edge"><title>T0&#45;&gt;T2</title>
<path fill="none" stroke="black" d="M131.401,-301.952C136.729,-288.365 144.321,-269.006 150.455,-253.365"/>
<polygon fill="black" stroke="black" points="153.844,-254.309 154.237,-243.721 147.328,-251.753 153.844,-254.309"/>
<text text-anchor="middle" x="149.798" y="-272.589" font-family="Times New Roman,serif" font-size="14.00">B</text>
</g>
</g>
</svg>
