<?xml version="1.0" encoding="UTF-8" standalone="no"?>
<!DOCTYPE svg PUBLIC "-//W3C//DTD SVG 1.1//EN"
 "http://www.w3.org/Graphics/SVG/1.1/DTD/svg11.dtd">
<!-- Generated by graphviz version 2.38.0 (20140413.2041)
 -->
<!-- Title: %3 Pages: 1 -->
<svg width="69pt" height="479pt"
 viewBox="0.00 0.00 69.09 478.60" xmlns="http://www.w3.org/2000/svg" xmlns:xlink="http://www.w3.org/1999/xlink">
<g id="graph0" class="graph" transform="scale(1 1) rotate(0) translate(4 474.596)">
<title>%3</title>
<polygon fill="white" stroke="none" points="-4,4 -4,-474.596 65.0946,-474.596 65.0946,4 -4,4"/>
<!-- fake0 -->
<g id="node1" class="node"><title>fake0</title>
</g>
<!-- T0 -->
<g id="node3" class="node"><title>T0</title>
<ellipse fill="none" stroke="black" cx="30.5473" cy="-379.596" rx="27" ry="18"/>
<text text-anchor="middle" x="30.5473" y="-375.896" font-family="Times New Roman,serif" font-size="14.00">T0</text>
</g>
<!-- fake0&#45;&gt;T0 -->
<g id="edge1" class="edge"><title>fake0&#45;&gt;T0</title>
<path fill="none" stroke="black" stroke-width="2" d="M30.5473,-434.409C30.5473,-426.386 30.5473,-416.644 30.5473,-407.665"/>
<polygon fill="black" stroke="black" stroke-width="2" points="34.0474,-407.625 30.5473,-397.625 27.0474,-407.625 34.0474,-407.625"/>
</g>
<!-- T4 -->
<g id="node2" class="node"><title>T4</title>
<ellipse fill="none" stroke="black" cx="30.5473" cy="-24.7982" rx="20.6302" ry="20.6302"/>
<ellipse fill="none" stroke="black" cx="30.5473" cy="-24.7982" rx="24.5979" ry="24.5979"/>
<text text-anchor="middle" x="30.5473" y="-21.0982" font-family="Times New Roman,serif" font-size="14.00">T4</text>
</g>
<!-- T1 -->
<g id="node5" class="node"><title>T1</title>
<ellipse fill="none" stroke="black" cx="30.5473" cy="-292.596" rx="27" ry="18"/>
<text text-anchor="middle" x="30.5473" y="-288.896" font-family="Times New Roman,serif" font-size="14.00">T1</text>
</g>
<!-- T0&#45;&gt;T1 -->
<g id="edge2" class="edge"><title>T0&#45;&gt;T1</title>
<path fill="none" stroke="black" d="M30.5473,-361.395C30.5473,-349.759 30.5473,-334.144 30.5473,-320.833"/>
<polygon fill="black" stroke="black" points="34.0474,-320.772 30.5473,-310.772 27.0474,-320.772 34.0474,-320.772"/>
<text text-anchor="middle" x="34.0473" y="-332.396" font-family="Times New Roman,serif" font-size="14.00">a</text>
</g>
<!-- T3 -->
<g id="node4" class="node"><title>T3</title>
<ellipse fill="none" stroke="black" cx="30.5473" cy="-118.596" rx="27" ry="18"/>
<text text-anchor="middle" x="30.5473" y="-114.896" font-family="Times New Roman,serif" font-size="14.00">T3</text>
</g>
<!-- T3&#45;&gt;T4 -->
<g id="edge5" class="edge"><title>T3&#45;&gt;T4</title>
<path fill="none" stroke="black" d="M30.5473,-100.33C30.5473,-88.9897 30.5473,-73.7672 30.5473,-60.0359"/>
<polygon fill="black" stroke="black" points="34.0474,-59.9151 30.5473,-49.9152 27.0474,-59.9152 34.0474,-59.9151"/>
<text text-anchor="middle" x="34.0473" y="-71.3963" font-family="Times New Roman,serif" font-size="14.00">a</text>
</g>
<!-- T2 -->
<g id="node6" class="node"><title>T2</title>
<ellipse fill="none" stroke="black" cx="30.5473" cy="-205.596" rx="27" ry="18"/>
<text text-anchor="middle" x="30.5473" y="-201.896" font-family="Times New Roman,serif" font-size="14.00">T2</text>
</g>
<!-- T1&#45;&gt;T2 -->
<g id="edge3" class="edge"><title>T1&#45;&gt;T2</title>
<path fill="none" stroke="black" d="M30.5473,-274.395C30.5473,-262.759 30.5473,-247.144 30.5473,-233.833"/>
<polygon fill="black" stroke="black" points="34.0474,-233.772 30.5473,-223.772 27.0474,-233.772 34.0474,-233.772"/>
<text text-anchor="middle" x="34.5473" y="-245.396" font-family="Times New Roman,serif" font-size="14.00">b</text>
</g>
<!-- T2&#45;&gt;T3 -->
<g id="edge4" class="edge"><title>T2&#45;&gt;T3</title>
<path fill="none" stroke="black" d="M30.5473,-187.395C30.5473,-175.759 30.5473,-160.144 30.5473,-146.833"/>
<polygon fill="black" stroke="black" points="34.0474,-146.772 30.5473,-136.772 27.0474,-146.772 34.0474,-146.772"/>
<text text-anchor="middle" x="34.5473" y="-158.396" font-family="Times New Roman,serif" font-size="14.00">b</text>
</g>
</g>
</svg>
