<?xml version="1.0" encoding="UTF-8" standalone="no"?>
<!DOCTYPE svg PUBLIC "-//W3C//DTD SVG 1.1//EN"
 "http://www.w3.org/Graphics/SVG/1.1/DTD/svg11.dtd">
<!-- Generated by graphviz version 2.38.0 (20140413.2041)
 -->
<!-- Title: %3 Pages: 1 -->
<svg width="238pt" height="506pt"
 viewBox="0.00 0.00 237.72 505.79" xmlns="http://www.w3.org/2000/svg" xmlns:xlink="http://www.w3.org/1999/xlink">
<g id="graph0" class="graph" transform="scale(1 1) rotate(0) translate(4 501.789)">
<title>%3</title>
<polygon fill="white" stroke="none" points="-4,4 -4,-501.789 233.722,-501.789 233.722,4 -4,4"/>
<!-- fake0 -->
<g id="node1" class="node"><title>fake0</title>
</g>
<!-- T0 -->
<g id="node4" class="node"><title>T0</title>
<ellipse fill="none" stroke="black" cx="173.722" cy="-406.789" rx="27" ry="18"/>
<text text-anchor="middle" x="173.722" y="-403.089" font-family="Times New Roman,serif" font-size="14.00">T0</text>
</g>
<!-- fake0&#45;&gt;T0 -->
<g id="edge1" class="edge"><title>fake0&#45;&gt;T0</title>
<path fill="none" stroke="black" stroke-width="2" d="M173.722,-461.602C173.722,-453.578 173.722,-443.836 173.722,-434.858"/>
<polygon fill="black" stroke="black" stroke-width="2" points="177.222,-434.818 173.722,-424.818 170.222,-434.818 177.222,-434.818"/>
</g>
<!-- T4 -->
<g id="node2" class="node"><title>T4</title>
<ellipse fill="none" stroke="black" cx="38.7222" cy="-212.394" rx="20.6302" ry="20.6302"/>
<ellipse fill="none" stroke="black" cx="38.7222" cy="-212.394" rx="24.5979" ry="24.5979"/>
<text text-anchor="middle" x="38.7222" y="-208.694" font-family="Times New Roman,serif" font-size="14.00">T4</text>
</g>
<!-- T4&#45;&gt;T4 -->
<g id="edge16" class="edge"><title>T4&#45;&gt;T4</title>
<path fill="none" stroke="black" d="M62.0543,-221.623C72.4927,-222.502 81.5204,-219.426 81.5204,-212.394 81.5204,-207.89 77.8154,-205.009 72.4081,-203.751"/>
<polygon fill="black" stroke="black" points="72.2358,-200.236 62.0543,-203.166 71.841,-207.224 72.2358,-200.236"/>
<text text-anchor="middle" x="86.5204" y="-208.694" font-family="Times New Roman,serif" font-size="14.00">B</text>
</g>
<!-- T3 -->
<g id="node3" class="node"><title>T3</title>
<ellipse fill="none" stroke="black" cx="92.7222" cy="-111.798" rx="20.6302" ry="20.6302"/>
<ellipse fill="none" stroke="black" cx="92.7222" cy="-111.798" rx="24.5979" ry="24.5979"/>
<text text-anchor="middle" x="92.7222" y="-108.098" font-family="Times New Roman,serif" font-size="14.00">T3</text>
</g>
<!-- T4&#45;&gt;T3 -->
<g id="edge15" class="edge"><title>T4&#45;&gt;T3</title>
<path fill="none" stroke="black" d="M57.3095,-195.955C64.9703,-188.688 73.3039,-179.455 78.7222,-169.596 82.6432,-162.462 85.4813,-154.227 87.5303,-146.28"/>
<polygon fill="black" stroke="black" points="90.9567,-146.996 89.7257,-136.473 84.1257,-145.466 90.9567,-146.996"/>
<text text-anchor="middle" x="90.7222" y="-158.396" font-family="Times New Roman,serif" font-size="14.00">A</text>
</g>
<!-- T2 -->
<g id="node6" class="node"><title>T2</title>
<ellipse fill="none" stroke="black" cx="92.7222" cy="-18" rx="27" ry="18"/>
<text text-anchor="middle" x="92.7222" y="-14.3" font-family="Times New Roman,serif" font-size="14.00">T2</text>
</g>
<!-- T4&#45;&gt;T2 -->
<g id="edge14" class="edge"><title>T4&#45;&gt;T2</title>
<path fill="none" stroke="black" d="M37.228,-187.312C36.4201,-161.728 37.3701,-120.441 48.7222,-87 54.231,-70.7722 64.4671,-54.5837 73.6808,-42.075"/>
<polygon fill="black" stroke="black" points="76.5263,-44.1159 79.8255,-34.0479 70.9679,-39.861 76.5263,-44.1159"/>
<text text-anchor="middle" x="53.7222" y="-108.098" font-family="Times New Roman,serif" font-size="14.00">D</text>
</g>
<!-- T3&#45;&gt;T4 -->
<g id="edge13" class="edge"><title>T3&#45;&gt;T4</title>
<path fill="none" stroke="black" d="M80.6135,-133.552C76.762,-140.242 72.518,-147.707 68.7222,-154.596 64.0193,-163.132 59.0313,-172.459 54.5008,-181.042"/>
<polygon fill="black" stroke="black" points="51.3517,-179.511 49.7995,-189.991 57.5487,-182.766 51.3517,-179.511"/>
<text text-anchor="middle" x="73.7222" y="-158.396" font-family="Times New Roman,serif" font-size="14.00">B</text>
</g>
<!-- T3&#45;&gt;T3 -->
<g id="edge12" class="edge"><title>T3&#45;&gt;T3</title>
<path fill="none" stroke="black" d="M116.054,-121.027C126.493,-121.906 135.52,-118.829 135.52,-111.798 135.52,-107.294 131.815,-104.413 126.408,-103.154"/>
<polygon fill="black" stroke="black" points="126.236,-99.6392 116.054,-102.57 125.841,-106.628 126.236,-99.6392"/>
<text text-anchor="middle" x="140.52" y="-108.098" font-family="Times New Roman,serif" font-size="14.00">A</text>
</g>
<!-- T3&#45;&gt;T2 -->
<g id="edge11" class="edge"><title>T3&#45;&gt;T2</title>
<path fill="none" stroke="black" d="M92.7222,-86.6793C92.7222,-74.2289 92.7222,-58.9952 92.7222,-46.1353"/>
<polygon fill="black" stroke="black" points="96.2223,-46.0044 92.7222,-36.0045 89.2223,-46.0045 96.2223,-46.0044"/>
<text text-anchor="middle" x="97.7222" y="-57.8" font-family="Times New Roman,serif" font-size="14.00">D</text>
</g>
<!-- T1 -->
<g id="node5" class="node"><title>T1</title>
<ellipse fill="none" stroke="black" cx="79.7222" cy="-312.991" rx="20.6302" ry="20.6302"/>
<ellipse fill="none" stroke="black" cx="79.7222" cy="-312.991" rx="24.5979" ry="24.5979"/>
<text text-anchor="middle" x="79.7222" y="-309.291" font-family="Times New Roman,serif" font-size="14.00">T1</text>
</g>
<!-- T0&#45;&gt;T1 -->
<g id="edge2" class="edge"><title>T0&#45;&gt;T1</title>
<path fill="none" stroke="black" d="M159.035,-391.445C144.527,-377.277 122.057,-355.334 104.733,-338.416"/>
<polygon fill="black" stroke="black" points="106.782,-335.525 97.1826,-331.042 101.892,-340.533 106.782,-335.525"/>
<text text-anchor="middle" x="140.722" y="-359.589" font-family="Times New Roman,serif" font-size="14.00">D</text>
</g>
<!-- T0&#45;&gt;T2 -->
<g id="edge3" class="edge"><title>T0&#45;&gt;T2</title>
<path fill="none" stroke="black" d="M173.722,-388.532C173.722,-370.081 173.722,-339.968 173.722,-313.991 173.722,-313.991 173.722,-313.991 173.722,-110.798 173.722,-78.1935 144.637,-51.7017 121.324,-35.7043"/>
<polygon fill="black" stroke="black" points="123.03,-32.638 112.745,-30.0961 119.2,-38.4972 123.03,-32.638"/>
<text text-anchor="middle" x="178.722" y="-208.694" font-family="Times New Roman,serif" font-size="14.00">A</text>
</g>
<!-- T0&#45;&gt;T2 -->
<g id="edge4" class="edge"><title>T0&#45;&gt;T2</title>
<path fill="none" stroke="black" d="M186.781,-390.701C200.381,-373.396 219.722,-343.582 219.722,-313.991 219.722,-313.991 219.722,-313.991 219.722,-110.798 219.722,-65.0962 165.036,-39.8452 127.433,-27.8846"/>
<polygon fill="black" stroke="black" points="128.398,-24.5199 117.813,-24.9915 126.382,-31.2233 128.398,-24.5199"/>
<text text-anchor="middle" x="224.722" y="-208.694" font-family="Times New Roman,serif" font-size="14.00">B</text>
</g>
<!-- T1&#45;&gt;T4 -->
<g id="edge7" class="edge"><title>T1&#45;&gt;T4</title>
<path fill="none" stroke="black" d="M70.4187,-289.618C64.9669,-276.507 57.9911,-259.732 51.9724,-245.258"/>
<polygon fill="black" stroke="black" points="55.0604,-243.569 47.9889,-235.679 48.5969,-246.256 55.0604,-243.569"/>
<text text-anchor="middle" x="66.7222" y="-258.993" font-family="Times New Roman,serif" font-size="14.00">B</text>
</g>
<!-- T1&#45;&gt;T3 -->
<g id="edge6" class="edge"><title>T1&#45;&gt;T3</title>
<path fill="none" stroke="black" d="M87.8045,-289.419C92.6183,-274.752 98.2565,-255.097 100.722,-237.193 105.731,-200.824 103.318,-191.132 99.7222,-154.596 99.47,-152.034 99.1559,-149.39 98.8015,-146.736"/>
<polygon fill="black" stroke="black" points="102.225,-145.966 97.2811,-136.596 95.3026,-147.004 102.225,-145.966"/>
<text text-anchor="middle" x="108.722" y="-208.694" font-family="Times New Roman,serif" font-size="14.00">A</text>
</g>
<!-- T1&#45;&gt;T2 -->
<g id="edge5" class="edge"><title>T1&#45;&gt;T2</title>
<path fill="none" stroke="black" d="M59.3643,-298.797C41.1633,-285.668 15.7183,-263.689 4.72223,-237.193 -3.7269,-216.833 1.43988,-209.393 4.72223,-187.596 14.1398,-125.057 14.4797,-103.597 53.7222,-54 57.8713,-48.7562 62.8528,-43.6383 67.8466,-39.0064"/>
<polygon fill="black" stroke="black" points="70.4022,-41.4192 75.5864,-32.1793 65.7717,-36.1696 70.4022,-41.4192"/>
<text text-anchor="middle" x="14.7222" y="-158.396" font-family="Times New Roman,serif" font-size="14.00">D</text>
</g>
<!-- T2&#45;&gt;T2 -->
<g id="edge8" class="edge"><title>T2&#45;&gt;T2</title>
<path fill="none" stroke="black" d="M119.517,-20.6192C129.503,-20.7051 137.722,-19.832 137.722,-18 137.722,-16.855 134.511,-16.0846 129.665,-15.6887"/>
<polygon fill="black" stroke="black" points="129.619,-12.1858 119.517,-15.3808 129.406,-19.1826 129.619,-12.1858"/>
<text text-anchor="middle" x="142.722" y="-14.3" font-family="Times New Roman,serif" font-size="14.00">D</text>
</g>
<!-- T2&#45;&gt;T2 -->
<g id="edge9" class="edge"><title>T2&#45;&gt;T2</title>
<path fill="none" stroke="black" d="M118.936,-22.7113C137.418,-24.1915 155.722,-22.6211 155.722,-18 155.722,-14.2454 143.639,-12.5046 129.194,-12.7778"/>
<polygon fill="black" stroke="black" points="128.749,-9.2955 118.936,-13.2887 129.097,-16.2868 128.749,-9.2955"/>
<text text-anchor="middle" x="160.722" y="-14.3" font-family="Times New Roman,serif" font-size="14.00">A</text>
</g>
<!-- T2&#45;&gt;T2 -->
<g id="edge10" class="edge"><title>T2&#45;&gt;T2</title>
<path fill="none" stroke="black" d="M118.435,-24.1447C144.6,-27.7592 173.722,-25.7109 173.722,-18 173.722,-11.2831 151.624,-8.863 128.632,-10.7398"/>
<polygon fill="black" stroke="black" points="127.995,-7.28856 118.435,-11.8553 128.756,-14.2471 127.995,-7.28856"/>
<text text-anchor="middle" x="178.722" y="-14.3" font-family="Times New Roman,serif" font-size="14.00">B</text>
</g>
</g>
</svg>
