<?xml version="1.0" encoding="UTF-8" standalone="no"?>
<!DOCTYPE svg PUBLIC "-//W3C//DTD SVG 1.1//EN"
 "http://www.w3.org/Graphics/SVG/1.1/DTD/svg11.dtd">
<!-- Generated by graphviz version 2.38.0 (20140413.2041)
 -->
<!-- Title: %3 Pages: 1 -->
<svg width="211pt" height="653pt"
 viewBox="0.00 0.00 210.55 652.60" xmlns="http://www.w3.org/2000/svg" xmlns:xlink="http://www.w3.org/1999/xlink">
<g id="graph0" class="graph" transform="scale(1 1) rotate(0) translate(4 648.596)">
<title>%3</title>
<polygon fill="white" stroke="none" points="-4,4 -4,-648.596 206.547,-648.596 206.547,4 -4,4"/>
<!-- fake0 -->
<g id="node1" class="node"><title>fake0</title>
</g>
<!-- T0 -->
<g id="node7" class="node"><title>T0</title>
<ellipse fill="none" stroke="black" cx="30.5473" cy="-553.596" rx="27" ry="18"/>
<text text-anchor="middle" x="30.5473" y="-549.896" font-family="Times New Roman,serif" font-size="14.00">T0</text>
</g>
<!-- fake0&#45;&gt;T0 -->
<g id="edge1" class="edge"><title>fake0&#45;&gt;T0</title>
<path fill="none" stroke="black" stroke-width="2" d="M30.5473,-608.409C30.5473,-600.386 30.5473,-590.644 30.5473,-581.665"/>
<polygon fill="black" stroke="black" stroke-width="2" points="34.0474,-581.625 30.5473,-571.625 27.0474,-581.625 34.0474,-581.625"/>
</g>
<!-- T4 -->
<g id="node2" class="node"><title>T4</title>
<ellipse fill="none" stroke="black" cx="103.547" cy="-292.596" rx="27" ry="18"/>
<text text-anchor="middle" x="103.547" y="-288.896" font-family="Times New Roman,serif" font-size="14.00">T4</text>
</g>
<!-- T5 -->
<g id="node3" class="node"><title>T5</title>
<ellipse fill="none" stroke="black" cx="103.547" cy="-205.596" rx="27" ry="18"/>
<text text-anchor="middle" x="103.547" y="-201.896" font-family="Times New Roman,serif" font-size="14.00">T5</text>
</g>
<!-- T4&#45;&gt;T5 -->
<g id="edge7" class="edge"><title>T4&#45;&gt;T5</title>
<path fill="none" stroke="black" d="M103.547,-274.395C103.547,-262.759 103.547,-247.144 103.547,-233.833"/>
<polygon fill="black" stroke="black" points="107.047,-233.772 103.547,-223.772 100.047,-233.772 107.047,-233.772"/>
<text text-anchor="middle" x="108.547" y="-245.396" font-family="Times New Roman,serif" font-size="14.00">B</text>
</g>
<!-- T6 -->
<g id="node6" class="node"><title>T6</title>
<ellipse fill="none" stroke="black" cx="77.5473" cy="-118.596" rx="27" ry="18"/>
<text text-anchor="middle" x="77.5473" y="-114.896" font-family="Times New Roman,serif" font-size="14.00">T6</text>
</g>
<!-- T5&#45;&gt;T6 -->
<g id="edge8" class="edge"><title>T5&#45;&gt;T6</title>
<path fill="none" stroke="black" d="M98.4105,-187.803C94.7782,-175.928 89.8341,-159.765 85.6705,-146.153"/>
<polygon fill="black" stroke="black" points="88.9454,-144.894 82.6734,-136.355 82.2516,-146.941 88.9454,-144.894"/>
<text text-anchor="middle" x="100.047" y="-158.396" font-family="Times New Roman,serif" font-size="14.00">EP</text>
</g>
<!-- T7 -->
<g id="node4" class="node"><title>T7</title>
<ellipse fill="none" stroke="black" cx="30.5473" cy="-466.596" rx="27" ry="18"/>
<text text-anchor="middle" x="30.5473" y="-462.896" font-family="Times New Roman,serif" font-size="14.00">T7</text>
</g>
<!-- T8 -->
<g id="node8" class="node"><title>T8</title>
<ellipse fill="none" stroke="black" cx="33.5473" cy="-24.7982" rx="20.6302" ry="20.6302"/>
<ellipse fill="none" stroke="black" cx="33.5473" cy="-24.7982" rx="24.5979" ry="24.5979"/>
<text text-anchor="middle" x="33.5473" y="-21.0982" font-family="Times New Roman,serif" font-size="14.00">T8</text>
</g>
<!-- T7&#45;&gt;T8 -->
<g id="edge12" class="edge"><title>T7&#45;&gt;T8</title>
<path fill="none" stroke="black" d="M23.5864,-448.991C17.141,-432.091 8.54729,-404.985 8.54729,-380.596 8.54729,-380.596 8.54729,-380.596 8.54729,-117.596 8.54729,-97.1609 14.3862,-75.0374 20.4204,-57.6302"/>
<polygon fill="black" stroke="black" points="23.804,-58.5683 23.9531,-47.9746 17.2302,-56.1631 23.804,-58.5683"/>
<text text-anchor="middle" x="17.0473" y="-245.396" font-family="Times New Roman,serif" font-size="14.00">EP</text>
</g>
<!-- T1 -->
<g id="node9" class="node"><title>T1</title>
<ellipse fill="none" stroke="black" cx="72.5473" cy="-379.596" rx="27" ry="18"/>
<text text-anchor="middle" x="72.5473" y="-375.896" font-family="Times New Roman,serif" font-size="14.00">T1</text>
</g>
<!-- T7&#45;&gt;T1 -->
<g id="edge11" class="edge"><title>T7&#45;&gt;T1</title>
<path fill="none" stroke="black" d="M38.6453,-449.207C44.6881,-436.978 53.0579,-420.039 59.969,-406.052"/>
<polygon fill="black" stroke="black" points="63.182,-407.451 64.4741,-396.935 56.9063,-404.35 63.182,-407.451"/>
<text text-anchor="middle" x="63.0473" y="-419.396" font-family="Times New Roman,serif" font-size="14.00">EP</text>
</g>
<!-- T3 -->
<g id="node5" class="node"><title>T3</title>
<ellipse fill="none" stroke="black" cx="175.547" cy="-205.596" rx="27" ry="18"/>
<text text-anchor="middle" x="175.547" y="-201.896" font-family="Times New Roman,serif" font-size="14.00">T3</text>
</g>
<!-- T3&#45;&gt;T6 -->
<g id="edge6" class="edge"><title>T3&#45;&gt;T6</title>
<path fill="none" stroke="black" d="M159.802,-190.94C144.037,-177.266 119.576,-156.05 101.422,-140.304"/>
<polygon fill="black" stroke="black" points="103.427,-137.41 93.5792,-133.502 98.8403,-142.698 103.427,-137.41"/>
<text text-anchor="middle" x="140.047" y="-158.396" font-family="Times New Roman,serif" font-size="14.00">EP</text>
</g>
<!-- T6&#45;&gt;T8 -->
<g id="edge10" class="edge"><title>T6&#45;&gt;T8</title>
<path fill="none" stroke="black" d="M69.681,-101.185C63.8006,-88.9164 55.5841,-71.774 48.4717,-56.9353"/>
<polygon fill="black" stroke="black" points="51.4715,-55.0961 43.993,-47.5912 45.1591,-58.1217 51.4715,-55.0961"/>
<text text-anchor="middle" x="67.0473" y="-71.3963" font-family="Times New Roman,serif" font-size="14.00">EP</text>
</g>
<!-- T6&#45;&gt;T1 -->
<g id="edge9" class="edge"><title>T6&#45;&gt;T1</title>
<path fill="none" stroke="black" d="M74.3482,-136.567C71.9341,-150.278 68.8267,-170.102 67.5473,-187.596 63.2861,-245.86 67.2543,-314.354 70.1457,-351.428"/>
<polygon fill="black" stroke="black" points="66.6615,-351.766 70.9616,-361.448 73.6384,-351.197 66.6615,-351.766"/>
<text text-anchor="middle" x="74.0473" y="-245.396" font-family="Times New Roman,serif" font-size="14.00">EP</text>
</g>
<!-- T0&#45;&gt;T7 -->
<g id="edge2" class="edge"><title>T0&#45;&gt;T7</title>
<path fill="none" stroke="black" d="M30.5473,-535.395C30.5473,-523.759 30.5473,-508.144 30.5473,-494.833"/>
<polygon fill="black" stroke="black" points="34.0474,-494.772 30.5473,-484.772 27.0474,-494.772 34.0474,-494.772"/>
<text text-anchor="middle" x="35.5473" y="-506.396" font-family="Times New Roman,serif" font-size="14.00">D</text>
</g>
<!-- T1&#45;&gt;T4 -->
<g id="edge3" class="edge"><title>T1&#45;&gt;T4</title>
<path fill="none" stroke="black" d="M78.6719,-361.803C83.0451,-349.812 89.0134,-333.447 94.0077,-319.753"/>
<polygon fill="black" stroke="black" points="97.2972,-320.949 97.4354,-310.355 90.7209,-318.55 97.2972,-320.949"/>
<text text-anchor="middle" x="99.0473" y="-332.396" font-family="Times New Roman,serif" font-size="14.00">EP</text>
</g>
<!-- T2 -->
<g id="node10" class="node"><title>T2</title>
<ellipse fill="none" stroke="black" cx="175.547" cy="-292.596" rx="27" ry="18"/>
<text text-anchor="middle" x="175.547" y="-288.896" font-family="Times New Roman,serif" font-size="14.00">T2</text>
</g>
<!-- T1&#45;&gt;T2 -->
<g id="edge4" class="edge"><title>T1&#45;&gt;T2</title>
<path fill="none" stroke="black" d="M89.096,-364.94C105.914,-351.06 132.149,-329.411 151.309,-313.599"/>
<polygon fill="black" stroke="black" points="153.555,-316.284 159.04,-307.219 149.099,-310.885 153.555,-316.284"/>
<text text-anchor="middle" x="141.047" y="-332.396" font-family="Times New Roman,serif" font-size="14.00">EP</text>
</g>
<!-- T2&#45;&gt;T3 -->
<g id="edge5" class="edge"><title>T2&#45;&gt;T3</title>
<path fill="none" stroke="black" d="M175.547,-274.395C175.547,-262.759 175.547,-247.144 175.547,-233.833"/>
<polygon fill="black" stroke="black" points="179.047,-233.772 175.547,-223.772 172.047,-233.772 179.047,-233.772"/>
<text text-anchor="middle" x="180.547" y="-245.396" font-family="Times New Roman,serif" font-size="14.00">A</text>
</g>
</g>
</svg>
