<?xml version="1.0" encoding="UTF-8" standalone="no"?>
<!DOCTYPE svg PUBLIC "-//W3C//DTD SVG 1.1//EN"
 "http://www.w3.org/Graphics/SVG/1.1/DTD/svg11.dtd">
<!-- Generated by graphviz version 2.38.0 (20140413.2041)
 -->
<!-- Title: %3 Pages: 1 -->
<svg width="134pt" height="492pt"
 viewBox="0.00 0.00 133.55 492.19" xmlns="http://www.w3.org/2000/svg" xmlns:xlink="http://www.w3.org/1999/xlink">
<g id="graph0" class="graph" transform="scale(1 1) rotate(0) translate(4 488.193)">
<title>%3</title>
<polygon fill="white" stroke="none" points="-4,4 -4,-488.193 129.547,-488.193 129.547,4 -4,4"/>
<!-- fake0 -->
<g id="node1" class="node"><title>fake0</title>
</g>
<!-- T0 -->
<g id="node3" class="node"><title>T0</title>
<ellipse fill="none" stroke="black" cx="30.5473" cy="-393.193" rx="27" ry="18"/>
<text text-anchor="middle" x="30.5473" y="-389.493" font-family="Times New Roman,serif" font-size="14.00">T0</text>
</g>
<!-- fake0&#45;&gt;T0 -->
<g id="edge1" class="edge"><title>fake0&#45;&gt;T0</title>
<path fill="none" stroke="black" stroke-width="2" d="M30.5473,-448.005C30.5473,-439.982 30.5473,-430.24 30.5473,-421.262"/>
<polygon fill="black" stroke="black" stroke-width="2" points="34.0474,-421.221 30.5473,-411.221 27.0474,-421.221 34.0474,-421.221"/>
</g>
<!-- T4 -->
<g id="node2" class="node"><title>T4</title>
<ellipse fill="none" stroke="black" cx="47.5473" cy="-18" rx="27" ry="18"/>
<text text-anchor="middle" x="47.5473" y="-14.3" font-family="Times New Roman,serif" font-size="14.00">T4</text>
</g>
<!-- T4&#45;&gt;T4 -->
<g id="edge10" class="edge"><title>T4&#45;&gt;T4</title>
<path fill="none" stroke="black" d="M74.3421,-21.9288C84.3277,-22.0577 92.5473,-20.748 92.5473,-18 92.5473,-16.2825 89.3365,-15.1268 84.4905,-14.5331"/>
<polygon fill="black" stroke="black" points="84.491,-11.0296 74.3421,-14.0712 84.1726,-18.0223 84.491,-11.0296"/>
<text text-anchor="middle" x="96.5473" y="-14.3" font-family="Times New Roman,serif" font-size="14.00">b</text>
</g>
<!-- T4&#45;&gt;T4 -->
<g id="edge11" class="edge"><title>T4&#45;&gt;T4</title>
<path fill="none" stroke="black" d="M72.7765,-24.9445C91.5878,-27.3695 110.547,-25.0547 110.547,-18 110.547,-12.213 97.7892,-9.61542 82.8205,-10.2074"/>
<polygon fill="black" stroke="black" points="82.4465,-6.72644 72.7765,-11.0555 83.0355,-13.7016 82.4465,-6.72644"/>
<text text-anchor="middle" x="114.047" y="-14.3" font-family="Times New Roman,serif" font-size="14.00">a</text>
</g>
<!-- T2 -->
<g id="node4" class="node"><title>T2</title>
<ellipse fill="none" stroke="black" cx="30.5473" cy="-212.394" rx="20.6302" ry="20.6302"/>
<ellipse fill="none" stroke="black" cx="30.5473" cy="-212.394" rx="24.5979" ry="24.5979"/>
<text text-anchor="middle" x="30.5473" y="-208.694" font-family="Times New Roman,serif" font-size="14.00">T2</text>
</g>
<!-- T0&#45;&gt;T2 -->
<g id="edge3" class="edge"><title>T0&#45;&gt;T2</title>
<path fill="none" stroke="black" d="M26.7094,-375.255C23.813,-361.563 20.0844,-341.748 18.5473,-324.193 16.2599,-298.069 19.7582,-268.55 23.557,-246.553"/>
<polygon fill="black" stroke="black" points="27.0005,-247.179 25.3627,-236.712 20.1154,-245.916 27.0005,-247.179"/>
<text text-anchor="middle" x="22.0473" y="-302.493" font-family="Times New Roman,serif" font-size="14.00">a</text>
</g>
<!-- T1 -->
<g id="node5" class="node"><title>T1</title>
<ellipse fill="none" stroke="black" cx="61.5473" cy="-306.193" rx="27" ry="18"/>
<text text-anchor="middle" x="61.5473" y="-302.493" font-family="Times New Roman,serif" font-size="14.00">T1</text>
</g>
<!-- T0&#45;&gt;T1 -->
<g id="edge2" class="edge"><title>T0&#45;&gt;T1</title>
<path fill="none" stroke="black" d="M36.6719,-375.399C41.0451,-363.408 47.0134,-347.044 52.0077,-333.35"/>
<polygon fill="black" stroke="black" points="55.2972,-334.545 55.4354,-323.951 48.7209,-332.146 55.2972,-334.545"/>
<text text-anchor="middle" x="53.5473" y="-345.993" font-family="Times New Roman,serif" font-size="14.00">b</text>
</g>
<!-- T2&#45;&gt;T4 -->
<g id="edge7" class="edge"><title>T2&#45;&gt;T4</title>
<path fill="none" stroke="black" d="M26.0903,-187.831C22.0602,-162.68 17.5946,-121.751 23.5473,-87 26.0157,-72.5897 31.2263,-57.1761 36.1637,-44.6733"/>
<polygon fill="black" stroke="black" points="39.4336,-45.9244 40.0072,-35.3451 32.9615,-43.2576 39.4336,-45.9244"/>
<text text-anchor="middle" x="27.0473" y="-108.098" font-family="Times New Roman,serif" font-size="14.00">a</text>
</g>
<!-- T3 -->
<g id="node6" class="node"><title>T3</title>
<ellipse fill="none" stroke="black" cx="64.5473" cy="-111.798" rx="20.6302" ry="20.6302"/>
<ellipse fill="none" stroke="black" cx="64.5473" cy="-111.798" rx="24.5979" ry="24.5979"/>
<text text-anchor="middle" x="64.5473" y="-108.098" font-family="Times New Roman,serif" font-size="14.00">T3</text>
</g>
<!-- T2&#45;&gt;T3 -->
<g id="edge6" class="edge"><title>T2&#45;&gt;T3</title>
<path fill="none" stroke="black" d="M38.433,-188.527C42.853,-175.709 48.44,-159.507 53.311,-145.382"/>
<polygon fill="black" stroke="black" points="56.753,-146.137 56.7043,-135.542 50.1354,-143.855 56.753,-146.137"/>
<text text-anchor="middle" x="54.5473" y="-158.396" font-family="Times New Roman,serif" font-size="14.00">b</text>
</g>
<!-- T1&#45;&gt;T2 -->
<g id="edge5" class="edge"><title>T1&#45;&gt;T2</title>
<path fill="none" stroke="black" d="M55.8614,-288.355C51.828,-276.412 46.2885,-260.008 41.4197,-245.59"/>
<polygon fill="black" stroke="black" points="44.6984,-244.36 38.1829,-236.005 38.0664,-246.599 44.6984,-244.36"/>
<text text-anchor="middle" x="53.0473" y="-258.993" font-family="Times New Roman,serif" font-size="14.00">a</text>
</g>
<!-- T1&#45;&gt;T1 -->
<g id="edge4" class="edge"><title>T1&#45;&gt;T1</title>
<path fill="none" stroke="black" d="M86.0798,-313.945C97.0551,-314.683 106.547,-312.099 106.547,-306.193 106.547,-302.224 102.262,-299.756 96.1216,-298.787"/>
<polygon fill="black" stroke="black" points="96.1945,-295.288 86.0798,-298.441 95.9531,-302.283 96.1945,-295.288"/>
<text text-anchor="middle" x="110.547" y="-302.493" font-family="Times New Roman,serif" font-size="14.00">b</text>
</g>
<!-- T3&#45;&gt;T4 -->
<g id="edge8" class="edge"><title>T3&#45;&gt;T4</title>
<path fill="none" stroke="black" d="M55.1645,-88.5919C52.9228,-82.3608 50.8142,-75.5082 49.5473,-69 48.142,-61.781 47.4474,-53.8687 47.1471,-46.5112"/>
<polygon fill="black" stroke="black" points="50.6421,-46.2053 46.9526,-36.2737 43.6433,-46.3384 50.6421,-46.2053"/>
<text text-anchor="middle" x="53.5473" y="-57.8" font-family="Times New Roman,serif" font-size="14.00">b</text>
</g>
<!-- T3&#45;&gt;T4 -->
<g id="edge9" class="edge"><title>T3&#45;&gt;T4</title>
<path fill="none" stroke="black" d="M61.7887,-86.9324C60.4552,-76.7423 58.6785,-64.7446 56.5473,-54 56.0163,-51.3229 55.4059,-48.5451 54.7584,-45.778"/>
<polygon fill="black" stroke="black" points="58.1372,-44.8615 52.3264,-36.0023 51.3442,-46.5516 58.1372,-44.8615"/>
<text text-anchor="middle" x="63.0473" y="-57.8" font-family="Times New Roman,serif" font-size="14.00">a</text>
</g>
</g>
</svg>
