<?xml version="1.0" encoding="UTF-8" standalone="no"?>
<!DOCTYPE svg PUBLIC "-//W3C//DTD SVG 1.1//EN"
 "http://www.w3.org/Graphics/SVG/1.1/DTD/svg11.dtd">
<!-- Generated by graphviz version 2.38.0 (20140413.2041)
 -->
<!-- Title: %3 Pages: 1 -->
<svg width="162pt" height="492pt"
 viewBox="0.00 0.00 161.80 492.19" xmlns="http://www.w3.org/2000/svg" xmlns:xlink="http://www.w3.org/1999/xlink">
<g id="graph0" class="graph" transform="scale(1 1) rotate(0) translate(4 488.193)">
<title>%3</title>
<polygon fill="white" stroke="none" points="-4,4 -4,-488.193 157.798,-488.193 157.798,4 -4,4"/>
<!-- fake0 -->
<g id="node1" class="node"><title>fake0</title>
</g>
<!-- T0 -->
<g id="node2" class="node"><title>T0</title>
<ellipse fill="none" stroke="black" cx="69.7982" cy="-393.193" rx="27" ry="18"/>
<text text-anchor="middle" x="69.7982" y="-389.493" font-family="Times New Roman,serif" font-size="14.00">T0</text>
</g>
<!-- fake0&#45;&gt;T0 -->
<g id="edge1" class="edge"><title>fake0&#45;&gt;T0</title>
<path fill="none" stroke="black" stroke-width="2" d="M69.7982,-448.005C69.7982,-439.982 69.7982,-430.24 69.7982,-421.262"/>
<polygon fill="black" stroke="black" stroke-width="2" points="73.2983,-421.221 69.7982,-411.221 66.2983,-421.221 73.2983,-421.221"/>
</g>
<!-- T2 -->
<g id="node3" class="node"><title>T2</title>
<ellipse fill="none" stroke="black" cx="69.7982" cy="-212.394" rx="20.6302" ry="20.6302"/>
<ellipse fill="none" stroke="black" cx="69.7982" cy="-212.394" rx="24.5979" ry="24.5979"/>
<text text-anchor="middle" x="69.7982" y="-208.694" font-family="Times New Roman,serif" font-size="14.00">T2</text>
</g>
<!-- T0&#45;&gt;T2 -->
<g id="edge3" class="edge"><title>T0&#45;&gt;T2</title>
<path fill="none" stroke="black" d="M65.9603,-375.255C63.0638,-361.563 59.3353,-341.748 57.7982,-324.193 55.5108,-298.069 59.009,-268.55 62.8079,-246.553"/>
<polygon fill="black" stroke="black" points="66.2514,-247.179 64.6136,-236.712 59.3663,-245.916 66.2514,-247.179"/>
<text text-anchor="middle" x="61.2982" y="-302.493" font-family="Times New Roman,serif" font-size="14.00">a</text>
</g>
<!-- T1 -->
<g id="node6" class="node"><title>T1</title>
<ellipse fill="none" stroke="black" cx="100.798" cy="-306.193" rx="27" ry="18"/>
<text text-anchor="middle" x="100.798" y="-302.493" font-family="Times New Roman,serif" font-size="14.00">T1</text>
</g>
<!-- T0&#45;&gt;T1 -->
<g id="edge2" class="edge"><title>T0&#45;&gt;T1</title>
<path fill="none" stroke="black" d="M75.9228,-375.399C80.296,-363.408 86.2642,-347.044 91.2585,-333.35"/>
<polygon fill="black" stroke="black" points="94.5481,-334.545 94.6863,-323.951 87.9718,-332.146 94.5481,-334.545"/>
<text text-anchor="middle" x="92.7982" y="-345.993" font-family="Times New Roman,serif" font-size="14.00">b</text>
</g>
<!-- T3 -->
<g id="node4" class="node"><title>T3</title>
<ellipse fill="none" stroke="black" cx="24.7982" cy="-111.798" rx="20.6302" ry="20.6302"/>
<ellipse fill="none" stroke="black" cx="24.7982" cy="-111.798" rx="24.5979" ry="24.5979"/>
<text text-anchor="middle" x="24.7982" y="-108.098" font-family="Times New Roman,serif" font-size="14.00">T3</text>
</g>
<!-- T2&#45;&gt;T3 -->
<g id="edge6" class="edge"><title>T2&#45;&gt;T3</title>
<path fill="none" stroke="black" d="M59.8112,-189.513C53.6939,-176.11 45.7672,-158.742 39.0034,-143.922"/>
<polygon fill="black" stroke="black" points="42.0934,-142.263 34.7572,-134.619 35.7253,-145.169 42.0934,-142.263"/>
<text text-anchor="middle" x="54.7982" y="-158.396" font-family="Times New Roman,serif" font-size="14.00">b</text>
</g>
<!-- T4 -->
<g id="node5" class="node"><title>T4</title>
<ellipse fill="none" stroke="black" cx="55.7982" cy="-18" rx="27" ry="18"/>
<text text-anchor="middle" x="55.7982" y="-14.3" font-family="Times New Roman,serif" font-size="14.00">T4</text>
</g>
<!-- T2&#45;&gt;T4 -->
<g id="edge7" class="edge"><title>T2&#45;&gt;T4</title>
<path fill="none" stroke="black" d="M68.0534,-187.417C65.4448,-151.569 60.5419,-84.1903 57.7942,-46.4308"/>
<polygon fill="black" stroke="black" points="61.2644,-45.8931 57.0478,-36.1735 54.2829,-46.4012 61.2644,-45.8931"/>
<text text-anchor="middle" x="68.2982" y="-108.098" font-family="Times New Roman,serif" font-size="14.00">a</text>
</g>
<!-- T3&#45;&gt;T4 -->
<g id="edge8" class="edge"><title>T3&#45;&gt;T4</title>
<path fill="none" stroke="black" d="M22.2545,-86.9061C21.9944,-76.4912 22.8684,-64.3286 26.7982,-54 28.5643,-49.3581 31.2148,-44.8832 34.2081,-40.7736"/>
<polygon fill="black" stroke="black" points="37.0198,-42.8648 40.6603,-32.9151 31.6096,-38.4229 37.0198,-42.8648"/>
<text text-anchor="middle" x="30.7982" y="-57.8" font-family="Times New Roman,serif" font-size="14.00">b</text>
</g>
<!-- T3&#45;&gt;T4 -->
<g id="edge9" class="edge"><title>T3&#45;&gt;T4</title>
<path fill="none" stroke="black" d="M32.4611,-88.1065C36.8331,-75.1599 42.3341,-58.8703 46.8969,-45.3585"/>
<polygon fill="black" stroke="black" points="50.2856,-46.2631 50.1691,-35.6689 43.6536,-44.0234 50.2856,-46.2631"/>
<text text-anchor="middle" x="47.2982" y="-57.8" font-family="Times New Roman,serif" font-size="14.00">a</text>
</g>
<!-- T4&#45;&gt;T4 -->
<g id="edge10" class="edge"><title>T4&#45;&gt;T4</title>
<path fill="none" stroke="black" d="M82.593,-21.9288C92.5786,-22.0577 100.798,-20.748 100.798,-18 100.798,-16.2825 97.5874,-15.1268 92.7414,-14.5331"/>
<polygon fill="black" stroke="black" points="92.7418,-11.0296 82.593,-14.0712 92.4235,-18.0223 92.7418,-11.0296"/>
<text text-anchor="middle" x="104.798" y="-14.3" font-family="Times New Roman,serif" font-size="14.00">b</text>
</g>
<!-- T4&#45;&gt;T4 -->
<g id="edge11" class="edge"><title>T4&#45;&gt;T4</title>
<path fill="none" stroke="black" d="M81.0273,-24.9445C99.8387,-27.3695 118.798,-25.0547 118.798,-18 118.798,-12.213 106.04,-9.61542 91.0713,-10.2074"/>
<polygon fill="black" stroke="black" points="90.6973,-6.72644 81.0273,-11.0555 91.2864,-13.7016 90.6973,-6.72644"/>
<text text-anchor="middle" x="122.298" y="-14.3" font-family="Times New Roman,serif" font-size="14.00">a</text>
</g>
<!-- T1&#45;&gt;T2 -->
<g id="edge5" class="edge"><title>T1&#45;&gt;T2</title>
<path fill="none" stroke="black" d="M95.1123,-288.355C91.0789,-276.412 85.5394,-260.008 80.6706,-245.59"/>
<polygon fill="black" stroke="black" points="83.9493,-244.36 77.4337,-236.005 77.3172,-246.599 83.9493,-244.36"/>
<text text-anchor="middle" x="92.2982" y="-258.993" font-family="Times New Roman,serif" font-size="14.00">a</text>
</g>
<!-- T1&#45;&gt;T1 -->
<g id="edge4" class="edge"><title>T1&#45;&gt;T1</title>
<path fill="none" stroke="black" d="M125.331,-313.945C136.306,-314.683 145.798,-312.099 145.798,-306.193 145.798,-302.224 141.513,-299.756 135.372,-298.787"/>
<polygon fill="black" stroke="black" points="135.445,-295.288 125.331,-298.441 135.204,-302.283 135.445,-295.288"/>
<text text-anchor="middle" x="149.798" y="-302.493" font-family="Times New Roman,serif" font-size="14.00">b</text>
</g>
</g>
</svg>
