<?xml version="1.0" encoding="UTF-8" standalone="no"?>
<!DOCTYPE svg PUBLIC "-//W3C//DTD SVG 1.1//EN"
 "http://www.w3.org/Graphics/SVG/1.1/DTD/svg11.dtd">
<!-- Generated by graphviz version 2.38.0 (20140413.2041)
 -->
<!-- Title: %3 Pages: 1 -->
<svg width="130pt" height="405pt"
 viewBox="0.00 0.00 129.55 405.19" xmlns="http://www.w3.org/2000/svg" xmlns:xlink="http://www.w3.org/1999/xlink">
<g id="graph0" class="graph" transform="scale(1 1) rotate(0) translate(4 401.193)">
<title>%3</title>
<polygon fill="white" stroke="none" points="-4,4 -4,-401.193 125.547,-401.193 125.547,4 -4,4"/>
<!-- fake0 -->
<g id="node1" class="node"><title>fake0</title>
</g>
<!-- T0 -->
<g id="node5" class="node"><title>T0</title>
<ellipse fill="none" stroke="black" cx="30.5473" cy="-306.193" rx="27" ry="18"/>
<text text-anchor="middle" x="30.5473" y="-302.493" font-family="Times New Roman,serif" font-size="14.00">T0</text>
</g>
<!-- fake0&#45;&gt;T0 -->
<g id="edge1" class="edge"><title>fake0&#45;&gt;T0</title>
<path fill="none" stroke="black" stroke-width="2" d="M30.5473,-361.005C30.5473,-352.982 30.5473,-343.24 30.5473,-334.262"/>
<polygon fill="black" stroke="black" stroke-width="2" points="34.0474,-334.221 30.5473,-324.221 27.0474,-334.221 34.0474,-334.221"/>
</g>
<!-- T3 -->
<g id="node2" class="node"><title>T3</title>
<ellipse fill="none" stroke="black" cx="43.5473" cy="-18" rx="27" ry="18"/>
<text text-anchor="middle" x="43.5473" y="-14.3" font-family="Times New Roman,serif" font-size="14.00">T3</text>
</g>
<!-- T3&#45;&gt;T3 -->
<g id="edge8" class="edge"><title>T3&#45;&gt;T3</title>
<path fill="none" stroke="black" d="M70.3421,-21.9288C80.3277,-22.0577 88.5473,-20.748 88.5473,-18 88.5473,-16.2825 85.3365,-15.1268 80.4905,-14.5331"/>
<polygon fill="black" stroke="black" points="80.491,-11.0296 70.3421,-14.0712 80.1726,-18.0223 80.491,-11.0296"/>
<text text-anchor="middle" x="92.5473" y="-14.3" font-family="Times New Roman,serif" font-size="14.00">b</text>
</g>
<!-- T3&#45;&gt;T3 -->
<g id="edge9" class="edge"><title>T3&#45;&gt;T3</title>
<path fill="none" stroke="black" d="M68.7765,-24.9445C87.5878,-27.3695 106.547,-25.0547 106.547,-18 106.547,-12.213 93.7892,-9.61542 78.8205,-10.2074"/>
<polygon fill="black" stroke="black" points="78.4465,-6.72644 68.7765,-11.0555 79.0355,-13.7016 78.4465,-6.72644"/>
<text text-anchor="middle" x="110.047" y="-14.3" font-family="Times New Roman,serif" font-size="14.00">a</text>
</g>
<!-- T2 -->
<g id="node3" class="node"><title>T2</title>
<ellipse fill="none" stroke="black" cx="60.5473" cy="-111.798" rx="20.6302" ry="20.6302"/>
<ellipse fill="none" stroke="black" cx="60.5473" cy="-111.798" rx="24.5979" ry="24.5979"/>
<text text-anchor="middle" x="60.5473" y="-108.098" font-family="Times New Roman,serif" font-size="14.00">T2</text>
</g>
<!-- T2&#45;&gt;T3 -->
<g id="edge6" class="edge"><title>T2&#45;&gt;T3</title>
<path fill="none" stroke="black" d="M51.1645,-88.5919C48.9228,-82.3608 46.8142,-75.5082 45.5473,-69 44.142,-61.781 43.4474,-53.8687 43.1471,-46.5112"/>
<polygon fill="black" stroke="black" points="46.6421,-46.2053 42.9526,-36.2737 39.6433,-46.3384 46.6421,-46.2053"/>
<text text-anchor="middle" x="49.5473" y="-57.8" font-family="Times New Roman,serif" font-size="14.00">b</text>
</g>
<!-- T2&#45;&gt;T3 -->
<g id="edge7" class="edge"><title>T2&#45;&gt;T3</title>
<path fill="none" stroke="black" d="M57.7887,-86.9324C56.4552,-76.7423 54.6785,-64.7446 52.5473,-54 52.0163,-51.3229 51.4059,-48.5451 50.7584,-45.778"/>
<polygon fill="black" stroke="black" points="54.1372,-44.8615 48.3264,-36.0023 47.3442,-46.5516 54.1372,-44.8615"/>
<text text-anchor="middle" x="59.0473" y="-57.8" font-family="Times New Roman,serif" font-size="14.00">a</text>
</g>
<!-- T1 -->
<g id="node4" class="node"><title>T1</title>
<ellipse fill="none" stroke="black" cx="30.5473" cy="-212.394" rx="20.6302" ry="20.6302"/>
<ellipse fill="none" stroke="black" cx="30.5473" cy="-212.394" rx="24.5979" ry="24.5979"/>
<text text-anchor="middle" x="30.5473" y="-208.694" font-family="Times New Roman,serif" font-size="14.00">T1</text>
</g>
<!-- T1&#45;&gt;T3 -->
<g id="edge5" class="edge"><title>T1&#45;&gt;T3</title>
<path fill="none" stroke="black" d="M24.8847,-187.863C19.6718,-162.738 13.5808,-121.832 19.5473,-87 22.0157,-72.5897 27.2263,-57.1761 32.1637,-44.6733"/>
<polygon fill="black" stroke="black" points="35.4336,-45.9244 36.0072,-35.3451 28.9615,-43.2576 35.4336,-45.9244"/>
<text text-anchor="middle" x="23.0473" y="-108.098" font-family="Times New Roman,serif" font-size="14.00">a</text>
</g>
<!-- T1&#45;&gt;T2 -->
<g id="edge4" class="edge"><title>T1&#45;&gt;T2</title>
<path fill="none" stroke="black" d="M37.5053,-188.527C41.3774,-175.801 46.2646,-159.739 50.5407,-145.685"/>
<polygon fill="black" stroke="black" points="53.9605,-146.469 53.5231,-135.883 47.2636,-144.432 53.9605,-146.469"/>
<text text-anchor="middle" x="51.5473" y="-158.396" font-family="Times New Roman,serif" font-size="14.00">b</text>
</g>
<!-- T0&#45;&gt;T1 -->
<g id="edge3" class="edge"><title>T0&#45;&gt;T1</title>
<path fill="none" stroke="black" d="M30.5473,-287.926C30.5473,-276.586 30.5473,-261.363 30.5473,-247.632"/>
<polygon fill="black" stroke="black" points="34.0474,-247.511 30.5473,-237.511 27.0474,-247.512 34.0474,-247.511"/>
<text text-anchor="middle" x="34.0473" y="-258.993" font-family="Times New Roman,serif" font-size="14.00">a</text>
</g>
<!-- T0&#45;&gt;T0 -->
<g id="edge2" class="edge"><title>T0&#45;&gt;T0</title>
<path fill="none" stroke="black" d="M55.9908,-312.883C66.5751,-313.345 75.5473,-311.114 75.5473,-306.193 75.5473,-302.963 71.6833,-300.892 66.0354,-299.98"/>
<polygon fill="black" stroke="black" points="66.146,-296.482 55.9908,-299.502 65.8129,-303.474 66.146,-296.482"/>
<text text-anchor="middle" x="79.5473" y="-302.493" font-family="Times New Roman,serif" font-size="14.00">b</text>
</g>
</g>
</svg>
