<?xml version="1.0" encoding="UTF-8" standalone="no"?>
<!DOCTYPE svg PUBLIC "-//W3C//DTD SVG 1.1//EN"
 "http://www.w3.org/Graphics/SVG/1.1/DTD/svg11.dtd">
<!-- Generated by graphviz version 2.38.0 (20140413.2041)
 -->
<!-- Title: %3 Pages: 1 -->
<svg width="105pt" height="740pt"
 viewBox="0.00 0.00 104.55 739.60" xmlns="http://www.w3.org/2000/svg" xmlns:xlink="http://www.w3.org/1999/xlink">
<g id="graph0" class="graph" transform="scale(1 1) rotate(0) translate(4 735.596)">
<title>%3</title>
<polygon fill="white" stroke="none" points="-4,4 -4,-735.596 100.547,-735.596 100.547,4 -4,4"/>
<!-- fake0 -->
<g id="node1" class="node"><title>fake0</title>
</g>
<!-- T0 -->
<g id="node3" class="node"><title>T0</title>
<ellipse fill="none" stroke="black" cx="30.5473" cy="-640.596" rx="27" ry="18"/>
<text text-anchor="middle" x="30.5473" y="-636.896" font-family="Times New Roman,serif" font-size="14.00">T0</text>
</g>
<!-- fake0&#45;&gt;T0 -->
<g id="edge1" class="edge"><title>fake0&#45;&gt;T0</title>
<path fill="none" stroke="black" stroke-width="2" d="M30.5473,-695.409C30.5473,-687.386 30.5473,-677.644 30.5473,-668.665"/>
<polygon fill="black" stroke="black" stroke-width="2" points="34.0474,-668.625 30.5473,-658.625 27.0474,-668.625 34.0474,-668.625"/>
</g>
<!-- T6 -->
<g id="node2" class="node"><title>T6</title>
<ellipse fill="none" stroke="black" cx="69.5473" cy="-118.596" rx="27" ry="18"/>
<text text-anchor="middle" x="69.5473" y="-114.896" font-family="Times New Roman,serif" font-size="14.00">T6</text>
</g>
<!-- T7 -->
<g id="node7" class="node"><title>T7</title>
<ellipse fill="none" stroke="black" cx="36.5473" cy="-24.7982" rx="20.6302" ry="20.6302"/>
<ellipse fill="none" stroke="black" cx="36.5473" cy="-24.7982" rx="24.5979" ry="24.5979"/>
<text text-anchor="middle" x="36.5473" y="-21.0982" font-family="Times New Roman,serif" font-size="14.00">T7</text>
</g>
<!-- T6&#45;&gt;T7 -->
<g id="edge11" class="edge"><title>T6&#45;&gt;T7</title>
<path fill="none" stroke="black" d="M63.4946,-100.759C59.201,-88.8154 53.3041,-72.4116 48.1211,-57.9939"/>
<polygon fill="black" stroke="black" points="51.3521,-56.6352 44.6755,-48.4089 44.7648,-59.0033 51.3521,-56.6352"/>
<text text-anchor="middle" x="64.0473" y="-71.3963" font-family="Times New Roman,serif" font-size="14.00">EP</text>
</g>
<!-- T3 -->
<g id="node5" class="node"><title>T3</title>
<ellipse fill="none" stroke="black" cx="30.5473" cy="-379.596" rx="27" ry="18"/>
<text text-anchor="middle" x="30.5473" y="-375.896" font-family="Times New Roman,serif" font-size="14.00">T3</text>
</g>
<!-- T0&#45;&gt;T3 -->
<g id="edge3" class="edge"><title>T0&#45;&gt;T3</title>
<path fill="none" stroke="black" d="M29.5871,-622.556C28.8625,-608.807 27.9302,-588.963 27.5473,-571.596 26.3423,-516.943 26.3423,-503.25 27.5473,-448.596 27.8434,-435.164 28.4683,-420.25 29.0714,-407.82"/>
<polygon fill="black" stroke="black" points="32.5768,-407.801 29.5871,-397.636 25.5858,-407.447 32.5768,-407.801"/>
<text text-anchor="middle" x="35.0473" y="-506.396" font-family="Times New Roman,serif" font-size="14.00">EP</text>
</g>
<!-- T1 -->
<g id="node8" class="node"><title>T1</title>
<ellipse fill="none" stroke="black" cx="63.5473" cy="-553.596" rx="27" ry="18"/>
<text text-anchor="middle" x="63.5473" y="-549.896" font-family="Times New Roman,serif" font-size="14.00">T1</text>
</g>
<!-- T0&#45;&gt;T1 -->
<g id="edge2" class="edge"><title>T0&#45;&gt;T1</title>
<path fill="none" stroke="black" d="M37.067,-622.803C41.7224,-610.812 48.0757,-594.447 53.3922,-580.753"/>
<polygon fill="black" stroke="black" points="56.6846,-581.944 57.0411,-571.355 50.1591,-579.41 56.6846,-581.944"/>
<text text-anchor="middle" x="58.0473" y="-593.396" font-family="Times New Roman,serif" font-size="14.00">EP</text>
</g>
<!-- T2 -->
<g id="node4" class="node"><title>T2</title>
<ellipse fill="none" stroke="black" cx="63.5473" cy="-466.596" rx="27" ry="18"/>
<text text-anchor="middle" x="63.5473" y="-462.896" font-family="Times New Roman,serif" font-size="14.00">T2</text>
</g>
<!-- T2&#45;&gt;T3 -->
<g id="edge6" class="edge"><title>T2&#45;&gt;T3</title>
<path fill="none" stroke="black" d="M57.0276,-448.803C52.3722,-436.812 46.0189,-420.447 40.7024,-406.753"/>
<polygon fill="black" stroke="black" points="43.9355,-405.41 37.0535,-397.355 37.41,-407.944 43.9355,-405.41"/>
<text text-anchor="middle" x="57.0473" y="-419.396" font-family="Times New Roman,serif" font-size="14.00">EP</text>
</g>
<!-- T2&#45;&gt;T1 -->
<g id="edge5" class="edge"><title>T2&#45;&gt;T1</title>
<path fill="none" stroke="black" d="M64.1332,-484.684C64.3025,-490.381 64.4639,-496.761 64.5473,-502.596 64.6523,-509.946 64.5784,-517.902 64.4326,-525.26"/>
<polygon fill="black" stroke="black" points="60.9285,-525.389 64.1799,-535.473 67.9263,-525.562 60.9285,-525.389"/>
<text text-anchor="middle" x="73.0473" y="-506.396" font-family="Times New Roman,serif" font-size="14.00">EP</text>
</g>
<!-- T4 -->
<g id="node6" class="node"><title>T4</title>
<ellipse fill="none" stroke="black" cx="30.5473" cy="-292.596" rx="27" ry="18"/>
<text text-anchor="middle" x="30.5473" y="-288.896" font-family="Times New Roman,serif" font-size="14.00">T4</text>
</g>
<!-- T3&#45;&gt;T4 -->
<g id="edge7" class="edge"><title>T3&#45;&gt;T4</title>
<path fill="none" stroke="black" d="M30.5473,-361.395C30.5473,-349.759 30.5473,-334.144 30.5473,-320.833"/>
<polygon fill="black" stroke="black" points="34.0474,-320.772 30.5473,-310.772 27.0474,-320.772 34.0474,-320.772"/>
<text text-anchor="middle" x="34.0473" y="-332.396" font-family="Times New Roman,serif" font-size="14.00">a</text>
</g>
<!-- T4&#45;&gt;T7 -->
<g id="edge9" class="edge"><title>T4&#45;&gt;T7</title>
<path fill="none" stroke="black" d="M30.6764,-274.472C30.9593,-241.041 31.7574,-164.743 33.5473,-100.596 33.9183,-87.3007 34.4721,-72.6811 35.0033,-59.9212"/>
<polygon fill="black" stroke="black" points="38.5094,-59.8505 35.4397,-49.7101 31.5158,-59.5515 38.5094,-59.8505"/>
<text text-anchor="middle" x="40.0473" y="-158.396" font-family="Times New Roman,serif" font-size="14.00">EP</text>
</g>
<!-- T5 -->
<g id="node9" class="node"><title>T5</title>
<ellipse fill="none" stroke="black" cx="69.5473" cy="-205.596" rx="27" ry="18"/>
<text text-anchor="middle" x="69.5473" y="-201.896" font-family="Times New Roman,serif" font-size="14.00">T5</text>
</g>
<!-- T4&#45;&gt;T5 -->
<g id="edge8" class="edge"><title>T4&#45;&gt;T5</title>
<path fill="none" stroke="black" d="M38.0669,-275.207C43.678,-262.978 51.45,-246.039 57.8675,-232.052"/>
<polygon fill="black" stroke="black" points="61.0616,-233.483 62.0508,-222.935 54.6994,-230.564 61.0616,-233.483"/>
<text text-anchor="middle" x="61.0473" y="-245.396" font-family="Times New Roman,serif" font-size="14.00">EP</text>
</g>
<!-- T1&#45;&gt;T2 -->
<g id="edge4" class="edge"><title>T1&#45;&gt;T2</title>
<path fill="none" stroke="black" d="M60.0338,-535.581C59.0183,-529.89 58.0491,-523.493 57.5473,-517.596 56.9125,-510.136 57.3738,-502.071 58.2691,-494.642"/>
<polygon fill="black" stroke="black" points="61.7397,-495.098 59.7544,-484.691 54.8164,-494.064 61.7397,-495.098"/>
<text text-anchor="middle" x="61.5473" y="-506.396" font-family="Times New Roman,serif" font-size="14.00">b</text>
</g>
<!-- T5&#45;&gt;T6 -->
<g id="edge10" class="edge"><title>T5&#45;&gt;T6</title>
<path fill="none" stroke="black" d="M69.5473,-187.395C69.5473,-175.759 69.5473,-160.144 69.5473,-146.833"/>
<polygon fill="black" stroke="black" points="73.0474,-146.772 69.5473,-136.772 66.0474,-146.772 73.0474,-146.772"/>
<text text-anchor="middle" x="73.5473" y="-158.396" font-family="Times New Roman,serif" font-size="14.00">b</text>
</g>
</g>
</svg>
