<?xml version="1.0" encoding="UTF-8" standalone="no"?>
<!DOCTYPE svg PUBLIC "-//W3C//DTD SVG 1.1//EN"
 "http://www.w3.org/Graphics/SVG/1.1/DTD/svg11.dtd">
<!-- Generated by graphviz version 2.38.0 (20140413.2041)
 -->
<!-- Title: %3 Pages: 1 -->
<svg width="142pt" height="405pt"
 viewBox="0.00 0.00 141.80 405.19" xmlns="http://www.w3.org/2000/svg" xmlns:xlink="http://www.w3.org/1999/xlink">
<g id="graph0" class="graph" transform="scale(1 1) rotate(0) translate(4 401.193)">
<title>%3</title>
<polygon fill="white" stroke="none" points="-4,4 -4,-401.193 137.798,-401.193 137.798,4 -4,4"/>
<!-- fake0 -->
<g id="node1" class="node"><title>fake0</title>
</g>
<!-- T0 -->
<g id="node5" class="node"><title>T0</title>
<ellipse fill="none" stroke="black" cx="69.7982" cy="-306.193" rx="27" ry="18"/>
<text text-anchor="middle" x="69.7982" y="-302.493" font-family="Times New Roman,serif" font-size="14.00">T0</text>
</g>
<!-- fake0&#45;&gt;T0 -->
<g id="edge1" class="edge"><title>fake0&#45;&gt;T0</title>
<path fill="none" stroke="black" stroke-width="2" d="M69.7982,-361.005C69.7982,-352.982 69.7982,-343.24 69.7982,-334.262"/>
<polygon fill="black" stroke="black" stroke-width="2" points="73.2983,-334.221 69.7982,-324.221 66.2983,-334.221 73.2983,-334.221"/>
</g>
<!-- T3 -->
<g id="node2" class="node"><title>T3</title>
<ellipse fill="none" stroke="black" cx="24.7982" cy="-111.798" rx="20.6302" ry="20.6302"/>
<ellipse fill="none" stroke="black" cx="24.7982" cy="-111.798" rx="24.5979" ry="24.5979"/>
<text text-anchor="middle" x="24.7982" y="-108.098" font-family="Times New Roman,serif" font-size="14.00">T3</text>
</g>
<!-- T1 -->
<g id="node4" class="node"><title>T1</title>
<ellipse fill="none" stroke="black" cx="55.7982" cy="-18" rx="27" ry="18"/>
<text text-anchor="middle" x="55.7982" y="-14.3" font-family="Times New Roman,serif" font-size="14.00">T1</text>
</g>
<!-- T3&#45;&gt;T1 -->
<g id="edge8" class="edge"><title>T3&#45;&gt;T1</title>
<path fill="none" stroke="black" d="M22.2545,-86.9061C21.9944,-76.4912 22.8684,-64.3286 26.7982,-54 28.5643,-49.3581 31.2148,-44.8832 34.2081,-40.7736"/>
<polygon fill="black" stroke="black" points="37.0198,-42.8648 40.6603,-32.9151 31.6096,-38.4229 37.0198,-42.8648"/>
<text text-anchor="middle" x="30.7982" y="-57.8" font-family="Times New Roman,serif" font-size="14.00">b</text>
</g>
<!-- T3&#45;&gt;T1 -->
<g id="edge9" class="edge"><title>T3&#45;&gt;T1</title>
<path fill="none" stroke="black" d="M32.4611,-88.1065C36.8331,-75.1599 42.3341,-58.8703 46.8969,-45.3585"/>
<polygon fill="black" stroke="black" points="50.2856,-46.2631 50.1691,-35.6689 43.6536,-44.0234 50.2856,-46.2631"/>
<text text-anchor="middle" x="47.2982" y="-57.8" font-family="Times New Roman,serif" font-size="14.00">a</text>
</g>
<!-- T2 -->
<g id="node3" class="node"><title>T2</title>
<ellipse fill="none" stroke="black" cx="69.7982" cy="-212.394" rx="20.6302" ry="20.6302"/>
<ellipse fill="none" stroke="black" cx="69.7982" cy="-212.394" rx="24.5979" ry="24.5979"/>
<text text-anchor="middle" x="69.7982" y="-208.694" font-family="Times New Roman,serif" font-size="14.00">T2</text>
</g>
<!-- T2&#45;&gt;T3 -->
<g id="edge6" class="edge"><title>T2&#45;&gt;T3</title>
<path fill="none" stroke="black" d="M59.8112,-189.513C53.6939,-176.11 45.7672,-158.742 39.0034,-143.922"/>
<polygon fill="black" stroke="black" points="42.0934,-142.263 34.7572,-134.619 35.7253,-145.169 42.0934,-142.263"/>
<text text-anchor="middle" x="54.7982" y="-158.396" font-family="Times New Roman,serif" font-size="14.00">b</text>
</g>
<!-- T2&#45;&gt;T1 -->
<g id="edge7" class="edge"><title>T2&#45;&gt;T1</title>
<path fill="none" stroke="black" d="M68.0534,-187.417C65.4448,-151.569 60.5419,-84.1903 57.7942,-46.4308"/>
<polygon fill="black" stroke="black" points="61.2644,-45.8931 57.0478,-36.1735 54.2829,-46.4012 61.2644,-45.8931"/>
<text text-anchor="middle" x="68.2982" y="-108.098" font-family="Times New Roman,serif" font-size="14.00">a</text>
</g>
<!-- T1&#45;&gt;T1 -->
<g id="edge4" class="edge"><title>T1&#45;&gt;T1</title>
<path fill="none" stroke="black" d="M82.593,-21.9288C92.5786,-22.0577 100.798,-20.748 100.798,-18 100.798,-16.2825 97.5874,-15.1268 92.7414,-14.5331"/>
<polygon fill="black" stroke="black" points="92.7418,-11.0296 82.593,-14.0712 92.4235,-18.0223 92.7418,-11.0296"/>
<text text-anchor="middle" x="104.798" y="-14.3" font-family="Times New Roman,serif" font-size="14.00">b</text>
</g>
<!-- T1&#45;&gt;T1 -->
<g id="edge5" class="edge"><title>T1&#45;&gt;T1</title>
<path fill="none" stroke="black" d="M81.0273,-24.9445C99.8387,-27.3695 118.798,-25.0547 118.798,-18 118.798,-12.213 106.04,-9.61542 91.0713,-10.2074"/>
<polygon fill="black" stroke="black" points="90.6973,-6.72644 81.0273,-11.0555 91.2864,-13.7016 90.6973,-6.72644"/>
<text text-anchor="middle" x="122.298" y="-14.3" font-family="Times New Roman,serif" font-size="14.00">a</text>
</g>
<!-- T0&#45;&gt;T2 -->
<g id="edge3" class="edge"><title>T0&#45;&gt;T2</title>
<path fill="none" stroke="black" d="M69.7982,-287.926C69.7982,-276.586 69.7982,-261.363 69.7982,-247.632"/>
<polygon fill="black" stroke="black" points="73.2983,-247.511 69.7982,-237.511 66.2983,-247.512 73.2983,-247.511"/>
<text text-anchor="middle" x="73.2982" y="-258.993" font-family="Times New Roman,serif" font-size="14.00">a</text>
</g>
<!-- T0&#45;&gt;T0 -->
<g id="edge2" class="edge"><title>T0&#45;&gt;T0</title>
<path fill="none" stroke="black" d="M95.2416,-312.883C105.826,-313.345 114.798,-311.114 114.798,-306.193 114.798,-302.963 110.934,-300.892 105.286,-299.98"/>
<polygon fill="black" stroke="black" points="105.397,-296.482 95.2416,-299.502 105.064,-303.474 105.397,-296.482"/>
<text text-anchor="middle" x="118.798" y="-302.493" font-family="Times New Roman,serif" font-size="14.00">b</text>
</g>
</g>
</svg>
