<?xml version="1.0" encoding="UTF-8" standalone="no"?>
<!DOCTYPE svg PUBLIC "-//W3C//DTD SVG 1.1//EN"
 "http://www.w3.org/Graphics/SVG/1.1/DTD/svg11.dtd">
<!-- Generated by graphviz version 2.38.0 (20140413.2041)
 -->
<!-- Title: %3 Pages: 1 -->
<svg width="160pt" height="405pt"
 viewBox="0.00 0.00 160.00 405.19" xmlns="http://www.w3.org/2000/svg" xmlns:xlink="http://www.w3.org/1999/xlink">
<g id="graph0" class="graph" transform="scale(1 1) rotate(0) translate(4 401.193)">
<title>%3</title>
<polygon fill="white" stroke="none" points="-4,4 -4,-401.193 156,-401.193 156,4 -4,4"/>
<!-- fake0 -->
<g id="node1" class="node"><title>fake0</title>
</g>
<!-- T0 -->
<g id="node2" class="node"><title>T0</title>
<ellipse fill="none" stroke="black" cx="57" cy="-299.394" rx="20.6302" ry="20.6302"/>
<ellipse fill="none" stroke="black" cx="57" cy="-299.394" rx="24.5979" ry="24.5979"/>
<text text-anchor="middle" x="57" y="-295.694" font-family="Times New Roman,serif" font-size="14.00">T0</text>
</g>
<!-- fake0&#45;&gt;T0 -->
<g id="edge1" class="edge"><title>fake0&#45;&gt;T0</title>
<path fill="none" stroke="black" stroke-width="2" d="M57,-360.927C57,-353.121 57,-343.611 57,-334.462"/>
<polygon fill="black" stroke="black" stroke-width="2" points="60.5001,-334.398 57,-324.398 53.5001,-334.398 60.5001,-334.398"/>
</g>
<!-- T1 -->
<g id="node3" class="node"><title>T1</title>
<ellipse fill="none" stroke="black" cx="27" cy="-205.596" rx="27" ry="18"/>
<text text-anchor="middle" x="27" y="-201.896" font-family="Times New Roman,serif" font-size="14.00">T1</text>
</g>
<!-- T0&#45;&gt;T1 -->
<g id="edge2" class="edge"><title>T0&#45;&gt;T1</title>
<path fill="none" stroke="black" d="M41.8541,-279.476C37.2116,-272.652 32.6369,-264.641 30,-256.596 27.6436,-249.407 26.5423,-241.329 26.1152,-233.798"/>
<polygon fill="black" stroke="black" points="29.6116,-233.587 25.8998,-223.663 22.6132,-233.735 29.6116,-233.587"/>
<text text-anchor="middle" x="33.5" y="-245.396" font-family="Times New Roman,serif" font-size="14.00">0</text>
</g>
<!-- T2 -->
<g id="node6" class="node"><title>T2</title>
<ellipse fill="none" stroke="black" cx="100" cy="-205.596" rx="27" ry="18"/>
<text text-anchor="middle" x="100" y="-201.896" font-family="Times New Roman,serif" font-size="14.00">T2</text>
</g>
<!-- T0&#45;&gt;T2 -->
<g id="edge3" class="edge"><title>T0&#45;&gt;T2</title>
<path fill="none" stroke="black" d="M67.1904,-276.64C73.4458,-263.285 81.4868,-246.119 88.0427,-232.123"/>
<polygon fill="black" stroke="black" points="91.2315,-233.567 92.3039,-223.026 84.8925,-230.597 91.2315,-233.567"/>
<text text-anchor="middle" x="87.5" y="-245.396" font-family="Times New Roman,serif" font-size="14.00">1</text>
</g>
<!-- T1&#45;&gt;T0 -->
<g id="edge4" class="edge"><title>T1&#45;&gt;T0</title>
<path fill="none" stroke="black" d="M32.4474,-223.265C36.3453,-235.192 41.717,-251.63 46.4423,-266.088"/>
<polygon fill="black" stroke="black" points="43.151,-267.285 49.5843,-275.703 49.8047,-265.11 43.151,-267.285"/>
<text text-anchor="middle" x="46.5" y="-245.396" font-family="Times New Roman,serif" font-size="14.00">0</text>
</g>
<!-- T3 -->
<g id="node4" class="node"><title>T3</title>
<ellipse fill="none" stroke="black" cx="75" cy="-18" rx="27" ry="18"/>
<text text-anchor="middle" x="75" y="-14.3" font-family="Times New Roman,serif" font-size="14.00">T3</text>
</g>
<!-- T1&#45;&gt;T3 -->
<g id="edge5" class="edge"><title>T1&#45;&gt;T3</title>
<path fill="none" stroke="black" d="M25.4968,-187.393C24.0211,-164.068 23.3275,-121.377 34,-87 38.9335,-71.1088 48.3294,-55.0858 56.8829,-42.5882"/>
<polygon fill="black" stroke="black" points="59.9335,-44.3383 62.8865,-34.1633 54.2328,-40.2759 59.9335,-44.3383"/>
<text text-anchor="middle" x="37.5" y="-108.098" font-family="Times New Roman,serif" font-size="14.00">1</text>
</g>
<!-- T3&#45;&gt;T3 -->
<g id="edge8" class="edge"><title>T3&#45;&gt;T3</title>
<path fill="none" stroke="black" d="M101.795,-21.9288C111.78,-22.0577 120,-20.748 120,-18 120,-16.2825 116.789,-15.1268 111.943,-14.5331"/>
<polygon fill="black" stroke="black" points="111.944,-11.0296 101.795,-14.0712 111.625,-18.0223 111.944,-11.0296"/>
<text text-anchor="middle" x="123.5" y="-14.3" font-family="Times New Roman,serif" font-size="14.00">0</text>
</g>
<!-- T3&#45;&gt;T3 -->
<g id="edge9" class="edge"><title>T3&#45;&gt;T3</title>
<path fill="none" stroke="black" d="M100.229,-24.9445C119.041,-27.3695 138,-25.0547 138,-18 138,-12.213 125.242,-9.61542 110.273,-10.2074"/>
<polygon fill="black" stroke="black" points="109.899,-6.72644 100.229,-11.0555 110.488,-13.7016 109.899,-6.72644"/>
<text text-anchor="middle" x="141.5" y="-14.3" font-family="Times New Roman,serif" font-size="14.00">1</text>
</g>
<!-- T4 -->
<g id="node5" class="node"><title>T4</title>
<ellipse fill="none" stroke="black" cx="75" cy="-111.798" rx="20.6302" ry="20.6302"/>
<ellipse fill="none" stroke="black" cx="75" cy="-111.798" rx="24.5979" ry="24.5979"/>
<text text-anchor="middle" x="75" y="-108.098" font-family="Times New Roman,serif" font-size="14.00">T4</text>
</g>
<!-- T4&#45;&gt;T3 -->
<g id="edge10" class="edge"><title>T4&#45;&gt;T3</title>
<path fill="none" stroke="black" d="M75,-86.6793C75,-74.2289 75,-58.9952 75,-46.1353"/>
<polygon fill="black" stroke="black" points="78.5001,-46.0044 75,-36.0045 71.5001,-46.0045 78.5001,-46.0044"/>
<text text-anchor="middle" x="78.5" y="-57.8" font-family="Times New Roman,serif" font-size="14.00">0</text>
</g>
<!-- T4&#45;&gt;T2 -->
<g id="edge11" class="edge"><title>T4&#45;&gt;T2</title>
<path fill="none" stroke="black" d="M81.3449,-136.096C84.8068,-148.808 89.108,-164.602 92.7076,-177.819"/>
<polygon fill="black" stroke="black" points="89.4099,-179.03 95.4146,-187.759 96.1639,-177.191 89.4099,-179.03"/>
<text text-anchor="middle" x="93.5" y="-158.396" font-family="Times New Roman,serif" font-size="14.00">1</text>
</g>
<!-- T2&#45;&gt;T3 -->
<g id="edge6" class="edge"><title>T2&#45;&gt;T3</title>
<path fill="none" stroke="black" d="M104.513,-187.597C109.921,-164.503 117.28,-122.073 109,-87 105.399,-71.7475 97.8248,-56.0155 90.7371,-43.5298"/>
<polygon fill="black" stroke="black" points="93.5977,-41.4919 85.4859,-34.6765 87.5771,-45.0629 93.5977,-41.4919"/>
<text text-anchor="middle" x="115.5" y="-108.098" font-family="Times New Roman,serif" font-size="14.00">0</text>
</g>
<!-- T2&#45;&gt;T4 -->
<g id="edge7" class="edge"><title>T2&#45;&gt;T4</title>
<path fill="none" stroke="black" d="M86.0013,-190.137C81.2269,-184.248 76.4723,-177.07 74,-169.596 71.6151,-162.387 70.7553,-154.375 70.719,-146.697"/>
<polygon fill="black" stroke="black" points="74.2227,-146.668 71.114,-136.54 67.228,-146.396 74.2227,-146.668"/>
<text text-anchor="middle" x="77.5" y="-158.396" font-family="Times New Roman,serif" font-size="14.00">1</text>
</g>
</g>
</svg>
