<?xml version="1.0" encoding="UTF-8" standalone="no"?>
<!DOCTYPE svg PUBLIC "-//W3C//DTD SVG 1.1//EN"
 "http://www.w3.org/Graphics/SVG/1.1/DTD/svg11.dtd">
<!-- Generated by graphviz version 2.38.0 (20140413.2041)
 -->
<!-- Title: %3 Pages: 1 -->
<svg width="205pt" height="827pt"
 viewBox="0.00 0.00 204.90 826.60" xmlns="http://www.w3.org/2000/svg" xmlns:xlink="http://www.w3.org/1999/xlink">
<g id="graph0" class="graph" transform="scale(1 1) rotate(0) translate(4 822.596)">
<title>%3</title>
<polygon fill="white" stroke="none" points="-4,4 -4,-822.596 200.9,-822.596 200.9,4 -4,4"/>
<!-- fake0 -->
<g id="node1" class="node"><title>fake0</title>
</g>
<!-- T0 -->
<g id="node10" class="node"><title>T0</title>
<ellipse fill="none" stroke="black" cx="102.9" cy="-727.596" rx="27" ry="18"/>
<text text-anchor="middle" x="102.9" y="-723.896" font-family="Times New Roman,serif" font-size="14.00">T0</text>
</g>
<!-- fake0&#45;&gt;T0 -->
<g id="edge1" class="edge"><title>fake0&#45;&gt;T0</title>
<path fill="none" stroke="black" stroke-width="2" d="M102.9,-782.409C102.9,-774.386 102.9,-764.644 102.9,-755.665"/>
<polygon fill="black" stroke="black" stroke-width="2" points="106.4,-755.625 102.9,-745.625 99.4003,-755.625 106.4,-755.625"/>
</g>
<!-- T4 -->
<g id="node2" class="node"><title>T4</title>
<ellipse fill="none" stroke="black" cx="102.9" cy="-379.596" rx="27" ry="18"/>
<text text-anchor="middle" x="102.9" y="-375.896" font-family="Times New Roman,serif" font-size="14.00">T4</text>
</g>
<!-- T5 -->
<g id="node6" class="node"><title>T5</title>
<ellipse fill="none" stroke="black" cx="56.9002" cy="-292.596" rx="27" ry="18"/>
<text text-anchor="middle" x="56.9002" y="-288.896" font-family="Times New Roman,serif" font-size="14.00">T5</text>
</g>
<!-- T4&#45;&gt;T5 -->
<g id="edge8" class="edge"><title>T4&#45;&gt;T5</title>
<path fill="none" stroke="black" d="M94.0309,-362.207C87.3703,-349.9 78.1282,-332.822 70.531,-318.784"/>
<polygon fill="black" stroke="black" points="73.4239,-316.775 65.5862,-309.647 67.2676,-320.107 73.4239,-316.775"/>
<text text-anchor="middle" x="91.4002" y="-332.396" font-family="Times New Roman,serif" font-size="14.00">EP</text>
</g>
<!-- T8 -->
<g id="node7" class="node"><title>T8</title>
<ellipse fill="none" stroke="black" cx="95.9002" cy="-24.7982" rx="20.6302" ry="20.6302"/>
<ellipse fill="none" stroke="black" cx="95.9002" cy="-24.7982" rx="24.5979" ry="24.5979"/>
<text text-anchor="middle" x="95.9002" y="-21.0982" font-family="Times New Roman,serif" font-size="14.00">T8</text>
</g>
<!-- T4&#45;&gt;T8 -->
<g id="edge9" class="edge"><title>T4&#45;&gt;T8</title>
<path fill="none" stroke="black" d="M108.279,-361.86C113.26,-344.858 119.9,-317.675 119.9,-293.596 119.9,-293.596 119.9,-293.596 119.9,-117.596 119.9,-97.2163 114.295,-75.0946 108.502,-57.6746"/>
<polygon fill="black" stroke="black" points="111.724,-56.2869 105.111,-48.0099 105.119,-58.6048 111.724,-56.2869"/>
<text text-anchor="middle" x="128.4" y="-201.896" font-family="Times New Roman,serif" font-size="14.00">EP</text>
</g>
<!-- T7 -->
<g id="node3" class="node"><title>T7</title>
<ellipse fill="none" stroke="black" cx="56.9002" cy="-118.596" rx="27" ry="18"/>
<text text-anchor="middle" x="56.9002" y="-114.896" font-family="Times New Roman,serif" font-size="14.00">T7</text>
</g>
<!-- T7&#45;&gt;T5 -->
<g id="edge12" class="edge"><title>T7&#45;&gt;T5</title>
<path fill="none" stroke="black" d="M41.4271,-133.493C28.5928,-146.142 11.2947,-166.08 3.90021,-187.596 -1.30007,-202.728 -1.30007,-208.465 3.90021,-223.596 9.96603,-241.246 22.6961,-257.834 34.1596,-270.208"/>
<polygon fill="black" stroke="black" points="31.952,-272.959 41.4271,-277.7 36.9763,-268.085 31.952,-272.959"/>
<text text-anchor="middle" x="12.4002" y="-201.896" font-family="Times New Roman,serif" font-size="14.00">EP</text>
</g>
<!-- T7&#45;&gt;T8 -->
<g id="edge13" class="edge"><title>T7&#45;&gt;T8</title>
<path fill="none" stroke="black" d="M63.8726,-101.185C69.0488,-89.001 76.2672,-72.0102 82.5412,-57.2426"/>
<polygon fill="black" stroke="black" points="85.8078,-58.5046 86.4967,-47.9322 79.3651,-55.7674 85.8078,-58.5046"/>
<text text-anchor="middle" x="86.4002" y="-71.3963" font-family="Times New Roman,serif" font-size="14.00">EP</text>
</g>
<!-- T1 -->
<g id="node4" class="node"><title>T1</title>
<ellipse fill="none" stroke="black" cx="141.9" cy="-640.596" rx="27" ry="18"/>
<text text-anchor="middle" x="141.9" y="-636.896" font-family="Times New Roman,serif" font-size="14.00">T1</text>
</g>
<!-- T2 -->
<g id="node5" class="node"><title>T2</title>
<ellipse fill="none" stroke="black" cx="141.9" cy="-553.596" rx="27" ry="18"/>
<text text-anchor="middle" x="141.9" y="-549.896" font-family="Times New Roman,serif" font-size="14.00">T2</text>
</g>
<!-- T1&#45;&gt;T2 -->
<g id="edge4" class="edge"><title>T1&#45;&gt;T2</title>
<path fill="none" stroke="black" d="M141.9,-622.395C141.9,-610.759 141.9,-595.144 141.9,-581.833"/>
<polygon fill="black" stroke="black" points="145.4,-581.772 141.9,-571.772 138.4,-581.772 145.4,-581.772"/>
<text text-anchor="middle" x="145.4" y="-593.396" font-family="Times New Roman,serif" font-size="14.00">0</text>
</g>
<!-- T3 -->
<g id="node8" class="node"><title>T3</title>
<ellipse fill="none" stroke="black" cx="141.9" cy="-466.596" rx="27" ry="18"/>
<text text-anchor="middle" x="141.9" y="-462.896" font-family="Times New Roman,serif" font-size="14.00">T3</text>
</g>
<!-- T2&#45;&gt;T3 -->
<g id="edge5" class="edge"><title>T2&#45;&gt;T3</title>
<path fill="none" stroke="black" d="M141.9,-535.395C141.9,-523.759 141.9,-508.144 141.9,-494.833"/>
<polygon fill="black" stroke="black" points="145.4,-494.772 141.9,-484.772 138.4,-494.772 145.4,-494.772"/>
<text text-anchor="middle" x="145.4" y="-506.396" font-family="Times New Roman,serif" font-size="14.00">0</text>
</g>
<!-- T6 -->
<g id="node9" class="node"><title>T6</title>
<ellipse fill="none" stroke="black" cx="56.9002" cy="-205.596" rx="27" ry="18"/>
<text text-anchor="middle" x="56.9002" y="-201.896" font-family="Times New Roman,serif" font-size="14.00">T6</text>
</g>
<!-- T5&#45;&gt;T6 -->
<g id="edge10" class="edge"><title>T5&#45;&gt;T6</title>
<path fill="none" stroke="black" d="M56.9002,-274.395C56.9002,-262.759 56.9002,-247.144 56.9002,-233.833"/>
<polygon fill="black" stroke="black" points="60.4003,-233.772 56.9002,-223.772 53.4003,-233.772 60.4003,-233.772"/>
<text text-anchor="middle" x="60.4002" y="-245.396" font-family="Times New Roman,serif" font-size="14.00">1</text>
</g>
<!-- T3&#45;&gt;T4 -->
<g id="edge7" class="edge"><title>T3&#45;&gt;T4</title>
<path fill="none" stroke="black" d="M134.381,-449.207C128.769,-436.978 120.998,-420.039 114.58,-406.052"/>
<polygon fill="black" stroke="black" points="117.748,-404.564 110.397,-396.935 111.386,-407.483 117.748,-404.564"/>
<text text-anchor="middle" x="132.4" y="-419.396" font-family="Times New Roman,serif" font-size="14.00">EP</text>
</g>
<!-- T3&#45;&gt;T1 -->
<g id="edge6" class="edge"><title>T3&#45;&gt;T1</title>
<path fill="none" stroke="black" d="M152.996,-483.181C161.694,-496.413 173.102,-516.28 177.9,-535.596 181.757,-551.125 181.757,-556.068 177.9,-571.596 174.04,-587.14 165.898,-603.04 158.333,-615.553"/>
<polygon fill="black" stroke="black" points="155.372,-613.687 152.996,-624.012 161.292,-617.422 155.372,-613.687"/>
<text text-anchor="middle" x="188.4" y="-549.896" font-family="Times New Roman,serif" font-size="14.00">EP</text>
</g>
<!-- T6&#45;&gt;T7 -->
<g id="edge11" class="edge"><title>T6&#45;&gt;T7</title>
<path fill="none" stroke="black" d="M56.9002,-187.395C56.9002,-175.759 56.9002,-160.144 56.9002,-146.833"/>
<polygon fill="black" stroke="black" points="60.4003,-146.772 56.9002,-136.772 53.4003,-146.772 60.4003,-146.772"/>
<text text-anchor="middle" x="60.4002" y="-158.396" font-family="Times New Roman,serif" font-size="14.00">1</text>
</g>
<!-- T0&#45;&gt;T4 -->
<g id="edge3" class="edge"><title>T0&#45;&gt;T4</title>
<path fill="none" stroke="black" d="M95.6229,-710.021C88.8846,-693.145 79.9002,-666.057 79.9002,-641.596 79.9002,-641.596 79.9002,-641.596 79.9002,-465.596 79.9002,-445.34 86.0616,-423.282 92.0064,-406.713"/>
<polygon fill="black" stroke="black" points="95.3515,-407.763 95.6229,-397.172 88.8058,-405.282 95.3515,-407.763"/>
<text text-anchor="middle" x="88.4002" y="-549.896" font-family="Times New Roman,serif" font-size="14.00">EP</text>
</g>
<!-- T0&#45;&gt;T1 -->
<g id="edge2" class="edge"><title>T0&#45;&gt;T1</title>
<path fill="none" stroke="black" d="M110.42,-710.207C116.031,-697.978 123.803,-681.039 130.22,-667.052"/>
<polygon fill="black" stroke="black" points="133.415,-668.483 134.404,-657.935 127.052,-665.564 133.415,-668.483"/>
<text text-anchor="middle" x="133.4" y="-680.396" font-family="Times New Roman,serif" font-size="14.00">EP</text>
</g>
</g>
</svg>
