<?xml version="1.0" encoding="UTF-8" standalone="no"?>
<!DOCTYPE svg PUBLIC "-//W3C//DTD SVG 1.1//EN"
 "http://www.w3.org/Graphics/SVG/1.1/DTD/svg11.dtd">
<!-- Generated by graphviz version 2.38.0 (20140413.2041)
 -->
<!-- Title: %3 Pages: 1 -->
<svg width="169pt" height="827pt"
 viewBox="0.00 0.00 169.00 826.60" xmlns="http://www.w3.org/2000/svg" xmlns:xlink="http://www.w3.org/1999/xlink">
<g id="graph0" class="graph" transform="scale(1 1) rotate(0) translate(4 822.596)">
<title>%3</title>
<polygon fill="white" stroke="none" points="-4,4 -4,-822.596 165,-822.596 165,4 -4,4"/>
<!-- fake0 -->
<g id="node1" class="node"><title>fake0</title>
</g>
<!-- T0 -->
<g id="node3" class="node"><title>T0</title>
<ellipse fill="none" stroke="black" cx="122" cy="-727.596" rx="27" ry="18"/>
<text text-anchor="middle" x="122" y="-723.896" font-family="Times New Roman,serif" font-size="14.00">T0</text>
</g>
<!-- fake0&#45;&gt;T0 -->
<g id="edge1" class="edge"><title>fake0&#45;&gt;T0</title>
<path fill="none" stroke="black" stroke-width="2" d="M122,-782.409C122,-774.386 122,-764.644 122,-755.665"/>
<polygon fill="black" stroke="black" stroke-width="2" points="125.5,-755.625 122,-745.625 118.5,-755.625 125.5,-755.625"/>
</g>
<!-- T7 -->
<g id="node2" class="node"><title>T7</title>
<ellipse fill="none" stroke="black" cx="76" cy="-118.596" rx="27" ry="18"/>
<text text-anchor="middle" x="76" y="-114.896" font-family="Times New Roman,serif" font-size="14.00">T7</text>
</g>
<!-- T5 -->
<g id="node4" class="node"><title>T5</title>
<ellipse fill="none" stroke="black" cx="76" cy="-292.596" rx="27" ry="18"/>
<text text-anchor="middle" x="76" y="-288.896" font-family="Times New Roman,serif" font-size="14.00">T5</text>
</g>
<!-- T7&#45;&gt;T5 -->
<g id="edge12" class="edge"><title>T7&#45;&gt;T5</title>
<path fill="none" stroke="black" d="M60.5269,-133.493C47.6926,-146.142 30.3945,-166.08 23,-187.596 17.7997,-202.728 17.7997,-208.465 23,-223.596 29.0658,-241.246 41.7959,-257.834 53.2594,-270.208"/>
<polygon fill="black" stroke="black" points="51.0518,-272.959 60.5269,-277.7 56.0761,-268.085 51.0518,-272.959"/>
<text text-anchor="middle" x="31.5" y="-201.896" font-family="Times New Roman,serif" font-size="14.00">EP</text>
</g>
<!-- T8 -->
<g id="node5" class="node"><title>T8</title>
<ellipse fill="none" stroke="black" cx="115" cy="-24.7982" rx="20.6302" ry="20.6302"/>
<ellipse fill="none" stroke="black" cx="115" cy="-24.7982" rx="24.5979" ry="24.5979"/>
<text text-anchor="middle" x="115" y="-21.0982" font-family="Times New Roman,serif" font-size="14.00">T8</text>
</g>
<!-- T7&#45;&gt;T8 -->
<g id="edge13" class="edge"><title>T7&#45;&gt;T8</title>
<path fill="none" stroke="black" d="M82.9724,-101.185C88.1486,-89.001 95.367,-72.0102 101.641,-57.2426"/>
<polygon fill="black" stroke="black" points="104.908,-58.5046 105.596,-47.9322 98.4649,-55.7674 104.908,-58.5046"/>
<text text-anchor="middle" x="104.5" y="-71.3963" font-family="Times New Roman,serif" font-size="14.00">EP</text>
</g>
<!-- T1 -->
<g id="node7" class="node"><title>T1</title>
<ellipse fill="none" stroke="black" cx="89" cy="-640.596" rx="27" ry="18"/>
<text text-anchor="middle" x="89" y="-636.896" font-family="Times New Roman,serif" font-size="14.00">T1</text>
</g>
<!-- T0&#45;&gt;T1 -->
<g id="edge3" class="edge"><title>T0&#45;&gt;T1</title>
<path fill="none" stroke="black" d="M115.48,-709.803C110.825,-697.812 104.472,-681.447 99.1551,-667.753"/>
<polygon fill="black" stroke="black" points="102.388,-666.41 95.5062,-658.355 95.8627,-668.944 102.388,-666.41"/>
<text text-anchor="middle" x="115.5" y="-680.396" font-family="Times New Roman,serif" font-size="14.00">EP</text>
</g>
<!-- T4 -->
<g id="node9" class="node"><title>T4</title>
<ellipse fill="none" stroke="black" cx="122" cy="-379.596" rx="27" ry="18"/>
<text text-anchor="middle" x="122" y="-375.896" font-family="Times New Roman,serif" font-size="14.00">T4</text>
</g>
<!-- T0&#45;&gt;T4 -->
<g id="edge2" class="edge"><title>T0&#45;&gt;T4</title>
<path fill="none" stroke="black" d="M128.961,-709.991C135.406,-693.091 144,-665.985 144,-641.596 144,-641.596 144,-641.596 144,-465.596 144,-445.399 138.106,-423.339 132.42,-406.754"/>
<polygon fill="black" stroke="black" points="135.657,-405.412 128.961,-397.202 129.075,-407.796 135.657,-405.412"/>
<text text-anchor="middle" x="152.5" y="-549.896" font-family="Times New Roman,serif" font-size="14.00">EP</text>
</g>
<!-- T6 -->
<g id="node6" class="node"><title>T6</title>
<ellipse fill="none" stroke="black" cx="76" cy="-205.596" rx="27" ry="18"/>
<text text-anchor="middle" x="76" y="-201.896" font-family="Times New Roman,serif" font-size="14.00">T6</text>
</g>
<!-- T5&#45;&gt;T6 -->
<g id="edge10" class="edge"><title>T5&#45;&gt;T6</title>
<path fill="none" stroke="black" d="M76,-274.395C76,-262.759 76,-247.144 76,-233.833"/>
<polygon fill="black" stroke="black" points="79.5001,-233.772 76,-223.772 72.5001,-233.772 79.5001,-233.772"/>
<text text-anchor="middle" x="79.5" y="-245.396" font-family="Times New Roman,serif" font-size="14.00">1</text>
</g>
<!-- T6&#45;&gt;T7 -->
<g id="edge11" class="edge"><title>T6&#45;&gt;T7</title>
<path fill="none" stroke="black" d="M76,-187.395C76,-175.759 76,-160.144 76,-146.833"/>
<polygon fill="black" stroke="black" points="79.5001,-146.772 76,-136.772 72.5001,-146.772 79.5001,-146.772"/>
<text text-anchor="middle" x="79.5" y="-158.396" font-family="Times New Roman,serif" font-size="14.00">1</text>
</g>
<!-- T2 -->
<g id="node10" class="node"><title>T2</title>
<ellipse fill="none" stroke="black" cx="27" cy="-553.596" rx="27" ry="18"/>
<text text-anchor="middle" x="27" y="-549.896" font-family="Times New Roman,serif" font-size="14.00">T2</text>
</g>
<!-- T1&#45;&gt;T2 -->
<g id="edge4" class="edge"><title>T1&#45;&gt;T2</title>
<path fill="none" stroke="black" d="M77.6282,-624.006C68.2768,-611.185 54.8771,-592.815 44.2119,-578.193"/>
<polygon fill="black" stroke="black" points="47.0204,-576.104 38.2997,-570.088 41.365,-580.23 47.0204,-576.104"/>
<text text-anchor="middle" x="65.5" y="-593.396" font-family="Times New Roman,serif" font-size="14.00">0</text>
</g>
<!-- T3 -->
<g id="node8" class="node"><title>T3</title>
<ellipse fill="none" stroke="black" cx="89" cy="-466.596" rx="27" ry="18"/>
<text text-anchor="middle" x="89" y="-462.896" font-family="Times New Roman,serif" font-size="14.00">T3</text>
</g>
<!-- T3&#45;&gt;T1 -->
<g id="edge7" class="edge"><title>T3&#45;&gt;T1</title>
<path fill="none" stroke="black" d="M89,-484.648C89,-514.476 89,-576.36 89,-612.24"/>
<polygon fill="black" stroke="black" points="85.5001,-612.475 89,-622.475 92.5001,-612.476 85.5001,-612.475"/>
<text text-anchor="middle" x="97.5" y="-549.896" font-family="Times New Roman,serif" font-size="14.00">EP</text>
</g>
<!-- T3&#45;&gt;T4 -->
<g id="edge6" class="edge"><title>T3&#45;&gt;T4</title>
<path fill="none" stroke="black" d="M95.5197,-448.803C100.175,-436.812 106.528,-420.447 111.845,-406.753"/>
<polygon fill="black" stroke="black" points="115.137,-407.944 115.494,-397.355 108.612,-405.41 115.137,-407.944"/>
<text text-anchor="middle" x="116.5" y="-419.396" font-family="Times New Roman,serif" font-size="14.00">EP</text>
</g>
<!-- T4&#45;&gt;T5 -->
<g id="edge8" class="edge"><title>T4&#45;&gt;T5</title>
<path fill="none" stroke="black" d="M113.131,-362.207C106.47,-349.9 97.2279,-332.822 89.6308,-318.784"/>
<polygon fill="black" stroke="black" points="92.5237,-316.775 84.686,-309.647 86.3674,-320.107 92.5237,-316.775"/>
<text text-anchor="middle" x="109.5" y="-332.396" font-family="Times New Roman,serif" font-size="14.00">EP</text>
</g>
<!-- T4&#45;&gt;T8 -->
<g id="edge9" class="edge"><title>T4&#45;&gt;T8</title>
<path fill="none" stroke="black" d="M127.379,-361.86C132.359,-344.858 139,-317.675 139,-293.596 139,-293.596 139,-293.596 139,-117.596 139,-97.2163 133.395,-75.0946 127.602,-57.6746"/>
<polygon fill="black" stroke="black" points="130.824,-56.2869 124.21,-48.0099 124.219,-58.6048 130.824,-56.2869"/>
<text text-anchor="middle" x="147.5" y="-201.896" font-family="Times New Roman,serif" font-size="14.00">EP</text>
</g>
<!-- T2&#45;&gt;T3 -->
<g id="edge5" class="edge"><title>T2&#45;&gt;T3</title>
<path fill="none" stroke="black" d="M38.3718,-537.006C47.7232,-524.185 61.1229,-505.815 71.7881,-491.193"/>
<polygon fill="black" stroke="black" points="74.635,-493.23 77.7003,-483.088 68.9796,-489.104 74.635,-493.23"/>
<text text-anchor="middle" x="67.5" y="-506.396" font-family="Times New Roman,serif" font-size="14.00">0</text>
</g>
</g>
</svg>
