<?xml version="1.0" encoding="UTF-8" standalone="no"?>
<!DOCTYPE svg PUBLIC "-//W3C//DTD SVG 1.1//EN"
 "http://www.w3.org/Graphics/SVG/1.1/DTD/svg11.dtd">
<!-- Generated by graphviz version 2.38.0 (20140413.2041)
 -->
<!-- Title: %3 Pages: 1 -->
<svg width="187pt" height="662pt"
 viewBox="0.00 0.00 186.88 661.70" xmlns="http://www.w3.org/2000/svg" xmlns:xlink="http://www.w3.org/1999/xlink">
<g id="graph0" class="graph" transform="scale(1 1) rotate(0) translate(4 657.696)">
<title>%3</title>
<polygon fill="white" stroke="none" points="-4,4 -4,-657.696 182.883,-657.696 182.883,4 -4,4"/>
<!-- fake0 -->
<g id="node1" class="node"><title>fake0</title>
</g>
<!-- T0 -->
<g id="node8" class="node"><title>T0</title>
<ellipse fill="none" stroke="black" cx="85.8831" cy="-562.696" rx="27" ry="18"/>
<text text-anchor="middle" x="85.8831" y="-558.996" font-family="Times New Roman,serif" font-size="14.00">T0</text>
</g>
<!-- fake0&#45;&gt;T0 -->
<g id="edge1" class="edge"><title>fake0&#45;&gt;T0</title>
<path fill="none" stroke="black" stroke-width="2" d="M85.8831,-617.508C85.8831,-609.485 85.8831,-599.743 85.8831,-590.765"/>
<polygon fill="black" stroke="black" stroke-width="2" points="89.3832,-590.724 85.8831,-580.724 82.3832,-590.724 89.3832,-590.724"/>
</g>
<!-- T2 -->
<g id="node2" class="node"><title>T2</title>
<ellipse fill="none" stroke="black" cx="117.883" cy="-388.696" rx="27" ry="18"/>
<text text-anchor="middle" x="117.883" y="-384.996" font-family="Times New Roman,serif" font-size="14.00">T2</text>
</g>
<!-- T3 -->
<g id="node4" class="node"><title>T3</title>
<ellipse fill="none" stroke="black" cx="117.883" cy="-301.696" rx="27" ry="18"/>
<text text-anchor="middle" x="117.883" y="-297.996" font-family="Times New Roman,serif" font-size="14.00">T3</text>
</g>
<!-- T2&#45;&gt;T3 -->
<g id="edge6" class="edge"><title>T2&#45;&gt;T3</title>
<path fill="none" stroke="black" d="M110.995,-371.252C108.919,-365.489 106.918,-358.905 105.883,-352.696 104.592,-344.947 105.606,-336.617 107.494,-329.021"/>
<polygon fill="black" stroke="black" points="110.907,-329.828 110.474,-319.242 104.211,-327.787 110.907,-329.828"/>
<text text-anchor="middle" x="109.383" y="-341.496" font-family="Times New Roman,serif" font-size="14.00">a</text>
</g>
<!-- T7 -->
<g id="node3" class="node"><title>T7</title>
<ellipse fill="none" stroke="black" cx="45.8831" cy="-301.696" rx="27" ry="18"/>
<text text-anchor="middle" x="45.8831" y="-297.996" font-family="Times New Roman,serif" font-size="14.00">T7</text>
</g>
<!-- T8 -->
<g id="node10" class="node"><title>T8</title>
<ellipse fill="none" stroke="black" cx="45.8831" cy="-214.696" rx="27" ry="18"/>
<text text-anchor="middle" x="45.8831" y="-210.996" font-family="Times New Roman,serif" font-size="14.00">T8</text>
</g>
<!-- T7&#45;&gt;T8 -->
<g id="edge13" class="edge"><title>T7&#45;&gt;T8</title>
<path fill="none" stroke="black" d="M45.8831,-283.494C45.8831,-271.858 45.8831,-256.243 45.8831,-242.932"/>
<polygon fill="black" stroke="black" points="49.3832,-242.871 45.8831,-232.871 42.3832,-242.871 49.3832,-242.871"/>
<text text-anchor="middle" x="54.3831" y="-254.496" font-family="Times New Roman,serif" font-size="14.00">EP</text>
</g>
<!-- T6 -->
<g id="node12" class="node"><title>T6</title>
<ellipse fill="none" stroke="black" cx="45.8831" cy="-388.696" rx="27" ry="18"/>
<text text-anchor="middle" x="45.8831" y="-384.996" font-family="Times New Roman,serif" font-size="14.00">T6</text>
</g>
<!-- T7&#45;&gt;T6 -->
<g id="edge14" class="edge"><title>T7&#45;&gt;T6</title>
<path fill="none" stroke="black" d="M45.8831,-319.871C45.8831,-331.502 45.8831,-347.115 45.8831,-360.429"/>
<polygon fill="black" stroke="black" points="42.3832,-360.494 45.8831,-370.494 49.3832,-360.495 42.3832,-360.494"/>
<text text-anchor="middle" x="54.3831" y="-341.496" font-family="Times New Roman,serif" font-size="14.00">EP</text>
</g>
<!-- T3&#45;&gt;T2 -->
<g id="edge7" class="edge"><title>T3&#45;&gt;T2</title>
<path fill="none" stroke="black" d="M117.883,-319.871C117.883,-331.502 117.883,-347.115 117.883,-360.429"/>
<polygon fill="black" stroke="black" points="114.383,-360.494 117.883,-370.494 121.383,-360.495 114.383,-360.494"/>
<text text-anchor="middle" x="126.383" y="-341.496" font-family="Times New Roman,serif" font-size="14.00">EP</text>
</g>
<!-- T4 -->
<g id="node9" class="node"><title>T4</title>
<ellipse fill="none" stroke="black" cx="117.883" cy="-214.696" rx="27" ry="18"/>
<text text-anchor="middle" x="117.883" y="-210.996" font-family="Times New Roman,serif" font-size="14.00">T4</text>
</g>
<!-- T3&#45;&gt;T4 -->
<g id="edge8" class="edge"><title>T3&#45;&gt;T4</title>
<path fill="none" stroke="black" d="M117.883,-283.494C117.883,-271.858 117.883,-256.243 117.883,-242.932"/>
<polygon fill="black" stroke="black" points="121.383,-242.871 117.883,-232.871 114.383,-242.871 121.383,-242.871"/>
<text text-anchor="middle" x="126.383" y="-254.496" font-family="Times New Roman,serif" font-size="14.00">EP</text>
</g>
<!-- T5 -->
<g id="node5" class="node"><title>T5</title>
<ellipse fill="none" stroke="black" cx="45.8831" cy="-475.696" rx="27" ry="18"/>
<text text-anchor="middle" x="45.8831" y="-471.996" font-family="Times New Roman,serif" font-size="14.00">T5</text>
</g>
<!-- T5&#45;&gt;T8 -->
<g id="edge10" class="edge"><title>T5&#45;&gt;T8</title>
<path fill="none" stroke="black" d="M34.7875,-459.111C26.0891,-445.878 14.6809,-426.012 9.88313,-406.696 -3.29438,-353.641 -3.29438,-336.75 9.88313,-283.696 13.7438,-268.152 21.8849,-252.252 29.4501,-239.739"/>
<polygon fill="black" stroke="black" points="32.4114,-241.605 34.7875,-231.28 26.4913,-237.869 32.4114,-241.605"/>
<text text-anchor="middle" x="9.38313" y="-341.496" font-family="Times New Roman,serif" font-size="14.00">EP</text>
</g>
<!-- T5&#45;&gt;T6 -->
<g id="edge11" class="edge"><title>T5&#45;&gt;T6</title>
<path fill="none" stroke="black" d="M45.8831,-457.494C45.8831,-445.858 45.8831,-430.243 45.8831,-416.932"/>
<polygon fill="black" stroke="black" points="49.3832,-416.871 45.8831,-406.871 42.3832,-416.871 49.3832,-416.871"/>
<text text-anchor="middle" x="54.3831" y="-428.496" font-family="Times New Roman,serif" font-size="14.00">EP</text>
</g>
<!-- T1 -->
<g id="node6" class="node"><title>T1</title>
<ellipse fill="none" stroke="black" cx="117.883" cy="-475.696" rx="27" ry="18"/>
<text text-anchor="middle" x="117.883" y="-471.996" font-family="Times New Roman,serif" font-size="14.00">T1</text>
</g>
<!-- T1&#45;&gt;T2 -->
<g id="edge4" class="edge"><title>T1&#45;&gt;T2</title>
<path fill="none" stroke="black" d="M117.883,-457.494C117.883,-445.858 117.883,-430.243 117.883,-416.932"/>
<polygon fill="black" stroke="black" points="121.383,-416.871 117.883,-406.871 114.383,-416.871 121.383,-416.871"/>
<text text-anchor="middle" x="126.383" y="-428.496" font-family="Times New Roman,serif" font-size="14.00">EP</text>
</g>
<!-- T1&#45;&gt;T4 -->
<g id="edge5" class="edge"><title>T1&#45;&gt;T4</title>
<path fill="none" stroke="black" d="M129.285,-459.182C138.166,-445.992 149.67,-426.148 153.883,-406.696 165.456,-353.268 165.456,-337.123 153.883,-283.696 150.493,-268.043 142.381,-252.136 134.715,-239.646"/>
<polygon fill="black" stroke="black" points="137.64,-237.724 129.285,-231.209 131.753,-241.512 137.64,-237.724"/>
<text text-anchor="middle" x="170.383" y="-341.496" font-family="Times New Roman,serif" font-size="14.00">EP</text>
</g>
<!-- T9 -->
<g id="node7" class="node"><title>T9</title>
<ellipse fill="none" stroke="black" cx="85.8831" cy="-127.696" rx="27" ry="18"/>
<text text-anchor="middle" x="85.8831" y="-123.996" font-family="Times New Roman,serif" font-size="14.00">T9</text>
</g>
<!-- T10 -->
<g id="node11" class="node"><title>T10</title>
<ellipse fill="none" stroke="black" cx="85.8831" cy="-29.3478" rx="25.2169" ry="25.2169"/>
<ellipse fill="none" stroke="black" cx="85.8831" cy="-29.3478" rx="29.1963" ry="29.1963"/>
<text text-anchor="middle" x="85.8831" y="-25.6478" font-family="Times New Roman,serif" font-size="14.00">T10</text>
</g>
<!-- T9&#45;&gt;T10 -->
<g id="edge16" class="edge"><title>T9&#45;&gt;T10</title>
<path fill="none" stroke="black" d="M85.8831,-109.47C85.8831,-98.256 85.8831,-83.1612 85.8831,-69.1629"/>
<polygon fill="black" stroke="black" points="89.3832,-68.7544 85.8831,-58.7545 82.3832,-68.7545 89.3832,-68.7544"/>
<text text-anchor="middle" x="89.3831" y="-80.4955" font-family="Times New Roman,serif" font-size="14.00">c</text>
</g>
<!-- T0&#45;&gt;T5 -->
<g id="edge2" class="edge"><title>T0&#45;&gt;T5</title>
<path fill="none" stroke="black" d="M78.1707,-545.307C72.4157,-533.077 64.4445,-516.138 57.8624,-502.152"/>
<polygon fill="black" stroke="black" points="60.9968,-500.592 53.5719,-493.034 54.663,-503.573 60.9968,-500.592"/>
<text text-anchor="middle" x="76.3831" y="-515.496" font-family="Times New Roman,serif" font-size="14.00">EP</text>
</g>
<!-- T0&#45;&gt;T1 -->
<g id="edge3" class="edge"><title>T0&#45;&gt;T1</title>
<path fill="none" stroke="black" d="M92.2053,-544.902C96.7196,-532.911 102.88,-516.547 108.036,-502.853"/>
<polygon fill="black" stroke="black" points="111.326,-504.046 111.574,-493.454 104.775,-501.579 111.326,-504.046"/>
<text text-anchor="middle" x="112.383" y="-515.496" font-family="Times New Roman,serif" font-size="14.00">EP</text>
</g>
<!-- T4&#45;&gt;T9 -->
<g id="edge9" class="edge"><title>T4&#45;&gt;T9</title>
<path fill="none" stroke="black" d="M111.561,-196.902C107.047,-184.911 100.886,-168.547 95.7305,-154.853"/>
<polygon fill="black" stroke="black" points="98.9911,-153.579 92.1922,-145.454 92.44,-156.046 98.9911,-153.579"/>
<text text-anchor="middle" x="111.383" y="-167.496" font-family="Times New Roman,serif" font-size="14.00">EP</text>
</g>
<!-- T8&#45;&gt;T9 -->
<g id="edge15" class="edge"><title>T8&#45;&gt;T9</title>
<path fill="none" stroke="black" d="M53.5955,-197.307C59.3505,-185.077 67.3218,-168.138 73.9038,-154.152"/>
<polygon fill="black" stroke="black" points="77.1032,-155.573 78.1944,-145.034 70.7695,-152.592 77.1032,-155.573"/>
<text text-anchor="middle" x="77.3831" y="-167.496" font-family="Times New Roman,serif" font-size="14.00">EP</text>
</g>
<!-- T6&#45;&gt;T7 -->
<g id="edge12" class="edge"><title>T6&#45;&gt;T7</title>
<path fill="none" stroke="black" d="M38.995,-371.252C36.9191,-365.489 34.918,-358.905 33.8831,-352.696 32.5916,-344.947 33.606,-336.617 35.4936,-329.021"/>
<polygon fill="black" stroke="black" points="38.9066,-329.828 38.4742,-319.242 32.2107,-327.787 38.9066,-329.828"/>
<text text-anchor="middle" x="37.8831" y="-341.496" font-family="Times New Roman,serif" font-size="14.00">b</text>
</g>
</g>
</svg>
