<?xml version="1.0" encoding="UTF-8" standalone="no"?>
<!DOCTYPE svg PUBLIC "-//W3C//DTD SVG 1.1//EN"
 "http://www.w3.org/Graphics/SVG/1.1/DTD/svg11.dtd">
<!-- Generated by graphviz version 2.38.0 (20140413.2041)
 -->
<!-- Title: %3 Pages: 1 -->
<svg width="228pt" height="392pt"
 viewBox="0.00 0.00 228.00 391.60" xmlns="http://www.w3.org/2000/svg" xmlns:xlink="http://www.w3.org/1999/xlink">
<g id="graph0" class="graph" transform="scale(1 1) rotate(0) translate(4 387.596)">
<title>%3</title>
<polygon fill="white" stroke="none" points="-4,4 -4,-387.596 224,-387.596 224,4 -4,4"/>
<!-- fake0 -->
<g id="node1" class="node"><title>fake0</title>
</g>
<!-- T0 -->
<g id="node5" class="node"><title>T0</title>
<ellipse fill="none" stroke="black" cx="115" cy="-292.596" rx="27" ry="18"/>
<text text-anchor="middle" x="115" y="-288.896" font-family="Times New Roman,serif" font-size="14.00">T0</text>
</g>
<!-- fake0&#45;&gt;T0 -->
<g id="edge1" class="edge"><title>fake0&#45;&gt;T0</title>
<path fill="none" stroke="black" stroke-width="2" d="M115,-347.409C115,-339.386 115,-329.644 115,-320.665"/>
<polygon fill="black" stroke="black" stroke-width="2" points="118.5,-320.625 115,-310.625 111.5,-320.625 118.5,-320.625"/>
</g>
<!-- T4 -->
<g id="node2" class="node"><title>T4</title>
<ellipse fill="none" stroke="black" cx="109" cy="-18" rx="27" ry="18"/>
<text text-anchor="middle" x="109" y="-14.3" font-family="Times New Roman,serif" font-size="14.00">T4</text>
</g>
<!-- T4&#45;&gt;T4 -->
<g id="edge14" class="edge"><title>T4&#45;&gt;T4</title>
<path fill="none" stroke="black" d="M135.795,-20.6192C145.78,-20.7051 154,-19.832 154,-18 154,-16.855 150.789,-16.0846 145.943,-15.6887"/>
<polygon fill="black" stroke="black" points="145.896,-12.1858 135.795,-15.3808 145.684,-19.1826 145.896,-12.1858"/>
<text text-anchor="middle" x="157.5" y="-14.3" font-family="Times New Roman,serif" font-size="14.00">a</text>
</g>
<!-- T4&#45;&gt;T4 -->
<g id="edge15" class="edge"><title>T4&#45;&gt;T4</title>
<path fill="none" stroke="black" d="M135.214,-22.7113C153.696,-24.1915 172,-22.6211 172,-18 172,-14.2454 159.917,-12.5046 145.472,-12.7778"/>
<polygon fill="black" stroke="black" points="145.027,-9.2955 135.214,-13.2887 145.375,-16.2868 145.027,-9.2955"/>
<text text-anchor="middle" x="176" y="-14.3" font-family="Times New Roman,serif" font-size="14.00">b</text>
</g>
<!-- T4&#45;&gt;T4 -->
<g id="edge16" class="edge"><title>T4&#45;&gt;T4</title>
<path fill="none" stroke="black" d="M134.713,-24.1447C160.877,-27.7592 190,-25.7109 190,-18 190,-11.2831 167.902,-8.863 144.91,-10.7398"/>
<polygon fill="black" stroke="black" points="144.273,-7.28856 134.713,-11.8553 145.034,-14.2471 144.273,-7.28856"/>
<text text-anchor="middle" x="193.5" y="-14.3" font-family="Times New Roman,serif" font-size="14.00">c</text>
</g>
<!-- T3 -->
<g id="node3" class="node"><title>T3</title>
<ellipse fill="none" stroke="black" cx="109" cy="-111.798" rx="20.6302" ry="20.6302"/>
<ellipse fill="none" stroke="black" cx="109" cy="-111.798" rx="24.5979" ry="24.5979"/>
<text text-anchor="middle" x="109" y="-108.098" font-family="Times New Roman,serif" font-size="14.00">T3</text>
</g>
<!-- T3&#45;&gt;T4 -->
<g id="edge11" class="edge"><title>T3&#45;&gt;T4</title>
<path fill="none" stroke="black" d="M109,-86.6793C109,-74.2289 109,-58.9952 109,-46.1353"/>
<polygon fill="black" stroke="black" points="112.5,-46.0044 109,-36.0045 105.5,-46.0045 112.5,-46.0044"/>
<text text-anchor="middle" x="112.5" y="-57.8" font-family="Times New Roman,serif" font-size="14.00">a</text>
</g>
<!-- T3&#45;&gt;T4 -->
<g id="edge12" class="edge"><title>T3&#45;&gt;T4</title>
<path fill="none" stroke="black" d="M114.933,-87.622C116.876,-77.3396 118.25,-65.0828 117,-54 116.696,-51.3057 116.264,-48.5165 115.757,-45.7424"/>
<polygon fill="black" stroke="black" points="119.181,-45.0143 113.683,-35.9578 112.333,-46.4663 119.181,-45.0143"/>
<text text-anchor="middle" x="122" y="-57.8" font-family="Times New Roman,serif" font-size="14.00">b</text>
</g>
<!-- T3&#45;&gt;T4 -->
<g id="edge13" class="edge"><title>T3&#45;&gt;T4</title>
<path fill="none" stroke="black" d="M100.998,-88.2051C98.2548,-77.8188 96.2634,-65.3177 98,-54 98.4202,-51.2614 99.0152,-48.4428 99.7135,-45.6507"/>
<polygon fill="black" stroke="black" points="103.134,-46.4227 102.567,-35.8431 96.4127,-44.467 103.134,-46.4227"/>
<text text-anchor="middle" x="101.5" y="-57.8" font-family="Times New Roman,serif" font-size="14.00">c</text>
</g>
<!-- T1 -->
<g id="node4" class="node"><title>T1</title>
<ellipse fill="none" stroke="black" cx="27" cy="-205.596" rx="27" ry="18"/>
<text text-anchor="middle" x="27" y="-201.896" font-family="Times New Roman,serif" font-size="14.00">T1</text>
</g>
<!-- T1&#45;&gt;T4 -->
<g id="edge6" class="edge"><title>T1&#45;&gt;T4</title>
<path fill="none" stroke="black" d="M31.4261,-187.775C37.8317,-164.524 50.7219,-121.525 67,-87 74.1427,-71.8508 83.8869,-55.8702 92.1914,-43.21"/>
<polygon fill="black" stroke="black" points="95.2749,-44.8953 97.9263,-34.6376 89.4568,-41.0031 95.2749,-44.8953"/>
<text text-anchor="middle" x="71" y="-108.098" font-family="Times New Roman,serif" font-size="14.00">b</text>
</g>
<!-- T1&#45;&gt;T3 -->
<g id="edge7" class="edge"><title>T1&#45;&gt;T3</title>
<path fill="none" stroke="black" d="M40.1747,-189.847C52.469,-176.084 71.0835,-155.245 85.8552,-138.709"/>
<polygon fill="black" stroke="black" points="88.7019,-140.775 92.7535,-130.986 83.4814,-136.112 88.7019,-140.775"/>
<text text-anchor="middle" x="74.5" y="-158.396" font-family="Times New Roman,serif" font-size="14.00">c</text>
</g>
<!-- T1&#45;&gt;T1 -->
<g id="edge5" class="edge"><title>T1&#45;&gt;T1</title>
<path fill="none" stroke="black" d="M51.5325,-213.348C62.5078,-214.087 72,-211.503 72,-205.596 72,-201.628 67.7151,-199.16 61.5743,-198.191"/>
<polygon fill="black" stroke="black" points="61.6472,-194.691 51.5325,-197.844 61.4059,-201.687 61.6472,-194.691"/>
<text text-anchor="middle" x="75.5" y="-201.896" font-family="Times New Roman,serif" font-size="14.00">a</text>
</g>
<!-- T0&#45;&gt;T3 -->
<g id="edge4" class="edge"><title>T0&#45;&gt;T3</title>
<path fill="none" stroke="black" d="M114.425,-274.452C113.441,-245.131 111.417,-184.837 110.139,-146.744"/>
<polygon fill="black" stroke="black" points="113.633,-146.509 109.8,-136.632 106.637,-146.744 113.633,-146.509"/>
<text text-anchor="middle" x="116.5" y="-201.896" font-family="Times New Roman,serif" font-size="14.00">c</text>
</g>
<!-- T0&#45;&gt;T1 -->
<g id="edge2" class="edge"><title>T0&#45;&gt;T1</title>
<path fill="none" stroke="black" d="M100.072,-277.177C86.0812,-263.663 64.9922,-243.293 49.0606,-227.905"/>
<polygon fill="black" stroke="black" points="51.3318,-225.232 41.7075,-220.802 46.4686,-230.267 51.3318,-225.232"/>
<text text-anchor="middle" x="80.5" y="-245.396" font-family="Times New Roman,serif" font-size="14.00">a</text>
</g>
<!-- T2 -->
<g id="node6" class="node"><title>T2</title>
<ellipse fill="none" stroke="black" cx="167" cy="-205.596" rx="27" ry="18"/>
<text text-anchor="middle" x="167" y="-201.896" font-family="Times New Roman,serif" font-size="14.00">T2</text>
</g>
<!-- T0&#45;&gt;T2 -->
<g id="edge3" class="edge"><title>T0&#45;&gt;T2</title>
<path fill="none" stroke="black" d="M124.781,-275.608C132.407,-263.142 143.133,-245.61 151.865,-231.336"/>
<polygon fill="black" stroke="black" points="155.03,-232.869 157.263,-222.512 149.059,-229.216 155.03,-232.869"/>
<text text-anchor="middle" x="150" y="-245.396" font-family="Times New Roman,serif" font-size="14.00">b</text>
</g>
<!-- T2&#45;&gt;T4 -->
<g id="edge8" class="edge"><title>T2&#45;&gt;T4</title>
<path fill="none" stroke="black" d="M165.235,-187.515C161.739,-158.7 152.254,-99.1603 130,-54 128.303,-50.5556 126.383,-47.0013 124.411,-43.5378"/>
<polygon fill="black" stroke="black" points="127.295,-41.5392 119.187,-34.72 121.273,-45.1074 127.295,-41.5392"/>
<text text-anchor="middle" x="160.5" y="-108.098" font-family="Times New Roman,serif" font-size="14.00">a</text>
</g>
<!-- T2&#45;&gt;T3 -->
<g id="edge10" class="edge"><title>T2&#45;&gt;T3</title>
<path fill="none" stroke="black" d="M156.897,-188.606C148.758,-175.724 137.101,-157.274 127.325,-141.801"/>
<polygon fill="black" stroke="black" points="130.127,-139.684 121.827,-133.1 124.21,-143.423 130.127,-139.684"/>
<text text-anchor="middle" x="147.5" y="-158.396" font-family="Times New Roman,serif" font-size="14.00">c</text>
</g>
<!-- T2&#45;&gt;T2 -->
<g id="edge9" class="edge"><title>T2&#45;&gt;T2</title>
<path fill="none" stroke="black" d="M191.532,-213.348C202.508,-214.087 212,-211.503 212,-205.596 212,-201.628 207.715,-199.16 201.574,-198.191"/>
<polygon fill="black" stroke="black" points="201.647,-194.691 191.532,-197.844 201.406,-201.687 201.647,-194.691"/>
<text text-anchor="middle" x="216" y="-201.896" font-family="Times New Roman,serif" font-size="14.00">b</text>
</g>
</g>
</svg>
