<?xml version="1.0" encoding="UTF-8" standalone="no"?>
<!DOCTYPE svg PUBLIC "-//W3C//DTD SVG 1.1//EN"
 "http://www.w3.org/Graphics/SVG/1.1/DTD/svg11.dtd">
<!-- Generated by graphviz version 2.38.0 (20140413.2041)
 -->
<!-- Title: %3 Pages: 1 -->
<svg width="192pt" height="662pt"
 viewBox="0.00 0.00 192.35 661.70" xmlns="http://www.w3.org/2000/svg" xmlns:xlink="http://www.w3.org/1999/xlink">
<g id="graph0" class="graph" transform="scale(1 1) rotate(0) translate(4 657.696)">
<title>%3</title>
<polygon fill="white" stroke="none" points="-4,4 -4,-657.696 188.353,-657.696 188.353,4 -4,4"/>
<!-- fake0 -->
<g id="node1" class="node"><title>fake0</title>
</g>
<!-- T0 -->
<g id="node10" class="node"><title>T0</title>
<ellipse fill="none" stroke="black" cx="78.3529" cy="-562.696" rx="27" ry="18"/>
<text text-anchor="middle" x="78.3529" y="-558.996" font-family="Times New Roman,serif" font-size="14.00">T0</text>
</g>
<!-- fake0&#45;&gt;T0 -->
<g id="edge1" class="edge"><title>fake0&#45;&gt;T0</title>
<path fill="none" stroke="black" stroke-width="2" d="M78.3529,-617.508C78.3529,-609.485 78.3529,-599.743 78.3529,-590.765"/>
<polygon fill="black" stroke="black" stroke-width="2" points="81.853,-590.724 78.3529,-580.724 74.853,-590.724 81.853,-590.724"/>
</g>
<!-- T4 -->
<g id="node2" class="node"><title>T4</title>
<ellipse fill="none" stroke="black" cx="37.3529" cy="-214.696" rx="27" ry="18"/>
<text text-anchor="middle" x="37.3529" y="-210.996" font-family="Times New Roman,serif" font-size="14.00">T4</text>
</g>
<!-- T9 -->
<g id="node6" class="node"><title>T9</title>
<ellipse fill="none" stroke="black" cx="77.3529" cy="-127.696" rx="27" ry="18"/>
<text text-anchor="middle" x="77.3529" y="-123.996" font-family="Times New Roman,serif" font-size="14.00">T9</text>
</g>
<!-- T4&#45;&gt;T9 -->
<g id="edge9" class="edge"><title>T4&#45;&gt;T9</title>
<path fill="none" stroke="black" d="M45.0653,-197.307C50.8204,-185.077 58.7916,-168.138 65.3736,-154.152"/>
<polygon fill="black" stroke="black" points="68.5731,-155.573 69.6642,-145.034 62.2393,-152.592 68.5731,-155.573"/>
<text text-anchor="middle" x="68.8529" y="-167.496" font-family="Times New Roman,serif" font-size="14.00">EP</text>
</g>
<!-- T3 -->
<g id="node3" class="node"><title>T3</title>
<ellipse fill="none" stroke="black" cx="44.3529" cy="-301.696" rx="27" ry="18"/>
<text text-anchor="middle" x="44.3529" y="-297.996" font-family="Times New Roman,serif" font-size="14.00">T3</text>
</g>
<!-- T3&#45;&gt;T4 -->
<g id="edge7" class="edge"><title>T3&#45;&gt;T4</title>
<path fill="none" stroke="black" d="M42.9364,-283.494C41.9781,-271.858 40.6922,-256.243 39.596,-242.932"/>
<polygon fill="black" stroke="black" points="43.0764,-242.55 38.7674,-232.871 36.1,-243.124 43.0764,-242.55"/>
<text text-anchor="middle" x="48.8529" y="-254.496" font-family="Times New Roman,serif" font-size="14.00">EP</text>
</g>
<!-- T2 -->
<g id="node11" class="node"><title>T2</title>
<ellipse fill="none" stroke="black" cx="44.3529" cy="-388.696" rx="27" ry="18"/>
<text text-anchor="middle" x="44.3529" y="-384.996" font-family="Times New Roman,serif" font-size="14.00">T2</text>
</g>
<!-- T3&#45;&gt;T2 -->
<g id="edge8" class="edge"><title>T3&#45;&gt;T2</title>
<path fill="none" stroke="black" d="M44.3529,-319.871C44.3529,-331.502 44.3529,-347.115 44.3529,-360.429"/>
<polygon fill="black" stroke="black" points="40.853,-360.494 44.3529,-370.494 47.853,-360.495 40.853,-360.494"/>
<text text-anchor="middle" x="52.8529" y="-341.496" font-family="Times New Roman,serif" font-size="14.00">EP</text>
</g>
<!-- T8 -->
<g id="node4" class="node"><title>T8</title>
<ellipse fill="none" stroke="black" cx="109.353" cy="-214.696" rx="27" ry="18"/>
<text text-anchor="middle" x="109.353" y="-210.996" font-family="Times New Roman,serif" font-size="14.00">T8</text>
</g>
<!-- T8&#45;&gt;T9 -->
<g id="edge15" class="edge"><title>T8&#45;&gt;T9</title>
<path fill="none" stroke="black" d="M103.031,-196.902C98.5164,-184.911 92.3557,-168.547 87.2003,-154.853"/>
<polygon fill="black" stroke="black" points="90.4609,-153.579 83.662,-145.454 83.9098,-156.046 90.4609,-153.579"/>
<text text-anchor="middle" x="102.853" y="-167.496" font-family="Times New Roman,serif" font-size="14.00">EP</text>
</g>
<!-- T7 -->
<g id="node5" class="node"><title>T7</title>
<ellipse fill="none" stroke="black" cx="157.353" cy="-301.696" rx="27" ry="18"/>
<text text-anchor="middle" x="157.353" y="-297.996" font-family="Times New Roman,serif" font-size="14.00">T7</text>
</g>
<!-- T7&#45;&gt;T8 -->
<g id="edge13" class="edge"><title>T7&#45;&gt;T8</title>
<path fill="none" stroke="black" d="M148.325,-284.708C141.329,-272.321 131.509,-254.93 123.477,-240.706"/>
<polygon fill="black" stroke="black" points="126.469,-238.887 118.504,-231.901 120.374,-242.329 126.469,-238.887"/>
<text text-anchor="middle" x="143.853" y="-254.496" font-family="Times New Roman,serif" font-size="14.00">EP</text>
</g>
<!-- T6 -->
<g id="node12" class="node"><title>T6</title>
<ellipse fill="none" stroke="black" cx="157.353" cy="-388.696" rx="27" ry="18"/>
<text text-anchor="middle" x="157.353" y="-384.996" font-family="Times New Roman,serif" font-size="14.00">T6</text>
</g>
<!-- T7&#45;&gt;T6 -->
<g id="edge14" class="edge"><title>T7&#45;&gt;T6</title>
<path fill="none" stroke="black" d="M157.986,-319.819C158.269,-329.474 158.509,-341.757 158.353,-352.696 158.316,-355.248 158.265,-357.906 158.205,-360.564"/>
<polygon fill="black" stroke="black" points="154.705,-360.519 157.939,-370.608 161.702,-360.704 154.705,-360.519"/>
<text text-anchor="middle" x="166.853" y="-341.496" font-family="Times New Roman,serif" font-size="14.00">EP</text>
</g>
<!-- T10 -->
<g id="node8" class="node"><title>T10</title>
<ellipse fill="none" stroke="black" cx="77.3529" cy="-29.3478" rx="25.2169" ry="25.2169"/>
<ellipse fill="none" stroke="black" cx="77.3529" cy="-29.3478" rx="29.1963" ry="29.1963"/>
<text text-anchor="middle" x="77.3529" y="-25.6478" font-family="Times New Roman,serif" font-size="14.00">T10</text>
</g>
<!-- T9&#45;&gt;T10 -->
<g id="edge16" class="edge"><title>T9&#45;&gt;T10</title>
<path fill="none" stroke="black" d="M77.3529,-109.47C77.3529,-98.256 77.3529,-83.1612 77.3529,-69.1629"/>
<polygon fill="black" stroke="black" points="80.853,-68.7544 77.3529,-58.7545 73.853,-68.7545 80.853,-68.7544"/>
<text text-anchor="middle" x="80.8529" y="-80.4955" font-family="Times New Roman,serif" font-size="14.00">c</text>
</g>
<!-- T1 -->
<g id="node7" class="node"><title>T1</title>
<ellipse fill="none" stroke="black" cx="38.3529" cy="-475.696" rx="27" ry="18"/>
<text text-anchor="middle" x="38.3529" y="-471.996" font-family="Times New Roman,serif" font-size="14.00">T1</text>
</g>
<!-- T1&#45;&gt;T4 -->
<g id="edge4" class="edge"><title>T1&#45;&gt;T4</title>
<path fill="none" stroke="black" d="M28.9431,-458.577C21.7032,-445.19 12.2918,-425.382 8.35294,-406.696 -2.92233,-353.204 -2.5911,-337.255 8.35294,-283.696 11.3535,-269.011 17.6513,-253.573 23.6137,-241.125"/>
<polygon fill="black" stroke="black" points="26.9077,-242.364 28.2541,-231.855 20.6481,-239.231 26.9077,-242.364"/>
<text text-anchor="middle" x="8.85294" y="-341.496" font-family="Times New Roman,serif" font-size="14.00">EP</text>
</g>
<!-- T1&#45;&gt;T2 -->
<g id="edge5" class="edge"><title>T1&#45;&gt;T2</title>
<path fill="none" stroke="black" d="M39.5671,-457.494C40.3885,-445.858 41.4907,-430.243 42.4303,-416.932"/>
<polygon fill="black" stroke="black" points="45.9276,-417.093 43.1406,-406.871 38.945,-416.6 45.9276,-417.093"/>
<text text-anchor="middle" x="49.8529" y="-428.496" font-family="Times New Roman,serif" font-size="14.00">EP</text>
</g>
<!-- T5 -->
<g id="node9" class="node"><title>T5</title>
<ellipse fill="none" stroke="black" cx="110.353" cy="-475.696" rx="27" ry="18"/>
<text text-anchor="middle" x="110.353" y="-471.996" font-family="Times New Roman,serif" font-size="14.00">T5</text>
</g>
<!-- T5&#45;&gt;T8 -->
<g id="edge10" class="edge"><title>T5&#45;&gt;T8</title>
<path fill="none" stroke="black" d="M110.286,-457.3C110.115,-413.158 109.665,-296.524 109.459,-243.111"/>
<polygon fill="black" stroke="black" points="112.958,-243.002 109.42,-233.016 105.959,-243.029 112.958,-243.002"/>
<text text-anchor="middle" x="117.853" y="-341.496" font-family="Times New Roman,serif" font-size="14.00">EP</text>
</g>
<!-- T5&#45;&gt;T6 -->
<g id="edge11" class="edge"><title>T5&#45;&gt;T6</title>
<path fill="none" stroke="black" d="M119.415,-458.307C126.221,-445.999 135.664,-428.921 143.426,-414.883"/>
<polygon fill="black" stroke="black" points="146.702,-416.191 148.478,-405.746 140.576,-412.803 146.702,-416.191"/>
<text text-anchor="middle" x="145.853" y="-428.496" font-family="Times New Roman,serif" font-size="14.00">EP</text>
</g>
<!-- T0&#45;&gt;T1 -->
<g id="edge3" class="edge"><title>T0&#45;&gt;T1</title>
<path fill="none" stroke="black" d="M70.6405,-545.307C64.8855,-533.077 56.9143,-516.138 50.3322,-502.152"/>
<polygon fill="black" stroke="black" points="53.4666,-500.592 46.0417,-493.034 47.1328,-503.573 53.4666,-500.592"/>
<text text-anchor="middle" x="68.8529" y="-515.496" font-family="Times New Roman,serif" font-size="14.00">EP</text>
</g>
<!-- T0&#45;&gt;T5 -->
<g id="edge2" class="edge"><title>T0&#45;&gt;T5</title>
<path fill="none" stroke="black" d="M84.6751,-544.902C89.1894,-532.911 95.3502,-516.547 100.506,-502.853"/>
<polygon fill="black" stroke="black" points="103.796,-504.046 104.044,-493.454 97.245,-501.579 103.796,-504.046"/>
<text text-anchor="middle" x="104.853" y="-515.496" font-family="Times New Roman,serif" font-size="14.00">EP</text>
</g>
<!-- T2&#45;&gt;T3 -->
<g id="edge6" class="edge"><title>T2&#45;&gt;T3</title>
<path fill="none" stroke="black" d="M37.5588,-371.129C34.3774,-361.441 31.6274,-348.941 33.3529,-337.696 33.7732,-334.957 34.3682,-332.138 35.0665,-329.346"/>
<polygon fill="black" stroke="black" points="38.4869,-330.118 37.9202,-319.539 31.7657,-328.163 38.4869,-330.118"/>
<text text-anchor="middle" x="36.8529" y="-341.496" font-family="Times New Roman,serif" font-size="14.00">a</text>
</g>
<!-- T6&#45;&gt;T7 -->
<g id="edge12" class="edge"><title>T6&#45;&gt;T7</title>
<path fill="none" stroke="black" d="M153.839,-370.68C152.824,-364.989 151.855,-358.593 151.353,-352.696 150.718,-345.235 151.179,-337.17 152.075,-329.741"/>
<polygon fill="black" stroke="black" points="155.545,-330.197 153.56,-319.79 148.622,-329.164 155.545,-330.197"/>
<text text-anchor="middle" x="155.353" y="-341.496" font-family="Times New Roman,serif" font-size="14.00">b</text>
</g>
</g>
</svg>
