<?xml version="1.0" encoding="UTF-8" standalone="no"?>
<!DOCTYPE svg PUBLIC "-//W3C//DTD SVG 1.1//EN"
 "http://www.w3.org/Graphics/SVG/1.1/DTD/svg11.dtd">
<!-- Generated by graphviz version 2.38.0 (20140413.2041)
 -->
<!-- Title: %3 Pages: 1 -->
<svg width="141pt" height="1010pt"
 viewBox="0.00 0.00 141.00 1009.70" xmlns="http://www.w3.org/2000/svg" xmlns:xlink="http://www.w3.org/1999/xlink">
<g id="graph0" class="graph" transform="scale(1 1) rotate(0) translate(4 1005.7)">
<title>%3</title>
<polygon fill="white" stroke="none" points="-4,4 -4,-1005.7 137,-1005.7 137,4 -4,4"/>
<!-- fake0 -->
<g id="node1" class="node"><title>fake0</title>
</g>
<!-- T0 -->
<g id="node4" class="node"><title>T0</title>
<ellipse fill="none" stroke="black" cx="63" cy="-910.696" rx="27" ry="18"/>
<text text-anchor="middle" x="63" y="-906.996" font-family="Times New Roman,serif" font-size="14.00">T0</text>
</g>
<!-- fake0&#45;&gt;T0 -->
<g id="edge1" class="edge"><title>fake0&#45;&gt;T0</title>
<path fill="none" stroke="black" stroke-width="2" d="M63,-965.508C63,-957.485 63,-947.743 63,-938.765"/>
<polygon fill="black" stroke="black" stroke-width="2" points="66.5001,-938.724 63,-928.724 59.5001,-938.724 66.5001,-938.724"/>
</g>
<!-- T12 -->
<g id="node2" class="node"><title>T12</title>
<ellipse fill="none" stroke="black" cx="73" cy="-29.3478" rx="25.2169" ry="25.2169"/>
<ellipse fill="none" stroke="black" cx="73" cy="-29.3478" rx="29.1963" ry="29.1963"/>
<text text-anchor="middle" x="73" y="-25.6478" font-family="Times New Roman,serif" font-size="14.00">T12</text>
</g>
<!-- T11 -->
<g id="node3" class="node"><title>T11</title>
<ellipse fill="none" stroke="black" cx="106" cy="-127.696" rx="27" ry="18"/>
<text text-anchor="middle" x="106" y="-123.996" font-family="Times New Roman,serif" font-size="14.00">T11</text>
</g>
<!-- T11&#45;&gt;T12 -->
<g id="edge16" class="edge"><title>T11&#45;&gt;T12</title>
<path fill="none" stroke="black" d="M100.252,-109.913C96.2308,-98.1731 90.7009,-82.0277 85.6728,-67.3475"/>
<polygon fill="black" stroke="black" points="88.8482,-65.8169 82.2967,-57.4905 82.2258,-68.0851 88.8482,-65.8169"/>
<text text-anchor="middle" x="101.5" y="-80.4955" font-family="Times New Roman,serif" font-size="14.00">EP</text>
</g>
<!-- T1 -->
<g id="node9" class="node"><title>T1</title>
<ellipse fill="none" stroke="black" cx="27" cy="-823.696" rx="27" ry="18"/>
<text text-anchor="middle" x="27" y="-819.996" font-family="Times New Roman,serif" font-size="14.00">T1</text>
</g>
<!-- T0&#45;&gt;T1 -->
<g id="edge2" class="edge"><title>T0&#45;&gt;T1</title>
<path fill="none" stroke="black" d="M55.8876,-892.902C50.776,-880.833 43.788,-864.334 37.9654,-850.586"/>
<polygon fill="black" stroke="black" points="41.098,-849.008 33.9752,-841.165 34.6523,-851.738 41.098,-849.008"/>
<text text-anchor="middle" x="56.5" y="-863.496" font-family="Times New Roman,serif" font-size="14.00">EP</text>
</g>
<!-- T3 -->
<g id="node11" class="node"><title>T3</title>
<ellipse fill="none" stroke="black" cx="99" cy="-823.696" rx="27" ry="18"/>
<text text-anchor="middle" x="99" y="-819.996" font-family="Times New Roman,serif" font-size="14.00">T3</text>
</g>
<!-- T0&#45;&gt;T3 -->
<g id="edge3" class="edge"><title>T0&#45;&gt;T3</title>
<path fill="none" stroke="black" d="M70.1124,-892.902C75.224,-880.833 82.212,-864.334 88.0346,-850.586"/>
<polygon fill="black" stroke="black" points="91.3477,-851.738 92.0248,-841.165 84.902,-849.008 91.3477,-851.738"/>
<text text-anchor="middle" x="92.5" y="-863.496" font-family="Times New Roman,serif" font-size="14.00">EP</text>
</g>
<!-- T8 -->
<g id="node5" class="node"><title>T8</title>
<ellipse fill="none" stroke="black" cx="67" cy="-388.696" rx="27" ry="18"/>
<text text-anchor="middle" x="67" y="-384.996" font-family="Times New Roman,serif" font-size="14.00">T8</text>
</g>
<!-- T9 -->
<g id="node7" class="node"><title>T9</title>
<ellipse fill="none" stroke="black" cx="67" cy="-301.696" rx="27" ry="18"/>
<text text-anchor="middle" x="67" y="-297.996" font-family="Times New Roman,serif" font-size="14.00">T9</text>
</g>
<!-- T8&#45;&gt;T9 -->
<g id="edge12" class="edge"><title>T8&#45;&gt;T9</title>
<path fill="none" stroke="black" d="M67,-370.494C67,-358.858 67,-343.243 67,-329.932"/>
<polygon fill="black" stroke="black" points="70.5001,-329.871 67,-319.871 63.5001,-329.871 70.5001,-329.871"/>
<text text-anchor="middle" x="75.5" y="-341.496" font-family="Times New Roman,serif" font-size="14.00">EP</text>
</g>
<!-- T7 -->
<g id="node13" class="node"><title>T7</title>
<ellipse fill="none" stroke="black" cx="67" cy="-475.696" rx="27" ry="18"/>
<text text-anchor="middle" x="67" y="-471.996" font-family="Times New Roman,serif" font-size="14.00">T7</text>
</g>
<!-- T8&#45;&gt;T7 -->
<g id="edge11" class="edge"><title>T8&#45;&gt;T7</title>
<path fill="none" stroke="black" d="M67,-406.871C67,-418.502 67,-434.115 67,-447.429"/>
<polygon fill="black" stroke="black" points="63.5001,-447.494 67,-457.494 70.5001,-447.495 63.5001,-447.494"/>
<text text-anchor="middle" x="75.5" y="-428.496" font-family="Times New Roman,serif" font-size="14.00">EP</text>
</g>
<!-- T5 -->
<g id="node6" class="node"><title>T5</title>
<ellipse fill="none" stroke="black" cx="67" cy="-649.696" rx="27" ry="18"/>
<text text-anchor="middle" x="67" y="-645.996" font-family="Times New Roman,serif" font-size="14.00">T5</text>
</g>
<!-- T6 -->
<g id="node14" class="node"><title>T6</title>
<ellipse fill="none" stroke="black" cx="67" cy="-562.696" rx="27" ry="18"/>
<text text-anchor="middle" x="67" y="-558.996" font-family="Times New Roman,serif" font-size="14.00">T6</text>
</g>
<!-- T5&#45;&gt;T6 -->
<g id="edge8" class="edge"><title>T5&#45;&gt;T6</title>
<path fill="none" stroke="black" d="M67,-631.494C67,-619.858 67,-604.243 67,-590.932"/>
<polygon fill="black" stroke="black" points="70.5001,-590.871 67,-580.871 63.5001,-590.871 70.5001,-590.871"/>
<text text-anchor="middle" x="71" y="-602.496" font-family="Times New Roman,serif" font-size="14.00">b</text>
</g>
<!-- T9&#45;&gt;T12 -->
<g id="edge13" class="edge"><title>T9&#45;&gt;T12</title>
<path fill="none" stroke="black" d="M67.1422,-283.572C67.448,-250.141 68.2837,-173.845 70,-109.696 70.3514,-96.5609 70.857,-82.2077 71.3533,-69.3639"/>
<polygon fill="black" stroke="black" points="74.8655,-69.1209 71.7643,-58.9901 67.871,-68.8437 74.8655,-69.1209"/>
<text text-anchor="middle" x="76.5" y="-167.496" font-family="Times New Roman,serif" font-size="14.00">EP</text>
</g>
<!-- T10 -->
<g id="node10" class="node"><title>T10</title>
<ellipse fill="none" stroke="black" cx="106" cy="-214.696" rx="27" ry="18"/>
<text text-anchor="middle" x="106" y="-210.996" font-family="Times New Roman,serif" font-size="14.00">T10</text>
</g>
<!-- T9&#45;&gt;T10 -->
<g id="edge14" class="edge"><title>T9&#45;&gt;T10</title>
<path fill="none" stroke="black" d="M74.5196,-284.307C80.1307,-272.077 87.9027,-255.138 94.3202,-241.152"/>
<polygon fill="black" stroke="black" points="97.5143,-242.583 98.5035,-232.034 91.1521,-239.663 97.5143,-242.583"/>
<text text-anchor="middle" x="97.5" y="-254.496" font-family="Times New Roman,serif" font-size="14.00">EP</text>
</g>
<!-- T2 -->
<g id="node8" class="node"><title>T2</title>
<ellipse fill="none" stroke="black" cx="27" cy="-736.696" rx="27" ry="18"/>
<text text-anchor="middle" x="27" y="-732.996" font-family="Times New Roman,serif" font-size="14.00">T2</text>
</g>
<!-- T2&#45;&gt;T5 -->
<g id="edge5" class="edge"><title>T2&#45;&gt;T5</title>
<path fill="none" stroke="black" d="M34.7124,-719.307C40.4674,-707.077 48.4386,-690.138 55.0207,-676.152"/>
<polygon fill="black" stroke="black" points="58.2201,-677.573 59.3113,-667.034 51.8864,-674.592 58.2201,-677.573"/>
<text text-anchor="middle" x="59.5" y="-689.496" font-family="Times New Roman,serif" font-size="14.00">EP</text>
</g>
<!-- T1&#45;&gt;T2 -->
<g id="edge4" class="edge"><title>T1&#45;&gt;T2</title>
<path fill="none" stroke="black" d="M27,-805.494C27,-793.858 27,-778.243 27,-764.932"/>
<polygon fill="black" stroke="black" points="30.5001,-764.871 27,-754.871 23.5001,-764.871 30.5001,-764.871"/>
<text text-anchor="middle" x="30.5" y="-776.496" font-family="Times New Roman,serif" font-size="14.00">a</text>
</g>
<!-- T10&#45;&gt;T11 -->
<g id="edge15" class="edge"><title>T10&#45;&gt;T11</title>
<path fill="none" stroke="black" d="M106,-196.494C106,-184.858 106,-169.243 106,-155.932"/>
<polygon fill="black" stroke="black" points="109.5,-155.871 106,-145.871 102.5,-155.871 109.5,-155.871"/>
<text text-anchor="middle" x="109.5" y="-167.496" font-family="Times New Roman,serif" font-size="14.00">c</text>
</g>
<!-- T4 -->
<g id="node12" class="node"><title>T4</title>
<ellipse fill="none" stroke="black" cx="99" cy="-736.696" rx="27" ry="18"/>
<text text-anchor="middle" x="99" y="-732.996" font-family="Times New Roman,serif" font-size="14.00">T4</text>
</g>
<!-- T3&#45;&gt;T4 -->
<g id="edge6" class="edge"><title>T3&#45;&gt;T4</title>
<path fill="none" stroke="black" d="M99,-805.494C99,-793.858 99,-778.243 99,-764.932"/>
<polygon fill="black" stroke="black" points="102.5,-764.871 99,-754.871 95.5001,-764.871 102.5,-764.871"/>
<text text-anchor="middle" x="107.5" y="-776.496" font-family="Times New Roman,serif" font-size="14.00">EP</text>
</g>
<!-- T4&#45;&gt;T5 -->
<g id="edge7" class="edge"><title>T4&#45;&gt;T5</title>
<path fill="none" stroke="black" d="M92.6778,-718.902C88.1635,-706.911 82.0028,-690.547 76.8474,-676.853"/>
<polygon fill="black" stroke="black" points="80.108,-675.579 73.309,-667.454 73.5568,-678.046 80.108,-675.579"/>
<text text-anchor="middle" x="92.5" y="-689.496" font-family="Times New Roman,serif" font-size="14.00">EP</text>
</g>
<!-- T7&#45;&gt;T8 -->
<g id="edge10" class="edge"><title>T7&#45;&gt;T8</title>
<path fill="none" stroke="black" d="M59.5911,-458.149C56.1215,-448.467 53.1215,-435.967 55,-424.696 55.4851,-421.785 56.1825,-418.792 57.0004,-415.84"/>
<polygon fill="black" stroke="black" points="60.3903,-416.73 60.1119,-406.139 53.7248,-414.592 60.3903,-416.73"/>
<text text-anchor="middle" x="58.5" y="-428.496" font-family="Times New Roman,serif" font-size="14.00">a</text>
</g>
<!-- T6&#45;&gt;T7 -->
<g id="edge9" class="edge"><title>T6&#45;&gt;T7</title>
<path fill="none" stroke="black" d="M67,-544.494C67,-532.858 67,-517.243 67,-503.932"/>
<polygon fill="black" stroke="black" points="70.5001,-503.871 67,-493.871 63.5001,-503.871 70.5001,-503.871"/>
<text text-anchor="middle" x="75.5" y="-515.496" font-family="Times New Roman,serif" font-size="14.00">EP</text>
</g>
</g>
</svg>
