<?xml version="1.0" encoding="UTF-8" standalone="no"?>
<!DOCTYPE svg PUBLIC "-//W3C//DTD SVG 1.1//EN"
 "http://www.w3.org/Graphics/SVG/1.1/DTD/svg11.dtd">
<!-- Generated by graphviz version 2.38.0 (20140413.2041)
 -->
<!-- Title: %3 Pages: 1 -->
<svg width="284pt" height="579pt"
 viewBox="0.00 0.00 284.00 579.19" xmlns="http://www.w3.org/2000/svg" xmlns:xlink="http://www.w3.org/1999/xlink">
<g id="graph0" class="graph" transform="scale(1 1) rotate(0) translate(4 575.193)">
<title>%3</title>
<polygon fill="white" stroke="none" points="-4,4 -4,-575.193 280,-575.193 280,4 -4,4"/>
<!-- fake0 -->
<g id="node1" class="node"><title>fake0</title>
</g>
<!-- T0 -->
<g id="node3" class="node"><title>T0</title>
<ellipse fill="none" stroke="black" cx="124" cy="-480.193" rx="27" ry="18"/>
<text text-anchor="middle" x="124" y="-476.493" font-family="Times New Roman,serif" font-size="14.00">T0</text>
</g>
<!-- fake0&#45;&gt;T0 -->
<g id="edge1" class="edge"><title>fake0&#45;&gt;T0</title>
<path fill="none" stroke="black" stroke-width="2" d="M124,-535.005C124,-526.982 124,-517.24 124,-508.262"/>
<polygon fill="black" stroke="black" stroke-width="2" points="127.5,-508.221 124,-498.221 120.5,-508.221 127.5,-508.221"/>
</g>
<!-- T1 -->
<g id="node2" class="node"><title>T1</title>
<ellipse fill="none" stroke="black" cx="47" cy="-393.193" rx="27" ry="18"/>
<text text-anchor="middle" x="47" y="-389.493" font-family="Times New Roman,serif" font-size="14.00">T1</text>
</g>
<!-- T2 -->
<g id="node6" class="node"><title>T2</title>
<ellipse fill="none" stroke="black" cx="124" cy="-306.193" rx="27" ry="18"/>
<text text-anchor="middle" x="124" y="-302.493" font-family="Times New Roman,serif" font-size="14.00">T2</text>
</g>
<!-- T1&#45;&gt;T2 -->
<g id="edge7" class="edge"><title>T1&#45;&gt;T2</title>
<path fill="none" stroke="black" d="M60.4124,-377.387C72.374,-364.182 90.0582,-344.661 103.743,-329.554"/>
<polygon fill="black" stroke="black" points="106.363,-331.875 110.483,-322.114 101.175,-327.175 106.363,-331.875"/>
<text text-anchor="middle" x="97" y="-345.993" font-family="Times New Roman,serif" font-size="14.00">b</text>
</g>
<!-- T3 -->
<g id="node7" class="node"><title>T3</title>
<ellipse fill="none" stroke="black" cx="148" cy="-18" rx="27" ry="18"/>
<text text-anchor="middle" x="148" y="-14.3" font-family="Times New Roman,serif" font-size="14.00">T3</text>
</g>
<!-- T1&#45;&gt;T3 -->
<g id="edge5" class="edge"><title>T1&#45;&gt;T3</title>
<path fill="none" stroke="black" d="M32.8985,-377.572C19.0543,-361.623 0,-334.679 0,-307.193 0,-307.193 0,-307.193 0,-110.798 0,-82.4545 7.18316,-72.0939 29,-54 52.1641,-34.7887 85.4991,-26.1221 110.998,-22.2125"/>
<polygon fill="black" stroke="black" points="111.604,-25.6625 121.044,-20.8523 110.665,-18.7258 111.604,-25.6625"/>
<text text-anchor="middle" x="3.5" y="-208.694" font-family="Times New Roman,serif" font-size="14.00">a</text>
</g>
<!-- T1&#45;&gt;T3 -->
<g id="edge6" class="edge"><title>T1&#45;&gt;T3</title>
<path fill="none" stroke="black" d="M45.7124,-374.947C44.543,-357.783 43,-330.682 43,-307.193 43,-307.193 43,-307.193 43,-110.798 43,-71.907 84.3327,-45.6815 115.133,-31.5378"/>
<polygon fill="black" stroke="black" points="116.928,-34.5733 124.697,-27.3695 114.132,-28.1563 116.928,-34.5733"/>
<text text-anchor="middle" x="46.5" y="-208.694" font-family="Times New Roman,serif" font-size="14.00">c</text>
</g>
<!-- T0&#45;&gt;T1 -->
<g id="edge2" class="edge"><title>T0&#45;&gt;T1</title>
<path fill="none" stroke="black" d="M110.588,-464.387C98.626,-451.182 80.9418,-431.661 67.2571,-416.554"/>
<polygon fill="black" stroke="black" points="69.8247,-414.175 60.517,-409.114 64.6368,-418.875 69.8247,-414.175"/>
<text text-anchor="middle" x="94.5" y="-432.993" font-family="Times New Roman,serif" font-size="14.00">a</text>
</g>
<!-- T0&#45;&gt;T2 -->
<g id="edge3" class="edge"><title>T0&#45;&gt;T2</title>
<path fill="none" stroke="black" d="M124,-462.072C124,-432.194 124,-370.305 124,-334.466"/>
<polygon fill="black" stroke="black" points="127.5,-334.244 124,-324.244 120.5,-334.244 127.5,-334.244"/>
<text text-anchor="middle" x="128" y="-389.493" font-family="Times New Roman,serif" font-size="14.00">b</text>
</g>
<!-- T0&#45;&gt;T3 -->
<g id="edge4" class="edge"><title>T0&#45;&gt;T3</title>
<path fill="none" stroke="black" d="M150.258,-475.833C192.043,-468.854 269,-448.614 269,-394.193 269,-394.193 269,-394.193 269,-110.798 269,-67.0526 218.183,-41.4531 182.413,-28.8525"/>
<polygon fill="black" stroke="black" points="183.372,-25.4827 172.778,-25.6388 181.157,-32.1231 183.372,-25.4827"/>
<text text-anchor="middle" x="272.5" y="-258.993" font-family="Times New Roman,serif" font-size="14.00">c</text>
</g>
<!-- T4 -->
<g id="node4" class="node"><title>T4</title>
<ellipse fill="none" stroke="black" cx="134" cy="-212.394" rx="20.6302" ry="20.6302"/>
<ellipse fill="none" stroke="black" cx="134" cy="-212.394" rx="24.5979" ry="24.5979"/>
<text text-anchor="middle" x="134" y="-208.694" font-family="Times New Roman,serif" font-size="14.00">T4</text>
</g>
<!-- T4&#45;&gt;T4 -->
<g id="edge14" class="edge"><title>T4&#45;&gt;T4</title>
<path fill="none" stroke="black" d="M157.332,-221.623C167.77,-222.502 176.798,-219.426 176.798,-212.394 176.798,-207.89 173.093,-205.009 167.686,-203.751"/>
<polygon fill="black" stroke="black" points="167.514,-200.236 157.332,-203.166 167.119,-207.224 167.514,-200.236"/>
<text text-anchor="middle" x="180.298" y="-208.694" font-family="Times New Roman,serif" font-size="14.00">a</text>
</g>
<!-- T5 -->
<g id="node5" class="node"><title>T5</title>
<ellipse fill="none" stroke="black" cx="178" cy="-111.798" rx="20.6302" ry="20.6302"/>
<ellipse fill="none" stroke="black" cx="178" cy="-111.798" rx="24.5979" ry="24.5979"/>
<text text-anchor="middle" x="178" y="-108.098" font-family="Times New Roman,serif" font-size="14.00">T5</text>
</g>
<!-- T4&#45;&gt;T5 -->
<g id="edge16" class="edge"><title>T4&#45;&gt;T5</title>
<path fill="none" stroke="black" d="M143.765,-189.513C149.746,-176.11 157.497,-158.742 164.11,-143.922"/>
<polygon fill="black" stroke="black" points="167.383,-145.177 168.262,-134.619 160.991,-142.324 167.383,-145.177"/>
<text text-anchor="middle" x="162.5" y="-158.396" font-family="Times New Roman,serif" font-size="14.00">c</text>
</g>
<!-- T4&#45;&gt;T3 -->
<g id="edge15" class="edge"><title>T4&#45;&gt;T3</title>
<path fill="none" stroke="black" d="M133.263,-187.485C132.752,-162.393 132.668,-121.831 136,-87 137.298,-73.4322 139.81,-58.5033 142.202,-46.0984"/>
<polygon fill="black" stroke="black" points="145.703,-46.4378 144.239,-35.9446 138.84,-45.0607 145.703,-46.4378"/>
<text text-anchor="middle" x="140" y="-108.098" font-family="Times New Roman,serif" font-size="14.00">b</text>
</g>
<!-- T5&#45;&gt;T3 -->
<g id="edge17" class="edge"><title>T5&#45;&gt;T3</title>
<path fill="none" stroke="black" d="M170.584,-88.1065C166.353,-75.1599 161.03,-58.8703 156.614,-45.3585"/>
<polygon fill="black" stroke="black" points="159.881,-44.0869 153.447,-35.6689 153.227,-46.2614 159.881,-44.0869"/>
<text text-anchor="middle" x="167.5" y="-57.8" font-family="Times New Roman,serif" font-size="14.00">a</text>
</g>
<!-- T5&#45;&gt;T3 -->
<g id="edge18" class="edge"><title>T5&#45;&gt;T3</title>
<path fill="none" stroke="black" d="M179.868,-86.9456C179.898,-76.538 178.843,-64.3702 175,-54 173.396,-49.6734 171.057,-45.4485 168.415,-41.5162"/>
<polygon fill="black" stroke="black" points="171.14,-39.317 162.319,-33.4492 165.556,-43.5374 171.14,-39.317"/>
<text text-anchor="middle" x="183" y="-57.8" font-family="Times New Roman,serif" font-size="14.00">b</text>
</g>
<!-- T5&#45;&gt;T3 -->
<g id="edge19" class="edge"><title>T5&#45;&gt;T3</title>
<path fill="none" stroke="black" d="M162.854,-91.8798C158.212,-85.0559 153.637,-77.045 151,-69 148.644,-61.8107 147.542,-53.7331 147.115,-46.2014"/>
<polygon fill="black" stroke="black" points="150.612,-45.9903 146.9,-36.0669 143.613,-46.1391 150.612,-45.9903"/>
<text text-anchor="middle" x="154.5" y="-57.8" font-family="Times New Roman,serif" font-size="14.00">c</text>
</g>
<!-- T2&#45;&gt;T4 -->
<g id="edge8" class="edge"><title>T2&#45;&gt;T4</title>
<path fill="none" stroke="black" d="M125.881,-287.926C127.125,-276.503 128.799,-261.141 130.303,-247.332"/>
<polygon fill="black" stroke="black" points="133.807,-247.486 131.411,-237.165 126.848,-246.727 133.807,-247.486"/>
<text text-anchor="middle" x="133.5" y="-258.993" font-family="Times New Roman,serif" font-size="14.00">a</text>
</g>
<!-- T2&#45;&gt;T3 -->
<g id="edge9" class="edge"><title>T2&#45;&gt;T3</title>
<path fill="none" stroke="black" d="M142.02,-292.534C158.03,-280.274 180.738,-260.198 193,-237.193 214.401,-197.04 207.759,-181.898 212,-136.596 214.054,-114.649 218.163,-108.164 212,-87 207.139,-70.3088 202.556,-66.9873 191,-54 185.985,-48.3641 180.01,-42.8986 174.134,-38.0273"/>
<polygon fill="black" stroke="black" points="176.289,-35.2691 166.28,-31.7929 171.936,-40.7517 176.289,-35.2691"/>
<text text-anchor="middle" x="215" y="-158.396" font-family="Times New Roman,serif" font-size="14.00">b</text>
</g>
<!-- T2&#45;&gt;T3 -->
<g id="edge10" class="edge"><title>T2&#45;&gt;T3</title>
<path fill="none" stroke="black" d="M116.46,-288.848C110.661,-275.329 103.128,-255.455 100,-237.193 87.9612,-166.911 117.968,-85.0472 135.84,-44.4817"/>
<polygon fill="black" stroke="black" points="139.052,-45.8734 139.983,-35.3195 132.673,-42.9892 139.052,-45.8734"/>
<text text-anchor="middle" x="105.5" y="-158.396" font-family="Times New Roman,serif" font-size="14.00">c</text>
</g>
<!-- T3&#45;&gt;T3 -->
<g id="edge11" class="edge"><title>T3&#45;&gt;T3</title>
<path fill="none" stroke="black" d="M174.795,-20.6192C184.78,-20.7051 193,-19.832 193,-18 193,-16.855 189.789,-16.0846 184.943,-15.6887"/>
<polygon fill="black" stroke="black" points="184.896,-12.1858 174.795,-15.3808 184.684,-19.1826 184.896,-12.1858"/>
<text text-anchor="middle" x="196.5" y="-14.3" font-family="Times New Roman,serif" font-size="14.00">a</text>
</g>
<!-- T3&#45;&gt;T3 -->
<g id="edge12" class="edge"><title>T3&#45;&gt;T3</title>
<path fill="none" stroke="black" d="M174.214,-22.7113C192.696,-24.1915 211,-22.6211 211,-18 211,-14.2454 198.917,-12.5046 184.472,-12.7778"/>
<polygon fill="black" stroke="black" points="184.027,-9.2955 174.214,-13.2887 184.375,-16.2868 184.027,-9.2955"/>
<text text-anchor="middle" x="215" y="-14.3" font-family="Times New Roman,serif" font-size="14.00">b</text>
</g>
<!-- T3&#45;&gt;T3 -->
<g id="edge13" class="edge"><title>T3&#45;&gt;T3</title>
<path fill="none" stroke="black" d="M173.713,-24.1447C199.877,-27.7592 229,-25.7109 229,-18 229,-11.2831 206.902,-8.863 183.91,-10.7398"/>
<polygon fill="black" stroke="black" points="183.273,-7.28856 173.713,-11.8553 184.034,-14.2471 183.273,-7.28856"/>
<text text-anchor="middle" x="232.5" y="-14.3" font-family="Times New Roman,serif" font-size="14.00">c</text>
</g>
</g>
</svg>
