<?xml version="1.0" encoding="UTF-8" standalone="no"?>
<!DOCTYPE svg PUBLIC "-//W3C//DTD SVG 1.1//EN"
 "http://www.w3.org/Graphics/SVG/1.1/DTD/svg11.dtd">
<!-- Generated by graphviz version 2.38.0 (20140413.2041)
 -->
<!-- Title: %3 Pages: 1 -->
<svg width="278pt" height="579pt"
 viewBox="0.00 0.00 278.44 579.19" xmlns="http://www.w3.org/2000/svg" xmlns:xlink="http://www.w3.org/1999/xlink">
<g id="graph0" class="graph" transform="scale(1 1) rotate(0) translate(4 575.193)">
<title>%3</title>
<polygon fill="white" stroke="none" points="-4,4 -4,-575.193 274.441,-575.193 274.441,4 -4,4"/>
<!-- fake0 -->
<g id="node1" class="node"><title>fake0</title>
</g>
<!-- T0 -->
<g id="node2" class="node"><title>T0</title>
<ellipse fill="none" stroke="black" cx="182.441" cy="-480.193" rx="27" ry="18"/>
<text text-anchor="middle" x="182.441" y="-476.493" font-family="Times New Roman,serif" font-size="14.00">T0</text>
</g>
<!-- fake0&#45;&gt;T0 -->
<g id="edge1" class="edge"><title>fake0&#45;&gt;T0</title>
<path fill="none" stroke="black" stroke-width="2" d="M182.441,-535.005C182.441,-526.982 182.441,-517.24 182.441,-508.262"/>
<polygon fill="black" stroke="black" stroke-width="2" points="185.942,-508.221 182.441,-498.221 178.942,-508.221 185.942,-508.221"/>
</g>
<!-- T2 -->
<g id="node4" class="node"><title>T2</title>
<ellipse fill="none" stroke="black" cx="93.4414" cy="-306.193" rx="27" ry="18"/>
<text text-anchor="middle" x="93.4414" y="-302.493" font-family="Times New Roman,serif" font-size="14.00">T2</text>
</g>
<!-- T0&#45;&gt;T2 -->
<g id="edge3" class="edge"><title>T0&#45;&gt;T2</title>
<path fill="none" stroke="black" d="M171.363,-463.706C161.967,-450.208 148.459,-429.914 138.441,-411.193 124.659,-385.437 111.726,-354.571 103.293,-333.187"/>
<polygon fill="black" stroke="black" points="106.528,-331.849 99.6402,-323.8 100.005,-334.388 106.528,-331.849"/>
<text text-anchor="middle" x="142.441" y="-389.493" font-family="Times New Roman,serif" font-size="14.00">b</text>
</g>
<!-- T1 -->
<g id="node5" class="node"><title>T1</title>
<ellipse fill="none" stroke="black" cx="182.441" cy="-393.193" rx="27" ry="18"/>
<text text-anchor="middle" x="182.441" y="-389.493" font-family="Times New Roman,serif" font-size="14.00">T1</text>
</g>
<!-- T0&#45;&gt;T1 -->
<g id="edge2" class="edge"><title>T0&#45;&gt;T1</title>
<path fill="none" stroke="black" d="M182.441,-461.992C182.441,-450.355 182.441,-434.741 182.441,-421.429"/>
<polygon fill="black" stroke="black" points="185.942,-421.368 182.441,-411.368 178.942,-421.368 185.942,-421.368"/>
<text text-anchor="middle" x="185.941" y="-432.993" font-family="Times New Roman,serif" font-size="14.00">a</text>
</g>
<!-- T3 -->
<g id="node6" class="node"><title>T3</title>
<ellipse fill="none" stroke="black" cx="129.441" cy="-18" rx="27" ry="18"/>
<text text-anchor="middle" x="129.441" y="-14.3" font-family="Times New Roman,serif" font-size="14.00">T3</text>
</g>
<!-- T0&#45;&gt;T3 -->
<g id="edge4" class="edge"><title>T0&#45;&gt;T3</title>
<path fill="none" stroke="black" d="M203.723,-468.592C227.722,-454.959 263.441,-428.846 263.441,-394.193 263.441,-394.193 263.441,-394.193 263.441,-110.798 263.441,-62.9367 204.541,-38.1881 164.841,-26.943"/>
<polygon fill="black" stroke="black" points="165.526,-23.5034 154.961,-24.3071 163.721,-30.2668 165.526,-23.5034"/>
<text text-anchor="middle" x="266.941" y="-258.993" font-family="Times New Roman,serif" font-size="14.00">c</text>
</g>
<!-- T5 -->
<g id="node3" class="node"><title>T5</title>
<ellipse fill="none" stroke="black" cx="89.4414" cy="-111.798" rx="20.6302" ry="20.6302"/>
<ellipse fill="none" stroke="black" cx="89.4414" cy="-111.798" rx="24.5979" ry="24.5979"/>
<text text-anchor="middle" x="89.4414" y="-108.098" font-family="Times New Roman,serif" font-size="14.00">T5</text>
</g>
<!-- T5&#45;&gt;T3 -->
<g id="edge17" class="edge"><title>T5&#45;&gt;T3</title>
<path fill="none" stroke="black" d="M75.5597,-91.0467C69.4325,-79.7296 64.9325,-65.5301 71.4414,-54 77.0631,-44.0417 86.7816,-36.5989 96.6739,-31.1973"/>
<polygon fill="black" stroke="black" points="98.2416,-34.3269 105.695,-26.797 95.1727,-28.0354 98.2416,-34.3269"/>
<text text-anchor="middle" x="74.9414" y="-57.8" font-family="Times New Roman,serif" font-size="14.00">a</text>
</g>
<!-- T5&#45;&gt;T3 -->
<g id="edge18" class="edge"><title>T5&#45;&gt;T3</title>
<path fill="none" stroke="black" d="M91.363,-87.0349C92.8789,-76.5299 95.5906,-64.2609 100.441,-54 102.564,-49.5099 105.396,-45.1122 108.46,-41.0327"/>
<polygon fill="black" stroke="black" points="111.271,-43.1244 114.922,-33.1785 105.866,-38.6768 111.271,-43.1244"/>
<text text-anchor="middle" x="104.441" y="-57.8" font-family="Times New Roman,serif" font-size="14.00">b</text>
</g>
<!-- T5&#45;&gt;T3 -->
<g id="edge19" class="edge"><title>T5&#45;&gt;T3</title>
<path fill="none" stroke="black" d="M99.1243,-88.5764C104.855,-75.4252 112.141,-58.7028 118.135,-44.9483"/>
<polygon fill="black" stroke="black" points="121.444,-46.1165 122.23,-35.5509 115.026,-43.3202 121.444,-46.1165"/>
<text text-anchor="middle" x="116.941" y="-57.8" font-family="Times New Roman,serif" font-size="14.00">c</text>
</g>
<!-- T2&#45;&gt;T3 -->
<g id="edge9" class="edge"><title>T2&#45;&gt;T3</title>
<path fill="none" stroke="black" d="M68.2333,-299.34C52.3164,-294.305 32.6998,-285.376 21.4414,-270.193 -9.45049,-228.53 1.35525,-206.301 5.44143,-154.596 9.00807,-109.466 -7.98439,-88.4039 21.4414,-54 38.9623,-33.5151 68.5858,-24.9284 92.3805,-21.3736"/>
<polygon fill="black" stroke="black" points="93.0165,-24.8213 102.503,-20.1038 92.1452,-17.8758 93.0165,-24.8213"/>
<text text-anchor="middle" x="9.44143" y="-158.396" font-family="Times New Roman,serif" font-size="14.00">b</text>
</g>
<!-- T2&#45;&gt;T3 -->
<g id="edge10" class="edge"><title>T2&#45;&gt;T3</title>
<path fill="none" stroke="black" d="M83.1544,-289.467C75.0536,-276.15 64.3393,-256.239 59.4414,-237.193 42.8112,-172.521 46.578,-153.185 55.4414,-87 57.4593,-71.9322 54.9825,-65.9012 64.4414,-54 72.6029,-43.7312 84.6274,-36.0791 96.1217,-30.5927"/>
<polygon fill="black" stroke="black" points="97.7854,-33.6857 105.556,-26.4835 94.9901,-27.268 97.7854,-33.6857"/>
<text text-anchor="middle" x="51.9414" y="-158.396" font-family="Times New Roman,serif" font-size="14.00">c</text>
</g>
<!-- T4 -->
<g id="node7" class="node"><title>T4</title>
<ellipse fill="none" stroke="black" cx="93.4414" cy="-212.394" rx="20.6302" ry="20.6302"/>
<ellipse fill="none" stroke="black" cx="93.4414" cy="-212.394" rx="24.5979" ry="24.5979"/>
<text text-anchor="middle" x="93.4414" y="-208.694" font-family="Times New Roman,serif" font-size="14.00">T4</text>
</g>
<!-- T2&#45;&gt;T4 -->
<g id="edge8" class="edge"><title>T2&#45;&gt;T4</title>
<path fill="none" stroke="black" d="M93.4414,-287.926C93.4414,-276.586 93.4414,-261.363 93.4414,-247.632"/>
<polygon fill="black" stroke="black" points="96.9415,-247.511 93.4414,-237.511 89.9415,-247.512 96.9415,-247.511"/>
<text text-anchor="middle" x="96.9414" y="-258.993" font-family="Times New Roman,serif" font-size="14.00">a</text>
</g>
<!-- T1&#45;&gt;T2 -->
<g id="edge7" class="edge"><title>T1&#45;&gt;T2</title>
<path fill="none" stroke="black" d="M167.344,-377.774C153.194,-364.26 131.865,-343.89 115.753,-328.501"/>
<polygon fill="black" stroke="black" points="117.965,-325.774 108.316,-321.399 113.13,-330.837 117.965,-325.774"/>
<text text-anchor="middle" x="147.441" y="-345.993" font-family="Times New Roman,serif" font-size="14.00">b</text>
</g>
<!-- T1&#45;&gt;T3 -->
<g id="edge5" class="edge"><title>T1&#45;&gt;T3</title>
<path fill="none" stroke="black" d="M182.478,-374.941C182.18,-324.548 178.391,-173.579 145.441,-54 144.599,-50.9425 143.519,-47.8154 142.318,-44.7498"/>
<polygon fill="black" stroke="black" points="145.416,-43.0975 138.215,-35.3262 138.998,-45.8921 145.416,-43.0975"/>
<text text-anchor="middle" x="179.941" y="-208.694" font-family="Times New Roman,serif" font-size="14.00">a</text>
</g>
<!-- T1&#45;&gt;T3 -->
<g id="edge6" class="edge"><title>T1&#45;&gt;T3</title>
<path fill="none" stroke="black" d="M195.343,-377.362C208.009,-361.238 225.441,-334.149 225.441,-307.193 225.441,-307.193 225.441,-307.193 225.441,-110.798 225.441,-74.3343 188.815,-47.893 160.809,-33.0046"/>
<polygon fill="black" stroke="black" points="162.21,-29.7912 151.707,-28.4007 159.051,-36.0376 162.21,-29.7912"/>
<text text-anchor="middle" x="228.941" y="-208.694" font-family="Times New Roman,serif" font-size="14.00">c</text>
</g>
<!-- T3&#45;&gt;T3 -->
<g id="edge11" class="edge"><title>T3&#45;&gt;T3</title>
<path fill="none" stroke="black" d="M156.236,-20.6192C166.222,-20.7051 174.441,-19.832 174.441,-18 174.441,-16.855 171.231,-16.0846 166.385,-15.6887"/>
<polygon fill="black" stroke="black" points="166.338,-12.1858 156.236,-15.3808 166.125,-19.1826 166.338,-12.1858"/>
<text text-anchor="middle" x="177.941" y="-14.3" font-family="Times New Roman,serif" font-size="14.00">a</text>
</g>
<!-- T3&#45;&gt;T3 -->
<g id="edge12" class="edge"><title>T3&#45;&gt;T3</title>
<path fill="none" stroke="black" d="M155.655,-22.7113C174.138,-24.1915 192.441,-22.6211 192.441,-18 192.441,-14.2454 180.358,-12.5046 165.913,-12.7778"/>
<polygon fill="black" stroke="black" points="165.468,-9.2955 155.655,-13.2887 165.817,-16.2868 165.468,-9.2955"/>
<text text-anchor="middle" x="196.441" y="-14.3" font-family="Times New Roman,serif" font-size="14.00">b</text>
</g>
<!-- T3&#45;&gt;T3 -->
<g id="edge13" class="edge"><title>T3&#45;&gt;T3</title>
<path fill="none" stroke="black" d="M155.154,-24.1447C181.319,-27.7592 210.441,-25.7109 210.441,-18 210.441,-11.2831 188.343,-8.863 165.351,-10.7398"/>
<polygon fill="black" stroke="black" points="164.714,-7.28856 155.154,-11.8553 165.475,-14.2471 164.714,-7.28856"/>
<text text-anchor="middle" x="213.941" y="-14.3" font-family="Times New Roman,serif" font-size="14.00">c</text>
</g>
<!-- T4&#45;&gt;T5 -->
<g id="edge16" class="edge"><title>T4&#45;&gt;T5</title>
<path fill="none" stroke="black" d="M92.4731,-187.527C91.9805,-175.385 91.373,-160.409 90.8314,-147.059"/>
<polygon fill="black" stroke="black" points="94.3172,-146.637 90.4147,-136.788 87.323,-146.921 94.3172,-146.637"/>
<text text-anchor="middle" x="95.9414" y="-158.396" font-family="Times New Roman,serif" font-size="14.00">c</text>
</g>
<!-- T4&#45;&gt;T3 -->
<g id="edge15" class="edge"><title>T4&#45;&gt;T3</title>
<path fill="none" stroke="black" d="M104.346,-189.748C111.148,-175.13 119.359,-155.182 123.441,-136.596 130.097,-106.295 130.97,-70.5942 130.578,-46.5436"/>
<polygon fill="black" stroke="black" points="134.072,-46.2841 130.324,-36.3744 127.074,-46.4584 134.072,-46.2841"/>
<text text-anchor="middle" x="134.441" y="-108.098" font-family="Times New Roman,serif" font-size="14.00">b</text>
</g>
<!-- T4&#45;&gt;T4 -->
<g id="edge14" class="edge"><title>T4&#45;&gt;T4</title>
<path fill="none" stroke="black" d="M116.774,-221.623C127.212,-222.502 136.24,-219.426 136.24,-212.394 136.24,-207.89 132.535,-205.009 127.127,-203.751"/>
<polygon fill="black" stroke="black" points="126.955,-200.236 116.774,-203.166 126.56,-207.224 126.955,-200.236"/>
<text text-anchor="middle" x="139.74" y="-208.694" font-family="Times New Roman,serif" font-size="14.00">a</text>
</g>
</g>
</svg>
